<?xml version="1.0" encoding="utf-8"?>
<!-- Generator: Adobe Illustrator 23.1.0, SVG Export Plug-In . SVG Version: 6.00 Build 0)  -->
<svg version="1.1" id="Layer_1" xmlns="http://www.w3.org/2000/svg" xmlns:xlink="http://www.w3.org/1999/xlink" x="0px" y="0px"
	 viewBox="0 0 16 16" style="enable-background:new 0 0 16 16;" xml:space="preserve">
<style type="text/css">
	.st0{fill:#555D63;}
</style>
<path class="st0" d="M13,11.5v-7l2.3-1.9C15.6,2.4,16,2.5,16,2.7v10.5c0,0.2-0.3,0.3-0.7,0.2L13,11.5z"/>
<path class="st0" d="M3,4.5v7l-2.3,1.9C0.4,13.6,0,13.5,0,13.3V2.7c0-0.2,0.3-0.3,0.7-0.2L3,4.5z"/>
<path class="st0" d="M11.5,3h-7L2.6,0.7C2.4,0.4,2.5,0,2.7,0h10.5c0.2,0,0.3,0.3,0.2,0.7L11.5,3z"/>
<path class="st0" d="M4.5,13h7l1.9,2.3c0.2,0.2,0.1,0.7-0.2,0.7H2.7c-0.2,0-0.3-0.3-0.2-0.7L4.5,13z"/>
</svg>
