<svg xmlns="http://www.w3.org/2000/svg" viewBox="0 0 194 194">
	<polygon points="104.5,55.4 89.5,55.4 89.5,89.5 55.4,89.5 55.4,104.5 89.5,104.5 89.5,138.6 104.5,138.6 104.5,104.5 138.6,104.5 
		138.6,89.5 104.5,89.5 	"/>
	<path d="M184.5,60c-7.2-17-19.2-31.5-34.4-41.8C135,8,116.6,2,97,2C83.9,2,71.4,4.7,60,9.5c-17.1,7.2-31.6,19.3-41.8,34.4
		S2,77.4,2,97c0,13.1,2.7,25.6,7.5,37c7.2,17.1,19.3,31.6,34.4,41.8S77.3,192,97,192c13.1,0,25.6-2.7,37-7.5
		c17.1-7.2,31.6-19.3,41.8-34.4C186,134.9,192,116.6,192,97C192,83.9,189.3,71.4,184.5,60z M170.7,128.1
		c-6.1,14.3-16.2,26.6-29,35.2C128.9,172,113.6,177,97,177c-11.1,0-21.6-2.2-31.1-6.3c-14.3-6.1-26.6-16.2-35.2-29
		C22,129,17,113.6,17,97c0-11.1,2.2-21.6,6.3-31.1c6.1-14.3,16.2-26.6,29-35.2C65,22,80.4,17,97,17c11.1,0,21.6,2.2,31.1,6.3
		c14.3,6.1,26.6,16.2,35.2,29C171.9,65.1,177,80.4,177,97C177,108.1,174.8,118.6,170.7,128.1z"/>
</svg>
