<?xml version="1.0" encoding="utf-8"?>
<!-- Generator: Adobe Illustrator 19.2.0, SVG Export Plug-In . SVG Version: 6.00 Build 0)  -->
<svg version="1.1" id="Layer_1" xmlns="http://www.w3.org/2000/svg" xmlns:xlink="http://www.w3.org/1999/xlink" x="0px" y="0px"
	 viewBox="0 0 20 20" style="enable-background:new 0 0 20 20;" xml:space="preserve">
<style type="text/css">
	.st0{fill:#555D63;}
</style>
<path class="st0" d="M15.7,14.6V5.4c0-0.1,0-0.2,0.1-0.2l2-2C18,3,18.4,3.1,18.4,3.4v13.1c0,0.3-0.3,0.4-0.6,0.2l-2-2
	C15.8,14.7,15.7,14.6,15.7,14.6z"/>
<path class="st0" d="M4.3,5.4v9.1c0,0.1,0,0.2-0.1,0.2l-2,2C2,17,1.6,16.9,1.6,16.6l0-13.1C1.6,3.1,2,3,2.2,3.2l2,2
	C4.2,5.3,4.3,5.4,4.3,5.4z"/>
<path class="st0" d="M14.6,4.3H5.4c-0.1,0-0.2,0-0.2-0.1l-2-2C3,2,3.1,1.6,3.4,1.6h13.1c0.3,0,0.4,0.3,0.2,0.6l-2,2
	C14.7,4.2,14.6,4.3,14.6,4.3z"/>
<path class="st0" d="M5.4,15.7h9.1c0.1,0,0.2,0,0.2,0.1l2,2c0.2,0.2,0.1,0.6-0.2,0.6H3.4c-0.3,0-0.4-0.3-0.2-0.6l2-2
	C5.3,15.8,5.4,15.7,5.4,15.7z"/>
</svg>
