<?xml version="1.0" encoding="utf-8"?>
<!-- Generator: Adobe Illustrator 19.2.0, SVG Export Plug-In . SVG Version: 6.00 Build 0)  -->
<svg version="1.1" id="Layer_1" xmlns="http://www.w3.org/2000/svg" xmlns:xlink="http://www.w3.org/1999/xlink" x="0px" y="0px"
	 viewBox="0 0 20 20" style="enable-background:new 0 0 20 20;" xml:space="preserve">
<style type="text/css">
	.st0{opacity:6.000000e-02;fill:#555D63;}
	.st1{fill:#555D63;}
</style>
<path class="st0" d="M1.6,1.6v16.8h16.8V1.6H1.6z M15.7,15.7H4.3V4.3h11.4V15.7z"/>
<path class="st1" d="M15.6,4.3H4.4c-0.1,0-0.2,0-0.2-0.1l-2-2C2,2,2.1,1.6,2.4,1.6h15.2c0.3,0,0.4,0.3,0.2,0.6l-2,2
	C15.8,4.2,15.7,4.3,15.6,4.3z"/>
<path class="st1" d="M4.4,15.7h11.2c0.1,0,0.2,0,0.2,0.1l2,2c0.2,0.2,0.1,0.6-0.2,0.6H2.4c-0.3,0-0.4-0.3-0.2-0.6l2-2
	C4.2,15.8,4.3,15.7,4.4,15.7z"/>
</svg>
