<svg width="48" height="48" viewBox="0 0 48 48"  xmlns="http://www.w3.org/2000/svg">
<path fill-rule="evenodd" clip-rule="evenodd" d="M35 38V16H30C30 19.3137 27.3137 22 24 22C20.6863 22 18 19.3137 18 16H13V38H35ZM13 8C11.8954 8 11 8.89543 11 10V38C11 39.1046 11.8954 40 13 40H35C36.1046 40 37 39.1046 37 38V10C37 8.89543 36.1046 8 35 8H13ZM24 20C26.2091 20 28 18.2091 28 16C28 13.7909 26.2091 12 24 12C21.7909 12 20 13.7909 20 16C20 18.2091 21.7909 20 24 20ZM17 26H31V28H17V26ZM31 34V32H17V34H31Z" />
</svg>

