<svg xmlns="http://www.w3.org/2000/svg" width="20" height="20" viewBox="0 0 20 20">
	<path d="M17,9.4H3c-0.4,0-0.8-0.3-0.8-0.8S2.6,7.9,3,7.9h14c0.4,0,0.8,0.3,0.8,0.8S17.4,9.4,17,9.4z M17.8,11.3
		c0-0.4-0.3-0.8-0.8-0.8H3c-0.4,0-0.8,0.3-0.8,0.8s0.3,0.8,0.8,0.8h14C17.4,12.1,17.8,11.7,17.8,11.3z M18.2,1.5H1.8
		c-0.2,0-0.3,0.1-0.3,0.3v2.3c0,0.2,0.1,0.3,0.3,0.3h16.3c0.2,0,0.3-0.1,0.3-0.3V1.8C18.5,1.6,18.4,1.5,18.2,1.5 M18.2,0
		c1,0,1.8,0.8,1.8,1.8v2.3c0,1-0.8,1.8-1.8,1.8H1.8C0.8,6,0,5.2,0,4.2V1.8C0,0.8,0.8,0,1.8,0H18.2L18.2,0z M13.2,3
		c0-0.3-0.3-0.6-0.6-0.6H3C2.7,2.4,2.4,2.7,2.4,3S2.7,3.6,3,3.6h9.6C12.9,3.6,13.2,3.3,13.2,3z M17.6,3c0-0.3-0.3-0.6-0.6-0.6h-1
		c-0.3,0-0.6,0.3-0.6,0.6s0.3,0.6,0.6,0.6h1C17.4,3.6,17.6,3.3,17.6,3z M18.2,15.5H1.8c-0.2,0-0.3,0.1-0.3,0.3v2.3
		c0,0.2,0.1,0.3,0.3,0.3h16.3c0.2,0,0.3-0.1,0.3-0.3v-2.3C18.5,15.6,18.4,15.5,18.2,15.5 M18.2,14c1,0,1.8,0.8,1.8,1.8v2.3
		c0,1-0.8,1.8-1.8,1.8H1.8c-1,0-1.8-0.8-1.8-1.8v-2.3c0-1,0.8-1.8,1.8-1.8H18.2L18.2,14z M13.2,17c0-0.3-0.3-0.6-0.6-0.6H3
		c-0.3,0-0.6,0.3-0.6,0.6s0.3,0.6,0.6,0.6h9.6C12.9,17.6,13.2,17.3,13.2,17z M17.6,17c0-0.3-0.3-0.6-0.6-0.6h-1
		c-0.3,0-0.6,0.3-0.6,0.6s0.3,0.6,0.6,0.6h1C17.4,17.6,17.6,17.3,17.6,17z"
	/>
</svg>
