<svg xmlns="http://www.w3.org/2000/svg" width="20" height="20" viewBox="0 0 20 20">
	<path d="M0,2.7C0,1.6,0.3,0,2.4,0C2.7,0,3,0.3,3,0.6c0,0.3-0.3,0.6-0.6,0.6C1.8,1.1,1.3,1.5,1.3,2H2c0.6,0,1,0.5,1,1
		v0.9c0,0.6-0.5,1-1,1H1c-0.6,0-1-0.4-1-1V2.7z M4.4,2.7C4.4,1.6,4.7,0,6.8,0c0.3,0,0.6,0.3,0.6,0.6c0,0.3-0.3,0.6-0.6,0.6
		C6.1,1.1,5.6,1.5,5.6,2h0.7c0.6,0,1,0.5,1,1v0.9c0,0.6-0.5,1-1,1h-1c-0.6,0-1-0.4-1-1V2.7z M15.6,17.3c0,1.1-0.3,2.7-2.4,2.7
		c-0.3,0-0.6-0.3-0.6-0.6c0-0.3,0.3-0.6,0.6-0.6c0.6,0,1.1-0.4,1.1-0.9h-0.7c-0.6,0-1-0.5-1-1v-1c0-0.6,0.5-1,1-1h1c0.6,0,1,0.4,1,1
		V17.3z M20,17.3c0,1.1-0.3,2.7-2.4,2.7c-0.3,0-0.6-0.3-0.6-0.6c0-0.3,0.3-0.6,0.6-0.6c0.6,0,1.1-0.4,1.1-0.9H18c-0.6,0-1-0.5-1-1v-1
		c0-0.6,0.5-1,1-1h1c0.6,0,1,0.4,1,1V17.3z M20,7.3c0-0.4-0.3-0.8-0.8-0.8H0.8C0.4,6.6,0,6.9,0,7.3c0,0.4,0.3,0.8,0.8,0.8h18.5
		C19.7,8.1,20,7.8,20,7.3z M20,10c0-0.4-0.3-0.8-0.8-0.8H0.8C0.4,9.2,0,9.6,0,10c0,0.4,0.3,0.8,0.8,0.8h18.5C19.7,10.7,20,10.4,20,10
		z M20,12.6c0-0.4-0.3-0.8-0.8-0.8H0.8c-0.4,0-0.8,0.3-0.8,0.8c0,0.4,0.3,0.8,0.8,0.8h18.5C19.7,13.4,20,13,20,12.6z"
	/>
</svg>
