<svg xmlns="http://www.w3.org/2000/svg" width="20" height="20" viewBox="0 0 20 20">
	<path d="M4.4,1.5v2.9H1.5V1.5H4.4 M5,0H0.9C0.4,0,0,0.4,0,0.9V5c0,0.5,0.4,0.9,0.9,0.9H5c0.5,0,0.9-0.4,0.9-0.9V0.9
		C5.9,0.4,5.5,0,5,0z M8.3,4.8h11C19.7,4.8,20,4.4,20,4c0-0.4-0.3-0.8-0.8-0.8h-11C7.9,3.3,7.5,3.6,7.5,4C7.5,4.4,7.9,4.8,8.3,4.8
		M8.3,2.6h7.5c0.4,0,0.8-0.3,0.8-0.8c0-0.4-0.3-0.8-0.8-0.8H8.3c-0.4,0-0.8,0.3-0.8,0.8C7.5,2.2,7.9,2.6,8.3,2.6 M4.4,8.6v2.9H1.5
		V8.6H4.4 M5,7.1H0.9C0.4,7.1,0,7.5,0,8V12c0,0.5,0.4,0.9,0.9,0.9H5c0.5,0,0.9-0.4,0.9-0.9V8C5.9,7.5,5.5,7.1,5,7.1z M8.3,11.9h11
		c0.4,0,0.8-0.3,0.8-0.8c0-0.4-0.3-0.8-0.8-0.8h-11c-0.4,0-0.8,0.3-0.8,0.8C7.5,11.5,7.9,11.9,8.3,11.9 M8.3,9.6h7.5
		c0.4,0,0.8-0.3,0.8-0.8c0-0.4-0.3-0.8-0.8-0.8H8.3c-0.4,0-0.8,0.3-0.8,0.8C7.5,9.3,7.9,9.6,8.3,9.6 M4.4,15.6v2.9H1.5v-2.9H4.4
		M5,14.1H0.9C0.4,14.1,0,14.5,0,15v4.1C0,19.6,0.4,20,0.9,20H5c0.5,0,0.9-0.4,0.9-0.9V15C5.9,14.5,5.5,14.1,5,14.1z M8.3,18.9h11
		c0.4,0,0.8-0.3,0.8-0.8c0-0.4-0.3-0.8-0.8-0.8h-11c-0.4,0-0.8,0.3-0.8,0.8C7.5,18.6,7.9,18.9,8.3,18.9 M8.3,16.7h7.5
		c0.4,0,0.8-0.3,0.8-0.8s-0.3-0.8-0.8-0.8H8.3c-0.4,0-0.8,0.3-0.8,0.8S7.9,16.7,8.3,16.7"
	/>
</svg>
