<svg xmlns="http://www.w3.org/2000/svg" width="20" height="20" viewBox="0 0 20 20">
	<path d="M18.2,0H1.8C0.8,0,0,0.8,0,1.8v5.3C0,8.2,0.8,9,1.8,9h5.2v2.7c-0.1-0.2-0.2-0.4-0.3-0.5c0,0,0,0,0,0
		c-0.3-0.5-0.7-0.9-1.3-1.1C4.9,9.9,4.3,10,3.8,10.3c-1.1,0.6-1.5,1.9-0.9,2.9l1.3,2.4c0,0,0,0,0,0c0.1,0.1,0.1,0.2,0.2,0.3
		c0.9,1.6,2.3,4,6.5,4c4.1,0,6-3.6,6-7v-3c0-0.4-0.1-0.7-0.2-1h1.5c1,0,1.8-0.8,1.8-1.8V1.8C20,0.8,19.2,0,18.2,0z M15.4,13
		c0,2-1,5.5-4.5,5.5c-3.3,0-4.3-1.7-5.2-3.3c-0.1-0.1-0.1-0.2-0.2-0.3l-1.3-2.4c-0.1-0.2-0.1-0.3,0-0.5c0.1-0.2,0.2-0.3,0.3-0.4
		c0.2-0.1,0.3-0.1,0.5,0c0.2,0.1,0.3,0.2,0.4,0.3c0.1,0.2,0.3,0.7,0.5,0.9c0.4,0.5,1,0.8,1.6,0.6c0.6-0.2,1-0.8,1-1.5V5.1
		c0-0.4,0.3-0.7,0.7-0.7s0.7,0.3,0.7,0.7v3.2V9v1.8c0,0.4,0.3,0.8,0.8,0.8s0.8-0.3,0.8-0.8V9V8.7c0.1-0.2,0.3-0.3,0.6-0.3
		c0.4,0,0.7,0.3,0.7,0.7v0.4v1.9c0,0.4,0.3,0.8,0.8,0.8s0.8-0.3,0.8-0.8V9.7c0.1-0.2,0.3-0.3,0.6-0.3c0.4,0,0.7,0.3,0.7,0.7V13z
		M18.5,7.2c0,0.2-0.1,0.3-0.3,0.3h-4.7c-0.4-0.4-0.9-0.6-1.5-0.6c-0.2,0-0.4,0-0.6,0.1V5.1c0-1.2-1-2.2-2.2-2.2s-2.2,1-2.2,2.2v2.4
		H1.8c-0.2,0-0.3-0.1-0.3-0.3V1.8c0-0.2,0.1-0.3,0.3-0.3h16.3c0.2,0,0.3,0.1,0.3,0.3V7.2z"
	/>
</svg>
