<?xml version="1.0" encoding="utf-8"?>
<!-- Generator: Adobe Illustrator 23.1.0, SVG Export Plug-In . SVG Version: 6.00 Build 0)  -->
<svg version="1.1" id="Layer_1" xmlns="http://www.w3.org/2000/svg" xmlns:xlink="http://www.w3.org/1999/xlink" x="0px" y="0px"
	 viewBox="0 0 16 16" style="enable-background:new 0 0 16 16;" xml:space="preserve">
<path d="M13.5,0h-11c-0.6,0-1,0.5-1,1v5c0,0.6,0.5,1,1,1H6v1v0.5v1.5C5.9,9.8,5.8,9.7,5.7,9.6c-0.2-0.4-0.5-0.7-1-0.8
	C4.4,8.6,4,8.7,3.6,8.9c-0.8,0.4-1.1,1.4-0.7,2.1l1,1.8C4,12.9,4,13,4,13c0.7,1.2,1.7,3,4.8,3c3,0,4.4-2.7,4.4-5.2V8.6
	c0-0.3-0.1-0.5-0.1-0.7l-0.6-0.5c0,0-0.7-0.1-0.7-0.2l-0.6,0.2L10.9,7h2.6c0.6,0,1-0.5,1-1V1C14.5,0.5,14,0,13.5,0z M11.4,9.7V8.5
	c0.1-0.1,0.2-0.2,0.4-0.2c0.3,0,0.5,0.2,0.5,0.5v2.1c0,1.5-1,4.1-3.5,4.1c-2.4,0-3.2-1.3-3.8-2.4c-0.1-0.1-0.1-0.1-0.1-0.2l-1-1.8
	c-0.1-0.1-0.1-0.2,0-0.4C4,10,4,9.9,4.1,9.9c0.1-0.1,0.2-0.1,0.4,0c0.1,0.1,0.2,0.1,0.3,0.2c0.1,0.1,0.2,0.5,0.4,0.7
	c0.3,0.4,0.7,0.6,1.2,0.4c0.4-0.1,0.7-0.6,0.7-1.1v-5c0-0.3,0.2-0.5,0.5-0.5c0.3,0,0.5,0.2,0.5,0.5v2.4V8v1.3c0,0.3,0.2,0.6,0.6,0.6
	s0.6-0.2,0.6-0.6V8V7.7c0.1-0.1,0.2-0.2,0.4-0.2c0.3,0,0.5,0.2,0.5,0.5v0.3v1.4c0,0.3,0.2,0.6,0.6,0.6S11.4,10.1,11.4,9.7z
	 M13.5,5.5C13.5,5.8,13.3,6,13,6H9.2V5.2C9.2,4.7,9,4.3,8.8,4h1.7V3h-5v1h0.9C6.1,4.3,6,4.7,6,5.1V6H3C2.7,6,2.5,5.8,2.5,5.5v-4
	C2.5,1.2,2.7,1,3,1h10c0.3,0,0.5,0.2,0.5,0.5V5.5z"/>
</svg>
