<?xml version="1.0" encoding="utf-8"?>
<!-- Generator: Adobe Illustrator 23.1.0, SVG Export Plug-In . SVG Version: 6.00 Build 0)  -->
<svg version="1.1" id="Layer_1" xmlns="http://www.w3.org/2000/svg" xmlns:xlink="http://www.w3.org/1999/xlink" x="0px" y="0px"
	 viewBox="0 0 16 16" style="enable-background:new 0 0 16 16;" xml:space="preserve">
<path d="M13.5,0h-11c-0.6,0-1,0.5-1,1v5c0,0.6,0.5,1,1,1h11c0.6,0,1-0.5,1-1V1C14.5,0.5,14,0,13.5,0z M13.5,5.5
	C13.5,5.8,13.3,6,13,6H3C2.7,6,2.5,5.8,2.5,5.5v-4C2.5,1.3,2.7,1,3,1h10c0.3,0,0.5,0.2,0.5,0.5V5.5z"/>
<path d="M13.5,9h-11c-0.6,0-1,0.5-1,1v5c0,0.6,0.5,1,1,1h11c0.6,0,1-0.5,1-1v-5C14.5,9.5,14,9,13.5,9z M13.5,14.5
	c0,0.3-0.2,0.5-0.5,0.5H3c-0.3,0-0.5-0.2-0.5-0.5v-4C2.5,10.2,2.7,10,3,10h10c0.3,0,0.5,0.2,0.5,0.5V14.5z"/>
<rect x="5.5" y="3" width="5" height="1"/>
<rect x="5.5" y="12" width="5" height="1"/>
</svg>
