<svg xmlns="http://www.w3.org/2000/svg" width="20" height="20" viewBox="0 0 20 20">
	<path d="M18.2,0H1.8C0.8,0,0,0.8,0,1.8v16.3c0,1,0.8,1.8,1.8,1.8h16.3c1,0,1.8-0.8,1.8-1.8V1.8C20,0.8,19.2,0,18.2,0z
		M18.5,18.2c0,0.2-0.1,0.3-0.3,0.3H1.8c-0.2,0-0.3-0.1-0.3-0.3V1.8c0-0.2,0.1-0.3,0.3-0.3h16.3c0.2,0,0.3,0.1,0.3,0.3V18.2z
		M16.9,13.2c0,0.4-0.3,0.8-0.8,0.8H3.9c-0.4,0-0.8-0.3-0.8-0.8s0.3-0.8,0.8-0.8h12.3C16.5,12.4,16.9,12.8,16.9,13.2z M16.9,15.8
		c0,0.4-0.3,0.8-0.8,0.8H3.9c-0.4,0-0.8-0.3-0.8-0.8S3.5,15,3.9,15h12.3C16.5,15,16.9,15.4,16.9,15.8z M5,10h10
		c0.2,0,0.4-0.1,0.5-0.2s0.2-0.3,0.2-0.5v-5c0-0.2-0.1-0.4-0.2-0.5S15.2,3.5,15,3.5H5c-0.2,0-0.4,0.1-0.5,0.2S4.3,4,4.3,4.2v5
		c0,0.2,0.1,0.4,0.2,0.5S4.8,10,5,10z M5.8,5h8.5v3.5H5.8V5z"
	/>
</svg>
