<svg enable-background="new 0 0 16 16" viewBox="0 0 16 16" xmlns="http://www.w3.org/2000/svg"><path d="m8.5 9.8c-.3 0-.6.3-.6.6 0 .3.3.6.6.6s.6-.3.6-.6c0-.3-.2-.6-.6-.6z"/><path d="m10.5 9.8c-.3 0-.6.3-.6.6 0 .3.3.6.6.6s.6-.3.6-.6c0-.3-.3-.6-.6-.6z"/><path d="m1.8 9.7c-.1 0-.2 0-.3-.1l-1.3-1.3c-.1-.1-.1-.4 0-.5l1.3-1.3c.1-.1.4-.1.5 0s.1.4 0 .5l-1 1 1.1 1.1c.1.1.1.4 0 .5s-.2.1-.3.1z"/><path d="m11.9 3.4v9.2h-7.8v-9.2zm.6-1.2h-9c-.3 0-.5.2-.5.5v10.5c0 .3.2.5.5.5h9c.3 0 .5-.2.5-.5v-10.5c.1-.3-.2-.5-.5-.5z"/><path d="m10.5 6.2h-5c-.3 0-.6-.3-.6-.6s.3-.6.6-.6h4.9c.3 0 .6.3.6.6s-.2.6-.5.6z"/><path d="m10.5 8.2h-5c-.3 0-.6-.3-.6-.6s.3-.6.6-.6h4.9c.3 0 .6.3.6.6s-.2.6-.5.6z"/><path d="m6.6 9.8h-1.1c-.3 0-.6.3-.6.6 0 .3.3.6.6.6h1.1c.3 0 .6-.3.6-.6 0-.3-.3-.6-.6-.6z"/><path d="m13.9 10.1c-.1 0-.3 0-.4-.1-.2-.2-.2-.5 0-.7l1.3-1.3-1.2-1.2c-.2-.2-.2-.5 0-.7s.5-.2.7 0l1.6 1.6c.2.2.2.5 0 .7l-1.7 1.6c-.1.1-.2.1-.3.1z"/><path d="m2.2 10.1c-.1 0-.3 0-.4-.1l-1.6-1.6c-.2-.2-.2-.6 0-.8l1.6-1.6c.2-.2.5-.2.7 0s.2.5 0 .7l-1.2 1.3 1.3 1.3c.2.2.2.5 0 .7-.2.1-.3.1-.4.1z"/></svg>