<?xml version="1.0" encoding="utf-8"?>
<!-- Generator: Adobe Illustrator 23.1.0, SVG Export Plug-In . SVG Version: 6.00 Build 0)  -->
<svg version="1.1" id="Layer_1" xmlns="http://www.w3.org/2000/svg" xmlns:xlink="http://www.w3.org/1999/xlink" x="0px" y="0px"
	 viewBox="0 0 20 20" style="enable-background:new 0 0 20 20;" xml:space="preserve">
<path d="M18.3,0H1.8C0.8,0,0,0.8,0,1.8v16.4c0,1,0.8,1.8,1.8,1.8h16.4c1,0,1.8-0.8,1.8-1.8V1.8C20.1,0.8,19.3,0,18.3,0z M6.1,18.6
	H1.8c-0.2,0-0.3-0.1-0.3-0.3V1.8c0-0.2,0.1-0.3,0.3-0.3h4.3V18.6z M18.3,18.6h-4.5V1.5h4.4c0.2,0,0.3,0.1,0.3,0.3l0.1,16.5
	C18.6,18.5,18.5,18.6,18.3,18.6z"/>
</svg>
