<svg xmlns="http://www.w3.org/2000/svg" width="20" height="20" viewBox="0 0 20 20">
	<path d="M18.2,0H1.8C0.8,0,0,0.8,0,1.8v0.4v1v13.7v0.8v0.6c0,1,0.8,1.8,1.8,1.8h16.3c1,0,1.8-0.8,1.8-1.8v-0.6v-0.8V3.2
		v-1V1.8C20,0.8,19.2,0,18.2,0z M4.5,10.6l1.8,0l-1.8,1.8V10.6z M7.6,9.4l-3.1,0V7.7l4.8,0L7.6,9.4z M10.5,6.5l-6,0V5H12L10.5,6.5z
		M3.3,15H1.8c-0.1,0-0.2,0-0.3,0V5c0.1,0,0.2,0,0.3,0h1.4V15z M4.5,14.2L13.7,5h1.8v0.8l0,0L6.3,15H4.5V14.2z M15.5,9.4l-1.8,0
		l1.8-1.8V9.4z M12.4,10.6l3.1,0v1.7l-4.8,0L12.4,10.6z M9.5,13.5l6,0V15H8L9.5,13.5z M16.8,5h1.4c0.1,0,0.2,0,0.3,0V15
		c-0.1,0-0.2,0-0.3,0h-1.4V5z M1.5,1.8c0-0.2,0.1-0.3,0.3-0.3h16.3c0.2,0,0.3,0.1,0.3,0.3v1.3c0,0.2-0.1,0.3-0.3,0.3H1.8
		c-0.2,0-0.3-0.1-0.3-0.3V1.8z M18.5,18.2c0,0.2-0.1,0.3-0.3,0.3H1.8c-0.2,0-0.3-0.1-0.3-0.3v-1.3c0-0.2,0.1-0.3,0.3-0.3h16.3
		c0.2,0,0.3,0.1,0.3,0.3V18.2z M3.6,17.5c0,0.3-0.2,0.5-0.5,0.5s-0.5-0.2-0.5-0.5S2.9,17,3.1,17S3.6,17.2,3.6,17.5z M17.4,17.5
		c0,0.3-0.2,0.5-0.5,0.5s-0.5-0.2-0.5-0.5s0.2-0.5,0.5-0.5S17.4,17.2,17.4,17.5z M2.6,2.5C2.6,2.2,2.9,2,3.1,2s0.5,0.2,0.5,0.5
		S3.4,3,3.1,3S2.6,2.8,2.6,2.5z M16.4,2.5c0-0.3,0.2-0.5,0.5-0.5s0.5,0.2,0.5,0.5S17.2,3,16.9,3S16.4,2.8,16.4,2.5z"
	/>
</svg>
