<svg xmlns="http://www.w3.org/2000/svg" width="20" height="20" viewBox="0 0 20 20">
	<path d="M18.5,2.9H1.5C0.7,2.9,0,3.6,0,4.4v11.1c0,0.9,0.7,1.5,1.5,1.5h16.9c0.9,0,1.5-0.7,1.5-1.5V4.4
		C20,3.6,19.3,2.9,18.5,2.9z M18.5,15.6C18.5,15.6,18.5,15.6,18.5,15.6l-7.1,0c0.2-0.3,0.3-0.7,0.4-1.2c0-0.3-0.1-0.6-0.2-0.9
		c-0.3-0.5-0.8-0.9-1.4-1.1c0.3-0.3,0.7-0.8,1-1.2c0.2-0.2,0.3-0.4,0.4-0.6c0.2-0.5,0.1-0.8-0.3-1.1c-0.1-0.1-0.2-0.1-0.4-0.1h-3l0,0
		l0,0c-0.1,0-0.3,0.1-0.4,0.1C7.3,9.8,7.2,10,7.2,10.2l0,0l0,0c0,0.3,0.3,0.6,0.6,0.6l0.6,0h1.4c-0.5,0.6-1.2,1.3-1.4,1.5
		c-0.3,0.3-0.4,0.7-0.1,1l0.2,0.2v0c0.1,0.1,0.3,0.1,0.4,0.1c1,0.1,1.4,0.3,1.5,1c-0.1,0.8-0.7,0.9-1.2,1c-0.8,0-1-0.5-1.1-0.8l0,0
		c-0.1-0.3-0.4-0.5-0.7-0.5c-0.3,0.1-0.5,0.4-0.5,0.7l0,0c0,0.1,0.1,0.4,0.3,0.7H1.5c0,0,0,0,0,0V4.4c0,0,0,0,0,0h8.6
		c-0.3,0.4-0.7,0.8-1,1.1L9,5.5C8.4,6.1,7.8,6.7,7.3,7.1C7.1,7.2,7,7.4,6.9,7.5C6.9,7.7,6.9,7.9,6.9,8C7,8.2,7.1,8.4,7.3,8.5
		c0.2,0.1,0.4,0.2,0.6,0.2h3.2l0,0l0,0c0.3,0,0.6-0.3,0.6-0.6c0-0.3-0.3-0.6-0.6-0.6l-0.6,0H8.9c0.4-0.3,0.7-0.7,1.1-1
		c0.5-0.5,1.1-1.1,1.4-1.6c0.1-0.1,0.1-0.3,0.2-0.4H16c0.1,0.1,0.1,0.3,0.2,0.5c-0.1,0.8-0.7,0.9-1.2,1c-0.8,0-1-0.5-1.1-0.8l0,0
		c-0.1-0.3-0.4-0.5-0.7-0.5c-0.3,0.1-0.5,0.4-0.5,0.7l0,0c0.1,0.2,0.5,1.7,2.3,1.7c1.5,0,2.4-0.9,2.5-2.2c0-0.2,0-0.3,0-0.5h1.1
		c0,0,0,0,0,0V15.6z M5.9,13c0,0.3-0.3,0.6-0.6,0.6H3.6C3.2,13.6,3,13.3,3,13c0-0.3,0.3-0.6,0.6-0.6h0.2V8.2L3.5,8.3
		C3.4,8.4,3.2,8.4,3,8.4c-0.2,0-0.3-0.1-0.4-0.3C2.6,8,2.6,7.8,2.6,7.6c0-0.2,0.1-0.3,0.3-0.4l1.2-0.7C4.4,6.4,4.8,6.5,5,6.8
		C5,6.9,5,7,5,7.1v5.3h0.2C5.6,12.3,5.9,12.6,5.9,13z M17.1,12h-0.3V8.4c0-0.3-0.3-0.6-0.6-0.6c-0.2,0-0.4,0.1-0.5,0.3l-3.3,4.2
		c-0.1,0.1-0.2,0.3-0.1,0.5c0,0.2,0.1,0.3,0.2,0.4c0.1,0.1,0.2,0.1,0.4,0.1h2.7v1.1c0,0.3,0.3,0.6,0.6,0.6s0.6-0.3,0.6-0.6v-1.1h0.3
		c0.3,0,0.6-0.3,0.6-0.6C17.8,12.3,17.5,12,17.1,12z M15.6,12h-1.4l1.4-1.8V12z"
	/>
</svg>
