<svg xmlns="http://www.w3.org/2000/svg" width="20" height="20" viewBox="0 0 20 20">
<path d="M10.5,0C10.2,0,10,0.2,10,0.5v1.3c0,0.2,0.2,0.4,0.4,0.5c4.3,0.2,7.6,3.9,7.3,8.4c-0.3,3.8-3.4,6.9-7.1,7.1
	c-4.4,0.3-8.1-3-8.4-7.3C2.2,10.2,2,10,1.8,10H0.5C0.2,10,0,10.2,0,10.5c0.3,5.4,4.9,9.8,10.5,9.5c5.1-0.2,9.3-4.4,9.5-9.5
	C20.2,4.9,15.9,0.3,10.5,0z"/>
<path d="M3.7,4.7c0.2,0.2,0.5,0.2,0.7,0l0.4-0.4c0.2-0.2,0.2-0.5,0-0.7L3.8,2.8c-0.2-0.2-0.5-0.2-0.7,0L2.8,3.1
	c-0.2,0.2-0.2,0.5,0,0.7L3.7,4.7z"/>
<path d="M6.2,2.6C6.3,2.9,6.6,3,6.9,2.9l0.5-0.2c0.3-0.1,0.4-0.4,0.3-0.6L7.1,0.9C7,0.7,6.7,0.5,6.5,0.6L6,0.8
	C5.8,0.9,5.7,1.2,5.8,1.5L6.2,2.6z"/>
<path d="M0.9,7l1.2,0.5c0.2,0.1,0.5,0,0.6-0.3l0.2-0.5c0.1-0.2,0-0.5-0.3-0.6L1.5,5.7C1.3,5.6,1,5.7,0.9,5.9L0.7,6.4
	C0.6,6.6,0.7,6.9,0.9,7z"/>
<path d="M4.8,9.3c-0.3,0-0.5,0.2-0.5,0.5v0.4c0,0.3,0.2,0.5,0.5,0.5H8c0.3,0.8,1.1,1.4,2,1.4c1.1,0,2.1-0.9,2.1-2.1
	c0-1.1-0.9-2.1-2.1-2.1c-0.9,0-1.7,0.6-2,1.4H4.8z M10,9.2c0.4,0,0.7,0.3,0.7,0.7c0,0.4-0.3,0.7-0.7,0.7S9.2,10.4,9.2,10
	C9.2,9.6,9.6,9.2,10,9.2z"/>
</svg>
