<svg xmlns="http://www.w3.org/2000/svg" width="20" height="20" viewBox="0 0 20 20">
	<path d="M16.1,8.5c0-1.4-1-2.5-2.2-2.9V1.5c0-0.3-0.1-0.5-0.3-0.6c-0.2-0.1-0.5-0.2-0.7-0.1L4.5,4.6H0.8
		C0.3,4.6,0,4.9,0,5.4v6.3c0,0.4,0.3,0.8,0.8,0.8h1.1v5.7c0,0.4,0.3,0.8,0.8,0.8h2.1c0.4,0,0.8-0.3,0.8-0.8v-5.2l7.4,3.4
		c0.1,0,0.2,0.1,0.3,0.1c0.1,0,0.3,0,0.4-0.1c0.2-0.1,0.3-0.4,0.3-0.6v-4.2C15.2,11.1,16.1,9.9,16.1,8.5z M1.5,6.1h2.4v4.8H1.5V6.1z
		M3.3,17.4v-4.9h0.6v4.9H3.3z M12.4,14.4l-6.9-3.2V5.8l6.9-3.2V14.4z M13.9,10.1V7c0.6,0.3,1,0.9,1,1.5C14.9,9.2,14.5,9.8,13.9,10.1
		z M20,8.5c0,0.3-0.3,0.6-0.6,0.6h-1.5c-0.3,0-0.6-0.3-0.6-0.6c0-0.3,0.3-0.6,0.6-0.6h1.5C19.7,7.9,20,8.2,20,8.5z M17.8,12.9
		c0.2,0.2,0.2,0.6,0,0.9c-0.1,0.1-0.3,0.2-0.4,0.2c-0.2,0-0.3-0.1-0.4-0.2l-1.1-1.1c-0.2-0.2-0.2-0.6,0-0.9c0.2-0.2,0.6-0.2,0.9,0
		L17.8,12.9z M15.8,5.2c-0.2-0.2-0.2-0.6,0-0.9l1.1-1.1c0.2-0.2,0.6-0.2,0.9,0c0.2,0.2,0.2,0.6,0,0.9l-1.1,1.1
		c-0.1,0.1-0.3,0.2-0.4,0.2C16.1,5.4,15.9,5.4,15.8,5.2z"
	/>
</svg>
