<svg xmlns="http://www.w3.org/2000/svg" width="20" height="20" viewBox="0 0 20 20">
	<path d="M2.5,9c0.6,0,1,0.5,1,1c0,0.6-0.5,1-1,1s-1-0.5-1-1C1.5,9.4,2,9,2.5,9 M2.5,7.5C1.1,7.5,0,8.6,0,10
		c0,1.4,1.1,2.5,2.5,2.5s2.5-1.1,2.5-2.5C5.1,8.6,3.9,7.5,2.5,7.5z M10,9c0.6,0,1,0.5,1,1c0,0.6-0.5,1-1,1c-0.6,0-1-0.5-1-1
		C9,9.4,9.4,9,10,9 M10,7.5c-1.4,0-2.5,1.1-2.5,2.5c0,1.4,1.1,2.5,2.5,2.5c1.4,0,2.5-1.1,2.5-2.5C12.5,8.6,11.4,7.5,10,7.5z M17.5,9
		c0.6,0,1,0.5,1,1c0,0.6-0.5,1-1,1c-0.6,0-1-0.5-1-1C16.4,9.4,16.9,9,17.5,9 M17.5,7.5c-1.4,0-2.5,1.1-2.5,2.5c0,1.4,1.1,2.5,2.5,2.5
		c1.4,0,2.5-1.1,2.5-2.5C20,8.6,18.9,7.5,17.5,7.5z"
	/>
</svg>
