<svg xmlns="http://www.w3.org/2000/svg" width="20" height="20" viewBox="0 0 20 20">
	<path d="M18.6,0H12c-0.8,0-1.4,0.6-1.4,1.4v8.3c0,0.8,0.6,1.4,1.4,1.4h6.6c0.8,0,1.4-0.6,1.4-1.4V1.4
		C20,0.6,19.4,0,18.6,0z M18.5,1.5V7c-0.9-0.7-2-1-3.2-1c-1.2,0-2.4,0.4-3.2,1V1.5H18.5z M18.5,9.7h-6.4c0-0.2,0.1-0.5,0.2-0.7
		c0.5-0.9,1.7-1.5,3-1.5c1.3,0,2.4,0.6,2.9,1.4C18.4,9.1,18.5,9.4,18.5,9.7z M13.2,3.6c0-0.5,0.4-1,1-1c0.5,0,1,0.4,1,1
		c0,0.5-0.4,1-1,1C13.6,4.5,13.2,4.1,13.2,3.6z M19,16.6c0,0.4-0.3,0.8-0.8,0.8h-6c-0.4,0-0.8-0.3-0.8-0.8s0.3-0.8,0.8-0.8h6
		C18.7,15.9,19,16.2,19,16.6z M19,19.2c0,0.4-0.3,0.8-0.8,0.8h-6c-0.4,0-0.8-0.3-0.8-0.8c0-0.4,0.3-0.8,0.8-0.8h6
		C18.7,18.5,19,18.8,19,19.2z M19,14c0,0.4-0.3,0.8-0.8,0.8h-6c-0.4,0-0.8-0.3-0.8-0.8c0-0.4,0.3-0.8,0.8-0.8h6
		C18.7,13.3,19,13.6,19,14z M8,0H1.4C0.6,0,0,0.6,0,1.4v8.3c0,0.8,0.6,1.4,1.4,1.4H8c0.8,0,1.4-0.6,1.4-1.4V1.4C9.4,0.6,8.8,0,8,0z
		M7.9,1.5V7c-0.9-0.7-2-1-3.2-1c-1.2,0-2.4,0.4-3.2,1V1.5H7.9z M7.9,9.7H1.5c0-0.2,0.1-0.5,0.2-0.7c0.5-0.9,1.7-1.5,3-1.5
		C6,7.4,7.2,8,7.7,8.9C7.8,9.1,7.9,9.4,7.9,9.7z M2.6,3.6c0-0.5,0.4-1,1-1c0.5,0,1,0.4,1,1c0,0.5-0.4,1-1,1C3,4.5,2.6,4.1,2.6,3.6z
		M8.4,16.6c0,0.4-0.3,0.8-0.8,0.8h-6C1.3,17.4,1,17,1,16.6s0.3-0.8,0.8-0.8h6C8.1,15.9,8.4,16.2,8.4,16.6z M8.4,19.2
		c0,0.4-0.3,0.8-0.8,0.8h-6C1.3,20,1,19.7,1,19.2c0-0.4,0.3-0.8,0.8-0.8h6C8.1,18.5,8.4,18.8,8.4,19.2z M8.4,14
		c0,0.4-0.3,0.8-0.8,0.8h-6C1.3,14.8,1,14.4,1,14c0-0.4,0.3-0.8,0.8-0.8h6C8.1,13.3,8.4,13.6,8.4,14z"
	/>
</svg>
