<svg xmlns="http://www.w3.org/2000/svg" width="20" height="20" viewBox="0 0 20 20">
	<path d="M18.2,0H1.8C0.8,0,0,0.8,0,1.8v16.3c0,1,0.8,1.8,1.8,1.8h16.3c1,0,1.8-0.8,1.8-1.8V1.8C20,0.8,19.2,0,18.2,0z
		M1.8,1.5h6.1v9.6c-0.8-0.8-2-1.3-3.2-1.3c-1.2,0-2.4,0.5-3.2,1.3V1.8C1.5,1.6,1.6,1.5,1.8,1.5z M1.5,18.2v-3.6h0
		c0-0.9,0.4-1.7,0.9-2.3c0.6-0.6,1.4-0.9,2.3-0.9c0.9,0,1.7,0.4,2.3,0.9c0.6,0.6,0.9,1.4,0.9,2.3v4H1.8C1.6,18.5,1.5,18.4,1.5,18.2z
		M18.5,18.2c0,0.2-0.1,0.3-0.3,0.3H9.4v-4h0c0,0,0,0,0,0v-13h8.7c0.2,0,0.3,0.1,0.3,0.3V18.2z M2.6,6.8c0-0.6,0.5-1,1-1s1,0.5,1,1
		s-0.5,1-1,1S2.6,7.3,2.6,6.8z M17,8.7c0,0.4-0.3,0.8-0.8,0.8h-4.9c-0.4,0-0.8-0.3-0.8-0.8s0.3-0.8,0.8-0.8h4.9
		C16.7,7.9,17,8.3,17,8.7z M17,11.3c0,0.4-0.3,0.8-0.8,0.8h-4.9c-0.4,0-0.8-0.3-0.8-0.8s0.3-0.8,0.8-0.8h4.9
		C16.7,10.5,17,10.9,17,11.3z M17,6.1c0,0.4-0.3,0.8-0.8,0.8h-4.9c-0.4,0-0.8-0.3-0.8-0.8s0.3-0.8,0.8-0.8h4.9
		C16.7,5.3,17,5.7,17,6.1z M17,13.8c0,0.4-0.3,0.8-0.8,0.8h-4.9c-0.4,0-0.8-0.3-0.8-0.8s0.3-0.8,0.8-0.8h4.9
		C16.7,13.1,17,13.4,17,13.8z"
	/>
</svg>
