<svg xmlns="http://www.w3.org/2000/svg" width="20" height="20" viewBox="0 0 20 20">
	<path d="M18.2,0L1.8,0C0.8,0,0,0.8,0,1.8v16.3c0,1,0.8,1.8,1.8,1.8h16.3c1,0,1.8-0.8,1.8-1.8V1.8C20,0.8,19.2,0,18.2,0z
		M1.8,1.5l16.3,0c0.1,0,0.2,0.1,0.2,0.1c0,0,0.1,0.1,0.1,0.2v1.7h-17V1.8C1.5,1.6,1.6,1.5,1.8,1.5z M18.2,18.5H1.8
		c-0.2,0-0.3-0.1-0.3-0.3V4.5h17v13.6C18.5,18.4,18.4,18.5,18.2,18.5z M16.3,5.8H3.7C3.5,5.8,3.3,5.8,3.2,6C3.1,6.1,3,6.3,3,6.5v5
		c0,0.2,0.1,0.4,0.2,0.5c0.1,0.1,0.3,0.2,0.5,0.2h12.5c0.2,0,0.4-0.1,0.5-0.2c0.1-0.1,0.2-0.3,0.2-0.5v-5c0-0.2-0.1-0.4-0.2-0.5
		C16.7,5.8,16.5,5.8,16.3,5.8z M4.5,10.7V7.3h11v3.5H4.5z M14,9c0,0.4-0.3,0.7-0.7,0.7H6.7C6.3,9.7,6,9.4,6,9c0-0.4,0.3-0.7,0.7-0.7
		h6.5C13.7,8.2,14,8.6,14,9z M2.7,2.5C2.7,2.2,3,2,3.2,2s0.5,0.2,0.5,0.5C3.7,2.8,3.5,3,3.2,3S2.7,2.8,2.7,2.5z M4.4,2.5
		C4.4,2.2,4.6,2,4.9,2c0.3,0,0.5,0.2,0.5,0.5C5.4,2.8,5.2,3,4.9,3C4.6,3,4.4,2.8,4.4,2.5z M6.1,2.5C6.1,2.2,6.3,2,6.6,2
		c0.3,0,0.5,0.2,0.5,0.5C7.1,2.8,6.9,3,6.6,3C6.3,3,6.1,2.8,6.1,2.5z"
	/>
</svg>
