<?xml version="1.0" encoding="utf-8"?>
<!-- Generator: Adobe Illustrator 23.1.0, SVG Export Plug-In . SVG Version: 6.00 Build 0)  -->
<svg version="1.1" id="Layer_1" xmlns="http://www.w3.org/2000/svg" xmlns:xlink="http://www.w3.org/1999/xlink" x="0px" y="0px"
	 viewBox="0 0 20 20" style="enable-background:new 0 0 20 20;" xml:space="preserve">
<path d="M15.3,1.1c-0.7,0-1.4,0.5-1.4,1.4v6.3H6.1V2.5c0-0.7-0.5-1.4-1.4-1.4C4,1.1,3.3,1.6,3.3,2.5v14.9c0,0.9,0.7,1.4,1.4,1.4
	c0.7,0,1.4-0.5,1.4-1.4v-6.3h7.7v6.3c0,0.9,0.7,1.4,1.4,1.4c0.7,0,1.4-0.5,1.4-1.4V2.5C16.7,1.8,16.2,1.1,15.3,1.1z"/>
</svg>
