<svg xmlns="http://www.w3.org/2000/svg" width="20" height="20" viewBox="0 0 20 20">
<path d="M17.1,5.7l-2-1.2c-0.1-0.1-0.3,0-0.3,0.2v2.4c0,0.2,0.2,0.3,0.3,0.2l2-1.2C17.2,6,17.2,5.8,17.1,5.7z"/>
<path d="M4.9,4.5l-2,1.2C2.7,5.8,2.7,6,2.8,6.1l2,1.2c0.1,0.1,0.3,0,0.3-0.2V4.7C5.2,4.5,5,4.4,4.9,4.5z"/>
<path d="M18.1,0H1.9C1.1,0,0.6,0.6,0.6,1.3v9.3c0,0.8,0.6,1.4,1.3,1.4h6.4v2c-0.1-0.1-0.1-0.3-0.2-0.4c-0.2-0.4-0.5-0.7-1-0.8
	c-0.4-0.1-0.8-0.1-1.2,0.1c-0.8,0.4-1.1,1.4-0.7,2.1l1,1.8c0.1,0.1,0.1,0.1,0.1,0.2C7,18.2,8,20,11.1,20c3,0,4.4-2.6,4.4-5.1v-2.2
	c0-0.3-0.1-0.5-0.1-0.7h2.8c0.7,0,1.3-0.6,1.3-1.3V1.3C19.4,0.6,18.9,0,18.1,0z M14.6,14.9c0,1.5-1,4-3.5,4c-2.4,0-3.1-1.2-3.8-2.4
	c-0.1-0.1-0.1-0.1-0.1-0.2l-1-1.8c-0.1-0.1-0.1-0.2,0-0.4c0.1-0.1,0.1-0.2,0.2-0.3c0.1-0.1,0.2-0.1,0.4,0C6.9,14,7,14.1,7.1,14.1
	c0.1,0.1,0.2,0.5,0.4,0.7c0.3,0.4,0.7,0.6,1.2,0.4c0.4-0.1,0.7-0.6,0.7-1.1v-5c0-0.3,0.2-0.5,0.5-0.5c0.3,0,0.5,0.2,0.5,0.5v2.3V12
	v1.3c0,0.3,0.2,0.6,0.6,0.6c0.4,0,0.6-0.2,0.6-0.6V12v-0.2c0.1-0.1,0.2-0.2,0.4-0.2c0.3,0,0.5,0.2,0.5,0.5v0.3v1.4
	c0,0.3,0.2,0.6,0.6,0.6c0.4,0,0.6-0.2,0.6-0.6v-1.2c0.1-0.1,0.2-0.2,0.4-0.2c0.3,0,0.5,0.2,0.5,0.5V14.9z M18.3,10.7
	c0,0.1-0.1,0.2-0.2,0.2h-5c-0.3-0.3-0.7-0.4-1.1-0.4c-0.1,0-0.3,0-0.4,0.1V9.2c0-0.9-0.7-1.6-1.6-1.6C9,7.5,8.3,8.3,8.3,9.2v1.8H1.9
	c-0.1,0-0.2-0.1-0.2-0.2V1.3c0-0.1,0.1-0.2,0.2-0.2H18c0.1,0,0.2,0.1,0.2,0.2V10.7z"/>
</svg>
