<svg enable-background="new 0 0 20 20" viewBox="0 0 20 20" xmlns="http://www.w3.org/2000/svg"><path d="m19.6 8.9c.7-.7.4-1.9-.6-2.1l-4.9-.7c-.3-.1-.6-.3-.8-.6l-2.2-4.4c-.4-.9-1.7-.9-2.1 0l-2.3 4.4c-.1.4-.4.6-.8.6l-4.9.7c-1 .2-1.3 1.4-.6 2.1l3.5 3.5c.3.2.4.6.3.9l-.8 4.9c-.2 1 .9 1.7 1.7 1.3l4.4-2.3c.3-.2.7-.2 1 0l4.4 2.3c.9.5 1.9-.3 1.7-1.3l-.8-4.9c-.1-.3.1-.7.3-.9zm-5.4 3.8.8 4.7c0 .2-.2.4-.4.3l-4.2-2.2c-.3-.1-.6-.1-.9 0l-4.2 2.2c-.1.1-.3-.1-.3-.3l.8-4.6c.1-.3 0-.6-.3-.8l-3.4-3.3c-.1-.2 0-.5.2-.5l4.7-.7c.3 0 .6-.2.7-.5l2.1-4.2c.1-.2.4-.2.5 0l2 4.2c.1.3.4.5.7.5l4.6.7c.2 0 .3.3.2.5l-3.4 3.3c-.2.2-.2.4-.2.7z"/></svg>