<svg width="20" height="20" viewBox="0 0 20 20" xmlns="http://www.w3.org/2000/svg">
<path d="M20.0001 9.9001C20.0001 9.5001 19.7001 9.1001 19.2001 9.1001H8.8001C8.4001 9.1001 8.0001 9.4001 8.0001 9.9001C8.0001 10.3001 8.3001 10.7001 8.8001 10.7001H19.2001C19.7001 10.7001 20.0001 10.3001 20.0001 9.9001ZM2.9001 12.0001L6.1001 8.8001C6.4001 8.5001 6.4001 8.0001 6.1001 7.7001C5.8001 7.4001 5.3001 7.4001 5.0001 7.7001L2.3001 10.4001L1.3001 9.4001C1.0001 9.1001 0.500098 9.1001 0.200098 9.4001C-0.0999023 9.7001 -0.0999023 10.2001 0.200098 10.5001L1.8001 12.0001C1.9001 12.1001 2.1001 12.2001 2.3001 12.2001C2.6001 12.3001 2.8001 12.2001 2.9001 12.0001Z"/>
</svg>
