<?xml version="1.0" encoding="utf-8"?>
<!-- Generator: Adobe Illustrator 23.1.0, SVG Export Plug-In . SVG Version: 6.00 Build 0)  -->
<svg version="1.1" id="Layer_1" xmlns="http://www.w3.org/2000/svg" xmlns:xlink="http://www.w3.org/1999/xlink" x="0px" y="0px"
	 viewBox="0 0 16 16" style="enable-background:new 0 0 16 16;" xml:space="preserve">
<path d="M7.1,7.6c0.3-0.3,0.1-0.7-0.2-0.8L5.1,6.6C5,6.5,4.9,6.5,4.8,6.4L4,4.8c-0.1-0.3-0.6-0.3-0.8,0L2.4,6.4
	c0,0.1-0.1,0.2-0.3,0.2L0.4,6.8C0,6.9-0.1,7.3,0.1,7.6l1.3,1.3c0.1,0.1,0.1,0.2,0.1,0.3l-0.3,1.8c-0.1,0.4,0.3,0.6,0.6,0.5l1.6-0.8
	c0.1-0.1,0.3-0.1,0.4,0l1.6,0.8C5.7,11.6,6,11.3,6,10.9L5.7,9.2c0-0.1,0-0.3,0.1-0.3L7.1,7.6z M4.6,8.7l0.2,1.2
	c0,0.1-0.1,0.1-0.1,0.1L3.7,9.4c-0.1,0-0.2,0-0.2,0L2.4,9.9c0,0-0.1,0-0.1-0.1l0.2-1.2c0-0.1,0-0.2-0.1-0.2L1.6,7.7
	c0-0.1,0-0.1,0.1-0.1l1.2-0.2C2.9,7.4,3,7.3,3,7.3l0.5-1.1c0-0.1,0.1-0.1,0.1,0l0.5,1.1c0,0.1,0.1,0.1,0.2,0.1l1.2,0.2
	c0.1,0,0.1,0.1,0.1,0.1L4.7,8.5C4.6,8.6,4.6,8.6,4.6,8.7z"/>
<path d="M15.4,8.6H8.8C8.5,8.6,8.2,8.4,8.2,8s0.2-0.6,0.6-0.6h6.6C15.7,7.4,16,7.6,16,8C16,8.4,15.8,8.6,15.4,8.6z"/>
</svg>
