<svg xmlns="http://www.w3.org/2000/svg" width="20" height="20" viewBox="0 0 20 20">
	<path d="M19.3,4.3H8.8c-0.4,0-0.8-0.3-0.8-0.8s0.3-0.8,0.8-0.8h10.4c0.4,0,0.8,0.3,0.8,0.8S19.7,4.3,19.3,4.3z M2.9,5.7
		l3.2-3.2c0.3-0.3,0.3-0.8,0-1.1s-0.8-0.3-1.1,0L2.4,4.1L1.3,3C1,2.7,0.5,2.7,0.2,3c-0.3,0.3-0.3,0.8,0,1.1l1.6,1.6
		C2,5.8,2.2,5.9,2.4,5.9C2.6,5.9,2.8,5.8,2.9,5.7z M20,9.9c0-0.4-0.3-0.8-0.8-0.8H8.8c-0.4,0-0.8,0.3-0.8,0.8c0,0.4,0.3,0.8,0.8,0.8
		h10.4C19.7,10.7,20,10.3,20,9.9z M2.9,12l3.2-3.2c0.3-0.3,0.3-0.8,0-1.1c-0.3-0.3-0.8-0.3-1.1,0l-2.7,2.7L1.3,9.4
		C1,9.1,0.5,9.1,0.2,9.4c-0.3,0.3-0.3,0.8,0,1.1L1.8,12c0.1,0.1,0.3,0.2,0.5,0.2l0,0C2.6,12.3,2.8,12.2,2.9,12z M20,16.3
		c0-0.4-0.3-0.8-0.8-0.8H8.8c-0.4,0-0.8,0.3-0.8,0.8c0,0.4,0.3,0.8,0.8,0.8h10.4C19.7,17,20,16.7,20,16.3z M2.9,18.4l3.2-3.2
		c0.3-0.3,0.3-0.8,0-1.1c-0.3-0.3-0.8-0.3-1.1,0l-2.7,2.7l-1.1-1.1c-0.3-0.3-0.8-0.3-1.1,0c-0.3,0.3-0.3,0.8,0,1.1l1.6,1.6
		c0.1,0.1,0.3,0.2,0.5,0.2l0,0C2.6,18.6,2.8,18.6,2.9,18.4z"
	/>
</svg>
