<?xml version="1.0" encoding="utf-8"?>
<!-- Generator: Adobe Illustrator 23.1.0, SVG Export Plug-In . SVG Version: 6.00 Build 0)  -->
<svg version="1.1" id="Layer_1" xmlns="http://www.w3.org/2000/svg" xmlns:xlink="http://www.w3.org/1999/xlink" x="0px" y="0px"
	 viewBox="0 0 16 16" style="enable-background:new 0 0 16 16;" xml:space="preserve">
<path d="M8,1.1C4.2,1.1,1.1,4.2,1.1,8s3.1,6.9,6.9,6.9s6.9-3.1,6.9-6.9S11.8,1.1,8,1.1z M8,13.9c-3.3,0-5.9-2.5-5.9-5.9
	S4.7,2.1,8,2.1s5.9,2.5,5.9,5.9S11.3,13.9,8,13.9z"/>
<path d="M11,7.5c0.2-0.2,0.1-0.6-0.2-0.7L9.3,6.6C9.2,6.6,9.1,6.5,9,6.5L8.3,5.1c-0.1-0.3-0.5-0.3-0.7,0L7,6.5
	c0,0.1-0.1,0.2-0.2,0.2L5.2,6.9C4.9,6.9,4.8,7.3,5,7.5l1.1,1.1c0.1,0.1,0.1,0.2,0.1,0.3L6,10.4c-0.1,0.3,0.3,0.5,0.5,0.4l1.4-0.7
	c0.1-0.1,0.2-0.1,0.3,0l1.4,0.7c0.3,0.2,0.6-0.1,0.5-0.4L9.8,8.9c0-0.1,0-0.2,0.1-0.3L11,7.5z"/>
</svg>
