<?xml version="1.0" encoding="utf-8"?>
<!-- Generator: Adobe Illustrator 23.1.0, SVG Export Plug-In . SVG Version: 6.00 Build 0)  -->
<svg version="1.1" id="Layer_1" xmlns="http://www.w3.org/2000/svg" xmlns:xlink="http://www.w3.org/1999/xlink" x="0px" y="0px"
	 viewBox="0 0 16 16" style="enable-background:new 0 0 16 16;" xml:space="preserve">
<path d="M7.1,6.6c0.3-0.3,0.1-0.7-0.2-0.8L5.1,5.6C5,5.5,4.9,5.5,4.8,5.4L4,3.8c-0.1-0.3-0.6-0.3-0.8,0L2.4,5.4
	c0,0.1-0.1,0.2-0.3,0.2L0.4,5.8C0,5.9-0.1,6.3,0.1,6.6l1.3,1.3C1.5,8,1.5,8.1,1.5,8.2L1.2,10c-0.1,0.4,0.3,0.6,0.6,0.5l1.6-0.8
	c0.1-0.1,0.3-0.1,0.4,0l1.6,0.8C5.7,10.6,6,10.3,6,9.9L5.7,8.2c0-0.1,0-0.3,0.1-0.3L7.1,6.6z M4.6,7.7l0.2,1.2C4.8,9,4.7,9,4.7,9
	l-1-0.6c-0.1,0-0.2,0-0.2,0L2.4,8.9c0,0-0.1,0-0.1-0.1l0.2-1.2c0-0.1,0-0.2-0.1-0.2L1.6,6.7c0-0.1,0-0.1,0.1-0.1l1.2-0.2L3,6.3
	l0.5-1.1c0-0.1,0.1-0.1,0.1,0l0.5,1.1c0,0.1,0.1,0.1,0.2,0.1l1.2,0.2c0.1,0,0.1,0.1,0.1,0.1L4.7,7.5C4.6,7.6,4.6,7.6,4.6,7.7z"/>
<path d="M15.4,6.9H8.8c-0.3,0-0.6-0.2-0.6-0.6s0.2-0.6,0.6-0.6h6.6c0.3,0,0.6,0.2,0.6,0.6C16,6.7,15.8,6.9,15.4,6.9z"/>
<path d="M15.4,9.6H8.8C8.5,9.6,8.2,9.4,8.2,9s0.2-0.6,0.6-0.6h6.6C15.7,8.4,16,8.6,16,9C16,9.4,15.8,9.6,15.4,9.6z"/>
<path d="M15.4,12.4H8.8c-0.3,0-0.6-0.2-0.6-0.6s0.2-0.6,0.6-0.6h6.6c0.3,0,0.6,0.2,0.6,0.6C16,12.2,15.8,12.4,15.4,12.4z"/>
</svg>
