<?xml version="1.0" encoding="utf-8"?>
<!-- Generator: Adobe Illustrator 23.1.0, SVG Export Plug-In . SVG Version: 6.00 Build 0)  -->
<svg version="1.1" id="Layer_1" xmlns="http://www.w3.org/2000/svg" xmlns:xlink="http://www.w3.org/1999/xlink" x="0px" y="0px"
	 viewBox="0 0 20 20" style="enable-background:new 0 0 20 20;" xml:space="preserve">
<path d="M16.7,8.9l-0.8-0.7c0,0,0,0,0,0c0.1-0.5,0.2-1,0.2-1.5C16.1,3,13,0,9.3,0C5.5,0,2.5,3,2.5,6.8c0,1.4,0.4,2.6,1.1,3.7
	c-0.9,0.6-1.2,1.8-0.7,2.7l1.3,2.4c0.1,0.1,0.1,0.2,0.2,0.3c0.9,1.6,2.3,4,6.5,4c4.1,0,6-3.6,6-7v-3C16.9,9.5,16.8,9.2,16.7,8.9z
	 M9.3,1.7c2.8,0,5.1,2.3,5.1,5.1c0,0.5-0.1,1-0.2,1.5l-0.1,0l-0.5-0.8c-0.4-0.4-0.9-0.6-1.5-0.6c-0.2,0-0.4,0-0.6,0.1V5.2
	c0-1-0.6-2-1.6-2.2C8.4,2.6,7,3.7,7,5.1v2.4V9v0.6v2.1c-0.1-0.2-0.2-0.4-0.3-0.5c-0.3-0.5-0.7-0.9-1.3-1.1c-0.8-0.9-1.3-2-1.3-3.3
	C4.2,4,6.5,1.7,9.3,1.7z M15.7,13c0,2-1.3,5.5-4.8,5.5c-3.3,0-4.3-1.7-5.2-3.3c-0.1-0.1-0.1-0.2-0.2-0.3l-1.3-2.4
	c-0.1-0.2-0.1-0.3,0-0.5c0.1-0.2,0.2-0.3,0.3-0.4c0.2-0.1,0.3-0.1,0.5,0c0.2,0.1,0.3,0.2,0.4,0.3c0.1,0.2,0.3,0.7,0.5,0.9
	c0.4,0.5,1,0.8,1.6,0.6c0.6-0.2,1-0.8,1-1.5V5.1c0-0.4,0.3-0.7,0.7-0.7c0.4,0,0.7,0.3,0.7,0.7v3.2V9v1.8c0,0.4,0.3,0.8,0.8,0.8
	s0.8-0.3,0.8-0.8V9V8.7c0.1-0.2,0.3-0.3,0.6-0.3c0.4,0,0.7,0.3,0.7,0.7v0.4v1.9c0,0.4,0.3,0.8,0.8,0.8s0.8-0.3,0.8-0.8V9.7
	c0.1-0.2,0.3-0.3,0.6-0.3c0.4,0,0.7,0.3,0.7,0.7V13z"/>
</svg>
