<?xml version="1.0" encoding="utf-8"?>
<!-- Generator: Adobe Illustrator 23.1.0, SVG Export Plug-In . SVG Version: 6.00 Build 0)  -->
<svg version="1.1" id="Layer_1" xmlns="http://www.w3.org/2000/svg" xmlns:xlink="http://www.w3.org/1999/xlink" x="0px" y="0px"
	 viewBox="0 0 16 16" style="enable-background:new 0 0 16 16;" xml:space="preserve">
<path d="M13.1,7.9l-0.6-0.5c0,0-0.7-0.1-0.7-0.2l-0.6,0.2l-0.4-0.6c-0.3-0.3-0.7-0.4-1.1-0.4c-0.1,0-0.2,0-0.3,0
	c1-0.6,1.7-1.7,1.7-3C11.1,1.5,9.5,0,7.6,0S4.1,1.5,4.1,3.5C4.1,4.8,4.8,6,6,6.5v0.3V8v0.5v1.5C5.9,9.8,5.8,9.7,5.7,9.6
	c-0.2-0.4-0.5-0.7-1-0.8C4.4,8.6,4,8.7,3.6,8.9c-0.8,0.4-1.1,1.4-0.7,2.1l1,1.8C4,12.9,4,13,4,13c0.7,1.2,1.7,3,4.8,3
	c3,0,4.4-2.7,4.4-5.2V8.6C13.3,8.3,13.2,8.1,13.1,7.9z M5.1,3.5C5.1,2.1,6.2,1,7.6,1s2.5,1.1,2.5,2.5c0,0.7-0.3,1.4-0.9,1.9V5.2
	c0-0.7-0.5-1.4-1.2-1.6C7,3.2,6,4,6,5.1v0.3C5.4,4.9,5.1,4.2,5.1,3.5z M12.4,10.9c0,1.5-1,4.1-3.5,4.1c-2.4,0-3.2-1.3-3.8-2.4
	c-0.1-0.1-0.1-0.1-0.1-0.2l-1-1.8c-0.1-0.1-0.1-0.2,0-0.4C4,10,4,9.9,4.1,9.9c0.1-0.1,0.2-0.1,0.4,0c0.1,0.1,0.2,0.1,0.3,0.2
	c0.1,0.1,0.2,0.5,0.4,0.7c0.3,0.4,0.7,0.6,1.2,0.4c0.4-0.1,0.7-0.6,0.7-1.1v-5c0-0.3,0.2-0.5,0.5-0.5c0.3,0,0.5,0.2,0.5,0.5v2.4V8
	v1.3c0,0.3,0.2,0.6,0.6,0.6s0.6-0.2,0.6-0.6V8V7.7c0.1-0.1,0.2-0.2,0.4-0.2c0.3,0,0.5,0.2,0.5,0.5v0.3v1.4c0,0.3,0.2,0.6,0.6,0.6
	s0.6-0.2,0.6-0.6V8.5c0.1-0.1,0.2-0.2,0.4-0.2c0.3,0,0.5,0.2,0.5,0.5V10.9z"/>
</svg>
