<svg enable-background="new 0 0 20 20" viewBox="0 0 20 20" xmlns="http://www.w3.org/2000/svg"><path d="m12.7 12.3c0 .4-.3.8-.8.8h-7.8c-.4 0-.8-.3-.8-.8s.3-.8.8-.8h7.9c.3 0 .7.4.7.8z"/><path d="m9.9 15.7c0 .4-.3.8-.8.8h-5c-.4 0-.8-.3-.8-.8s.3-.8.8-.8h5.1c.3 0 .7.4.7.8z"/><path d="m18.3 0h-16.5c-1 0-1.8.8-1.8 1.8v16.4c0 1 .8 1.8 1.8 1.8h16.4c1 0 1.8-.8 1.8-1.8v-16.4c.1-1-.7-1.8-1.7-1.8zm.3 18.2c0 .3-.2.4-.3.4h-16.5c-.2 0-.3-.1-.3-.3v-1.3c.1 0 .1-.1.2-.2l.7-1v-2.5l-.9 1.2v-12.7c0-.2.1-.3.3-.3h16.4c.2 0 .3.1.3.3v9.2l-3.3-4.4c-.2-.3-.6-.5-.9-.5-.4 0-.7.2-.9.5l-2.2 2.9h1.8l1.3-1.8 4.1 5.4c0 .1.1.1.2.2z"/><path d="m7.2 7.8c1.3 0 2.3-1 2.3-2.3s-1-2.3-2.3-2.3-2.3 1-2.3 2.3 1 2.3 2.3 2.3zm0-3.2c.4 0 .8.4.8.8 0 .5-.4.8-.8.8-.5 0-.8-.4-.8-.8-.1-.4.3-.8.8-.8z"/></svg>