<svg xmlns="http://www.w3.org/2000/svg" width="20" height="20" viewBox="0 0 20 20">
	<path d="M18.2,0H1.8C0.8,0,0,0.8,0,1.8v16.3c0,1,0.8,1.8,1.8,1.8h16.3c1,0,1.8-0.8,1.8-1.8V1.8C20,0.8,19.2,0,18.2,0z
		M1.8,1.5h16.3c0.2,0,0.3,0.1,0.3,0.3V11l-3.3-4.4c-0.2-0.3-0.6-0.5-0.9-0.5c0,0,0,0,0,0c-0.4,0-0.7,0.2-0.9,0.5l-4.7,6.1l-1.9-2.6
		C6.4,9.8,6.1,9.7,5.7,9.7c0,0,0,0,0,0c-0.4,0-0.7,0.2-0.9,0.5l-3.3,4.3V1.8C1.5,1.6,1.6,1.5,1.8,1.5z M18.2,18.5H1.8
		c-0.2,0-0.3-0.1-0.3-0.3v-1.3c0.1,0,0.1-0.1,0.2-0.2l4.1-5.4l2.1,2.8c0.2,0.2,0.5,0.4,0.7,0.4c0.3,0,0.6-0.1,0.7-0.4l4.9-6.4
		l4.1,5.4c0,0.1,0.1,0.1,0.2,0.2v4.8C18.5,18.4,18.3,18.5,18.2,18.5z M7.2,7.8c1.3,0,2.3-1,2.3-2.3s-1-2.3-2.3-2.3s-2.3,1-2.3,2.3
		S5.9,7.8,7.2,7.8z M7.2,4.6C7.6,4.6,8,5,8,5.4c0,0.5-0.4,0.8-0.8,0.8c-0.5,0-0.8-0.4-0.8-0.8C6.3,5,6.7,4.6,7.2,4.6z"
	/>
</svg>
