<?xml version="1.0" encoding="utf-8"?>
<!-- Generator: Adobe Illustrator 23.1.0, SVG Export Plug-In . SVG Version: 6.00 Build 0)  -->
<svg version="1.1" id="Layer_1" xmlns="http://www.w3.org/2000/svg" xmlns:xlink="http://www.w3.org/1999/xlink" x="0px" y="0px"
	 viewBox="0 0 16 16" style="enable-background:new 0 0 16 16;" xml:space="preserve">
<path d="M13.5,4.5h-11c-0.6,0-1,0.5-1,1v5c0,0.6,0.5,1,1,1h11c0.6,0,1-0.5,1-1v-5C14.5,5,14,4.5,13.5,4.5z M13.5,10
	c0,0.3-0.2,0.5-0.5,0.5H3c-0.3,0-0.5-0.2-0.5-0.5V6c0-0.2,0.2-0.5,0.5-0.5h10c0.3,0,0.5,0.2,0.5,0.5V10z"/>
<rect x="4.2" y="7.5" width="3.5" height="1"/>
<rect x="10.8" y="7.5" width="1" height="1"/>
<rect x="8.8" y="7.5" width="1" height="1"/>
</svg>
