<?xml version="1.0" encoding="utf-8"?>
<!-- Generator: Adobe Illustrator 23.1.0, SVG Export Plug-In . SVG Version: 6.00 Build 0)  -->
<svg version="1.1" id="Layer_1" xmlns="http://www.w3.org/2000/svg" xmlns:xlink="http://www.w3.org/1999/xlink" x="0px" y="0px"
	 viewBox="0 0 20 20" style="enable-background:new 0 0 20 20;" xml:space="preserve">
<path d="M10,3.9c-1.7,0-3,1.3-3,3c0,1.7,1.3,3,3,3c1.7,0,3-1.3,3-3C13,5.2,11.7,3.9,10,3.9z M10,8.6c-1,0-1.8-0.8-1.8-1.8
	c0-1,0.8-1.8,1.8-1.8c1,0,1.8,0.8,1.8,1.8C11.8,7.8,11,8.6,10,8.6z"/>
<path d="M10,0C6.1,0,3,3.1,3,7c0,6.8,7,13,7,13s7-6.2,7-13C17,3.1,13.9,0,10,0z M10,18.1c0,0-5.3-4.9-5.7-10.6c0-0.2,0-0.4,0-0.7
	c0,0,0,0,0,0c0,0,0,0,0,0c0-0.3,0-0.5,0-0.6C4.6,3.3,7.1,1.1,10,1.1c3.1,0,5.6,2.5,5.7,5.6c0,0.1,0,0.1,0,0.1c0,0,0,0,0,0
	c0,0,0,0,0,0c0,0.2,0,0.4,0,0.7C15.3,13.2,10,18.1,10,18.1z"/>
</svg>
