<svg xmlns="http://www.w3.org/2000/svg" width="20" height="20" viewBox="0 0 20 20">
	<path d="M18.2,1.5c0.2,0,0.3,0.1,0.3,0.3v16.3c0,0.2-0.1,0.3-0.3,0.3H1.8c-0.2,0-0.3-0.1-0.3-0.3V1.8
		c0-0.2,0.1-0.3,0.3-0.3H18.2 M18.2,0H1.8C0.8,0,0,0.8,0,1.8v16.3c0,1,0.8,1.8,1.8,1.8h16.3c1,0,1.8-0.8,1.8-1.8V1.8
		C20,0.8,19.2,0,18.2,0z M4.4,6.7l1-0.6v8.3H4.7c-0.4,0-0.7,0.3-0.7,0.8s0.3,0.7,0.7,0.7h2.9c0.4,0,0.8-0.3,0.8-0.7S8,14.4,7.6,14.4
		H6.9V4.8c0-0.1,0-0.3-0.1-0.4C6.6,4.1,6.1,4,5.8,4.2L3.6,5.4c-0.4,0.2-0.5,0.7-0.3,1C3.6,6.8,4,6.9,4.4,6.7z M10,6.8h5.7
		c0.4,0,0.8-0.3,0.8-0.8c0-0.4-0.3-0.8-0.8-0.8H10C9.6,5.3,9.3,5.6,9.3,6C9.3,6.4,9.6,6.8,10,6.8 M10,9.4h5.7c0.4,0,0.8-0.3,0.8-0.8
		s-0.3-0.8-0.8-0.8H10c-0.4,0-0.8,0.3-0.8,0.8S9.6,9.4,10,9.4 M10,12.1h5.7c0.4,0,0.8-0.3,0.8-0.8s-0.3-0.8-0.8-0.8H10
		c-0.4,0-0.8,0.3-0.8,0.8S9.6,12.1,10,12.1 M10,14.7h5.7c0.4,0,0.8-0.3,0.8-0.8s-0.3-0.8-0.8-0.8H10c-0.4,0-0.8,0.3-0.8,0.8
		S9.6,14.7,10,14.7"
	/>
</svg>
