<svg xmlns="http://www.w3.org/2000/svg" width="20" height="20" viewBox="0 0 20 20">
	<path d="M19.8,0.2c-0.3-0.3-0.7-0.3-1,0l-1.1,1.1c-0.2-0.1-0.4-0.1-0.6-0.1l-5-0.1c0,0-0.1,0-0.1,0
		c-0.7,0-1.4,0.3-1.9,0.8l-9.4,9.4c-0.9,0.9-0.9,2.4,0,3.3l4.8,4.8C6,19.8,6.6,20,7.2,20c0.6,0,1.2-0.2,1.7-0.7l9.4-9.4
		c0.5-0.5,0.8-1.3,0.8-2l-0.1-5c0-0.2,0-0.4-0.1-0.6l1.1-1.1C20.1,1,20.1,0.5,19.8,0.2z M15.2,6.1c0,0.3-0.1,0.6-0.4,0.9
		c-0.2,0.2-0.6,0.4-0.9,0.4c-0.3,0-0.6-0.1-0.9-0.4c-0.2-0.2-0.4-0.6-0.4-0.9c0-0.3,0.1-0.6,0.4-0.9c0.2-0.2,0.6-0.4,0.9-0.4
		c0.1,0,0.1,0,0.2,0l-0.5,0.5c-0.3,0.3-0.3,0.7,0,1c0.3,0.3,0.7,0.3,1,0l0.5-0.5C15.2,5.9,15.2,6,15.2,6.1z M17.6,8
		c0,0.3-0.1,0.7-0.4,0.9l-9.4,9.4c-0.2,0.2-0.4,0.3-0.6,0.3c-0.2,0-0.5-0.1-0.6-0.3l-4.8-4.8c-0.2-0.2-0.3-0.4-0.3-0.6
		c0-0.2,0.1-0.5,0.3-0.6l9.4-9.4c0.2-0.2,0.6-0.4,0.9-0.4l0,0l4.4,0.1l-1.1,1.1c-0.4-0.2-0.9-0.3-1.3-0.3c-0.7,0-1.4,0.3-1.9,0.8
		c-0.5,0.5-0.8,1.2-0.8,1.9c0,0.7,0.3,1.4,0.8,1.9c0.5,0.5,1.2,0.8,1.9,0.8c0.7,0,1.4-0.3,1.9-0.8c0.5-0.5,0.8-1.2,0.8-1.9
		c0-0.5-0.1-0.9-0.3-1.3l1.1-1.1L17.6,8z M11.5,9.4L11,9.9c0.5,0.7,0.6,1.5,0.6,1.6c0.1,0.4-0.2,0.8-0.6,0.8
		c-0.4,0.1-0.8-0.2-0.8-0.6c0-0.2-0.2-0.8-0.5-1.1c-0.3-0.3-0.8-0.5-1.1-0.2c-0.2,0.2,0,0.8,0.2,1.3c0,0.1,0.1,0.2,0.1,0.2
		c0.3,0.6,0.9,1.8-0.3,2.9c-0.3,0.3-0.7,0.4-1.2,0.4c-0.4,0-0.7-0.1-1.1-0.3c-0.1-0.1-0.2-0.1-0.3-0.2l-0.5,0.5
		c-0.1,0.1-0.2,0.1-0.3,0.1c-0.1,0-0.2,0-0.3-0.1c-0.2-0.2-0.2-0.5,0-0.7l0.5-0.5c-0.4-0.5-0.8-1.3-0.7-2.2c0-0.4,0.4-0.7,0.8-0.7
		c0.4,0,0.7,0.4,0.7,0.8c-0.1,0.9,0.5,1.5,0.9,1.7c0.3,0.1,0.5,0.2,0.7,0.1c0.3-0.2,0.3-0.4,0-1.1c0-0.1-0.1-0.2-0.1-0.3
		c-0.3-0.6-0.9-2,0.1-3c0.8-0.8,1.9-0.7,2.7-0.1l0.5-0.5c0.2-0.2,0.5-0.2,0.7,0C11.7,8.9,11.7,9.2,11.5,9.4z"
	/>
</svg>
