<?xml version="1.0" encoding="utf-8"?>
<!-- Generator: Adobe Illustrator 23.1.0, SVG Export Plug-In . SVG Version: 6.00 Build 0)  -->
<svg version="1.1" id="Layer_1" xmlns="http://www.w3.org/2000/svg" xmlns:xlink="http://www.w3.org/1999/xlink" x="0px" y="0px"
	 viewBox="0 0 16 16" style="enable-background:new 0 0 16 16;" xml:space="preserve">
<path d="M8,1.1v1c3.3,0,5.9,2.5,5.9,5.9s-2.6,5.9-5.9,5.9c-2.3,0-4.3-1.3-5.3-3.2l-0.9,0.4C3,13.4,5.3,14.9,8,14.9
	c3.8,0,6.9-3.1,6.9-6.9S11.8,1.1,8,1.1z"/>
<path d="M4.8,7.9C4.5,7.6,4.3,7.3,4.3,6.8c0-0.4,0.1-0.7,0.4-1C5,5.5,5.3,5.4,5.8,5.4c0.4,0,0.8,0.1,1,0.4c0.3,0.3,0.4,0.6,0.4,1
	c0,0.4-0.2,0.8-0.6,1.1C6.9,8,7,8.2,7.1,8.4c0.1,0.2,0.2,0.4,0.2,0.7c0,0.4-0.1,0.8-0.4,1.1c-0.3,0.3-0.7,0.4-1.1,0.4
	c-0.5,0-0.8-0.1-1.2-0.4C4.3,9.9,4.2,9.5,4.2,9.1C4.2,8.5,4.4,8.1,4.8,7.9z M4.9,9.1c0,0.2,0.1,0.4,0.2,0.6c0.2,0.2,0.4,0.2,0.6,0.2
	c0.2,0,0.4-0.1,0.6-0.2c0.2-0.2,0.2-0.4,0.2-0.6c0-0.2-0.1-0.4-0.2-0.6C6.2,8.3,6,8.2,5.7,8.2c-0.2,0-0.4,0.1-0.6,0.2
	C5,8.6,4.9,8.8,4.9,9.1z M5,6.8C5,7,5.1,7.2,5.2,7.4c0.1,0.1,0.3,0.2,0.5,0.2c0.2,0,0.4-0.1,0.5-0.2C6.4,7.2,6.5,7,6.5,6.8
	c0-0.2-0.1-0.4-0.2-0.5C6.1,6.2,6,6.1,5.8,6.1c-0.2,0-0.4,0.1-0.5,0.2C5.1,6.5,5,6.6,5,6.8z"/>
<path d="M8.1,8c0-0.8,0.2-1.4,0.6-1.9C9,5.6,9.4,5.4,9.9,5.4s0.9,0.2,1.2,0.6c0.4,0.5,0.6,1.1,0.6,2c0,0.8-0.2,1.5-0.6,1.9
	c-0.3,0.4-0.7,0.6-1.2,0.6S9,10.4,8.6,9.9C8.3,9.5,8.1,8.8,8.1,8z M8.8,8c0,0.6,0.1,1,0.3,1.4c0.2,0.4,0.4,0.5,0.7,0.5
	c0.3,0,0.5-0.2,0.7-0.5C10.8,9,10.9,8.5,10.9,8c0-0.5-0.1-1-0.3-1.4c-0.2-0.4-0.4-0.5-0.7-0.5c-0.3,0-0.5,0.2-0.7,0.5
	C8.9,7,8.8,7.4,8.8,8z"/>
</svg>
