<?xml version="1.0" encoding="utf-8"?>
<!-- Generator: Adobe Illustrator 23.1.0, SVG Export Plug-In . SVG Version: 6.00 Build 0)  -->
<svg version="1.1" id="Layer_1" xmlns="http://www.w3.org/2000/svg" xmlns:xlink="http://www.w3.org/1999/xlink" x="0px" y="0px"
	 viewBox="0 0 16 16" style="enable-background:new 0 0 16 16;" xml:space="preserve">
<path d="M14.3,6.5c0.2,0,0.3,0.1,0.3,0.3l0,2.4c0,0.2-0.1,0.3-0.3,0.3H5.1c-0.2,0-0.3-0.1-0.3-0.3l0-2.4c0-0.2,0.1-0.3,0.3-0.3H14.3
	 M14.3,5H1.8C0.8,5,0,5.8,0,6.8l0,2.4c0,1,0.8,1.8,1.8,1.8h12.4c1,0,1.8-0.8,1.8-1.8l0-2.4C16.1,5.8,15.3,5,14.3,5z"/>
</svg>
