<?xml version="1.0" encoding="utf-8"?>
<!-- Generator: Adobe Illustrator 23.1.0, SVG Export Plug-In . SVG Version: 6.00 Build 0)  -->
<svg version="1.1" id="Layer_1" xmlns="http://www.w3.org/2000/svg" xmlns:xlink="http://www.w3.org/1999/xlink" x="0px" y="0px"
	 viewBox="0 0 16 16" style="enable-background:new 0 0 16 16;" xml:space="preserve">
<path d="M8,1.1c-0.4,0-0.8,0.3-0.8,0.8S7.6,2.6,8,2.6c3,0,5.4,2.4,5.4,5.4S11,13.4,8,13.4c-2.2,0-4.1-1.4-5-3.3l0,0
	C2.9,9.9,2.6,9.7,2.3,9.7c-0.4,0-0.8,0.3-0.8,0.8c0,0.1,0,0.3,0.1,0.4c1.1,2.4,3.5,4.1,6.3,4.1c3.8,0,6.9-3.1,6.9-6.9
	S11.8,1.1,8,1.1z"/>
</svg>
