<svg width="20" height="20" viewBox="0 0 20 20" xmlns="http://www.w3.org/2000/svg">
<path d="M2.0014 9.95323C1.9764 10.379 2.28891 10.7468 2.70454 10.7758C3.12017 10.8048 3.47331 10.479 3.50143 10.05L3.51706 9.79194C3.62331 8.02419 5.04209 6.64677 6.75775 6.64677H13.4391L11.7203 8.42097C11.4266 8.72419 11.4266 9.21452 11.7203 9.51452C12.0141 9.81452 12.4891 9.81774 12.7797 9.51452L15.7798 6.41774C16.0736 6.11452 16.0736 5.62419 15.7798 5.32419L12.7829 2.22742C12.4891 1.92419 12.0141 1.92419 11.7235 2.22742C11.4328 2.53065 11.4297 3.02097 11.7235 3.32097L13.4423 5.09516H6.76087C4.25145 5.09839 2.1764 7.11129 2.01703 9.69516L2.0014 9.95323ZM17.9986 10.05C18.0236 9.62419 17.7111 9.25645 17.2955 9.22742C16.8798 9.19839 16.5267 9.52419 16.5017 9.95323L16.4861 10.2113C16.3798 11.979 14.9579 13.3565 13.2423 13.3565H6.56087L8.27965 11.5823C8.57341 11.279 8.57341 10.7887 8.27965 10.4887C7.9859 10.1887 7.51089 10.1855 7.22026 10.4887L4.2202 13.5823C3.92644 13.8855 3.92644 14.3758 4.2202 14.6758L7.22026 17.7726C7.51401 18.0758 7.98902 18.0758 8.27965 17.7726C8.57028 17.4694 8.57341 16.979 8.27965 16.679L6.56087 14.9048H13.2423C15.7517 14.9048 17.8267 12.8919 17.983 10.3081L17.9986 10.05Z" fill="black"/>
</svg>
