<?xml version="1.0" encoding="utf-8"?>
<!-- Generator: Adobe Illustrator 19.2.0, SVG Export Plug-In . SVG Version: 6.00 Build 0)  -->
<svg version="1.1" id="Layer_1" xmlns="http://www.w3.org/2000/svg" xmlns:xlink="http://www.w3.org/1999/xlink" x="0px" y="0px"
	 viewBox="0 0 20 20" style="enable-background:new 0 0 20 20;" xml:space="preserve">
<path d="M18.2,0H1.8C0.8,0,0,0.8,0,1.8v16.3c0,1,0.8,1.8,1.8,1.8h16.3c1,0,1.8-0.8,1.8-1.8V1.8C20,0.8,19.2,0,18.2,0z M1.5,1.8
	c0-0.2,0.1-0.3,0.3-0.3h16.3c0.2,0,0.3,0.1,0.3,0.3v7.1c-0.8,0.7-2.2,2.1-4.1,2.1c-3.1,0-4.8-3.6-8.1-3.6c-1.9,0-3.7,1.3-4.6,2.1
	V1.8z M18.5,18.1c0,0.3-0.2,0.4-0.3,0.4H1.8c-0.2,0-0.3-0.1-0.3-0.3V12c0.9-0.9,2.7-2.7,4.5-2.7c2.7,0,4.3,3.4,8.3,3.4
	c1.9,0,3.4-1,4.1-1.6V18.1z"/>
</svg>
