<?xml version="1.0" encoding="utf-8"?>
<!-- Generator: Adobe Illustrator 23.1.0, SVG Export Plug-In . SVG Version: 6.00 Build 0)  -->
<svg version="1.1" id="Layer_1" xmlns="http://www.w3.org/2000/svg" xmlns:xlink="http://www.w3.org/1999/xlink" x="0px" y="0px"
	 viewBox="0 0 16 16" style="enable-background:new 0 0 16 16;" xml:space="preserve">
<path d="M9.4,8.9C9,8.9,8.9,9,8.5,9.2L7.1,8.3c0-0.2,0-0.3,0-0.5L8.5,7C8.7,7.1,9,7.3,9.4,7.3c0.7,0,1.4-0.5,1.4-1.4
	c0-0.9-0.7-1.4-1.4-1.4C8.7,4.6,8,5.1,8,5.8c0,0.2,0,0.2,0,0.3L6.6,7C6.5,6.8,6.1,6.6,5.8,6.6C5.1,6.6,4.6,7.3,4.6,8
	c0,0.7,0.5,1.4,1.4,1.4c0.3,0,0.5-0.2,0.9-0.3L8,9.9c0,0.2,0,0.2,0,0.3c0,0.7,0.7,1.2,1.4,1.2c0.7,0,1.4-0.5,1.4-1.4
	C10.8,9.5,10.1,8.9,9.4,8.9z"/>
<path d="M8,1.1C4.2,1.1,1.1,4.2,1.1,8s3.1,6.9,6.9,6.9s6.9-3.1,6.9-6.9S11.8,1.1,8,1.1z M8,13.9c-3.3,0-5.9-2.5-5.9-5.9
	S4.7,2.1,8,2.1s5.9,2.5,5.9,5.9S11.3,13.9,8,13.9z"/>
</svg>
