<svg xmlns="http://www.w3.org/2000/svg" width="20" height="20" viewBox="0 0 20 20">
	<path d="M1.6,0.8C1.6,0.3,1.9,0,2.3,0h16c0.4,0,0.8,0.3,0.8,0.8s-0.3,0.8-0.8,0.8h-16C1.9,1.5,1.6,1.2,1.6,0.8z
		M18.3,18.5h-16c-0.4,0-0.8,0.3-0.8,0.8c0,0.4,0.3,0.8,0.8,0.8h16c0.4,0,0.8-0.3,0.8-0.8C19.1,18.8,18.7,18.5,18.3,18.5z M13.2,6.7
		c0.3,0.3,0.8,0.3,1.1,0c0.3-0.3,0.3-0.8,0-1.1l-3.4-3.4c-0.3-0.3-0.8-0.3-1.1,0L6.4,5.6c-0.3,0.3-0.3,0.8,0,1.1
		c0.1,0.1,0.3,0.2,0.5,0.2c0.2,0,0.4-0.1,0.5-0.2l2.1-2.1v11l-2.1-2.1c-0.3-0.3-0.8-0.3-1.1,0c-0.3,0.3-0.3,0.8,0,1.1l3.4,3.4
		c0.1,0.1,0.3,0.2,0.5,0.2c0.2,0,0.4-0.1,0.5-0.2l3.4-3.4c0.3-0.3,0.3-0.8,0-1.1c-0.3-0.3-0.8-0.3-1.1,0l-2.1,2.1v-11L13.2,6.7z"
	/>
</svg>
