<svg enable-background="new 0 0 200 200" viewBox="0 0 200 200" xmlns="http://www.w3.org/2000/svg"><path d="m177.8 21.9c-.5-1.8-2.3-3.1-4.2-2.9h-103.1l-40.4 42.4c-2.8 2.8-.9 6.6 3 6.6h86.9l56.3-41.9c1.3-1 1.9-2.7 1.5-4.2z"/><path d="m168.5 116.2-39.6-39.1.1-.1h-96.8c-1.9 0-3.4 1.5-3.4 3.4 0 .9.4 1.8 1 2.4l39.5 39.1-.1.1h97.1c1.9-.1 3.3-1.6 3.3-3.5-.1-.9-.4-1.7-1.1-2.3z"/><path d="m168.5 132c-.7-.7-1.6-1-2.6-1h-87.5l-56.3 42c-1.8 1.3-2.2 3.8-.9 5.5.8 1.1 2.1 1.7 3.5 1.6h103.1l40.7-42.8c1.5-1.5 1.4-3.8 0-5.3z"/></svg>