<?xml version="1.0" encoding="utf-8"?>
<!-- Generator: Adobe Illustrator 23.1.0, SVG Export Plug-In . SVG Version: 6.00 Build 0)  -->
<svg version="1.1" id="Layer_1" xmlns="http://www.w3.org/2000/svg" xmlns:xlink="http://www.w3.org/1999/xlink" x="0px" y="0px"
	 viewBox="0 0 200 200" style="enable-background:new 0 0 200 200;" xml:space="preserve">
<style type="text/css">
	.st0{opacity:0.75;}
</style>
<path d="M64.1,136L23,176.7c-1.9,1.8-1.9,4.8-0.1,6.7c0.9,1,2.3,1.5,3.6,1.4l86.9,0.1L64.1,136z"/>
<path class="st0" d="M177.9,128.4c0-4.5-1.8-8.9-5-12.1L71.4,14.7l0,0L26.6,59.5c-3.2,3.2-5,7.5-5,12.1l0,0c0,4.5,1.8,8.9,5,12.1
	l101.6,101.6v-0.1l0,0l44.8-44.8C176.1,137.2,177.9,132.9,177.9,128.4L177.9,128.4L177.9,128.4z"/>
<path d="M71.4,14.7L71.4,14.7L26.6,59.5c-3.2,3.2-5,7.5-5,12l0,0h49.8V14.7z"/>
<polygon points="128.2,71.6 128.2,71.6 71.4,71.6 71.4,128.4 128.2,128.4 "/>
<path d="M128.2,185.1l44.7-44.7c3.1-3.1,4.9-7.4,5-11.8h-49.7V185.1z"/>
<path d="M71.4,14.7L71.4,14.7L26.6,59.5c-3.2,3.2-5,7.5-5,12l0,0h49.8V14.7z"/>
<path d="M172.9,14.7H86.1l49.4,49.6l40.9-41.2c1.9-2,1.8-5.2-0.1-7.1C175.4,15.2,174.2,14.7,172.9,14.7z"/>
</svg>
