<?xml version="1.0" encoding="utf-8"?>
<!-- Generator: Adobe Illustrator 23.1.0, SVG Export Plug-In . SVG Version: 6.00 Build 0)  -->
<svg version="1.1" id="Layer_1" xmlns="http://www.w3.org/2000/svg" xmlns:xlink="http://www.w3.org/1999/xlink" x="0px" y="0px"
	 viewBox="0 0 20 20" style="enable-background:new 0 0 20 20;" xml:space="preserve">
<path d="M17.6,14.7l-11.1,0c-0.5,0-0.9,0.4-0.9,1c0,0.5,0.3,1,0.9,1l11.1,0c0.6-0.1,0.9-0.5,0.9-1C18.5,15.2,18.2,14.7,17.6,14.7z"
	/>
<path d="M6.4,5.2h11.4c0.4,0,0.8-0.4,0.8-1s-0.4-1-0.9-1H6.4c-0.5,0-0.9,0.4-0.9,1S5.9,5.2,6.4,5.2z"/>
<path d="M17.6,10.9l-8.2,0c-0.4,0-0.9,0.4-0.9,1c0,0.5,0.3,1,0.9,1l8.2,0c0.5-0.1,0.9-0.5,0.9-1C18.5,11.4,18.2,10.9,17.6,10.9z"/>
<path d="M17.6,7.1l-8.2,0c-0.4,0-0.9,0.4-0.9,1c0,0.5,0.3,1,0.9,1l8.2,0c0.5,0,0.9-0.5,0.9-1C18.5,7.6,18.2,7.1,17.6,7.1z"/>
<path d="M2.5,3.2c-0.6,0-1,0.4-1,1s0.4,1,1,1s1-0.4,1-1S3.1,3.2,2.5,3.2z"/>
<circle cx="5.5" cy="8.1" r="1"/>
<circle cx="5.5" cy="11.9" r="1"/>
<path d="M2.5,14.8c-0.6,0-1,0.4-1,1s0.4,1,1,1s1-0.4,1-1S3.1,14.8,2.5,14.8z"/>
</svg>
