<svg enable-background="new 0 0 16 16" viewBox="0 0 16 16" xmlns="http://www.w3.org/2000/svg"><path d="m4.3 1.1v3.2 1.1h1.1 9.6v9.6h-13.9v-10.7-3.2zm.3-1.1h-3.9c-.4 0-.7.3-.7.7v3.6 11c0 .4.3.7.7.7h14.6c.4 0 .7-.3.7-.7v-10.3c0-.4-.3-.7-.7-.7h-10v-3.6c0-.4-.3-.7-.7-.7z"/><path d="m9.6 1.1v1.1h-2.2v-1.1zm.4-1.1h-2.9c-.4 0-.7.3-.7.7v1.8c0 .4.3.7.7.7h2.9c.4 0 .7-.3.7-.7v-1.8c0-.4-.3-.7-.7-.7z"/><path d="m14.9 1.1v1.1h-2.2v-1.1zm.4-1.1h-2.9c-.4 0-.7.3-.7.7v1.8c0 .4.3.7.7.7h2.9c.4 0 .7-.3.7-.7v-1.8c0-.4-.3-.7-.7-.7z"/></svg>