<svg enable-background="new 0 0 16 16" viewBox="0 0 16 16" xmlns="http://www.w3.org/2000/svg"><path d="m4.3 5v4.3h10.7v2.3c0 .3.2.5.5.5.3 0 .5-.2.5-.5v-2.7c0-.4-.3-.7-.7-.7h-10v-3.6c0-.4-.3-.7-.7-.7h-3.9c-.4 0-.7.3-.7.7v6.9c0 .3.2.5.5.5.3 0 .5-.2.5-.5v-6.5z"/><path d="m9.6 5v1.1h-2.2v-1.1zm.4-1.1h-2.9c-.4 0-.7.3-.7.7v1.8c0 .4.3.7.7.7h2.9c.4 0 .7-.3.7-.7v-1.8c0-.4-.3-.7-.7-.7z"/><path d="m14.9 5v1.1h-2.2v-1.1zm.4-1.1h-2.9c-.4 0-.7.3-.7.7v1.8c0 .4.3.7.7.7h2.9c.4 0 .7-.3.7-.7v-1.8c0-.4-.3-.7-.7-.7z"/></svg>