<svg xmlns="http://www.w3.org/2000/svg" width="20" height="20" viewBox="0 0 20 20">
	<path d="M8.6,12.1c0.4-0.5,0.6-1.2,0.6-1.9V8c0-1.9-1.5-3.4-3.4-3.4h0C3.9,4.6,2.4,6.1,2.4,8v2.1c0,0.7,0.2,1.4,0.6,1.9
		c-1.7,0.3-3,1.9-3,3.7V17c0,1.2,0.9,2.1,2.1,2.1h7.4c1.2,0,2.1-0.9,2.1-2.1v-1.2C11.7,13.9,10.3,12.4,8.6,12.1z M5.8,6.1L5.8,6.1
		c1,0,1.8,0.7,1.9,1.7C6.9,8.4,6.4,8.2,5.9,7.7C5.7,7.5,5.4,7.2,5,7.2c0,0,0,0,0,0c-0.4,0-0.8,0.3-1,0.5c0,0,0,0,0,0
		C4.1,6.9,4.9,6.1,5.8,6.1z M4,8.9c0.2-0.1,0.5-0.2,0.8-0.5C4.9,8.3,5,8.3,5,8.3c0,0,0.1,0,0.2,0.2C5.8,9,6.3,9.2,6.8,9.2
		c0.3,0,0.6-0.1,0.9-0.2v1.1c0,1-0.8,1.9-1.9,1.9h0c-1,0-1.9-0.8-1.9-1.9V8.9z M6.8,13.5c-0.2,0.9-0.6,1.4-1,1.4
		c-0.3,0-0.7-0.5-1-1.4H6.8z M10.1,17c0,0.3-0.3,0.6-0.6,0.6H2.1c-0.3,0-0.6-0.3-0.6-0.6v-1.2c0-1.2,1-2.2,2.2-2.2h0.1
		c0.3,1.4,1.1,2.4,2,2.4s1.7-1,2-2.4h0.1c1.2,0,2.2,1,2.2,2.2V17z M17,8.3c0.4-0.5,0.6-1.2,0.6-1.9V4.3c0-1.9-1.5-3.4-3.4-3.4h0
		c-1.9,0-3.4,1.5-3.4,3.4v2.1c0,0.7,0.2,1.4,0.6,1.9c-0.4,0.1-0.8,0.2-1.1,0.4v1.4c0,0.3,0,0.5-0.1,0.8c0.4-0.7,1.1-1.1,1.9-1.1h0.1
		c0.3,1.4,1.1,2.4,2,2.4c0.9,0,1.7-1,2-2.4h0.1c1.2,0,2.2,1,2.2,2.2v1.2c0,0.3-0.3,0.6-0.6,0.6h-5.4c0.2,0.5,0.3,1,0.4,1.5h5
		c1.2,0,2.1-0.9,2.1-2.1V12C20,10.2,18.7,8.7,17,8.3z M14.2,2.4L14.2,2.4c1,0,1.8,0.7,1.9,1.7c-0.8,0.6-1.3,0.4-1.8-0.1
		c-0.7-0.7-1.3-0.6-1.9,0c0,0,0,0,0,0C12.4,3.1,13.2,2.4,14.2,2.4z M14.2,11.2c-0.3,0-0.7-0.5-1-1.4h1.9
		C14.9,10.6,14.5,11.2,14.2,11.2z M16,6.4c0,1-0.8,1.9-1.9,1.9h0c-1,0-1.9-0.8-1.9-1.9V5.2C12.5,5.1,12.8,5,13,4.7
		c0.2-0.2,0.3-0.2,0.3-0.2c0,0,0.1,0,0.2,0.2c0.6,0.6,1.1,0.8,1.6,0.8c0.3,0,0.6-0.1,0.9-0.2V6.4z"
	/>
</svg>
