<svg xmlns="http://www.w3.org/2000/svg" width="20" height="20" viewBox="0 0 20 20">
	<path d="M4,20c-0.1,0-0.2,0-0.3-0.1c-0.3-0.1-0.5-0.4-0.5-0.7v-2.9H1.9c-1,0-1.9-0.8-1.9-1.9V1.9C0,0.8,0.8,0,1.9,0
		h16.2c1,0,1.9,0.8,1.9,1.9v12.6c0,1-0.8,1.9-1.9,1.9H7.9l-3.4,3.4C4.4,19.9,4.2,20,4,20z M1.9,1.5c-0.2,0-0.4,0.2-0.4,0.4v12.6
		c0,0.2,0.2,0.4,0.4,0.4H4c0.4,0,0.8,0.3,0.8,0.8v1.8l2.3-2.3c0.1-0.1,0.3-0.2,0.5-0.2h10.5c0.2,0,0.4-0.2,0.4-0.4V1.9
		c0-0.2-0.2-0.4-0.4-0.4H1.9z M7.2,13c-0.1,0-0.3,0-0.4-0.1c-0.2-0.1-0.3-0.4-0.2-0.6L7,9.5l-2-2C4.8,7.3,4.8,7.1,4.8,6.8
		c0.1-0.2,0.3-0.4,0.5-0.4L8.1,6l1.3-2.5C9.5,3.2,9.7,3.1,10,3.1c0.2,0,0.5,0.1,0.6,0.3L11.8,6l2.8,0.4c0.2,0,0.4,0.2,0.5,0.4
		c0.1,0.2,0,0.5-0.2,0.6l-2,2l0.5,2.8c0,0.2-0.1,0.5-0.2,0.6c-0.2,0.1-0.4,0.2-0.7,0L10,11.6l-2.5,1.3C7.4,13,7.3,13,7.2,13z
		M10,10.3c0.1,0,0.2,0,0.3,0.1l1.7,0.9l-0.3-1.9c0-0.2,0-0.4,0.2-0.6l1.4-1.3l-1.9-0.3c-0.2,0-0.4-0.2-0.5-0.3L10,5.1L9.1,6.8
		C9,7,8.9,7.2,8.6,7.2L6.8,7.5l1.4,1.3c0.1,0.1,0.2,0.4,0.2,0.6L8,11.2l1.7-0.9C9.8,10.3,9.9,10.3,10,10.3z"
	/>
</svg>
