<?xml version="1.0" encoding="utf-8"?>
<!-- Generator: Adobe Illustrator 23.1.0, SVG Export Plug-In . SVG Version: 6.00 Build 0)  -->
<svg version="1.1" id="Layer_1" xmlns="http://www.w3.org/2000/svg" xmlns:xlink="http://www.w3.org/1999/xlink" x="0px" y="0px"
	 viewBox="0 0 20 20" style="enable-background:new 0 0 20 20;" xml:space="preserve">
<path d="M17.1,1.1H7.7c-0.1,0-0.2,0-0.3,0c-3,0-5.4,2.4-5.4,5.4c0,3,2.4,5.4,5.4,5.4c0.4,0,0.7,0,0.9-0.1v6.3c0,0.5,0.5,0.8,0.9,0.8
	s0.9-0.3,0.9-0.8V2.7h2.4v15.4c0,0.5,0.5,0.8,0.9,0.8s0.9-0.3,0.9-0.8V2.7h2.6c0.5,0,0.8-0.4,0.8-0.8C17.9,1.5,17.6,1.1,17.1,1.1z
	 M8.4,10c-0.2,0.1-0.5,0.2-0.9,0.2c-2.1,0-3.8-1.7-3.8-3.8s1.7-3.8,3.8-3.8c0.4,0,0.7,0.1,0.9,0.2V10z"/>
</svg>
