<svg enable-background="new 0 0 16 16" viewBox="0 0 16 16" xmlns="http://www.w3.org/2000/svg"><path d="m13.7 5.5c-1.1 0-2 .8-2.3 1.8h-2.9v-6.8c0-.3-.2-.5-.5-.5s-.5.2-.5.5v3.4h-2.9c-.2-1-1.2-1.8-2.3-1.8-1.3 0-2.3 1-2.3 2.3s1 2.3 2.3 2.3c1.1 0 2-.8 2.3-1.8h2.9v5.9h-2.9c-.2-1.1-1.1-1.8-2.3-1.8-1.3 0-2.3 1-2.3 2.3s1 2.3 2.3 2.3c1.1 0 2-.8 2.3-1.8h2.9v3.7c0 .3.2.5.5.5s.5-.2.5-.5v-7.1h2.8c.2 1 1.2 1.8 2.3 1.8 1.3 0 2.3-1 2.3-2.3s-.9-2.4-2.2-2.4zm-11.4.2c-.7 0-1.3-.6-1.3-1.3s.6-1.3 1.3-1.3 1.3.6 1.3 1.3-.5 1.3-1.3 1.3zm0 6.9c-.7 0-1.3-.6-1.3-1.3s.6-1.3 1.3-1.3 1.3.6 1.3 1.3-.5 1.3-1.3 1.3zm11.4-3.4c-.7 0-1.3-.6-1.3-1.3s.6-1.3 1.3-1.3 1.3.5 1.3 1.3c0 .7-.6 1.3-1.3 1.3z"/></svg>