<svg xmlns="http://www.w3.org/2000/svg" width="20" height="20" viewBox="0 0 20 20">
	<path d="M18.2,0H1.8C0.8,0,0,0.8,0,1.8v16.3c0,1,0.8,1.8,1.8,1.8h16.3c1,0,1.8-0.8,1.8-1.8V1.8C20,0.8,19.2,0,18.2,0z
		M1.8,1.5h16.3c0.2,0,0.3,0.1,0.3,0.3V13h-17V1.8C1.5,1.6,1.7,1.5,1.8,1.5z M18.2,18.5H1.8c-0.2,0-0.3-0.1-0.3-0.3v-3.7h17v3.7
		C18.5,18.4,18.4,18.5,18.2,18.5z M7.2,11.3c0.2,0.1,0.5,0.1,0.8,0L13.5,8c0.2-0.1,0.4-0.4,0.4-0.6c0-0.3-0.1-0.5-0.4-0.6L7.9,3.4
		c-0.2-0.1-0.5-0.1-0.8,0C6.9,3.5,6.8,3.7,6.8,4v6.6C6.8,10.9,6.9,11.1,7.2,11.3z M8.3,5.3l3.4,2l-3.4,2V5.3z M17.3,16.5
		c0,0.4-0.3,0.8-0.8,0.8H3.4c-0.4,0-0.8-0.3-0.8-0.8c0-0.4,0.3-0.8,0.8-0.8h13.2C17,15.7,17.3,16,17.3,16.5z"
	/>
</svg>
