<svg width="1056" height="204" viewBox="0 0 1056 204" fill="none" xmlns="http://www.w3.org/2000/svg">
<g clip-path="url(#clip0_239_1579)">
<rect width="1056" height="204" rx="8" fill="#101828"/>
<g opacity="0.5">
<g opacity="0.4" filter="url(#filter0_f_239_1579)">
<path d="M446.002 362.697C456.188 389.493 476.434 411.89 504.582 427.5C532.729 443.11 567.723 451.348 605.832 451.336C643.941 451.324 683.737 443.063 720.978 427.432C758.218 411.802 791.507 389.388 817.296 362.581C843.084 335.774 860.405 305.578 867.413 275.213C874.42 244.847 870.851 215.451 857.086 190.157C843.321 164.863 819.876 144.62 789.251 131.586C758.625 118.552 721.967 113.215 683.185 116.145L654.727 283.35L446.002 362.697Z" fill="url(#paint0_linear_239_1579)"/>
</g>
<g opacity="0.4" filter="url(#filter1_f_239_1579)">
<path d="M446.002 362.697C456.188 389.493 476.434 411.89 504.582 427.5C532.729 443.11 567.723 451.348 605.832 451.336C643.941 451.324 683.737 443.063 720.978 427.432C758.218 411.802 791.507 389.388 817.296 362.581C843.084 335.774 860.405 305.578 867.413 275.213C874.42 244.847 870.851 215.451 857.086 190.157C843.321 164.863 819.876 144.62 789.251 131.586C758.625 118.552 721.967 113.215 683.185 116.145L654.727 283.35L446.002 362.697Z" fill="url(#paint1_linear_239_1579)"/>
</g>
<g opacity="0.4" filter="url(#filter2_f_239_1579)">
<path d="M1187.74 -1.46573C1199.81 30.2789 1221.9 57.5317 1251.67 77.3874C1281.43 97.2431 1317.74 108.957 1356.74 111.281C1395.74 113.605 1435.95 106.451 1473.1 90.5832C1510.25 74.7148 1542.94 50.7266 1567.69 21.1757C1592.43 -8.37524 1608.31 -42.381 1613.62 -77.2163C1618.92 -112.052 1613.47 -146.411 1597.83 -176.63C1582.19 -206.85 1556.96 -231.798 1524.82 -248.814C1492.68 -265.83 1454.84 -274.277 1415.33 -273.253L1396.47 -80.8133L1187.74 -1.46573Z" fill="url(#paint2_linear_239_1579)"/>
</g>
<g style="mix-blend-mode:color-dodge" opacity="0.3" filter="url(#filter3_f_239_1579)">
<ellipse cx="349.742" cy="158.432" rx="349.742" ry="158.432" transform="matrix(0.939679 -0.342057 0.329887 0.944021 499.386 16.3422)" fill="url(#paint3_linear_239_1579)"/>
</g>
<g style="mix-blend-mode:color-dodge" opacity="0.3" filter="url(#filter4_f_239_1579)">
<ellipse cx="277.787" cy="206.895" rx="277.787" ry="206.895" transform="matrix(0.274511 -0.961584 0.999959 0.0090511 484.49 286.257)" fill="url(#paint4_linear_239_1579)"/>
</g>
<g style="mix-blend-mode:color-dodge" filter="url(#filter5_f_239_1579)">
<path d="M1203.3 106.724C1132.89 80.6876 1052.78 69.1176 971.512 73.2471C890.244 77.3765 810.865 97.0506 741.838 130.172C672.811 163.293 616.724 208.62 579.554 261.32C542.385 314.021 525.528 372.119 530.78 429.421C536.032 486.724 563.196 541.082 609.376 586.702C655.557 632.321 719.022 667.492 793.007 688.464C866.992 709.435 948.722 715.423 1029.49 705.787C1110.25 696.151 1187.02 671.254 1251.61 633.749L978.965 391.346L1203.3 106.724Z" fill="url(#paint5_linear_239_1579)"/>
</g>
<g filter="url(#filter6_f_239_1579)">
<path d="M1611.22 -222.576C1601.59 -252.873 1579 -278.041 1545.87 -295.396C1512.73 -312.752 1470.29 -321.644 1423.06 -321.125C1375.84 -320.607 1325.6 -310.696 1277.7 -292.451C1229.81 -274.205 1186.05 -248.308 1151.1 -217.521C1116.15 -186.734 1091.31 -152.211 1079.23 -117.631C1067.15 -83.052 1068.29 -49.7133 1082.52 -21.169C1096.75 7.37513 1123.54 30.0547 1160.03 44.4518C1196.52 58.8489 590.684 97.2168 639.07 93.3753L1340.48 -118.367C1337.6 -118.139 1334.94 -118.47 1332.76 -119.327C1330.59 -120.184 1329 -121.534 1328.15 -123.233C1327.3 -124.932 1327.24 -126.916 1327.96 -128.974C1328.67 -131.032 1330.15 -133.087 1332.23 -134.919C1334.31 -136.752 1336.92 -138.293 1339.77 -139.379C1342.62 -140.465 1345.61 -141.055 1348.42 -141.086C1351.23 -141.117 1353.76 -140.587 1355.73 -139.554C1357.7 -138.521 1359.05 -137.024 1359.62 -135.22L1611.22 -222.576Z" fill="url(#paint6_linear_239_1579)"/>
</g>
<g style="mix-blend-mode:color-dodge">
<path d="M1493.04 -307.726C1442.8 -278.894 1402.79 -238.615 1377.26 -191.182C1351.73 -143.749 1341.64 -90.9408 1348.07 -38.3871C1354.5 14.1667 1377.2 64.4959 1413.76 107.235C1450.32 149.975 1499.36 183.522 1555.66 204.3C1611.96 225.079 1673.4 232.31 1733.44 225.223C1793.48 218.136 1849.87 196.997 1896.59 164.058C1943.31 131.119 1978.61 87.6161 1998.73 38.1867C2018.85 -11.2428 2023.03 -64.7458 2010.83 -116.619L1681.93 -63.6251L1493.04 -307.726Z" fill="url(#paint7_linear_239_1579)"/>
</g>
<g style="mix-blend-mode:color-dodge" filter="url(#filter8_f_239_1579)">
<path d="M896.112 -81.3064C859.561 -60.3268 825.789 -37.0339 798.398 -13.9108C771.006 9.21239 751.021 31.2989 740.573 49.9943C730.126 68.6896 729.607 83.293 739.072 92.2474C748.537 101.202 767.632 104.172 794.32 100.841C821.009 97.5095 854.29 88.0021 890.617 73.332C926.944 58.6618 964.954 39.3789 1000.6 17.5389C1036.24 -4.30103 1068.17 -27.8794 1093 -50.6824C1117.83 -73.4855 1134.61 -94.6584 1141.57 -111.944L938.76 -26.1932L896.112 -81.3064Z" fill="url(#paint8_linear_239_1579)"/>
</g>
<g style="mix-blend-mode:color-dodge">
<path d="M1675.15 -287.787C1664.94 -332.756 1644.44 -373.758 1615.83 -406.422C1587.22 -439.085 1551.58 -462.185 1512.7 -473.259C1473.83 -484.334 1433.17 -482.967 1395.08 -469.305C1356.98 -455.643 1322.87 -430.198 1296.38 -395.683C1269.89 -361.167 1252.01 -318.875 1244.65 -273.315C1237.3 -227.755 1240.74 -180.634 1254.61 -136.977C1268.48 -93.3206 1292.25 -54.7635 1323.41 -25.4169C1354.56 3.92987 1391.92 22.9661 1431.5 29.6625L1461.68 -224.16L1675.15 -287.787Z" fill="url(#paint9_linear_239_1579)"/>
</g>
<g style="mix-blend-mode:screen" filter="url(#filter10_f_239_1579)">
<ellipse cx="245.84" cy="130.53" rx="245.84" ry="130.53" transform="matrix(-0.592993 0.805208 -0.999248 -0.0387724 824.323 82.7808)" fill="url(#paint10_linear_239_1579)"/>
</g>
</g>
</g>
<defs>
<filter id="filter0_f_239_1579" x="262.002" y="-68.6372" width="792.907" height="703.974" filterUnits="userSpaceOnUse" color-interpolation-filters="sRGB">
<feFlood flood-opacity="0" result="BackgroundImageFix"/>
<feBlend mode="normal" in="SourceGraphic" in2="BackgroundImageFix" result="shape"/>
<feGaussianBlur stdDeviation="92" result="effect1_foregroundBlur_239_1579"/>
</filter>
<filter id="filter1_f_239_1579" x="262.002" y="-68.6372" width="792.907" height="703.974" filterUnits="userSpaceOnUse" color-interpolation-filters="sRGB">
<feFlood flood-opacity="0" result="BackgroundImageFix"/>
<feBlend mode="normal" in="SourceGraphic" in2="BackgroundImageFix" result="shape"/>
<feGaussianBlur stdDeviation="92" result="effect1_foregroundBlur_239_1579"/>
</filter>
<filter id="filter2_f_239_1579" x="1003.74" y="-457.337" width="795.844" height="753.047" filterUnits="userSpaceOnUse" color-interpolation-filters="sRGB">
<feFlood flood-opacity="0" result="BackgroundImageFix"/>
<feBlend mode="normal" in="SourceGraphic" in2="BackgroundImageFix" result="shape"/>
<feGaussianBlur stdDeviation="92" result="effect1_foregroundBlur_239_1579"/>
</filter>
<filter id="filter3_f_239_1579" x="363.472" y="-329.256" width="1033.65" height="751.059" filterUnits="userSpaceOnUse" color-interpolation-filters="sRGB">
<feFlood flood-opacity="0" result="BackgroundImageFix"/>
<feBlend mode="normal" in="SourceGraphic" in2="BackgroundImageFix" result="shape"/>
<feGaussianBlur stdDeviation="92" result="effect1_foregroundBlur_239_1579"/>
</filter>
<filter id="filter4_f_239_1579" x="363.079" y="-430.109" width="809.106" height="902.245" filterUnits="userSpaceOnUse" color-interpolation-filters="sRGB">
<feFlood flood-opacity="0" result="BackgroundImageFix"/>
<feBlend mode="normal" in="SourceGraphic" in2="BackgroundImageFix" result="shape"/>
<feGaussianBlur stdDeviation="92" result="effect1_foregroundBlur_239_1579"/>
</filter>
<filter id="filter5_f_239_1579" x="345.841" y="-111.57" width="1089.77" height="1005.83" filterUnits="userSpaceOnUse" color-interpolation-filters="sRGB">
<feFlood flood-opacity="0" result="BackgroundImageFix"/>
<feBlend mode="normal" in="SourceGraphic" in2="BackgroundImageFix" result="shape"/>
<feGaussianBlur stdDeviation="92" result="effect1_foregroundBlur_239_1579"/>
</filter>
<filter id="filter6_f_239_1579" x="452.317" y="-505.147" width="1342.9" height="782.791" filterUnits="userSpaceOnUse" color-interpolation-filters="sRGB">
<feFlood flood-opacity="0" result="BackgroundImageFix"/>
<feBlend mode="normal" in="SourceGraphic" in2="BackgroundImageFix" result="shape"/>
<feGaussianBlur stdDeviation="92" result="effect1_foregroundBlur_239_1579"/>
</filter>
<filter id="filter8_f_239_1579" x="548.336" y="-295.944" width="777.236" height="582.112" filterUnits="userSpaceOnUse" color-interpolation-filters="sRGB">
<feFlood flood-opacity="0" result="BackgroundImageFix"/>
<feBlend mode="normal" in="SourceGraphic" in2="BackgroundImageFix" result="shape"/>
<feGaussianBlur stdDeviation="92" result="effect1_foregroundBlur_239_1579"/>
</filter>
<filter id="filter10_f_239_1579" x="168.496" y="-106.346" width="759.23" height="764.036" filterUnits="userSpaceOnUse" color-interpolation-filters="sRGB">
<feFlood flood-opacity="0" result="BackgroundImageFix"/>
<feBlend mode="normal" in="SourceGraphic" in2="BackgroundImageFix" result="shape"/>
<feGaussianBlur stdDeviation="92" result="effect1_foregroundBlur_239_1579"/>
</filter>
<linearGradient id="paint0_linear_239_1579" x1="711.015" y1="431.415" x2="379.17" y2="103.359" gradientUnits="userSpaceOnUse">
<stop stop-color="#E50000"/>
<stop offset="1" stop-color="#B100EF"/>
</linearGradient>
<linearGradient id="paint1_linear_239_1579" x1="711.015" y1="431.415" x2="379.17" y2="103.359" gradientUnits="userSpaceOnUse">
<stop stop-color="#E50000"/>
<stop offset="1" stop-color="#B100EF"/>
</linearGradient>
<linearGradient id="paint2_linear_239_1579" x1="1463.15" y1="94.598" x2="1058.53" y2="-254.727" gradientUnits="userSpaceOnUse">
<stop stop-color="#B700E5"/>
<stop offset="1" stop-color="#4D00EF"/>
</linearGradient>
<linearGradient id="paint3_linear_239_1579" x1="349.742" y1="0" x2="487.441" y2="472.849" gradientUnits="userSpaceOnUse">
<stop stop-color="#A900E5"/>
<stop offset="1" stop-color="#EF00E6"/>
</linearGradient>
<linearGradient id="paint4_linear_239_1579" x1="277.787" y1="0" x2="538.7" y2="544.933" gradientUnits="userSpaceOnUse">
<stop stop-color="#00A0E5"/>
<stop offset="1" stop-color="#00EF6E"/>
</linearGradient>
<linearGradient id="paint5_linear_239_1579" x1="589.884" y1="247.48" x2="1812.04" y2="163.911" gradientUnits="userSpaceOnUse">
<stop stop-color="#E50000"/>
<stop offset="1" stop-color="#EF4800"/>
</linearGradient>
<linearGradient id="paint6_linear_239_1579" x1="1290.5" y1="-297.107" x2="1631.6" y2="99.8161" gradientUnits="userSpaceOnUse">
<stop stop-color="#1ED2D7"/>
<stop offset="1" stop-color="#0043EF"/>
</linearGradient>
<linearGradient id="paint7_linear_239_1579" x1="1404.36" y1="95.6913" x2="1693.94" y2="-655.055" gradientUnits="userSpaceOnUse">
<stop stop-color="#FFDA15"/>
<stop offset="1" stop-color="#BD00FF"/>
</linearGradient>
<linearGradient id="paint8_linear_239_1579" x1="736.79" y1="89.7334" x2="703.257" y2="-208.235" gradientUnits="userSpaceOnUse">
<stop stop-color="#00E5AE"/>
<stop offset="1" stop-color="#FF4D00"/>
</linearGradient>
<linearGradient id="paint9_linear_239_1579" x1="1405.27" y1="-472.649" x2="1909.07" y2="-72.9632" gradientUnits="userSpaceOnUse">
<stop stop-color="#00AEE5"/>
<stop offset="0.0001" stop-color="#E5C000"/>
<stop offset="1" stop-color="#FF4D00"/>
</linearGradient>
<linearGradient id="paint10_linear_239_1579" x1="245.84" y1="0" x2="375.036" y2="378.512" gradientUnits="userSpaceOnUse">
<stop stop-color="#E50000"/>
<stop offset="1" stop-color="#2A6FF5"/>
</linearGradient>
<clipPath id="clip0_239_1579">
<rect width="1056" height="204" rx="8" fill="white"/>
</clipPath>
</defs>
</svg>
