<?xml version="1.0" encoding="utf-8"?>
<!-- Generator: Adobe Illustrator 21.1.0, SVG Export Plug-In . SVG Version: 6.00 Build 0)  -->
<svg version="1.1" id="Layer_1" xmlns="http://www.w3.org/2000/svg" xmlns:xlink="http://www.w3.org/1999/xlink" x="0px" y="0px"
	 viewBox="0 0 75 83.8" style="enable-background:new 0 0 75 83.8;" xml:space="preserve">
<style type="text/css">
	.st0{fill:url(#SVGID_1_);}
	.st1{clip-path:url(#SVGID_3_);fill:#FCAC60;}
	.st2{clip-path:url(#SVGID_3_);fill:#FCAD61;}
	.st3{clip-path:url(#SVGID_3_);fill:#FCAD62;}
	.st4{clip-path:url(#SVGID_3_);fill:#FCAE63;}
	.st5{clip-path:url(#SVGID_3_);fill:#FCAE64;}
	.st6{clip-path:url(#SVGID_3_);fill:#FCAF65;}
	.st7{clip-path:url(#SVGID_3_);fill:#FCAF66;}
	.st8{clip-path:url(#SVGID_3_);fill:#FCB067;}
	.st9{clip-path:url(#SVGID_3_);fill:#FDB068;}
	.st10{clip-path:url(#SVGID_3_);fill:#FDB169;}
	.st11{clip-path:url(#SVGID_3_);fill:#FDB26A;}
	.st12{clip-path:url(#SVGID_3_);fill:#FDB26B;}
	.st13{clip-path:url(#SVGID_3_);fill:#FDB36C;}
	.st14{clip-path:url(#SVGID_3_);fill:#FDB36D;}
	.st15{clip-path:url(#SVGID_3_);fill:#FDB46E;}
	.st16{clip-path:url(#SVGID_3_);fill:#FDB46F;}
	.st17{clip-path:url(#SVGID_3_);fill:#FDB570;}
	.st18{clip-path:url(#SVGID_3_);fill:#FDB571;}
	.st19{clip-path:url(#SVGID_3_);fill:#FDB672;}
	.st20{clip-path:url(#SVGID_3_);fill:#FDB773;}
	.st21{clip-path:url(#SVGID_3_);fill:#FDB774;}
	.st22{clip-path:url(#SVGID_3_);fill:#FDB875;}
	.st23{clip-path:url(#SVGID_3_);fill:#FDB876;}
	.st24{clip-path:url(#SVGID_3_);fill:#FEB978;}
	.st25{clip-path:url(#SVGID_3_);fill:#FEB979;}
	.st26{clip-path:url(#SVGID_3_);fill:#FEBA7A;}
	.st27{clip-path:url(#SVGID_3_);fill:#FEBA7B;}
	.st28{clip-path:url(#SVGID_3_);fill:#FEBB7C;}
	.st29{clip-path:url(#SVGID_3_);fill:#FEBC7D;}
	.st30{clip-path:url(#SVGID_3_);fill:#FEBC7E;}
	.st31{clip-path:url(#SVGID_3_);fill:#FEBD7F;}
	.st32{clip-path:url(#SVGID_3_);fill:#FEBD80;}
	.st33{clip-path:url(#SVGID_3_);fill:#FEBE81;}
	.st34{clip-path:url(#SVGID_3_);fill:#FEBE82;}
	.st35{clip-path:url(#SVGID_3_);fill:#FEBF83;}
	.st36{clip-path:url(#SVGID_3_);fill:#FEBF84;}
	.st37{clip-path:url(#SVGID_3_);fill:#FEC085;}
	.st38{clip-path:url(#SVGID_3_);fill:#FEC186;}
	.st39{clip-path:url(#SVGID_3_);fill:#FFC187;}
	.st40{clip-path:url(#SVGID_3_);fill:#FFC288;}
	.st41{clip-path:url(#SVGID_3_);fill:#FFC289;}
	.st42{clip-path:url(#SVGID_3_);fill:#FFC38A;}
	.st43{clip-path:url(#SVGID_3_);fill:#FFC38B;}
	.st44{clip-path:url(#SVGID_3_);fill:#FFC48C;}
	.st45{clip-path:url(#SVGID_3_);fill:#FFC48D;}
	.st46{clip-path:url(#SVGID_3_);fill:#FFC58E;}
	.st47{fill:url(#SVGID_4_);}
	.st48{fill:url(#SVGID_5_);}
	.st49{fill:#FFFFFF;}
	.st50{fill:#FFC58E;}
	.st51{clip-path:url(#SVGID_7_);}
	.st52{fill:#6BF9EB;}
	.st53{clip-path:url(#SVGID_9_);fill:#91D9F9;}
	.st54{clip-path:url(#SVGID_9_);fill:#90D8F9;}
	.st55{clip-path:url(#SVGID_9_);fill:#8FD8F9;}
	.st56{clip-path:url(#SVGID_9_);fill:#8ED7F8;}
	.st57{clip-path:url(#SVGID_9_);fill:#8DD7F8;}
	.st58{clip-path:url(#SVGID_9_);fill:#8CD6F8;}
	.st59{clip-path:url(#SVGID_9_);fill:#8BD6F8;}
	.st60{clip-path:url(#SVGID_9_);fill:#8AD5F7;}
	.st61{clip-path:url(#SVGID_9_);fill:#89D4F7;}
	.st62{clip-path:url(#SVGID_9_);fill:#88D4F7;}
	.st63{clip-path:url(#SVGID_9_);fill:#87D3F7;}
	.st64{clip-path:url(#SVGID_9_);fill:#86D3F6;}
	.st65{clip-path:url(#SVGID_9_);fill:#85D2F6;}
	.st66{clip-path:url(#SVGID_9_);fill:#84D2F6;}
	.st67{clip-path:url(#SVGID_9_);fill:#83D1F6;}
	.st68{clip-path:url(#SVGID_9_);fill:#82D0F6;}
	.st69{clip-path:url(#SVGID_9_);fill:#81D0F5;}
	.st70{clip-path:url(#SVGID_9_);fill:#80CFF5;}
	.st71{clip-path:url(#SVGID_9_);fill:#7FCFF5;}
	.st72{clip-path:url(#SVGID_9_);fill:#7ECEF5;}
	.st73{clip-path:url(#SVGID_9_);fill:#7DCEF4;}
	.st74{clip-path:url(#SVGID_9_);fill:#7CCDF4;}
	.st75{clip-path:url(#SVGID_9_);fill:#7BCCF4;}
	.st76{clip-path:url(#SVGID_9_);fill:#7ACCF4;}
	.st77{clip-path:url(#SVGID_9_);fill:#79CBF4;}
	.st78{clip-path:url(#SVGID_9_);fill:#78CBF3;}
	.st79{clip-path:url(#SVGID_9_);fill:#77CAF3;}
	.st80{clip-path:url(#SVGID_9_);fill:#76CAF3;}
	.st81{clip-path:url(#SVGID_9_);fill:#75C9F3;}
	.st82{clip-path:url(#SVGID_9_);fill:#74C8F2;}
	.st83{clip-path:url(#SVGID_9_);fill:#73C8F2;}
	.st84{clip-path:url(#SVGID_9_);fill:#72C7F2;}
	.st85{clip-path:url(#SVGID_9_);fill:#71C7F2;}
	.st86{clip-path:url(#SVGID_9_);fill:#70C6F1;}
	.st87{clip-path:url(#SVGID_9_);fill:#6FC6F1;}
	.st88{clip-path:url(#SVGID_9_);fill:#6EC5F1;}
	.st89{clip-path:url(#SVGID_9_);fill:#6DC4F1;}
	.st90{clip-path:url(#SVGID_9_);fill:#6CC4F1;}
	.st91{clip-path:url(#SVGID_9_);fill:#6BC3F0;}
	.st92{clip-path:url(#SVGID_9_);fill:#6AC3F0;}
	.st93{clip-path:url(#SVGID_9_);fill:#69C2F0;}
	.st94{clip-path:url(#SVGID_9_);fill:#68C2F0;}
	.st95{clip-path:url(#SVGID_9_);fill:#67C1EF;}
	.st96{clip-path:url(#SVGID_9_);fill:#66C0EF;}
	.st97{clip-path:url(#SVGID_9_);fill:#65C0EF;}
	.st98{clip-path:url(#SVGID_9_);fill:#64BFEF;}
	.st99{clip-path:url(#SVGID_9_);fill:#63BFEE;}
	.st100{clip-path:url(#SVGID_9_);fill:#62BEEE;}
	.st101{clip-path:url(#SVGID_9_);fill:#61BEEE;}
	.st102{clip-path:url(#SVGID_9_);fill:#5FBDEE;}
	.st103{clip-path:url(#SVGID_9_);fill:#5EBCEE;}
	.st104{clip-path:url(#SVGID_9_);fill:#5DBCED;}
	.st105{clip-path:url(#SVGID_9_);fill:#5CBBED;}
	.st106{clip-path:url(#SVGID_9_);fill:#5BBBED;}
	.st107{clip-path:url(#SVGID_9_);fill:#5ABAED;}
	.st108{clip-path:url(#SVGID_9_);fill:#59B9EC;}
	.st109{clip-path:url(#SVGID_9_);fill:#58B9EC;}
	.st110{clip-path:url(#SVGID_9_);fill:#57B8EC;}
	.st111{clip-path:url(#SVGID_9_);fill:#56B8EC;}
	.st112{clip-path:url(#SVGID_11_);fill:#33D1D8;}
	.st113{clip-path:url(#SVGID_11_);fill:#34D1D9;}
	.st114{clip-path:url(#SVGID_11_);fill:#35D2D9;}
	.st115{clip-path:url(#SVGID_11_);fill:#37D3D9;}
	.st116{clip-path:url(#SVGID_11_);fill:#38D3DA;}
	.st117{clip-path:url(#SVGID_11_);fill:#39D4DA;}
	.st118{clip-path:url(#SVGID_11_);fill:#3AD5DA;}
	.st119{clip-path:url(#SVGID_11_);fill:#3BD6DB;}
	.st120{clip-path:url(#SVGID_11_);fill:#3CD6DB;}
	.st121{clip-path:url(#SVGID_11_);fill:#3DD7DB;}
	.st122{clip-path:url(#SVGID_11_);fill:#3ED8DC;}
	.st123{clip-path:url(#SVGID_11_);fill:#3FD9DC;}
	.st124{clip-path:url(#SVGID_11_);fill:#40D9DC;}
	.st125{clip-path:url(#SVGID_11_);fill:#41DADD;}
	.st126{clip-path:url(#SVGID_11_);fill:#42DBDD;}
	.st127{clip-path:url(#SVGID_11_);fill:#43DCDD;}
	.st128{clip-path:url(#SVGID_11_);fill:#44DCDE;}
	.st129{clip-path:url(#SVGID_11_);fill:#45DDDE;}
	.st130{clip-path:url(#SVGID_11_);fill:#46DEDE;}
	.st131{clip-path:url(#SVGID_11_);fill:#47DFDF;}
	.st132{clip-path:url(#SVGID_11_);fill:#48DFDF;}
	.st133{clip-path:url(#SVGID_11_);fill:#49E0DF;}
	.st134{clip-path:url(#SVGID_11_);fill:#4AE1E0;}
	.st135{clip-path:url(#SVGID_11_);fill:#4BE1E0;}
	.st136{clip-path:url(#SVGID_11_);fill:#4CE2E0;}
	.st137{clip-path:url(#SVGID_11_);fill:#4DE3E1;}
	.st138{clip-path:url(#SVGID_11_);fill:#4EE4E1;}
	.st139{clip-path:url(#SVGID_11_);fill:#4FE4E1;}
	.st140{clip-path:url(#SVGID_11_);fill:#50E5E2;}
	.st141{clip-path:url(#SVGID_11_);fill:#51E6E2;}
	.st142{clip-path:url(#SVGID_11_);fill:#52E7E3;}
	.st143{clip-path:url(#SVGID_11_);fill:#53E7E3;}
	.st144{clip-path:url(#SVGID_11_);fill:#54E8E3;}
	.st145{clip-path:url(#SVGID_11_);fill:#55E9E4;}
	.st146{clip-path:url(#SVGID_11_);fill:#56EAE4;}
	.st147{clip-path:url(#SVGID_11_);fill:#57EAE4;}
	.st148{clip-path:url(#SVGID_11_);fill:#58EBE5;}
	.st149{clip-path:url(#SVGID_11_);fill:#59ECE5;}
	.st150{clip-path:url(#SVGID_11_);fill:#5AECE5;}
	.st151{clip-path:url(#SVGID_11_);fill:#5BEDE6;}
	.st152{clip-path:url(#SVGID_11_);fill:#5CEEE6;}
	.st153{clip-path:url(#SVGID_11_);fill:#5DEFE6;}
	.st154{clip-path:url(#SVGID_11_);fill:#5EEFE7;}
	.st155{clip-path:url(#SVGID_11_);fill:#5FF0E7;}
	.st156{clip-path:url(#SVGID_11_);fill:#60F1E7;}
	.st157{clip-path:url(#SVGID_11_);fill:#61F2E8;}
	.st158{clip-path:url(#SVGID_11_);fill:#62F2E8;}
	.st159{clip-path:url(#SVGID_11_);fill:#63F3E8;}
	.st160{clip-path:url(#SVGID_11_);fill:#64F4E9;}
	.st161{clip-path:url(#SVGID_11_);fill:#65F5E9;}
	.st162{clip-path:url(#SVGID_11_);fill:#66F5E9;}
	.st163{clip-path:url(#SVGID_11_);fill:#67F6EA;}
	.st164{clip-path:url(#SVGID_11_);fill:#68F7EA;}
	.st165{clip-path:url(#SVGID_11_);fill:#69F8EA;}
	.st166{clip-path:url(#SVGID_11_);fill:#6AF8EB;}
	.st167{clip-path:url(#SVGID_11_);fill:#6BF9EB;}
	.st168{clip-path:url(#SVGID_13_);fill:#33D1D8;}
	.st169{clip-path:url(#SVGID_13_);fill:#34D1D9;}
	.st170{clip-path:url(#SVGID_13_);fill:#35D2D9;}
	.st171{clip-path:url(#SVGID_13_);fill:#37D3D9;}
	.st172{clip-path:url(#SVGID_13_);fill:#38D3DA;}
	.st173{clip-path:url(#SVGID_13_);fill:#39D4DA;}
	.st174{clip-path:url(#SVGID_13_);fill:#3AD5DA;}
	.st175{clip-path:url(#SVGID_13_);fill:#3BD6DB;}
	.st176{clip-path:url(#SVGID_13_);fill:#3CD6DB;}
	.st177{clip-path:url(#SVGID_13_);fill:#3DD7DB;}
	.st178{clip-path:url(#SVGID_13_);fill:#3ED8DC;}
	.st179{clip-path:url(#SVGID_13_);fill:#3FD9DC;}
	.st180{clip-path:url(#SVGID_13_);fill:#40D9DC;}
	.st181{clip-path:url(#SVGID_13_);fill:#41DADD;}
	.st182{clip-path:url(#SVGID_13_);fill:#42DBDD;}
	.st183{clip-path:url(#SVGID_13_);fill:#43DCDD;}
	.st184{clip-path:url(#SVGID_13_);fill:#44DCDE;}
	.st185{clip-path:url(#SVGID_13_);fill:#45DDDE;}
	.st186{clip-path:url(#SVGID_13_);fill:#46DEDE;}
	.st187{clip-path:url(#SVGID_13_);fill:#47DFDF;}
	.st188{clip-path:url(#SVGID_13_);fill:#48DFDF;}
	.st189{clip-path:url(#SVGID_13_);fill:#49E0DF;}
	.st190{clip-path:url(#SVGID_13_);fill:#4AE1E0;}
	.st191{clip-path:url(#SVGID_13_);fill:#4BE1E0;}
	.st192{clip-path:url(#SVGID_13_);fill:#4CE2E0;}
	.st193{clip-path:url(#SVGID_13_);fill:#4DE3E1;}
	.st194{clip-path:url(#SVGID_13_);fill:#4EE4E1;}
	.st195{clip-path:url(#SVGID_13_);fill:#4FE4E1;}
	.st196{clip-path:url(#SVGID_13_);fill:#50E5E2;}
	.st197{clip-path:url(#SVGID_13_);fill:#51E6E2;}
	.st198{clip-path:url(#SVGID_13_);fill:#52E7E3;}
	.st199{fill:url(#SVGID_14_);}
	.st200{fill:url(#SVGID_15_);}
	.st201{fill:url(#SVGID_16_);}
	.st202{fill:url(#SVGID_17_);}
	.st203{fill:#CCCCCC;}
	.st204{fill:url(#SVGID_18_);}
	.st205{fill:url(#SVGID_19_);}
	.st206{fill:url(#SVGID_20_);}
	.st207{fill:url(#SVGID_21_);}
	.st208{fill:url(#SVGID_22_);}
	.st209{fill:url(#SVGID_23_);}
	.st210{fill:url(#SVGID_24_);}
</style>
<linearGradient id="SVGID_1_" gradientUnits="userSpaceOnUse" x1="28.5251" y1="11.5989" x2="48.2361" y2="72.8068">
	<stop  offset="0" style="stop-color:#91D9F9"/>
	<stop  offset="0.496" style="stop-color:#30A2E3"/>
	<stop  offset="0.9483" style="stop-color:#8859F1"/>
</linearGradient>
<path class="st0" d="M66.4,52.4L66.4,52.4L66.4,52.4c0-1.6-0.6-3.1-1.8-4.3l-16-16l17.3-17.3c1.1-1.1,0.3-3-1.3-3H28.2l0,0l0,0l0,0
	l0,0l0,0v0v0l-16,16c-1.2,1.2-1.8,2.8-1.8,4.3c0,1.6,0.6,3.1,1.8,4.3l16,16v0l0,0h0L10.9,69.7c-1.1,1.1-0.3,3,1.3,3h36.4l0,0v0l0,0
	l0,0l0,0v0l16-16c0.3-0.3,0.6-0.6,0.8-1C66,54.7,66.4,53.5,66.4,52.4L66.4,52.4C66.4,52.4,66.4,52.4,66.4,52.4L66.4,52.4z"/>
<g>
	<g>
		<defs>
			<circle id="SVGID_2_" cx="50.5" cy="43.8" r="4"/>
		</defs>
		<clipPath id="SVGID_3_">
			<use xlink:href="#SVGID_2_"  style="overflow:visible;"/>
		</clipPath>
		<rect x="46.6" y="47.8" class="st1" width="7.9" height="0"/>
		<rect x="46.6" y="47.6" class="st1" width="7.9" height="0.2"/>
		<rect x="46.6" y="47.5" class="st2" width="7.9" height="0.2"/>
		<rect x="46.6" y="47.3" class="st3" width="7.9" height="0.2"/>
		<rect x="46.6" y="47.1" class="st4" width="7.9" height="0.2"/>
		<rect x="46.6" y="46.9" class="st5" width="7.9" height="0.2"/>
		<rect x="46.6" y="46.8" class="st6" width="7.9" height="0.2"/>
		<rect x="46.6" y="46.6" class="st7" width="7.9" height="0.2"/>
		<rect x="46.6" y="46.4" class="st8" width="7.9" height="0.2"/>
		<rect x="46.6" y="46.3" class="st9" width="7.9" height="0.2"/>
		<rect x="46.6" y="46.1" class="st10" width="7.9" height="0.2"/>
		<rect x="46.6" y="45.9" class="st11" width="7.9" height="0.2"/>
		<rect x="46.6" y="45.7" class="st12" width="7.9" height="0.2"/>
		<rect x="46.6" y="45.6" class="st13" width="7.9" height="0.2"/>
		<rect x="46.6" y="45.4" class="st14" width="7.9" height="0.2"/>
		<rect x="46.6" y="45.2" class="st15" width="7.9" height="0.2"/>
		<rect x="46.6" y="45" class="st16" width="7.9" height="0.2"/>
		<rect x="46.6" y="44.9" class="st17" width="7.9" height="0.2"/>
		<rect x="46.6" y="44.7" class="st18" width="7.9" height="0.2"/>
		<rect x="46.6" y="44.5" class="st19" width="7.9" height="0.2"/>
		<rect x="46.6" y="44.4" class="st20" width="7.9" height="0.2"/>
		<rect x="46.6" y="44.2" class="st21" width="7.9" height="0.2"/>
		<rect x="46.6" y="44" class="st22" width="7.9" height="0.2"/>
		<rect x="46.6" y="43.8" class="st23" width="7.9" height="0.2"/>
		<rect x="46.6" y="43.7" class="st24" width="7.9" height="0.2"/>
		<rect x="46.6" y="43.5" class="st25" width="7.9" height="0.2"/>
		<rect x="46.6" y="43.3" class="st26" width="7.9" height="0.2"/>
		<rect x="46.6" y="43.2" class="st27" width="7.9" height="0.2"/>
		<rect x="46.6" y="43" class="st28" width="7.9" height="0.2"/>
		<rect x="46.6" y="42.8" class="st29" width="7.9" height="0.2"/>
		<rect x="46.6" y="42.6" class="st30" width="7.9" height="0.2"/>
		<rect x="46.6" y="42.5" class="st31" width="7.9" height="0.2"/>
		<rect x="46.6" y="42.3" class="st32" width="7.9" height="0.2"/>
		<rect x="46.6" y="42.1" class="st33" width="7.9" height="0.2"/>
		<rect x="46.6" y="42" class="st34" width="7.9" height="0.2"/>
		<rect x="46.6" y="41.8" class="st35" width="7.9" height="0.2"/>
		<rect x="46.6" y="41.6" class="st36" width="7.9" height="0.2"/>
		<rect x="46.6" y="41.4" class="st37" width="7.9" height="0.2"/>
		<rect x="46.6" y="41.3" class="st38" width="7.9" height="0.2"/>
		<rect x="46.6" y="41.1" class="st39" width="7.9" height="0.2"/>
		<rect x="46.6" y="40.9" class="st40" width="7.9" height="0.2"/>
		<rect x="46.6" y="40.8" class="st41" width="7.9" height="0.2"/>
		<rect x="46.6" y="40.6" class="st42" width="7.9" height="0.2"/>
		<rect x="46.6" y="40.4" class="st43" width="7.9" height="0.2"/>
		<rect x="46.6" y="40.2" class="st44" width="7.9" height="0.2"/>
		<rect x="46.6" y="40.1" class="st45" width="7.9" height="0.2"/>
		<rect x="46.6" y="39.9" class="st46" width="7.9" height="0.2"/>
		<rect x="46.6" y="39.9" class="st46" width="7.9" height="0"/>
	</g>
</g>
<g>
	
		<linearGradient id="SVGID_4_" gradientUnits="userSpaceOnUse" x1="30.8873" y1="34.7127" x2="54.5531" y2="34.9146" gradientTransform="matrix(1 -8.533533e-03 8.533533e-03 1 8.7293 -5.296)">
		<stop  offset="0" style="stop-color:#0E48B5"/>
		<stop  offset="1" style="stop-color:#30A2E3"/>
	</linearGradient>
	<circle class="st47" cx="51.7" cy="29.2" r="11.8"/>
	<g>
		<g>
			<g>
				<linearGradient id="SVGID_5_" gradientUnits="userSpaceOnUse" x1="8.0359" y1="44.7028" x2="68.7171" y2="44.7028">
					<stop  offset="0" style="stop-color:#F56FAE"/>
					<stop  offset="1" style="stop-color:#FB6874"/>
				</linearGradient>
				<path class="st48" d="M10.5,28.5C9.1,28.5,8,29.6,8,31v27.4c0,1.4,1.1,2.5,2.5,2.5h55.7c1.4,0,2.5-1.1,2.5-2.5V31
					c0-1.4-1.1-2.5-2.5-2.5H10.5z"/>
			</g>
		</g>
		<g>
			<rect x="15.3" y="37.4" class="st49" width="20.7" height="2.5"/>
			<rect x="15.3" y="42.7" class="st49" width="20" height="0.7"/>
			<rect x="15.3" y="44.7" class="st49" width="25.7" height="0.7"/>
			<path class="st50" d="M29.4,53.5H15.7c-0.3,0-0.5-0.2-0.5-0.5v-3.8c0-0.3,0.2-0.5,0.5-0.5h13.7c0.3,0,0.5,0.2,0.5,0.5V53
				C29.8,53.3,29.6,53.5,29.4,53.5z"/>
		</g>
	</g>
	<g>
		<defs>
			<path id="SVGID_6_" d="M10.5,28.5C9.1,28.5,8,29.6,8,31v27.4c0,1.4,1.1,2.5,2.5,2.5h55.7c1.4,0,2.5-1.1,2.5-2.5V31
				c0-1.4-1.1-2.5-2.5-2.5H10.5z"/>
		</defs>
		<clipPath id="SVGID_7_">
			<use xlink:href="#SVGID_6_"  style="overflow:visible;"/>
		</clipPath>
		<g class="st51">
			<g>
				<path class="st52" d="M41.7,62h4.4l8.6-10.9l-3.2-4.1c-0.5-0.5-1.4-0.5-2,0l-12,14.6l3.5-0.4C41,61.7,41.3,62,41.7,62z"/>
			</g>
			<g>
				<g>
					<defs>
						<path id="SVGID_8_" d="M61.8,42.3l-7,8.8L63.4,62h10.8c0.4,0,0.7-0.3,0.7-0.7v-5l-11.1-14C63.2,41.8,62.3,41.8,61.8,42.3z"/>
					</defs>
					<clipPath id="SVGID_9_">
						<use xlink:href="#SVGID_8_"  style="overflow:visible;"/>
					</clipPath>
					<path class="st53" d="M54.7,62h20.1H54.7z"/>
					<rect x="54.7" y="61.7" class="st53" width="20.1" height="0.3"/>
					<rect x="54.7" y="61.3" class="st54" width="20.1" height="0.3"/>
					<rect x="54.7" y="61" class="st55" width="20.1" height="0.3"/>
					<rect x="54.7" y="60.6" class="st56" width="20.1" height="0.3"/>
					<rect x="54.7" y="60.3" class="st57" width="20.1" height="0.3"/>
					<rect x="54.7" y="59.9" class="st58" width="20.1" height="0.3"/>
					<rect x="54.7" y="59.6" class="st59" width="20.1" height="0.3"/>
					<rect x="54.7" y="59.2" class="st60" width="20.1" height="0.3"/>
					<rect x="54.7" y="58.9" class="st61" width="20.1" height="0.3"/>
					<rect x="54.7" y="58.5" class="st62" width="20.1" height="0.3"/>
					<rect x="54.7" y="58.2" class="st63" width="20.1" height="0.3"/>
					<rect x="54.7" y="57.8" class="st64" width="20.1" height="0.3"/>
					<rect x="54.7" y="57.5" class="st65" width="20.1" height="0.3"/>
					<rect x="54.7" y="57.1" class="st66" width="20.1" height="0.3"/>
					<rect x="54.7" y="56.8" class="st67" width="20.1" height="0.3"/>
					<rect x="54.7" y="56.4" class="st68" width="20.1" height="0.3"/>
					<rect x="54.7" y="56.1" class="st69" width="20.1" height="0.3"/>
					<rect x="54.7" y="55.7" class="st70" width="20.1" height="0.3"/>
					<rect x="54.7" y="55.4" class="st71" width="20.1" height="0.3"/>
					<rect x="54.7" y="55" class="st72" width="20.1" height="0.3"/>
					<rect x="54.7" y="54.7" class="st73" width="20.1" height="0.3"/>
					<rect x="54.7" y="54.4" class="st74" width="20.1" height="0.3"/>
					<rect x="54.7" y="54" class="st75" width="20.1" height="0.3"/>
					<rect x="54.7" y="53.7" class="st76" width="20.1" height="0.3"/>
					<rect x="54.7" y="53.3" class="st77" width="20.1" height="0.3"/>
					<rect x="54.7" y="53" class="st78" width="20.1" height="0.3"/>
					<rect x="54.7" y="52.6" class="st79" width="20.1" height="0.3"/>
					<rect x="54.7" y="52.3" class="st80" width="20.1" height="0.3"/>
					<rect x="54.7" y="51.9" class="st81" width="20.1" height="0.3"/>
					<rect x="54.7" y="51.6" class="st82" width="20.1" height="0.3"/>
					<rect x="54.7" y="51.2" class="st83" width="20.1" height="0.3"/>
					<rect x="54.7" y="50.9" class="st84" width="20.1" height="0.3"/>
					<rect x="54.7" y="50.5" class="st85" width="20.1" height="0.3"/>
					<rect x="54.7" y="50.2" class="st86" width="20.1" height="0.3"/>
					<rect x="54.7" y="49.8" class="st87" width="20.1" height="0.3"/>
					<rect x="54.7" y="49.5" class="st88" width="20.1" height="0.3"/>
					<rect x="54.7" y="49.1" class="st89" width="20.1" height="0.3"/>
					<rect x="54.7" y="48.8" class="st90" width="20.1" height="0.3"/>
					<rect x="54.7" y="48.4" class="st91" width="20.1" height="0.3"/>
					<rect x="54.7" y="48.1" class="st92" width="20.1" height="0.3"/>
					<rect x="54.7" y="47.7" class="st93" width="20.1" height="0.3"/>
					<rect x="54.7" y="47.4" class="st94" width="20.1" height="0.3"/>
					<rect x="54.7" y="47" class="st95" width="20.1" height="0.3"/>
					<rect x="54.7" y="46.7" class="st96" width="20.1" height="0.3"/>
					<rect x="54.7" y="46.3" class="st97" width="20.1" height="0.3"/>
					<rect x="54.7" y="46" class="st98" width="20.1" height="0.3"/>
					<rect x="54.7" y="45.6" class="st99" width="20.1" height="0.3"/>
					<rect x="54.7" y="45.3" class="st100" width="20.1" height="0.3"/>
					<rect x="54.7" y="44.9" class="st101" width="20.1" height="0.3"/>
					<rect x="54.7" y="44.6" class="st102" width="20.1" height="0.3"/>
					<rect x="54.7" y="44.2" class="st103" width="20.1" height="0.3"/>
					<rect x="54.7" y="43.9" class="st104" width="20.1" height="0.3"/>
					<rect x="54.7" y="43.5" class="st105" width="20.1" height="0.3"/>
					<rect x="54.7" y="43.2" class="st106" width="20.1" height="0.3"/>
					<rect x="54.7" y="42.8" class="st107" width="20.1" height="0.3"/>
					<rect x="54.7" y="42.5" class="st108" width="20.1" height="0.3"/>
					<rect x="54.7" y="42.1" class="st109" width="20.1" height="0.3"/>
					<rect x="54.7" y="41.8" class="st110" width="20.1" height="0.3"/>
					<rect x="54.7" y="41.8" class="st111" width="20.1" height="0"/>
				</g>
			</g>
			<g>
				<g>
					<defs>
						<path id="SVGID_10_" d="M61.8,42.3l-7,8.8L63.4,62h10.8c0.4,0,0.7-0.3,0.7-0.7v-5l-11.1-14C63.2,41.8,62.3,41.8,61.8,42.3z"/>
					</defs>
					<clipPath id="SVGID_11_">
						<use xlink:href="#SVGID_10_"  style="overflow:visible;"/>
					</clipPath>
					<rect x="54.7" y="62" class="st112" width="20.1" height="0"/>
					<rect x="54.7" y="61.7" class="st113" width="20.1" height="0.4"/>
					<rect x="54.7" y="61.3" class="st114" width="20.1" height="0.4"/>
					<rect x="54.7" y="60.9" class="st115" width="20.1" height="0.4"/>
					<rect x="54.7" y="60.6" class="st116" width="20.1" height="0.4"/>
					<rect x="54.7" y="60.2" class="st117" width="20.1" height="0.4"/>
					<rect x="54.7" y="59.8" class="st118" width="20.1" height="0.4"/>
					<rect x="54.7" y="59.5" class="st119" width="20.1" height="0.4"/>
					<rect x="54.7" y="59.1" class="st120" width="20.1" height="0.4"/>
					<rect x="54.7" y="58.7" class="st121" width="20.1" height="0.4"/>
					<rect x="54.7" y="58.4" class="st122" width="20.1" height="0.4"/>
					<rect x="54.7" y="58" class="st123" width="20.1" height="0.4"/>
					<rect x="54.7" y="57.6" class="st124" width="20.1" height="0.4"/>
					<rect x="54.7" y="57.3" class="st125" width="20.1" height="0.4"/>
					<rect x="54.7" y="56.9" class="st126" width="20.1" height="0.4"/>
					<rect x="54.7" y="56.5" class="st127" width="20.1" height="0.4"/>
					<rect x="54.7" y="56.2" class="st128" width="20.1" height="0.4"/>
					<rect x="54.7" y="55.8" class="st129" width="20.1" height="0.4"/>
					<rect x="54.7" y="55.4" class="st130" width="20.1" height="0.4"/>
					<rect x="54.7" y="55.1" class="st131" width="20.1" height="0.4"/>
					<rect x="54.7" y="54.7" class="st132" width="20.1" height="0.4"/>
					<rect x="54.7" y="54.3" class="st133" width="20.1" height="0.4"/>
					<rect x="54.7" y="54" class="st134" width="20.1" height="0.4"/>
					<rect x="54.7" y="53.6" class="st135" width="20.1" height="0.4"/>
					<rect x="54.7" y="53.2" class="st136" width="20.1" height="0.4"/>
					<rect x="54.7" y="52.9" class="st137" width="20.1" height="0.4"/>
					<rect x="54.7" y="52.5" class="st138" width="20.1" height="0.4"/>
					<rect x="54.7" y="52.1" class="st139" width="20.1" height="0.4"/>
					<rect x="54.7" y="51.8" class="st140" width="20.1" height="0.4"/>
					<rect x="54.7" y="51.4" class="st141" width="20.1" height="0.4"/>
					<rect x="54.7" y="51" class="st142" width="20.1" height="0.4"/>
					<rect x="54.7" y="50.7" class="st143" width="20.1" height="0.4"/>
					<rect x="54.7" y="50.3" class="st144" width="20.1" height="0.4"/>
					<rect x="54.7" y="49.9" class="st145" width="20.1" height="0.4"/>
					<rect x="54.7" y="49.6" class="st146" width="20.1" height="0.4"/>
					<rect x="54.7" y="49.2" class="st147" width="20.1" height="0.4"/>
					<rect x="54.7" y="48.9" class="st148" width="20.1" height="0.4"/>
					<rect x="54.7" y="48.5" class="st149" width="20.1" height="0.4"/>
					<rect x="54.7" y="48.1" class="st150" width="20.1" height="0.4"/>
					<rect x="54.7" y="47.8" class="st151" width="20.1" height="0.4"/>
					<rect x="54.7" y="47.4" class="st152" width="20.1" height="0.4"/>
					<rect x="54.7" y="47" class="st153" width="20.1" height="0.4"/>
					<rect x="54.7" y="46.7" class="st154" width="20.1" height="0.4"/>
					<rect x="54.7" y="46.3" class="st155" width="20.1" height="0.4"/>
					<rect x="54.7" y="45.9" class="st156" width="20.1" height="0.4"/>
					<rect x="54.7" y="45.6" class="st157" width="20.1" height="0.4"/>
					<rect x="54.7" y="45.2" class="st158" width="20.1" height="0.4"/>
					<rect x="54.7" y="44.8" class="st159" width="20.1" height="0.4"/>
					<rect x="54.7" y="44.5" class="st160" width="20.1" height="0.4"/>
					<rect x="54.7" y="44.1" class="st161" width="20.1" height="0.4"/>
					<rect x="54.7" y="43.7" class="st162" width="20.1" height="0.4"/>
					<rect x="54.7" y="43.4" class="st163" width="20.1" height="0.4"/>
					<rect x="54.7" y="43" class="st164" width="20.1" height="0.4"/>
					<rect x="54.7" y="42.6" class="st165" width="20.1" height="0.4"/>
					<rect x="54.7" y="42.3" class="st166" width="20.1" height="0.4"/>
					<rect x="54.7" y="41.9" class="st167" width="20.1" height="0.4"/>
					<rect x="54.7" y="41.8" class="st167" width="20.1" height="0.1"/>
				</g>
			</g>
			<g>
				<polygon class="st52" points="46.1,62 63.4,62 54.7,51.2 				"/>
			</g>
			<g>
				<g>
					<defs>
						<polygon id="SVGID_12_" points="46.1,62 63.4,62 54.7,51.2 						"/>
					</defs>
					<clipPath id="SVGID_13_">
						<use xlink:href="#SVGID_12_"  style="overflow:visible;"/>
					</clipPath>
					<rect x="46.1" y="62" class="st168" width="17.3" height="0"/>
					<rect x="46.1" y="61.7" class="st169" width="17.3" height="0.4"/>
					<rect x="46.1" y="61.3" class="st170" width="17.3" height="0.4"/>
					<rect x="46.1" y="60.9" class="st171" width="17.3" height="0.4"/>
					<rect x="46.1" y="60.6" class="st172" width="17.3" height="0.4"/>
					<rect x="46.1" y="60.2" class="st173" width="17.3" height="0.4"/>
					<rect x="46.1" y="59.8" class="st174" width="17.3" height="0.4"/>
					<rect x="46.1" y="59.5" class="st175" width="17.3" height="0.4"/>
					<rect x="46.1" y="59.1" class="st176" width="17.3" height="0.4"/>
					<rect x="46.1" y="58.7" class="st177" width="17.3" height="0.4"/>
					<rect x="46.1" y="58.4" class="st178" width="17.3" height="0.4"/>
					<rect x="46.1" y="58" class="st179" width="17.3" height="0.4"/>
					<rect x="46.1" y="57.6" class="st180" width="17.3" height="0.4"/>
					<rect x="46.1" y="57.3" class="st181" width="17.3" height="0.4"/>
					<rect x="46.1" y="56.9" class="st182" width="17.3" height="0.4"/>
					<rect x="46.1" y="56.5" class="st183" width="17.3" height="0.4"/>
					<rect x="46.1" y="56.2" class="st184" width="17.3" height="0.4"/>
					<rect x="46.1" y="55.8" class="st185" width="17.3" height="0.4"/>
					<rect x="46.1" y="55.4" class="st186" width="17.3" height="0.4"/>
					<rect x="46.1" y="55.1" class="st187" width="17.3" height="0.4"/>
					<rect x="46.1" y="54.7" class="st188" width="17.3" height="0.4"/>
					<rect x="46.1" y="54.3" class="st189" width="17.3" height="0.4"/>
					<rect x="46.1" y="54" class="st190" width="17.3" height="0.4"/>
					<rect x="46.1" y="53.6" class="st191" width="17.3" height="0.4"/>
					<rect x="46.1" y="53.2" class="st192" width="17.3" height="0.4"/>
					<rect x="46.1" y="52.9" class="st193" width="17.3" height="0.4"/>
					<rect x="46.1" y="52.5" class="st194" width="17.3" height="0.4"/>
					<rect x="46.1" y="52.1" class="st195" width="17.3" height="0.4"/>
					<rect x="46.1" y="51.8" class="st196" width="17.3" height="0.4"/>
					<rect x="46.1" y="51.4" class="st197" width="17.3" height="0.4"/>
					<rect x="46.1" y="51.2" class="st198" width="17.3" height="0.3"/>
				</g>
			</g>
		</g>
	</g>
</g>
<g>
	<g>
		<linearGradient id="SVGID_14_" gradientUnits="userSpaceOnUse" x1="251.6592" y1="159.5625" x2="270.6592" y2="218.5625">
			<stop  offset="0" style="stop-color:#0F39C3"/>
			<stop  offset="1" style="stop-color:#FA96D3"/>
		</linearGradient>
		<path class="st199" d="M289.5,200.3L289.5,200.3L289.5,200.3c0-1.6-0.6-3.1-1.8-4.3l-16-16l17.3-17.3c1.1-1.1,0.3-3-1.3-3h-36.4
			l0,0l0,0l0,0l0,0l0,0v0v0l-16,16c-1.2,1.2-1.8,2.8-1.8,4.3c0,1.6,0.6,3.1,1.8,4.3l16,16v0l0,0h0l-17.3,17.3c-1.1,1.1-0.3,3,1.3,3
			h36.4l0,0v0l0,0l0,0l0,0v0l16-16c0.3-0.3,0.6-0.6,0.8-1C289.2,202.7,289.5,201.5,289.5,200.3L289.5,200.3
			C289.5,200.3,289.5,200.3,289.5,200.3L289.5,200.3z"/>
	</g>
	
		<linearGradient id="SVGID_15_" gradientUnits="userSpaceOnUse" x1="227.1121" y1="219.1904" x2="227.1121" y2="195.5237" gradientTransform="matrix(1 -8.533533e-03 8.533533e-03 1 8.7293 -5.296)">
		<stop  offset="0" style="stop-color:#FB6874"/>
		<stop  offset="1" style="stop-color:#F56FAE"/>
	</linearGradient>
	<circle class="st200" cx="237.6" cy="200.1" r="11.8"/>
	<g>
		<g>
			<g>
				<path class="st49" d="M269.6,183.6v19.6c0,1.5,1.2,2.8,2.8,2.8h13.7c1.5,0,2.8-1.2,2.8-2.8v-19.6H269.6z"/>
				<g>
					<linearGradient id="SVGID_16_" gradientUnits="userSpaceOnUse" x1="269.0875" y1="184.5755" x2="289.42" y2="204.5639">
						<stop  offset="0" style="stop-color:#F2F2F2"/>
						<stop  offset="1" style="stop-color:#B3B3B3"/>
					</linearGradient>
					<path class="st201" d="M270,184.5v18.9c0,1.1,0.9,2.1,2.1,2.1h14.4c1.1,0,2.1-0.9,2.1-2.1v-18.9h0.9v18.9
						c0,1.6-1.3,2.9-2.9,2.9h-14.4c-1.6,0-2.9-1.3-2.9-2.9v-18.9"/>
				</g>
				<linearGradient id="SVGID_17_" gradientUnits="userSpaceOnUse" x1="271.1635" y1="178.8479" x2="289.3585" y2="178.8479">
					<stop  offset="0" style="stop-color:#30A2E3"/>
					<stop  offset="1" style="stop-color:#2FDDD1"/>
				</linearGradient>
				<path class="st202" d="M287.3,173.2h-14c-1.2,0-2.1,0.9-2.1,2.1v9.2h18.2v-9.2C289.4,174.1,288.4,173.2,287.3,173.2z"/>
				<g>
					<path class="st49" d="M281.6,177.1c-0.3-0.2-0.6-0.4-0.9-0.5v1.6c1.1,0.4,1.5,0.9,1.5,1.7v0c0,0.8-0.6,1.4-1.5,1.5v0.8H280
						v-0.8c-0.6-0.1-1.2-0.3-1.7-0.8l0.5-0.7c0.4,0.3,0.7,0.6,1.2,0.6V179c-1-0.4-1.5-0.8-1.5-1.7v0c0-0.8,0.6-1.4,1.5-1.5v-0.5h0.6
						v0.5c0.5,0.1,1,0.3,1.4,0.6L281.6,177.1z M280,178v-1.4c-0.4,0.1-0.6,0.3-0.6,0.7v0C279.5,177.5,279.6,177.7,280,178z
						 M280.7,179.2v1.5c0.4-0.1,0.6-0.3,0.6-0.7v0C281.3,179.6,281.1,179.4,280.7,179.2z"/>
				</g>
				<g>
					<rect x="274.3" y="187.9" class="st203" width="11.8" height="0.8"/>
					<rect x="274.3" y="190.2" class="st203" width="11.8" height="0.8"/>
					<polyline class="st203" points="284,193.3 274.3,193.3 274.3,192.5 286.2,192.5 286.2,193.3 284,193.3 					"/>
					<rect x="274.3" y="194.9" class="st203" width="11.8" height="0.8"/>
				</g>
				<linearGradient id="SVGID_18_" gradientUnits="userSpaceOnUse" x1="274.3676" y1="199.9615" x2="286.1544" y2="199.9615">
					<stop  offset="1.241987e-03" style="stop-color:#FB993C"/>
					<stop  offset="0.9988" style="stop-color:#FFC58E"/>
				</linearGradient>
				<path class="st204" d="M285.6,202.3h-10.7c-0.3,0-0.5-0.2-0.5-0.5v-3.7c0-0.3,0.2-0.5,0.5-0.5h10.7c0.3,0,0.5,0.2,0.5,0.5v3.7
					C286.2,202.1,285.9,202.3,285.6,202.3z"/>
			</g>
			<g>
				<path class="st49" d="M234.2,183.6v19.6c0,1.5,1.2,2.8,2.8,2.8h14.7c1.5,0,2.8-1.2,2.8-2.8v-19.6H234.2z"/>
				<g>
					<linearGradient id="SVGID_19_" gradientUnits="userSpaceOnUse" x1="233.9206" y1="184.3256" x2="254.7616" y2="204.8139">
						<stop  offset="0" style="stop-color:#F2F2F2"/>
						<stop  offset="1" style="stop-color:#B3B3B3"/>
					</linearGradient>
					<path class="st205" d="M234.6,184.5v18.9c0,1.1,0.9,2.1,2.1,2.1H252c1.1,0,2.1-0.9,2.1-2.1v-18.9h0.9v18.9
						c0,1.6-1.3,2.9-2.9,2.9h-15.4c-1.6,0-2.9-1.3-2.9-2.9v-18.9"/>
				</g>
				<linearGradient id="SVGID_20_" gradientUnits="userSpaceOnUse" x1="233.7509" y1="178.8479" x2="251.9458" y2="178.8479">
					<stop  offset="0" style="stop-color:#30A2E3"/>
					<stop  offset="1" style="stop-color:#2FDDD1"/>
				</linearGradient>
				<path class="st206" d="M249.8,173.2h-14c-1.2,0-2.1,0.9-2.1,2.1v9.2h18.2v-9.2C251.9,174.1,251,173.2,249.8,173.2z"/>
				<g>
					<path class="st49" d="M244.2,177.1c-0.3-0.2-0.6-0.4-0.9-0.5v1.6c1.1,0.4,1.5,0.9,1.5,1.7v0c0,0.8-0.6,1.4-1.5,1.5v0.8h-0.6
						v-0.8c-0.6-0.1-1.2-0.3-1.7-0.8l0.5-0.7c0.4,0.3,0.7,0.6,1.2,0.6V179c-1-0.4-1.5-0.8-1.5-1.7v0c0-0.8,0.6-1.4,1.5-1.5v-0.5h0.6
						v0.5c0.5,0.1,1,0.3,1.4,0.6L244.2,177.1z M242.6,178v-1.4c-0.4,0.1-0.6,0.3-0.6,0.7v0C242.1,177.5,242.2,177.7,242.6,178z
						 M243.2,179.2v1.5c0.4-0.1,0.6-0.3,0.6-0.7v0C243.9,179.6,243.7,179.4,243.2,179.2z"/>
				</g>
				<g>
					<rect x="236.9" y="187.9" class="st203" width="11.8" height="0.8"/>
					<rect x="236.9" y="190.2" class="st203" width="11.8" height="0.8"/>
					<polyline class="st203" points="246.6,193.3 236.9,193.3 236.9,192.5 248.8,192.5 248.8,193.3 246.6,193.3 					"/>
					<rect x="236.9" y="194.9" class="st203" width="11.8" height="0.8"/>
				</g>
				<linearGradient id="SVGID_21_" gradientUnits="userSpaceOnUse" x1="236.955" y1="199.9615" x2="248.7417" y2="199.9615">
					<stop  offset="1.241987e-03" style="stop-color:#FB993C"/>
					<stop  offset="0.9988" style="stop-color:#FFC58E"/>
				</linearGradient>
				<path class="st207" d="M248.2,202.3h-10.7c-0.3,0-0.5-0.2-0.5-0.5v-3.7c0-0.3,0.2-0.5,0.5-0.5h10.7c0.3,0,0.5,0.2,0.5,0.5v3.7
					C248.7,202.1,248.5,202.3,248.2,202.3z"/>
			</g>
		</g>
		<g>
			<path class="st49" d="M251.4,183.4v23c0,1.8,1.5,3.3,3.3,3.3h13.8c1.8,0,3.3-1.5,3.3-3.3v-23H251.4z"/>
			<g>
				<linearGradient id="SVGID_22_" gradientUnits="userSpaceOnUse" x1="250.218" y1="185.1226" x2="272.8743" y2="207.3956">
					<stop  offset="0" style="stop-color:#F2F2F2"/>
					<stop  offset="1" style="stop-color:#B3B3B3"/>
				</linearGradient>
				<path class="st208" d="M251.9,184.4v22.2c0,1.3,1.1,2.4,2.4,2.4h14.5c1.3,0,2.4-1.1,2.4-2.4v-22.2h1v22.2c0,1.9-1.5,3.4-3.4,3.4
					h-14.5c-1.9,0-3.4-1.5-3.4-3.4v-22.2"/>
			</g>
			<linearGradient id="SVGID_23_" gradientUnits="userSpaceOnUse" x1="250.8836" y1="177.2314" x2="272.2257" y2="177.2314">
				<stop  offset="0" style="stop-color:#30A2E3"/>
				<stop  offset="1" style="stop-color:#2FDDD1"/>
			</linearGradient>
			<path class="st209" d="M269.8,170h-16.4c-1.4,0-2.5,1.1-2.5,2.5v11.9h21.3v-11.9C272.2,171.1,271.1,170,269.8,170z"/>
			<g>
				<path class="st49" d="M263.1,175.7c-0.3-0.3-0.7-0.5-1.1-0.6v1.9c1.3,0.5,1.8,1.1,1.8,2v0c0,1-0.7,1.7-1.8,1.8v1h-0.8v-1
					c-0.7-0.1-1.4-0.4-2-0.9l0.6-0.8c0.4,0.4,0.9,0.7,1.4,0.8v-2c-1.2-0.5-1.7-1-1.7-1.9v0c0-1,0.7-1.6,1.7-1.8v-0.6h0.8v0.6
					c0.6,0.1,1.2,0.3,1.6,0.7L263.1,175.7z M261.3,176.8v-1.6c-0.5,0.1-0.7,0.4-0.7,0.8v0C260.6,176.3,260.8,176.5,261.3,176.8z
					 M262,178.2v1.7c0.5-0.1,0.7-0.4,0.7-0.8v0C262.7,178.7,262.6,178.5,262,178.2z"/>
			</g>
			<g>
				<rect x="254.6" y="188.4" class="st203" width="13.9" height="0.9"/>
				<rect x="254.6" y="191.1" class="st203" width="13.9" height="0.9"/>
				<polyline class="st203" points="266,194.8 254.6,194.8 254.6,193.9 268.5,193.9 268.5,194.8 266,194.8 				"/>
				<rect x="254.6" y="196.6" class="st203" width="13.9" height="0.9"/>
			</g>
			<linearGradient id="SVGID_24_" gradientUnits="userSpaceOnUse" x1="254.642" y1="202.5835" x2="268.4674" y2="202.5835">
				<stop  offset="1.241987e-03" style="stop-color:#FB993C"/>
				<stop  offset="0.9988" style="stop-color:#FFC58E"/>
			</linearGradient>
			<path class="st210" d="M267.8,205.4h-12.6c-0.4,0-0.6-0.3-0.6-0.6v-4.3c0-0.4,0.3-0.6,0.6-0.6h12.6c0.4,0,0.6,0.3,0.6,0.6v4.3
				C268.5,205.1,268.2,205.4,267.8,205.4z"/>
		</g>
	</g>
</g>
</svg>
