<svg enable-background="new 0 0 75 83.8" viewBox="0 0 75 83.8" xmlns="http://www.w3.org/2000/svg" xmlns:xlink="http://www.w3.org/1999/xlink"><linearGradient id="a" gradientUnits="userSpaceOnUse" x1="251.6592" x2="270.6592" y1="159.5625" y2="218.5625"><stop offset="0" stop-color="#0f39c3"/><stop offset="1" stop-color="#fa96d3"/></linearGradient><linearGradient id="b" gradientTransform="matrix(1 -.00853353 .00853353 1 8.7293 -5.296)" gradientUnits="userSpaceOnUse" x1="227.1121" x2="227.1121" y1="219.1904" y2="195.5237"><stop offset="0" stop-color="#fb6874"/><stop offset="1" stop-color="#f56fae"/></linearGradient><linearGradient id="c"><stop offset="0" stop-color="#f2f2f2"/><stop offset="1" stop-color="#b3b3b3"/></linearGradient><linearGradient id="d" gradientUnits="userSpaceOnUse" x1="269.0875" x2="289.42" xlink:href="#c" y1="184.5755" y2="204.5639"/><linearGradient id="e"><stop offset="0" stop-color="#30a2e3"/><stop offset="1" stop-color="#2fddd1"/></linearGradient><linearGradient id="f" gradientUnits="userSpaceOnUse" x1="271.1635" x2="289.3585" xlink:href="#e" y1="178.8479" y2="178.8479"/><linearGradient id="g"><stop offset=".001241987" stop-color="#fb993c"/><stop offset=".9988" stop-color="#ffc58e"/></linearGradient><linearGradient id="h" gradientUnits="userSpaceOnUse" x1="274.3676" x2="286.1544" xlink:href="#g" y1="199.9615" y2="199.9615"/><linearGradient id="i" gradientUnits="userSpaceOnUse" x1="233.9206" x2="254.7616" xlink:href="#c" y1="184.3256" y2="204.8139"/><linearGradient id="j" gradientUnits="userSpaceOnUse" x1="233.7509" x2="251.9458" xlink:href="#e" y1="178.8479" y2="178.8479"/><linearGradient id="k" gradientUnits="userSpaceOnUse" x1="236.955" x2="248.7417" xlink:href="#g" y1="199.9615" y2="199.9615"/><linearGradient id="l" gradientUnits="userSpaceOnUse" x1="250.218" x2="272.8743" xlink:href="#c" y1="185.1226" y2="207.3956"/><linearGradient id="m" gradientUnits="userSpaceOnUse" x1="250.8836" x2="272.2257" xlink:href="#e" y1="177.2314" y2="177.2314"/><linearGradient id="n" gradientUnits="userSpaceOnUse" x1="254.642" x2="268.4674" xlink:href="#g" y1="202.5835" y2="202.5835"/><linearGradient id="o" gradientUnits="userSpaceOnUse" x1="29.1442" x2="48.1442" y1="11.5188" y2="70.5188"><stop offset="0" stop-color="#6bf9eb"/><stop offset=".5162" stop-color="#30a2e3"/><stop offset="1" stop-color="#0e48b5"/></linearGradient><linearGradient id="p" gradientTransform="matrix(1 -.00853353 .00853353 1 8.7293 -5.296)" gradientUnits="userSpaceOnUse" x1="46.425" x2="46.425" xlink:href="#g" y1="72.5781" y2="48.9114"/><linearGradient id="q"><stop offset="0" stop-color="#8f31c1"/><stop offset="1" stop-color="#f56fae"/></linearGradient><linearGradient id="r" gradientUnits="userSpaceOnUse" x1="8.416" x2="19.316" xlink:href="#q" y1="43.4046" y2="43.4046"/><linearGradient id="s" gradientUnits="userSpaceOnUse" x1="6.7258" x2="21.0062" xlink:href="#q" y1="46.1546" y2="46.1546"/><linearGradient id="t" gradientUnits="userSpaceOnUse" x1="8.416" x2="19.316" xlink:href="#q" y1="48.9046" y2="48.9046"/><linearGradient id="u"><stop offset="0" stop-color="#b3b3b3"/><stop offset="1" stop-color="#f2f2f2"/></linearGradient><linearGradient id="v" gradientUnits="userSpaceOnUse" x1="13.866" x2="13.866" xlink:href="#u" y1="56.3478" y2="26.5637"/><linearGradient id="w" gradientUnits="userSpaceOnUse" x1="32.3262" x2="43.2262" xlink:href="#q" y1="43.4046" y2="43.4046"/><linearGradient id="x" gradientUnits="userSpaceOnUse" x1="30.636" x2="44.9164" xlink:href="#q" y1="46.1546" y2="46.1546"/><linearGradient id="y" gradientUnits="userSpaceOnUse" x1="32.3262" x2="43.2262" xlink:href="#q" y1="48.9046" y2="48.9046"/><linearGradient id="z" gradientUnits="userSpaceOnUse" x1="37.7762" x2="37.7762" xlink:href="#u" y1="56.3478" y2="26.5637"/><linearGradient id="A" gradientUnits="userSpaceOnUse" x1="56.2364" x2="67.1365" xlink:href="#q" y1="43.4046" y2="43.4046"/><linearGradient id="B" gradientUnits="userSpaceOnUse" x1="54.5462" x2="68.8267" xlink:href="#q" y1="46.1546" y2="46.1546"/><linearGradient id="C" gradientUnits="userSpaceOnUse" x1="56.2364" x2="67.1365" xlink:href="#q" y1="48.9046" y2="48.9046"/><linearGradient id="D" gradientUnits="userSpaceOnUse" x1="61.6865" x2="61.6865" xlink:href="#u" y1="56.3478" y2="26.5637"/><path d="m289.5 200.3c0-1.6-.6-3.1-1.8-4.3l-16-16 17.3-17.3c1.1-1.1.3-3-1.3-3h-36.4l-16 16c-1.2 1.2-1.8 2.8-1.8 4.3 0 1.6.6 3.1 1.8 4.3l16 16-17.3 17.3c-1.1 1.1-.3 3 1.3 3h36.4l16-16c.3-.3.6-.6.8-1 .7-.9 1-2.1 1-3.3z" fill="url(#a)"/><circle cx="237.6" cy="200.1" fill="url(#b)" r="11.8"/><path d="m269.6 183.6v19.6c0 1.5 1.2 2.8 2.8 2.8h13.7c1.5 0 2.8-1.2 2.8-2.8v-19.6z" fill="#fff"/><path d="m270 184.5v18.9c0 1.1.9 2.1 2.1 2.1h14.4c1.1 0 2.1-.9 2.1-2.1v-18.9h.9v18.9c0 1.6-1.3 2.9-2.9 2.9h-14.4c-1.6 0-2.9-1.3-2.9-2.9v-18.9" fill="url(#d)"/><path d="m287.3 173.2h-14c-1.2 0-2.1.9-2.1 2.1v9.2h18.2v-9.2c0-1.2-1-2.1-2.1-2.1z" fill="url(#f)"/><path d="m281.6 177.1c-.3-.2-.6-.4-.9-.5v1.6c1.1.4 1.5.9 1.5 1.7 0 .8-.6 1.4-1.5 1.5v.8h-.7v-.8c-.6-.1-1.2-.3-1.7-.8l.5-.7c.4.3.7.6 1.2.6v-1.5c-1-.4-1.5-.8-1.5-1.7 0-.8.6-1.4 1.5-1.5v-.5h.6v.5c.5.1 1 .3 1.4.6zm-1.6.9v-1.4c-.4.1-.6.3-.6.7.1.2.2.4.6.7zm.7 1.2v1.5c.4-.1.6-.3.6-.7 0-.4-.2-.6-.6-.8z" fill="#fff"/><g fill="#ccc"><path d="m274.3 187.9h11.8v.8h-11.8z"/><path d="m274.3 190.2h11.8v.8h-11.8z"/><path d="m284 193.3h-9.7v-.8h11.9v.8z"/><path d="m274.3 194.9h11.8v.8h-11.8z"/></g><path d="m285.6 202.3h-10.7c-.3 0-.5-.2-.5-.5v-3.7c0-.3.2-.5.5-.5h10.7c.3 0 .5.2.5.5v3.7c.1.3-.2.5-.5.5z" fill="url(#h)"/><path d="m234.2 183.6v19.6c0 1.5 1.2 2.8 2.8 2.8h14.7c1.5 0 2.8-1.2 2.8-2.8v-19.6z" fill="#fff"/><path d="m234.6 184.5v18.9c0 1.1.9 2.1 2.1 2.1h15.3c1.1 0 2.1-.9 2.1-2.1v-18.9h.9v18.9c0 1.6-1.3 2.9-2.9 2.9h-15.4c-1.6 0-2.9-1.3-2.9-2.9v-18.9" fill="url(#i)"/><path d="m249.8 173.2h-14c-1.2 0-2.1.9-2.1 2.1v9.2h18.2v-9.2c0-1.2-.9-2.1-2.1-2.1z" fill="url(#j)"/><path d="m244.2 177.1c-.3-.2-.6-.4-.9-.5v1.6c1.1.4 1.5.9 1.5 1.7 0 .8-.6 1.4-1.5 1.5v.8h-.6v-.8c-.6-.1-1.2-.3-1.7-.8l.5-.7c.4.3.7.6 1.2.6v-1.5c-1-.4-1.5-.8-1.5-1.7 0-.8.6-1.4 1.5-1.5v-.5h.6v.5c.5.1 1 .3 1.4.6zm-1.6.9v-1.4c-.4.1-.6.3-.6.7.1.2.2.4.6.7zm.6 1.2v1.5c.4-.1.6-.3.6-.7.1-.4-.1-.6-.6-.8z" fill="#fff"/><path d="m236.9 187.9h11.8v.8h-11.8z" fill="#ccc"/><path d="m236.9 190.2h11.8v.8h-11.8z" fill="#ccc"/><path d="m246.6 193.3h-9.7v-.8h11.9v.8z" fill="#ccc"/><path d="m236.9 194.9h11.8v.8h-11.8z" fill="#ccc"/><path d="m248.2 202.3h-10.7c-.3 0-.5-.2-.5-.5v-3.7c0-.3.2-.5.5-.5h10.7c.3 0 .5.2.5.5v3.7c0 .3-.2.5-.5.5z" fill="url(#k)"/><path d="m251.4 183.4v23c0 1.8 1.5 3.3 3.3 3.3h13.8c1.8 0 3.3-1.5 3.3-3.3v-23z" fill="#fff"/><path d="m251.9 184.4v22.2c0 1.3 1.1 2.4 2.4 2.4h14.5c1.3 0 2.4-1.1 2.4-2.4v-22.2h1v22.2c0 1.9-1.5 3.4-3.4 3.4h-14.5c-1.9 0-3.4-1.5-3.4-3.4v-22.2" fill="url(#l)"/><path d="m269.8 170h-16.4c-1.4 0-2.5 1.1-2.5 2.5v11.9h21.3v-11.9c0-1.4-1.1-2.5-2.4-2.5z" fill="url(#m)"/><path d="m263.1 175.7c-.3-.3-.7-.5-1.1-.6v1.9c1.3.5 1.8 1.1 1.8 2 0 1-.7 1.7-1.8 1.8v1h-.8v-1c-.7-.1-1.4-.4-2-.9l.6-.8c.4.4.9.7 1.4.8v-2c-1.2-.5-1.7-1-1.7-1.9 0-1 .7-1.6 1.7-1.8v-.6h.8v.6c.6.1 1.2.3 1.6.7zm-1.8 1.1v-1.6c-.5.1-.7.4-.7.8 0 .3.2.5.7.8zm.7 1.4v1.7c.5-.1.7-.4.7-.8 0-.4-.1-.6-.7-.9z" fill="#fff"/><path d="m254.6 188.4h13.9v.9h-13.9z" fill="#ccc"/><path d="m254.6 191.1h13.9v.9h-13.9z" fill="#ccc"/><path d="m266 194.8h-11.4v-.9h13.9v.9z" fill="#ccc"/><path d="m254.6 196.6h13.9v.9h-13.9z" fill="#ccc"/><path d="m267.8 205.4h-12.6c-.4 0-.6-.3-.6-.6v-4.3c0-.4.3-.6.6-.6h12.6c.4 0 .6.3.6.6v4.3c.1.3-.2.6-.6.6z" fill="url(#n)"/><path d="m67 52.3c0-1.6-.6-3.1-1.8-4.3l-16-16 17.3-17.3c1.1-1.1.3-3-1.3-3h-36.4l-16 16c-1.2 1.1-1.8 2.7-1.8 4.3s.6 3.1 1.8 4.3l16 16-17.3 17.3c-1.1 1.1-.3 3 1.3 3h36.4l16-16c.3-.3.6-.6.8-1 .6-1 1-2.1 1-3.3z" fill="url(#o)"/><circle cx="55.7" cy="55.1" fill="url(#p)" r="11.8"/><path d="m6.1 27.3c-1.1 0-1.9.9-1.9 2.3v23.7c0 1.4.9 2.5 1.9 2.5h15.5c1.1 0 1.9-1.1 1.9-2.5v-23.8c0-1.4-.9-2.3-1.9-2.3h-15.5z" fill="#fff"/><path d="m8.4 42.9h10.9v.9h-10.9z" fill="url(#r)"/><path d="m6.7 45.7h14.3v.9h-14.3z" fill="url(#s)"/><path d="m8.4 48.4h10.9v.9h-10.9z" fill="url(#t)"/><path d="m20.7 56.3h-13.7c-1.9 0-3.4-1.5-3.4-3.4v-22.9c0-1.9 1.5-3.4 3.4-3.4h13.7c1.9 0 3.4 1.5 3.4 3.4v23c0 1.8-1.5 3.3-3.4 3.3zm-13.7-28.7c-1.3 0-2.4 1.1-2.4 2.4v23c0 1.3 1.1 2.4 2.4 2.4h13.7c1.3 0 2.4-1.1 2.4-2.4v-23c0-1.3-1.1-2.4-2.4-2.4z" fill="url(#v)"/><path d="m15.5 37h-2.8c-.1 0-.3-.1-.3-.2l-.4-3.8h-.9c-.2 0-.3-.1-.3-.3s.1-.3.3-.3h1.1c.1 0 .3.1.3.2l.1.9 4 .1c.1 0 .2 0 .2.1.1.1.1.2 0 .3l-1.1 2.7c0 .2-.1.3-.2.3zm-2.6-.6h2.4l.9-2.2-3.6-.1z" fill="#749cfc"/><circle cx="13.1" cy="37.8" fill="#749cfc" r=".6"/><circle cx="15.3" cy="37.8" fill="#749cfc" r=".6"/><path d="m30 27.3c-1.1 0-1.9.9-1.9 2.3v23.7c0 1.4.9 2.5 1.9 2.5h15.5c1.1 0 1.9-1.1 1.9-2.5v-23.8c0-1.4-.9-2.3-1.9-2.3h-15.5z" fill="#fff"/><path d="m32.3 42.9h10.9v.9h-10.9z" fill="url(#w)"/><path d="m30.6 45.7h14.3v.9h-14.3z" fill="url(#x)"/><path d="m32.3 48.4h10.9v.9h-10.9z" fill="url(#y)"/><path d="m44.6 56.3h-13.7c-1.9 0-3.4-1.5-3.4-3.4v-22.9c0-1.9 1.5-3.4 3.4-3.4h13.7c1.9 0 3.4 1.5 3.4 3.4v23c0 1.8-1.5 3.3-3.4 3.3zm-13.7-28.7c-1.3 0-2.4 1.1-2.4 2.4v23c0 1.3 1.1 2.4 2.4 2.4h13.7c1.3 0 2.4-1.1 2.4-2.4v-23c0-1.3-1.1-2.4-2.4-2.4z" fill="url(#z)"/><path d="m39.3 38c-.1 0-.1 0-.2-.1l-1.3-.9-1.4 1c-.1.1-.2.1-.3 0s-.1-.2-.1-.4l.5-1.6-1.3-1c-.1-.1-.1-.2-.1-.3s.1-.2.3-.2h1.6l.5-1.5c0-.1.1-.2.3-.2s.2.1.2.2l.5 1.5h1.6c.1 0 .2.1.3.2 0 .1 0 .2-.1.3l-1.3 1 .5 1.6c0 .1 0 .2-.1.3 0 .1-.1.1-.1.1zm-3.1-2.8.8.6c.1.1.1.2.1.3l-.3 1 .8-.6c.1-.1.2-.1.3 0l.8.6-.3-1c0-.1 0-.2.1-.3l.8-.6h-1c-.1 0-.2-.1-.3-.2l-.3-1-.3 1c0 .1-.1.2-.3.2z" fill="#cb99ff"/><path d="m53.9 27.3c-1.1 0-1.9.9-1.9 2.3v23.7c0 1.4.9 2.5 1.9 2.5h15.5c1.1 0 1.9-1.1 1.9-2.5v-23.8c0-1.4-.9-2.3-1.9-2.3h-15.5z" fill="#fff"/><path d="m56.2 42.9h10.9v.9h-10.9z" fill="url(#A)"/><path d="m54.5 45.7h14.3v.9h-14.3z" fill="url(#B)"/><path d="m56.2 48.4h10.9v.9h-10.9z" fill="url(#C)"/><path d="m68.5 56.3h-13.7c-1.9 0-3.4-1.5-3.4-3.4v-22.9c0-1.9 1.5-3.4 3.4-3.4h13.7c1.9 0 3.4 1.5 3.4 3.4v23c0 1.8-1.5 3.3-3.4 3.3zm-13.7-28.7c-1.3 0-2.4 1.1-2.4 2.4v23c0 1.3 1.1 2.4 2.4 2.4h13.7c1.3 0 2.4-1.1 2.4-2.4v-23c0-1.3-1.1-2.4-2.4-2.4z" fill="url(#D)"/><path d="m64.5 38.1h-5.6v-4.1h1.2l.4-1.1h2.3l.4 1.1h1.3zm-5.1-.6h4.5v-3h-1.1l-.4-1.1h-1.5l-.4 1.1h-1.1z" fill="#f56fae"/><path d="m61.7 36.9c-.6 0-1-.4-1-1s.4-1 1-1 1 .4 1 1-.5 1-1 1zm0-1.4c-.2 0-.4.2-.4.4s.2.4.4.4.4-.2.4-.4-.2-.4-.4-.4z" fill="#f56fae"/></svg>