<?xml version="1.0" encoding="utf-8"?>
<!-- Generator: Adobe Illustrator 21.1.0, SVG Export Plug-In . SVG Version: 6.00 Build 0)  -->
<svg version="1.1" id="Layer_1" xmlns="http://www.w3.org/2000/svg" xmlns:xlink="http://www.w3.org/1999/xlink" x="0px" y="0px"
	 viewBox="0 0 75 83.8" style="enable-background:new 0 0 75 83.8;" xml:space="preserve">
<style type="text/css">
	.st0{fill:url(#SVGID_1_);}
	.st1{fill:url(#SVGID_2_);}
	.st2{fill:url(#SVGID_3_);}
	.st3{fill:url(#SVGID_4_);}
	.st4{fill:url(#SVGID_5_);}
	.st5{fill:#FFFFFF;}
	.st6{fill:url(#SVGID_6_);}
	.st7{fill:url(#SVGID_7_);}
	.st8{fill:#F6F6F6;}
	.st9{fill:url(#SVGID_8_);}
	.st10{fill:url(#SVGID_9_);}
	.st11{fill:url(#SVGID_10_);}
	.st12{fill:url(#SVGID_11_);}
	.st13{fill:url(#SVGID_12_);}
	.st14{fill:url(#SVGID_13_);}
	.st15{fill:url(#SVGID_14_);}
</style>
<g>
	<g>
		<g>
			
				<linearGradient id="SVGID_1_" gradientUnits="userSpaceOnUse" x1="30.9158" y1="10.681" x2="49.9158" y2="69.6809" gradientTransform="matrix(1 1.776346e-03 -1.776346e-03 1 -1.7696 0.7609)">
				<stop  offset="0" style="stop-color:#F56FAE"/>
				<stop  offset="1" style="stop-color:#FB6874"/>
			</linearGradient>
			<path class="st0" d="M66.9,52.3L66.9,52.3L66.9,52.3c0-1.6-0.6-3.1-1.8-4.3L49.1,32l17.3-17.3c1.1-1.1,0.3-3-1.3-3l-36.4-0.1l0,0
				l0,0l0,0l0,0l0,0v0l0,0l-16.1,16c-1.2,1.2-1.8,2.7-1.8,4.3c0,1.6,0.6,3.1,1.8,4.3l16,16.1l0,0l0,0h0L11.4,69.5
				c-1.1,1.1-0.3,3,1.3,3l36.4,0.1l0,0l0,0l0,0l0,0l0,0v0l16-16c0.3-0.3,0.6-0.6,0.8-1C66.5,54.7,66.9,53.5,66.9,52.3L66.9,52.3
				C66.9,52.3,66.9,52.3,66.9,52.3L66.9,52.3z"/>
		</g>
	</g>
	
		<linearGradient id="SVGID_2_" gradientUnits="userSpaceOnUse" x1="49.2447" y1="70.1358" x2="49.2447" y2="46.4691" gradientTransform="matrix(1 -8.533533e-03 8.533533e-03 1 8.7293 -5.296)">
		<stop  offset="1.241987e-03" style="stop-color:#FB993C"/>
		<stop  offset="0.9988" style="stop-color:#FFC58E"/>
	</linearGradient>
	<circle class="st1" cx="58.5" cy="52.6" r="11.8"/>
	<g>
		<g>
			<linearGradient id="SVGID_3_" gradientUnits="userSpaceOnUse" x1="22.3395" y1="51.8802" x2="53.2374" y2="51.8802">
				<stop  offset="0" style="stop-color:#FB6874"/>
				<stop  offset="1" style="stop-color:#F56FAE"/>
			</linearGradient>
			<rect x="22.3" y="51.4" class="st2" width="30.9" height="0.9"/>
			<linearGradient id="SVGID_4_" gradientUnits="userSpaceOnUse" x1="24.3395" y1="54.6302" x2="51.2374" y2="54.6302">
				<stop  offset="0" style="stop-color:#FB6874"/>
				<stop  offset="1" style="stop-color:#F56FAE"/>
			</linearGradient>
			<rect x="24.3" y="54.2" class="st3" width="26.9" height="0.9"/>
			<linearGradient id="SVGID_5_" gradientUnits="userSpaceOnUse" x1="30.3395" y1="57.3802" x2="45.2374" y2="57.3802">
				<stop  offset="0" style="stop-color:#FB6874"/>
				<stop  offset="1" style="stop-color:#F56FAE"/>
			</linearGradient>
			<rect x="30.3" y="56.9" class="st4" width="14.9" height="0.9"/>
		</g>
		<g>
			<path class="st5" d="M19.5,63.3H56c1.6,0,2.9-1.3,2.9-2.9V41.3c-3.7,0-7.2,3.8-10.6,3.8c-3.8,0-5.3-3.8-10.6-3.8
				c-5.7,0-7.4,3.8-10.6,3.8c-4,0-7.5-3.8-10.6-3.8v19.1C16.6,62,17.9,63.3,19.5,63.3z"/>
			<g>
				<path d="M37.8,41.3c5.3,0,6.8,3.8,10.6,3.8c3.3,0,6.9-3.8,10.6-3.8V23.9c0-1.6-1.3-2.9-2.9-2.9H19.5c-1.6,0-2.9,1.3-2.9,2.9
					v17.5c3,0,6.6,3.8,10.6,3.8C30.4,45.2,32,41.3,37.8,41.3z"/>
				<linearGradient id="SVGID_6_" gradientUnits="userSpaceOnUse" x1="16.605" y1="33.0561" x2="58.9379" y2="33.0561">
					<stop  offset="0" style="stop-color:#4B8CE7"/>
					<stop  offset="0.9483" style="stop-color:#8859F1"/>
				</linearGradient>
				<path class="st6" d="M37.8,41.3c5.3,0,6.8,3.8,10.6,3.8c3.3,0,6.9-3.8,10.6-3.8V23.9c0-1.6-1.3-2.9-2.9-2.9H19.5
					c-1.6,0-2.9,1.3-2.9,2.9v17.5c3,0,6.6,3.8,10.6,3.8C30.4,45.2,32,41.3,37.8,41.3z"/>
			</g>
		</g>
		<g>
			<linearGradient id="SVGID_7_" gradientUnits="userSpaceOnUse" x1="27.4399" y1="29.845" x2="48.1031" y2="29.845">
				<stop  offset="1.241987e-03" style="stop-color:#FB993C"/>
				<stop  offset="0.9988" style="stop-color:#FFC58E"/>
			</linearGradient>
			<polygon class="st7" points="27.4,28.6 48.1,28.6 48.1,31.1 27.4,31.1 			"/>
			<g>
				
					<rect x="24.3" y="36.5" transform="matrix(-1 -2.057689e-07 2.057689e-07 -1 75.5429 73.9271)" class="st5" width="26.9" height="0.9"/>
				
					<rect x="30.3" y="33.8" transform="matrix(-1 -2.057688e-07 2.057688e-07 -1 75.5429 68.4271)" class="st5" width="14.9" height="0.9"/>
			</g>
		</g>
		<g>
			<g>
				<g>
					<g>
						<path class="st8" d="M22.7,49.2c-0.8,0-1.5,0.8-1.5,1.9v6.1c0,1,0.7,1.9,1.5,1.9h12.7c0.8,0,1.5-0.8,1.5-1.9v-6.1
							c0-1-0.7-1.9-1.5-1.9H22.7z"/>
					</g>
				</g>
				<g>
					<linearGradient id="SVGID_8_" gradientUnits="userSpaceOnUse" x1="51.7864" y1="52.1577" x2="23.534" y2="52.1577">
						<stop  offset="5.174279e-02" style="stop-color:#8859F1"/>
						<stop  offset="1" style="stop-color:#4B8CE7"/>
					</linearGradient>
					<rect x="24.8" y="51.8" class="st9" width="8.5" height="0.7"/>
					<linearGradient id="SVGID_9_" gradientUnits="userSpaceOnUse" x1="51.7864" y1="54.261" x2="23.534" y2="54.261">
						<stop  offset="5.174279e-02" style="stop-color:#8859F1"/>
						<stop  offset="1" style="stop-color:#4B8CE7"/>
					</linearGradient>
					<rect x="23.5" y="53.9" class="st10" width="11.1" height="0.7"/>
					<linearGradient id="SVGID_10_" gradientUnits="userSpaceOnUse" x1="51.7864" y1="56.3643" x2="23.534" y2="56.3643">
						<stop  offset="5.174279e-02" style="stop-color:#8859F1"/>
						<stop  offset="1" style="stop-color:#4B8CE7"/>
					</linearGradient>
					<rect x="24.8" y="56" class="st11" width="8.5" height="0.7"/>
				</g>
				<g>
					<g>
						<path class="st8" d="M40.2,49.2c-0.8,0-1.5,0.8-1.5,1.9v6.1c0,1,0.7,1.9,1.5,1.9h12.7c0.8,0,1.5-0.8,1.5-1.9v-6.1
							c0-1-0.7-1.9-1.5-1.9H40.2z"/>
					</g>
				</g>
				<g>
					<linearGradient id="SVGID_11_" gradientUnits="userSpaceOnUse" x1="51.7864" y1="52.1577" x2="23.534" y2="52.1577">
						<stop  offset="5.174279e-02" style="stop-color:#8859F1"/>
						<stop  offset="1" style="stop-color:#4B8CE7"/>
					</linearGradient>
					<rect x="42.3" y="51.8" class="st12" width="8.5" height="0.7"/>
					<linearGradient id="SVGID_12_" gradientUnits="userSpaceOnUse" x1="51.7864" y1="54.261" x2="23.534" y2="54.261">
						<stop  offset="5.174279e-02" style="stop-color:#8859F1"/>
						<stop  offset="1" style="stop-color:#4B8CE7"/>
					</linearGradient>
					<rect x="41" y="53.9" class="st13" width="11.1" height="0.7"/>
					<linearGradient id="SVGID_13_" gradientUnits="userSpaceOnUse" x1="51.7864" y1="56.3643" x2="23.534" y2="56.3643">
						<stop  offset="5.174279e-02" style="stop-color:#8859F1"/>
						<stop  offset="1" style="stop-color:#4B8CE7"/>
					</linearGradient>
					<rect x="42.3" y="56" class="st14" width="8.5" height="0.7"/>
				</g>
			</g>
		</g>
		<linearGradient id="SVGID_14_" gradientUnits="userSpaceOnUse" x1="37.7884" y1="63.2307" x2="37.7884" y2="20.4807">
			<stop  offset="0" style="stop-color:#B3B3B3"/>
			<stop  offset="1" style="stop-color:#F2F2F2"/>
		</linearGradient>
		<path class="st15" d="M56,20.5H38h-1.1H19.5c-1.9,0-3.4,1.5-3.4,3.4v36.5c0,1.9,1.5,3.4,3.4,3.4h17.4H38h18c1.9,0,3.4-1.5,3.4-3.4
			V23.9C59.5,22,57.9,20.5,56,20.5z M58.5,60.4c0,1.3-1.1,2.4-2.4,2.4H38h-1.1H19.5c-1.3,0-2.4-1.1-2.4-2.4V23.9
			c0-1.3,1.1-2.4,2.4-2.4h17.4H38h18c1.3,0,2.4,1.1,2.4,2.4V60.4z"/>
	</g>
</g>
</svg>
