<svg enable-background="new 0 0 75 83.8" viewBox="0 0 75 83.8" xmlns="http://www.w3.org/2000/svg" xmlns:xlink="http://www.w3.org/1999/xlink"><linearGradient id="a" gradientUnits="userSpaceOnUse" x1="251.6592" x2="270.6592" y1="159.5625" y2="218.5625"><stop offset="0" stop-color="#0f39c3"/><stop offset="1" stop-color="#fa96d3"/></linearGradient><linearGradient id="b"><stop offset="0" stop-color="#fb6874"/><stop offset="1" stop-color="#f56fae"/></linearGradient><linearGradient id="c" gradientTransform="matrix(1 -.00853353 .00853353 1 8.7293 -5.296)" gradientUnits="userSpaceOnUse" x1="227.1121" x2="227.1121" xlink:href="#b" y1="219.1904" y2="195.5237"/><linearGradient id="d"><stop offset="0" stop-color="#f2f2f2"/><stop offset="1" stop-color="#b3b3b3"/></linearGradient><linearGradient id="e" gradientUnits="userSpaceOnUse" x1="269.0875" x2="289.42" xlink:href="#d" y1="184.5755" y2="204.5639"/><linearGradient id="f"><stop offset="0" stop-color="#30a2e3"/><stop offset="1" stop-color="#2fddd1"/></linearGradient><linearGradient id="g" gradientUnits="userSpaceOnUse" x1="271.1635" x2="289.3585" xlink:href="#f" y1="178.8479" y2="178.8479"/><linearGradient id="h"><stop offset=".001241987" stop-color="#fb993c"/><stop offset=".9988" stop-color="#ffc58e"/></linearGradient><linearGradient id="i" gradientUnits="userSpaceOnUse" x1="274.3676" x2="286.1544" xlink:href="#h" y1="199.9615" y2="199.9615"/><linearGradient id="j" gradientUnits="userSpaceOnUse" x1="233.9206" x2="254.7616" xlink:href="#d" y1="184.3256" y2="204.8139"/><linearGradient id="k" gradientUnits="userSpaceOnUse" x1="233.7509" x2="251.9458" xlink:href="#f" y1="178.8479" y2="178.8479"/><linearGradient id="l" gradientUnits="userSpaceOnUse" x1="236.955" x2="248.7417" xlink:href="#h" y1="199.9615" y2="199.9615"/><linearGradient id="m" gradientUnits="userSpaceOnUse" x1="250.218" x2="272.8743" xlink:href="#d" y1="185.1226" y2="207.3956"/><linearGradient id="n" gradientUnits="userSpaceOnUse" x1="250.8836" x2="272.2257" xlink:href="#f" y1="177.2314" y2="177.2314"/><linearGradient id="o" gradientUnits="userSpaceOnUse" x1="254.642" x2="268.4674" xlink:href="#h" y1="202.5835" y2="202.5835"/><linearGradient id="p" gradientTransform="matrix(1 -.00853353 .00853353 1 8.7293 -5.296)" gradientUnits="userSpaceOnUse" x1="45.6365" x2="45.6365" xlink:href="#h" y1="49.6982" y2="26.0316"/><linearGradient id="q" gradientTransform="matrix(1 .00177635 -.00177635 1 -1.7696 .7609)" gradientUnits="userSpaceOnUse" x1="31.0123" x2="50.0122" y1="10.7034" y2="69.7033"><stop offset=".05174279" stop-color="#8859f1"/><stop offset=".504" stop-color="#30a2e3"/><stop offset="1" stop-color="#91d9f9"/></linearGradient><linearGradient id="r" gradientTransform="matrix(.00000108 -1 1 .00000022 476.3341 -1317.2472)" gradientUnits="userSpaceOnUse" x1="-1359.6356" x2="-1331.6139" xlink:href="#d" y1="-461.5989" y2="-434.0514"/><linearGradient id="s" gradientUnits="userSpaceOnUse" x1="14.2446" x2="26.0898" xlink:href="#b" y1="34.584" y2="34.584"/><linearGradient id="t"><stop offset="0" stop-color="#ffc58e"/><stop offset="1" stop-color="#fcac60"/></linearGradient><linearGradient id="u" gradientUnits="userSpaceOnUse" x1="20.1265" x2="20.1265" xlink:href="#t" y1="34.7152" y2="30.3335"/><linearGradient id="v"><stop offset="0" stop-color="#30a2e3"/><stop offset="1" stop-color="#0e48b5"/></linearGradient><linearGradient id="w" gradientUnits="userSpaceOnUse" x1="28.3997" x2="39.2997" xlink:href="#v" y1="23.0728" y2="23.0728"/><linearGradient id="x" gradientUnits="userSpaceOnUse" x1="28.3997" x2="42.6801" xlink:href="#v" y1="25.8228" y2="25.8228"/><linearGradient id="y" gradientUnits="userSpaceOnUse" x1="28.3997" x2="39.2997" xlink:href="#v" y1="28.5728" y2="28.5728"/><linearGradient id="z" gradientTransform="matrix(.00000108 -1 1 .00000022 476.3341 -1317.2472)" gradientUnits="userSpaceOnUse" x1="-1387.1555" x2="-1359.1338" xlink:href="#d" y1="-461.5989" y2="-434.0513"/><linearGradient id="A" gradientUnits="userSpaceOnUse" x1="20.1271" x2="20.1271" xlink:href="#t" y1="62.1547" y2="57.7959"/><linearGradient id="B" gradientUnits="userSpaceOnUse" x1="28.3997" x2="39.2997" xlink:href="#v" y1="50.5927" y2="50.5927"/><linearGradient id="C" gradientUnits="userSpaceOnUse" x1="28.3997" x2="42.6801" xlink:href="#v" y1="53.3427" y2="53.3427"/><linearGradient id="D" gradientUnits="userSpaceOnUse" x1="28.3997" x2="39.2997" xlink:href="#v" y1="56.0927" y2="56.0927"/><path d="m289.5 200.3c0-1.6-.6-3.1-1.8-4.3l-16-16 17.3-17.3c1.1-1.1.3-3-1.3-3h-36.4l-16 16c-1.2 1.2-1.8 2.8-1.8 4.3 0 1.6.6 3.1 1.8 4.3l16 16-17.3 17.3c-1.1 1.1-.3 3 1.3 3h36.4l16-16c.3-.3.6-.6.8-1 .7-.9 1-2.1 1-3.3z" fill="url(#a)"/><circle cx="237.6" cy="200.1" fill="url(#c)" r="11.8"/><path d="m269.6 183.6v19.6c0 1.5 1.2 2.8 2.8 2.8h13.7c1.5 0 2.8-1.2 2.8-2.8v-19.6z" fill="#fff"/><path d="m270 184.5v18.9c0 1.1.9 2.1 2.1 2.1h14.4c1.1 0 2.1-.9 2.1-2.1v-18.9h.9v18.9c0 1.6-1.3 2.9-2.9 2.9h-14.4c-1.6 0-2.9-1.3-2.9-2.9v-18.9" fill="url(#e)"/><path d="m287.3 173.2h-14c-1.2 0-2.1.9-2.1 2.1v9.2h18.2v-9.2c0-1.2-1-2.1-2.1-2.1z" fill="url(#g)"/><path d="m281.6 177.1c-.3-.2-.6-.4-.9-.5v1.6c1.1.4 1.5.9 1.5 1.7 0 .8-.6 1.4-1.5 1.5v.8h-.7v-.8c-.6-.1-1.2-.3-1.7-.8l.5-.7c.4.3.7.6 1.2.6v-1.5c-1-.4-1.5-.8-1.5-1.7 0-.8.6-1.4 1.5-1.5v-.5h.6v.5c.5.1 1 .3 1.4.6zm-1.6.9v-1.4c-.4.1-.6.3-.6.7.1.2.2.4.6.7zm.7 1.2v1.5c.4-.1.6-.3.6-.7 0-.4-.2-.6-.6-.8z" fill="#fff"/><g fill="#ccc"><path d="m274.3 187.9h11.8v.8h-11.8z"/><path d="m274.3 190.2h11.8v.8h-11.8z"/><path d="m284 193.3h-9.7v-.8h11.9v.8z"/><path d="m274.3 194.9h11.8v.8h-11.8z"/></g><path d="m285.6 202.3h-10.7c-.3 0-.5-.2-.5-.5v-3.7c0-.3.2-.5.5-.5h10.7c.3 0 .5.2.5.5v3.7c.1.3-.2.5-.5.5z" fill="url(#i)"/><path d="m234.2 183.6v19.6c0 1.5 1.2 2.8 2.8 2.8h14.7c1.5 0 2.8-1.2 2.8-2.8v-19.6z" fill="#fff"/><path d="m234.6 184.5v18.9c0 1.1.9 2.1 2.1 2.1h15.3c1.1 0 2.1-.9 2.1-2.1v-18.9h.9v18.9c0 1.6-1.3 2.9-2.9 2.9h-15.4c-1.6 0-2.9-1.3-2.9-2.9v-18.9" fill="url(#j)"/><path d="m249.8 173.2h-14c-1.2 0-2.1.9-2.1 2.1v9.2h18.2v-9.2c0-1.2-.9-2.1-2.1-2.1z" fill="url(#k)"/><path d="m244.2 177.1c-.3-.2-.6-.4-.9-.5v1.6c1.1.4 1.5.9 1.5 1.7 0 .8-.6 1.4-1.5 1.5v.8h-.6v-.8c-.6-.1-1.2-.3-1.7-.8l.5-.7c.4.3.7.6 1.2.6v-1.5c-1-.4-1.5-.8-1.5-1.7 0-.8.6-1.4 1.5-1.5v-.5h.6v.5c.5.1 1 .3 1.4.6zm-1.6.9v-1.4c-.4.1-.6.3-.6.7.1.2.2.4.6.7zm.6 1.2v1.5c.4-.1.6-.3.6-.7.1-.4-.1-.6-.6-.8z" fill="#fff"/><path d="m236.9 187.9h11.8v.8h-11.8z" fill="#ccc"/><path d="m236.9 190.2h11.8v.8h-11.8z" fill="#ccc"/><path d="m246.6 193.3h-9.7v-.8h11.9v.8z" fill="#ccc"/><path d="m236.9 194.9h11.8v.8h-11.8z" fill="#ccc"/><path d="m248.2 202.3h-10.7c-.3 0-.5-.2-.5-.5v-3.7c0-.3.2-.5.5-.5h10.7c.3 0 .5.2.5.5v3.7c0 .3-.2.5-.5.5z" fill="url(#l)"/><path d="m251.4 183.4v23c0 1.8 1.5 3.3 3.3 3.3h13.8c1.8 0 3.3-1.5 3.3-3.3v-23z" fill="#fff"/><path d="m251.9 184.4v22.2c0 1.3 1.1 2.4 2.4 2.4h14.5c1.3 0 2.4-1.1 2.4-2.4v-22.2h1v22.2c0 1.9-1.5 3.4-3.4 3.4h-14.5c-1.9 0-3.4-1.5-3.4-3.4v-22.2" fill="url(#m)"/><path d="m269.8 170h-16.4c-1.4 0-2.5 1.1-2.5 2.5v11.9h21.3v-11.9c0-1.4-1.1-2.5-2.4-2.5z" fill="url(#n)"/><path d="m263.1 175.7c-.3-.3-.7-.5-1.1-.6v1.9c1.3.5 1.8 1.1 1.8 2 0 1-.7 1.7-1.8 1.8v1h-.8v-1c-.7-.1-1.4-.4-2-.9l.6-.8c.4.4.9.7 1.4.8v-2c-1.2-.5-1.7-1-1.7-1.9 0-1 .7-1.6 1.7-1.8v-.6h.8v.6c.6.1 1.2.3 1.6.7zm-1.8 1.1v-1.6c-.5.1-.7.4-.7.8 0 .3.2.5.7.8zm.7 1.4v1.7c.5-.1.7-.4.7-.8 0-.4-.1-.6-.7-.9z" fill="#fff"/><path d="m254.6 188.4h13.9v.9h-13.9z" fill="#ccc"/><path d="m254.6 191.1h13.9v.9h-13.9z" fill="#ccc"/><path d="m266 194.8h-11.4v-.9h13.9v.9z" fill="#ccc"/><path d="m254.6 196.6h13.9v.9h-13.9z" fill="#ccc"/><path d="m267.8 205.4h-12.6c-.4 0-.6-.3-.6-.6v-4.3c0-.4.3-.6.6-.6h12.6c.4 0 .6.3.6.6v4.3c.1.3-.2.6-.6.6z" fill="url(#o)"/><circle cx="54.7" cy="32.2" fill="url(#p)" r="11.8"/><path d="m67 52.4c0-1.6-.6-3.1-1.8-4.3l-16-16.1 17.3-17.3c1.1-1.1.3-3-1.3-3l-36.4-.1-16.1 16c-1.2 1.2-1.8 2.7-1.8 4.3s.6 3.1 1.8 4.3l16 16.1-17.2 17.3c-1.1 1.1-.3 3 1.3 3l36.4.1 16-16c.3-.3.6-.6.8-1 .6-1 1-2.2 1-3.3z" fill="url(#q)"/><path d="m45.6 19.1c0-1.3-1.1-2.3-2.3-2.3h-29.6c-1.3 0-2.3 1.1-2.3 2.3v5.7c5.8 0 8.7 2 11.6 4s5.7 3.9 11.3 3.9 8.4-1.9 11.3-3.9v8.9z" fill="#fff"/><path d="m34.3 32.6c-5.6 0-8.4-1.9-11.3-3.9-2.8-1.9-5.8-4-11.6-4v12.8c0 1.3 1.1 2.3 2.3 2.3h29.5c1.3 0 2.3-1.1 2.3-2.3v-8.9c-2.9 2.2-5.6 4-11.2 4z" fill="#f6f6f6"/><path d="m46.2 19.6v17.5c0 1.9-1.5 3.4-3.4 3.4h-28.5c-1.9 0-3.4-1.5-3.4-3.4v-17.5c0-1.9 1.5-3.4 3.4-3.4h28.5c1.8 0 3.4 1.5 3.4 3.4zm-34.4 17.5c0 1.3 1.1 2.4 2.4 2.4h28.5c1.3 0 2.4-1.1 2.4-2.4v-17.5c0-1.3-1.1-2.4-2.4-2.4h-28.5c-1.3 0-2.4 1.1-2.4 2.4z" fill="url(#r)"/><path d="m15 35.5c.1-1.8 1.4-3.3 3.1-3.6h.5.4v-.8c-1-.6-1.7-1.8-1.7-3.3-.5-1.1-1.9-5 1.3-5.8 1.4-.9 2.6-.5 3.3 0s1.3.8 1.7.7c.3-.1.3 1-.1 1.7.2.7.2 2.4-.4 3.5 0 1.5-.8 2.8-1.8 3.3v.7h.5.4c1.8.2 3.1 1.7 3.2 3.6 0 .4.1 1 .1 1.7h.5v-17.7h-11.7v17.7h.6c0-.7.1-1.3.1-1.7z" fill="#2fddd1"/><path d="m25.3 35.5c-.1-1.8-1.4-3.4-3.2-3.6v.3c0 1.5-.9 2.5-2 2.5s-2-.9-2-2.5v-.3c-1.7.2-3 1.8-3.1 3.6 0 .4-.1 1-.1 1.7h10.6c-.1-.7-.2-1.3-.2-1.7z" fill="#1a1a1a"/><path d="m25.3 35.5c-.1-1.8-1.4-3.4-3.2-3.6v.3c0 1.5-.9 2.5-2 2.5s-2-.9-2-2.5v-.3c-1.7.2-3 1.8-3.1 3.6 0 .4-.1 1-.1 1.7h10.6c-.1-.7-.2-1.3-.2-1.7z" fill="url(#s)"/><path d="m20.1 34.7c1.1 0 2-.9 2-2.5v-.3c-.1 0-.3 0-.4 0h-.5v-.7c-.3.2-.7.3-1.1.3s-.8-.1-1.1-.3v.8h-.4c-.2 0-.3 0-.5 0v.3c0 1.5.9 2.4 2 2.4z" fill="#1a1a1a"/><path d="m20.1 34.7c1.1 0 2-.9 2-2.5v-.3c-.1 0-.3 0-.4 0h-.5v-.7c-.3.2-.7.3-1.1.3s-.8-.1-1.1-.3v.8h-.4c-.2 0-.3 0-.5 0v.3c0 1.5.9 2.4 2 2.4z" fill="url(#u)"/><path d="m18.3 24.3c1.2.9 3.2 1.6 4.6.6.2 1.3.1 2.9.1 2.9.6-1.1.6-2.8.4-3.5.4-.6.4-1.8.1-1.7s-1-.2-1.7-.7-1.8-.9-3.3 0c-3.1.9-1.7 4.8-1.3 5.8.1-.1 0-2.9 1.1-3.4z" fill="#736357"/><path d="m21.2 30.3v.8c1.1-.5 1.8-1.8 1.8-3.3-.2.4-.5.7-1 .9l-4.7-.7s0-.1-.1-.3c0 1.5.7 2.8 1.7 3.3v-.8h2.3z" fill="#ffc58e"/><path d="m21.2 31.2v-.8h-2.2v.8c.3.2.7.3 1.1.3.4-.1.8-.2 1.1-.3z" fill="#ffc58e"/><path d="m22.1 28.8c.4-.2.7-.5 1-.9s0-1.6-.1-2.9c-1.4 1-3.4.3-4.6-.6-1.1.5-1 3.2-1 3.5.1.2.1.3.1.3z" fill="#ffc58e"/><path d="m28.4 22.6h10.9v.9h-10.9z" fill="url(#w)"/><path d="m28.4 25.4h14.3v.9h-14.3z" fill="url(#x)"/><path d="m28.4 28.1h10.9v.9h-10.9z" fill="url(#y)"/><circle cx="29.7" cy="32.9" fill="#0e48b5" r="1.3"/><circle cx="33.1" cy="32.9" fill="#30a2e3" r="1.3"/><circle cx="36.6" cy="32.9" fill="#fb6874" r="1.3"/><path d="m45.6 46.7c0-1.3-1.1-2.3-2.3-2.3h-29.6c-1.3 0-2.3 1.1-2.3 2.3v5.7c5.8 0 8.7 2 11.6 4s5.7 3.9 11.3 3.9 8.4-1.9 11.3-3.9v8.9z" fill="#fff"/><path d="m34.3 60.2c-5.6 0-8.4-1.9-11.3-3.9-2.8-1.9-5.8-4-11.6-4v12.8c0 1.3 1.1 2.3 2.3 2.3h29.5c1.3 0 2.3-1.1 2.3-2.3v-8.9c-2.9 2.1-5.6 4-11.2 4z" fill="#f6f6f6"/><path d="m46.2 47.1v17.5c0 1.9-1.5 3.4-3.4 3.4h-28.5c-1.9 0-3.4-1.5-3.4-3.4v-17.5c0-1.9 1.5-3.4 3.4-3.4h28.5c1.8 0 3.4 1.6 3.4 3.4zm-34.4 17.6c0 1.3 1.1 2.4 2.4 2.4h28.5c1.3 0 2.4-1.1 2.4-2.4v-17.5c0-1.3-1.1-2.4-2.4-2.4h-28.5c-1.3 0-2.4 1.1-2.4 2.4z" fill="url(#z)"/><path d="m18.2 59.4v.3c0 1.5.9 2.5 2 2.5s2-.9 2-2.5v-.3c1.8.2 3.1 1.7 3.2 3.6 0 .4.1 1.1.1 1.8h.5v-17.8h-11.7v17.7h.6c.1-.7.1-1.4.1-1.8.2-1.8 1.4-3.3 3.2-3.5z" fill="#8f31c1"/><path d="m24.2 56.3c0-3.6-.6-7.5-4.1-7.5-3.6 0-4.1 3.9-4.1 7.5 0 2.1.7 4.9 1.7 6.8h4.9c.9-1.9 1.6-4.7 1.6-6.8z" fill="#fb6874"/><path d="m21.7 59.4h-.5v-1.6h-2.2v1.6h-.4c-.2 0-.3 0-.5 0v.3c0 1.5.9 2.5 2 2.5s2-.9 2-2.5v-.3c-.1 0-.3 0-.4 0z" fill="url(#A)"/><path d="m17.5 55.3c0 1.8 1.2 3.3 2.6 3.3 1.5 0 2.6-1.5 2.6-3.3v-2.2h-5.3v2.2z" fill="#ffc58e"/><path d="m25.3 63c-.1-1.8-1.4-3.4-3.2-3.6v.3c0 1.5-.9 2.5-2 2.5s-2-.9-2-2.5v-.3c-1.7.2-3 1.7-3.1 3.6 0 .4-.1 1.1-.1 1.8h10.5c-.1-.8-.1-1.4-.1-1.8z" fill="#91d9f9"/><path d="m28.4 50.1h10.9v.9h-10.9z" fill="url(#B)"/><path d="m28.4 52.9h14.3v.9h-14.3z" fill="url(#C)"/><path d="m28.4 55.6h10.9v.9h-10.9z" fill="url(#D)"/><circle cx="29.7" cy="60.4" fill="#0e48b5" r="1.3"/><circle cx="33.1" cy="60.4" fill="#30a2e3" r="1.3"/><circle cx="36.6" cy="60.4" fill="#fb6874" r="1.3"/></svg>