<svg enable-background="new 0 0 75 83.8" viewBox="0 0 75 83.8" xmlns="http://www.w3.org/2000/svg" xmlns:xlink="http://www.w3.org/1999/xlink"><linearGradient id="a" gradientTransform="matrix(1 0 0 -1 -.9 72.66)" gradientUnits="userSpaceOnUse" x1="31.9203" x2="51.5626" y1="61.2625" y2=".2575"><stop offset="0" stop-color="#0e48b5"/><stop offset=".48" stop-color="#30a2e3"/><stop offset="1" stop-color="#6bf9eb"/></linearGradient><linearGradient id="b" gradientTransform="matrix(1 0 0 -1 -.901 72.6561)" gradientUnits="userSpaceOnUse" x1="3.7319" x2="27.3319" y1="18.1517" y2="18.1517"><stop offset="0" stop-color="#fb993c"/><stop offset="1" stop-color="#ffc58e"/></linearGradient><linearGradient id="c"><stop offset="0" stop-color="#30a2e3"/><stop offset="1" stop-color="#2fddd1"/></linearGradient><linearGradient id="d" gradientTransform="matrix(1 0 0 -1 -.9 72.66)" gradientUnits="userSpaceOnUse" x1="37.1565" x2="37.1565" xlink:href="#c" y1="10.905" y2="54.135"/><linearGradient id="e" gradientTransform="matrix(1 0 0 -1 -.9 72.66)" gradientUnits="userSpaceOnUse" x1="16.3692" x2="57.9537" y1="52.9573" y2="12.0827"><stop offset="0" stop-color="#f2f2f2"/><stop offset="1" stop-color="#b3b3b3"/></linearGradient><linearGradient id="f" gradientTransform="matrix(1 0 0 -1 -.9 72.66)" gradientUnits="userSpaceOnUse" x1="37.1565" x2="37.1565" y1="30.3535" y2="54.135"><stop offset="0" stop-color="#fc7d76"/><stop offset="1" stop-color="#fcac60"/></linearGradient><linearGradient id="g" gradientTransform="matrix(1 0 0 -1 0 84)" gradientUnits="userSpaceOnUse" x1="29.7014" x2="42.8415" xlink:href="#c" y1="48.595" y2="48.715"/><linearGradient id="h"><stop offset="0" stop-color="#f56fae"/><stop offset="1" stop-color="#fa96d3"/></linearGradient><linearGradient id="i" gradientTransform="matrix(1 0 0 -1 0 84)" gradientUnits="userSpaceOnUse" x1="24.0464" x2="24.0464" xlink:href="#h" y1="27.505" y2="37.785"/><linearGradient id="j" gradientTransform="matrix(1 0 0 -1 0 84)" gradientUnits="userSpaceOnUse" x1="36.2664" x2="36.2664" xlink:href="#h" y1="27.505" y2="37.785"/><linearGradient id="k" gradientTransform="matrix(1 0 0 -1 0 84)" gradientUnits="userSpaceOnUse" x1="48.4865" x2="48.4865" xlink:href="#h" y1="27.505" y2="37.785"/><linearGradient id="l" gradientTransform="matrix(1 0 0 -1 0 84)" gradientUnits="userSpaceOnUse" x1="48.6064" x2="66.0764" xlink:href="#c" y1="50.9" y2="50.9"/><linearGradient id="m"><stop offset="0" stop-color="#0f39c3"/><stop offset="1" stop-color="#fa96d3"/></linearGradient><linearGradient id="n" gradientTransform="matrix(1 0 0 -1 -.9 72.66)" gradientUnits="userSpaceOnUse" x1="54.6057" x2="62.9857" xlink:href="#m" y1="40.695" y2="40.695"/><linearGradient id="o" gradientTransform="matrix(1 0 0 -1 0 84)" gradientUnits="userSpaceOnUse" x1="56.8064" x2="60.9565" xlink:href="#m" y1="46.655" y2="46.655"/><linearGradient id="p" gradientTransform="matrix(1 0 0 -1 -.9 72.66)" gradientUnits="userSpaceOnUse" x1="48.7664" x2="70.7964" xlink:href="#m" y1="41.7814" y2="41.7814"/><linearGradient id="q" gradientTransform="matrix(1 0 0 -1 -.9 72.66)" gradientUnits="userSpaceOnUse" x1="69.0664" x2="73.0764" xlink:href="#m" y1="47.0907" y2="47.0907"/><path d="m68.7 52c0-1.6-.7-3.2-1.8-4.3l-16-16 17.3-17.2c.7-.7.7-1.8 0-2.5-.3-.3-.8-.5-1.2-.5h-36.3l-16 16c-2.4 2.4-2.4 6.2 0 8.6l16 16-17.2 17.2c-.7.7-.7 1.8 0 2.5.3.3.8.5 1.2.5h36.3l16-16c1.1-1.1 1.8-2.7 1.7-4.3z" fill="url(#a)"/><circle cx="14.6" cy="54.5" fill="url(#b)" r="11.8"/><path d="m14.6 38.9v19.5c0 1.9 1.5 3.4 3.4 3.4h36.4c1.9 0 3.4-1.5 3.4-3.4v-19.5c-7 2.3-14.3 3.5-21.6 3.4-7.3.1-14.6-1.1-21.6-3.4z" fill="#fff"/><path d="m54.5 18.5h-36.5c-1.9 0-3.4 1.5-3.4 3.4v17c7 2.3 14.3 3.5 21.6 3.4 7.3 0 14.6-1.1 21.6-3.4v-17c.1-1.8-1.5-3.4-3.3-3.4z" fill="url(#d)"/><path d="m54.5 61.8h-36.5c-1.9 0-3.4-1.5-3.4-3.4v-36.5c0-1.9 1.5-3.4 3.4-3.4h36.4c1.9 0 3.4 1.5 3.4 3.4v36.4c.1 1.9-1.4 3.4-3.3 3.5zm-36.5-42.3c-1.3 0-2.4 1.1-2.4 2.4v36.4c0 1.3 1.1 2.4 2.4 2.4h36.4c1.3 0 2.4-1.1 2.4-2.4v-36.4c0-1.3-1.1-2.4-2.4-2.4z" fill="url(#e)"/><path d="m54.5 18.5h-36.5c-1.9 0-3.4 1.5-3.4 3.4v17c7 2.3 14.3 3.5 21.6 3.4 7.3 0 14.6-1.1 21.6-3.4v-17c.1-1.8-1.5-3.4-3.3-3.4z" fill="url(#f)"/><g fill="#fff"><path d="m28.6 23.7h15.4v2.3h-15.4z"/><path d="m28.9 28.5h14.8v.6h-14.8z"/><path d="m26.3 30.3h19.9v.6h-19.9z"/></g><path d="m30.1 33.2h12.3c.2 0 .4.2.4.4v3.4c0 .2-.2.4-.4.4h-12.3c-.2 0-.4-.2-.4-.4v-3.4c0-.2.2-.4.4-.4z" fill="url(#g)"/><path d="m18.9 46.2h10.3v10.3h-10.3z" fill="url(#i)"/><path d="m31.1 46.2h10.3v10.3h-10.3z" fill="url(#j)"/><path d="m43.3 46.2h10.3v10.3h-10.3z" fill="url(#k)"/><path d="m48.6 24.4h17.5v17.5h-17.5z" fill="url(#l)"/><path d="m60.3 34c-2 .1-4-.4-5.7-1.4-1.8-1-3.8-1.5-5.9-1.4v9.8c0 .5.5.8 1.2.8h14.9c.7 0 1.2-.4 1.2-.8v-8.4c-1.8.9-3.7 1.4-5.7 1.4z" fill="#f6f6f6"/><path d="m58.4 31.9c1.3-.9 2.5-1.9 3.7-3-.3-.2-.6-.4-.8-.6-.3-.3-.5-.6-.7-.9-1 1.2-2 2.4-2.9 3.7-1.1 0-2.1.4-2.9 1.2-1.2 1.2-1.1 4.2-1.1 4.2.5-.7 1.3-1.3 2.2-1.5 1.4-.3 2.5-1.6 2.5-3.1z" fill="url(#n)"/><path d="m56.8 39.3.1.1 4.1-2.1-2.2-2z" fill="url(#o)"/><path d="m67.7 25.9-1.2 1.3v-2.7l.4-.4s3.8-3.9 2.8-4.6-4.6 2.9-4.6 2.9l-1.4 1.5h-14.8c-.6 0-1 .4-1 1v16c0 .8.7 1.5 1.5 1.5h15.6c.8 0 1.5-.7 1.5-1.5v-9.3l3.4-3.5zm-2.8 14.9h-15.5v-15.4h12.9c-.6.6-1.1 1.3-1.5 1.7.4.6.9 1.2 1.6 1.5.6-.5 1.6-1.6 2.6-2.5v2.7l-5.7 6 2.2 2.1 3.5-3.8v7.7z" fill="url(#p)"/><path d="m72.1 25-1.4-1.4c-.3-.2-.6-.1-.8.1l-1.6 1.7 2.2 2.1 1.6-1.7c.1-.1.1-.5 0-.8z" fill="url(#q)"/></svg>