<?xml version="1.0" encoding="utf-8"?>
<!-- Generator: Adobe Illustrator 21.1.0, SVG Export Plug-In . SVG Version: 6.00 Build 0)  -->
<svg version="1.1" id="Layer_1" xmlns="http://www.w3.org/2000/svg" xmlns:xlink="http://www.w3.org/1999/xlink" x="0px" y="0px"
	 viewBox="0 0 75 83.8" style="enable-background:new 0 0 75 83.8;" xml:space="preserve">
<style type="text/css">
	.st0{fill:url(#SVGID_1_);}
	.st1{fill:url(#SVGID_2_);}
	.st2{clip-path:url(#SVGID_4_);fill:#FFFFFF;}
	.st3{clip-path:url(#SVGID_6_);fill:#FFFFFF;}
	.st4{clip-path:url(#SVGID_8_);fill:#FFFFFF;}
	.st5{fill:url(#SVGID_9_);}
	.st6{clip-path:url(#SVGID_11_);fill:#769AFC;}
	.st7{clip-path:url(#SVGID_11_);fill:#6BF9EB;}
	.st8{clip-path:url(#SVGID_11_);fill:url(#SVGID_12_);}
	.st9{fill:url(#SVGID_13_);}
	.st10{fill:#FFFFFF;}
	.st11{fill:url(#SVGID_14_);}
	.st12{fill:url(#SVGID_15_);}
	.st13{fill:url(#SVGID_16_);}
	.st14{fill:url(#SVGID_17_);}
	.st15{fill:url(#SVGID_18_);}
	.st16{fill:url(#SVGID_19_);}
	.st17{fill:url(#SVGID_20_);}
	.st18{display:none;}
	.st19{display:inline;}
	.st20{fill:#F56FAE;}
</style>
<g id="Layer_1_2_">
	<g id="Layer_2">
		<g>
			<g>
				
					<linearGradient id="SVGID_1_" gradientUnits="userSpaceOnUse" x1="32.3117" y1="-2044.7996" x2="51.3117" y2="-2103.7996" gradientTransform="matrix(1 0 0 -1 0 -2032)">
					<stop  offset="0" style="stop-color:#FB6874"/>
					<stop  offset="1" style="stop-color:#F56FAE"/>
				</linearGradient>
				<path class="st0" d="M70.1,53.5L70.1,53.5L70.1,53.5c0-1.6-0.6-3.1-1.8-4.3l-16-16l17.3-17.3c1.1-1.1,0.3-3-1.3-3H32l0,0l0,0
					l0,0l0,0l0,0l0,0l0,0l-16,16c-1.2,1.2-1.8,2.8-1.8,4.3c0,1.6,0.6,3.1,1.8,4.3l16,16l0,0l0,0l0,0L14.7,70.8c-1.1,1.1-0.3,3,1.3,3
					h36.4l0,0l0,0l0,0l0,0l0,0l0,0l16-16c0.3-0.3,0.6-0.6,0.8-1C69.8,55.8,70.1,54.7,70.1,53.5L70.1,53.5L70.1,53.5L70.1,53.5z"/>
			</g>
			
				<linearGradient id="SVGID_2_" gradientUnits="userSpaceOnUse" x1="15.9" y1="-2068.6526" x2="15.9" y2="-2044.6526" gradientTransform="matrix(1 0 0 -1 0 -2032)">
				<stop  offset="1.241987e-03" style="stop-color:#FB993C"/>
				<stop  offset="0.9988" style="stop-color:#FFC58E"/>
			</linearGradient>
			<circle class="st1" cx="15.9" cy="24.7" r="12"/>
			<g>
				<g>
					<g>
						<g>
							<g>
								<g>
									<g>
										<g>
											<g>
												<defs>
													<path id="SVGID_3_" d="M38.9,63.2h-21c-1.6,0-2.9-1.3-2.9-2.9V28.1c0-1.6,1.3-2.9,2.9-2.9h21c1.6,0,2.9,1.3,2.9,2.9
														v32.2C41.8,61.9,40.5,63.2,38.9,63.2z"/>
												</defs>
												<clipPath id="SVGID_4_">
													<use xlink:href="#SVGID_3_"  style="overflow:visible;"/>
												</clipPath>
												<polygon class="st2" points="16,25.2 14.9,26.7 14.9,25.2 												"/>
											</g>
										</g>
									</g>
								</g>
							</g>
						</g>
					</g>
					<g>
						<g>
							<g>
								<g>
									<g>
										<g>
											<g>
												<defs>
													<path id="SVGID_5_" d="M38.9,63.2h-21c-1.6,0-2.9-1.3-2.9-2.9V28.1c0-1.6,1.3-2.9,2.9-2.9h21c1.6,0,2.9,1.3,2.9,2.9
														v32.2C41.8,61.9,40.5,63.2,38.9,63.2z"/>
												</defs>
												<clipPath id="SVGID_6_">
													<use xlink:href="#SVGID_5_"  style="overflow:visible;"/>
												</clipPath>
												<polygon class="st3" points="41.8,61.6 40.7,63.2 14.9,63.2 14.9,26.7 16,25.2 41.8,25.2 												"/>
											</g>
										</g>
									</g>
								</g>
							</g>
						</g>
					</g>
					<g>
						<g>
							<g>
								<g>
									<g>
										<g>
											<g>
												<defs>
													<path id="SVGID_7_" d="M38.9,63.2h-21c-1.6,0-2.9-1.3-2.9-2.9V28.1c0-1.6,1.3-2.9,2.9-2.9h21c1.6,0,2.9,1.3,2.9,2.9
														v32.2C41.8,61.9,40.5,63.2,38.9,63.2z"/>
												</defs>
												<clipPath id="SVGID_8_">
													<use xlink:href="#SVGID_7_"  style="overflow:visible;"/>
												</clipPath>
												<polygon class="st4" points="40.7,63.2 41.8,61.6 41.8,63.2 												"/>
											</g>
										</g>
									</g>
								</g>
							</g>
						</g>
					</g>
				</g>
				
					<linearGradient id="SVGID_9_" gradientUnits="userSpaceOnUse" x1="28.4" y1="-2095.6001" x2="28.4" y2="-2056.7" gradientTransform="matrix(1 0 0 -1 0 -2032)">
					<stop  offset="0" style="stop-color:#E1E9FE"/>
					<stop  offset="1" style="stop-color:#DCF3FD"/>
				</linearGradient>
				<path class="st5" d="M39.9,63.6H16.8c-1.2,0-2.2-1.4-2.2-3.1V27.8c0-1.7,1-3.1,2.2-3.1H40c1.2,0,2.2,1.4,2.2,3.1v32.8
					C42.1,62.3,41.1,63.6,39.9,63.6z M16.8,25.6c-0.8,0-1.5,1-1.5,2.2v32.8c0,1.2,0.7,2.2,1.5,2.2H40c0.8,0,1.5-1,1.5-2.2V27.8
					c0-1.2-0.7-2.2-1.5-2.2C40,25.6,16.8,25.6,16.8,25.6z"/>
			</g>
			<g>
				<defs>
					<path id="SVGID_10_" d="M40.1,62H16.7c-0.3,0-0.5-0.2-0.5-0.5V27c0-0.3,0.2-0.5,0.5-0.5h23.4c0.3,0,0.5,0.2,0.5,0.5v34.5
						C40.6,61.8,40.4,62,40.1,62z"/>
				</defs>
				<clipPath id="SVGID_11_">
					<use xlink:href="#SVGID_10_"  style="overflow:visible;"/>
				</clipPath>
				<path class="st6" d="M40.1,62H16.7c-0.3,0-0.5-0.2-0.5-0.5V27c0-0.3,0.2-0.5,0.5-0.5h23.4c0.3,0,0.5,0.2,0.5,0.5v34.5
					C40.6,61.8,40.4,62,40.1,62z"/>
				<path class="st7" d="M13.8,62l8.5-10.8c0,0,0.2-0.3,0.7-0.3c0.5-0.1,0.7,0.2,1.2,0.8c0.5,0.6,5.7,7.1,5.7,7.1V62H13.8z"/>
				<linearGradient id="SVGID_12_" gradientUnits="userSpaceOnUse" x1="29.5567" y1="64.5875" x2="33.9538" y2="48.1772">
					<stop  offset="0" style="stop-color:#30A2E3"/>
					<stop  offset="9.141421e-02" style="stop-color:#30B5DD"/>
					<stop  offset="0.2172" style="stop-color:#2FC7D8"/>
					<stop  offset="0.368" style="stop-color:#2FD3D4"/>
					<stop  offset="0.5666" style="stop-color:#2FDBD2"/>
					<stop  offset="1" style="stop-color:#2FDDD1"/>
				</linearGradient>
				<path class="st8" d="M19.9,62l10.9-13.9c0,0,0.3-0.3,0.9-0.4s0.9,0.2,1.5,1s7.4,9.2,7.4,9.2V62H19.9z"/>
			</g>
			
				<linearGradient id="SVGID_13_" gradientUnits="userSpaceOnUse" x1="23.4" y1="-2077.5854" x2="23.4" y2="-2070.1853" gradientTransform="matrix(1 0 0 -1 0 -2032)">
				<stop  offset="1.241987e-03" style="stop-color:#FB993C"/>
				<stop  offset="0.9988" style="stop-color:#FFC58E"/>
			</linearGradient>
			<circle class="st9" cx="23.4" cy="41.9" r="3.7"/>
			<g>
				<g>
					<g>
						<path class="st10" d="M48.2,25.6c-1.4,0-2.5,1.2-2.5,3v31c0,1.8,1.1,3.3,2.5,3.3h20.4c1.4,0,2.5-1.5,2.5-3.3v-31
							c0-1.8-1.1-3-2.5-3C68.6,25.6,48.2,25.6,48.2,25.6z"/>
					</g>
				</g>
				<g>
					
						<linearGradient id="SVGID_14_" gradientUnits="userSpaceOnUse" x1="51.2757" y1="-2078.7" x2="65.5602" y2="-2078.7" gradientTransform="matrix(1 0 0 -1 0 -2032)">
						<stop  offset="0" style="stop-color:#8F31C1"/>
						<stop  offset="1" style="stop-color:#F56FAE"/>
					</linearGradient>
					<rect x="51.2" y="46.1" class="st11" width="14.3" height="1.2"/>
					
						<linearGradient id="SVGID_15_" gradientUnits="userSpaceOnUse" x1="49.0607" y1="-2082.3" x2="67.7607" y2="-2082.3" gradientTransform="matrix(1 0 0 -1 0 -2032)">
						<stop  offset="0" style="stop-color:#8F31C1"/>
						<stop  offset="1" style="stop-color:#F56FAE"/>
					</linearGradient>
					<rect x="49" y="49.7" class="st12" width="18.7" height="1.2"/>
					
						<linearGradient id="SVGID_16_" gradientUnits="userSpaceOnUse" x1="51.2757" y1="-2085.8999" x2="65.5602" y2="-2085.8999" gradientTransform="matrix(1 0 0 -1 0 -2032)">
						<stop  offset="0" style="stop-color:#8F31C1"/>
						<stop  offset="1" style="stop-color:#F56FAE"/>
					</linearGradient>
					<rect x="51.2" y="53.3" class="st13" width="14.3" height="1.2"/>
				</g>
				<g>
					
						<linearGradient id="SVGID_17_" gradientUnits="userSpaceOnUse" x1="51.2757" y1="-2065" x2="65.5602" y2="-2065" gradientTransform="matrix(1 0 0 -1 0 -2032)">
						<stop  offset="0" style="stop-color:#8F31C1"/>
						<stop  offset="1" style="stop-color:#F56FAE"/>
					</linearGradient>
					<rect x="51.2" y="32.4" class="st14" width="14.3" height="1.2"/>
					
						<linearGradient id="SVGID_18_" gradientUnits="userSpaceOnUse" x1="49.0607" y1="-2068.6001" x2="67.7607" y2="-2068.6001" gradientTransform="matrix(1 0 0 -1 0 -2032)">
						<stop  offset="0" style="stop-color:#8F31C1"/>
						<stop  offset="1" style="stop-color:#F56FAE"/>
					</linearGradient>
					<rect x="49" y="36" class="st15" width="18.7" height="1.2"/>
					
						<linearGradient id="SVGID_19_" gradientUnits="userSpaceOnUse" x1="51.2757" y1="-2072.2" x2="65.5602" y2="-2072.2" gradientTransform="matrix(1 0 0 -1 0 -2032)">
						<stop  offset="0" style="stop-color:#8F31C1"/>
						<stop  offset="1" style="stop-color:#F56FAE"/>
					</linearGradient>
					<rect x="51.2" y="39.6" class="st16" width="14.3" height="1.2"/>
				</g>
				
					<linearGradient id="SVGID_20_" gradientUnits="userSpaceOnUse" x1="58.4" y1="-2095.7" x2="58.4" y2="-2056.668" gradientTransform="matrix(1 0 0 -1 0 -2032)">
					<stop  offset="0" style="stop-color:#B3B3B3"/>
					<stop  offset="1" style="stop-color:#F2F2F2"/>
				</linearGradient>
				<path class="st17" d="M67.4,63.7h-18c-2.5,0-4.5-2-4.5-4.5V29.1c0-2.5,2-4.5,4.5-4.5h18c2.5,0,4.5,2,4.5,4.5v30.1
					C71.8,61.7,69.8,63.7,67.4,63.7z M49.4,26c-1.7,0-3.2,1.4-3.2,3.2v30.1c0,1.7,1.4,3.2,3.2,3.2h18c1.7,0,3.2-1.4,3.2-3.2V29.1
					c0-1.7-1.4-3.2-3.2-3.2L49.4,26L49.4,26z"/>
				<g class="st18">
					<g class="st19">
						<g>
							<path class="st20" d="M62.1,39.7h-7.4v-5.4h1.6l0.5-1.5h3l0.5,1.5H62L62.1,39.7L62.1,39.7z M55.4,39h5.9v-3.9h-1.5l-0.5-1.5
								h-2l-0.5,1.5h-1.4V39z"/>
						</g>
						<g>
							<path class="st20" d="M58.4,38.2c-0.7,0-1.3-0.6-1.3-1.3s0.6-1.3,1.3-1.3s1.3,0.6,1.3,1.3S59.1,38.2,58.4,38.2z M58.4,36.3
								c-0.3,0-0.6,0.3-0.6,0.6s0.3,0.6,0.6,0.6s0.6-0.3,0.6-0.6S58.7,36.3,58.4,36.3z"/>
						</g>
					</g>
				</g>
			</g>
		</g>
	</g>
</g>
</svg>
