<?xml version="1.0" encoding="utf-8"?>
<!-- Generator: Adobe Illustrator 21.1.0, SVG Export Plug-In . SVG Version: 6.00 Build 0)  -->
<svg version="1.1" id="Layer_1" xmlns="http://www.w3.org/2000/svg" xmlns:xlink="http://www.w3.org/1999/xlink" x="0px" y="0px"
	 viewBox="0 0 75 83.8" style="enable-background:new 0 0 75 83.8;" xml:space="preserve">
<style type="text/css">
	.st0{fill:url(#SVGID_1_);}
	.st1{fill:url(#SVGID_2_);}
	.st2{fill:#FFFFFF;}
	.st3{fill:url(#SVGID_3_);}
	.st4{fill:url(#SVGID_4_);}
	.st5{fill:#CCCCCC;}
	.st6{fill:url(#SVGID_5_);}
	.st7{fill:url(#SVGID_6_);}
	.st8{fill:url(#SVGID_7_);}
	.st9{fill:url(#SVGID_8_);}
	.st10{fill:url(#SVGID_9_);}
	.st11{fill:url(#SVGID_10_);}
	.st12{fill:url(#SVGID_11_);}
	.st13{fill:url(#SVGID_12_);}
	.st14{fill:url(#SVGID_13_);}
	.st15{fill:#F6F6F6;}
	.st16{fill:url(#SVGID_14_);}
	.st17{fill:#2FDDD1;}
	.st18{fill:#1A1A1A;}
	.st19{fill:url(#SVGID_15_);}
	.st20{fill:url(#SVGID_16_);}
	.st21{fill:#736357;}
	.st22{fill:#FFC58E;}
	.st23{fill:url(#SVGID_17_);}
	.st24{fill:url(#SVGID_18_);}
	.st25{fill:url(#SVGID_19_);}
	.st26{fill:#0E48B5;}
	.st27{fill:#30A2E3;}
	.st28{fill:#FB6874;}
	.st29{fill:url(#SVGID_20_);}
	.st30{fill:#8F31C1;}
	.st31{fill:url(#SVGID_21_);}
	.st32{fill:#91D9F9;}
	.st33{fill:url(#SVGID_22_);}
	.st34{fill:url(#SVGID_23_);}
	.st35{fill:url(#SVGID_24_);}
</style>
<g>
	<g>
		<linearGradient id="SVGID_1_" gradientUnits="userSpaceOnUse" x1="251.6592" y1="159.5625" x2="270.6592" y2="218.5625">
			<stop  offset="0" style="stop-color:#0F39C3"/>
			<stop  offset="1" style="stop-color:#FA96D3"/>
		</linearGradient>
		<path class="st0" d="M289.5,200.3L289.5,200.3L289.5,200.3c0-1.6-0.6-3.1-1.8-4.3l-16-16l17.3-17.3c1.1-1.1,0.3-3-1.3-3h-36.4l0,0
			l0,0l0,0l0,0l0,0v0v0l-16,16c-1.2,1.2-1.8,2.8-1.8,4.3c0,1.6,0.6,3.1,1.8,4.3l16,16v0l0,0h0l-17.3,17.3c-1.1,1.1-0.3,3,1.3,3h36.4
			l0,0v0l0,0l0,0l0,0v0l16-16c0.3-0.3,0.6-0.6,0.8-1C289.2,202.7,289.5,201.5,289.5,200.3L289.5,200.3
			C289.5,200.3,289.5,200.3,289.5,200.3L289.5,200.3z"/>
	</g>
	
		<linearGradient id="SVGID_2_" gradientUnits="userSpaceOnUse" x1="227.1121" y1="219.1904" x2="227.1121" y2="195.5237" gradientTransform="matrix(1 -8.533533e-03 8.533533e-03 1 8.7293 -5.296)">
		<stop  offset="0" style="stop-color:#FB6874"/>
		<stop  offset="1" style="stop-color:#F56FAE"/>
	</linearGradient>
	<circle class="st1" cx="237.6" cy="200.1" r="11.8"/>
	<g>
		<g>
			<g>
				<path class="st2" d="M269.6,183.6v19.6c0,1.5,1.2,2.8,2.8,2.8h13.7c1.5,0,2.8-1.2,2.8-2.8v-19.6H269.6z"/>
				<g>
					<linearGradient id="SVGID_3_" gradientUnits="userSpaceOnUse" x1="269.0875" y1="184.5755" x2="289.42" y2="204.5639">
						<stop  offset="0" style="stop-color:#F2F2F2"/>
						<stop  offset="1" style="stop-color:#B3B3B3"/>
					</linearGradient>
					<path class="st3" d="M270,184.5v18.9c0,1.1,0.9,2.1,2.1,2.1h14.4c1.1,0,2.1-0.9,2.1-2.1v-18.9h0.9v18.9c0,1.6-1.3,2.9-2.9,2.9
						h-14.4c-1.6,0-2.9-1.3-2.9-2.9v-18.9"/>
				</g>
				<linearGradient id="SVGID_4_" gradientUnits="userSpaceOnUse" x1="271.1635" y1="178.8479" x2="289.3585" y2="178.8479">
					<stop  offset="0" style="stop-color:#30A2E3"/>
					<stop  offset="1" style="stop-color:#2FDDD1"/>
				</linearGradient>
				<path class="st4" d="M287.3,173.2h-14c-1.2,0-2.1,0.9-2.1,2.1v9.2h18.2v-9.2C289.4,174.1,288.4,173.2,287.3,173.2z"/>
				<g>
					<path class="st2" d="M281.6,177.1c-0.3-0.2-0.6-0.4-0.9-0.5v1.6c1.1,0.4,1.5,0.9,1.5,1.7v0c0,0.8-0.6,1.4-1.5,1.5v0.8H280v-0.8
						c-0.6-0.1-1.2-0.3-1.7-0.8l0.5-0.7c0.4,0.3,0.7,0.6,1.2,0.6V179c-1-0.4-1.5-0.8-1.5-1.7v0c0-0.8,0.6-1.4,1.5-1.5v-0.5h0.6v0.5
						c0.5,0.1,1,0.3,1.4,0.6L281.6,177.1z M280,178v-1.4c-0.4,0.1-0.6,0.3-0.6,0.7v0C279.5,177.5,279.6,177.7,280,178z M280.7,179.2
						v1.5c0.4-0.1,0.6-0.3,0.6-0.7v0C281.3,179.6,281.1,179.4,280.7,179.2z"/>
				</g>
				<g>
					<rect x="274.3" y="187.9" class="st5" width="11.8" height="0.8"/>
					<rect x="274.3" y="190.2" class="st5" width="11.8" height="0.8"/>
					<polyline class="st5" points="284,193.3 274.3,193.3 274.3,192.5 286.2,192.5 286.2,193.3 284,193.3 					"/>
					<rect x="274.3" y="194.9" class="st5" width="11.8" height="0.8"/>
				</g>
				<linearGradient id="SVGID_5_" gradientUnits="userSpaceOnUse" x1="274.3676" y1="199.9615" x2="286.1544" y2="199.9615">
					<stop  offset="1.241987e-03" style="stop-color:#FB993C"/>
					<stop  offset="0.9988" style="stop-color:#FFC58E"/>
				</linearGradient>
				<path class="st6" d="M285.6,202.3h-10.7c-0.3,0-0.5-0.2-0.5-0.5v-3.7c0-0.3,0.2-0.5,0.5-0.5h10.7c0.3,0,0.5,0.2,0.5,0.5v3.7
					C286.2,202.1,285.9,202.3,285.6,202.3z"/>
			</g>
			<g>
				<path class="st2" d="M234.2,183.6v19.6c0,1.5,1.2,2.8,2.8,2.8h14.7c1.5,0,2.8-1.2,2.8-2.8v-19.6H234.2z"/>
				<g>
					<linearGradient id="SVGID_6_" gradientUnits="userSpaceOnUse" x1="233.9206" y1="184.3256" x2="254.7616" y2="204.8139">
						<stop  offset="0" style="stop-color:#F2F2F2"/>
						<stop  offset="1" style="stop-color:#B3B3B3"/>
					</linearGradient>
					<path class="st7" d="M234.6,184.5v18.9c0,1.1,0.9,2.1,2.1,2.1H252c1.1,0,2.1-0.9,2.1-2.1v-18.9h0.9v18.9c0,1.6-1.3,2.9-2.9,2.9
						h-15.4c-1.6,0-2.9-1.3-2.9-2.9v-18.9"/>
				</g>
				<linearGradient id="SVGID_7_" gradientUnits="userSpaceOnUse" x1="233.7509" y1="178.8479" x2="251.9458" y2="178.8479">
					<stop  offset="0" style="stop-color:#30A2E3"/>
					<stop  offset="1" style="stop-color:#2FDDD1"/>
				</linearGradient>
				<path class="st8" d="M249.8,173.2h-14c-1.2,0-2.1,0.9-2.1,2.1v9.2h18.2v-9.2C251.9,174.1,251,173.2,249.8,173.2z"/>
				<g>
					<path class="st2" d="M244.2,177.1c-0.3-0.2-0.6-0.4-0.9-0.5v1.6c1.1,0.4,1.5,0.9,1.5,1.7v0c0,0.8-0.6,1.4-1.5,1.5v0.8h-0.6
						v-0.8c-0.6-0.1-1.2-0.3-1.7-0.8l0.5-0.7c0.4,0.3,0.7,0.6,1.2,0.6V179c-1-0.4-1.5-0.8-1.5-1.7v0c0-0.8,0.6-1.4,1.5-1.5v-0.5h0.6
						v0.5c0.5,0.1,1,0.3,1.4,0.6L244.2,177.1z M242.6,178v-1.4c-0.4,0.1-0.6,0.3-0.6,0.7v0C242.1,177.5,242.2,177.7,242.6,178z
						 M243.2,179.2v1.5c0.4-0.1,0.6-0.3,0.6-0.7v0C243.9,179.6,243.7,179.4,243.2,179.2z"/>
				</g>
				<g>
					<rect x="236.9" y="187.9" class="st5" width="11.8" height="0.8"/>
					<rect x="236.9" y="190.2" class="st5" width="11.8" height="0.8"/>
					<polyline class="st5" points="246.6,193.3 236.9,193.3 236.9,192.5 248.8,192.5 248.8,193.3 246.6,193.3 					"/>
					<rect x="236.9" y="194.9" class="st5" width="11.8" height="0.8"/>
				</g>
				<linearGradient id="SVGID_8_" gradientUnits="userSpaceOnUse" x1="236.955" y1="199.9615" x2="248.7417" y2="199.9615">
					<stop  offset="1.241987e-03" style="stop-color:#FB993C"/>
					<stop  offset="0.9988" style="stop-color:#FFC58E"/>
				</linearGradient>
				<path class="st9" d="M248.2,202.3h-10.7c-0.3,0-0.5-0.2-0.5-0.5v-3.7c0-0.3,0.2-0.5,0.5-0.5h10.7c0.3,0,0.5,0.2,0.5,0.5v3.7
					C248.7,202.1,248.5,202.3,248.2,202.3z"/>
			</g>
		</g>
		<g>
			<path class="st2" d="M251.4,183.4v23c0,1.8,1.5,3.3,3.3,3.3h13.8c1.8,0,3.3-1.5,3.3-3.3v-23H251.4z"/>
			<g>
				<linearGradient id="SVGID_9_" gradientUnits="userSpaceOnUse" x1="250.218" y1="185.1226" x2="272.8743" y2="207.3956">
					<stop  offset="0" style="stop-color:#F2F2F2"/>
					<stop  offset="1" style="stop-color:#B3B3B3"/>
				</linearGradient>
				<path class="st10" d="M251.9,184.4v22.2c0,1.3,1.1,2.4,2.4,2.4h14.5c1.3,0,2.4-1.1,2.4-2.4v-22.2h1v22.2c0,1.9-1.5,3.4-3.4,3.4
					h-14.5c-1.9,0-3.4-1.5-3.4-3.4v-22.2"/>
			</g>
			<linearGradient id="SVGID_10_" gradientUnits="userSpaceOnUse" x1="250.8836" y1="177.2314" x2="272.2257" y2="177.2314">
				<stop  offset="0" style="stop-color:#30A2E3"/>
				<stop  offset="1" style="stop-color:#2FDDD1"/>
			</linearGradient>
			<path class="st11" d="M269.8,170h-16.4c-1.4,0-2.5,1.1-2.5,2.5v11.9h21.3v-11.9C272.2,171.1,271.1,170,269.8,170z"/>
			<g>
				<path class="st2" d="M263.1,175.7c-0.3-0.3-0.7-0.5-1.1-0.6v1.9c1.3,0.5,1.8,1.1,1.8,2v0c0,1-0.7,1.7-1.8,1.8v1h-0.8v-1
					c-0.7-0.1-1.4-0.4-2-0.9l0.6-0.8c0.4,0.4,0.9,0.7,1.4,0.8v-2c-1.2-0.5-1.7-1-1.7-1.9v0c0-1,0.7-1.6,1.7-1.8v-0.6h0.8v0.6
					c0.6,0.1,1.2,0.3,1.6,0.7L263.1,175.7z M261.3,176.8v-1.6c-0.5,0.1-0.7,0.4-0.7,0.8v0C260.6,176.3,260.8,176.5,261.3,176.8z
					 M262,178.2v1.7c0.5-0.1,0.7-0.4,0.7-0.8v0C262.7,178.7,262.6,178.5,262,178.2z"/>
			</g>
			<g>
				<rect x="254.6" y="188.4" class="st5" width="13.9" height="0.9"/>
				<rect x="254.6" y="191.1" class="st5" width="13.9" height="0.9"/>
				<polyline class="st5" points="266,194.8 254.6,194.8 254.6,193.9 268.5,193.9 268.5,194.8 266,194.8 				"/>
				<rect x="254.6" y="196.6" class="st5" width="13.9" height="0.9"/>
			</g>
			<linearGradient id="SVGID_11_" gradientUnits="userSpaceOnUse" x1="254.642" y1="202.5835" x2="268.4674" y2="202.5835">
				<stop  offset="1.241987e-03" style="stop-color:#FB993C"/>
				<stop  offset="0.9988" style="stop-color:#FFC58E"/>
			</linearGradient>
			<path class="st12" d="M267.8,205.4h-12.6c-0.4,0-0.6-0.3-0.6-0.6v-4.3c0-0.4,0.3-0.6,0.6-0.6h12.6c0.4,0,0.6,0.3,0.6,0.6v4.3
				C268.5,205.1,268.2,205.4,267.8,205.4z"/>
		</g>
	</g>
</g>
<g>
	
		<linearGradient id="SVGID_12_" gradientUnits="userSpaceOnUse" x1="45.6365" y1="49.6982" x2="45.6365" y2="26.0316" gradientTransform="matrix(1 -8.533533e-03 8.533533e-03 1 8.7293 -5.296)">
		<stop  offset="1.241987e-03" style="stop-color:#FB993C"/>
		<stop  offset="0.9988" style="stop-color:#FFC58E"/>
	</linearGradient>
	<circle class="st13" cx="54.7" cy="32.2" r="11.8"/>
	<g>
		<g>
			
				<linearGradient id="SVGID_13_" gradientUnits="userSpaceOnUse" x1="31.0123" y1="10.7034" x2="50.0122" y2="69.7033" gradientTransform="matrix(1 1.776346e-03 -1.776346e-03 1 -1.7696 0.7609)">
				<stop  offset="5.174279e-02" style="stop-color:#8859F1"/>
				<stop  offset="0.504" style="stop-color:#30A2E3"/>
				<stop  offset="1" style="stop-color:#91D9F9"/>
			</linearGradient>
			<path class="st14" d="M67,52.4L67,52.4L67,52.4c0-1.6-0.6-3.1-1.8-4.3L49.2,32l17.3-17.3c1.1-1.1,0.3-3-1.3-3l-36.4-0.1l0,0l0,0
				l0,0l0,0l0,0v0l0,0l-16.1,16c-1.2,1.2-1.8,2.7-1.8,4.3c0,1.6,0.6,3.1,1.8,4.3l16,16.1l0,0l0,0h0L11.5,69.6c-1.1,1.1-0.3,3,1.3,3
				l36.4,0.1l0,0l0,0l0,0l0,0l0,0v0l16-16c0.3-0.3,0.6-0.6,0.8-1C66.6,54.7,67,53.5,67,52.4L67,52.4C67,52.4,67,52.4,67,52.4
				L67,52.4z"/>
		</g>
	</g>
	<g>
		<g>
			<g>
				<g>
					<g>
						<path class="st2" d="M45.6,19.1c0-1.3-1.1-2.3-2.3-2.3H13.7c-1.3,0-2.3,1.1-2.3,2.3v5.7c5.8,0,8.7,2,11.6,4
							c2.9,2,5.7,3.9,11.3,3.9c5.6,0,8.4-1.9,11.3-3.9v8.9c0,0,0,0,0,0V19.1z"/>
						<path class="st15" d="M34.3,32.6c-5.6,0-8.4-1.9-11.3-3.9c-2.8-1.9-5.8-4-11.6-4v12.8c0,1.3,1.1,2.3,2.3,2.3h29.5
							c1.3,0,2.3-1.1,2.3-2.3v-8.9C42.6,30.8,39.9,32.6,34.3,32.6z"/>
					</g>
				</g>
				
					<linearGradient id="SVGID_14_" gradientUnits="userSpaceOnUse" x1="-1359.6356" y1="-461.5989" x2="-1331.6139" y2="-434.0514" gradientTransform="matrix(1.079095e-06 -1 1 2.159247e-07 476.3341 -1317.2472)">
					<stop  offset="0" style="stop-color:#F2F2F2"/>
					<stop  offset="1" style="stop-color:#B3B3B3"/>
				</linearGradient>
				<path class="st16" d="M46.2,19.6l0,17.5c0,1.9-1.5,3.4-3.4,3.4l-28.5,0c-1.9,0-3.4-1.5-3.4-3.4l0-17.5c0-1.9,1.5-3.4,3.4-3.4
					l28.5,0C44.6,16.2,46.2,17.7,46.2,19.6z M11.8,37.1c0,1.3,1.1,2.4,2.4,2.4l28.5,0c1.3,0,2.4-1.1,2.4-2.4l0-17.5
					c0-1.3-1.1-2.4-2.4-2.4l-28.5,0c-1.3,0-2.4,1.1-2.4,2.4L11.8,37.1z"/>
			</g>
			<g>
				<g>
					<path class="st17" d="M15,35.5c0.1-1.8,1.4-3.3,3.1-3.6c0.2,0,0.3,0,0.5,0H19v-0.8c-1-0.6-1.7-1.8-1.7-3.3c0,0,0,0,0,0
						c-0.5-1.1-1.9-5,1.3-5.8c1.4-0.9,2.6-0.5,3.3,0c0.7,0.5,1.3,0.8,1.7,0.7c0.3-0.1,0.3,1-0.1,1.7c0.2,0.7,0.2,2.4-0.4,3.5
						c0,1.5-0.8,2.8-1.8,3.3v0.7h0.5c0.1,0,0.3,0,0.4,0c1.8,0.2,3.1,1.7,3.2,3.6c0,0.4,0.1,1,0.1,1.7H26V19.5H14.3v17.7h0.6
						C14.9,36.5,15,35.9,15,35.5z"/>
					<path class="st18" d="M25.3,35.5c-0.1-1.8-1.4-3.4-3.2-3.6v0.3c0,1.5-0.9,2.5-2,2.5s-2-0.9-2-2.5v-0.3c-1.7,0.2-3,1.8-3.1,3.6
						c0,0.4-0.1,1-0.1,1.7h10.6C25.4,36.5,25.3,35.9,25.3,35.5z"/>
					<linearGradient id="SVGID_15_" gradientUnits="userSpaceOnUse" x1="14.2446" y1="34.584" x2="26.0898" y2="34.584">
						<stop  offset="0" style="stop-color:#FB6874"/>
						<stop  offset="1" style="stop-color:#F56FAE"/>
					</linearGradient>
					<path class="st19" d="M25.3,35.5c-0.1-1.8-1.4-3.4-3.2-3.6v0.3c0,1.5-0.9,2.5-2,2.5s-2-0.9-2-2.5v-0.3c-1.7,0.2-3,1.8-3.1,3.6
						c0,0.4-0.1,1-0.1,1.7h10.6C25.4,36.5,25.3,35.9,25.3,35.5z"/>
					<path class="st18" d="M20.1,34.7c1.1,0,2-0.9,2-2.5v-0.3c-0.1,0-0.3,0-0.4,0h-0.5v-0.7c-0.3,0.2-0.7,0.3-1.1,0.3
						c-0.4,0-0.8-0.1-1.1-0.3v0.8h-0.4c-0.2,0-0.3,0-0.5,0v0.3C18.1,33.8,19,34.7,20.1,34.7z"/>
					<linearGradient id="SVGID_16_" gradientUnits="userSpaceOnUse" x1="20.1265" y1="34.7152" x2="20.1265" y2="30.3335">
						<stop  offset="0" style="stop-color:#FFC58E"/>
						<stop  offset="1" style="stop-color:#FCAC60"/>
					</linearGradient>
					<path class="st20" d="M20.1,34.7c1.1,0,2-0.9,2-2.5v-0.3c-0.1,0-0.3,0-0.4,0h-0.5v-0.7c-0.3,0.2-0.7,0.3-1.1,0.3
						c-0.4,0-0.8-0.1-1.1-0.3v0.8h-0.4c-0.2,0-0.3,0-0.5,0v0.3C18.1,33.8,19,34.7,20.1,34.7z"/>
					<path class="st21" d="M18.3,24.3c1.2,0.9,3.2,1.6,4.6,0.6c0.2,1.3,0.1,2.9,0.1,2.9c0,0,0,0,0,0c0.6-1.1,0.6-2.8,0.4-3.5
						c0.4-0.6,0.4-1.8,0.1-1.7c-0.3,0.1-1-0.2-1.7-0.7c-0.7-0.5-1.8-0.9-3.3,0c-3.1,0.9-1.7,4.8-1.3,5.8
						C17.3,27.6,17.2,24.8,18.3,24.3z"/>
					<path class="st22" d="M21.2,30.3v0.8c1.1-0.5,1.8-1.8,1.8-3.3c-0.2,0.4-0.5,0.7-1,0.9l-4.7-0.7c0,0,0-0.1-0.1-0.3c0,0,0,0,0,0
						c0,1.5,0.7,2.8,1.7,3.3v-0.8H21.2z"/>
					<path class="st22" d="M21.2,31.2v-0.8H19v0.8c0.3,0.2,0.7,0.3,1.1,0.3C20.5,31.4,20.9,31.3,21.2,31.2z"/>
					<path class="st22" d="M22.1,28.8c0.4-0.2,0.7-0.5,1-0.9c0,0,0,0,0,0c0,0,0-1.6-0.1-2.9c-1.4,1-3.4,0.3-4.6-0.6
						c-1.1,0.5-1,3.2-1,3.5c0.1,0.2,0.1,0.3,0.1,0.3L22.1,28.8z"/>
				</g>
				<g>
					<g>
						<linearGradient id="SVGID_17_" gradientUnits="userSpaceOnUse" x1="28.3997" y1="23.0728" x2="39.2997" y2="23.0728">
							<stop  offset="0" style="stop-color:#30A2E3"/>
							<stop  offset="1" style="stop-color:#0E48B5"/>
						</linearGradient>
						<rect x="28.4" y="22.6" class="st23" width="10.9" height="0.9"/>
						<linearGradient id="SVGID_18_" gradientUnits="userSpaceOnUse" x1="28.3997" y1="25.8228" x2="42.6801" y2="25.8228">
							<stop  offset="0" style="stop-color:#30A2E3"/>
							<stop  offset="1" style="stop-color:#0E48B5"/>
						</linearGradient>
						<rect x="28.4" y="25.4" class="st24" width="14.3" height="0.9"/>
						<linearGradient id="SVGID_19_" gradientUnits="userSpaceOnUse" x1="28.3997" y1="28.5728" x2="39.2997" y2="28.5728">
							<stop  offset="0" style="stop-color:#30A2E3"/>
							<stop  offset="1" style="stop-color:#0E48B5"/>
						</linearGradient>
						<rect x="28.4" y="28.1" class="st25" width="10.9" height="0.9"/>
					</g>
					<g>
						<circle class="st26" cx="29.7" cy="32.9" r="1.3"/>
						<circle class="st27" cx="33.1" cy="32.9" r="1.3"/>
						<circle class="st28" cx="36.6" cy="32.9" r="1.3"/>
					</g>
				</g>
			</g>
		</g>
		<g>
			<g>
				<g>
					<g>
						<path class="st2" d="M45.6,46.7c0-1.3-1.1-2.3-2.3-2.3H13.7c-1.3,0-2.3,1.1-2.3,2.3v5.7c5.8,0,8.7,2,11.6,4
							c2.9,2,5.7,3.9,11.3,3.9c5.6,0,8.4-1.9,11.3-3.9v8.9c0,0,0,0,0,0V46.7z"/>
						<path class="st15" d="M34.3,60.2c-5.6,0-8.4-1.9-11.3-3.9c-2.8-1.9-5.8-4-11.6-4v12.8c0,1.3,1.1,2.3,2.3,2.3h29.5
							c1.3,0,2.3-1.1,2.3-2.3v-8.9C42.6,58.3,39.9,60.2,34.3,60.2z"/>
					</g>
				</g>
				
					<linearGradient id="SVGID_20_" gradientUnits="userSpaceOnUse" x1="-1387.1555" y1="-461.5989" x2="-1359.1338" y2="-434.0513" gradientTransform="matrix(1.079095e-06 -1 1 2.159247e-07 476.3341 -1317.2472)">
					<stop  offset="0" style="stop-color:#F2F2F2"/>
					<stop  offset="1" style="stop-color:#B3B3B3"/>
				</linearGradient>
				<path class="st29" d="M46.2,47.1l0,17.5c0,1.9-1.5,3.4-3.4,3.4l-28.5,0c-1.9,0-3.4-1.5-3.4-3.4l0-17.5c0-1.9,1.5-3.4,3.4-3.4
					l28.5,0C44.6,43.7,46.2,45.3,46.2,47.1z M11.8,64.7c0,1.3,1.1,2.4,2.4,2.4l28.5,0c1.3,0,2.4-1.1,2.4-2.4l0-17.5
					c0-1.3-1.1-2.4-2.4-2.4l-28.5,0c-1.3,0-2.4,1.1-2.4,2.4L11.8,64.7z"/>
			</g>
			<g>
				<path class="st30" d="M18.2,59.4v0.3c0,1.5,0.9,2.5,2,2.5c1.1,0,2-0.9,2-2.5v-0.3c1.8,0.2,3.1,1.7,3.2,3.6
					c0,0.4,0.1,1.1,0.1,1.8H26V47H14.3v17.7h0.6c0.1-0.7,0.1-1.4,0.1-1.8C15.2,61.1,16.4,59.6,18.2,59.4z"/>
				<g>
					<path class="st28" d="M24.2,56.3c0-3.6-0.6-7.5-4.1-7.5c-3.6,0-4.1,3.9-4.1,7.5c0,2.1,0.7,4.9,1.7,6.8h4.9
						C23.5,61.2,24.2,58.4,24.2,56.3z"/>
				</g>
				<linearGradient id="SVGID_21_" gradientUnits="userSpaceOnUse" x1="20.1271" y1="62.1547" x2="20.1271" y2="57.7959">
					<stop  offset="0" style="stop-color:#FFC58E"/>
					<stop  offset="1" style="stop-color:#FCAC60"/>
				</linearGradient>
				<path class="st31" d="M21.7,59.4h-0.5v-1.6H19v1.6h-0.4c-0.2,0-0.3,0-0.5,0v0.3c0,1.5,0.9,2.5,2,2.5c1.1,0,2-0.9,2-2.5v-0.3
					C22,59.4,21.8,59.4,21.7,59.4z"/>
				<path class="st22" d="M17.5,55.3c0,1.8,1.2,3.3,2.6,3.3c1.5,0,2.6-1.5,2.6-3.3v-2.2h-5.3V55.3z"/>
				<path class="st32" d="M25.3,63c-0.1-1.8-1.4-3.4-3.2-3.6v0.3c0,1.5-0.9,2.5-2,2.5c-1.1,0-2-0.9-2-2.5v-0.3
					c-1.7,0.2-3,1.7-3.1,3.6c0,0.4-0.1,1.1-0.1,1.8h10.5C25.3,64,25.3,63.4,25.3,63z"/>
			</g>
			<g>
				<g>
					<linearGradient id="SVGID_22_" gradientUnits="userSpaceOnUse" x1="28.3997" y1="50.5927" x2="39.2997" y2="50.5927">
						<stop  offset="0" style="stop-color:#30A2E3"/>
						<stop  offset="1" style="stop-color:#0E48B5"/>
					</linearGradient>
					<rect x="28.4" y="50.1" class="st33" width="10.9" height="0.9"/>
					<linearGradient id="SVGID_23_" gradientUnits="userSpaceOnUse" x1="28.3997" y1="53.3427" x2="42.6801" y2="53.3427">
						<stop  offset="0" style="stop-color:#30A2E3"/>
						<stop  offset="1" style="stop-color:#0E48B5"/>
					</linearGradient>
					<rect x="28.4" y="52.9" class="st34" width="14.3" height="0.9"/>
					<linearGradient id="SVGID_24_" gradientUnits="userSpaceOnUse" x1="28.3997" y1="56.0927" x2="39.2997" y2="56.0927">
						<stop  offset="0" style="stop-color:#30A2E3"/>
						<stop  offset="1" style="stop-color:#0E48B5"/>
					</linearGradient>
					<rect x="28.4" y="55.6" class="st35" width="10.9" height="0.9"/>
				</g>
				<g>
					<circle class="st26" cx="29.7" cy="60.4" r="1.3"/>
					<circle class="st27" cx="33.1" cy="60.4" r="1.3"/>
					<circle class="st28" cx="36.6" cy="60.4" r="1.3"/>
				</g>
			</g>
		</g>
	</g>
</g>
</svg>
