<svg enable-background="new 0 0 75 83.8" viewBox="0 0 75 83.8" xmlns="http://www.w3.org/2000/svg" xmlns:xlink="http://www.w3.org/1999/xlink"><linearGradient id="a"><stop offset="0" stop-color="#fb6874"/><stop offset="1" stop-color="#f56fae"/></linearGradient><linearGradient id="b" gradientUnits="userSpaceOnUse" x1="29.1543" x2="48.1543" xlink:href="#a" y1="11.5188" y2="70.5188"/><linearGradient id="c" gradientTransform="matrix(1 -.00853353 .00853353 1 8.7293 -5.296)" gradientUnits="userSpaceOnUse" x1="17.341" x2="17.341" y1="69.6154" y2="45.9487"><stop offset="0" stop-color="#0e48b5"/><stop offset="1" stop-color="#30a2e3"/></linearGradient><linearGradient id="d" gradientUnits="userSpaceOnUse" x1="46.4759" x2="46.4759" y1="66.7204" y2="17.5251"><stop offset="0" stop-color="#b3b3b3"/><stop offset="1" stop-color="#f2f2f2"/></linearGradient><linearGradient id="e" gradientUnits="userSpaceOnUse" x1="46.4759" x2="46.4759" y1="38.6019" y2="21.3519"><stop offset="0" stop-color="#ab5af1"/><stop offset="1" stop-color="#749cfc"/></linearGradient><linearGradient id="f" gradientUnits="userSpaceOnUse" x1="39.6393" x2="59.9472" y1="33.1778" y2="33.1778"><stop offset="0" stop-color="#34d1d9"/><stop offset="1" stop-color="#5aece5"/></linearGradient><clipPath id="g"><circle cx="42.1" cy="26.2" r="2.2"/></clipPath><linearGradient id="h"><stop offset="0" stop-color="#30a2e3"/><stop offset="1" stop-color="#0e48b5"/></linearGradient><linearGradient id="i" gradientUnits="userSpaceOnUse" x1="35.7664" x2="57.1855" xlink:href="#h" y1="44.9913" y2="44.8085"/><linearGradient id="j" gradientUnits="userSpaceOnUse" x1="36.8667" x2="56.0852" xlink:href="#h" y1="49.1668" y2="49.0028"/><linearGradient id="k" gradientUnits="userSpaceOnUse" x1="34.2872" x2="58.6647" xlink:href="#h" y1="51.9388" y2="51.7307"/><linearGradient id="l" gradientUnits="userSpaceOnUse" x1="37.9086" x2="55.0433" y1="58.6606" y2="58.5144"><stop offset="0" stop-color="#fc7d76"/><stop offset="1" stop-color="#fcac60"/></linearGradient><linearGradient id="m" gradientUnits="userSpaceOnUse" x1="251.6592" x2="270.6592" y1="159.5625" y2="218.5625"><stop offset="0" stop-color="#0f39c3"/><stop offset="1" stop-color="#fa96d3"/></linearGradient><linearGradient id="n" gradientTransform="matrix(1 -.00853353 .00853353 1 8.7293 -5.296)" gradientUnits="userSpaceOnUse" x1="227.1121" x2="227.1121" xlink:href="#a" y1="219.1904" y2="195.5237"/><linearGradient id="o"><stop offset="0" stop-color="#f2f2f2"/><stop offset="1" stop-color="#b3b3b3"/></linearGradient><linearGradient id="p" gradientUnits="userSpaceOnUse" x1="269.0875" x2="289.42" xlink:href="#o" y1="184.5755" y2="204.5639"/><linearGradient id="q"><stop offset="0" stop-color="#30a2e3"/><stop offset="1" stop-color="#2fddd1"/></linearGradient><linearGradient id="r" gradientUnits="userSpaceOnUse" x1="271.1635" x2="289.3585" xlink:href="#q" y1="178.8479" y2="178.8479"/><linearGradient id="s"><stop offset=".001241987" stop-color="#fb993c"/><stop offset=".9988" stop-color="#ffc58e"/></linearGradient><linearGradient id="t" gradientUnits="userSpaceOnUse" x1="274.3676" x2="286.1544" xlink:href="#s" y1="199.9615" y2="199.9615"/><linearGradient id="u" gradientUnits="userSpaceOnUse" x1="233.9206" x2="254.7616" xlink:href="#o" y1="184.3256" y2="204.8139"/><linearGradient id="v" gradientUnits="userSpaceOnUse" x1="233.7509" x2="251.9458" xlink:href="#q" y1="178.8479" y2="178.8479"/><linearGradient id="w" gradientUnits="userSpaceOnUse" x1="236.955" x2="248.7417" xlink:href="#s" y1="199.9615" y2="199.9615"/><linearGradient id="x" gradientUnits="userSpaceOnUse" x1="250.218" x2="272.8743" xlink:href="#o" y1="185.1226" y2="207.3956"/><linearGradient id="y" gradientUnits="userSpaceOnUse" x1="250.8836" x2="272.2257" xlink:href="#q" y1="177.2314" y2="177.2314"/><linearGradient id="z" gradientUnits="userSpaceOnUse" x1="254.642" x2="268.4674" xlink:href="#s" y1="202.5835" y2="202.5835"/><path d="m67 52.3c0-1.6-.6-3.1-1.8-4.3l-16-16 17.3-17.3c1.1-1.1.3-3-1.3-3h-36.4l-16 16c-1.2 1.1-1.8 2.7-1.8 4.3s.6 3.1 1.8 4.3l16 16-17.2 17.3c-1.1 1.1-.3 3 1.3 3h36.4l16-16c.3-.3.6-.6.8-1 .6-1 .9-2.1.9-3.3z" fill="url(#b)"/><circle cx="26.6" cy="52.3" fill="url(#c)" r="11.8"/><path d="m59.7 18h-26.4c-1.6 0-2.9 1.3-2.9 2.9v15.8 27.3c0 1.2 1 2.2 2.2 2.2h27.7c1.2 0 2.2-1 2.2-2.2v-23.6-19.5c0-1.6-1.3-2.9-2.8-2.9z" fill="#fff"/><path d="m59.9 66.7h-26.8c-1.9 0-3.4-1.5-3.4-3.4v-42.4c0-1.9 1.5-3.4 3.4-3.4h26.8c1.9 0 3.4 1.5 3.4 3.4v42.4c0 1.9-1.5 3.4-3.4 3.4zm-26.8-48.2c-1.3 0-2.4 1.1-2.4 2.4v42.4c0 1.3 1.1 2.4 2.4 2.4h26.8c1.3 0 2.4-1.1 2.4-2.4v-42.4c0-1.3-1.1-2.4-2.4-2.4z" fill="url(#d)"/><path d="m33.1 21.4h26.8v17.2h-26.8z" fill="url(#e)"/><path d="m44.5 32.9-1.8-2.3c-.3-.3-.8-.3-1.1 0l-6.5 7.9h4.9z" fill="#6bf9eb"/><path d="m48.4 28-3.9 5-4.5 5.6h18l-8.5-10.6c-.3-.3-.8-.3-1.1 0z" fill="url(#f)"/><path clip-path="url(#g)" d="m39.9 28.3h4.4v.1h-4.4z" fill="#fcac60"/><path clip-path="url(#g)" d="m39.9 28.2h4.4v.1h-4.4z" fill="#fcad61"/><path clip-path="url(#g)" d="m39.9 28.1h4.4v.1h-4.4z" fill="#fcad62"/><path clip-path="url(#g)" d="m39.9 28h4.4v.1h-4.4z" fill="#fcae63"/><path clip-path="url(#g)" d="m39.9 27.9h4.4v.1h-4.4z" fill="#fcae64"/><path clip-path="url(#g)" d="m39.9 27.8h4.4v.1h-4.4z" fill="#fcaf65"/><path clip-path="url(#g)" d="m39.9 27.7h4.4v.1h-4.4z" fill="#fcaf66"/><path clip-path="url(#g)" d="m39.9 27.6h4.4v.1h-4.4z" fill="#fcb067"/><path clip-path="url(#g)" d="m39.9 27.5h4.4v.1h-4.4z" fill="#fdb068"/><path clip-path="url(#g)" d="m39.9 27.4h4.4v.1h-4.4z" fill="#fdb169"/><path clip-path="url(#g)" d="m39.9 27.3h4.4v.1h-4.4z" fill="#fdb26a"/><path clip-path="url(#g)" d="m39.9 27.2h4.4v.1h-4.4z" fill="#fdb26b"/><path clip-path="url(#g)" d="m39.9 27.1h4.4v.1h-4.4z" fill="#fdb36c"/><path clip-path="url(#g)" d="m39.9 27h4.4v.1h-4.4z" fill="#fdb36d"/><path clip-path="url(#g)" d="m39.9 26.9h4.4v.1h-4.4z" fill="#fdb46e"/><path clip-path="url(#g)" d="m39.9 26.8h4.4v.1h-4.4z" fill="#fdb46f"/><path clip-path="url(#g)" d="m39.9 26.7h4.4v.1h-4.4z" fill="#fdb570"/><path clip-path="url(#g)" d="m39.9 26.6h4.4v.1h-4.4z" fill="#fdb571"/><path clip-path="url(#g)" d="m39.9 26.6h4.4v.1h-4.4z" fill="#fdb672"/><path clip-path="url(#g)" d="m39.9 26.5h4.4v.1h-4.4z" fill="#fdb773"/><path clip-path="url(#g)" d="m39.9 26.4h4.4v.1h-4.4z" fill="#fdb774"/><path clip-path="url(#g)" d="m39.9 26.3h4.4v.1h-4.4z" fill="#fdb875"/><path clip-path="url(#g)" d="m39.9 26.2h4.4v.1h-4.4z" fill="#fdb876"/><path clip-path="url(#g)" d="m39.9 26.1h4.4v.1h-4.4z" fill="#feb978"/><path clip-path="url(#g)" d="m39.9 26h4.4v.1h-4.4z" fill="#feb979"/><path clip-path="url(#g)" d="m39.9 25.9h4.4v.1h-4.4z" fill="#feba7a"/><path clip-path="url(#g)" d="m39.9 25.8h4.4v.1h-4.4z" fill="#feba7b"/><path clip-path="url(#g)" d="m39.9 25.7h4.4v.1h-4.4z" fill="#febb7c"/><path clip-path="url(#g)" d="m39.9 25.6h4.4v.1h-4.4z" fill="#febc7d"/><path clip-path="url(#g)" d="m39.9 25.5h4.4v.1h-4.4z" fill="#febc7e"/><path clip-path="url(#g)" d="m39.9 25.4h4.4v.1h-4.4z" fill="#febd7f"/><path clip-path="url(#g)" d="m39.9 25.3h4.4v.1h-4.4z" fill="#febd80"/><path clip-path="url(#g)" d="m39.9 25.2h4.4v.1h-4.4z" fill="#febe81"/><path clip-path="url(#g)" d="m39.9 25.1h4.4v.1h-4.4z" fill="#febe82"/><path clip-path="url(#g)" d="m39.9 25h4.4v.1h-4.4z" fill="#febf83"/><path clip-path="url(#g)" d="m39.9 24.9h4.4v.1h-4.4z" fill="#febf84"/><path clip-path="url(#g)" d="m39.9 24.8h4.4v.1h-4.4z" fill="#fec085"/><path clip-path="url(#g)" d="m39.9 24.7h4.4v.1h-4.4z" fill="#fec186"/><path clip-path="url(#g)" d="m39.9 24.6h4.4v.1h-4.4z" fill="#ffc187"/><path clip-path="url(#g)" d="m39.9 24.5h4.4v.1h-4.4z" fill="#ffc288"/><path clip-path="url(#g)" d="m39.9 24.4h4.4v.1h-4.4z" fill="#ffc289"/><path clip-path="url(#g)" d="m39.9 24.3h4.4v.1h-4.4z" fill="#ffc38a"/><path clip-path="url(#g)" d="m39.9 24.2h4.4v.1h-4.4z" fill="#ffc38b"/><path clip-path="url(#g)" d="m39.9 24.1h4.4v.1h-4.4z" fill="#ffc48c"/><path clip-path="url(#g)" d="m39.9 24h4.4v.1h-4.4z" fill="#ffc48d"/><path clip-path="url(#g)" d="m39.9 24h4.4v.1h-4.4z" fill="#ffc58e"/><path d="m35.8 43.4h21.4v2.9h-21.4z" fill="url(#i)"/><path d="m36.9 48.6h19.2v.9h-19.2z" fill="url(#j)"/><path d="m34.3 51.4h24.4v.9h-24.4z" fill="url(#k)"/><path d="m54.4 61.4h-15.8c-.4 0-.6-.3-.6-.6v-4.3c0-.4.3-.6.6-.6h15.8c.4 0 .6.3.6.6v4.3c0 .3-.3.6-.6.6z" fill="url(#l)"/><path d="m289.5 200.3c0-1.6-.6-3.1-1.8-4.3l-16-16 17.3-17.3c1.1-1.1.3-3-1.3-3h-36.4l-16 16c-1.2 1.2-1.8 2.8-1.8 4.3 0 1.6.6 3.1 1.8 4.3l16 16-17.3 17.3c-1.1 1.1-.3 3 1.3 3h36.4l16-16c.3-.3.6-.6.8-1 .7-.9 1-2.1 1-3.3z" fill="url(#m)"/><circle cx="237.6" cy="200.1" fill="url(#n)" r="11.8"/><path d="m269.6 183.6v19.6c0 1.5 1.2 2.8 2.8 2.8h13.7c1.5 0 2.8-1.2 2.8-2.8v-19.6z" fill="#fff"/><path d="m270 184.5v18.9c0 1.1.9 2.1 2.1 2.1h14.4c1.1 0 2.1-.9 2.1-2.1v-18.9h.9v18.9c0 1.6-1.3 2.9-2.9 2.9h-14.4c-1.6 0-2.9-1.3-2.9-2.9v-18.9" fill="url(#p)"/><path d="m287.3 173.2h-14c-1.2 0-2.1.9-2.1 2.1v9.2h18.2v-9.2c0-1.2-1-2.1-2.1-2.1z" fill="url(#r)"/><path d="m281.6 177.1c-.3-.2-.6-.4-.9-.5v1.6c1.1.4 1.5.9 1.5 1.7 0 .8-.6 1.4-1.5 1.5v.8h-.7v-.8c-.6-.1-1.2-.3-1.7-.8l.5-.7c.4.3.7.6 1.2.6v-1.5c-1-.4-1.5-.8-1.5-1.7 0-.8.6-1.4 1.5-1.5v-.5h.6v.5c.5.1 1 .3 1.4.6zm-1.6.9v-1.4c-.4.1-.6.3-.6.7.1.2.2.4.6.7zm.7 1.2v1.5c.4-.1.6-.3.6-.7 0-.4-.2-.6-.6-.8z" fill="#fff"/><g fill="#ccc"><path d="m274.3 187.9h11.8v.8h-11.8z"/><path d="m274.3 190.2h11.8v.8h-11.8z"/><path d="m284 193.3h-9.7v-.8h11.9v.8z"/><path d="m274.3 194.9h11.8v.8h-11.8z"/></g><path d="m285.6 202.3h-10.7c-.3 0-.5-.2-.5-.5v-3.7c0-.3.2-.5.5-.5h10.7c.3 0 .5.2.5.5v3.7c.1.3-.2.5-.5.5z" fill="url(#t)"/><path d="m234.2 183.6v19.6c0 1.5 1.2 2.8 2.8 2.8h14.7c1.5 0 2.8-1.2 2.8-2.8v-19.6z" fill="#fff"/><path d="m234.6 184.5v18.9c0 1.1.9 2.1 2.1 2.1h15.3c1.1 0 2.1-.9 2.1-2.1v-18.9h.9v18.9c0 1.6-1.3 2.9-2.9 2.9h-15.4c-1.6 0-2.9-1.3-2.9-2.9v-18.9" fill="url(#u)"/><path d="m249.8 173.2h-14c-1.2 0-2.1.9-2.1 2.1v9.2h18.2v-9.2c0-1.2-.9-2.1-2.1-2.1z" fill="url(#v)"/><path d="m244.2 177.1c-.3-.2-.6-.4-.9-.5v1.6c1.1.4 1.5.9 1.5 1.7 0 .8-.6 1.4-1.5 1.5v.8h-.6v-.8c-.6-.1-1.2-.3-1.7-.8l.5-.7c.4.3.7.6 1.2.6v-1.5c-1-.4-1.5-.8-1.5-1.7 0-.8.6-1.4 1.5-1.5v-.5h.6v.5c.5.1 1 .3 1.4.6zm-1.6.9v-1.4c-.4.1-.6.3-.6.7.1.2.2.4.6.7zm.6 1.2v1.5c.4-.1.6-.3.6-.7.1-.4-.1-.6-.6-.8z" fill="#fff"/><path d="m236.9 187.9h11.8v.8h-11.8z" fill="#ccc"/><path d="m236.9 190.2h11.8v.8h-11.8z" fill="#ccc"/><path d="m246.6 193.3h-9.7v-.8h11.9v.8z" fill="#ccc"/><path d="m236.9 194.9h11.8v.8h-11.8z" fill="#ccc"/><path d="m248.2 202.3h-10.7c-.3 0-.5-.2-.5-.5v-3.7c0-.3.2-.5.5-.5h10.7c.3 0 .5.2.5.5v3.7c0 .3-.2.5-.5.5z" fill="url(#w)"/><path d="m251.4 183.4v23c0 1.8 1.5 3.3 3.3 3.3h13.8c1.8 0 3.3-1.5 3.3-3.3v-23z" fill="#fff"/><path d="m251.9 184.4v22.2c0 1.3 1.1 2.4 2.4 2.4h14.5c1.3 0 2.4-1.1 2.4-2.4v-22.2h1v22.2c0 1.9-1.5 3.4-3.4 3.4h-14.5c-1.9 0-3.4-1.5-3.4-3.4v-22.2" fill="url(#x)"/><path d="m269.8 170h-16.4c-1.4 0-2.5 1.1-2.5 2.5v11.9h21.3v-11.9c0-1.4-1.1-2.5-2.4-2.5z" fill="url(#y)"/><path d="m263.1 175.7c-.3-.3-.7-.5-1.1-.6v1.9c1.3.5 1.8 1.1 1.8 2 0 1-.7 1.7-1.8 1.8v1h-.8v-1c-.7-.1-1.4-.4-2-.9l.6-.8c.4.4.9.7 1.4.8v-2c-1.2-.5-1.7-1-1.7-1.9 0-1 .7-1.6 1.7-1.8v-.6h.8v.6c.6.1 1.2.3 1.6.7zm-1.8 1.1v-1.6c-.5.1-.7.4-.7.8 0 .3.2.5.7.8zm.7 1.4v1.7c.5-.1.7-.4.7-.8 0-.4-.1-.6-.7-.9z" fill="#fff"/><path d="m254.6 188.4h13.9v.9h-13.9z" fill="#ccc"/><path d="m254.6 191.1h13.9v.9h-13.9z" fill="#ccc"/><path d="m266 194.8h-11.4v-.9h13.9v.9z" fill="#ccc"/><path d="m254.6 196.6h13.9v.9h-13.9z" fill="#ccc"/><path d="m267.8 205.4h-12.6c-.4 0-.6-.3-.6-.6v-4.3c0-.4.3-.6.6-.6h12.6c.4 0 .6.3.6.6v4.3c.1.3-.2.6-.6.6z" fill="url(#z)"/></svg>