<svg enable-background="new 0 0 75 83.8" viewBox="0 0 75 83.8" xmlns="http://www.w3.org/2000/svg" xmlns:xlink="http://www.w3.org/1999/xlink"><linearGradient id="a" gradientUnits="userSpaceOnUse" x1="28.4034" x2="47.4034" y1="11.4548" y2="70.4548"><stop offset="0" stop-color="#0f39c3"/><stop offset="1" stop-color="#fa96d3"/></linearGradient><linearGradient id="b" gradientTransform="matrix(1 -.00853353 .00853353 1 10.5532 -6.0618)" gradientUnits="userSpaceOnUse" x1="48.1486" x2="48.1486" y1="68.1445" y2="44.4779"><stop offset="0" stop-color="#fc7d76"/><stop offset="1" stop-color="#fcac60"/></linearGradient><linearGradient id="c" gradientUnits="userSpaceOnUse" x1="9.829" x2="56.5102" y1="40.0588" y2="40.0588"><stop offset="0" stop-color="#30a2e3"/><stop offset="1" stop-color="#2fddd1"/></linearGradient><path d="m66.2 52.2c0-1.6-.6-3.1-1.8-4.3l-16-16 17.3-17.3c1.1-1.1.3-3-1.3-3h-36.3l-16 16c-1.2 1.2-1.8 2.8-1.8 4.3 0 1.6.6 3.1 1.8 4.3l16 16-17.3 17.3c-1.1 1.1-.3 3 1.3 3h36.4l16-16c.3-.3.6-.6.8-1 .6-.9.9-2.1.9-3.3z" fill="url(#a)"/><circle cx="59.2" cy="49.8" fill="url(#b)" r="11.8"/><path d="m12.3 23.9c-1.4 0-2.5 1.1-2.5 2.5v27.4c0 1.4 1.1 2.5 2.5 2.5h41.7c1.4 0 2.5-1.1 2.5-2.5v-27.4c0-1.4-1.1-2.5-2.5-2.5z" fill="url(#c)"/><g fill="#fff"><path d="m17.9 31.9c-.9.5-1.4 1-1.3 1.6.4 0 .7.2 1 .5s.4.6.4.9c0 .4-.1.7-.4 1-.2.3-.6.4-.9.4-.4 0-.8-.2-1.1-.5s-.5-.7-.5-1.2c0-1.5.8-2.6 2.4-3.5zm4.1 0c-.9.5-1.3 1-1.3 1.6.4 0 .7.2 1 .5s.4.6.4.9c0 .4-.1.7-.4 1-.2.3-.5.4-.9.4s-.8-.2-1.1-.5-.5-.7-.5-1.2c0-1.5.8-2.6 2.4-3.5z"/><path d="m15.1 39.9h31.9v.9h-31.9z"/><path d="m15.1 42.6h35.9v.9h-35.9z"/><path d="m15.1 45.4h33.9v.9h-33.9z"/><path d="m15.1 48.1h27.9v.9h-27.9z"/></g></svg>