<svg enable-background="new 0 0 75 83.8" viewBox="0 0 75 83.8" xmlns="http://www.w3.org/2000/svg" xmlns:xlink="http://www.w3.org/1999/xlink"><linearGradient id="a"><stop offset="0" stop-color="#0f39c3"/><stop offset="1" stop-color="#fa96d3"/></linearGradient><linearGradient id="b" gradientUnits="userSpaceOnUse" x1="28.5376" x2="47.5376" xlink:href="#a" y1="11.612" y2="70.612"/><linearGradient id="c"><stop offset="0" stop-color="#fb6874"/><stop offset="1" stop-color="#f56fae"/></linearGradient><linearGradient id="d" gradientTransform="matrix(1 -.00853353 .00853353 1 8.7293 -5.296)" gradientUnits="userSpaceOnUse" x1="5.2612" x2="5.2612" xlink:href="#c" y1="69.3413" y2="45.6747"/><linearGradient id="e"><stop offset="0" stop-color="#f2f2f2"/><stop offset="1" stop-color="#b3b3b3"/></linearGradient><linearGradient id="f" gradientUnits="userSpaceOnUse" x1="46.3585" x2="66.691" xlink:href="#e" y1="36.6251" y2="56.6135"/><linearGradient id="g"><stop offset="0" stop-color="#30a2e3"/><stop offset="1" stop-color="#2fddd1"/></linearGradient><linearGradient id="h" gradientUnits="userSpaceOnUse" x1="47.9187" x2="66.6295" xlink:href="#g" y1="30.8974" y2="30.8974"/><linearGradient id="i"><stop offset=".001241987" stop-color="#fb993c"/><stop offset=".9988" stop-color="#ffc58e"/></linearGradient><linearGradient id="j" gradientUnits="userSpaceOnUse" x1="51.6386" x2="63.4253" xlink:href="#i" y1="52.0111" y2="52.0111"/><linearGradient id="k" gradientUnits="userSpaceOnUse" x1="10.471" x2="31.312" xlink:href="#e" y1="36.3751" y2="56.8635"/><linearGradient id="l" gradientUnits="userSpaceOnUse" x1="10.3013" x2="29.0121" xlink:href="#g" y1="30.8974" y2="30.8974"/><linearGradient id="m" gradientUnits="userSpaceOnUse" x1="13.5054" x2="25.2921" xlink:href="#i" y1="52.0111" y2="52.0111"/><linearGradient id="n" gradientUnits="userSpaceOnUse" x1="27.1287" x2="49.785" xlink:href="#e" y1="37.1722" y2="59.4451"/><linearGradient id="o" gradientUnits="userSpaceOnUse" x1="27.7943" x2="49.1364" xlink:href="#g" y1="29.2809" y2="29.2809"/><linearGradient id="p" gradientUnits="userSpaceOnUse" x1="31.5527" x2="45.3781" xlink:href="#i" y1="54.6331" y2="54.6331"/><linearGradient id="q" gradientUnits="userSpaceOnUse" x1="251.6592" x2="270.6592" xlink:href="#a" y1="159.5625" y2="218.5625"/><linearGradient id="r" gradientTransform="matrix(1 -.00853353 .00853353 1 8.7293 -5.296)" gradientUnits="userSpaceOnUse" x1="227.1121" x2="227.1121" xlink:href="#c" y1="219.1904" y2="195.5237"/><linearGradient id="s" gradientUnits="userSpaceOnUse" x1="269.0875" x2="289.42" xlink:href="#e" y1="184.5755" y2="204.5639"/><linearGradient id="t" gradientUnits="userSpaceOnUse" x1="271.1635" x2="289.3585" xlink:href="#g" y1="178.8479" y2="178.8479"/><linearGradient id="u" gradientUnits="userSpaceOnUse" x1="274.3676" x2="286.1544" xlink:href="#i" y1="199.9615" y2="199.9615"/><linearGradient id="v" gradientUnits="userSpaceOnUse" x1="233.9206" x2="254.7616" xlink:href="#e" y1="184.3256" y2="204.8139"/><linearGradient id="w" gradientUnits="userSpaceOnUse" x1="233.7509" x2="251.9458" xlink:href="#g" y1="178.8479" y2="178.8479"/><linearGradient id="x" gradientUnits="userSpaceOnUse" x1="236.955" x2="248.7417" xlink:href="#i" y1="199.9615" y2="199.9615"/><linearGradient id="y" gradientUnits="userSpaceOnUse" x1="250.218" x2="272.8743" xlink:href="#e" y1="185.1226" y2="207.3956"/><linearGradient id="z" gradientUnits="userSpaceOnUse" x1="250.8836" x2="272.2257" xlink:href="#g" y1="177.2314" y2="177.2314"/><linearGradient id="A" gradientUnits="userSpaceOnUse" x1="254.642" x2="268.4674" xlink:href="#i" y1="202.5835" y2="202.5835"/><path d="m66.4 52.4c0-1.6-.6-3.1-1.8-4.3l-16-16 17.3-17.3c1.1-1.1.3-3-1.3-3h-36.4l-16 16c-1.2 1.2-1.8 2.8-1.8 4.3 0 1.6.6 3.1 1.8 4.3l16 16-17.3 17.3c-1.1 1.1-.3 3 1.3 3h36.4l16-16c.3-.3.6-.6.8-1 .6-1 1-2.1 1-3.3z" fill="url(#b)"/><circle cx="14.5" cy="52.2" fill="url(#d)" r="11.8"/><path d="m46.9 35.7v19.6c0 1.5 1.2 2.8 2.8 2.8h13.7c1.5 0 2.8-1.2 2.8-2.8v-19.6z" fill="#fff"/><path d="m47.3 36.5v18.9c0 1.1.9 2.1 2.1 2.1h14.4c1.1 0 2.1-.9 2.1-2.1v-18.9h.9v18.9c0 1.6-1.3 2.9-2.9 2.9h-14.6c-1.6 0-2.9-1.3-2.9-2.9v-18.9" fill="url(#f)"/><path d="m64.5 25.3h-16.1c-1.2 0 0 .9 0 2.1v9.2h18.2v-9.2c0-1.2-.9-2.1-2.1-2.1z" fill="url(#h)"/><path d="m58.9 29.1c-.3-.2-.6-.4-.9-.5v1.6c1.1.4 1.5.9 1.5 1.7 0 .8-.6 1.4-1.5 1.5v.8h-.6v-.8c-.6-.1-1.2-.3-1.7-.8l.5-.7c.4.3.7.6 1.2.6v-1.5c-1-.4-1.5-.8-1.5-1.7 0-.8.6-1.4 1.5-1.5v-.5h.6v.5c.5.1 1 .3 1.4.6zm-1.6.9v-1.4c-.4.1-.6.3-.6.7 0 .3.2.5.6.7zm.6 1.2v1.5c.4-.1.6-.3.6-.7 0-.3-.1-.6-.6-.8z" fill="#fff"/><g fill="#ccc"><path d="m51.6 39.9h11.8v.8h-11.8z"/><path d="m51.6 42.3h11.8v.8h-11.8z"/><path d="m61.3 45.4h-9.7v-.8h11.9v.8z"/><path d="m51.6 46.9h11.8v.8h-11.8z"/></g><path d="m62.9 54.4h-10.7c-.3 0-.5-.2-.5-.5v-3.7c0-.3.2-.5.5-.5h10.7c.3 0 .5.2.5.5v3.7c0 .2-.2.5-.5.5z" fill="url(#j)"/><path d="m10.8 35.7v19.6c0 1.5 1.2 2.8 2.8 2.8h14.7c1.5 0 2.8-1.2 2.8-2.8v-19.6z" fill="#fff"/><path d="m11.2 36.5v18.9c0 1.1.9 2.1 2.1 2.1h15.4c1.1 0 2.1-.9 2.1-2.1v-18.9h.9v18.9c0 1.6-1.3 2.9-2.9 2.9h-15.6c-1.6 0-2.9-1.3-2.9-2.9v-18.9" fill="url(#k)"/><path d="m28.5 25.3h-16.1c-1.2 0-2.1.9-2.1 2.1v9.2h18.2v-9.2c0-1.2 1.2-2.1 0-2.1z" fill="url(#l)"/><path d="m20.7 29.1c-.3-.2-.6-.4-.9-.5v1.6c1.1.4 1.5.9 1.5 1.7 0 .8-.6 1.4-1.5 1.5v.8h-.6v-.8c-.6-.1-1.2-.3-1.7-.8l.5-.6c.4.3.7.6 1.2.6v-1.6c-1-.4-1.5-.8-1.5-1.7 0-.8.6-1.4 1.5-1.5v-.5h.6v.5c.5.1 1 .3 1.4.6zm-1.5.9v-1.4c-.4.1-.6.3-.6.7 0 .3.1.5.6.7zm.6 1.2v1.5c.4-.1.6-.3.6-.7 0-.3-.1-.6-.6-.8z" fill="#fff"/><path d="m13.5 39.9h11.8v.8h-11.8z" fill="#ccc"/><path d="m13.5 42.3h11.8v.8h-11.8z" fill="#ccc"/><path d="m23.1 45.4h-9.6v-.8h11.8v.8z" fill="#ccc"/><path d="m13.5 46.9h11.8v.8h-11.8z" fill="#ccc"/><path d="m24.7 54.4h-10.7c-.3 0-.5-.2-.5-.5v-3.7c0-.3.2-.5.5-.5h10.7c.3 0 .5.2.5.5v3.7c.1.2-.2.5-.5.5z" fill="url(#m)"/><path d="m28.3 35.5v23c0 1.8 1.5 3.3 3.3 3.3h13.8c1.8 0 3.3-1.5 3.3-3.3v-23z" fill="#fff"/><path d="m28.8 36.5v22.2c0 1.3 1.1 2.4 2.4 2.4h14.5c1.3 0 2.4-1.1 2.4-2.4v-22.2h1v22.2c0 1.9-1.5 3.4-3.4 3.4h-14.5c-1.9 0-3.4-1.5-3.4-3.4v-22.2" fill="url(#n)"/><path d="m46.7 22.1h-16.4c-1.4 0-2.5 1.1-2.5 2.5v11.9h21.3v-12c0-1.3-1.1-2.4-2.4-2.4z" fill="url(#o)"/><path d="m40 27.8c-.3-.3-.7-.5-1.1-.6v1.9c1.3.5 1.8 1.1 1.8 2 0 1-.7 1.7-1.8 1.8v1h-.8v-1c-.7-.1-1.4-.4-2-.9l.6-.8c.4.4.9.7 1.4.8v-2c-1.2-.5-1.7-1-1.7-1.9 0-1 .7-1.6 1.7-1.8v-.6h.9v.6c.6.1 1.2.3 1.6.7zm-1.8 1v-1.6c-.5.1-.7.4-.7.8 0 .3.2.6.7.8zm.7 1.5v1.7c.5-.1.7-.4.7-.8.1-.4-.1-.7-.7-.9z" fill="#fff"/><path d="m31.5 40.4h13.9v.9h-13.9z" fill="#ccc"/><path d="m31.5 43.2h13.9v.9h-13.9z" fill="#ccc"/><path d="m42.9 46.8h-11.4v-.9h13.9v.9z" fill="#ccc"/><path d="m31.5 48.7h13.9v.9h-13.9z" fill="#ccc"/><path d="m44.7 57.4h-12.5c-.4 0-.6-.3-.6-.6v-4.3c0-.4.3-.6.6-.6h12.6c.4 0 .6.3.6.6v4.3c0 .3-.3.6-.7.6z" fill="url(#p)"/><path d="m289.5 200.3c0-1.6-.6-3.1-1.8-4.3l-16-16 17.3-17.3c1.1-1.1.3-3-1.3-3h-36.4l-16 16c-1.2 1.2-1.8 2.8-1.8 4.3 0 1.6.6 3.1 1.8 4.3l16 16-17.3 17.3c-1.1 1.1-.3 3 1.3 3h36.4l16-16c.3-.3.6-.6.8-1 .7-.9 1-2.1 1-3.3z" fill="url(#q)"/><circle cx="237.6" cy="200.1" fill="url(#r)" r="11.8"/><path d="m269.6 183.6v19.6c0 1.5 1.2 2.8 2.8 2.8h13.7c1.5 0 2.8-1.2 2.8-2.8v-19.6z" fill="#fff"/><path d="m270 184.5v18.9c0 1.1.9 2.1 2.1 2.1h14.4c1.1 0 2.1-.9 2.1-2.1v-18.9h.9v18.9c0 1.6-1.3 2.9-2.9 2.9h-14.4c-1.6 0-2.9-1.3-2.9-2.9v-18.9" fill="url(#s)"/><path d="m287.3 173.2h-14c-1.2 0-2.1.9-2.1 2.1v9.2h18.2v-9.2c0-1.2-1-2.1-2.1-2.1z" fill="url(#t)"/><path d="m281.6 177.1c-.3-.2-.6-.4-.9-.5v1.6c1.1.4 1.5.9 1.5 1.7 0 .8-.6 1.4-1.5 1.5v.8h-.7v-.8c-.6-.1-1.2-.3-1.7-.8l.5-.7c.4.3.7.6 1.2.6v-1.5c-1-.4-1.5-.8-1.5-1.7 0-.8.6-1.4 1.5-1.5v-.5h.6v.5c.5.1 1 .3 1.4.6zm-1.6.9v-1.4c-.4.1-.6.3-.6.7.1.2.2.4.6.7zm.7 1.2v1.5c.4-.1.6-.3.6-.7 0-.4-.2-.6-.6-.8z" fill="#fff"/><path d="m274.3 187.9h11.8v.8h-11.8z" fill="#ccc"/><path d="m274.3 190.2h11.8v.8h-11.8z" fill="#ccc"/><path d="m284 193.3h-9.7v-.8h11.9v.8z" fill="#ccc"/><path d="m274.3 194.9h11.8v.8h-11.8z" fill="#ccc"/><path d="m285.6 202.3h-10.7c-.3 0-.5-.2-.5-.5v-3.7c0-.3.2-.5.5-.5h10.7c.3 0 .5.2.5.5v3.7c.1.3-.2.5-.5.5z" fill="url(#u)"/><path d="m234.2 183.6v19.6c0 1.5 1.2 2.8 2.8 2.8h14.7c1.5 0 2.8-1.2 2.8-2.8v-19.6z" fill="#fff"/><path d="m234.6 184.5v18.9c0 1.1.9 2.1 2.1 2.1h15.3c1.1 0 2.1-.9 2.1-2.1v-18.9h.9v18.9c0 1.6-1.3 2.9-2.9 2.9h-15.4c-1.6 0-2.9-1.3-2.9-2.9v-18.9" fill="url(#v)"/><path d="m249.8 173.2h-14c-1.2 0-2.1.9-2.1 2.1v9.2h18.2v-9.2c0-1.2-.9-2.1-2.1-2.1z" fill="url(#w)"/><path d="m244.2 177.1c-.3-.2-.6-.4-.9-.5v1.6c1.1.4 1.5.9 1.5 1.7 0 .8-.6 1.4-1.5 1.5v.8h-.6v-.8c-.6-.1-1.2-.3-1.7-.8l.5-.7c.4.3.7.6 1.2.6v-1.5c-1-.4-1.5-.8-1.5-1.7 0-.8.6-1.4 1.5-1.5v-.5h.6v.5c.5.1 1 .3 1.4.6zm-1.6.9v-1.4c-.4.1-.6.3-.6.7.1.2.2.4.6.7zm.6 1.2v1.5c.4-.1.6-.3.6-.7.1-.4-.1-.6-.6-.8z" fill="#fff"/><path d="m236.9 187.9h11.8v.8h-11.8z" fill="#ccc"/><path d="m236.9 190.2h11.8v.8h-11.8z" fill="#ccc"/><path d="m246.6 193.3h-9.7v-.8h11.9v.8z" fill="#ccc"/><path d="m236.9 194.9h11.8v.8h-11.8z" fill="#ccc"/><path d="m248.2 202.3h-10.7c-.3 0-.5-.2-.5-.5v-3.7c0-.3.2-.5.5-.5h10.7c.3 0 .5.2.5.5v3.7c0 .3-.2.5-.5.5z" fill="url(#x)"/><path d="m251.4 183.4v23c0 1.8 1.5 3.3 3.3 3.3h13.8c1.8 0 3.3-1.5 3.3-3.3v-23z" fill="#fff"/><path d="m251.9 184.4v22.2c0 1.3 1.1 2.4 2.4 2.4h14.5c1.3 0 2.4-1.1 2.4-2.4v-22.2h1v22.2c0 1.9-1.5 3.4-3.4 3.4h-14.5c-1.9 0-3.4-1.5-3.4-3.4v-22.2" fill="url(#y)"/><path d="m269.8 170h-16.4c-1.4 0-2.5 1.1-2.5 2.5v11.9h21.3v-11.9c0-1.4-1.1-2.5-2.4-2.5z" fill="url(#z)"/><path d="m263.1 175.7c-.3-.3-.7-.5-1.1-.6v1.9c1.3.5 1.8 1.1 1.8 2 0 1-.7 1.7-1.8 1.8v1h-.8v-1c-.7-.1-1.4-.4-2-.9l.6-.8c.4.4.9.7 1.4.8v-2c-1.2-.5-1.7-1-1.7-1.9 0-1 .7-1.6 1.7-1.8v-.6h.8v.6c.6.1 1.2.3 1.6.7zm-1.8 1.1v-1.6c-.5.1-.7.4-.7.8 0 .3.2.5.7.8zm.7 1.4v1.7c.5-.1.7-.4.7-.8 0-.4-.1-.6-.7-.9z" fill="#fff"/><path d="m254.6 188.4h13.9v.9h-13.9z" fill="#ccc"/><path d="m254.6 191.1h13.9v.9h-13.9z" fill="#ccc"/><path d="m266 194.8h-11.4v-.9h13.9v.9z" fill="#ccc"/><path d="m254.6 196.6h13.9v.9h-13.9z" fill="#ccc"/><path d="m267.8 205.4h-12.6c-.4 0-.6-.3-.6-.6v-4.3c0-.4.3-.6.6-.6h12.6c.4 0 .6.3.6.6v4.3c.1.3-.2.6-.6.6z" fill="url(#A)"/></svg>