<svg enable-background="new 0 0 75 83.8" viewBox="0 0 75 83.8" xmlns="http://www.w3.org/2000/svg" xmlns:xlink="http://www.w3.org/1999/xlink"><linearGradient id="a" gradientUnits="userSpaceOnUse" x1="28.441" x2="47.441" y1="11.4548" y2="70.4548"><stop offset="0" stop-color="#f56fae"/><stop offset="1" stop-color="#fb6874"/></linearGradient><linearGradient id="b"><stop offset="0" stop-color="#0e48b5"/><stop offset="1" stop-color="#30a2e3"/></linearGradient><linearGradient id="c" gradientTransform="matrix(.9239 -.3827 .3827 .9239 324.5577 -365.7417)" gradientUnits="userSpaceOnUse" x1="-446.7936" x2="-439.3215" xlink:href="#b" y1="283.375" y2="283.3113"/><linearGradient id="d"><stop offset="0" stop-color="#749cfc"/><stop offset="1" stop-color="#ab5af1"/></linearGradient><linearGradient id="e" gradientUnits="userSpaceOnUse" x1="21.7499" x2="30.3653" xlink:href="#d" y1="65.0692" y2="65.0692"/><linearGradient id="f"><stop offset=".001241987" stop-color="#fb993c"/><stop offset=".9988" stop-color="#ffc58e"/></linearGradient><linearGradient id="g" gradientTransform="matrix(.9239 -.3827 .3827 .9239 324.5577 -365.7417)" gradientUnits="userSpaceOnUse" x1="-418.0286" x2="-407.7072" xlink:href="#f" y1="267.0006" y2="266.9125"/><linearGradient id="h" gradientUnits="userSpaceOnUse" x1="11.6952" x2="17.7436" xlink:href="#b" y1="44.2729" y2="58.8777"/><linearGradient id="i" gradientUnits="userSpaceOnUse" x1="14.1618" x2="21.6363" xlink:href="#f" y1="41.4776" y2="58.787"/><linearGradient id="j" gradientUnits="userSpaceOnUse" x1="36.9676" x2="49.9496" xlink:href="#b" y1="23.5702" y2="55.2877"/><linearGradient id="k" gradientTransform="matrix(.9239 -.3827 .3827 .9239 324.5577 -365.7417)" gradientUnits="userSpaceOnUse" x1="-436.1725" x2="-409.3638" y1="267.131" y2="266.9022"><stop offset="0" stop-color="#f2f2f2"/><stop offset="1" stop-color="#b3b3b3"/></linearGradient><linearGradient id="l" gradientUnits="userSpaceOnUse" x1="7.0775" x2="22.5693" xlink:href="#d" y1="67.9214" y2="67.9214"/><path d="m66.3 52.2c0-1.6-.6-3.1-1.8-4.3l-16-16 17.3-17.3c1.1-1.1.3-3-1.3-3h-36.4l-16 16c-1.2 1.2-1.8 2.8-1.8 4.3 0 1.6.6 3.1 1.8 4.3l16 16-17.3 17.3c-1.1 1.1-.3 3 1.3 3h36.4l16-16c.3-.3.6-.6.8-1 .6-.9 1-2.1 1-3.3z" fill="url(#a)"/><path d="m27.4 72.3-3.5 1.4c-.4.2-.9 0-1.1-.4l-5.2-12.6c-.2-.4 0-.9.4-1.1l3.5-1.4c.4-.2.9 0 1.1.4l5.2 12.6c.3.4.1.9-.4 1.1z" fill="url(#c)"/><path d="m29.9 65.7c0-.1 0-.2-.1-.4s0 0 0-.1-.1-.2-.1-.2 0-.1-.1-.1c-.2-.3-.6-.5-1-.5-.5-.1-.2-.5-.2-.5.3-.4.4-1 .2-1.5s-.6-.8-1.1-.8-.3 0-.4-.2.1-.3.1-.3c.4-.4.5-1 .3-1.5-.3-.7-1.2-1.1-1.9-.8l-.6.3h-.1l-2.3.9c-.7.3-1.1 1.1-.8 1.9.2.6.8.9 1.4.9.1 0 .2 0 .2.1s-.2.2-.2.2c-.7.3-1.1 1.1-.8 1.9.3.7 1 1 1.7.8s.2-.1.2 0-.1.1-.1.2c-.5.4-.8 1.1-.5 1.7.3.7 1 1 1.7.8h.2c0 .1-.2.2-.2.2-.6.4-.9 1.1-.6 1.8s1.1 1.1 1.9.8l2.3-1c.1 0 .1-.1.2-.1l.2-.1c.7-.3 1.1-1.2.8-1.9-.2-.4-.6-.7-1-.8-.2 0-.2-.2-.2-.3.1-.1.2-.2.2-.2.1-.1.2-.2.3-.3 0 0 .1-.1.1-.1.1-.1.1-.2.2-.3v-.1c0-.1 0-.2 0-.4z" fill="url(#e)"/><path d="m47.6 37.9c.9 2.2 0 4.6-1.9 5.4-2 .8-4.3-.3-5.2-2.5s0-4.6 1.9-5.4c2-.7 4.3.4 5.2 2.5z" fill="url(#g)"/><path d="m21.1 57.8-6.5 2.7c-1 .4-2.2-.1-2.6-1.1l-4.8-11.5c-.4-1 .1-2.2 1.1-2.6l6.5-2.7c1-.4 2.2.1 2.6 1.1l4.8 11.6c.4 1 0 2.1-1.1 2.5z" fill="url(#h)"/><path d="m26.6 56.9-10 4.2c-.5.2-1 0-1.2-.5l-6.6-15.9c-.2-.5 0-1 .5-1.2l10-4.2c.5-.2 1 0 1.2.5l6.6 15.9c.2.5 0 1-.5 1.2z" fill="url(#i)"/><path d="m51.4 55-2.6 1c-.5.2-1 0-1.2-.5l-12.4-30c-.2-.5 0-1 .5-1.2l2.6-1.1c.5-.2 1 0 1.2.5l12.5 30.1c.1.4-.1 1-.6 1.2z" fill="url(#j)"/><path d="m20.5 39.8 6.6 15.9c8.6-3.4 16.8-3.4 20.4-.4l-12.2-29.7c-.5 4.8-6.3 10.6-14.8 14.2z" fill="url(#k)"/><g fill="#ffc58e"><path d="m53.1 36.9c-.5 0-.9-.3-1.1-.7-.2-.6 0-1.3.6-1.5l10.1-4.2c.6-.3 1.3 0 1.5.6s0 1.3-.6 1.5l-10.1 4.2c-.1 0-.3.1-.4.1z"/><path d="m64 51.3c-.2 0-.5-.1-.7-.2l-9-6.1c-.5-.4-.7-1.1-.3-1.6s1.1-.7 1.6-.3l9 6.1c.5.4.7 1.1.3 1.6-.1.3-.5.5-.9.5z"/><path d="m48.5 29.6c-.1 0-.1 0-.2 0-.6-.1-1.1-.7-.9-1.4l2.1-10.7c.1-.6.7-1.1 1.4-.9.6.1 1.1.7.9 1.4l-2.1 10.7c-.1.5-.6.9-1.2.9z"/></g><path d="m22.1 72.7c-.5 0-.9.1-1.4 0-2.4-.2-2.9-.5-4.1 0-.3.1-.5.2-.6.2 0 0 0 0-.1 0-.9.5-4.3 3-4.3 3-1.1.5-2.8-1.2-3.9-3.7s-1.1-4.9 0-5.3c0 0 3.7-.5 5.1-1 .4-.2.1 0 .6-.3.8-.4 1.4-.8 1.9-1.9.3-.8.8-2.1 1.5-3.1 0 0 .2-.3.4-.5.4-.4 1-.5 1.6-.3l2.2.9c.7.3 1.1 1.1.8 1.9-.3.7-1.1 1.1-1.9.8l-.8-.3c-.6-.3-.6 0 .6 2.9s2.7 6.5 2.7 6.5z" fill="url(#l)"/></svg>