<?xml version="1.0" encoding="utf-8"?>
<!-- Generator: Adobe Illustrator 21.1.0, SVG Export Plug-In . SVG Version: 6.00 Build 0)  -->
<svg version="1.1" id="Layer_1" xmlns="http://www.w3.org/2000/svg" xmlns:xlink="http://www.w3.org/1999/xlink" x="0px" y="0px"
	 viewBox="0 0 75 83.8" style="enable-background:new 0 0 75 83.8;" xml:space="preserve">
<style type="text/css">
	.st0{fill:url(#SVGID_1_);}
	.st1{fill:url(#SVGID_2_);}
	.st2{fill:url(#SVGID_3_);}
	.st3{fill:#FFFFFF;}
	.st4{fill:url(#SVGID_4_);}
	.st5{fill:url(#SVGID_5_);}
	.st6{fill:url(#SVGID_6_);}
	.st7{fill:url(#SVGID_7_);}
	.st8{opacity:0.3;}
	.st9{fill:url(#SVGID_8_);}
	.st10{fill:url(#SVGID_9_);}
</style>
<g>
	
		<linearGradient id="SVGID_1_" gradientUnits="userSpaceOnUse" x1="45.7692" y1="48.0604" x2="45.7692" y2="24.3938" gradientTransform="matrix(1 -8.533533e-03 8.533533e-03 1 8.7293 -5.296)">
		<stop  offset="0" style="stop-color:#AB5AF1"/>
		<stop  offset="1" style="stop-color:#749CFC"/>
	</linearGradient>
	<circle class="st0" cx="54.8" cy="30.5" r="11.8"/>
	<g>
		<linearGradient id="SVGID_2_" gradientUnits="userSpaceOnUse" x1="29.0288" y1="11.5063" x2="48.0288" y2="70.5062">
			<stop  offset="0" style="stop-color:#6BF9EB"/>
			<stop  offset="0.5162" style="stop-color:#30A2E3"/>
			<stop  offset="1" style="stop-color:#0E48B5"/>
		</linearGradient>
		<path class="st1" d="M66.9,52.3L66.9,52.3L66.9,52.3c0-1.6-0.6-3.1-1.8-4.3l-16-16l17.3-17.3c1.1-1.1,0.3-3-1.3-3H28.7l0,0l0,0
			l0,0l0,0l0,0v0v0l-16,16c-1.2,1.2-1.8,2.8-1.8,4.3c0,1.6,0.6,3.1,1.8,4.3l16,16v0l0,0h0L11.4,69.6c-1.1,1.1-0.3,3,1.3,3h36.4l0,0
			v0l0,0l0,0l0,0v0l16-16c0.3-0.3,0.6-0.6,0.8-1C66.5,54.6,66.9,53.5,66.9,52.3L66.9,52.3C66.9,52.3,66.9,52.3,66.9,52.3L66.9,52.3z
			"/>
	</g>
	<g>
		<linearGradient id="SVGID_3_" gradientUnits="userSpaceOnUse" x1="49.0229" y1="35.0077" x2="31.6785" y2="35.0077">
			<stop  offset="0" style="stop-color:#F2F2F2"/>
			<stop  offset="1" style="stop-color:#B3B3B3"/>
		</linearGradient>
		<path class="st2" d="M48.8,40.3c0,0-0.1,0-0.1,0l-16.8-10c-0.1-0.1-0.2-0.2-0.1-0.3c0.1-0.1,0.2-0.2,0.3-0.1l16.8,10
			c0.1,0.1,0.2,0.2,0.1,0.3C48.9,40.2,48.9,40.3,48.8,40.3z"/>
	</g>
	<g>
		<g>
			<circle class="st3" cx="31.9" cy="19.4" r="2.8"/>
			<g>
				<path class="st3" d="M32,31.3c-1,0-1.7-0.7-1.7-1.5c0-0.8,0.1-1,0.9-1.9c0.5-0.5,0.4-1.1,0.4-1.1l0-0.2c0-0.3,0.2-0.5,0.5-0.5
					c0.3,0,0.5,0.2,0.5,0.5v0.2c0,0,0.1,1.1-0.7,1.9c-0.6,0.6-0.6,0.6-0.6,1.1c0,0.4,0.4,0.5,0.7,0.5c0.2,0,0.4,0,0.5-0.2
					c0.1-0.2,0.1-0.4,0.1-0.8c-0.1-0.3,0.1-0.5,0.4-0.6c0.3-0.1,0.5,0.1,0.6,0.4c0.2,0.8,0,1.4-0.2,1.6C33,31.1,32.5,31.3,32,31.3z"
					/>
			</g>
			<linearGradient id="SVGID_4_" gradientUnits="userSpaceOnUse" x1="31.7031" y1="25.8538" x2="32.1452" y2="27.2265">
				<stop  offset="0" style="stop-color:#FB6874"/>
				<stop  offset="1" style="stop-color:#FC7D76"/>
			</linearGradient>
			<path class="st4" d="M32.8,27H31c-0.1,0-0.2-0.1-0.2-0.2v-0.4c0-0.1,0.1-0.2,0.2-0.2h1.8c0.1,0,0.2,0.1,0.2,0.2v0.4
				C33,26.9,32.9,27,32.8,27z"/>
			<g>
				<g>
					<linearGradient id="SVGID_5_" gradientUnits="userSpaceOnUse" x1="29.3121" y1="10.2566" x2="29.3121" y2="18.987">
						<stop  offset="0" style="stop-color:#F2F2F2"/>
						<stop  offset="1" style="stop-color:#B3B3B3"/>
					</linearGradient>
					<path class="st5" d="M29.3,18.4c-0.2,0-0.3-0.1-0.3-0.3V9.7c0-0.2,0.1-0.3,0.3-0.3c0.2,0,0.3,0.1,0.3,0.3v8.4
						C29.6,18.3,29.5,18.4,29.3,18.4z"/>
				</g>
				<g>
					<linearGradient id="SVGID_6_" gradientUnits="userSpaceOnUse" x1="34.5367" y1="10.2566" x2="34.5367" y2="18.987">
						<stop  offset="0" style="stop-color:#F2F2F2"/>
						<stop  offset="1" style="stop-color:#B3B3B3"/>
					</linearGradient>
					<path class="st6" d="M34.5,18.4c-0.2,0-0.3-0.1-0.3-0.3V9.7c0-0.2,0.1-0.3,0.3-0.3s0.3,0.1,0.3,0.3v8.4
						C34.8,18.3,34.7,18.4,34.5,18.4z"/>
				</g>
			</g>
			<linearGradient id="SVGID_7_" gradientUnits="userSpaceOnUse" x1="30.733" y1="17.4916" x2="33.6366" y2="26.5082">
				<stop  offset="0" style="stop-color:#FB6874"/>
				<stop  offset="1" style="stop-color:#FC7D76"/>
			</linearGradient>
			<path class="st7" d="M35.6,20.4C35.6,20.4,35.6,20.4,35.6,20.4c0.1-0.5,0.2-1.1-0.3-1.9c-0.2-0.3-0.3-0.5-0.3-0.5h-2.7h-0.8h-2.7
				c0,0-0.2,0.2-0.3,0.5c-0.5,0.8-0.3,1.4-0.2,1.8c0,0,0,0,0,0l0,0.2c0.1,1.1,0.5,3.2,0.6,4.2l0.1,0.6c0,0.5,0.4,0.8,0.8,0.8h0H34h0
				c0.5,0,0.8-0.4,0.8-0.8l0.1-0.6c0.2-1,0.5-3.1,0.6-4.2L35.6,20.4z"/>
			<circle class="st8" cx="31.9" cy="20.1" r="1"/>
		</g>
		<linearGradient id="SVGID_8_" gradientUnits="userSpaceOnUse" x1="8.5835" y1="52.7485" x2="55.2648" y2="52.7485">
			<stop  offset="1.241987e-03" style="stop-color:#FB993C"/>
			<stop  offset="0.9988" style="stop-color:#FFC58E"/>
		</linearGradient>
		<path class="st9" d="M52.8,41.4h-1.6v-0.8c0-0.5-0.4-0.9-0.9-0.9H47c-0.5,0-0.9,0.4-0.9,0.9v0.8H17.8v-0.8c0-0.5-0.4-0.9-0.9-0.9
			h-3.3c-0.5,0-0.9,0.4-0.9,0.9v0.8h-1.6c-1.4,0-2.5,1.1-2.5,2.5v19.4c0,1.4,1.1,2.5,2.5,2.5h41.7c1.4,0,2.5-1.1,2.5-2.5V43.9
			C55.3,42.6,54.2,41.4,52.8,41.4z"/>
		<g>
			<rect x="11.4" y="44.4" class="st3" width="8.6" height="18.5"/>
			<rect x="22.2" y="44.4" class="st3" width="8.6" height="18.5"/>
			<rect x="33" y="44.4" class="st3" width="8.6" height="18.5"/>
			<rect x="43.9" y="44.4" class="st3" width="8.6" height="18.5"/>
		</g>
	</g>
	<g>
		<linearGradient id="SVGID_9_" gradientUnits="userSpaceOnUse" x1="14.825" y1="35.0077" x2="32.1694" y2="35.0077">
			<stop  offset="0" style="stop-color:#F2F2F2"/>
			<stop  offset="1" style="stop-color:#B3B3B3"/>
		</linearGradient>
		<path class="st10" d="M15.1,40.3c-0.1,0-0.2,0-0.2-0.1c-0.1-0.1,0-0.3,0.1-0.3l16.8-10c0.1-0.1,0.3,0,0.3,0.1
			c0.1,0.1,0,0.3-0.1,0.3l-16.8,10C15.2,40.2,15.1,40.3,15.1,40.3z"/>
	</g>
</g>
</svg>
