<?xml version="1.0" encoding="utf-8"?>
<!-- Generator: Adobe Illustrator 21.1.0, SVG Export Plug-In . SVG Version: 6.00 Build 0)  -->
<svg version="1.1" id="Layer_1" xmlns="http://www.w3.org/2000/svg" xmlns:xlink="http://www.w3.org/1999/xlink" x="0px" y="0px"
	 viewBox="0 0 75 83.8" style="enable-background:new 0 0 75 83.8;" xml:space="preserve">
<style type="text/css">
	.st0{fill:url(#SVGID_1_);}
	.st1{fill:url(#SVGID_2_);}
	.st2{fill:#CCCCCC;}
	.st3{fill:url(#SVGID_3_);}
	.st4{fill:url(#SVGID_4_);}
	.st5{fill:#FFFFFF;}
	.st6{fill:url(#SVGID_5_);}
	.st7{fill:url(#SVGID_6_);}
	.st8{fill:url(#SVGID_7_);}
	.st9{opacity:0.4;fill:#FFFFFF;}
	.st10{fill:url(#SVGID_8_);}
	.st11{fill:url(#SVGID_9_);}
	.st12{fill:url(#SVGID_10_);}
	.st13{fill:url(#SVGID_11_);}
	.st14{fill:url(#SVGID_12_);}
	.st15{fill:url(#SVGID_13_);}
</style>
<g>
	
		<linearGradient id="SVGID_1_" gradientUnits="userSpaceOnUse" x1="14.675" y1="70.2765" x2="14.675" y2="46.6098" gradientTransform="matrix(1 -8.533533e-03 8.533533e-03 1 9.6444 -6.0579)">
		<stop  offset="1.241987e-03" style="stop-color:#FB993C"/>
		<stop  offset="0.9988" style="stop-color:#FFC58E"/>
	</linearGradient>
	<circle class="st0" cx="24.8" cy="52.3" r="11.8"/>
	<linearGradient id="SVGID_2_" gradientUnits="userSpaceOnUse" x1="28.431" y1="11.4548" x2="48.1421" y2="72.6628">
		<stop  offset="0" style="stop-color:#0E48B5"/>
		<stop  offset="0.4838" style="stop-color:#30A2E3"/>
		<stop  offset="1" style="stop-color:#6BF9EB"/>
	</linearGradient>
	<path class="st1" d="M66.3,52.2L66.3,52.2L66.3,52.2c0-1.6-0.6-3.1-1.8-4.3l-16-16l17.3-17.3c1.1-1.1,0.3-3-1.3-3H28.1l0,0l0,0l0,0
		l0,0l0,0v0v0l-16,16c-1.2,1.2-1.8,2.8-1.8,4.3c0,1.6,0.6,3.1,1.8,4.3l16,16v0l0,0h0L10.8,69.5c-1.1,1.1-0.3,3,1.3,3h36.4l0,0v0l0,0
		l0,0l0,0v0l16-16c0.3-0.3,0.6-0.6,0.8-1C65.9,54.6,66.3,53.4,66.3,52.2L66.3,52.2C66.3,52.2,66.3,52.2,66.3,52.2L66.3,52.2z"/>
	<g>
		<g>
			<g>
				<g>
					<g>
						<g>
							<polygon class="st2" points="36.6,69.2 30.1,77.2 32.5,67.2 							"/>
						</g>
					</g>
				</g>
			</g>
		</g>
		
			<linearGradient id="SVGID_3_" gradientUnits="userSpaceOnUse" x1="59.1602" y1="24.9817" x2="63.4265" y2="29.248" gradientTransform="matrix(1 0 0 1 -2.02 -6.0921)">
			<stop  offset="0" style="stop-color:#FC7D76"/>
			<stop  offset="1" style="stop-color:#FCAC60"/>
		</linearGradient>
		<path class="st3" d="M55.5,26l-1.1-1.1c-0.9-0.9-0.9-2.3,0-3.1l5.6-5.6c0.9-0.9,2.3-0.9,3.1,0l1.1,1.1c0.9,0.9,0.9,2.3,0,3.1
			L58.6,26C57.7,26.8,56.3,26.8,55.5,26z"/>
		<g>
			
				<linearGradient id="SVGID_4_" gradientUnits="userSpaceOnUse" x1="31.9353" y1="49.3428" x2="46.1955" y2="49.3428" gradientTransform="matrix(1 0 0 1 -2.02 -6.0921)">
				<stop  offset="0" style="stop-color:#B3B3B3"/>
				<stop  offset="1" style="stop-color:#F2F2F2"/>
			</linearGradient>
			<path class="st4" d="M41.8,50L30.3,38.5c-0.5-0.5-0.5-1.4,0-2h0c0.5-0.5,1.4-0.5,2,0L43.8,48c0.5,0.5,0.5,1.4,0,2l0,0
				C43.2,50.5,42.3,50.5,41.8,50z"/>
			<g>
				<path class="st5" d="M39.9,42.4c0.3-0.3,0.3-0.8,0-1.1L39,40.4c-0.3-0.3-0.8-0.3-1.1,0l-0.7,0.7l2,2L39.9,42.4z"/>
				
					<linearGradient id="SVGID_5_" gradientUnits="userSpaceOnUse" x1="538.536" y1="-890.4016" x2="540.7954" y2="-897.0219" gradientTransform="matrix(0.7071 0.7071 -0.7071 0.7071 -976.8859 293.0055)">
					<stop  offset="0" style="stop-color:#FC7D76"/>
					<stop  offset="1" style="stop-color:#FCAC60"/>
				</linearGradient>
				<path class="st6" d="M39.9,42.4c0.3-0.3,0.3-0.8,0-1.1L39,40.4c-0.3-0.3-0.8-0.3-1.1,0l-0.7,0.7l2,2L39.9,42.4z"/>
				
					<rect x="36.7" y="41.3" transform="matrix(0.7071 -0.7071 0.7071 0.7071 -19.1845 39.0898)" class="st5" width="1.7" height="2.8"/>
				<linearGradient id="SVGID_6_" gradientUnits="userSpaceOnUse" x1="35.9898" y1="42.7027" x2="39.197" y2="42.7027">
					<stop  offset="0" style="stop-color:#FC7D76"/>
					<stop  offset="1" style="stop-color:#FCAC60"/>
				</linearGradient>
				<polygon class="st7" points="38,44.3 39.2,43.1 37.2,41.1 36,42.3 				"/>
				<path class="st5" d="M34.1,44.2c-0.3,0.3-0.3,0.8,0,1.1l0.9,0.9c0.3,0.3,0.8,0.3,1.1,0l0.7-0.7l-2-2L34.1,44.2z"/>
				<linearGradient id="SVGID_7_" gradientUnits="userSpaceOnUse" x1="33.8835" y1="44.9712" x2="36.7663" y2="44.9712">
					<stop  offset="0" style="stop-color:#FC7D76"/>
					<stop  offset="1" style="stop-color:#FCAC60"/>
				</linearGradient>
				<path class="st8" d="M34.1,44.2c-0.3,0.3-0.3,0.8,0,1.1l0.9,0.9c0.3,0.3,0.8,0.3,1.1,0l0.7-0.7l-2-2L34.1,44.2z"/>
				
					<rect x="36.7" y="41.3" transform="matrix(0.7071 -0.7071 0.7071 0.7071 -19.1845 39.0898)" class="st9" width="1.7" height="2.8"/>
				<path class="st9" d="M34.1,44.2c-0.3,0.3-0.3,0.8,0,1.1l0.9,0.9c0.3,0.3,0.8,0.3,1.1,0l0.7-0.7l-2-2L34.1,44.2z"/>
				
					<rect x="35.5" y="42.5" transform="matrix(0.7071 -0.7071 0.7071 0.7071 -20.3998 38.5864)" class="st5" width="1.7" height="2.8"/>
				
					<linearGradient id="SVGID_8_" gradientUnits="userSpaceOnUse" x1="539.4872" y1="-890.077" x2="541.7466" y2="-896.6973" gradientTransform="matrix(0.7071 0.7071 -0.7071 0.7071 -976.8859 293.0055)">
					<stop  offset="0" style="stop-color:#FC7D76"/>
					<stop  offset="1" style="stop-color:#FCAC60"/>
				</linearGradient>
				<polygon class="st10" points="34.8,43.5 36.8,45.5 38,44.3 36,42.3 				"/>
			</g>
			<g>
				<g>
					<g>
						<g>
							
								<linearGradient id="SVGID_9_" gradientUnits="userSpaceOnUse" x1="214.2307" y1="136.4496" x2="214.2307" y2="94.3704" gradientTransform="matrix(0.4408 0.8976 -0.8976 0.4408 40.1689 -206.6163)">
								<stop  offset="0" style="stop-color:#F2F2F2"/>
								<stop  offset="1" style="stop-color:#B3B3B3"/>
							</linearGradient>
							<polygon class="st11" points="13.1,47.8 11.1,43.7 48.9,25.3 50.9,29.4 							"/>
						</g>
						<g>
							<polygon class="st2" points="11.1,43.7 3.1,50.2 13.1,47.8 							"/>
						</g>
					</g>
					<g>
						<g>
							<linearGradient id="SVGID_10_" gradientUnits="userSpaceOnUse" x1="32.4551" y1="49.2826" x2="55.0297" y2="49.2826">
								<stop  offset="0" style="stop-color:#F2F2F2"/>
								<stop  offset="1" style="stop-color:#B3B3B3"/>
							</linearGradient>
							<polygon class="st12" points="32.5,67.2 36.6,69.2 55,31.4 50.9,29.3 							"/>
						</g>
					</g>
				</g>
				
					<linearGradient id="SVGID_11_" gradientUnits="userSpaceOnUse" x1="552.3429" y1="-873.7085" x2="557.3429" y2="-873.7085" gradientTransform="matrix(0.7071 0.7071 -0.7071 0.7071 -976.8859 293.0055)">
					<stop  offset="0" style="stop-color:#FCAC60"/>
					<stop  offset="1" style="stop-color:#FC7D76"/>
				</linearGradient>
				<circle class="st13" cx="33.3" cy="67.5" r="2.5"/>
			</g>
		</g>
		
			<linearGradient id="SVGID_12_" gradientUnits="userSpaceOnUse" x1="552.1913" y1="-907.952" x2="538.6961" y2="-921.4472" gradientTransform="matrix(0.7071 0.7071 -0.7071 0.7071 -980.3837 289.3056)">
			<stop  offset="0" style="stop-color:#FC7D76"/>
			<stop  offset="1" style="stop-color:#FCAC60"/>
		</linearGradient>
		<circle class="st14" cx="52.1" cy="28.2" r="9.5"/>
		<ellipse transform="matrix(0.7071 -0.7071 0.7071 0.7071 -4.6844 45.0959)" class="st5" cx="52.1" cy="28.2" rx="4.2" ry="4.2"/>
		
			<linearGradient id="SVGID_13_" gradientUnits="userSpaceOnUse" x1="535.1981" y1="-912.0918" x2="536.1981" y2="-912.0918" gradientTransform="matrix(0.7071 0.7071 -0.7071 0.7071 -971.6486 294.3528)">
			<stop  offset="0" style="stop-color:#FC7D76"/>
			<stop  offset="1" style="stop-color:#FCAC60"/>
		</linearGradient>
		<path class="st15" d="M50.1,30.2L50.1,30.2c-0.2-0.2-0.2-0.5,0-0.7l3.4-3.4c0.2-0.2,0.5-0.2,0.7,0l0,0c0.2,0.2,0.2,0.5,0,0.7
			l-3.4,3.4C50.6,30.4,50.3,30.4,50.1,30.2z"/>
	</g>
</g>
</svg>
