<svg enable-background="new 0 0 75 83.8" viewBox="0 0 75 83.8" xmlns="http://www.w3.org/2000/svg" xmlns:xlink="http://www.w3.org/1999/xlink"><linearGradient id="a"><stop offset=".001241987" stop-color="#fb993c"/><stop offset=".9988" stop-color="#ffc58e"/></linearGradient><linearGradient id="b" gradientTransform="matrix(1 -.00853353 .00853353 1 8.7271 -6.054)" gradientUnits="userSpaceOnUse" x1="42.2865" x2="42.2865" xlink:href="#a" y1="50.0908" y2="26.4241"/><linearGradient id="c" gradientUnits="userSpaceOnUse" x1="28.431" x2="47.431" y1="11.4548" y2="70.4548"><stop offset="0" stop-color="#0f39c3"/><stop offset="1" stop-color="#fa96d3"/></linearGradient><linearGradient id="d" gradientTransform="matrix(.7071 -.7071 .7071 .7071 489.2498 -656.4905)" gradientUnits="userSpaceOnUse" x1="-825.0178" x2="-825.0178" y1="153.3305" y2="206.4815"><stop offset="0" stop-color="#2fddd1"/><stop offset="1" stop-color="#0e48b5"/></linearGradient><linearGradient id="e" gradientTransform="matrix(.7009 -.7133 .7133 .7009 491.5675 -665.5146)" gradientUnits="userSpaceOnUse" x1="-821.9271" x2="-821.9271" xlink:href="#a" y1="184.43" y2="145.5493"/><linearGradient id="f"><stop offset=".001241987" stop-color="#fa881b"/><stop offset=".9988" stop-color="#ffb269"/></linearGradient><linearGradient id="g" gradientTransform="matrix(.7009 -.7133 .7133 .7009 491.5675 -665.5146)" gradientUnits="userSpaceOnUse" x1="-819.559" x2="-819.559" xlink:href="#f" y1="184.43" y2="145.5493"/><linearGradient id="h" gradientTransform="matrix(.7009 -.7133 .7133 .7009 491.5675 -665.5146)" gradientUnits="userSpaceOnUse" x1="-817.1909" x2="-817.1909" xlink:href="#a" y1="184.43" y2="145.5493"/><linearGradient id="i" gradientTransform="matrix(.7009 -.7133 .7133 .7009 491.5675 -665.5146)" gradientUnits="userSpaceOnUse" x1="-819.559" x2="-819.559" y1="142.9962" y2="138.6099"><stop offset="0" stop-color="#fb6874"/><stop offset="1" stop-color="#f56fae"/></linearGradient><linearGradient id="j" gradientTransform="matrix(-1 .00875459 -.00875459 -1 -1089.042 -1616.5692)" gradientUnits="userSpaceOnUse" x1="-1127.3444" x2="-1127.3444" xlink:href="#f" y1="-1672.2728" y2="-1680.1743"/><linearGradient id="k" gradientTransform="matrix(.7009 -.7133 .7133 .7009 491.5675 -665.5146)" gradientUnits="userSpaceOnUse" x1="-819.5591" x2="-819.5591" y1="196.2211" y2="189.8075"><stop offset="0" stop-color="#0f39c3"/><stop offset=".9987" stop-color="#0e48b5"/></linearGradient><linearGradient id="l" gradientTransform="matrix(.7009 -.7133 .7133 .7009 491.5675 -665.5146)" gradientUnits="userSpaceOnUse" x1="-823.407" x2="-815.7109" y1="144.2803" y2="144.2803"><stop offset="0" stop-color="#ab5af1"/><stop offset="1" stop-color="#749cfc"/></linearGradient><circle cx="51.3" cy="31.8" fill="url(#b)" r="11.8"/><path d="m66.3 52.2c0-1.6-.6-3.1-1.8-4.3l-16-16 17.3-17.3c1.1-1.1.3-3-1.3-3h-36.4l-16 16c-1.2 1.2-1.8 2.8-1.8 4.3 0 1.6.6 3.1 1.8 4.3l16 16-17.3 17.3c-1.1 1.1-.3 3 1.3 3h36.4l16-16c.3-.3.6-.6.8-1 .6-.9 1-2.1 1-3.3z" fill="url(#c)"/><path d="m55.5 69.2-7.4 7.4c-.5.5-1.3.5-1.8 0l-35.8-35.9c-.5-.5-.5-1.3 0-1.8l7.4-7.4c.5-.5 1.3-.5 1.8 0l35.8 35.8c.5.5.5 1.4 0 1.9z" fill="url(#d)"/><g fill="#fff"><path d="m18.7 34.8h3.9v.8h-3.9z" transform="matrix(.7071 -.7071 .7071 .7071 -18.8708 24.9189)"/><path d="m20.3 37.8h5v.8h-5z" transform="matrix(.7071 -.7071 .7071 .7071 -20.3287 27.353)"/><path d="m23.9 40h3.9v.8h-3.9z" transform="matrix(.7071 -.7071 .7071 .7071 -21.019 30.1049)"/><path d="m25.5 43h5v.8h-5z" transform="matrix(.7071 -.7071 .7071 .7071 -22.4768 32.539)"/><path d="m29 45.2h3.9v.8h-3.9z" transform="matrix(.7071 -.7071 .7071 .7071 -23.1671 35.291)"/><path d="m30.7 48.2h5v.8h-5z" transform="matrix(.7071 -.7071 .7071 .7071 -24.6249 37.725)"/><path d="m34.2 50.4h3.9v.8h-3.9z" transform="matrix(.7071 -.7071 .7071 .7071 -25.3153 40.477)"/><path d="m35.9 53.4h5v.8h-5z" transform="matrix(.7071 -.7071 .7071 .7071 -26.7731 42.9111)"/><path d="m39.4 55.6h3.9v.8h-3.9z" transform="matrix(.7071 -.7071 .7071 .7071 -27.4634 45.663)"/><path d="m41.1 58.5h5v.8h-5z" transform="matrix(.7071 -.7071 .7071 .7071 -28.9212 48.0971)"/><path d="m44.6 60.8h3.9v.8h-3.9z" transform="matrix(.7071 -.7071 .7071 .7071 -29.6115 50.8491)"/><path d="m46.3 63.7h5v.8h-5z" transform="matrix(.7071 -.7071 .7071 .7071 -31.0693 53.2831)"/><path d="m49.8 65.9h3.9v.8h-3.9z" transform="matrix(.7071 -.7071 .7071 .7071 -31.7597 56.0351)"/></g><path d="m47.9 49.2-1.7 1.7-27.7-27.3 1.6-1.7z" fill="url(#e)"/><path d="m49.5 47.5-1.6 1.7-27.8-27.3 1.7-1.7z" fill="url(#g)"/><path d="m51.2 45.8-1.7 1.7-27.7-27.3 1.7-1.7z" fill="url(#h)"/><path d="m17.3 14.9-.4.4-1.7 1.7-.4.4c-.7.7-.7 1.8 0 2.5l1.9 1.8 5-5.1-1.9-1.8c-.7-.6-1.8-.6-2.5.1z" fill="url(#i)"/><path d="m51.2 45.8-5 5.1 5.6 1.9 1.5-1.5z" fill="#ffe1ca"/><path d="m53.3 51.3-1.5 1.5 2.3.9z" fill="url(#j)"/><path d="m53.3 51.3-1.5 1.5 2.3.9z" fill="url(#k)"/><path d="m23.5 18.5-5.1 5.2c-.1.1-.2.1-.3 0l-1.5-1.5c-.1-.1-.1-.2 0-.3l5.1-5.2c.1-.1.2-.1.3 0l1.5 1.5c.1.1.1.2 0 .3z" fill="url(#l)"/></svg>