<svg enable-background="new 0 0 75 83.8" viewBox="0 0 75 83.8" xmlns="http://www.w3.org/2000/svg" xmlns:xlink="http://www.w3.org/1999/xlink"><linearGradient id="a" gradientTransform="matrix(1 -.00853353 .00853353 1 8.7293 -5.296)" gradientUnits="userSpaceOnUse" x1="45.7692" x2="45.7692" y1="48.0604" y2="24.3938"><stop offset="0" stop-color="#ab5af1"/><stop offset="1" stop-color="#749cfc"/></linearGradient><linearGradient id="b" gradientUnits="userSpaceOnUse" x1="29.0288" x2="48.0288" y1="11.5063" y2="70.5062"><stop offset="0" stop-color="#6bf9eb"/><stop offset=".5162" stop-color="#30a2e3"/><stop offset="1" stop-color="#0e48b5"/></linearGradient><linearGradient id="c"><stop offset="0" stop-color="#f2f2f2"/><stop offset="1" stop-color="#b3b3b3"/></linearGradient><linearGradient id="d" gradientUnits="userSpaceOnUse" x1="49.0229" x2="31.6785" xlink:href="#c" y1="35.0077" y2="35.0077"/><linearGradient id="e"><stop offset="0" stop-color="#fb6874"/><stop offset="1" stop-color="#fc7d76"/></linearGradient><linearGradient id="f" gradientUnits="userSpaceOnUse" x1="31.7031" x2="32.1452" xlink:href="#e" y1="25.8538" y2="27.2265"/><linearGradient id="g" gradientUnits="userSpaceOnUse" x1="29.3121" x2="29.3121" xlink:href="#c" y1="10.2566" y2="18.987"/><linearGradient id="h" gradientUnits="userSpaceOnUse" x1="34.5367" x2="34.5367" xlink:href="#c" y1="10.2566" y2="18.987"/><linearGradient id="i" gradientUnits="userSpaceOnUse" x1="30.733" x2="33.6366" xlink:href="#e" y1="17.4916" y2="26.5082"/><linearGradient id="j" gradientUnits="userSpaceOnUse" x1="8.5835" x2="55.2648" y1="52.7485" y2="52.7485"><stop offset=".001241987" stop-color="#fb993c"/><stop offset=".9988" stop-color="#ffc58e"/></linearGradient><linearGradient id="k" gradientUnits="userSpaceOnUse" x1="14.825" x2="32.1694" xlink:href="#c" y1="35.0077" y2="35.0077"/><circle cx="54.8" cy="30.5" fill="url(#a)" r="11.8"/><path d="m66.9 52.3c0-1.6-.6-3.1-1.8-4.3l-16-16 17.3-17.3c1.1-1.1.3-3-1.3-3h-36.4l-16 16c-1.2 1.2-1.8 2.8-1.8 4.3 0 1.6.6 3.1 1.8 4.3l16 16-17.3 17.3c-1.1 1.1-.3 3 1.3 3h36.4l16-16c.3-.3.6-.6.8-1 .6-1 1-2.1 1-3.3z" fill="url(#b)"/><path d="m48.8 40.3h-.1l-16.8-10c-.1-.1-.2-.2-.1-.3s.2-.2.3-.1l16.8 10c.1.1.2.2.1.3-.1 0-.1.1-.2.1z" fill="url(#d)"/><circle cx="31.9" cy="19.4" fill="#fff" r="2.8"/><path d="m32 31.3c-1 0-1.7-.7-1.7-1.5s.1-1 .9-1.9c.5-.5.4-1.1.4-1.1v-.2c0-.3.2-.5.5-.5s.5.2.5.5v.2s.1 1.1-.7 1.9c-.6.6-.6.6-.6 1.1 0 .4.4.5.7.5.2 0 .4 0 .5-.2s.1-.4.1-.8c-.1-.3.1-.5.4-.6s.5.1.6.4c.2.8 0 1.4-.2 1.6-.4.4-.9.6-1.4.6z" fill="#fff"/><path d="m32.8 27h-1.8c-.1 0-.2-.1-.2-.2v-.4c0-.1.1-.2.2-.2h1.8c.1 0 .2.1.2.2v.4c0 .1-.1.2-.2.2z" fill="url(#f)"/><path d="m29.3 18.4c-.2 0-.3-.1-.3-.3v-8.4c0-.2.1-.3.3-.3s.3.1.3.3v8.4c0 .2-.1.3-.3.3z" fill="url(#g)"/><path d="m34.5 18.4c-.2 0-.3-.1-.3-.3v-8.4c0-.2.1-.3.3-.3s.3.1.3.3v8.4c0 .2-.1.3-.3.3z" fill="url(#h)"/><path d="m35.6 20.4c.1-.5.2-1.1-.3-1.9-.2-.3-.3-.5-.3-.5h-2.7-.8-2.7s-.2.2-.3.5c-.5.8-.3 1.4-.2 1.8v.2c.1 1.1.5 3.2.6 4.2l.1.6c0 .5.4.8.8.8h4.2c.5 0 .8-.4.8-.8l.1-.6c.2-1 .5-3.1.6-4.2z" fill="url(#i)"/><circle cx="31.9" cy="20.1" opacity=".3" r="1"/><path d="m52.8 41.4h-1.6v-.8c0-.5-.4-.9-.9-.9h-3.3c-.5 0-.9.4-.9.9v.8h-28.3v-.8c0-.5-.4-.9-.9-.9h-3.3c-.5 0-.9.4-.9.9v.8h-1.6c-1.4 0-2.5 1.1-2.5 2.5v19.4c0 1.4 1.1 2.5 2.5 2.5h41.7c1.4 0 2.5-1.1 2.5-2.5v-19.4c0-1.3-1.1-2.5-2.5-2.5z" fill="url(#j)"/><g fill="#fff"><path d="m11.4 44.4h8.6v18.5h-8.6z"/><path d="m22.2 44.4h8.6v18.5h-8.6z"/><path d="m33 44.4h8.6v18.5h-8.6z"/><path d="m43.9 44.4h8.6v18.5h-8.6z"/></g><path d="m15.1 40.3c-.1 0-.2 0-.2-.1-.1-.1 0-.3.1-.3l16.8-10c.1-.1.3 0 .3.1.1.1 0 .3-.1.3l-16.8 10c0-.1-.1 0-.1 0z" fill="url(#k)"/></svg>