<?xml version="1.0" encoding="utf-8"?>
<!-- Generator: Adobe Illustrator 21.1.0, SVG Export Plug-In . SVG Version: 6.00 Build 0)  -->
<svg version="1.1" id="Layer_1" xmlns="http://www.w3.org/2000/svg" xmlns:xlink="http://www.w3.org/1999/xlink" x="0px" y="0px"
	 viewBox="0 0 75 83.8" style="enable-background:new 0 0 75 83.8;" xml:space="preserve">
<style type="text/css">
	.st0{fill:url(#SVGID_1_);}
	.st1{fill:url(#SVGID_2_);}
	.st2{clip-path:url(#SVGID_4_);fill:#FCAC60;}
	.st3{clip-path:url(#SVGID_4_);fill:#FCAD61;}
	.st4{clip-path:url(#SVGID_4_);fill:#FCAD62;}
	.st5{clip-path:url(#SVGID_4_);fill:#FCAE63;}
	.st6{clip-path:url(#SVGID_4_);fill:#FCAE64;}
	.st7{clip-path:url(#SVGID_4_);fill:#FCAF65;}
	.st8{clip-path:url(#SVGID_4_);fill:#FCAF66;}
	.st9{clip-path:url(#SVGID_4_);fill:#FCB067;}
	.st10{clip-path:url(#SVGID_4_);fill:#FDB068;}
	.st11{clip-path:url(#SVGID_4_);fill:#FDB169;}
	.st12{clip-path:url(#SVGID_4_);fill:#FDB26A;}
	.st13{clip-path:url(#SVGID_4_);fill:#FDB26B;}
	.st14{clip-path:url(#SVGID_4_);fill:#FDB36C;}
	.st15{clip-path:url(#SVGID_4_);fill:#FDB36D;}
	.st16{clip-path:url(#SVGID_4_);fill:#FDB46E;}
	.st17{clip-path:url(#SVGID_4_);fill:#FDB46F;}
	.st18{clip-path:url(#SVGID_4_);fill:#FDB570;}
	.st19{clip-path:url(#SVGID_4_);fill:#FDB571;}
	.st20{clip-path:url(#SVGID_4_);fill:#FDB672;}
	.st21{clip-path:url(#SVGID_4_);fill:#FDB773;}
	.st22{clip-path:url(#SVGID_4_);fill:#FDB774;}
	.st23{clip-path:url(#SVGID_4_);fill:#FDB875;}
	.st24{clip-path:url(#SVGID_4_);fill:#FDB876;}
	.st25{clip-path:url(#SVGID_4_);fill:#FEB978;}
	.st26{clip-path:url(#SVGID_4_);fill:#FEB979;}
	.st27{clip-path:url(#SVGID_4_);fill:#FEBA7A;}
	.st28{clip-path:url(#SVGID_4_);fill:#FEBA7B;}
	.st29{clip-path:url(#SVGID_4_);fill:#FEBB7C;}
	.st30{clip-path:url(#SVGID_4_);fill:#FEBC7D;}
	.st31{clip-path:url(#SVGID_4_);fill:#FEBC7E;}
	.st32{clip-path:url(#SVGID_4_);fill:#FEBD7F;}
	.st33{clip-path:url(#SVGID_4_);fill:#FEBD80;}
	.st34{clip-path:url(#SVGID_4_);fill:#FEBE81;}
	.st35{clip-path:url(#SVGID_4_);fill:#FEBE82;}
	.st36{clip-path:url(#SVGID_4_);fill:#FEBF83;}
	.st37{clip-path:url(#SVGID_4_);fill:#FEBF84;}
	.st38{clip-path:url(#SVGID_4_);fill:#FEC085;}
	.st39{clip-path:url(#SVGID_4_);fill:#FEC186;}
	.st40{clip-path:url(#SVGID_4_);fill:#FFC187;}
	.st41{clip-path:url(#SVGID_4_);fill:#FFC288;}
	.st42{clip-path:url(#SVGID_4_);fill:#FFC289;}
	.st43{clip-path:url(#SVGID_4_);fill:#FFC38A;}
	.st44{clip-path:url(#SVGID_4_);fill:#FFC38B;}
	.st45{clip-path:url(#SVGID_4_);fill:#FFC48C;}
	.st46{clip-path:url(#SVGID_4_);fill:#FFC48D;}
	.st47{clip-path:url(#SVGID_4_);fill:#FFC58E;}
	.st48{fill:url(#SVGID_5_);}
	.st49{fill:url(#SVGID_6_);}
	.st50{fill:#FFFFFF;}
	.st51{fill:url(#SVGID_7_);}
	.st52{fill:url(#SVGID_8_);}
	.st53{fill:#CCCCCC;}
	.st54{fill:url(#SVGID_9_);}
	.st55{fill:url(#SVGID_10_);}
	.st56{fill:url(#SVGID_11_);}
	.st57{fill:url(#SVGID_12_);}
	.st58{fill:url(#SVGID_13_);}
	.st59{fill:url(#SVGID_14_);}
	.st60{fill:url(#SVGID_15_);}
	.st61{fill:#F6F6F6;}
	.st62{fill:url(#SVGID_16_);}
	.st63{fill:url(#SVGID_17_);}
	.st64{fill:url(#SVGID_18_);}
	.st65{fill:url(#SVGID_19_);}
	.st66{fill:url(#SVGID_20_);}
	.st67{fill:#0E48B5;}
	.st68{fill:#818DF9;}
	.st69{fill:url(#SVGID_21_);}
	.st70{fill:#FFC58E;}
	.st71{fill:url(#SVGID_22_);}
	.st72{fill:url(#SVGID_23_);}
	.st73{fill:url(#SVGID_24_);}
	.st74{fill:url(#SVGID_25_);}
	.st75{fill:url(#SVGID_26_);}
	.st76{fill:url(#SVGID_27_);}
</style>
<linearGradient id="SVGID_1_" gradientUnits="userSpaceOnUse" x1="58.2416" y1="44.313" x2="58.2416" y2="20.313">
	<stop  offset="1.241987e-03" style="stop-color:#FB993C"/>
	<stop  offset="0.9988" style="stop-color:#FFC58E"/>
</linearGradient>
<circle class="st0" cx="58.2" cy="32.3" r="12"/>
<linearGradient id="SVGID_2_" gradientUnits="userSpaceOnUse" x1="28.5251" y1="11.5989" x2="48.2361" y2="72.8068">
	<stop  offset="0" style="stop-color:#FA96D3"/>
	<stop  offset="1" style="stop-color:#0F39C3"/>
</linearGradient>
<path class="st1" d="M66.4,52.4L66.4,52.4L66.4,52.4c0-1.6-0.6-3.1-1.8-4.3l-16-16l17.3-17.3c1.1-1.1,0.3-3-1.3-3H28.2l0,0l0,0l0,0
	l0,0l0,0v0v0l-16,16c-1.2,1.2-1.8,2.8-1.8,4.3c0,1.6,0.6,3.1,1.8,4.3l16,16v0l0,0h0L10.9,69.7c-1.1,1.1-0.3,3,1.3,3h36.4l0,0v0l0,0
	l0,0l0,0v0l16-16c0.3-0.3,0.6-0.6,0.8-1C66,54.7,66.4,53.5,66.4,52.4L66.4,52.4C66.4,52.4,66.4,52.4,66.4,52.4L66.4,52.4z"/>
<g>
	<g>
		<defs>
			<circle id="SVGID_3_" cx="50.5" cy="43.8" r="4"/>
		</defs>
		<clipPath id="SVGID_4_">
			<use xlink:href="#SVGID_3_"  style="overflow:visible;"/>
		</clipPath>
		<rect x="46.6" y="47.8" class="st2" width="7.9" height="0"/>
		<rect x="46.6" y="47.6" class="st2" width="7.9" height="0.2"/>
		<rect x="46.6" y="47.5" class="st3" width="7.9" height="0.2"/>
		<rect x="46.6" y="47.3" class="st4" width="7.9" height="0.2"/>
		<rect x="46.6" y="47.1" class="st5" width="7.9" height="0.2"/>
		<rect x="46.6" y="46.9" class="st6" width="7.9" height="0.2"/>
		<rect x="46.6" y="46.8" class="st7" width="7.9" height="0.2"/>
		<rect x="46.6" y="46.6" class="st8" width="7.9" height="0.2"/>
		<rect x="46.6" y="46.4" class="st9" width="7.9" height="0.2"/>
		<rect x="46.6" y="46.3" class="st10" width="7.9" height="0.2"/>
		<rect x="46.6" y="46.1" class="st11" width="7.9" height="0.2"/>
		<rect x="46.6" y="45.9" class="st12" width="7.9" height="0.2"/>
		<rect x="46.6" y="45.7" class="st13" width="7.9" height="0.2"/>
		<rect x="46.6" y="45.6" class="st14" width="7.9" height="0.2"/>
		<rect x="46.6" y="45.4" class="st15" width="7.9" height="0.2"/>
		<rect x="46.6" y="45.2" class="st16" width="7.9" height="0.2"/>
		<rect x="46.6" y="45" class="st17" width="7.9" height="0.2"/>
		<rect x="46.6" y="44.9" class="st18" width="7.9" height="0.2"/>
		<rect x="46.6" y="44.7" class="st19" width="7.9" height="0.2"/>
		<rect x="46.6" y="44.5" class="st20" width="7.9" height="0.2"/>
		<rect x="46.6" y="44.4" class="st21" width="7.9" height="0.2"/>
		<rect x="46.6" y="44.2" class="st22" width="7.9" height="0.2"/>
		<rect x="46.6" y="44" class="st23" width="7.9" height="0.2"/>
		<rect x="46.6" y="43.8" class="st24" width="7.9" height="0.2"/>
		<rect x="46.6" y="43.7" class="st25" width="7.9" height="0.2"/>
		<rect x="46.6" y="43.5" class="st26" width="7.9" height="0.2"/>
		<rect x="46.6" y="43.3" class="st27" width="7.9" height="0.2"/>
		<rect x="46.6" y="43.2" class="st28" width="7.9" height="0.2"/>
		<rect x="46.6" y="43" class="st29" width="7.9" height="0.2"/>
		<rect x="46.6" y="42.8" class="st30" width="7.9" height="0.2"/>
		<rect x="46.6" y="42.6" class="st31" width="7.9" height="0.2"/>
		<rect x="46.6" y="42.5" class="st32" width="7.9" height="0.2"/>
		<rect x="46.6" y="42.3" class="st33" width="7.9" height="0.2"/>
		<rect x="46.6" y="42.1" class="st34" width="7.9" height="0.2"/>
		<rect x="46.6" y="42" class="st35" width="7.9" height="0.2"/>
		<rect x="46.6" y="41.8" class="st36" width="7.9" height="0.2"/>
		<rect x="46.6" y="41.6" class="st37" width="7.9" height="0.2"/>
		<rect x="46.6" y="41.4" class="st38" width="7.9" height="0.2"/>
		<rect x="46.6" y="41.3" class="st39" width="7.9" height="0.2"/>
		<rect x="46.6" y="41.1" class="st40" width="7.9" height="0.2"/>
		<rect x="46.6" y="40.9" class="st41" width="7.9" height="0.2"/>
		<rect x="46.6" y="40.8" class="st42" width="7.9" height="0.2"/>
		<rect x="46.6" y="40.6" class="st43" width="7.9" height="0.2"/>
		<rect x="46.6" y="40.4" class="st44" width="7.9" height="0.2"/>
		<rect x="46.6" y="40.2" class="st45" width="7.9" height="0.2"/>
		<rect x="46.6" y="40.1" class="st46" width="7.9" height="0.2"/>
		<rect x="46.6" y="39.9" class="st47" width="7.9" height="0.2"/>
		<rect x="46.6" y="39.9" class="st47" width="7.9" height="0"/>
	</g>
</g>
<g>
	<g>
		<linearGradient id="SVGID_5_" gradientUnits="userSpaceOnUse" x1="251.6592" y1="159.5625" x2="270.6592" y2="218.5625">
			<stop  offset="0" style="stop-color:#0F39C3"/>
			<stop  offset="1" style="stop-color:#FA96D3"/>
		</linearGradient>
		<path class="st48" d="M289.5,200.3L289.5,200.3L289.5,200.3c0-1.6-0.6-3.1-1.8-4.3l-16-16l17.3-17.3c1.1-1.1,0.3-3-1.3-3h-36.4
			l0,0l0,0l0,0l0,0l0,0v0v0l-16,16c-1.2,1.2-1.8,2.8-1.8,4.3c0,1.6,0.6,3.1,1.8,4.3l16,16v0l0,0h0l-17.3,17.3c-1.1,1.1-0.3,3,1.3,3
			h36.4l0,0v0l0,0l0,0l0,0v0l16-16c0.3-0.3,0.6-0.6,0.8-1C289.2,202.7,289.5,201.5,289.5,200.3L289.5,200.3
			C289.5,200.3,289.5,200.3,289.5,200.3L289.5,200.3z"/>
	</g>
	
		<linearGradient id="SVGID_6_" gradientUnits="userSpaceOnUse" x1="227.1121" y1="219.1904" x2="227.1121" y2="195.5237" gradientTransform="matrix(1 -8.533533e-03 8.533533e-03 1 8.7293 -5.296)">
		<stop  offset="0" style="stop-color:#FB6874"/>
		<stop  offset="1" style="stop-color:#F56FAE"/>
	</linearGradient>
	<circle class="st49" cx="237.6" cy="200.1" r="11.8"/>
	<g>
		<g>
			<g>
				<path class="st50" d="M269.6,183.6v19.6c0,1.5,1.2,2.8,2.8,2.8h13.7c1.5,0,2.8-1.2,2.8-2.8v-19.6H269.6z"/>
				<g>
					<linearGradient id="SVGID_7_" gradientUnits="userSpaceOnUse" x1="269.0875" y1="184.5755" x2="289.42" y2="204.5639">
						<stop  offset="0" style="stop-color:#F2F2F2"/>
						<stop  offset="1" style="stop-color:#B3B3B3"/>
					</linearGradient>
					<path class="st51" d="M270,184.5v18.9c0,1.1,0.9,2.1,2.1,2.1h14.4c1.1,0,2.1-0.9,2.1-2.1v-18.9h0.9v18.9c0,1.6-1.3,2.9-2.9,2.9
						h-14.4c-1.6,0-2.9-1.3-2.9-2.9v-18.9"/>
				</g>
				<linearGradient id="SVGID_8_" gradientUnits="userSpaceOnUse" x1="271.1635" y1="178.8479" x2="289.3585" y2="178.8479">
					<stop  offset="0" style="stop-color:#30A2E3"/>
					<stop  offset="1" style="stop-color:#2FDDD1"/>
				</linearGradient>
				<path class="st52" d="M287.3,173.2h-14c-1.2,0-2.1,0.9-2.1,2.1v9.2h18.2v-9.2C289.4,174.1,288.4,173.2,287.3,173.2z"/>
				<g>
					<path class="st50" d="M281.6,177.1c-0.3-0.2-0.6-0.4-0.9-0.5v1.6c1.1,0.4,1.5,0.9,1.5,1.7v0c0,0.8-0.6,1.4-1.5,1.5v0.8H280
						v-0.8c-0.6-0.1-1.2-0.3-1.7-0.8l0.5-0.7c0.4,0.3,0.7,0.6,1.2,0.6V179c-1-0.4-1.5-0.8-1.5-1.7v0c0-0.8,0.6-1.4,1.5-1.5v-0.5h0.6
						v0.5c0.5,0.1,1,0.3,1.4,0.6L281.6,177.1z M280,178v-1.4c-0.4,0.1-0.6,0.3-0.6,0.7v0C279.5,177.5,279.6,177.7,280,178z
						 M280.7,179.2v1.5c0.4-0.1,0.6-0.3,0.6-0.7v0C281.3,179.6,281.1,179.4,280.7,179.2z"/>
				</g>
				<g>
					<rect x="274.3" y="187.9" class="st53" width="11.8" height="0.8"/>
					<rect x="274.3" y="190.2" class="st53" width="11.8" height="0.8"/>
					<polyline class="st53" points="284,193.3 274.3,193.3 274.3,192.5 286.2,192.5 286.2,193.3 284,193.3 					"/>
					<rect x="274.3" y="194.9" class="st53" width="11.8" height="0.8"/>
				</g>
				<linearGradient id="SVGID_9_" gradientUnits="userSpaceOnUse" x1="274.3676" y1="199.9615" x2="286.1544" y2="199.9615">
					<stop  offset="1.241987e-03" style="stop-color:#FB993C"/>
					<stop  offset="0.9988" style="stop-color:#FFC58E"/>
				</linearGradient>
				<path class="st54" d="M285.6,202.3h-10.7c-0.3,0-0.5-0.2-0.5-0.5v-3.7c0-0.3,0.2-0.5,0.5-0.5h10.7c0.3,0,0.5,0.2,0.5,0.5v3.7
					C286.2,202.1,285.9,202.3,285.6,202.3z"/>
			</g>
			<g>
				<path class="st50" d="M234.2,183.6v19.6c0,1.5,1.2,2.8,2.8,2.8h14.7c1.5,0,2.8-1.2,2.8-2.8v-19.6H234.2z"/>
				<g>
					<linearGradient id="SVGID_10_" gradientUnits="userSpaceOnUse" x1="233.9206" y1="184.3256" x2="254.7616" y2="204.8139">
						<stop  offset="0" style="stop-color:#F2F2F2"/>
						<stop  offset="1" style="stop-color:#B3B3B3"/>
					</linearGradient>
					<path class="st55" d="M234.6,184.5v18.9c0,1.1,0.9,2.1,2.1,2.1H252c1.1,0,2.1-0.9,2.1-2.1v-18.9h0.9v18.9
						c0,1.6-1.3,2.9-2.9,2.9h-15.4c-1.6,0-2.9-1.3-2.9-2.9v-18.9"/>
				</g>
				<linearGradient id="SVGID_11_" gradientUnits="userSpaceOnUse" x1="233.7509" y1="178.8479" x2="251.9458" y2="178.8479">
					<stop  offset="0" style="stop-color:#30A2E3"/>
					<stop  offset="1" style="stop-color:#2FDDD1"/>
				</linearGradient>
				<path class="st56" d="M249.8,173.2h-14c-1.2,0-2.1,0.9-2.1,2.1v9.2h18.2v-9.2C251.9,174.1,251,173.2,249.8,173.2z"/>
				<g>
					<path class="st50" d="M244.2,177.1c-0.3-0.2-0.6-0.4-0.9-0.5v1.6c1.1,0.4,1.5,0.9,1.5,1.7v0c0,0.8-0.6,1.4-1.5,1.5v0.8h-0.6
						v-0.8c-0.6-0.1-1.2-0.3-1.7-0.8l0.5-0.7c0.4,0.3,0.7,0.6,1.2,0.6V179c-1-0.4-1.5-0.8-1.5-1.7v0c0-0.8,0.6-1.4,1.5-1.5v-0.5h0.6
						v0.5c0.5,0.1,1,0.3,1.4,0.6L244.2,177.1z M242.6,178v-1.4c-0.4,0.1-0.6,0.3-0.6,0.7v0C242.1,177.5,242.2,177.7,242.6,178z
						 M243.2,179.2v1.5c0.4-0.1,0.6-0.3,0.6-0.7v0C243.9,179.6,243.7,179.4,243.2,179.2z"/>
				</g>
				<g>
					<rect x="236.9" y="187.9" class="st53" width="11.8" height="0.8"/>
					<rect x="236.9" y="190.2" class="st53" width="11.8" height="0.8"/>
					<polyline class="st53" points="246.6,193.3 236.9,193.3 236.9,192.5 248.8,192.5 248.8,193.3 246.6,193.3 					"/>
					<rect x="236.9" y="194.9" class="st53" width="11.8" height="0.8"/>
				</g>
				<linearGradient id="SVGID_12_" gradientUnits="userSpaceOnUse" x1="236.955" y1="199.9615" x2="248.7417" y2="199.9615">
					<stop  offset="1.241987e-03" style="stop-color:#FB993C"/>
					<stop  offset="0.9988" style="stop-color:#FFC58E"/>
				</linearGradient>
				<path class="st57" d="M248.2,202.3h-10.7c-0.3,0-0.5-0.2-0.5-0.5v-3.7c0-0.3,0.2-0.5,0.5-0.5h10.7c0.3,0,0.5,0.2,0.5,0.5v3.7
					C248.7,202.1,248.5,202.3,248.2,202.3z"/>
			</g>
		</g>
		<g>
			<path class="st50" d="M251.4,183.4v23c0,1.8,1.5,3.3,3.3,3.3h13.8c1.8,0,3.3-1.5,3.3-3.3v-23H251.4z"/>
			<g>
				<linearGradient id="SVGID_13_" gradientUnits="userSpaceOnUse" x1="250.218" y1="185.1226" x2="272.8743" y2="207.3956">
					<stop  offset="0" style="stop-color:#F2F2F2"/>
					<stop  offset="1" style="stop-color:#B3B3B3"/>
				</linearGradient>
				<path class="st58" d="M251.9,184.4v22.2c0,1.3,1.1,2.4,2.4,2.4h14.5c1.3,0,2.4-1.1,2.4-2.4v-22.2h1v22.2c0,1.9-1.5,3.4-3.4,3.4
					h-14.5c-1.9,0-3.4-1.5-3.4-3.4v-22.2"/>
			</g>
			<linearGradient id="SVGID_14_" gradientUnits="userSpaceOnUse" x1="250.8836" y1="177.2314" x2="272.2257" y2="177.2314">
				<stop  offset="0" style="stop-color:#30A2E3"/>
				<stop  offset="1" style="stop-color:#2FDDD1"/>
			</linearGradient>
			<path class="st59" d="M269.8,170h-16.4c-1.4,0-2.5,1.1-2.5,2.5v11.9h21.3v-11.9C272.2,171.1,271.1,170,269.8,170z"/>
			<g>
				<path class="st50" d="M263.1,175.7c-0.3-0.3-0.7-0.5-1.1-0.6v1.9c1.3,0.5,1.8,1.1,1.8,2v0c0,1-0.7,1.7-1.8,1.8v1h-0.8v-1
					c-0.7-0.1-1.4-0.4-2-0.9l0.6-0.8c0.4,0.4,0.9,0.7,1.4,0.8v-2c-1.2-0.5-1.7-1-1.7-1.9v0c0-1,0.7-1.6,1.7-1.8v-0.6h0.8v0.6
					c0.6,0.1,1.2,0.3,1.6,0.7L263.1,175.7z M261.3,176.8v-1.6c-0.5,0.1-0.7,0.4-0.7,0.8v0C260.6,176.3,260.8,176.5,261.3,176.8z
					 M262,178.2v1.7c0.5-0.1,0.7-0.4,0.7-0.8v0C262.7,178.7,262.6,178.5,262,178.2z"/>
			</g>
			<g>
				<rect x="254.6" y="188.4" class="st53" width="13.9" height="0.9"/>
				<rect x="254.6" y="191.1" class="st53" width="13.9" height="0.9"/>
				<polyline class="st53" points="266,194.8 254.6,194.8 254.6,193.9 268.5,193.9 268.5,194.8 266,194.8 				"/>
				<rect x="254.6" y="196.6" class="st53" width="13.9" height="0.9"/>
			</g>
			<linearGradient id="SVGID_15_" gradientUnits="userSpaceOnUse" x1="254.642" y1="202.5835" x2="268.4674" y2="202.5835">
				<stop  offset="1.241987e-03" style="stop-color:#FB993C"/>
				<stop  offset="0.9988" style="stop-color:#FFC58E"/>
			</linearGradient>
			<path class="st60" d="M267.8,205.4h-12.6c-0.4,0-0.6-0.3-0.6-0.6v-4.3c0-0.4,0.3-0.6,0.6-0.6h12.6c0.4,0,0.6,0.3,0.6,0.6v4.3
				C268.5,205.1,268.2,205.4,267.8,205.4z"/>
		</g>
	</g>
</g>
<g>
	<g>
		<g>
			<path class="st50" d="M27.5,26c0-0.9-0.7-1.6-1.6-1.6H6.1c-0.9,0-1.6,0.7-1.6,1.6v12.2c3.9,0,5.9,1.4,7.8,2.7
				c2,1.3,3.8,2.6,7.6,2.6c3.8,0,5.6-1.3,7.6-2.6v15.8c0,0,0,0,0,0V26z"/>
			<path class="st61" d="M19.9,43.5c-3.8,0-5.6-1.3-7.6-2.6c-1.9-1.3-3.9-2.7-7.8-2.7v18.5c0,0.9,0.7,1.6,1.6,1.6h19.8
				c0.9,0,1.6-0.7,1.6-1.6V40.8C25.6,42.2,23.7,43.5,19.9,43.5z"/>
		</g>
		<linearGradient id="SVGID_16_" gradientUnits="userSpaceOnUse" x1="2.0018" y1="27.5056" x2="30.0236" y2="55.0532">
			<stop  offset="0" style="stop-color:#F2F2F2"/>
			<stop  offset="1" style="stop-color:#B3B3B3"/>
		</linearGradient>
		<path class="st62" d="M24.8,58.9H7.3c-1.9,0-3.4-1.5-3.4-3.4V27c0-1.9,1.5-3.4,3.4-3.4h17.5c1.9,0,3.4,1.5,3.4,3.4v28.5
			C28.2,57.4,26.6,58.9,24.8,58.9z M7.3,24.6c-1.3,0-2.4,1.1-2.4,2.4v28.5c0,1.3,1.1,2.4,2.4,2.4h17.5c1.3,0,2.4-1.1,2.4-2.4V27
			c0-1.3-1.1-2.4-2.4-2.4H7.3z"/>
	</g>
	<linearGradient id="SVGID_17_" gradientUnits="userSpaceOnUse" x1="16.0127" y1="35.5073" x2="16.0127" y2="29.251">
		<stop  offset="0" style="stop-color:#2FDDD1"/>
		<stop  offset="1" style="stop-color:#0E48B5"/>
	</linearGradient>
	<path class="st63" d="M15.2,30.3c-1.1,0.6-1.6,1.2-1.6,1.9c0.5,0,0.9,0.2,1.2,0.5c0.3,0.3,0.5,0.7,0.5,1.1c0,0.5-0.1,0.8-0.4,1.2
		c-0.3,0.3-0.7,0.5-1.1,0.5c-0.5,0-0.9-0.2-1.3-0.6c-0.4-0.4-0.6-0.9-0.6-1.5c0-1.7,0.9-3.1,2.8-4.1L15.2,30.3z M20.1,30.2
		c-1.1,0.6-1.6,1.2-1.6,1.9c0.5,0,0.8,0.2,1.2,0.5c0.3,0.3,0.5,0.7,0.5,1.1c0,0.5-0.1,0.8-0.4,1.2c-0.3,0.3-0.7,0.5-1.1,0.5
		c-0.5,0-0.9-0.2-1.3-0.6c-0.4-0.4-0.6-0.9-0.6-1.5c0-1.7,0.9-3.1,2.8-4.1L20.1,30.2z"/>
	<g>
		<linearGradient id="SVGID_18_" gradientUnits="userSpaceOnUse" x1="9.5603" y1="38.7256" x2="22.4651" y2="38.6155">
			<stop  offset="0" style="stop-color:#8F31C1"/>
			<stop  offset="1" style="stop-color:#F56FAE"/>
		</linearGradient>
		<rect x="9.6" y="38.2" class="st64" width="12.9" height="0.9"/>
		<linearGradient id="SVGID_19_" gradientUnits="userSpaceOnUse" x1="7.5605" y1="41.4926" x2="24.4649" y2="41.3484">
			<stop  offset="0" style="stop-color:#8F31C1"/>
			<stop  offset="1" style="stop-color:#F56FAE"/>
		</linearGradient>
		<rect x="7.6" y="41" class="st65" width="16.9" height="0.9"/>
		<linearGradient id="SVGID_20_" gradientUnits="userSpaceOnUse" x1="9.5603" y1="44.2256" x2="22.4651" y2="44.1155">
			<stop  offset="0" style="stop-color:#8F31C1"/>
			<stop  offset="1" style="stop-color:#F56FAE"/>
		</linearGradient>
		<rect x="9.6" y="43.7" class="st66" width="12.9" height="0.9"/>
	</g>
	<g>
		<rect x="14.2" y="50.5" class="st67" width="10.1" height="0.5"/>
		<rect x="14.2" y="52.2" class="st67" width="8.9" height="0.5"/>
		<g>
			<path class="st68" d="M12.8,51.6c0-1.4-1.1-2.5-2.5-2.5c-1.4,0-2.5,1.1-2.5,2.5c0,0.8,0.4,1.6,1,2v-0.2c0-0.7,0.5-1.3,1.2-1.5
				c-0.4-0.1-0.6-0.5-0.6-0.9c0-0.5,0.4-0.9,0.9-0.9c0.5,0,0.9,0.4,0.9,0.9c0,0.4-0.3,0.8-0.6,0.9c0.7,0.1,1.2,0.8,1.2,1.5v0.2
				C12.4,53.2,12.8,52.4,12.8,51.6z"/>
			<path class="st68" d="M10.6,52c-0.1,0-0.2,0-0.3,0c-0.1,0-0.2,0-0.3,0c-0.7,0.1-1.2,0.8-1.2,1.5v0.2c0.4,0.3,0.9,0.5,1.5,0.5
				c0.6,0,1.1-0.2,1.5-0.5v-0.2C11.8,52.7,11.2,52.1,10.6,52z"/>
			<linearGradient id="SVGID_21_" gradientUnits="userSpaceOnUse" x1="10.2543" y1="54.7158" x2="10.2543" y2="51.9249">
				<stop  offset="0" style="stop-color:#FB6874"/>
				<stop  offset="1" style="stop-color:#F56FAE"/>
			</linearGradient>
			<path class="st69" d="M10.6,52c-0.1,0-0.2,0-0.3,0c-0.1,0-0.2,0-0.3,0c-0.7,0.1-1.2,0.8-1.2,1.5v0.2c0.4,0.3,0.9,0.5,1.5,0.5
				c0.6,0,1.1-0.2,1.5-0.5v-0.2C11.8,52.7,11.2,52.1,10.6,52z"/>
			<path class="st70" d="M10.6,52c0.4-0.1,0.6-0.5,0.6-0.9c0-0.5-0.4-0.9-0.9-0.9c-0.5,0-0.9,0.4-0.9,0.9c0,0.4,0.3,0.8,0.6,0.9
				c0.1,0,0.2,0,0.3,0C10.4,51.9,10.5,51.9,10.6,52z"/>
			<path class="st70" d="M10.6,52c-0.1,0-0.2,0-0.3,0c-0.1,0-0.2,0-0.3,0c0.1,0,0.2,0,0.3,0C10.4,52,10.5,52,10.6,52z"/>
		</g>
	</g>
	<g>
		<g>
			<path class="st50" d="M55.8,26c0-0.9-0.7-1.6-1.6-1.6H34.4c-0.9,0-1.6,0.7-1.6,1.6v12.2c3.9,0,5.9,1.4,7.8,2.7
				c2,1.3,3.8,2.6,7.6,2.6c3.8,0,5.6-1.3,7.6-2.6v15.8c0,0,0,0,0,0V26z"/>
			<path class="st61" d="M48.2,43.5c-3.8,0-5.6-1.3-7.6-2.6c-1.9-1.3-3.9-2.7-7.8-2.7v18.5c0,0.9,0.7,1.6,1.6,1.6h19.8
				c0.9,0,1.6-0.7,1.6-1.6V40.8C53.9,42.2,52,43.5,48.2,43.5z"/>
		</g>
		<linearGradient id="SVGID_22_" gradientUnits="userSpaceOnUse" x1="30.3148" y1="27.5056" x2="58.3365" y2="55.0532">
			<stop  offset="0" style="stop-color:#F2F2F2"/>
			<stop  offset="1" style="stop-color:#B3B3B3"/>
		</linearGradient>
		<path class="st71" d="M53.1,58.9H35.6c-1.9,0-3.4-1.5-3.4-3.4V27c0-1.9,1.5-3.4,3.4-3.4h17.5c1.9,0,3.4,1.5,3.4,3.4v28.5
			C56.5,57.4,55,58.9,53.1,58.9z M35.6,24.6c-1.3,0-2.4,1.1-2.4,2.4v28.5c0,1.3,1.1,2.4,2.4,2.4h17.5c1.3,0,2.4-1.1,2.4-2.4V27
			c0-1.3-1.1-2.4-2.4-2.4H35.6z"/>
	</g>
	<linearGradient id="SVGID_23_" gradientUnits="userSpaceOnUse" x1="44.3256" y1="35.5073" x2="44.3256" y2="29.251">
		<stop  offset="0" style="stop-color:#2FDDD1"/>
		<stop  offset="1" style="stop-color:#0E48B5"/>
	</linearGradient>
	<path class="st72" d="M43.5,30.3c-1.1,0.6-1.6,1.2-1.6,1.9c0.5,0,0.9,0.2,1.2,0.5c0.3,0.3,0.5,0.7,0.5,1.1c0,0.5-0.1,0.8-0.4,1.2
		c-0.3,0.3-0.7,0.5-1.1,0.5c-0.5,0-0.9-0.2-1.3-0.6c-0.4-0.4-0.6-0.9-0.6-1.5c0-1.7,0.9-3.1,2.8-4.1L43.5,30.3z M48.4,30.2
		c-1.1,0.6-1.6,1.2-1.6,1.9c0.5,0,0.8,0.2,1.2,0.5c0.3,0.3,0.5,0.7,0.5,1.1c0,0.5-0.1,0.8-0.4,1.2c-0.3,0.3-0.7,0.5-1.1,0.5
		c-0.5,0-0.9-0.2-1.3-0.6c-0.4-0.4-0.6-0.9-0.6-1.5c0-1.7,0.9-3.1,2.8-4.1L48.4,30.2z"/>
	<g>
		<linearGradient id="SVGID_24_" gradientUnits="userSpaceOnUse" x1="37.8733" y1="38.7256" x2="50.778" y2="38.6155">
			<stop  offset="0" style="stop-color:#8F31C1"/>
			<stop  offset="1" style="stop-color:#F56FAE"/>
		</linearGradient>
		<rect x="37.9" y="38.2" class="st73" width="12.9" height="0.9"/>
		<linearGradient id="SVGID_25_" gradientUnits="userSpaceOnUse" x1="35.8734" y1="41.4926" x2="52.7779" y2="41.3484">
			<stop  offset="0" style="stop-color:#8F31C1"/>
			<stop  offset="1" style="stop-color:#F56FAE"/>
		</linearGradient>
		<rect x="35.9" y="41" class="st74" width="16.9" height="0.9"/>
		<linearGradient id="SVGID_26_" gradientUnits="userSpaceOnUse" x1="37.8733" y1="44.2256" x2="50.778" y2="44.1155">
			<stop  offset="0" style="stop-color:#8F31C1"/>
			<stop  offset="1" style="stop-color:#F56FAE"/>
		</linearGradient>
		<rect x="37.9" y="43.7" class="st75" width="12.9" height="0.9"/>
	</g>
	<g>
		<rect x="42.5" y="50.5" class="st67" width="10.1" height="0.5"/>
		<rect x="42.5" y="52.2" class="st67" width="8.9" height="0.5"/>
		<g>
			<path class="st68" d="M41.1,51.6c0-1.4-1.1-2.5-2.5-2.5c-1.4,0-2.5,1.1-2.5,2.5c0,0.8,0.4,1.6,1,2v-0.2c0-0.7,0.5-1.3,1.2-1.5
				c-0.4-0.1-0.6-0.5-0.6-0.9c0-0.5,0.4-0.9,0.9-0.9c0.5,0,0.9,0.4,0.9,0.9c0,0.4-0.3,0.8-0.6,0.9c0.7,0.1,1.2,0.8,1.2,1.5v0.2
				C40.7,53.2,41.1,52.4,41.1,51.6z"/>
			<path class="st68" d="M38.9,52c-0.1,0-0.2,0-0.3,0c-0.1,0-0.2,0-0.3,0c-0.7,0.1-1.2,0.8-1.2,1.5v0.2c0.4,0.3,0.9,0.5,1.5,0.5
				c0.6,0,1.1-0.2,1.5-0.5v-0.2C40.1,52.7,39.6,52.1,38.9,52z"/>
			<linearGradient id="SVGID_27_" gradientUnits="userSpaceOnUse" x1="38.5672" y1="54.7158" x2="38.5672" y2="51.9249">
				<stop  offset="0" style="stop-color:#FB6874"/>
				<stop  offset="1" style="stop-color:#F56FAE"/>
			</linearGradient>
			<path class="st76" d="M38.9,52c-0.1,0-0.2,0-0.3,0c-0.1,0-0.2,0-0.3,0c-0.7,0.1-1.2,0.8-1.2,1.5v0.2c0.4,0.3,0.9,0.5,1.5,0.5
				c0.6,0,1.1-0.2,1.5-0.5v-0.2C40.1,52.7,39.6,52.1,38.9,52z"/>
			<path class="st70" d="M38.9,52c0.4-0.1,0.6-0.5,0.6-0.9c0-0.5-0.4-0.9-0.9-0.9c-0.5,0-0.9,0.4-0.9,0.9c0,0.4,0.3,0.8,0.6,0.9
				c0.1,0,0.2,0,0.3,0C38.7,51.9,38.8,51.9,38.9,52z"/>
			<path class="st70" d="M38.9,52c-0.1,0-0.2,0-0.3,0c-0.1,0-0.2,0-0.3,0c0.1,0,0.2,0,0.3,0C38.7,52,38.8,52,38.9,52z"/>
		</g>
	</g>
</g>
</svg>
