<svg enable-background="new 0 0 75 83.8" viewBox="0 0 75 83.8" xmlns="http://www.w3.org/2000/svg" xmlns:xlink="http://www.w3.org/1999/xlink"><linearGradient id="a" gradientTransform="matrix(1 -.00855201 -.00855201 -1 -5.6365 71.8987)" gradientUnits="userSpaceOnUse" x1="23.3535" x2="23.3535" y1="4.7169" y2="28.3769"><stop offset="0" stop-color="#fb993c"/><stop offset="1" stop-color="#ffc58e"/></linearGradient><linearGradient id="b" gradientTransform="matrix(1 0 0 -1 -5.74 71.64)" gradientUnits="userSpaceOnUse" x1="35.5477" x2="58.5377" y1="-5.5893" y2="65.1607"><stop offset="0" stop-color="#0f39c3"/><stop offset="1" stop-color="#fa96d3"/></linearGradient><linearGradient id="c" gradientTransform="matrix(1 0 0 -1 -5.74 71.64)" gradientUnits="userSpaceOnUse" x1="21.6354" x2="68.3154" y1="30.48" y2="30.48"><stop offset="0" stop-color="#30a2e3"/><stop offset="1" stop-color="#2fddd1"/></linearGradient><circle cx="17.6" cy="55.2" fill="url(#a)" r="11.8"/><path d="m69.3 52c0-1.6-.6-3.2-1.8-4.3l-16-16 17.3-17.3c.7-.7.6-1.8-.1-2.5-.3-.3-.7-.5-1.2-.5h-36.4l-16 16c-2.4 2.4-2.4 6.2 0 8.6l16 16-17.3 17.4c-.7.7-.6 1.8.1 2.5.3.3.7.5 1.2.5h36.4l16-16c1.1-1.2 1.8-2.7 1.8-4.4z" fill="url(#b)"/><path d="m18.4 25c-1.4 0-2.5 1.1-2.5 2.5v27.4c0 1.4 1.1 2.5 2.5 2.5h41.7c1.4 0 2.5-1.1 2.5-2.5v-27.4c0-1.4-1.1-2.5-2.5-2.5z" fill="url(#c)"/><g fill="#fff"><path d="m21.2 41h31.9v.9h-31.9z"/><path d="m21.2 43.8h35.9v.9h-35.9z"/><path d="m21.2 46.5h33.9v.9h-33.9z"/><path d="m21.2 49.3h27.9v.9h-27.9z"/><path d="m21.2 35.4h25.4v2.5h-25.4z"/></g></svg>