<svg viewBox="0 0 58.65 61" xmlns="http://www.w3.org/2000/svg" xmlns:xlink="http://www.w3.org/1999/xlink"><linearGradient id="a" gradientUnits="userSpaceOnUse" x1="59.67" x2="59.67" y1="44.47" y2="20.81"><stop offset="0" stop-color="#fb993c"/><stop offset="1" stop-color="#ffc58e"/></linearGradient><linearGradient id="b" gradientUnits="userSpaceOnUse" x1="30.99" x2="49.99" y1="12.25" y2="71.25"><stop offset="0" stop-color="#0e48b5"/><stop offset=".48" stop-color="#30a2e3"/><stop offset="1" stop-color="#6bf9eb"/></linearGradient><linearGradient id="c" gradientUnits="userSpaceOnUse" x1="20.48" x2="61.2" y1="22.9" y2="62.93"><stop offset="0" stop-color="#f2f2f2"/><stop offset="1" stop-color="#b3b3b3"/></linearGradient><linearGradient id="d" gradientUnits="userSpaceOnUse" x1="39.47" x2="50.94" y1="42.86" y2="42.86"><stop offset="0" stop-color="#f56fae"/><stop offset="1" stop-color="#fb6874"/></linearGradient><circle cx="59.68" cy="32.64" fill="url(#a)" r="11.83" transform="matrix(.99996343 -.00855201 .00855201 .99996343 -13.14 -11.85)"/><g transform="translate(-12.86 -12.36)"><path d="m68.82 53a6.08 6.08 0 0 0 -1.82-4.29l-16-16 17.3-17.32a1.78 1.78 0 0 0 -1.26-3h-36.37l-16 16a6.1 6.1 0 0 0 0 8.62l16 16-17.28 17.31a1.78 1.78 0 0 0 1.26 3h36.35l16-16a6.08 6.08 0 0 0 1.82-4.32z" fill="url(#b)"/><path d="m61.52 25.08a2.84 2.84 0 0 0 -2.84-2.84h-35.68a2.84 2.84 0 0 0 -2.84 2.84v10.22c7 0 10.57 2.43 14 4.79s6.84 4.68 13.69 4.68 10.15-2.27 13.67-4.68v20.66z" fill="#fff"/><path d="m47.85 44.77c-6.83 0-10.15-2.28-13.67-4.69s-7-4.79-14-4.79v25.46a2.84 2.84 0 0 0 2.82 2.84h35.68a2.84 2.84 0 0 0 2.84-2.84v-20.66c-3.52 2.41-6.84 4.68-13.67 4.68z" fill="#f6f6f6"/><path d="m58.68 64.08h-35.68a3.34 3.34 0 0 1 -3.33-3.33v-35.67a3.34 3.34 0 0 1 3.33-3.33h35.68a3.34 3.34 0 0 1 3.32 3.33v35.67a3.34 3.34 0 0 1 -3.32 3.33zm-35.68-41.36a2.36 2.36 0 0 0 -2.35 2.35v35.68a2.36 2.36 0 0 0 2.35 2.35h35.68a2.36 2.36 0 0 0 2.32-2.35v-35.67a2.36 2.36 0 0 0 -2.35-2.35z" fill="url(#c)"/><path d="m43.8 49h-8.67l-2.06 6.1h-5.07l9-24.48h5l9 24.48h-5zm-7.38-3.67h6.16l-3.11-8.88z" fill="#fb6874"/><path d="m43.8 49h-4.32v-3.69h3.1l-3.11-8.88v-5.81h2.53l9 24.48h-5z" fill="url(#d)"/><path d="m53.2 58.54a.46.46 0 0 1 -.46-.46v-30.44a.46.46 0 0 1 .92 0v30.44a.46.46 0 0 1 -.46.46z" fill="#fb6874"/></g></svg>