<svg enable-background="new 0 0 75 83.8" viewBox="0 0 75 83.8" xmlns="http://www.w3.org/2000/svg" xmlns:xlink="http://www.w3.org/1999/xlink"><linearGradient id="a" gradientTransform="matrix(1 0 0 -1 0 -2032)" gradientUnits="userSpaceOnUse" x1="32.3117" x2="51.3117" y1="-2044.7996" y2="-2103.7996"><stop offset="0" stop-color="#fb6874"/><stop offset="1" stop-color="#f56fae"/></linearGradient><linearGradient id="b"><stop offset=".001241987" stop-color="#fb993c"/><stop offset=".9988" stop-color="#ffc58e"/></linearGradient><linearGradient id="c" gradientTransform="matrix(1 0 0 -1 0 -2032)" gradientUnits="userSpaceOnUse" x1="15.9" x2="15.9" xlink:href="#b" y1="-2068.6526" y2="-2044.6526"/><clipPath id="d"><path d="m38.9 63.2h-21c-1.6 0-2.9-1.3-2.9-2.9v-32.2c0-1.6 1.3-2.9 2.9-2.9h21c1.6 0 2.9 1.3 2.9 2.9v32.2c0 1.6-1.3 2.9-2.9 2.9z"/></clipPath><clipPath id="e"><path d="m38.9 63.2h-21c-1.6 0-2.9-1.3-2.9-2.9v-32.2c0-1.6 1.3-2.9 2.9-2.9h21c1.6 0 2.9 1.3 2.9 2.9v32.2c0 1.6-1.3 2.9-2.9 2.9z"/></clipPath><clipPath id="f"><path d="m38.9 63.2h-21c-1.6 0-2.9-1.3-2.9-2.9v-32.2c0-1.6 1.3-2.9 2.9-2.9h21c1.6 0 2.9 1.3 2.9 2.9v32.2c0 1.6-1.3 2.9-2.9 2.9z"/></clipPath><linearGradient id="g" gradientTransform="matrix(1 0 0 -1 0 -2032)" gradientUnits="userSpaceOnUse" x1="28.4" x2="28.4" y1="-2095.6001" y2="-2056.7"><stop offset="0" stop-color="#e1e9fe"/><stop offset="1" stop-color="#dcf3fd"/></linearGradient><clipPath id="h"><path d="m40.1 62h-23.4c-.3 0-.5-.2-.5-.5v-34.5c0-.3.2-.5.5-.5h23.4c.3 0 .5.2.5.5v34.5c0 .3-.2.5-.5.5z"/></clipPath><linearGradient id="i" gradientUnits="userSpaceOnUse" x1="29.5567" x2="33.9538" y1="64.5875" y2="48.1772"><stop offset="0" stop-color="#30a2e3"/><stop offset=".09141421" stop-color="#30b5dd"/><stop offset=".2172" stop-color="#2fc7d8"/><stop offset=".368" stop-color="#2fd3d4"/><stop offset=".5666" stop-color="#2fdbd2"/><stop offset="1" stop-color="#2fddd1"/></linearGradient><linearGradient id="j" gradientTransform="matrix(1 0 0 -1 0 -2032)" gradientUnits="userSpaceOnUse" x1="23.4" x2="23.4" xlink:href="#b" y1="-2077.5854" y2="-2070.1853"/><linearGradient id="k"><stop offset="0" stop-color="#8f31c1"/><stop offset="1" stop-color="#f56fae"/></linearGradient><linearGradient id="l" gradientTransform="matrix(1 0 0 -1 0 -2032)" gradientUnits="userSpaceOnUse" x1="51.2757" x2="65.5602" xlink:href="#k" y1="-2078.7" y2="-2078.7"/><linearGradient id="m" gradientTransform="matrix(1 0 0 -1 0 -2032)" gradientUnits="userSpaceOnUse" x1="49.0607" x2="67.7607" xlink:href="#k" y1="-2082.3" y2="-2082.3"/><linearGradient id="n" gradientTransform="matrix(1 0 0 -1 0 -2032)" gradientUnits="userSpaceOnUse" x1="51.2757" x2="65.5602" xlink:href="#k" y1="-2085.8999" y2="-2085.8999"/><linearGradient id="o" gradientTransform="matrix(1 0 0 -1 0 -2032)" gradientUnits="userSpaceOnUse" x1="51.2757" x2="65.5602" xlink:href="#k" y1="-2065" y2="-2065"/><linearGradient id="p" gradientTransform="matrix(1 0 0 -1 0 -2032)" gradientUnits="userSpaceOnUse" x1="49.0607" x2="67.7607" xlink:href="#k" y1="-2068.6001" y2="-2068.6001"/><linearGradient id="q" gradientTransform="matrix(1 0 0 -1 0 -2032)" gradientUnits="userSpaceOnUse" x1="51.2757" x2="65.5602" xlink:href="#k" y1="-2072.2" y2="-2072.2"/><linearGradient id="r" gradientTransform="matrix(1 0 0 -1 0 -2032)" gradientUnits="userSpaceOnUse" x1="58.4" x2="58.4" y1="-2095.7" y2="-2056.668"><stop offset="0" stop-color="#b3b3b3"/><stop offset="1" stop-color="#f2f2f2"/></linearGradient><path d="m70.1 53.5c0-1.6-.6-3.1-1.8-4.3l-16-16 17.3-17.3c1.1-1.1.3-3-1.3-3h-36.3l-16 16c-1.2 1.2-1.8 2.8-1.8 4.3 0 1.6.6 3.1 1.8 4.3l16 16-17.3 17.3c-1.1 1.1-.3 3 1.3 3h36.4l16-16c.3-.3.6-.6.8-1 .6-1 .9-2.1.9-3.3z" fill="url(#a)"/><circle cx="15.9" cy="24.7" fill="url(#c)" r="12"/><g fill="#fff"><path clip-path="url(#d)" d="m16 25.2-1.1 1.5v-1.5z"/><path clip-path="url(#e)" d="m41.8 61.6-1.1 1.6h-25.8v-36.5l1.1-1.5h25.8z"/><path clip-path="url(#f)" d="m40.7 63.2 1.1-1.6v1.6z"/></g><path d="m39.9 63.6h-23.1c-1.2 0-2.2-1.4-2.2-3.1v-32.7c0-1.7 1-3.1 2.2-3.1h23.2c1.2 0 2.2 1.4 2.2 3.1v32.8c-.1 1.7-1.1 3-2.3 3zm-23.1-38c-.8 0-1.5 1-1.5 2.2v32.8c0 1.2.7 2.2 1.5 2.2h23.2c.8 0 1.5-1 1.5-2.2v-32.8c0-1.2-.7-2.2-1.5-2.2z" fill="url(#g)"/><path clip-path="url(#h)" d="m40.1 62h-23.4c-.3 0-.5-.2-.5-.5v-34.5c0-.3.2-.5.5-.5h23.4c.3 0 .5.2.5.5v34.5c0 .3-.2.5-.5.5z" fill="#769afc"/><path clip-path="url(#h)" d="m13.8 62 8.5-10.8s.2-.3.7-.3c.5-.1.7.2 1.2.8s5.7 7.1 5.7 7.1v3.2z" fill="#6bf9eb"/><path clip-path="url(#h)" d="m19.9 62 10.9-13.9s.3-.3.9-.4.9.2 1.5 1 7.4 9.2 7.4 9.2v4.1z" fill="url(#i)"/><circle cx="23.4" cy="41.9" fill="url(#j)" r="3.7"/><path d="m48.2 25.6c-1.4 0-2.5 1.2-2.5 3v31c0 1.8 1.1 3.3 2.5 3.3h20.4c1.4 0 2.5-1.5 2.5-3.3v-31c0-1.8-1.1-3-2.5-3z" fill="#fff"/><path d="m51.2 46.1h14.3v1.2h-14.3z" fill="url(#l)"/><path d="m49 49.7h18.7v1.2h-18.7z" fill="url(#m)"/><path d="m51.2 53.3h14.3v1.2h-14.3z" fill="url(#n)"/><path d="m51.2 32.4h14.3v1.2h-14.3z" fill="url(#o)"/><path d="m49 36h18.7v1.2h-18.7z" fill="url(#p)"/><path d="m51.2 39.6h14.3v1.2h-14.3z" fill="url(#q)"/><path d="m67.4 63.7h-18c-2.5 0-4.5-2-4.5-4.5v-30.1c0-2.5 2-4.5 4.5-4.5h18c2.5 0 4.5 2 4.5 4.5v30.1c-.1 2.5-2.1 4.5-4.5 4.5zm-18-37.7c-1.7 0-3.2 1.4-3.2 3.2v30.1c0 1.7 1.4 3.2 3.2 3.2h18c1.7 0 3.2-1.4 3.2-3.2v-30.2c0-1.7-1.4-3.2-3.2-3.2z" fill="url(#r)"/></svg>