<?xml version="1.0" encoding="utf-8"?>
<!-- Generator: Adobe Illustrator 21.1.0, SVG Export Plug-In . SVG Version: 6.00 Build 0)  -->
<svg version="1.1" id="Layer_1" xmlns="http://www.w3.org/2000/svg" xmlns:xlink="http://www.w3.org/1999/xlink" x="0px" y="0px"
	 viewBox="0 0 75 83.8" style="enable-background:new 0 0 75 83.8;" xml:space="preserve">
<style type="text/css">
	.st0{fill:url(#SVGID_1_);}
	.st1{fill:url(#SVGID_2_);}
	.st2{fill:url(#SVGID_3_);}
	.st3{fill:#FFFFFF;}
	.st4{fill:url(#SVGID_4_);}
	.st5{fill:url(#SVGID_5_);}
	.st6{fill:url(#SVGID_6_);}
	.st7{fill:url(#SVGID_7_);}
	.st8{fill:#FFE1CA;}
	.st9{fill:url(#SVGID_8_);}
	.st10{fill:url(#SVGID_9_);}
	.st11{fill:url(#SVGID_10_);}
</style>
<g>
	
		<linearGradient id="SVGID_1_" gradientUnits="userSpaceOnUse" x1="42.2865" y1="50.0908" x2="42.2865" y2="26.4241" gradientTransform="matrix(1 -8.533533e-03 8.533533e-03 1 8.7271 -6.054)">
		<stop  offset="1.241987e-03" style="stop-color:#FB993C"/>
		<stop  offset="0.9988" style="stop-color:#FFC58E"/>
	</linearGradient>
	<circle class="st0" cx="51.3" cy="31.8" r="11.8"/>
	<linearGradient id="SVGID_2_" gradientUnits="userSpaceOnUse" x1="28.431" y1="11.4548" x2="47.431" y2="70.4548">
		<stop  offset="0" style="stop-color:#0F39C3"/>
		<stop  offset="1" style="stop-color:#FA96D3"/>
	</linearGradient>
	<path class="st1" d="M66.3,52.2L66.3,52.2L66.3,52.2c0-1.6-0.6-3.1-1.8-4.3l-16-16l17.3-17.3c1.1-1.1,0.3-3-1.3-3H28.1l0,0l0,0l0,0
		l0,0l0,0v0v0l-16,16c-1.2,1.2-1.8,2.8-1.8,4.3c0,1.6,0.6,3.1,1.8,4.3l16,16v0l0,0h0L10.8,69.5c-1.1,1.1-0.3,3,1.3,3h36.4l0,0v0l0,0
		l0,0l0,0v0l16-16c0.3-0.3,0.6-0.6,0.8-1C65.9,54.6,66.3,53.4,66.3,52.2L66.3,52.2C66.3,52.2,66.3,52.2,66.3,52.2L66.3,52.2z"/>
	<g>
		
			<linearGradient id="SVGID_3_" gradientUnits="userSpaceOnUse" x1="-825.0178" y1="153.3305" x2="-825.0178" y2="206.4815" gradientTransform="matrix(0.7071 -0.7071 0.7071 0.7071 489.2498 -656.4905)">
			<stop  offset="0" style="stop-color:#2FDDD1"/>
			<stop  offset="1" style="stop-color:#0E48B5"/>
		</linearGradient>
		<path class="st2" d="M55.5,69.2l-7.4,7.4c-0.5,0.5-1.3,0.5-1.8,0L10.5,40.7c-0.5-0.5-0.5-1.3,0-1.8l7.4-7.4c0.5-0.5,1.3-0.5,1.8,0
			l35.8,35.8C56,67.8,56,68.7,55.5,69.2z"/>
		<g>
			
				<rect x="18.7" y="34.8" transform="matrix(0.7071 -0.7071 0.7071 0.7071 -18.8708 24.9189)" class="st3" width="3.9" height="0.8"/>
			<rect x="20.3" y="37.8" transform="matrix(0.7071 -0.7071 0.7071 0.7071 -20.3287 27.353)" class="st3" width="5" height="0.8"/>
			<rect x="23.9" y="40" transform="matrix(0.7071 -0.7071 0.7071 0.7071 -21.019 30.1049)" class="st3" width="3.9" height="0.8"/>
			<rect x="25.5" y="43" transform="matrix(0.7071 -0.7071 0.7071 0.7071 -22.4768 32.539)" class="st3" width="5" height="0.8"/>
			<rect x="29" y="45.2" transform="matrix(0.7071 -0.7071 0.7071 0.7071 -23.1671 35.291)" class="st3" width="3.9" height="0.8"/>
			<rect x="30.7" y="48.2" transform="matrix(0.7071 -0.7071 0.7071 0.7071 -24.6249 37.725)" class="st3" width="5" height="0.8"/>
			
				<rect x="34.2" y="50.4" transform="matrix(0.7071 -0.7071 0.7071 0.7071 -25.3153 40.477)" class="st3" width="3.9" height="0.8"/>
			
				<rect x="35.9" y="53.4" transform="matrix(0.7071 -0.7071 0.7071 0.7071 -26.7731 42.9111)" class="st3" width="5" height="0.8"/>
			
				<rect x="39.4" y="55.6" transform="matrix(0.7071 -0.7071 0.7071 0.7071 -27.4634 45.663)" class="st3" width="3.9" height="0.8"/>
			
				<rect x="41.1" y="58.5" transform="matrix(0.7071 -0.7071 0.7071 0.7071 -28.9212 48.0971)" class="st3" width="5" height="0.8"/>
			
				<rect x="44.6" y="60.8" transform="matrix(0.7071 -0.7071 0.7071 0.7071 -29.6115 50.8491)" class="st3" width="3.9" height="0.8"/>
			
				<rect x="46.3" y="63.7" transform="matrix(0.7071 -0.7071 0.7071 0.7071 -31.0693 53.2831)" class="st3" width="5" height="0.8"/>
			
				<rect x="49.8" y="65.9" transform="matrix(0.7071 -0.7071 0.7071 0.7071 -31.7597 56.0351)" class="st3" width="3.9" height="0.8"/>
		</g>
	</g>
	<g>
		<g>
			
				<linearGradient id="SVGID_4_" gradientUnits="userSpaceOnUse" x1="-821.9271" y1="184.43" x2="-821.9271" y2="145.5493" gradientTransform="matrix(0.7009 -0.7133 0.7133 0.7009 491.5675 -665.5146)">
				<stop  offset="1.241987e-03" style="stop-color:#FB993C"/>
				<stop  offset="0.9988" style="stop-color:#FFC58E"/>
			</linearGradient>
			<polygon class="st4" points="47.9,49.2 46.2,50.9 18.5,23.6 20.1,21.9 			"/>
			
				<linearGradient id="SVGID_5_" gradientUnits="userSpaceOnUse" x1="-819.559" y1="184.43" x2="-819.559" y2="145.5493" gradientTransform="matrix(0.7009 -0.7133 0.7133 0.7009 491.5675 -665.5146)">
				<stop  offset="1.241987e-03" style="stop-color:#FA881B"/>
				<stop  offset="0.9988" style="stop-color:#FFB269"/>
			</linearGradient>
			<polygon class="st5" points="49.5,47.5 47.9,49.2 20.1,21.9 21.8,20.2 			"/>
			
				<linearGradient id="SVGID_6_" gradientUnits="userSpaceOnUse" x1="-817.1909" y1="184.43" x2="-817.1909" y2="145.5493" gradientTransform="matrix(0.7009 -0.7133 0.7133 0.7009 491.5675 -665.5146)">
				<stop  offset="1.241987e-03" style="stop-color:#FB993C"/>
				<stop  offset="0.9988" style="stop-color:#FFC58E"/>
			</linearGradient>
			<polygon class="st6" points="51.2,45.8 49.5,47.5 21.8,20.2 23.5,18.5 			"/>
		</g>
		
			<linearGradient id="SVGID_7_" gradientUnits="userSpaceOnUse" x1="-819.559" y1="142.9962" x2="-819.559" y2="138.6099" gradientTransform="matrix(0.7009 -0.7133 0.7133 0.7009 491.5675 -665.5146)">
			<stop  offset="0" style="stop-color:#FB6874"/>
			<stop  offset="1" style="stop-color:#F56FAE"/>
		</linearGradient>
		<path class="st7" d="M17.3,14.9l-0.4,0.4L15.2,17l-0.4,0.4c-0.7,0.7-0.7,1.8,0,2.5l1.9,1.8l5-5.1l-1.9-1.8
			C19.1,14.2,18,14.2,17.3,14.9z"/>
		<g>
			<polygon class="st8" points="51.2,45.8 46.2,50.9 51.8,52.8 53.3,51.3 			"/>
			
				<linearGradient id="SVGID_8_" gradientUnits="userSpaceOnUse" x1="-1127.3444" y1="-1672.2728" x2="-1127.3444" y2="-1680.1743" gradientTransform="matrix(-1 8.754594e-03 -8.754594e-03 -1 -1089.042 -1616.5692)">
				<stop  offset="1.241987e-03" style="stop-color:#FA881B"/>
				<stop  offset="0.9988" style="stop-color:#FFB269"/>
			</linearGradient>
			<polygon class="st9" points="53.3,51.3 51.8,52.8 54.1,53.7 			"/>
			
				<linearGradient id="SVGID_9_" gradientUnits="userSpaceOnUse" x1="-819.5591" y1="196.2211" x2="-819.5591" y2="189.8075" gradientTransform="matrix(0.7009 -0.7133 0.7133 0.7009 491.5675 -665.5146)">
				<stop  offset="0" style="stop-color:#0F39C3"/>
				<stop  offset="0.9987" style="stop-color:#0E48B5"/>
			</linearGradient>
			<polygon class="st10" points="53.3,51.3 51.8,52.8 54.1,53.7 			"/>
		</g>
		
			<linearGradient id="SVGID_10_" gradientUnits="userSpaceOnUse" x1="-823.407" y1="144.2803" x2="-815.7109" y2="144.2803" gradientTransform="matrix(0.7009 -0.7133 0.7133 0.7009 491.5675 -665.5146)">
			<stop  offset="0" style="stop-color:#AB5AF1"/>
			<stop  offset="1" style="stop-color:#749CFC"/>
		</linearGradient>
		<path class="st11" d="M23.5,18.5l-5.1,5.2c-0.1,0.1-0.2,0.1-0.3,0l-1.5-1.5c-0.1-0.1-0.1-0.2,0-0.3l5.1-5.2c0.1-0.1,0.2-0.1,0.3,0
			l1.5,1.5C23.6,18.3,23.6,18.4,23.5,18.5z"/>
	</g>
</g>
</svg>
