<?xml version="1.0" encoding="utf-8"?>
<!-- Generator: Adobe Illustrator 21.1.0, SVG Export Plug-In . SVG Version: 6.00 Build 0)  -->
<svg version="1.1" id="Layer_1" xmlns="http://www.w3.org/2000/svg" xmlns:xlink="http://www.w3.org/1999/xlink" x="0px" y="0px"
	 viewBox="0 0 75 83.8" style="enable-background:new 0 0 75 83.8;" xml:space="preserve">
<style type="text/css">
	.st0{fill:url(#SVGID_1_);}
	.st1{fill:url(#SVGID_2_);}
	.st2{fill:#FFFFFF;}
	.st3{fill:url(#SVGID_3_);}
	.st4{fill:url(#SVGID_4_);}
	.st5{fill:#CCCCCC;}
	.st6{fill:url(#SVGID_5_);}
	.st7{fill:url(#SVGID_6_);}
	.st8{fill:url(#SVGID_7_);}
	.st9{fill:url(#SVGID_8_);}
	.st10{fill:url(#SVGID_9_);}
	.st11{fill:url(#SVGID_10_);}
	.st12{fill:url(#SVGID_11_);}
	.st13{fill:url(#SVGID_12_);}
	.st14{fill:url(#SVGID_13_);}
	.st15{fill:url(#SVGID_14_);}
	.st16{fill:url(#SVGID_15_);}
	.st17{fill:url(#SVGID_16_);}
	.st18{fill:url(#SVGID_17_);}
	.st19{fill:url(#SVGID_18_);}
	.st20{fill:url(#SVGID_19_);}
	.st21{fill:url(#SVGID_20_);}
	.st22{fill:url(#SVGID_21_);}
	.st23{fill:url(#SVGID_22_);}
	.st24{fill:url(#SVGID_23_);}
	.st25{fill:url(#SVGID_24_);}
	.st26{fill:url(#SVGID_25_);}
	.st27{fill:url(#SVGID_26_);}
	.st28{fill:url(#SVGID_27_);}
	.st29{fill:url(#SVGID_28_);}
	.st30{fill:url(#SVGID_29_);}
	.st31{fill:url(#SVGID_30_);}
</style>
<g>
	<g>
		<linearGradient id="SVGID_1_" gradientUnits="userSpaceOnUse" x1="251.6592" y1="159.5625" x2="270.6592" y2="218.5625">
			<stop  offset="0" style="stop-color:#0F39C3"/>
			<stop  offset="1" style="stop-color:#FA96D3"/>
		</linearGradient>
		<path class="st0" d="M289.5,200.3L289.5,200.3L289.5,200.3c0-1.6-0.6-3.1-1.8-4.3l-16-16l17.3-17.3c1.1-1.1,0.3-3-1.3-3h-36.4l0,0
			l0,0l0,0l0,0l0,0v0v0l-16,16c-1.2,1.2-1.8,2.8-1.8,4.3c0,1.6,0.6,3.1,1.8,4.3l16,16v0l0,0h0l-17.3,17.3c-1.1,1.1-0.3,3,1.3,3h36.4
			l0,0v0l0,0l0,0l0,0v0l16-16c0.3-0.3,0.6-0.6,0.8-1C289.2,202.7,289.5,201.5,289.5,200.3L289.5,200.3
			C289.5,200.3,289.5,200.3,289.5,200.3L289.5,200.3z"/>
	</g>
	
		<linearGradient id="SVGID_2_" gradientUnits="userSpaceOnUse" x1="227.1121" y1="219.1904" x2="227.1121" y2="195.5237" gradientTransform="matrix(1 -8.533533e-03 8.533533e-03 1 8.7293 -5.296)">
		<stop  offset="0" style="stop-color:#FB6874"/>
		<stop  offset="1" style="stop-color:#F56FAE"/>
	</linearGradient>
	<circle class="st1" cx="237.6" cy="200.1" r="11.8"/>
	<g>
		<g>
			<g>
				<path class="st2" d="M269.6,183.6v19.6c0,1.5,1.2,2.8,2.8,2.8h13.7c1.5,0,2.8-1.2,2.8-2.8v-19.6H269.6z"/>
				<g>
					<linearGradient id="SVGID_3_" gradientUnits="userSpaceOnUse" x1="269.0875" y1="184.5755" x2="289.42" y2="204.5639">
						<stop  offset="0" style="stop-color:#F2F2F2"/>
						<stop  offset="1" style="stop-color:#B3B3B3"/>
					</linearGradient>
					<path class="st3" d="M270,184.5v18.9c0,1.1,0.9,2.1,2.1,2.1h14.4c1.1,0,2.1-0.9,2.1-2.1v-18.9h0.9v18.9c0,1.6-1.3,2.9-2.9,2.9
						h-14.4c-1.6,0-2.9-1.3-2.9-2.9v-18.9"/>
				</g>
				<linearGradient id="SVGID_4_" gradientUnits="userSpaceOnUse" x1="271.1635" y1="178.8479" x2="289.3585" y2="178.8479">
					<stop  offset="0" style="stop-color:#30A2E3"/>
					<stop  offset="1" style="stop-color:#2FDDD1"/>
				</linearGradient>
				<path class="st4" d="M287.3,173.2h-14c-1.2,0-2.1,0.9-2.1,2.1v9.2h18.2v-9.2C289.4,174.1,288.4,173.2,287.3,173.2z"/>
				<g>
					<path class="st2" d="M281.6,177.1c-0.3-0.2-0.6-0.4-0.9-0.5v1.6c1.1,0.4,1.5,0.9,1.5,1.7v0c0,0.8-0.6,1.4-1.5,1.5v0.8H280v-0.8
						c-0.6-0.1-1.2-0.3-1.7-0.8l0.5-0.7c0.4,0.3,0.7,0.6,1.2,0.6V179c-1-0.4-1.5-0.8-1.5-1.7v0c0-0.8,0.6-1.4,1.5-1.5v-0.5h0.6v0.5
						c0.5,0.1,1,0.3,1.4,0.6L281.6,177.1z M280,178v-1.4c-0.4,0.1-0.6,0.3-0.6,0.7v0C279.5,177.5,279.6,177.7,280,178z M280.7,179.2
						v1.5c0.4-0.1,0.6-0.3,0.6-0.7v0C281.3,179.6,281.1,179.4,280.7,179.2z"/>
				</g>
				<g>
					<rect x="274.3" y="187.9" class="st5" width="11.8" height="0.8"/>
					<rect x="274.3" y="190.2" class="st5" width="11.8" height="0.8"/>
					<polyline class="st5" points="284,193.3 274.3,193.3 274.3,192.5 286.2,192.5 286.2,193.3 284,193.3 					"/>
					<rect x="274.3" y="194.9" class="st5" width="11.8" height="0.8"/>
				</g>
				<linearGradient id="SVGID_5_" gradientUnits="userSpaceOnUse" x1="274.3676" y1="199.9615" x2="286.1544" y2="199.9615">
					<stop  offset="1.241987e-03" style="stop-color:#FB993C"/>
					<stop  offset="0.9988" style="stop-color:#FFC58E"/>
				</linearGradient>
				<path class="st6" d="M285.6,202.3h-10.7c-0.3,0-0.5-0.2-0.5-0.5v-3.7c0-0.3,0.2-0.5,0.5-0.5h10.7c0.3,0,0.5,0.2,0.5,0.5v3.7
					C286.2,202.1,285.9,202.3,285.6,202.3z"/>
			</g>
			<g>
				<path class="st2" d="M234.2,183.6v19.6c0,1.5,1.2,2.8,2.8,2.8h14.7c1.5,0,2.8-1.2,2.8-2.8v-19.6H234.2z"/>
				<g>
					<linearGradient id="SVGID_6_" gradientUnits="userSpaceOnUse" x1="233.9206" y1="184.3256" x2="254.7616" y2="204.8139">
						<stop  offset="0" style="stop-color:#F2F2F2"/>
						<stop  offset="1" style="stop-color:#B3B3B3"/>
					</linearGradient>
					<path class="st7" d="M234.6,184.5v18.9c0,1.1,0.9,2.1,2.1,2.1H252c1.1,0,2.1-0.9,2.1-2.1v-18.9h0.9v18.9c0,1.6-1.3,2.9-2.9,2.9
						h-15.4c-1.6,0-2.9-1.3-2.9-2.9v-18.9"/>
				</g>
				<linearGradient id="SVGID_7_" gradientUnits="userSpaceOnUse" x1="233.7509" y1="178.8479" x2="251.9458" y2="178.8479">
					<stop  offset="0" style="stop-color:#30A2E3"/>
					<stop  offset="1" style="stop-color:#2FDDD1"/>
				</linearGradient>
				<path class="st8" d="M249.8,173.2h-14c-1.2,0-2.1,0.9-2.1,2.1v9.2h18.2v-9.2C251.9,174.1,251,173.2,249.8,173.2z"/>
				<g>
					<path class="st2" d="M244.2,177.1c-0.3-0.2-0.6-0.4-0.9-0.5v1.6c1.1,0.4,1.5,0.9,1.5,1.7v0c0,0.8-0.6,1.4-1.5,1.5v0.8h-0.6
						v-0.8c-0.6-0.1-1.2-0.3-1.7-0.8l0.5-0.7c0.4,0.3,0.7,0.6,1.2,0.6V179c-1-0.4-1.5-0.8-1.5-1.7v0c0-0.8,0.6-1.4,1.5-1.5v-0.5h0.6
						v0.5c0.5,0.1,1,0.3,1.4,0.6L244.2,177.1z M242.6,178v-1.4c-0.4,0.1-0.6,0.3-0.6,0.7v0C242.1,177.5,242.2,177.7,242.6,178z
						 M243.2,179.2v1.5c0.4-0.1,0.6-0.3,0.6-0.7v0C243.9,179.6,243.7,179.4,243.2,179.2z"/>
				</g>
				<g>
					<rect x="236.9" y="187.9" class="st5" width="11.8" height="0.8"/>
					<rect x="236.9" y="190.2" class="st5" width="11.8" height="0.8"/>
					<polyline class="st5" points="246.6,193.3 236.9,193.3 236.9,192.5 248.8,192.5 248.8,193.3 246.6,193.3 					"/>
					<rect x="236.9" y="194.9" class="st5" width="11.8" height="0.8"/>
				</g>
				<linearGradient id="SVGID_8_" gradientUnits="userSpaceOnUse" x1="236.955" y1="199.9615" x2="248.7417" y2="199.9615">
					<stop  offset="1.241987e-03" style="stop-color:#FB993C"/>
					<stop  offset="0.9988" style="stop-color:#FFC58E"/>
				</linearGradient>
				<path class="st9" d="M248.2,202.3h-10.7c-0.3,0-0.5-0.2-0.5-0.5v-3.7c0-0.3,0.2-0.5,0.5-0.5h10.7c0.3,0,0.5,0.2,0.5,0.5v3.7
					C248.7,202.1,248.5,202.3,248.2,202.3z"/>
			</g>
		</g>
		<g>
			<path class="st2" d="M251.4,183.4v23c0,1.8,1.5,3.3,3.3,3.3h13.8c1.8,0,3.3-1.5,3.3-3.3v-23H251.4z"/>
			<g>
				<linearGradient id="SVGID_9_" gradientUnits="userSpaceOnUse" x1="250.218" y1="185.1226" x2="272.8743" y2="207.3956">
					<stop  offset="0" style="stop-color:#F2F2F2"/>
					<stop  offset="1" style="stop-color:#B3B3B3"/>
				</linearGradient>
				<path class="st10" d="M251.9,184.4v22.2c0,1.3,1.1,2.4,2.4,2.4h14.5c1.3,0,2.4-1.1,2.4-2.4v-22.2h1v22.2c0,1.9-1.5,3.4-3.4,3.4
					h-14.5c-1.9,0-3.4-1.5-3.4-3.4v-22.2"/>
			</g>
			<linearGradient id="SVGID_10_" gradientUnits="userSpaceOnUse" x1="250.8836" y1="177.2314" x2="272.2257" y2="177.2314">
				<stop  offset="0" style="stop-color:#30A2E3"/>
				<stop  offset="1" style="stop-color:#2FDDD1"/>
			</linearGradient>
			<path class="st11" d="M269.8,170h-16.4c-1.4,0-2.5,1.1-2.5,2.5v11.9h21.3v-11.9C272.2,171.1,271.1,170,269.8,170z"/>
			<g>
				<path class="st2" d="M263.1,175.7c-0.3-0.3-0.7-0.5-1.1-0.6v1.9c1.3,0.5,1.8,1.1,1.8,2v0c0,1-0.7,1.7-1.8,1.8v1h-0.8v-1
					c-0.7-0.1-1.4-0.4-2-0.9l0.6-0.8c0.4,0.4,0.9,0.7,1.4,0.8v-2c-1.2-0.5-1.7-1-1.7-1.9v0c0-1,0.7-1.6,1.7-1.8v-0.6h0.8v0.6
					c0.6,0.1,1.2,0.3,1.6,0.7L263.1,175.7z M261.3,176.8v-1.6c-0.5,0.1-0.7,0.4-0.7,0.8v0C260.6,176.3,260.8,176.5,261.3,176.8z
					 M262,178.2v1.7c0.5-0.1,0.7-0.4,0.7-0.8v0C262.7,178.7,262.6,178.5,262,178.2z"/>
			</g>
			<g>
				<rect x="254.6" y="188.4" class="st5" width="13.9" height="0.9"/>
				<rect x="254.6" y="191.1" class="st5" width="13.9" height="0.9"/>
				<polyline class="st5" points="266,194.8 254.6,194.8 254.6,193.9 268.5,193.9 268.5,194.8 266,194.8 				"/>
				<rect x="254.6" y="196.6" class="st5" width="13.9" height="0.9"/>
			</g>
			<linearGradient id="SVGID_11_" gradientUnits="userSpaceOnUse" x1="254.642" y1="202.5835" x2="268.4674" y2="202.5835">
				<stop  offset="1.241987e-03" style="stop-color:#FB993C"/>
				<stop  offset="0.9988" style="stop-color:#FFC58E"/>
			</linearGradient>
			<path class="st12" d="M267.8,205.4h-12.6c-0.4,0-0.6-0.3-0.6-0.6v-4.3c0-0.4,0.3-0.6,0.6-0.6h12.6c0.4,0,0.6,0.3,0.6,0.6v4.3
				C268.5,205.1,268.2,205.4,267.8,205.4z"/>
		</g>
	</g>
</g>
<g>
	<g>
		<linearGradient id="SVGID_12_" gradientUnits="userSpaceOnUse" x1="28.9361" y1="11.5188" x2="47.9361" y2="70.5188">
			<stop  offset="0" style="stop-color:#FB6874"/>
			<stop  offset="1" style="stop-color:#F56FAE"/>
		</linearGradient>
		<path class="st13" d="M66.8,52.3L66.8,52.3L66.8,52.3c0-1.6-0.6-3.1-1.8-4.3l-16-16l17.3-17.3c1.1-1.1,0.3-3-1.3-3H28.6l0,0l0,0
			l0,0l0,0l0,0v0v0l-16,16c-1.2,1.2-1.8,2.8-1.8,4.3c0,1.6,0.6,3.1,1.8,4.3l16,16v0l0,0h0L11.3,69.6c-1.1,1.1-0.3,3,1.3,3H49l0,0v0
			l0,0l0,0l0,0v0l16-16c0.3-0.3,0.6-0.6,0.8-1C66.4,54.6,66.8,53.5,66.8,52.3L66.8,52.3C66.8,52.3,66.8,52.3,66.8,52.3L66.8,52.3z"
			/>
	</g>
	<linearGradient id="SVGID_13_" gradientUnits="userSpaceOnUse" x1="15.5704" y1="41.5067" x2="15.5704" y2="17.5067">
		<stop  offset="0" style="stop-color:#30A2E3"/>
		<stop  offset="1" style="stop-color:#2FDDD1"/>
	</linearGradient>
	<circle class="st14" cx="15.6" cy="29.5" r="12"/>
	<g>
		<linearGradient id="SVGID_14_" gradientUnits="userSpaceOnUse" x1="10.44" y1="45.0455" x2="65.0898" y2="45.0455">
			<stop  offset="0" style="stop-color:#0E48B5"/>
			<stop  offset="1" style="stop-color:#30A2E3"/>
		</linearGradient>
		<path class="st15" d="M64.3,28h-51c-1.6,0-2.8,1.3-2.8,2.8v25.4c0,1.6,1.3,2.8,2.8,2.8h22.5l0,0.2c0,1.6,1.3,3,3,3
			c1.6,0,3-1.3,3-3V59h22.5c1.6,0,2.8-1.3,2.8-2.8V30.8C67.1,29.2,65.9,28,64.3,28z"/>
		<g>
			<linearGradient id="SVGID_15_" gradientUnits="userSpaceOnUse" x1="13.3045" y1="41.4568" x2="64.1389" y2="41.4568">
				<stop  offset="0.45" style="stop-color:#F2F2F2"/>
				<stop  offset="0.5" style="stop-color:#B6B6B6"/>
				<stop  offset="0.55" style="stop-color:#F2F2F2"/>
			</linearGradient>
			<path class="st16" d="M63,25H42.3c-1.5,0-2.7,0.9-3.3,2.2c-0.1,0.2-0.5,0.2-0.6,0C38,25.9,36.7,25,35.2,25H14.6
				c-0.7,0-1.3,0.6-1.3,1.3v28.4c0,0.7,0.6,1.3,1.3,1.3h6.2h14.9c1.2,0,2.3,0.7,2.8,1.8c0.1,0.2,0.4,0.2,0.6,0
				c0.5-1.1,1.6-1.8,2.8-1.8h14.9H63c0.7,0,1.3-0.6,1.3-1.3V26.2C64.3,25.6,63.7,25,63,25z"/>
		</g>
		<g>
			<g>
				<g>
					<linearGradient id="SVGID_16_" gradientUnits="userSpaceOnUse" x1="25.2907" y1="31.6633" x2="25.2907" y2="49.0729">
						<stop  offset="5.174279e-02" style="stop-color:#8859F1"/>
						<stop  offset="0.504" style="stop-color:#30A2E3"/>
						<stop  offset="1" style="stop-color:#91D9F9"/>
					</linearGradient>
					<rect x="17.9" y="31.9" class="st17" width="14.7" height="0.9"/>
					<linearGradient id="SVGID_17_" gradientUnits="userSpaceOnUse" x1="25.2907" y1="31.6633" x2="25.2907" y2="49.0729">
						<stop  offset="5.174279e-02" style="stop-color:#8859F1"/>
						<stop  offset="0.504" style="stop-color:#30A2E3"/>
						<stop  offset="1" style="stop-color:#91D9F9"/>
					</linearGradient>
					<rect x="17.9" y="34.7" class="st18" width="14.7" height="0.9"/>
					<linearGradient id="SVGID_18_" gradientUnits="userSpaceOnUse" x1="25.2907" y1="31.6633" x2="25.2907" y2="49.0729">
						<stop  offset="5.174279e-02" style="stop-color:#8859F1"/>
						<stop  offset="0.504" style="stop-color:#30A2E3"/>
						<stop  offset="1" style="stop-color:#91D9F9"/>
					</linearGradient>
					<rect x="17.9" y="37.4" class="st19" width="14.7" height="0.9"/>
					<linearGradient id="SVGID_19_" gradientUnits="userSpaceOnUse" x1="25.2907" y1="31.6633" x2="25.2907" y2="49.0729">
						<stop  offset="5.174279e-02" style="stop-color:#8859F1"/>
						<stop  offset="0.504" style="stop-color:#30A2E3"/>
						<stop  offset="1" style="stop-color:#91D9F9"/>
					</linearGradient>
					<rect x="17.9" y="40.2" class="st20" width="14.7" height="0.9"/>
					<linearGradient id="SVGID_20_" gradientUnits="userSpaceOnUse" x1="25.2907" y1="31.6633" x2="25.2907" y2="49.0729">
						<stop  offset="5.174279e-02" style="stop-color:#8859F1"/>
						<stop  offset="0.504" style="stop-color:#30A2E3"/>
						<stop  offset="1" style="stop-color:#91D9F9"/>
					</linearGradient>
					<rect x="17.9" y="43" class="st21" width="14.7" height="0.9"/>
					<linearGradient id="SVGID_21_" gradientUnits="userSpaceOnUse" x1="25.2907" y1="31.6633" x2="25.2907" y2="49.0729">
						<stop  offset="5.174279e-02" style="stop-color:#8859F1"/>
						<stop  offset="0.504" style="stop-color:#30A2E3"/>
						<stop  offset="1" style="stop-color:#91D9F9"/>
					</linearGradient>
					<rect x="17.9" y="45.8" class="st22" width="14.7" height="0.9"/>
					<linearGradient id="SVGID_22_" gradientUnits="userSpaceOnUse" x1="23.7783" y1="31.6633" x2="23.7783" y2="49.0729">
						<stop  offset="5.174279e-02" style="stop-color:#8859F1"/>
						<stop  offset="0.504" style="stop-color:#30A2E3"/>
						<stop  offset="1" style="stop-color:#91D9F9"/>
					</linearGradient>
					<rect x="17.9" y="48.5" class="st23" width="11.7" height="0.9"/>
				</g>
				<g>
					<linearGradient id="SVGID_23_" gradientUnits="userSpaceOnUse" x1="52.2843" y1="31.6633" x2="52.2843" y2="49.0729">
						<stop  offset="5.174279e-02" style="stop-color:#8859F1"/>
						<stop  offset="0.504" style="stop-color:#30A2E3"/>
						<stop  offset="1" style="stop-color:#91D9F9"/>
					</linearGradient>
					<rect x="44.9" y="31.9" class="st24" width="14.7" height="0.9"/>
					<linearGradient id="SVGID_24_" gradientUnits="userSpaceOnUse" x1="52.2843" y1="31.6633" x2="52.2843" y2="49.0729">
						<stop  offset="5.174279e-02" style="stop-color:#8859F1"/>
						<stop  offset="0.504" style="stop-color:#30A2E3"/>
						<stop  offset="1" style="stop-color:#91D9F9"/>
					</linearGradient>
					<rect x="44.9" y="34.7" class="st25" width="14.7" height="0.9"/>
					<linearGradient id="SVGID_25_" gradientUnits="userSpaceOnUse" x1="52.2843" y1="31.6633" x2="52.2843" y2="49.0729">
						<stop  offset="5.174279e-02" style="stop-color:#8859F1"/>
						<stop  offset="0.504" style="stop-color:#30A2E3"/>
						<stop  offset="1" style="stop-color:#91D9F9"/>
					</linearGradient>
					<rect x="44.9" y="37.4" class="st26" width="14.7" height="0.9"/>
					<linearGradient id="SVGID_26_" gradientUnits="userSpaceOnUse" x1="52.2843" y1="31.6633" x2="52.2843" y2="49.0729">
						<stop  offset="5.174279e-02" style="stop-color:#8859F1"/>
						<stop  offset="0.504" style="stop-color:#30A2E3"/>
						<stop  offset="1" style="stop-color:#91D9F9"/>
					</linearGradient>
					<rect x="44.9" y="40.2" class="st27" width="14.7" height="0.9"/>
					<linearGradient id="SVGID_27_" gradientUnits="userSpaceOnUse" x1="52.2843" y1="31.6633" x2="52.2843" y2="49.0729">
						<stop  offset="5.174279e-02" style="stop-color:#8859F1"/>
						<stop  offset="0.504" style="stop-color:#30A2E3"/>
						<stop  offset="1" style="stop-color:#91D9F9"/>
					</linearGradient>
					<rect x="44.9" y="43" class="st28" width="14.7" height="0.9"/>
					<linearGradient id="SVGID_28_" gradientUnits="userSpaceOnUse" x1="52.2843" y1="31.6633" x2="52.2843" y2="49.0729">
						<stop  offset="5.174279e-02" style="stop-color:#8859F1"/>
						<stop  offset="0.504" style="stop-color:#30A2E3"/>
						<stop  offset="1" style="stop-color:#91D9F9"/>
					</linearGradient>
					<rect x="44.9" y="45.8" class="st29" width="14.7" height="0.9"/>
					<linearGradient id="SVGID_29_" gradientUnits="userSpaceOnUse" x1="50.7719" y1="31.6633" x2="50.7719" y2="49.0729">
						<stop  offset="5.174279e-02" style="stop-color:#8859F1"/>
						<stop  offset="0.504" style="stop-color:#30A2E3"/>
						<stop  offset="1" style="stop-color:#91D9F9"/>
					</linearGradient>
					<rect x="44.9" y="48.5" class="st30" width="11.7" height="0.9"/>
				</g>
			</g>
		</g>
	</g>
	<g>
		
			<linearGradient id="SVGID_30_" gradientUnits="userSpaceOnUse" x1="-1552.6184" y1="-327.1357" x2="-1536.9706" y2="-327.1355" gradientTransform="matrix(-8.254349e-06 -1 1 4.369913e-06 388.8152 -1483.0736)">
			<stop  offset="0" style="stop-color:#FC7D76"/>
			<stop  offset="1" style="stop-color:#FCAC60"/>
		</linearGradient>
		<circle class="st31" cx="61.6" cy="61.6" r="7.8"/>
		<g>
			<g>
				<g>
					<g>
						<circle class="st2" cx="57.9" cy="61.6" r="1.1"/>
					</g>
				</g>
			</g>
			<g>
				<g>
					<g>
						<circle class="st2" cx="61.6" cy="61.6" r="1.1"/>
					</g>
				</g>
			</g>
			<g>
				<g>
					<g>
						<circle class="st2" cx="65.4" cy="61.6" r="1.1"/>
					</g>
				</g>
			</g>
		</g>
	</g>
</g>
</svg>
