<svg enable-background="new 0 0 75 83.8" viewBox="0 0 75 83.8" xmlns="http://www.w3.org/2000/svg" xmlns:xlink="http://www.w3.org/1999/xlink"><linearGradient id="a"><stop offset=".001241987" stop-color="#fb993c"/><stop offset=".9988" stop-color="#ffc58e"/></linearGradient><linearGradient id="b" gradientUnits="userSpaceOnUse" x1="58.2416" x2="58.2416" xlink:href="#a" y1="44.313" y2="20.313"/><linearGradient id="c" gradientUnits="userSpaceOnUse" x1="28.5251" x2="48.2361" y1="11.5989" y2="72.8068"><stop offset="0" stop-color="#fa96d3"/><stop offset="1" stop-color="#0f39c3"/></linearGradient><clipPath id="d"><circle cx="50.5" cy="43.8" r="4"/></clipPath><linearGradient id="e" gradientUnits="userSpaceOnUse" x1="251.6592" x2="270.6592" y1="159.5625" y2="218.5625"><stop offset="0" stop-color="#0f39c3"/><stop offset="1" stop-color="#fa96d3"/></linearGradient><linearGradient id="f"><stop offset="0" stop-color="#fb6874"/><stop offset="1" stop-color="#f56fae"/></linearGradient><linearGradient id="g" gradientTransform="matrix(1 -.00853353 .00853353 1 8.7293 -5.296)" gradientUnits="userSpaceOnUse" x1="227.1121" x2="227.1121" xlink:href="#f" y1="219.1904" y2="195.5237"/><linearGradient id="h"><stop offset="0" stop-color="#f2f2f2"/><stop offset="1" stop-color="#b3b3b3"/></linearGradient><linearGradient id="i" gradientUnits="userSpaceOnUse" x1="269.0875" x2="289.42" xlink:href="#h" y1="184.5755" y2="204.5639"/><linearGradient id="j"><stop offset="0" stop-color="#30a2e3"/><stop offset="1" stop-color="#2fddd1"/></linearGradient><linearGradient id="k" gradientUnits="userSpaceOnUse" x1="271.1635" x2="289.3585" xlink:href="#j" y1="178.8479" y2="178.8479"/><linearGradient id="l" gradientUnits="userSpaceOnUse" x1="274.3676" x2="286.1544" xlink:href="#a" y1="199.9615" y2="199.9615"/><linearGradient id="m" gradientUnits="userSpaceOnUse" x1="233.9206" x2="254.7616" xlink:href="#h" y1="184.3256" y2="204.8139"/><linearGradient id="n" gradientUnits="userSpaceOnUse" x1="233.7509" x2="251.9458" xlink:href="#j" y1="178.8479" y2="178.8479"/><linearGradient id="o" gradientUnits="userSpaceOnUse" x1="236.955" x2="248.7417" xlink:href="#a" y1="199.9615" y2="199.9615"/><linearGradient id="p" gradientUnits="userSpaceOnUse" x1="250.218" x2="272.8743" xlink:href="#h" y1="185.1226" y2="207.3956"/><linearGradient id="q" gradientUnits="userSpaceOnUse" x1="250.8836" x2="272.2257" xlink:href="#j" y1="177.2314" y2="177.2314"/><linearGradient id="r" gradientUnits="userSpaceOnUse" x1="254.642" x2="268.4674" xlink:href="#a" y1="202.5835" y2="202.5835"/><linearGradient id="s" gradientUnits="userSpaceOnUse" x1="2.0018" x2="30.0236" xlink:href="#h" y1="27.5056" y2="55.0532"/><linearGradient id="t"><stop offset="0" stop-color="#2fddd1"/><stop offset="1" stop-color="#0e48b5"/></linearGradient><linearGradient id="u" gradientUnits="userSpaceOnUse" x1="16.0127" x2="16.0127" xlink:href="#t" y1="35.5073" y2="29.251"/><linearGradient id="v"><stop offset="0" stop-color="#8f31c1"/><stop offset="1" stop-color="#f56fae"/></linearGradient><linearGradient id="w" gradientUnits="userSpaceOnUse" x1="9.5603" x2="22.4651" xlink:href="#v" y1="38.7256" y2="38.6155"/><linearGradient id="x" gradientUnits="userSpaceOnUse" x1="7.5605" x2="24.4649" xlink:href="#v" y1="41.4926" y2="41.3484"/><linearGradient id="y" gradientUnits="userSpaceOnUse" x1="9.5603" x2="22.4651" xlink:href="#v" y1="44.2256" y2="44.1155"/><linearGradient id="z" gradientUnits="userSpaceOnUse" x1="10.2543" x2="10.2543" xlink:href="#f" y1="54.7158" y2="51.9249"/><linearGradient id="A" gradientUnits="userSpaceOnUse" x1="30.3148" x2="58.3365" xlink:href="#h" y1="27.5056" y2="55.0532"/><linearGradient id="B" gradientUnits="userSpaceOnUse" x1="44.3256" x2="44.3256" xlink:href="#t" y1="35.5073" y2="29.251"/><linearGradient id="C" gradientUnits="userSpaceOnUse" x1="37.8733" x2="50.778" xlink:href="#v" y1="38.7256" y2="38.6155"/><linearGradient id="D" gradientUnits="userSpaceOnUse" x1="35.8734" x2="52.7779" xlink:href="#v" y1="41.4926" y2="41.3484"/><linearGradient id="E" gradientUnits="userSpaceOnUse" x1="37.8733" x2="50.778" xlink:href="#v" y1="44.2256" y2="44.1155"/><linearGradient id="F" gradientUnits="userSpaceOnUse" x1="38.5672" x2="38.5672" xlink:href="#f" y1="54.7158" y2="51.9249"/><circle cx="58.2" cy="32.3" fill="url(#b)" r="12"/><path d="m66.4 52.4c0-1.6-.6-3.1-1.8-4.3l-16-16 17.3-17.3c1.1-1.1.3-3-1.3-3h-36.4l-16 16c-1.2 1.2-1.8 2.8-1.8 4.3 0 1.6.6 3.1 1.8 4.3l16 16-17.3 17.3c-1.1 1.1-.3 3 1.3 3h36.4l16-16c.3-.3.6-.6.8-1 .6-1 1-2.2 1-3.3z" fill="url(#c)"/><path clip-path="url(#d)" d="m46.6 47.6h7.9v.2h-7.9z" fill="#fcac60"/><path clip-path="url(#d)" d="m46.6 47.5h7.9v.2h-7.9z" fill="#fcad61"/><path clip-path="url(#d)" d="m46.6 47.3h7.9v.2h-7.9z" fill="#fcad62"/><path clip-path="url(#d)" d="m46.6 47.1h7.9v.2h-7.9z" fill="#fcae63"/><path clip-path="url(#d)" d="m46.6 46.9h7.9v.2h-7.9z" fill="#fcae64"/><path clip-path="url(#d)" d="m46.6 46.8h7.9v.2h-7.9z" fill="#fcaf65"/><path clip-path="url(#d)" d="m46.6 46.6h7.9v.2h-7.9z" fill="#fcaf66"/><path clip-path="url(#d)" d="m46.6 46.4h7.9v.2h-7.9z" fill="#fcb067"/><path clip-path="url(#d)" d="m46.6 46.3h7.9v.2h-7.9z" fill="#fdb068"/><path clip-path="url(#d)" d="m46.6 46.1h7.9v.2h-7.9z" fill="#fdb169"/><path clip-path="url(#d)" d="m46.6 45.9h7.9v.2h-7.9z" fill="#fdb26a"/><path clip-path="url(#d)" d="m46.6 45.7h7.9v.2h-7.9z" fill="#fdb26b"/><path clip-path="url(#d)" d="m46.6 45.6h7.9v.2h-7.9z" fill="#fdb36c"/><path clip-path="url(#d)" d="m46.6 45.4h7.9v.2h-7.9z" fill="#fdb36d"/><path clip-path="url(#d)" d="m46.6 45.2h7.9v.2h-7.9z" fill="#fdb46e"/><path clip-path="url(#d)" d="m46.6 45h7.9v.2h-7.9z" fill="#fdb46f"/><path clip-path="url(#d)" d="m46.6 44.9h7.9v.2h-7.9z" fill="#fdb570"/><path clip-path="url(#d)" d="m46.6 44.7h7.9v.2h-7.9z" fill="#fdb571"/><path clip-path="url(#d)" d="m46.6 44.5h7.9v.2h-7.9z" fill="#fdb672"/><path clip-path="url(#d)" d="m46.6 44.4h7.9v.2h-7.9z" fill="#fdb773"/><path clip-path="url(#d)" d="m46.6 44.2h7.9v.2h-7.9z" fill="#fdb774"/><path clip-path="url(#d)" d="m46.6 44h7.9v.2h-7.9z" fill="#fdb875"/><path clip-path="url(#d)" d="m46.6 43.8h7.9v.2h-7.9z" fill="#fdb876"/><path clip-path="url(#d)" d="m46.6 43.7h7.9v.2h-7.9z" fill="#feb978"/><path clip-path="url(#d)" d="m46.6 43.5h7.9v.2h-7.9z" fill="#feb979"/><path clip-path="url(#d)" d="m46.6 43.3h7.9v.2h-7.9z" fill="#feba7a"/><path clip-path="url(#d)" d="m46.6 43.2h7.9v.2h-7.9z" fill="#feba7b"/><path clip-path="url(#d)" d="m46.6 43h7.9v.2h-7.9z" fill="#febb7c"/><path clip-path="url(#d)" d="m46.6 42.8h7.9v.2h-7.9z" fill="#febc7d"/><path clip-path="url(#d)" d="m46.6 42.6h7.9v.2h-7.9z" fill="#febc7e"/><path clip-path="url(#d)" d="m46.6 42.5h7.9v.2h-7.9z" fill="#febd7f"/><path clip-path="url(#d)" d="m46.6 42.3h7.9v.2h-7.9z" fill="#febd80"/><path clip-path="url(#d)" d="m46.6 42.1h7.9v.2h-7.9z" fill="#febe81"/><path clip-path="url(#d)" d="m46.6 42h7.9v.2h-7.9z" fill="#febe82"/><path clip-path="url(#d)" d="m46.6 41.8h7.9v.2h-7.9z" fill="#febf83"/><path clip-path="url(#d)" d="m46.6 41.6h7.9v.2h-7.9z" fill="#febf84"/><path clip-path="url(#d)" d="m46.6 41.4h7.9v.2h-7.9z" fill="#fec085"/><path clip-path="url(#d)" d="m46.6 41.3h7.9v.2h-7.9z" fill="#fec186"/><path clip-path="url(#d)" d="m46.6 41.1h7.9v.2h-7.9z" fill="#ffc187"/><path clip-path="url(#d)" d="m46.6 40.9h7.9v.2h-7.9z" fill="#ffc288"/><path clip-path="url(#d)" d="m46.6 40.8h7.9v.2h-7.9z" fill="#ffc289"/><path clip-path="url(#d)" d="m46.6 40.6h7.9v.2h-7.9z" fill="#ffc38a"/><path clip-path="url(#d)" d="m46.6 40.4h7.9v.2h-7.9z" fill="#ffc38b"/><path clip-path="url(#d)" d="m46.6 40.2h7.9v.2h-7.9z" fill="#ffc48c"/><path clip-path="url(#d)" d="m46.6 40.1h7.9v.2h-7.9z" fill="#ffc48d"/><path clip-path="url(#d)" d="m46.6 39.9h7.9v.2h-7.9z" fill="#ffc58e"/><path d="m289.5 200.3c0-1.6-.6-3.1-1.8-4.3l-16-16 17.3-17.3c1.1-1.1.3-3-1.3-3h-36.4l-16 16c-1.2 1.2-1.8 2.8-1.8 4.3 0 1.6.6 3.1 1.8 4.3l16 16-17.3 17.3c-1.1 1.1-.3 3 1.3 3h36.4l16-16c.3-.3.6-.6.8-1 .7-.9 1-2.1 1-3.3z" fill="url(#e)"/><circle cx="237.6" cy="200.1" fill="url(#g)" r="11.8"/><path d="m269.6 183.6v19.6c0 1.5 1.2 2.8 2.8 2.8h13.7c1.5 0 2.8-1.2 2.8-2.8v-19.6z" fill="#fff"/><path d="m270 184.5v18.9c0 1.1.9 2.1 2.1 2.1h14.4c1.1 0 2.1-.9 2.1-2.1v-18.9h.9v18.9c0 1.6-1.3 2.9-2.9 2.9h-14.4c-1.6 0-2.9-1.3-2.9-2.9v-18.9" fill="url(#i)"/><path d="m287.3 173.2h-14c-1.2 0-2.1.9-2.1 2.1v9.2h18.2v-9.2c0-1.2-1-2.1-2.1-2.1z" fill="url(#k)"/><path d="m281.6 177.1c-.3-.2-.6-.4-.9-.5v1.6c1.1.4 1.5.9 1.5 1.7 0 .8-.6 1.4-1.5 1.5v.8h-.7v-.8c-.6-.1-1.2-.3-1.7-.8l.5-.7c.4.3.7.6 1.2.6v-1.5c-1-.4-1.5-.8-1.5-1.7 0-.8.6-1.4 1.5-1.5v-.5h.6v.5c.5.1 1 .3 1.4.6zm-1.6.9v-1.4c-.4.1-.6.3-.6.7.1.2.2.4.6.7zm.7 1.2v1.5c.4-.1.6-.3.6-.7 0-.4-.2-.6-.6-.8z" fill="#fff"/><g fill="#ccc"><path d="m274.3 187.9h11.8v.8h-11.8z"/><path d="m274.3 190.2h11.8v.8h-11.8z"/><path d="m284 193.3h-9.7v-.8h11.9v.8z"/><path d="m274.3 194.9h11.8v.8h-11.8z"/></g><path d="m285.6 202.3h-10.7c-.3 0-.5-.2-.5-.5v-3.7c0-.3.2-.5.5-.5h10.7c.3 0 .5.2.5.5v3.7c.1.3-.2.5-.5.5z" fill="url(#l)"/><path d="m234.2 183.6v19.6c0 1.5 1.2 2.8 2.8 2.8h14.7c1.5 0 2.8-1.2 2.8-2.8v-19.6z" fill="#fff"/><path d="m234.6 184.5v18.9c0 1.1.9 2.1 2.1 2.1h15.3c1.1 0 2.1-.9 2.1-2.1v-18.9h.9v18.9c0 1.6-1.3 2.9-2.9 2.9h-15.4c-1.6 0-2.9-1.3-2.9-2.9v-18.9" fill="url(#m)"/><path d="m249.8 173.2h-14c-1.2 0-2.1.9-2.1 2.1v9.2h18.2v-9.2c0-1.2-.9-2.1-2.1-2.1z" fill="url(#n)"/><path d="m244.2 177.1c-.3-.2-.6-.4-.9-.5v1.6c1.1.4 1.5.9 1.5 1.7 0 .8-.6 1.4-1.5 1.5v.8h-.6v-.8c-.6-.1-1.2-.3-1.7-.8l.5-.7c.4.3.7.6 1.2.6v-1.5c-1-.4-1.5-.8-1.5-1.7 0-.8.6-1.4 1.5-1.5v-.5h.6v.5c.5.1 1 .3 1.4.6zm-1.6.9v-1.4c-.4.1-.6.3-.6.7.1.2.2.4.6.7zm.6 1.2v1.5c.4-.1.6-.3.6-.7.1-.4-.1-.6-.6-.8z" fill="#fff"/><path d="m236.9 187.9h11.8v.8h-11.8z" fill="#ccc"/><path d="m236.9 190.2h11.8v.8h-11.8z" fill="#ccc"/><path d="m246.6 193.3h-9.7v-.8h11.9v.8z" fill="#ccc"/><path d="m236.9 194.9h11.8v.8h-11.8z" fill="#ccc"/><path d="m248.2 202.3h-10.7c-.3 0-.5-.2-.5-.5v-3.7c0-.3.2-.5.5-.5h10.7c.3 0 .5.2.5.5v3.7c0 .3-.2.5-.5.5z" fill="url(#o)"/><path d="m251.4 183.4v23c0 1.8 1.5 3.3 3.3 3.3h13.8c1.8 0 3.3-1.5 3.3-3.3v-23z" fill="#fff"/><path d="m251.9 184.4v22.2c0 1.3 1.1 2.4 2.4 2.4h14.5c1.3 0 2.4-1.1 2.4-2.4v-22.2h1v22.2c0 1.9-1.5 3.4-3.4 3.4h-14.5c-1.9 0-3.4-1.5-3.4-3.4v-22.2" fill="url(#p)"/><path d="m269.8 170h-16.4c-1.4 0-2.5 1.1-2.5 2.5v11.9h21.3v-11.9c0-1.4-1.1-2.5-2.4-2.5z" fill="url(#q)"/><path d="m263.1 175.7c-.3-.3-.7-.5-1.1-.6v1.9c1.3.5 1.8 1.1 1.8 2 0 1-.7 1.7-1.8 1.8v1h-.8v-1c-.7-.1-1.4-.4-2-.9l.6-.8c.4.4.9.7 1.4.8v-2c-1.2-.5-1.7-1-1.7-1.9 0-1 .7-1.6 1.7-1.8v-.6h.8v.6c.6.1 1.2.3 1.6.7zm-1.8 1.1v-1.6c-.5.1-.7.4-.7.8 0 .3.2.5.7.8zm.7 1.4v1.7c.5-.1.7-.4.7-.8 0-.4-.1-.6-.7-.9z" fill="#fff"/><path d="m254.6 188.4h13.9v.9h-13.9z" fill="#ccc"/><path d="m254.6 191.1h13.9v.9h-13.9z" fill="#ccc"/><path d="m266 194.8h-11.4v-.9h13.9v.9z" fill="#ccc"/><path d="m254.6 196.6h13.9v.9h-13.9z" fill="#ccc"/><path d="m267.8 205.4h-12.6c-.4 0-.6-.3-.6-.6v-4.3c0-.4.3-.6.6-.6h12.6c.4 0 .6.3.6.6v4.3c.1.3-.2.6-.6.6z" fill="url(#r)"/><path d="m27.5 26c0-.9-.7-1.6-1.6-1.6h-19.8c-.9 0-1.6.7-1.6 1.6v12.2c3.9 0 5.9 1.4 7.8 2.7 2 1.3 3.8 2.6 7.6 2.6s5.6-1.3 7.6-2.6v15.8z" fill="#fff"/><path d="m19.9 43.5c-3.8 0-5.6-1.3-7.6-2.6-1.9-1.3-3.9-2.7-7.8-2.7v18.5c0 .9.7 1.6 1.6 1.6h19.8c.9 0 1.6-.7 1.6-1.6v-15.9c-1.9 1.4-3.8 2.7-7.6 2.7z" fill="#f6f6f6"/><path d="m24.8 58.9h-17.5c-1.9 0-3.4-1.5-3.4-3.4v-28.5c0-1.9 1.5-3.4 3.4-3.4h17.5c1.9 0 3.4 1.5 3.4 3.4v28.5c0 1.9-1.6 3.4-3.4 3.4zm-17.5-34.3c-1.3 0-2.4 1.1-2.4 2.4v28.5c0 1.3 1.1 2.4 2.4 2.4h17.5c1.3 0 2.4-1.1 2.4-2.4v-28.5c0-1.3-1.1-2.4-2.4-2.4z" fill="url(#s)"/><path d="m15.2 30.3c-1.1.6-1.6 1.2-1.6 1.9.5 0 .9.2 1.2.5s.5.7.5 1.1c0 .5-.1.8-.4 1.2-.3.3-.7.5-1.1.5-.5 0-.9-.2-1.3-.6s-.6-.9-.6-1.5c0-1.7.9-3.1 2.8-4.1zm4.9-.1c-1.1.6-1.6 1.2-1.6 1.9.5 0 .8.2 1.2.5.3.3.5.7.5 1.1 0 .5-.1.8-.4 1.2-.3.3-.7.5-1.1.5-.5 0-.9-.2-1.3-.6s-.6-.9-.6-1.5c0-1.7.9-3.1 2.8-4.1z" fill="url(#u)"/><path d="m9.6 38.2h12.9v.9h-12.9z" fill="url(#w)"/><path d="m7.6 41h16.9v.9h-16.9z" fill="url(#x)"/><path d="m9.6 43.7h12.9v.9h-12.9z" fill="url(#y)"/><path d="m14.2 50.5h10.1v.5h-10.1z" fill="#0e48b5"/><path d="m14.2 52.2h8.9v.5h-8.9z" fill="#0e48b5"/><path d="m12.8 51.6c0-1.4-1.1-2.5-2.5-2.5s-2.5 1.1-2.5 2.5c0 .8.4 1.6 1 2v-.2c0-.7.5-1.3 1.2-1.5-.4-.1-.6-.5-.6-.9 0-.5.4-.9.9-.9s.9.4.9.9c0 .4-.3.8-.6.9.7.1 1.2.8 1.2 1.5v.2c.6-.4 1-1.2 1-2z" fill="#818df9"/><path d="m10.6 52c-.1 0-.2 0-.3 0s-.2 0-.3 0c-.7.1-1.2.8-1.2 1.5v.2c.4.3.9.5 1.5.5s1.1-.2 1.5-.5v-.2c0-.8-.6-1.4-1.2-1.5z" fill="#818df9"/><path d="m10.6 52c-.1 0-.2 0-.3 0s-.2 0-.3 0c-.7.1-1.2.8-1.2 1.5v.2c.4.3.9.5 1.5.5s1.1-.2 1.5-.5v-.2c0-.8-.6-1.4-1.2-1.5z" fill="url(#z)"/><path d="m10.6 52c.4-.1.6-.5.6-.9 0-.5-.4-.9-.9-.9s-.9.4-.9.9c0 .4.3.8.6.9h.3c.1-.1.2-.1.3 0z" fill="#ffc58e"/><path d="m10.6 52c-.1 0-.2 0-.3 0s-.2 0-.3 0h.3z" fill="#ffc58e"/><path d="m55.8 26c0-.9-.7-1.6-1.6-1.6h-19.8c-.9 0-1.6.7-1.6 1.6v12.2c3.9 0 5.9 1.4 7.8 2.7 2 1.3 3.8 2.6 7.6 2.6s5.6-1.3 7.6-2.6v15.8z" fill="#fff"/><path d="m48.2 43.5c-3.8 0-5.6-1.3-7.6-2.6-1.9-1.3-3.9-2.7-7.8-2.7v18.5c0 .9.7 1.6 1.6 1.6h19.8c.9 0 1.6-.7 1.6-1.6v-15.9c-1.9 1.4-3.8 2.7-7.6 2.7z" fill="#f6f6f6"/><path d="m53.1 58.9h-17.5c-1.9 0-3.4-1.5-3.4-3.4v-28.5c0-1.9 1.5-3.4 3.4-3.4h17.5c1.9 0 3.4 1.5 3.4 3.4v28.5c0 1.9-1.5 3.4-3.4 3.4zm-17.5-34.3c-1.3 0-2.4 1.1-2.4 2.4v28.5c0 1.3 1.1 2.4 2.4 2.4h17.5c1.3 0 2.4-1.1 2.4-2.4v-28.5c0-1.3-1.1-2.4-2.4-2.4z" fill="url(#A)"/><path d="m43.5 30.3c-1.1.6-1.6 1.2-1.6 1.9.5 0 .9.2 1.2.5s.5.7.5 1.1c0 .5-.1.8-.4 1.2-.3.3-.7.5-1.1.5-.5 0-.9-.2-1.3-.6s-.6-.9-.6-1.5c0-1.7.9-3.1 2.8-4.1zm4.9-.1c-1.1.6-1.6 1.2-1.6 1.9.5 0 .8.2 1.2.5.3.3.5.7.5 1.1 0 .5-.1.8-.4 1.2-.3.3-.7.5-1.1.5-.5 0-.9-.2-1.3-.6s-.6-.9-.6-1.5c0-1.7.9-3.1 2.8-4.1z" fill="url(#B)"/><path d="m37.9 38.2h12.9v.9h-12.9z" fill="url(#C)"/><path d="m35.9 41h16.9v.9h-16.9z" fill="url(#D)"/><path d="m37.9 43.7h12.9v.9h-12.9z" fill="url(#E)"/><path d="m42.5 50.5h10.1v.5h-10.1z" fill="#0e48b5"/><path d="m42.5 52.2h8.9v.5h-8.9z" fill="#0e48b5"/><path d="m41.1 51.6c0-1.4-1.1-2.5-2.5-2.5s-2.5 1.1-2.5 2.5c0 .8.4 1.6 1 2v-.2c0-.7.5-1.3 1.2-1.5-.4-.1-.6-.5-.6-.9 0-.5.4-.9.9-.9s.9.4.9.9c0 .4-.3.8-.6.9.7.1 1.2.8 1.2 1.5v.2c.6-.4 1-1.2 1-2z" fill="#818df9"/><path d="m38.9 52c-.1 0-.2 0-.3 0s-.2 0-.3 0c-.7.1-1.2.8-1.2 1.5v.2c.4.3.9.5 1.5.5s1.1-.2 1.5-.5v-.2c0-.8-.5-1.4-1.2-1.5z" fill="#818df9"/><path d="m38.9 52c-.1 0-.2 0-.3 0s-.2 0-.3 0c-.7.1-1.2.8-1.2 1.5v.2c.4.3.9.5 1.5.5s1.1-.2 1.5-.5v-.2c0-.8-.5-1.4-1.2-1.5z" fill="url(#F)"/><path d="m38.9 52c.4-.1.6-.5.6-.9 0-.5-.4-.9-.9-.9s-.9.4-.9.9c0 .4.3.8.6.9h.3c.1-.1.2-.1.3 0z" fill="#ffc58e"/><path d="m38.9 52c-.1 0-.2 0-.3 0s-.2 0-.3 0h.3z" fill="#ffc58e"/></svg>