<svg enable-background="new 0 0 75 83.8" viewBox="0 0 75 83.8" xmlns="http://www.w3.org/2000/svg" xmlns:xlink="http://www.w3.org/1999/xlink"><linearGradient id="a" gradientUnits="userSpaceOnUse" x1="28.431" x2="47.431" y1="11.4548" y2="70.4548"><stop offset="0" stop-color="#91d9f9"/><stop offset=".496" stop-color="#30a2e3"/><stop offset=".9483" stop-color="#8859f1"/></linearGradient><linearGradient id="b" gradientUnits="userSpaceOnUse" x1="17.5377" x2="69.4408" y1="48.708" y2="48.708"><stop offset="0" stop-color="#fc7d76"/><stop offset="1" stop-color="#fcac60"/></linearGradient><linearGradient id="c" gradientUnits="userSpaceOnUse" x1="15.4527" x2="15.4527" y1="38.7842" y2="15.1172"><stop offset="0" stop-color="#30a2e3"/><stop offset="1" stop-color="#2fddd1"/></linearGradient><path d="m66.3 52.2c0-1.6-.6-3.1-1.8-4.3l-16-16 17.3-17.3c1.1-1.1.3-3-1.3-3h-36.4l-16 16c-1.2 1.2-1.8 2.8-1.8 4.3 0 1.6.6 3.1 1.8 4.3l16 16-17.3 17.3c-1.1 1.1-.3 3 1.3 3h36.4l16-16c.3-.3.6-.6.8-1 .6-.9 1-2.1 1-3.3z" fill="url(#a)"/><path d="m32.2 58.1h34.7c1.4 0 2.5-1.1 2.5-2.5v-22.5c0-1.4-1.1-2.5-2.5-2.5h-46.9c-1.4 0-2.5 1.1-2.5 2.5v22.5c0 1.4 1.1 2.5 2.5 2.5h2.3v7.8s.2 2 1.9.3 8-8.1 8-8.1z" fill="url(#b)"/><g fill="#fff"><path d="m27.8 38.3h31.3v.9h-31.3z"/><path d="m25.8 41.2h35.4v.9h-35.4z"/><path d="m25.8 44h35.4v.9h-35.4z"/><path d="m29.9 46.8h27.3v.9h-27.3z"/><path d="m30.9 49.7h25.2v.9h-25.2z"/></g><circle cx="15.5" cy="27" fill="url(#c)" r="11.8"/><path d="m14.3 23.9c-1.6.8-2.4 1.7-2.4 2.8.7.1 1.3.3 1.7.8.5.5.7 1 .7 1.6 0 .7-.2 1.2-.6 1.7s-1 .7-1.6.7c-.7 0-1.4-.3-1.9-.9s-.8-1.3-.8-2.2c0-2.5 1.3-4.6 4.1-6.1zm7.2-.2c-1.6.8-2.4 1.7-2.3 2.8.7.1 1.2.3 1.7.8s.7 1 .7 1.6c0 .7-.2 1.2-.6 1.7s-1 .7-1.6.7c-.7 0-1.4-.3-1.9-.9s-.8-1.3-.8-2.2c0-2.5 1.3-4.6 4.2-6.1z" fill="#fff"/></svg>