<?xml version="1.0" encoding="utf-8"?>
<!-- Generator: Adobe Illustrator 21.1.0, SVG Export Plug-In . SVG Version: 6.00 Build 0)  -->
<svg version="1.1" id="Layer_1" xmlns="http://www.w3.org/2000/svg" xmlns:xlink="http://www.w3.org/1999/xlink" x="0px" y="0px"
	 viewBox="0 0 75 83.8" style="enable-background:new 0 0 75 83.8;" xml:space="preserve">
<style type="text/css">
	.st0{fill:url(#SVGID_1_);}
	.st1{fill:url(#SVGID_2_);}
	.st2{fill:#FFFFFF;}
	.st3{fill:#F6F6F6;}
	.st4{fill:url(#SVGID_3_);}
	.st5{fill:url(#SVGID_4_);}
	.st6{fill:#6BF9EB;}
	.st7{fill:url(#SVGID_5_);}
	.st8{fill:url(#SVGID_6_);}
	.st9{fill:url(#SVGID_7_);}
	.st10{fill:url(#SVGID_8_);}
	.st11{fill:url(#SVGID_9_);}
	.st12{fill:url(#SVGID_10_);}
	.st13{fill:url(#SVGID_11_);}
	.st14{fill:url(#SVGID_12_);}
	.st15{fill:url(#SVGID_13_);}
	.st16{fill:url(#SVGID_14_);}
	.st17{fill:url(#SVGID_15_);}
	.st18{fill:url(#SVGID_16_);}
	.st19{fill:url(#SVGID_17_);}
</style>
<g>
	<g>
		
			<linearGradient id="SVGID_1_" gradientUnits="userSpaceOnUse" x1="28.457" y1="74.315" x2="47.457" y2="15.315" gradientTransform="matrix(1 0 0 -1 0 86)">
			<stop  offset="0" style="stop-color:#F56FAE"/>
			<stop  offset="1" style="stop-color:#FB6874"/>
		</linearGradient>
		<path class="st0" d="M66.3,52.4L66.3,52.4L66.3,52.4c0-1.6-0.6-3.1-1.8-4.3l-16-16l17.3-17.3c1.1-1.1,0.3-3-1.3-3H28.1l0,0l0,0
			l0,0l0,0l0,0l0,0l0,0l-16,16c-1.2,1.2-1.8,2.8-1.8,4.3c0,1.6,0.6,3.1,1.8,4.3l16,16l0,0l0,0l0,0L10.8,69.7c-1.1,1.1-0.3,3,1.3,3
			h36.4l0,0l0,0l0,0l0,0l0,0l0,0l16-16c0.3-0.3,0.6-0.6,0.8-1C65.9,54.8,66.3,53.6,66.3,52.4L66.3,52.4L66.3,52.4L66.3,52.4z"/>
	</g>
	
		<linearGradient id="SVGID_2_" gradientUnits="userSpaceOnUse" x1="5.4086" y1="9.7713" x2="5.4086" y2="33.438" gradientTransform="matrix(1 -8.533533e-03 -8.533533e-03 -1 12.4755 78.417)">
		<stop  offset="0" style="stop-color:#0E48B5"/>
		<stop  offset="1" style="stop-color:#30A2E3"/>
	</linearGradient>
	<circle class="st1" cx="17.7" cy="56.8" r="11.8"/>
	<g>
		<g>
			<g>
				<path class="st2" d="M67.8,21.9c0-1.6-1.2-2.9-2.6-2.9H16.8c-1.4,0-2.6,1.3-2.6,2.9v7.3c9.1,0,13.7,3.5,18.1,7
					C36.9,39.7,41.2,43,50,43s13.1-3.3,17.7-6.8v21l0,0L67.8,21.9z"/>
				<path class="st3" d="M50,43c-8.8,0-13.1-3.3-17.7-6.8c-4.5-3.4-9.1-7-18.1-8.3v28.9c0,3.6,0.8,4.5,2.8,4.5h48
					c2,0,2.8-0.9,2.8-3.1v-22C63.1,39.6,58.8,43,50,43z"/>
			</g>
			
				<linearGradient id="SVGID_3_" gradientUnits="userSpaceOnUse" x1="17.3894" y1="69.1593" x2="64.8106" y2="22.5407" gradientTransform="matrix(1 0 0 -1 0 86)">
				<stop  offset="0" style="stop-color:#F2F2F2"/>
				<stop  offset="1" style="stop-color:#B3B3B3"/>
			</linearGradient>
			<path class="st4" d="M65,61.8H17.2c-1.9,0-3.4-1.5-3.4-3.4V21.9c0-1.9,1.5-3.4,3.4-3.4H65c1.9,0,3.4,1.5,3.4,3.4v36.5
				C68.4,60.3,66.9,61.8,65,61.8z M17.2,19.4c-1.3,0-2.4,1.1-2.4,2.4v36.5c0,1.3,1.1,2.4,2.4,2.4H65c1.3,0,2.4-1.1,2.4-2.4V21.9
				c0-1.3-1.1-2.4-2.4-2.4H17.2V19.4z"/>
		</g>
		<g>
			<g>
				<g>
					
						<linearGradient id="SVGID_4_" gradientUnits="userSpaceOnUse" x1="28.95" y1="-635.9404" x2="28.95" y2="-621.6003" gradientTransform="matrix(1 0 0 -1 0 -596)">
						<stop  offset="0" style="stop-color:#AB5AF1"/>
						<stop  offset="1" style="stop-color:#749CFC"/>
					</linearGradient>
					<path class="st5" d="M19.2,25.6h19.5c0.8,0,1.4,0.6,1.4,1.4v11.5c0,0.8-0.6,1.4-1.4,1.4H19.2c-0.8,0-1.4-0.6-1.4-1.4V27
						C17.8,26.3,18.4,25.6,19.2,25.6z"/>
					<g>
						<path class="st6" d="M27.3,35.2l-1.5-1.9c-0.2-0.2-0.7-0.2-0.9,0l-5.4,6.6h4.1L27.3,35.2z"/>
						
							<linearGradient id="SVGID_5_" gradientUnits="userSpaceOnUse" x1="23.219" y1="-631.3803" x2="40.1012" y2="-631.3803" gradientTransform="matrix(1 0 0 -1 0 -596)">
							<stop  offset="0" style="stop-color:#34D1D9"/>
							<stop  offset="1" style="stop-color:#5AECE5"/>
						</linearGradient>
						<path class="st7" d="M30.5,31l-3.2,4.2l-3.7,4.7h15l-7.1-8.8C31.2,30.8,30.8,30.8,30.5,31z"/>
					</g>
				</g>
				<g>
					
						<linearGradient id="SVGID_6_" gradientUnits="userSpaceOnUse" x1="17.7914" y1="42.3095" x2="38.9655" y2="42.4902" gradientTransform="matrix(1 0 0 -1 0 86)">
						<stop  offset="0" style="stop-color:#0E48B5"/>
						<stop  offset="1" style="stop-color:#30A2E3"/>
					</linearGradient>
					<rect x="17.8" y="42.5" class="st8" width="21.2" height="2.2"/>
					
						<linearGradient id="SVGID_7_" gradientUnits="userSpaceOnUse" x1="17.7982" y1="39.5095" x2="38.9581" y2="39.6901" gradientTransform="matrix(1 0 0 -1 0 86)">
						<stop  offset="0" style="stop-color:#0E48B5"/>
						<stop  offset="1" style="stop-color:#30A2E3"/>
					</linearGradient>
					<rect x="17.8" y="46.1" class="st9" width="21.2" height="0.6"/>
					
						<linearGradient id="SVGID_8_" gradientUnits="userSpaceOnUse" x1="17.7983" y1="37.8049" x2="40.1017" y2="37.9951" gradientTransform="matrix(1 0 0 -1 0 86)">
						<stop  offset="0" style="stop-color:#0E48B5"/>
						<stop  offset="1" style="stop-color:#30A2E3"/>
					</linearGradient>
					<rect x="17.8" y="47.8" class="st10" width="22.3" height="0.6"/>
					
						<linearGradient id="SVGID_9_" gradientUnits="userSpaceOnUse" x1="17.7736" y1="33.1037" x2="28.6768" y2="33.1967" gradientTransform="matrix(1 0 0 -1 0 86)">
						<stop  offset="1.241987e-03" style="stop-color:#FB993C"/>
						<stop  offset="0.9988" style="stop-color:#FFC58E"/>
					</linearGradient>
					<path class="st11" d="M28,54.6h-9.6c-0.3,0-0.6-0.3-0.6-0.6v-2.3c0-0.3,0.3-0.6,0.6-0.6H28c0.3,0,0.6,0.3,0.6,0.6V54
						C28.7,54.3,28.4,54.6,28,54.6z"/>
				</g>
			</g>
			<g>
				<g>
					
						<linearGradient id="SVGID_10_" gradientUnits="userSpaceOnUse" x1="53.25" y1="-635.9404" x2="53.25" y2="-621.6003" gradientTransform="matrix(1 0 0 -1 0 -596)">
						<stop  offset="0" style="stop-color:#AB5AF1"/>
						<stop  offset="1" style="stop-color:#749CFC"/>
					</linearGradient>
					<path class="st12" d="M43.5,25.6H63c0.8,0,1.4,0.6,1.4,1.4v11.5c0,0.8-0.6,1.4-1.4,1.4H43.5c-0.8,0-1.4-0.6-1.4-1.4V27
						C42.1,26.3,42.7,25.6,43.5,25.6z"/>
					<g>
						<path class="st6" d="M51.6,35.2l-1.5-1.9c-0.2-0.2-0.7-0.2-0.9,0l-5.4,6.6h4.1L51.6,35.2z"/>
						
							<linearGradient id="SVGID_11_" gradientUnits="userSpaceOnUse" x1="47.5447" y1="-631.3803" x2="64.4269" y2="-631.3803" gradientTransform="matrix(1 0 0 -1 0 -596)">
							<stop  offset="0" style="stop-color:#34D1D9"/>
							<stop  offset="1" style="stop-color:#5AECE5"/>
						</linearGradient>
						<path class="st13" d="M54.8,31l-3.2,4.2l-3.7,4.7h15l-7.1-8.8C55.5,30.8,55.1,30.8,54.8,31z"/>
					</g>
				</g>
				<g>
					
						<linearGradient id="SVGID_12_" gradientUnits="userSpaceOnUse" x1="42.0914" y1="42.3095" x2="63.2656" y2="42.4902" gradientTransform="matrix(1 0 0 -1 0 86)">
						<stop  offset="0" style="stop-color:#0E48B5"/>
						<stop  offset="1" style="stop-color:#30A2E3"/>
					</linearGradient>
					<rect x="42.1" y="42.5" class="st14" width="21.2" height="2.2"/>
					
						<linearGradient id="SVGID_13_" gradientUnits="userSpaceOnUse" x1="42.0982" y1="39.5095" x2="63.2582" y2="39.6901" gradientTransform="matrix(1 0 0 -1 0 86)">
						<stop  offset="0" style="stop-color:#0E48B5"/>
						<stop  offset="1" style="stop-color:#30A2E3"/>
					</linearGradient>
					<rect x="42.1" y="46.1" class="st15" width="21.2" height="0.6"/>
					
						<linearGradient id="SVGID_14_" gradientUnits="userSpaceOnUse" x1="42.0983" y1="37.8049" x2="64.4017" y2="37.9951" gradientTransform="matrix(1 0 0 -1 0 86)">
						<stop  offset="0" style="stop-color:#0E48B5"/>
						<stop  offset="1" style="stop-color:#30A2E3"/>
					</linearGradient>
					<rect x="42.1" y="47.8" class="st16" width="22.3" height="0.6"/>
					
						<linearGradient id="SVGID_15_" gradientUnits="userSpaceOnUse" x1="42.0993" y1="33.1031" x2="53.0026" y2="33.1961" gradientTransform="matrix(1 0 0 -1 0 86)">
						<stop  offset="1.241987e-03" style="stop-color:#FB993C"/>
						<stop  offset="0.9988" style="stop-color:#FFC58E"/>
					</linearGradient>
					<path class="st17" d="M52.4,54.6h-9.6c-0.3,0-0.6-0.3-0.6-0.6v-2.3c0-0.3,0.3-0.6,0.6-0.6h9.6c0.3,0,0.6,0.3,0.6,0.6V54
						C53,54.3,52.7,54.6,52.4,54.6z"/>
				</g>
			</g>
		</g>
	</g>
</g>
<linearGradient id="SVGID_16_" gradientUnits="userSpaceOnUse" x1="25.3" y1="-2063.3926" x2="25.3" y2="-2059.6926" gradientTransform="matrix(1 0 0 -1 0 -2032)">
	<stop  offset="1.241987e-03" style="stop-color:#FB993C"/>
	<stop  offset="0.9988" style="stop-color:#FFC58E"/>
</linearGradient>
<circle class="st18" cx="25.3" cy="29.6" r="1.8"/>
<linearGradient id="SVGID_17_" gradientUnits="userSpaceOnUse" x1="49.6" y1="-2063.3926" x2="49.6" y2="-2059.6926" gradientTransform="matrix(1 0 0 -1 0 -2032)">
	<stop  offset="1.241987e-03" style="stop-color:#FB993C"/>
	<stop  offset="0.9988" style="stop-color:#FFC58E"/>
</linearGradient>
<circle class="st19" cx="49.6" cy="29.6" r="1.8"/>
</svg>
