<svg enable-background="new 0 0 75 83.8" viewBox="0 0 75 83.8" xmlns="http://www.w3.org/2000/svg" xmlns:xlink="http://www.w3.org/1999/xlink"><linearGradient id="a" gradientTransform="matrix(1 .00177635 -.00177635 1 -1.7696 .7609)" gradientUnits="userSpaceOnUse" x1="30.9158" x2="49.9158" y1="10.681" y2="69.6809"><stop offset="0" stop-color="#f56fae"/><stop offset="1" stop-color="#fb6874"/></linearGradient><linearGradient id="b"><stop offset=".001241987" stop-color="#fb993c"/><stop offset=".9988" stop-color="#ffc58e"/></linearGradient><linearGradient id="c" gradientTransform="matrix(1 -.00853353 .00853353 1 8.7293 -5.296)" gradientUnits="userSpaceOnUse" x1="49.2447" x2="49.2447" xlink:href="#b" y1="70.1358" y2="46.4691"/><linearGradient id="d"><stop offset="0" stop-color="#fb6874"/><stop offset="1" stop-color="#f56fae"/></linearGradient><linearGradient id="e" gradientUnits="userSpaceOnUse" x1="22.3395" x2="53.2374" xlink:href="#d" y1="51.8802" y2="51.8802"/><linearGradient id="f" gradientUnits="userSpaceOnUse" x1="24.3395" x2="51.2374" xlink:href="#d" y1="54.6302" y2="54.6302"/><linearGradient id="g" gradientUnits="userSpaceOnUse" x1="30.3395" x2="45.2374" xlink:href="#d" y1="57.3802" y2="57.3802"/><linearGradient id="h" gradientUnits="userSpaceOnUse" x1="16.605" x2="58.9379" y1="33.0561" y2="33.0561"><stop offset="0" stop-color="#4b8ce7"/><stop offset=".9483" stop-color="#8859f1"/></linearGradient><linearGradient id="i" gradientUnits="userSpaceOnUse" x1="27.4399" x2="48.1031" xlink:href="#b" y1="29.845" y2="29.845"/><linearGradient id="j"><stop offset=".05174279" stop-color="#8859f1"/><stop offset="1" stop-color="#4b8ce7"/></linearGradient><linearGradient id="k" gradientUnits="userSpaceOnUse" x1="51.7864" x2="23.534" xlink:href="#j" y1="52.1577" y2="52.1577"/><linearGradient id="l" gradientUnits="userSpaceOnUse" x1="51.7864" x2="23.534" xlink:href="#j" y1="54.261" y2="54.261"/><linearGradient id="m" gradientUnits="userSpaceOnUse" x1="51.7864" x2="23.534" xlink:href="#j" y1="56.3643" y2="56.3643"/><linearGradient id="n" gradientUnits="userSpaceOnUse" x1="37.7884" x2="37.7884" y1="63.2307" y2="20.4807"><stop offset="0" stop-color="#b3b3b3"/><stop offset="1" stop-color="#f2f2f2"/></linearGradient><path d="m66.9 52.3c0-1.6-.6-3.1-1.8-4.3l-16-16 17.3-17.3c1.1-1.1.3-3-1.3-3l-36.4-.1-16.1 16c-1.2 1.2-1.8 2.7-1.8 4.3s.6 3.1 1.8 4.3l16 16.1-17.2 17.2c-1.1 1.1-.3 3 1.3 3l36.4.1 16-16c.3-.3.6-.6.8-1 .6-.9 1-2.1 1-3.3z" fill="url(#a)"/><circle cx="58.5" cy="52.6" fill="url(#c)" r="11.8"/><path d="m22.3 51.4h30.9v.9h-30.9z" fill="url(#e)"/><path d="m24.3 54.2h26.9v.9h-26.9z" fill="url(#f)"/><path d="m30.3 56.9h14.9v.9h-14.9z" fill="url(#g)"/><path d="m19.5 63.3h36.5c1.6 0 2.9-1.3 2.9-2.9v-19.1c-3.7 0-7.2 3.8-10.6 3.8-3.8 0-5.3-3.8-10.6-3.8-5.7 0-7.4 3.8-10.6 3.8-4 0-7.5-3.8-10.6-3.8v19.1c.1 1.6 1.4 2.9 3 2.9z" fill="#fff"/><path d="m37.8 41.3c5.3 0 6.8 3.8 10.6 3.8 3.3 0 6.9-3.8 10.6-3.8v-17.4c0-1.6-1.3-2.9-2.9-2.9h-36.6c-1.6 0-2.9 1.3-2.9 2.9v17.5c3 0 6.6 3.8 10.6 3.8 3.2 0 4.8-3.9 10.6-3.9z"/><path d="m37.8 41.3c5.3 0 6.8 3.8 10.6 3.8 3.3 0 6.9-3.8 10.6-3.8v-17.4c0-1.6-1.3-2.9-2.9-2.9h-36.6c-1.6 0-2.9 1.3-2.9 2.9v17.5c3 0 6.6 3.8 10.6 3.8 3.2 0 4.8-3.9 10.6-3.9z" fill="url(#h)"/><path d="m27.4 28.6h20.7v2.5h-20.7z" fill="url(#i)"/><path d="m24.3 36.5h26.9v.9h-26.9z" fill="#fff" transform="matrix(-1 -.00000021 .00000021 -1 75.5429 73.9271)"/><path d="m30.3 33.8h14.9v.9h-14.9z" fill="#fff" transform="matrix(-1 -.00000021 .00000021 -1 75.5429 68.4271)"/><path d="m22.7 49.2c-.8 0-1.5.8-1.5 1.9v6.1c0 1 .7 1.9 1.5 1.9h12.7c.8 0 1.5-.8 1.5-1.9v-6.1c0-1-.7-1.9-1.5-1.9z" fill="#f6f6f6"/><path d="m24.8 51.8h8.5v.7h-8.5z" fill="url(#k)"/><path d="m23.5 53.9h11.1v.7h-11.1z" fill="url(#l)"/><path d="m24.8 56h8.5v.7h-8.5z" fill="url(#m)"/><path d="m40.2 49.2c-.8 0-1.5.8-1.5 1.9v6.1c0 1 .7 1.9 1.5 1.9h12.7c.8 0 1.5-.8 1.5-1.9v-6.1c0-1-.7-1.9-1.5-1.9z" fill="#f6f6f6"/><path d="m42.3 51.8h8.5v.7h-8.5z" fill="url(#k)"/><path d="m41 53.9h11.1v.7h-11.1z" fill="url(#l)"/><path d="m42.3 56h8.5v.7h-8.5z" fill="url(#m)"/><path d="m56 20.5h-18-1.1-17.4c-1.9 0-3.4 1.5-3.4 3.4v36.5c0 1.9 1.5 3.4 3.4 3.4h17.4 1.1 18c1.9 0 3.4-1.5 3.4-3.4v-36.5c.1-1.9-1.5-3.4-3.4-3.4zm2.5 39.9c0 1.3-1.1 2.4-2.4 2.4h-18.1-1.1-17.4c-1.3 0-2.4-1.1-2.4-2.4v-36.5c0-1.3 1.1-2.4 2.4-2.4h17.4 1.1 18c1.3 0 2.4 1.1 2.4 2.4v36.5z" fill="url(#n)"/></svg>