<svg enable-background="new 0 0 75 83.8" viewBox="0 0 75 83.8" xmlns="http://www.w3.org/2000/svg" xmlns:xlink="http://www.w3.org/1999/xlink"><linearGradient id="a" gradientUnits="userSpaceOnUse" x1="19.377" x2="19.377" y1="63.1605" y2="39.4935"><stop offset="0" stop-color="#0f39c3"/><stop offset="1" stop-color="#fa96d3"/></linearGradient><linearGradient id="b" gradientUnits="userSpaceOnUse" x1="28.5486" x2="47.5486" y1="11.7168" y2="70.7168"><stop offset="0" stop-color="#30a2e3"/><stop offset="1" stop-color="#2fddd1"/></linearGradient><linearGradient id="c"><stop offset="0" stop-color="#b3b3b3"/><stop offset="1" stop-color="#f2f2f2"/></linearGradient><linearGradient id="d" gradientUnits="userSpaceOnUse" x1="23.7263" x2="23.7263" xlink:href="#c" y1="49.485" y2="22.8694"/><linearGradient id="e" gradientUnits="userSpaceOnUse" x1="11.1887" x2="36.2639" y1="36.1772" y2="36.1772"><stop offset="0" stop-color="#fb6874"/><stop offset="1" stop-color="#f56fae"/></linearGradient><linearGradient id="f" gradientUnits="userSpaceOnUse" x1="53.0737" x2="53.0737" xlink:href="#c" y1="61.7723" y2="35.1566"/><linearGradient id="g" gradientUnits="userSpaceOnUse" x1="40.5361" x2="65.6113" y1="48.4645" y2="48.4645"><stop offset="0" stop-color="#fc7d76"/><stop offset="1" stop-color="#fcac60"/></linearGradient><circle cx="19.4" cy="51.3" fill="url(#a)" r="11.8"/><path d="m66.4 52.5c0-1.6-.6-3.1-1.8-4.3l-16-16 17.3-17.3c1.1-1.1.3-3-1.3-3h-36.4l-16 16c-1.2 1.2-1.8 2.8-1.8 4.3 0 1.6.6 3.1 1.8 4.3l16 16-17.2 17.3c-1.1 1.1-.3 3 1.3 3h36.4l16-16c.3-.3.6-.6.8-1 .5-1 .9-2.1.9-3.3z" fill="url(#b)"/><path d="m33.4 49.5h-19.4c-2 0-3.6-1.6-3.6-3.6v-19.4c0-2 1.6-3.6 3.6-3.6h19.4c2 0 3.6 1.6 3.6 3.6v19.4c0 2-1.6 3.6-3.6 3.6z" fill="url(#d)"/><path d="m33.1 48.7h-18.7c-1.7 0-3.2-1.4-3.2-3.2v-18.7c0-1.7 1.4-3.2 3.2-3.2h18.7c1.7 0 3.2 1.4 3.2 3.2v18.7c0 1.8-1.5 3.2-3.2 3.2z" fill="url(#e)"/><g fill="#fff"><path d="m27.3 40.8h-6.9c-.3 0-.6-.3-.7-.6l-1.1-9h-2.1c-.4 0-.7-.3-.7-.7s.3-.7.7-.7h2.7c.3 0 .6.3.7.6l.3 2.3 9.8.1c.2 0 .4.1.6.3.1.2.1.4.1.6l-2.7 6.6c-.2.3-.4.5-.7.5zm-6.3-1.4h5.8l2.2-5.3-8.7-.1z"/><circle cx="21.3" cy="42.8" r="1.4"/><circle cx="26.7" cy="42.8" r="1.4"/></g><path d="m62.8 61.8h-19.4c-2 0-3.6-1.6-3.6-3.6v-19.4c0-2 1.6-3.6 3.6-3.6h19.4c2 0 3.6 1.6 3.6 3.6v19.4c0 2-1.6 3.6-3.6 3.6z" fill="url(#f)"/><path d="m62.4 61h-18.6c-1.8 0-3.2-1.4-3.2-3.2v-18.6c0-1.8 1.4-3.2 3.2-3.2h18.6c1.8 0 3.2 1.4 3.2 3.2v18.6c0 1.8-1.4 3.2-3.2 3.2z" fill="url(#g)"/><path d="m59.9 54.7h-13.4v-9.8h2.9l1-2.7h5.4l1 2.7h3.1zm-12.1-1.3h10.7v-7.1h-2.7l-1-2.7h-3.6l-1 2.7h-2.5v7.1z" fill="#fff"/><path d="m53.2 52c-1.3 0-2.4-1.1-2.4-2.4s1.1-2.4 2.4-2.4 2.4 1.1 2.4 2.4-1.1 2.4-2.4 2.4zm0-3.4c-.6 0-1.1.5-1.1 1.1s.5 1.1 1.1 1.1 1.1-.5 1.1-1.1-.5-1.1-1.1-1.1z" fill="#fff"/></svg>