<svg enable-background="new 0 0 75 83.8" viewBox="0 0 75 83.8" xmlns="http://www.w3.org/2000/svg" xmlns:xlink="http://www.w3.org/1999/xlink"><linearGradient id="a" gradientUnits="userSpaceOnUse" x1="251.6592" x2="270.6592" y1="159.5625" y2="218.5625"><stop offset="0" stop-color="#0f39c3"/><stop offset="1" stop-color="#fa96d3"/></linearGradient><linearGradient id="b"><stop offset="0" stop-color="#fb6874"/><stop offset="1" stop-color="#f56fae"/></linearGradient><linearGradient id="c" gradientTransform="matrix(1 -.00853353 .00853353 1 8.7293 -5.296)" gradientUnits="userSpaceOnUse" x1="227.1121" x2="227.1121" xlink:href="#b" y1="219.1904" y2="195.5237"/><linearGradient id="d"><stop offset="0" stop-color="#f2f2f2"/><stop offset="1" stop-color="#b3b3b3"/></linearGradient><linearGradient id="e" gradientUnits="userSpaceOnUse" x1="269.0875" x2="289.42" xlink:href="#d" y1="184.5755" y2="204.5639"/><linearGradient id="f"><stop offset="0" stop-color="#30a2e3"/><stop offset="1" stop-color="#2fddd1"/></linearGradient><linearGradient id="g" gradientUnits="userSpaceOnUse" x1="271.1635" x2="289.3585" xlink:href="#f" y1="178.8479" y2="178.8479"/><linearGradient id="h"><stop offset=".001241987" stop-color="#fb993c"/><stop offset=".9988" stop-color="#ffc58e"/></linearGradient><linearGradient id="i" gradientUnits="userSpaceOnUse" x1="274.3676" x2="286.1544" xlink:href="#h" y1="199.9615" y2="199.9615"/><linearGradient id="j" gradientUnits="userSpaceOnUse" x1="233.9206" x2="254.7616" xlink:href="#d" y1="184.3256" y2="204.8139"/><linearGradient id="k" gradientUnits="userSpaceOnUse" x1="233.7509" x2="251.9458" xlink:href="#f" y1="178.8479" y2="178.8479"/><linearGradient id="l" gradientUnits="userSpaceOnUse" x1="236.955" x2="248.7417" xlink:href="#h" y1="199.9615" y2="199.9615"/><linearGradient id="m" gradientUnits="userSpaceOnUse" x1="250.218" x2="272.8743" xlink:href="#d" y1="185.1226" y2="207.3956"/><linearGradient id="n" gradientUnits="userSpaceOnUse" x1="250.8836" x2="272.2257" xlink:href="#f" y1="177.2314" y2="177.2314"/><linearGradient id="o" gradientUnits="userSpaceOnUse" x1="254.642" x2="268.4674" xlink:href="#h" y1="202.5835" y2="202.5835"/><linearGradient id="p" gradientUnits="userSpaceOnUse" x1="28.895" x2="47.895" y1="11.4827" y2="70.4827"><stop offset="0" stop-color="#6bf9eb"/><stop offset=".5162" stop-color="#30a2e3"/><stop offset="1" stop-color="#0e48b5"/></linearGradient><linearGradient id="q" gradientTransform="matrix(1 -.00853353 .00853353 1 8.7293 -5.296)" gradientUnits="userSpaceOnUse" x1="48.0996" x2="48.0996" xlink:href="#h" y1="72.5563" y2="48.8897"/><linearGradient id="r" gradientUnits="userSpaceOnUse" x1="14.7464" x2="14.7464" xlink:href="#b" y1="57.2618" y2="24.9117"/><linearGradient id="s" gradientUnits="userSpaceOnUse" x1="38.7464" x2="38.7464" xlink:href="#b" y1="57.2618" y2="24.9117"/><linearGradient id="t" gradientUnits="userSpaceOnUse" x1="62.7464" x2="62.7464" xlink:href="#b" y1="57.2618" y2="24.9117"/><path d="m289.5 200.3c0-1.6-.6-3.1-1.8-4.3l-16-16 17.3-17.3c1.1-1.1.3-3-1.3-3h-36.4l-16 16c-1.2 1.2-1.8 2.8-1.8 4.3 0 1.6.6 3.1 1.8 4.3l16 16-17.3 17.3c-1.1 1.1-.3 3 1.3 3h36.4l16-16c.3-.3.6-.6.8-1 .7-.9 1-2.1 1-3.3z" fill="url(#a)"/><circle cx="237.6" cy="200.1" fill="url(#c)" r="11.8"/><path d="m269.6 183.6v19.6c0 1.5 1.2 2.8 2.8 2.8h13.7c1.5 0 2.8-1.2 2.8-2.8v-19.6z" fill="#fff"/><path d="m270 184.5v18.9c0 1.1.9 2.1 2.1 2.1h14.4c1.1 0 2.1-.9 2.1-2.1v-18.9h.9v18.9c0 1.6-1.3 2.9-2.9 2.9h-14.4c-1.6 0-2.9-1.3-2.9-2.9v-18.9" fill="url(#e)"/><path d="m287.3 173.2h-14c-1.2 0-2.1.9-2.1 2.1v9.2h18.2v-9.2c0-1.2-1-2.1-2.1-2.1z" fill="url(#g)"/><path d="m281.6 177.1c-.3-.2-.6-.4-.9-.5v1.6c1.1.4 1.5.9 1.5 1.7 0 .8-.6 1.4-1.5 1.5v.8h-.7v-.8c-.6-.1-1.2-.3-1.7-.8l.5-.7c.4.3.7.6 1.2.6v-1.5c-1-.4-1.5-.8-1.5-1.7 0-.8.6-1.4 1.5-1.5v-.5h.6v.5c.5.1 1 .3 1.4.6zm-1.6.9v-1.4c-.4.1-.6.3-.6.7.1.2.2.4.6.7zm.7 1.2v1.5c.4-.1.6-.3.6-.7 0-.4-.2-.6-.6-.8z" fill="#fff"/><g fill="#ccc"><path d="m274.3 187.9h11.8v.8h-11.8z"/><path d="m274.3 190.2h11.8v.8h-11.8z"/><path d="m284 193.3h-9.7v-.8h11.9v.8z"/><path d="m274.3 194.9h11.8v.8h-11.8z"/></g><path d="m285.6 202.3h-10.7c-.3 0-.5-.2-.5-.5v-3.7c0-.3.2-.5.5-.5h10.7c.3 0 .5.2.5.5v3.7c.1.3-.2.5-.5.5z" fill="url(#i)"/><path d="m234.2 183.6v19.6c0 1.5 1.2 2.8 2.8 2.8h14.7c1.5 0 2.8-1.2 2.8-2.8v-19.6z" fill="#fff"/><path d="m234.6 184.5v18.9c0 1.1.9 2.1 2.1 2.1h15.3c1.1 0 2.1-.9 2.1-2.1v-18.9h.9v18.9c0 1.6-1.3 2.9-2.9 2.9h-15.4c-1.6 0-2.9-1.3-2.9-2.9v-18.9" fill="url(#j)"/><path d="m249.8 173.2h-14c-1.2 0-2.1.9-2.1 2.1v9.2h18.2v-9.2c0-1.2-.9-2.1-2.1-2.1z" fill="url(#k)"/><path d="m244.2 177.1c-.3-.2-.6-.4-.9-.5v1.6c1.1.4 1.5.9 1.5 1.7 0 .8-.6 1.4-1.5 1.5v.8h-.6v-.8c-.6-.1-1.2-.3-1.7-.8l.5-.7c.4.3.7.6 1.2.6v-1.5c-1-.4-1.5-.8-1.5-1.7 0-.8.6-1.4 1.5-1.5v-.5h.6v.5c.5.1 1 .3 1.4.6zm-1.6.9v-1.4c-.4.1-.6.3-.6.7.1.2.2.4.6.7zm.6 1.2v1.5c.4-.1.6-.3.6-.7.1-.4-.1-.6-.6-.8z" fill="#fff"/><path d="m236.9 187.9h11.8v.8h-11.8z" fill="#ccc"/><path d="m236.9 190.2h11.8v.8h-11.8z" fill="#ccc"/><path d="m246.6 193.3h-9.7v-.8h11.9v.8z" fill="#ccc"/><path d="m236.9 194.9h11.8v.8h-11.8z" fill="#ccc"/><path d="m248.2 202.3h-10.7c-.3 0-.5-.2-.5-.5v-3.7c0-.3.2-.5.5-.5h10.7c.3 0 .5.2.5.5v3.7c0 .3-.2.5-.5.5z" fill="url(#l)"/><path d="m251.4 183.4v23c0 1.8 1.5 3.3 3.3 3.3h13.8c1.8 0 3.3-1.5 3.3-3.3v-23z" fill="#fff"/><path d="m251.9 184.4v22.2c0 1.3 1.1 2.4 2.4 2.4h14.5c1.3 0 2.4-1.1 2.4-2.4v-22.2h1v22.2c0 1.9-1.5 3.4-3.4 3.4h-14.5c-1.9 0-3.4-1.5-3.4-3.4v-22.2" fill="url(#m)"/><path d="m269.8 170h-16.4c-1.4 0-2.5 1.1-2.5 2.5v11.9h21.3v-11.9c0-1.4-1.1-2.5-2.4-2.5z" fill="url(#n)"/><path d="m263.1 175.7c-.3-.3-.7-.5-1.1-.6v1.9c1.3.5 1.8 1.1 1.8 2 0 1-.7 1.7-1.8 1.8v1h-.8v-1c-.7-.1-1.4-.4-2-.9l.6-.8c.4.4.9.7 1.4.8v-2c-1.2-.5-1.7-1-1.7-1.9 0-1 .7-1.6 1.7-1.8v-.6h.8v.6c.6.1 1.2.3 1.6.7zm-1.8 1.1v-1.6c-.5.1-.7.4-.7.8 0 .3.2.5.7.8zm.7 1.4v1.7c.5-.1.7-.4.7-.8 0-.4-.1-.6-.7-.9z" fill="#fff"/><path d="m254.6 188.4h13.9v.9h-13.9z" fill="#ccc"/><path d="m254.6 191.1h13.9v.9h-13.9z" fill="#ccc"/><path d="m266 194.8h-11.4v-.9h13.9v.9z" fill="#ccc"/><path d="m254.6 196.6h13.9v.9h-13.9z" fill="#ccc"/><path d="m267.8 205.4h-12.6c-.4 0-.6-.3-.6-.6v-4.3c0-.4.3-.6.6-.6h12.6c.4 0 .6.3.6.6v4.3c.1.3-.2.6-.6.6z" fill="url(#o)"/><path d="m66.7 52.3c0-1.6-.6-3.1-1.8-4.3l-16-16 17.3-17.3c1.1-1.1.3-3-1.3-3h-36.3l-16 16c-1.2 1.2-1.8 2.8-1.8 4.3 0 1.6.6 3.1 1.8 4.3l16 16-17.3 17.3c-1.1 1.1-.3 3 1.3 3h36.4l16-16c.3-.3.6-.6.8-1 .6-1 .9-2.2.9-3.3z" fill="url(#p)"/><circle cx="57.3" cy="55" fill="url(#q)" r="11.8"/><path d="m6.5 24.9c-1.1 0-1.9 1.1-1.9 2.5v27.4c0 1.4.9 2.5 1.9 2.5h16.5c1.1 0 1.9-1.1 1.9-2.5v-27.4c0-1.4-.9-2.5-1.9-2.5z" fill="url(#r)"/><circle cx="14.7" cy="36.4" fill="#fff" r="6.6"/><path d="m13.3 38.6c-.3 0-.6-.1-.9-.2s-.5-.3-.7-.5-.3-.4-.4-.7-.1-.6-.1-.9c0-.3 0-.6.2-.9.1-.3.2-.5.4-.7s.4-.4.7-.5.5-.2.9-.2c.3 0 .6.1.8.2.3.1.5.3.7.5s.3.4.4.7.2.6.2.9c0 .3-.1.6-.2.9s-.2.5-.4.7-.4.4-.7.5c-.3.2-.6.2-.9.2zm0-.8c.2 0 .3 0 .4-.1s.2-.2.3-.3.2-.3.2-.4.1-.4.1-.6c0-.2 0-.4-.1-.6s-.1-.3-.2-.4-.2-.2-.3-.3-.3-.1-.4-.1c-.2 0-.3 0-.4.1s-.2.2-.3.3-.2.3-.2.4c0 .2-.1.4-.1.6 0 .2 0 .4.1.6 0 .2.1.3.2.4s.2.2.3.3.3.1.4.1z" fill="#749cfc"/><path d="m17 35.1-.8.2-.2-.8 1.3-.4h.7v4.5h-1z" fill="#749cfc"/><path d="m9.3 45.9h10.9v.9h-10.9z" fill="#fff"/><path d="m7.6 48.7h14.3v.9h-14.3z" fill="#fff"/><path d="m9.3 51.4h10.9v.9h-10.9z" fill="#fff"/><path d="m30.5 24.9c-1.1 0-1.9 1.1-1.9 2.5v27.4c0 1.4.9 2.5 1.9 2.5h16.5c1.1 0 1.9-1.1 1.9-2.5v-27.4c0-1.4-.9-2.5-1.9-2.5z" fill="url(#s)"/><circle cx="38.7" cy="36.4" fill="#fff" r="6.6"/><path d="m36.7 38.6c-.3 0-.6-.1-.9-.2s-.5-.3-.7-.5-.3-.4-.4-.7-.1-.6-.1-.9c0-.3 0-.6.2-.9.1-.3.2-.5.4-.7s.4-.4.7-.5.5-.2.9-.2c.3 0 .6.1.8.2.3.1.5.3.7.5s.3.4.4.7.2.6.2.9c0 .3-.1.6-.2.9s-.2.5-.4.7-.4.4-.7.5c-.3.2-.6.2-.9.2zm0-.8c.2 0 .3 0 .4-.1l.3-.3c.1-.1.2-.3.2-.4s.1-.4.1-.6c0-.2 0-.4-.1-.6s-.1-.3-.2-.4-.2-.2-.3-.3-.3-.1-.4-.1c-.2 0-.3 0-.4.1s-.2.2-.3.3-.2.3-.2.4c0 .2-.1.4-.1.6 0 .2 0 .4.1.6 0 .2.1.3.2.4l.3.3s.2.1.4.1z" fill="#749cfc"/><path d="m39.4 37.8 1.6-1.2c.1-.1.3-.2.4-.3s.2-.2.3-.3.1-.2.1-.2c0-.1 0-.2 0-.3 0-.2-.1-.3-.2-.4s-.3-.1-.5-.1-.3 0-.5.1c-.1.1-.3.2-.5.5l-.6-.6c.1-.1.2-.3.4-.4.1-.1.2-.2.4-.3.1-.1.3-.1.5-.2.2 0 .4-.1.6-.1s.5 0 .7.1.4.2.5.3.2.3.3.4c.1.2.1.4.1.6 0 .2 0 .4-.1.5s-.1.3-.2.4-.2.3-.4.4-.3.3-.5.4l-.8.6h2v.8h-3.5v-.7z" fill="#749cfc"/><path d="m33.3 45.9h10.9v.9h-10.9z" fill="#fff"/><path d="m31.6 48.7h14.3v.9h-14.3z" fill="#fff"/><path d="m33.3 51.4h10.9v.9h-10.9z" fill="#fff"/><path d="m54.5 24.9c-1.1 0-1.9 1.1-1.9 2.5v27.4c0 1.4.9 2.5 1.9 2.5h16.5c1.1 0 1.9-1.1 1.9-2.5v-27.4c0-1.4-.9-2.5-1.9-2.5z" fill="url(#t)"/><circle cx="62.7" cy="36.4" fill="#fff" r="6.6"/><path d="m60.7 38.6c-.3 0-.6-.1-.9-.2s-.5-.3-.7-.5-.3-.4-.4-.7-.1-.6-.1-.9c0-.3 0-.6.2-.9.1-.3.2-.5.4-.7s.4-.4.7-.5.5-.2.9-.2c.3 0 .6.1.8.2.3.1.5.3.7.5s.3.4.4.7.2.6.2.9c0 .3-.1.6-.2.9s-.2.5-.4.7-.4.4-.7.5c-.3.2-.6.2-.9.2zm0-.8c.2 0 .3 0 .4-.1l.3-.3c.1-.1.2-.3.2-.4s.1-.4.1-.6c0-.2 0-.4-.1-.6s-.1-.3-.2-.4-.2-.2-.3-.3-.3-.1-.4-.1c-.2 0-.3 0-.4.1s-.2.2-.3.3-.2.3-.2.4c0 .2-.1.4-.1.6 0 .2 0 .4.1.6 0 .2.1.3.2.4l.3.3s.2.1.4.1z" fill="#749cfc"/><path d="m65.2 38.6c-.4 0-.8-.1-1.1-.2s-.5-.3-.7-.6l.7-.6c.2.2.3.3.5.4s.4.1.6.1.4 0 .5-.1.2-.2.2-.4c0-.2-.1-.3-.2-.4s-.4-.1-.7-.1h-.4l-.2-.7 1.1-1.1h-1.8v-.8h3.2v.7l-1.2 1.1c.2 0 .3.1.5.1.1.1.3.1.4.2s.2.2.3.4.1.3.1.5c0 .2 0 .4-.1.6s-.2.3-.3.5c-.1.1-.3.2-.5.3-.4.1-.7.1-.9.1z" fill="#749cfc"/><path d="m57.3 45.9h10.9v.9h-10.9z" fill="#fff"/><path d="m55.6 48.7h14.3v.9h-14.3z" fill="#fff"/><path d="m57.3 51.4h10.9v.9h-10.9z" fill="#fff"/></svg>