<?xml version="1.0" encoding="utf-8"?>
<!-- Generator: Adobe Illustrator 21.1.0, SVG Export Plug-In . SVG Version: 6.00 Build 0)  -->
<svg version="1.1" id="Layer_1" xmlns="http://www.w3.org/2000/svg" xmlns:xlink="http://www.w3.org/1999/xlink" x="0px" y="0px"
	 viewBox="0 0 75 83.8" style="enable-background:new 0 0 75 83.8;" xml:space="preserve">
<style type="text/css">
	.st0{fill:url(#SVGID_1_);}
	.st1{fill:url(#SVGID_2_);}
	.st2{fill:#FFFFFF;}
	.st3{fill:url(#SVGID_3_);}
	.st4{fill:url(#SVGID_4_);}
	.st5{fill:#6BF9EB;}
	.st6{fill:url(#SVGID_5_);}
	.st7{clip-path:url(#SVGID_7_);fill:#FCAC60;}
	.st8{clip-path:url(#SVGID_7_);fill:#FCAD61;}
	.st9{clip-path:url(#SVGID_7_);fill:#FCAD62;}
	.st10{clip-path:url(#SVGID_7_);fill:#FCAE63;}
	.st11{clip-path:url(#SVGID_7_);fill:#FCAE64;}
	.st12{clip-path:url(#SVGID_7_);fill:#FCAF65;}
	.st13{clip-path:url(#SVGID_7_);fill:#FCAF66;}
	.st14{clip-path:url(#SVGID_7_);fill:#FCB067;}
	.st15{clip-path:url(#SVGID_7_);fill:#FDB068;}
	.st16{clip-path:url(#SVGID_7_);fill:#FDB169;}
	.st17{clip-path:url(#SVGID_7_);fill:#FDB26A;}
	.st18{clip-path:url(#SVGID_7_);fill:#FDB26B;}
	.st19{clip-path:url(#SVGID_7_);fill:#FDB36C;}
	.st20{clip-path:url(#SVGID_7_);fill:#FDB36D;}
	.st21{clip-path:url(#SVGID_7_);fill:#FDB46E;}
	.st22{clip-path:url(#SVGID_7_);fill:#FDB46F;}
	.st23{clip-path:url(#SVGID_7_);fill:#FDB570;}
	.st24{clip-path:url(#SVGID_7_);fill:#FDB571;}
	.st25{clip-path:url(#SVGID_7_);fill:#FDB672;}
	.st26{clip-path:url(#SVGID_7_);fill:#FDB773;}
	.st27{clip-path:url(#SVGID_7_);fill:#FDB774;}
	.st28{clip-path:url(#SVGID_7_);fill:#FDB875;}
	.st29{clip-path:url(#SVGID_7_);fill:#FDB876;}
	.st30{clip-path:url(#SVGID_7_);fill:#FEB978;}
	.st31{clip-path:url(#SVGID_7_);fill:#FEB979;}
	.st32{clip-path:url(#SVGID_7_);fill:#FEBA7A;}
	.st33{clip-path:url(#SVGID_7_);fill:#FEBA7B;}
	.st34{clip-path:url(#SVGID_7_);fill:#FEBB7C;}
	.st35{clip-path:url(#SVGID_7_);fill:#FEBC7D;}
	.st36{clip-path:url(#SVGID_7_);fill:#FEBC7E;}
	.st37{clip-path:url(#SVGID_7_);fill:#FEBD7F;}
	.st38{clip-path:url(#SVGID_7_);fill:#FEBD80;}
	.st39{clip-path:url(#SVGID_7_);fill:#FEBE81;}
	.st40{clip-path:url(#SVGID_7_);fill:#FEBE82;}
	.st41{clip-path:url(#SVGID_7_);fill:#FEBF83;}
	.st42{clip-path:url(#SVGID_7_);fill:#FEBF84;}
	.st43{clip-path:url(#SVGID_7_);fill:#FEC085;}
	.st44{clip-path:url(#SVGID_7_);fill:#FEC186;}
	.st45{clip-path:url(#SVGID_7_);fill:#FFC187;}
	.st46{clip-path:url(#SVGID_7_);fill:#FFC288;}
	.st47{clip-path:url(#SVGID_7_);fill:#FFC289;}
	.st48{clip-path:url(#SVGID_7_);fill:#FFC38A;}
	.st49{clip-path:url(#SVGID_7_);fill:#FFC38B;}
	.st50{clip-path:url(#SVGID_7_);fill:#FFC48C;}
	.st51{clip-path:url(#SVGID_7_);fill:#FFC48D;}
	.st52{clip-path:url(#SVGID_7_);fill:#FFC58E;}
	.st53{fill:url(#SVGID_8_);}
	.st54{fill:url(#SVGID_9_);}
	.st55{fill:url(#SVGID_10_);}
	.st56{fill:url(#SVGID_11_);}
	.st57{fill:url(#SVGID_12_);}
	.st58{fill:url(#SVGID_13_);}
	.st59{fill:url(#SVGID_14_);}
	.st60{fill:url(#SVGID_15_);}
	.st61{fill:#CCCCCC;}
	.st62{fill:url(#SVGID_16_);}
	.st63{fill:url(#SVGID_17_);}
	.st64{fill:url(#SVGID_18_);}
	.st65{fill:url(#SVGID_19_);}
	.st66{fill:url(#SVGID_20_);}
	.st67{fill:url(#SVGID_21_);}
	.st68{fill:url(#SVGID_22_);}
</style>
<g>
	<g>
		<g>
			<linearGradient id="SVGID_1_" gradientUnits="userSpaceOnUse" x1="29.1543" y1="11.5188" x2="48.1543" y2="70.5188">
				<stop  offset="0" style="stop-color:#FB6874"/>
				<stop  offset="1" style="stop-color:#F56FAE"/>
			</linearGradient>
			<path class="st0" d="M67,52.3L67,52.3L67,52.3c0-1.6-0.6-3.1-1.8-4.3l-16-16l17.3-17.3c1.1-1.1,0.3-3-1.3-3H28.8l0,0l0,0l0,0l0,0
				l0,0v0v0l-16,16C11.6,28.8,11,30.4,11,32c0,1.6,0.6,3.1,1.8,4.3l16,16v0l0,0h0L11.6,69.6c-1.1,1.1-0.3,3,1.3,3h36.4l0,0v0l0,0
				l0,0l0,0v0l16-16c0.3-0.3,0.6-0.6,0.8-1C66.7,54.6,67,53.5,67,52.3L67,52.3C67,52.3,67,52.3,67,52.3L67,52.3z"/>
		</g>
	</g>
	<g>
		
			<linearGradient id="SVGID_2_" gradientUnits="userSpaceOnUse" x1="17.341" y1="69.6154" x2="17.341" y2="45.9487" gradientTransform="matrix(1 -8.533533e-03 8.533533e-03 1 8.7293 -5.296)">
			<stop  offset="0" style="stop-color:#0E48B5"/>
			<stop  offset="1" style="stop-color:#30A2E3"/>
		</linearGradient>
		<circle class="st1" cx="26.6" cy="52.3" r="11.8"/>
		<g>
			<path class="st2" d="M59.7,18H33.3c-1.6,0-2.9,1.3-2.9,2.9v15.8V64c0,1.2,1,2.2,2.2,2.2h27.7c1.2,0,2.2-1,2.2-2.2V40.4l0-19.5
				C62.5,19.3,61.2,18,59.7,18z"/>
			<linearGradient id="SVGID_3_" gradientUnits="userSpaceOnUse" x1="46.4759" y1="66.7204" x2="46.4759" y2="17.5251">
				<stop  offset="0" style="stop-color:#B3B3B3"/>
				<stop  offset="1" style="stop-color:#F2F2F2"/>
			</linearGradient>
			<path class="st3" d="M59.9,66.7H33.1c-1.9,0-3.4-1.5-3.4-3.4V20.9c0-1.9,1.5-3.4,3.4-3.4h26.8c1.9,0,3.4,1.5,3.4,3.4v42.4
				C63.3,65.2,61.8,66.7,59.9,66.7z M33.1,18.5c-1.3,0-2.4,1.1-2.4,2.4v42.4c0,1.3,1.1,2.4,2.4,2.4h26.8c1.3,0,2.4-1.1,2.4-2.4V20.9
				c0-1.3-1.1-2.4-2.4-2.4H33.1z"/>
			<g>
				<linearGradient id="SVGID_4_" gradientUnits="userSpaceOnUse" x1="46.4759" y1="38.6019" x2="46.4759" y2="21.3519">
					<stop  offset="0" style="stop-color:#AB5AF1"/>
					<stop  offset="1" style="stop-color:#749CFC"/>
				</linearGradient>
				<rect x="33.1" y="21.4" class="st4" width="26.8" height="17.2"/>
				<g>
					<path class="st5" d="M44.5,32.9l-1.8-2.3c-0.3-0.3-0.8-0.3-1.1,0l-6.5,7.9H40L44.5,32.9z"/>
					<linearGradient id="SVGID_5_" gradientUnits="userSpaceOnUse" x1="39.6393" y1="33.1778" x2="59.9472" y2="33.1778">
						<stop  offset="0" style="stop-color:#34D1D9"/>
						<stop  offset="1" style="stop-color:#5AECE5"/>
					</linearGradient>
					<path class="st6" d="M48.4,28l-3.9,5L40,38.6h18L49.5,28C49.2,27.7,48.7,27.7,48.4,28z"/>
				</g>
				<g>
					<g>
						<defs>
							<circle id="SVGID_6_" cx="42.1" cy="26.2" r="2.2"/>
						</defs>
						<clipPath id="SVGID_7_">
							<use xlink:href="#SVGID_6_"  style="overflow:visible;"/>
						</clipPath>
						<rect x="39.9" y="28.4" class="st7" width="4.4" height="0"/>
						<rect x="39.9" y="28.3" class="st7" width="4.4" height="0.1"/>
						<rect x="39.9" y="28.2" class="st8" width="4.4" height="0.1"/>
						<rect x="39.9" y="28.1" class="st9" width="4.4" height="0.1"/>
						<rect x="39.9" y="28" class="st10" width="4.4" height="0.1"/>
						<rect x="39.9" y="27.9" class="st11" width="4.4" height="0.1"/>
						<rect x="39.9" y="27.8" class="st12" width="4.4" height="0.1"/>
						<rect x="39.9" y="27.7" class="st13" width="4.4" height="0.1"/>
						<rect x="39.9" y="27.6" class="st14" width="4.4" height="0.1"/>
						<rect x="39.9" y="27.5" class="st15" width="4.4" height="0.1"/>
						<rect x="39.9" y="27.4" class="st16" width="4.4" height="0.1"/>
						<rect x="39.9" y="27.3" class="st17" width="4.4" height="0.1"/>
						<rect x="39.9" y="27.2" class="st18" width="4.4" height="0.1"/>
						<rect x="39.9" y="27.1" class="st19" width="4.4" height="0.1"/>
						<rect x="39.9" y="27" class="st20" width="4.4" height="0.1"/>
						<rect x="39.9" y="26.9" class="st21" width="4.4" height="0.1"/>
						<rect x="39.9" y="26.8" class="st22" width="4.4" height="0.1"/>
						<rect x="39.9" y="26.7" class="st23" width="4.4" height="0.1"/>
						<rect x="39.9" y="26.6" class="st24" width="4.4" height="0.1"/>
						<rect x="39.9" y="26.6" class="st25" width="4.4" height="0.1"/>
						<rect x="39.9" y="26.5" class="st26" width="4.4" height="0.1"/>
						<rect x="39.9" y="26.4" class="st27" width="4.4" height="0.1"/>
						<rect x="39.9" y="26.3" class="st28" width="4.4" height="0.1"/>
						<rect x="39.9" y="26.2" class="st29" width="4.4" height="0.1"/>
						<rect x="39.9" y="26.1" class="st30" width="4.4" height="0.1"/>
						<rect x="39.9" y="26" class="st31" width="4.4" height="0.1"/>
						<rect x="39.9" y="25.9" class="st32" width="4.4" height="0.1"/>
						<rect x="39.9" y="25.8" class="st33" width="4.4" height="0.1"/>
						<rect x="39.9" y="25.7" class="st34" width="4.4" height="0.1"/>
						<rect x="39.9" y="25.6" class="st35" width="4.4" height="0.1"/>
						<rect x="39.9" y="25.5" class="st36" width="4.4" height="0.1"/>
						<rect x="39.9" y="25.4" class="st37" width="4.4" height="0.1"/>
						<rect x="39.9" y="25.3" class="st38" width="4.4" height="0.1"/>
						<rect x="39.9" y="25.2" class="st39" width="4.4" height="0.1"/>
						<rect x="39.9" y="25.1" class="st40" width="4.4" height="0.1"/>
						<rect x="39.9" y="25" class="st41" width="4.4" height="0.1"/>
						<rect x="39.9" y="24.9" class="st42" width="4.4" height="0.1"/>
						<rect x="39.9" y="24.8" class="st43" width="4.4" height="0.1"/>
						<rect x="39.9" y="24.7" class="st44" width="4.4" height="0.1"/>
						<rect x="39.9" y="24.6" class="st45" width="4.4" height="0.1"/>
						<rect x="39.9" y="24.5" class="st46" width="4.4" height="0.1"/>
						<rect x="39.9" y="24.4" class="st47" width="4.4" height="0.1"/>
						<rect x="39.9" y="24.3" class="st48" width="4.4" height="0.1"/>
						<rect x="39.9" y="24.2" class="st49" width="4.4" height="0.1"/>
						<rect x="39.9" y="24.1" class="st50" width="4.4" height="0.1"/>
						<rect x="39.9" y="24" class="st51" width="4.4" height="0.1"/>
						<rect x="39.9" y="24" class="st52" width="4.4" height="0.1"/>
						<rect x="39.9" y="23.9" class="st52" width="4.4" height="0"/>
					</g>
				</g>
			</g>
			<g>
				<linearGradient id="SVGID_8_" gradientUnits="userSpaceOnUse" x1="35.7664" y1="44.9913" x2="57.1855" y2="44.8085">
					<stop  offset="0" style="stop-color:#30A2E3"/>
					<stop  offset="1" style="stop-color:#0E48B5"/>
				</linearGradient>
				<rect x="35.8" y="43.4" class="st53" width="21.4" height="2.9"/>
				<linearGradient id="SVGID_9_" gradientUnits="userSpaceOnUse" x1="36.8667" y1="49.1668" x2="56.0852" y2="49.0028">
					<stop  offset="0" style="stop-color:#30A2E3"/>
					<stop  offset="1" style="stop-color:#0E48B5"/>
				</linearGradient>
				<rect x="36.9" y="48.6" class="st54" width="19.2" height="0.9"/>
				<linearGradient id="SVGID_10_" gradientUnits="userSpaceOnUse" x1="34.2872" y1="51.9388" x2="58.6647" y2="51.7307">
					<stop  offset="0" style="stop-color:#30A2E3"/>
					<stop  offset="1" style="stop-color:#0E48B5"/>
				</linearGradient>
				<rect x="34.3" y="51.4" class="st55" width="24.4" height="0.9"/>
				<linearGradient id="SVGID_11_" gradientUnits="userSpaceOnUse" x1="37.9086" y1="58.6606" x2="55.0433" y2="58.5144">
					<stop  offset="0" style="stop-color:#FC7D76"/>
					<stop  offset="1" style="stop-color:#FCAC60"/>
				</linearGradient>
				<path class="st56" d="M54.4,61.4H38.6c-0.4,0-0.6-0.3-0.6-0.6v-4.3c0-0.4,0.3-0.6,0.6-0.6h15.8c0.4,0,0.6,0.3,0.6,0.6v4.3
					C55,61.1,54.7,61.4,54.4,61.4z"/>
			</g>
		</g>
	</g>
</g>
<g>
	<g>
		<linearGradient id="SVGID_12_" gradientUnits="userSpaceOnUse" x1="251.6592" y1="159.5625" x2="270.6592" y2="218.5625">
			<stop  offset="0" style="stop-color:#0F39C3"/>
			<stop  offset="1" style="stop-color:#FA96D3"/>
		</linearGradient>
		<path class="st57" d="M289.5,200.3L289.5,200.3L289.5,200.3c0-1.6-0.6-3.1-1.8-4.3l-16-16l17.3-17.3c1.1-1.1,0.3-3-1.3-3h-36.4
			l0,0l0,0l0,0l0,0l0,0v0v0l-16,16c-1.2,1.2-1.8,2.8-1.8,4.3c0,1.6,0.6,3.1,1.8,4.3l16,16v0l0,0h0l-17.3,17.3c-1.1,1.1-0.3,3,1.3,3
			h36.4l0,0v0l0,0l0,0l0,0v0l16-16c0.3-0.3,0.6-0.6,0.8-1C289.2,202.7,289.5,201.5,289.5,200.3L289.5,200.3
			C289.5,200.3,289.5,200.3,289.5,200.3L289.5,200.3z"/>
	</g>
	
		<linearGradient id="SVGID_13_" gradientUnits="userSpaceOnUse" x1="227.1121" y1="219.1904" x2="227.1121" y2="195.5237" gradientTransform="matrix(1 -8.533533e-03 8.533533e-03 1 8.7293 -5.296)">
		<stop  offset="0" style="stop-color:#FB6874"/>
		<stop  offset="1" style="stop-color:#F56FAE"/>
	</linearGradient>
	<circle class="st58" cx="237.6" cy="200.1" r="11.8"/>
	<g>
		<g>
			<g>
				<path class="st2" d="M269.6,183.6v19.6c0,1.5,1.2,2.8,2.8,2.8h13.7c1.5,0,2.8-1.2,2.8-2.8v-19.6H269.6z"/>
				<g>
					<linearGradient id="SVGID_14_" gradientUnits="userSpaceOnUse" x1="269.0875" y1="184.5755" x2="289.42" y2="204.5639">
						<stop  offset="0" style="stop-color:#F2F2F2"/>
						<stop  offset="1" style="stop-color:#B3B3B3"/>
					</linearGradient>
					<path class="st59" d="M270,184.5v18.9c0,1.1,0.9,2.1,2.1,2.1h14.4c1.1,0,2.1-0.9,2.1-2.1v-18.9h0.9v18.9c0,1.6-1.3,2.9-2.9,2.9
						h-14.4c-1.6,0-2.9-1.3-2.9-2.9v-18.9"/>
				</g>
				<linearGradient id="SVGID_15_" gradientUnits="userSpaceOnUse" x1="271.1635" y1="178.8479" x2="289.3585" y2="178.8479">
					<stop  offset="0" style="stop-color:#30A2E3"/>
					<stop  offset="1" style="stop-color:#2FDDD1"/>
				</linearGradient>
				<path class="st60" d="M287.3,173.2h-14c-1.2,0-2.1,0.9-2.1,2.1v9.2h18.2v-9.2C289.4,174.1,288.4,173.2,287.3,173.2z"/>
				<g>
					<path class="st2" d="M281.6,177.1c-0.3-0.2-0.6-0.4-0.9-0.5v1.6c1.1,0.4,1.5,0.9,1.5,1.7v0c0,0.8-0.6,1.4-1.5,1.5v0.8H280v-0.8
						c-0.6-0.1-1.2-0.3-1.7-0.8l0.5-0.7c0.4,0.3,0.7,0.6,1.2,0.6V179c-1-0.4-1.5-0.8-1.5-1.7v0c0-0.8,0.6-1.4,1.5-1.5v-0.5h0.6v0.5
						c0.5,0.1,1,0.3,1.4,0.6L281.6,177.1z M280,178v-1.4c-0.4,0.1-0.6,0.3-0.6,0.7v0C279.5,177.5,279.6,177.7,280,178z M280.7,179.2
						v1.5c0.4-0.1,0.6-0.3,0.6-0.7v0C281.3,179.6,281.1,179.4,280.7,179.2z"/>
				</g>
				<g>
					<rect x="274.3" y="187.9" class="st61" width="11.8" height="0.8"/>
					<rect x="274.3" y="190.2" class="st61" width="11.8" height="0.8"/>
					<polyline class="st61" points="284,193.3 274.3,193.3 274.3,192.5 286.2,192.5 286.2,193.3 284,193.3 					"/>
					<rect x="274.3" y="194.9" class="st61" width="11.8" height="0.8"/>
				</g>
				<linearGradient id="SVGID_16_" gradientUnits="userSpaceOnUse" x1="274.3676" y1="199.9615" x2="286.1544" y2="199.9615">
					<stop  offset="1.241987e-03" style="stop-color:#FB993C"/>
					<stop  offset="0.9988" style="stop-color:#FFC58E"/>
				</linearGradient>
				<path class="st62" d="M285.6,202.3h-10.7c-0.3,0-0.5-0.2-0.5-0.5v-3.7c0-0.3,0.2-0.5,0.5-0.5h10.7c0.3,0,0.5,0.2,0.5,0.5v3.7
					C286.2,202.1,285.9,202.3,285.6,202.3z"/>
			</g>
			<g>
				<path class="st2" d="M234.2,183.6v19.6c0,1.5,1.2,2.8,2.8,2.8h14.7c1.5,0,2.8-1.2,2.8-2.8v-19.6H234.2z"/>
				<g>
					<linearGradient id="SVGID_17_" gradientUnits="userSpaceOnUse" x1="233.9206" y1="184.3256" x2="254.7616" y2="204.8139">
						<stop  offset="0" style="stop-color:#F2F2F2"/>
						<stop  offset="1" style="stop-color:#B3B3B3"/>
					</linearGradient>
					<path class="st63" d="M234.6,184.5v18.9c0,1.1,0.9,2.1,2.1,2.1H252c1.1,0,2.1-0.9,2.1-2.1v-18.9h0.9v18.9
						c0,1.6-1.3,2.9-2.9,2.9h-15.4c-1.6,0-2.9-1.3-2.9-2.9v-18.9"/>
				</g>
				<linearGradient id="SVGID_18_" gradientUnits="userSpaceOnUse" x1="233.7509" y1="178.8479" x2="251.9458" y2="178.8479">
					<stop  offset="0" style="stop-color:#30A2E3"/>
					<stop  offset="1" style="stop-color:#2FDDD1"/>
				</linearGradient>
				<path class="st64" d="M249.8,173.2h-14c-1.2,0-2.1,0.9-2.1,2.1v9.2h18.2v-9.2C251.9,174.1,251,173.2,249.8,173.2z"/>
				<g>
					<path class="st2" d="M244.2,177.1c-0.3-0.2-0.6-0.4-0.9-0.5v1.6c1.1,0.4,1.5,0.9,1.5,1.7v0c0,0.8-0.6,1.4-1.5,1.5v0.8h-0.6
						v-0.8c-0.6-0.1-1.2-0.3-1.7-0.8l0.5-0.7c0.4,0.3,0.7,0.6,1.2,0.6V179c-1-0.4-1.5-0.8-1.5-1.7v0c0-0.8,0.6-1.4,1.5-1.5v-0.5h0.6
						v0.5c0.5,0.1,1,0.3,1.4,0.6L244.2,177.1z M242.6,178v-1.4c-0.4,0.1-0.6,0.3-0.6,0.7v0C242.1,177.5,242.2,177.7,242.6,178z
						 M243.2,179.2v1.5c0.4-0.1,0.6-0.3,0.6-0.7v0C243.9,179.6,243.7,179.4,243.2,179.2z"/>
				</g>
				<g>
					<rect x="236.9" y="187.9" class="st61" width="11.8" height="0.8"/>
					<rect x="236.9" y="190.2" class="st61" width="11.8" height="0.8"/>
					<polyline class="st61" points="246.6,193.3 236.9,193.3 236.9,192.5 248.8,192.5 248.8,193.3 246.6,193.3 					"/>
					<rect x="236.9" y="194.9" class="st61" width="11.8" height="0.8"/>
				</g>
				<linearGradient id="SVGID_19_" gradientUnits="userSpaceOnUse" x1="236.955" y1="199.9615" x2="248.7417" y2="199.9615">
					<stop  offset="1.241987e-03" style="stop-color:#FB993C"/>
					<stop  offset="0.9988" style="stop-color:#FFC58E"/>
				</linearGradient>
				<path class="st65" d="M248.2,202.3h-10.7c-0.3,0-0.5-0.2-0.5-0.5v-3.7c0-0.3,0.2-0.5,0.5-0.5h10.7c0.3,0,0.5,0.2,0.5,0.5v3.7
					C248.7,202.1,248.5,202.3,248.2,202.3z"/>
			</g>
		</g>
		<g>
			<path class="st2" d="M251.4,183.4v23c0,1.8,1.5,3.3,3.3,3.3h13.8c1.8,0,3.3-1.5,3.3-3.3v-23H251.4z"/>
			<g>
				<linearGradient id="SVGID_20_" gradientUnits="userSpaceOnUse" x1="250.218" y1="185.1226" x2="272.8743" y2="207.3956">
					<stop  offset="0" style="stop-color:#F2F2F2"/>
					<stop  offset="1" style="stop-color:#B3B3B3"/>
				</linearGradient>
				<path class="st66" d="M251.9,184.4v22.2c0,1.3,1.1,2.4,2.4,2.4h14.5c1.3,0,2.4-1.1,2.4-2.4v-22.2h1v22.2c0,1.9-1.5,3.4-3.4,3.4
					h-14.5c-1.9,0-3.4-1.5-3.4-3.4v-22.2"/>
			</g>
			<linearGradient id="SVGID_21_" gradientUnits="userSpaceOnUse" x1="250.8836" y1="177.2314" x2="272.2257" y2="177.2314">
				<stop  offset="0" style="stop-color:#30A2E3"/>
				<stop  offset="1" style="stop-color:#2FDDD1"/>
			</linearGradient>
			<path class="st67" d="M269.8,170h-16.4c-1.4,0-2.5,1.1-2.5,2.5v11.9h21.3v-11.9C272.2,171.1,271.1,170,269.8,170z"/>
			<g>
				<path class="st2" d="M263.1,175.7c-0.3-0.3-0.7-0.5-1.1-0.6v1.9c1.3,0.5,1.8,1.1,1.8,2v0c0,1-0.7,1.7-1.8,1.8v1h-0.8v-1
					c-0.7-0.1-1.4-0.4-2-0.9l0.6-0.8c0.4,0.4,0.9,0.7,1.4,0.8v-2c-1.2-0.5-1.7-1-1.7-1.9v0c0-1,0.7-1.6,1.7-1.8v-0.6h0.8v0.6
					c0.6,0.1,1.2,0.3,1.6,0.7L263.1,175.7z M261.3,176.8v-1.6c-0.5,0.1-0.7,0.4-0.7,0.8v0C260.6,176.3,260.8,176.5,261.3,176.8z
					 M262,178.2v1.7c0.5-0.1,0.7-0.4,0.7-0.8v0C262.7,178.7,262.6,178.5,262,178.2z"/>
			</g>
			<g>
				<rect x="254.6" y="188.4" class="st61" width="13.9" height="0.9"/>
				<rect x="254.6" y="191.1" class="st61" width="13.9" height="0.9"/>
				<polyline class="st61" points="266,194.8 254.6,194.8 254.6,193.9 268.5,193.9 268.5,194.8 266,194.8 				"/>
				<rect x="254.6" y="196.6" class="st61" width="13.9" height="0.9"/>
			</g>
			<linearGradient id="SVGID_22_" gradientUnits="userSpaceOnUse" x1="254.642" y1="202.5835" x2="268.4674" y2="202.5835">
				<stop  offset="1.241987e-03" style="stop-color:#FB993C"/>
				<stop  offset="0.9988" style="stop-color:#FFC58E"/>
			</linearGradient>
			<path class="st68" d="M267.8,205.4h-12.6c-0.4,0-0.6-0.3-0.6-0.6v-4.3c0-0.4,0.3-0.6,0.6-0.6h12.6c0.4,0,0.6,0.3,0.6,0.6v4.3
				C268.5,205.1,268.2,205.4,267.8,205.4z"/>
		</g>
	</g>
</g>
</svg>
