<?xml version="1.0" encoding="utf-8"?>
<!-- Generator: Adobe Illustrator 21.1.0, SVG Export Plug-In . SVG Version: 6.00 Build 0)  -->
<svg version="1.1" id="Layer_1" xmlns="http://www.w3.org/2000/svg" xmlns:xlink="http://www.w3.org/1999/xlink" x="0px" y="0px"
	 viewBox="0 0 75 83.8" style="enable-background:new 0 0 75 83.8;" xml:space="preserve">
<style type="text/css">
	.st0{fill:url(#SVGID_1_);}
	.st1{fill:url(#SVGID_2_);}
	.st2{fill:#FFFFFF;}
	.st3{fill:#F6F6F6;}
	.st4{fill:url(#SVGID_3_);}
	.st5{fill:#B3B3B3;}
	.st6{fill:url(#SVGID_4_);}
	.st7{fill:url(#SVGID_5_);}
	.st8{fill:url(#SVGID_6_);}
</style>
<g>
	<g>
		
			<linearGradient id="SVGID_1_" gradientUnits="userSpaceOnUse" x1="28.6023" y1="74.5296" x2="47.6023" y2="15.5296" gradientTransform="matrix(1 0 0 -1 0 86)">
			<stop  offset="0" style="stop-color:#6BF9EB"/>
			<stop  offset="0.5162" style="stop-color:#30A2E3"/>
			<stop  offset="1" style="stop-color:#0E48B5"/>
		</linearGradient>
		<path class="st0" d="M66.4,52.2L66.4,52.2L66.4,52.2c0-1.6-0.6-3.1-1.8-4.3l-16-16l17.3-17.3c1.1-1.1,0.3-3-1.3-3H28.2l0,0l0,0
			l0,0l0,0l0,0l0,0l0,0l-16,16c-1.2,1.2-1.8,2.8-1.8,4.3c0,1.6,0.6,3.1,1.8,4.3l16,16l0,0l0,0l0,0L11,69.5c-1.1,1.1-0.3,3,1.3,3
			h36.4l0,0l0,0l0,0l0,0l0,0l0,0l16-16c0.3-0.3,0.6-0.6,0.8-1C66.1,54.6,66.4,53.4,66.4,52.2L66.4,52.2L66.4,52.2L66.4,52.2z"/>
	</g>
	
		<linearGradient id="SVGID_2_" gradientUnits="userSpaceOnUse" x1="40.5114" y1="33.2546" x2="40.5114" y2="56.9213" gradientTransform="matrix(1 -8.533533e-03 -8.533533e-03 -1 12.3731 75.1999)">
		<stop  offset="1.241987e-03" style="stop-color:#FB993C"/>
		<stop  offset="0.9988" style="stop-color:#FFC58E"/>
	</linearGradient>
	<circle class="st1" cx="52.5" cy="29.8" r="11.8"/>
	<g>
		<path class="st2" d="M57.2,27.9c0-1.6-1.1-2.9-2.3-2.9H11c-1.3,0-2.3,1.3-2.3,2.9v7.3c8.2,0,12.4,3.5,16.4,7c4.1,3.5,8,6.8,16,6.8
			s11.9-3.3,16-6.8v21l0,0L57.2,27.9z"/>
		<path class="st3" d="M41.2,49c-8,0-11.9-3.3-16-6.8c-4-3.4-8.2-7-16.4-8.3v28.9c0,3.6,0.7,4.5,2.5,4.5h43.5c1.8,0,2.5-0.9,2.5-3.1
			l-0.2-22C52.9,45.7,49.2,49,41.2,49z"/>
	</g>
	
		<linearGradient id="SVGID_3_" gradientUnits="userSpaceOnUse" x1="10.5361" y1="61.9845" x2="55.3639" y2="17.9155" gradientTransform="matrix(1 0 0 -1 0 86)">
		<stop  offset="0" style="stop-color:#F2F2F2"/>
		<stop  offset="1" style="stop-color:#B3B3B3"/>
	</linearGradient>
	<path class="st4" d="M54.3,67.7H11.6c-1.9,0-3.4-1.5-3.4-3.4V27.8c0-1.9,1.5-3.4,3.4-3.4h42.7c1.9,0,3.4,1.5,3.4,3.4v36.5
		C57.7,66.2,56.2,67.7,54.3,67.7z M11.6,25.4c-1.3,0-2.4,1.1-2.4,2.4v36.5c0,1.3,1.1,2.4,2.4,2.4h42.7c1.3,0,2.4-1.1,2.4-2.4V27.8
		c0-1.3-1.1-2.4-2.4-2.4H11.6z"/>
	<g>
		<g>
			<rect x="15.6" y="44.6" class="st5" width="30.2" height="0.7"/>
			<rect x="15.6" y="46.6" class="st5" width="33.1" height="0.7"/>
			<rect x="15.6" y="48.6" class="st5" width="31.6" height="0.7"/>
			<rect x="15.6" y="50.6" class="st5" width="30.2" height="0.7"/>
			<rect x="15.6" y="52.7" class="st5" width="31.7" height="0.7"/>
			<rect x="15.6" y="54.7" class="st5" width="23.6" height="0.7"/>
		</g>
		<g>
			<g>
				<g>
					
						<linearGradient id="SVGID_4_" gradientUnits="userSpaceOnUse" x1="12.6611" y1="46.9" x2="53.2419" y2="46.9" gradientTransform="matrix(1 0 0 -1 0 86)">
						<stop  offset="0" style="stop-color:#8F31C1"/>
						<stop  offset="1" style="stop-color:#F56FAE"/>
					</linearGradient>
					<path class="st6" d="M14,36.4c-0.7,0-1.4,0.6-1.4,1.4v2.6c0,0.7,0.6,1.4,1.4,1.4h37.9c0.7,0,1.4-0.6,1.4-1.4v-2.6
						c0-0.7-0.6-1.4-1.4-1.4H14z"/>
				</g>
			</g>
			<rect x="15.6" y="38.7" class="st2" width="21.2" height="0.7"/>
			<g>
				<path class="st2" d="M49.4,38.2c0.1,0,0.1,0,0.2,0.1l1.1,1.2c0.1,0.1,0.1,0.3,0,0.4s-0.3,0.1-0.4,0l-0.9-1l-0.9,1
					c-0.1,0.1-0.3,0.1-0.4,0s-0.1-0.3,0-0.4l1.1-1.2C49.3,38.2,49.3,38.2,49.4,38.2z"/>
			</g>
		</g>
		<g>
			<g>
				<g>
					
						<linearGradient id="SVGID_5_" gradientUnits="userSpaceOnUse" x1="12.6611" y1="53.8" x2="53.2419" y2="53.8" gradientTransform="matrix(1 0 0 -1 0 86)">
						<stop  offset="0" style="stop-color:#8F31C1"/>
						<stop  offset="1" style="stop-color:#F56FAE"/>
					</linearGradient>
					<path class="st7" d="M14,29.5c-0.7,0-1.4,0.6-1.4,1.4v2.6c0,0.7,0.6,1.4,1.4,1.4h37.9c0.7,0,1.4-0.6,1.4-1.4v-2.6
						c0-0.7-0.6-1.4-1.4-1.4H14z"/>
				</g>
			</g>
			<rect x="15.6" y="31.8" class="st2" width="21.2" height="0.7"/>
			<g>
				<path class="st2" d="M49.4,33c-0.1,0-0.1,0-0.2-0.1l-1.1-1.2c-0.1-0.1-0.1-0.3,0-0.4s0.3-0.1,0.4,0l0.9,1l0.9-1
					c0.1-0.1,0.3-0.1,0.4,0s0.1,0.3,0,0.4l-1.1,1.2C49.6,32.9,49.5,33,49.4,33z"/>
			</g>
		</g>
		<g>
			<g>
				<g>
					
						<linearGradient id="SVGID_6_" gradientUnits="userSpaceOnUse" x1="12.6611" y1="25" x2="53.2419" y2="25" gradientTransform="matrix(1 0 0 -1 0 86)">
						<stop  offset="0" style="stop-color:#8F31C1"/>
						<stop  offset="1" style="stop-color:#F56FAE"/>
					</linearGradient>
					<path class="st8" d="M14,58.3c-0.7,0-1.4,0.6-1.4,1.4v2.6c0,0.7,0.6,1.4,1.4,1.4h37.9c0.7,0,1.4-0.6,1.4-1.4v-2.6
						c0-0.7-0.6-1.4-1.4-1.4H14z"/>
				</g>
			</g>
			<rect x="15.6" y="60.7" class="st2" width="21.2" height="0.7"/>
			<g>
				<path class="st2" d="M49.4,61.8c-0.1,0-0.1,0-0.2-0.1l-1.1-1.2c-0.1-0.1-0.1-0.3,0-0.4s0.3-0.1,0.4,0l0.9,1l0.9-1
					c0.1-0.1,0.3-0.1,0.4,0s0.1,0.3,0,0.4l-1.1,1.2C49.6,61.8,49.5,61.8,49.4,61.8z"/>
			</g>
		</g>
	</g>
</g>
</svg>
