<?xml version="1.0" encoding="utf-8"?>
<!-- Generator: Adobe Illustrator 21.1.0, SVG Export Plug-In . SVG Version: 6.00 Build 0)  -->
<svg version="1.1" id="Layer_1" xmlns="http://www.w3.org/2000/svg" xmlns:xlink="http://www.w3.org/1999/xlink" x="0px" y="0px"
	 viewBox="0 0 75 83.8" style="enable-background:new 0 0 75 83.8;" xml:space="preserve">
<style type="text/css">
	.st0{fill:url(#SVGID_1_);}
	.st1{fill:url(#SVGID_2_);}
	.st2{fill:#FFFFFF;}
	.st3{fill:#F6F6F6;}
	.st4{fill:url(#SVGID_3_);}
	.st5{fill:url(#SVGID_4_);}
	.st6{fill:url(#SVGID_5_);}
	.st7{fill:url(#SVGID_6_);}
	.st8{fill:url(#SVGID_7_);}
	.st9{fill:url(#SVGID_8_);}
	.st10{fill:url(#SVGID_9_);}
	.st11{fill:url(#SVGID_10_);}
	.st12{fill:url(#SVGID_11_);}
	.st13{fill:url(#SVGID_12_);}
</style>
<g>
	<linearGradient id="SVGID_1_" gradientUnits="userSpaceOnUse" x1="28.441" y1="11.4548" x2="47.441" y2="70.4548">
		<stop  offset="0" style="stop-color:#6BF9EB"/>
		<stop  offset="0.5162" style="stop-color:#30A2E3"/>
		<stop  offset="1" style="stop-color:#0E48B5"/>
	</linearGradient>
	<path class="st0" d="M66.3,52.2L66.3,52.2L66.3,52.2c0-1.6-0.6-3.1-1.8-4.3l-16-16l17.3-17.3c1.1-1.1,0.3-3-1.3-3H28.1l0,0l0,0l0,0
		l0,0l0,0v0v0l-16,16c-1.2,1.2-1.8,2.8-1.8,4.3c0,1.6,0.6,3.1,1.8,4.3l16,16v0l0,0h0L10.8,69.5c-1.1,1.1-0.3,3,1.3,3h36.4l0,0v0l0,0
		l0,0l0,0v0l16-16c0.3-0.3,0.6-0.6,0.8-1C65.9,54.6,66.3,53.4,66.3,52.2L66.3,52.2C66.3,52.2,66.3,52.2,66.3,52.2L66.3,52.2z"/>
	
		<linearGradient id="SVGID_2_" gradientUnits="userSpaceOnUse" x1="4.2746" y1="44.7955" x2="4.2746" y2="21.1289" gradientTransform="matrix(1 -8.533533e-03 8.533533e-03 1 8.7303 -5.2917)">
		<stop  offset="1.241987e-03" style="stop-color:#FB993C"/>
		<stop  offset="0.9988" style="stop-color:#FFC58E"/>
	</linearGradient>
	<circle class="st1" cx="13.3" cy="27.6" r="11.8"/>
	<g>
		<path class="st2" d="M56.8,24c0-1.6-1.3-2.9-2.9-2.9H17.4c-1.6,0-2.9,1.3-2.9,2.9v10.5c7.2,0,10.8,2.5,14.3,4.9
			c3.6,2.5,7,4.8,14,4.8c7,0,10.4-2.3,14-4.8v21.2c0,0,0,0,0,0V24z"/>
		<path class="st3" d="M42.8,44.1c-7,0-10.4-2.3-14-4.8c-3.5-2.4-7.2-4.9-14.3-4.9v26.1c0,1.6,1.3,2.9,2.9,2.9h36.5
			c1.6,0,2.9-1.3,2.9-2.9V39.3C53.2,41.8,49.8,44.1,42.8,44.1z"/>
	</g>
	<linearGradient id="SVGID_3_" gradientUnits="userSpaceOnUse" x1="14.813" y1="21.7363" x2="56.4963" y2="62.7142">
		<stop  offset="0" style="stop-color:#F2F2F2"/>
		<stop  offset="1" style="stop-color:#B3B3B3"/>
	</linearGradient>
	<path class="st4" d="M53.9,63.9H17.4c-1.9,0-3.4-1.5-3.4-3.4V24c0-1.9,1.5-3.4,3.4-3.4h36.5c1.9,0,3.4,1.5,3.4,3.4v36.5
		C57.3,62.4,55.8,63.9,53.9,63.9z M17.4,21.6c-1.3,0-2.4,1.1-2.4,2.4v36.5c0,1.3,1.1,2.4,2.4,2.4h36.5c1.3,0,2.4-1.1,2.4-2.4V24
		c0-1.3-1.1-2.4-2.4-2.4H17.4z"/>
	<g>
		<linearGradient id="SVGID_4_" gradientUnits="userSpaceOnUse" x1="23.7194" y1="30.2651" x2="47.5899" y2="30.0614">
			<stop  offset="0" style="stop-color:#8F31C1"/>
			<stop  offset="1" style="stop-color:#F56FAE"/>
		</linearGradient>
		<rect x="23.7" y="28.4" class="st5" width="23.8" height="3.5"/>
		<linearGradient id="SVGID_5_" gradientUnits="userSpaceOnUse" x1="24.2026" y1="36.3896" x2="47.1066" y2="36.1941">
			<stop  offset="0" style="stop-color:#8F31C1"/>
			<stop  offset="1" style="stop-color:#F56FAE"/>
		</linearGradient>
		<rect x="24.2" y="35.8" class="st6" width="22.9" height="0.9"/>
		<linearGradient id="SVGID_6_" gradientUnits="userSpaceOnUse" x1="20.2029" y1="39.1737" x2="51.1064" y2="38.91">
			<stop  offset="0" style="stop-color:#8F31C1"/>
			<stop  offset="1" style="stop-color:#F56FAE"/>
		</linearGradient>
		<rect x="20.2" y="38.6" class="st7" width="30.9" height="0.9"/>
		<linearGradient id="SVGID_7_" gradientUnits="userSpaceOnUse" x1="22.2028" y1="41.9066" x2="49.1065" y2="41.677">
			<stop  offset="0" style="stop-color:#8F31C1"/>
			<stop  offset="1" style="stop-color:#F56FAE"/>
		</linearGradient>
		<rect x="22.2" y="41.3" class="st8" width="26.9" height="0.9"/>
		<linearGradient id="SVGID_8_" gradientUnits="userSpaceOnUse" x1="28.2023" y1="44.6054" x2="43.1069" y2="44.4782">
			<stop  offset="0" style="stop-color:#8F31C1"/>
			<stop  offset="1" style="stop-color:#F56FAE"/>
		</linearGradient>
		<rect x="28.2" y="44.1" class="st9" width="14.9" height="0.9"/>
		<linearGradient id="SVGID_9_" gradientUnits="userSpaceOnUse" x1="25.466" y1="52.8547" x2="45.8432" y2="52.6808">
			<stop  offset="0" style="stop-color:#FC7D76"/>
			<stop  offset="1" style="stop-color:#FCAC60"/>
		</linearGradient>
		<path class="st10" d="M45.2,56.1H26.1c-0.4,0-0.6-0.3-0.6-0.6v-5.3c0-0.4,0.3-0.6,0.6-0.6h19.1c0.4,0,0.6,0.3,0.6,0.6v5.3
			C45.8,55.8,45.5,56.1,45.2,56.1z"/>
	</g>
	<g>
		
			<linearGradient id="SVGID_10_" gradientUnits="userSpaceOnUse" x1="29.6778" y1="87.9807" x2="29.6778" y2="58.2771" gradientTransform="matrix(1 -8.533533e-03 8.533533e-03 1 8.7303 -5.2917)">
			<stop  offset="0" style="stop-color:#749CFC"/>
			<stop  offset="1" style="stop-color:#AB5AF1"/>
		</linearGradient>
		<path class="st11" d="M44.6,60.2c-0.5,0-0.9,0.3-1.2,0.6c0,0,0,0,0,0c-0.1,0.1-0.3,0.1-0.3,0.1C43,60.8,43,60.7,43,60.7l0,0
			c-0.1-0.7-0.7-1.2-1.4-1.2c-0.5,0-1,0.3-1.3,0.8c0,0,0,0,0,0c-0.3,0.4-0.5,0-0.5,0l0,0c-0.2-0.5-0.7-0.8-1.3-0.8
			c-0.5,0-0.9,0.3-1.2,0.7c0,0,0,0,0,0C37.3,60.4,37,60.5,37,60l-0.1-5.9c0-0.8-0.7-1.4-1.4-1.4c-0.8,0-1.4,0.7-1.4,1.4l0.1,6.5
			c-0.6-1.1-2.2-0.8-2.2-0.8s0.1,6.9,0.1,8.3s1.9,3.2,2.8,4c0.9,0.8,1.1,1.5,1.1,2.4c0,0.6,0,0.2,0,0.7c-0.1,1.5-1,5.1-1,5.1
			c0,1.2,2.2,2.1,4.9,2.1s4.9-1,4.9-2.2c0,0-1-4.1-1.1-5.1c0,0,0,0,0-0.1c0-0.1,0-0.2,0-0.6c0-1.3,0.5-1.6,1.6-3.7s1-5.2,1-5.2
			l0-3.9C46.1,60.9,45.4,60.2,44.6,60.2z"/>
		<g>
			
				<linearGradient id="SVGID_11_" gradientUnits="userSpaceOnUse" x1="33.7823" y1="87.6896" x2="33.7823" y2="74.286" gradientTransform="matrix(1 -8.533533e-03 8.533533e-03 1 8.7303 -5.2917)">
				<stop  offset="0" style="stop-color:#5485FB"/>
				<stop  offset="1" style="stop-color:#CB99FF"/>
			</linearGradient>
			<path class="st12" d="M44.6,80.3c0,0-1-4.1-1.1-5.1c0,0,0,0,0-0.1c0-0.1,0-0.2,0-0.6c0-1.3,0.5-1.6,1.6-3.7c0.8-1.6,1-3.8,1-4.7
				c-0.7,1.6-1.9,3.9-3.7,5.1c-3,1.9-1.2,7-1.3,8.4c-0.1,1,0.3,2-0.8,2.9C42.7,82.2,44.6,81.3,44.6,80.3z"/>
		</g>
	</g>
	<linearGradient id="SVGID_12_" gradientUnits="userSpaceOnUse" x1="28.2023" y1="44.6054" x2="43.1069" y2="44.4782">
		<stop  offset="0" style="stop-color:#8F31C1"/>
		<stop  offset="1" style="stop-color:#F56FAE"/>
	</linearGradient>
	<rect x="28.2" y="44.1" class="st13" width="14.9" height="0.9"/>
</g>
</svg>
