<?xml version="1.0" encoding="utf-8"?>
<!-- Generator: Adobe Illustrator 21.1.0, SVG Export Plug-In . SVG Version: 6.00 Build 0)  -->
<svg version="1.1" id="Layer_1" xmlns="http://www.w3.org/2000/svg" xmlns:xlink="http://www.w3.org/1999/xlink" x="0px" y="0px"
	 viewBox="0 0 75 83.8" style="enable-background:new 0 0 75 83.8;" xml:space="preserve">
<style type="text/css">
	.st0{fill:url(#SVGID_1_);}
	.st1{fill:url(#SVGID_2_);}
	.st2{fill:#FFFFFF;}
	.st3{fill:#F6F6F6;}
	.st4{fill:url(#SVGID_3_);}
	.st5{fill:url(#SVGID_4_);}
	.st6{fill:#6BF9EB;}
	.st7{fill:url(#SVGID_5_);}
	.st8{clip-path:url(#SVGID_7_);fill:#FCAC60;}
	.st9{clip-path:url(#SVGID_9_);fill:#FCAC60;}
	.st10{clip-path:url(#SVGID_11_);fill:#FCAD61;}
	.st11{clip-path:url(#SVGID_13_);fill:#FCAD62;}
	.st12{clip-path:url(#SVGID_15_);fill:#FCAE63;}
	.st13{clip-path:url(#SVGID_17_);fill:#FCAE64;}
	.st14{clip-path:url(#SVGID_19_);fill:#FCAF65;}
	.st15{clip-path:url(#SVGID_21_);fill:#FCAF66;}
	.st16{clip-path:url(#SVGID_23_);fill:#FCB067;}
	.st17{clip-path:url(#SVGID_25_);fill:#FDB068;}
	.st18{clip-path:url(#SVGID_27_);fill:#FDB169;}
	.st19{clip-path:url(#SVGID_29_);fill:#FDB26A;}
	.st20{clip-path:url(#SVGID_31_);fill:#FDB26B;}
	.st21{clip-path:url(#SVGID_33_);fill:#FDB36C;}
	.st22{clip-path:url(#SVGID_35_);fill:#FDB36D;}
	.st23{clip-path:url(#SVGID_37_);fill:#FDB46E;}
	.st24{clip-path:url(#SVGID_39_);fill:#FDB46F;}
	.st25{clip-path:url(#SVGID_41_);fill:#FDB570;}
	.st26{clip-path:url(#SVGID_43_);fill:#FDB571;}
	.st27{clip-path:url(#SVGID_45_);fill:#FDB672;}
	.st28{clip-path:url(#SVGID_47_);fill:#FDB773;}
	.st29{clip-path:url(#SVGID_49_);fill:#FDB774;}
	.st30{clip-path:url(#SVGID_51_);fill:#FDB875;}
	.st31{clip-path:url(#SVGID_53_);fill:#FDB876;}
	.st32{clip-path:url(#SVGID_55_);fill:#FEB978;}
	.st33{clip-path:url(#SVGID_57_);fill:#FEB979;}
	.st34{clip-path:url(#SVGID_59_);fill:#FEBA7A;}
	.st35{clip-path:url(#SVGID_61_);fill:#FEBA7B;}
	.st36{clip-path:url(#SVGID_63_);fill:#FEBB7C;}
	.st37{clip-path:url(#SVGID_65_);fill:#FEBC7D;}
	.st38{clip-path:url(#SVGID_67_);fill:#FEBC7E;}
	.st39{clip-path:url(#SVGID_69_);fill:#FEBD7F;}
	.st40{clip-path:url(#SVGID_71_);fill:#FEBD80;}
	.st41{clip-path:url(#SVGID_73_);fill:#FEBE81;}
	.st42{clip-path:url(#SVGID_75_);fill:#FEBE82;}
	.st43{clip-path:url(#SVGID_77_);fill:#FEBF83;}
	.st44{clip-path:url(#SVGID_79_);fill:#FEBF84;}
	.st45{clip-path:url(#SVGID_81_);fill:#FEC085;}
	.st46{clip-path:url(#SVGID_83_);fill:#FEC186;}
	.st47{clip-path:url(#SVGID_85_);fill:#FFC187;}
	.st48{clip-path:url(#SVGID_87_);fill:#FFC288;}
	.st49{clip-path:url(#SVGID_89_);fill:#FFC289;}
	.st50{clip-path:url(#SVGID_91_);fill:#FFC38A;}
	.st51{clip-path:url(#SVGID_93_);fill:#FFC38B;}
	.st52{clip-path:url(#SVGID_95_);fill:#FFC48C;}
	.st53{clip-path:url(#SVGID_97_);fill:#FFC48D;}
	.st54{clip-path:url(#SVGID_99_);fill:#FFC58E;}
	.st55{clip-path:url(#SVGID_101_);fill:#FFC58E;}
	.st56{fill:url(#SVGID_102_);}
	.st57{fill:url(#SVGID_103_);}
	.st58{fill:url(#SVGID_104_);}
	.st59{fill:url(#SVGID_105_);}
	.st60{fill:url(#SVGID_106_);}
	.st61{fill:url(#SVGID_107_);}
	.st62{clip-path:url(#SVGID_109_);fill:#FCAC60;}
	.st63{clip-path:url(#SVGID_111_);fill:#FCAC60;}
	.st64{clip-path:url(#SVGID_113_);fill:#FCAD61;}
	.st65{clip-path:url(#SVGID_115_);fill:#FCAD62;}
	.st66{clip-path:url(#SVGID_117_);fill:#FCAE63;}
	.st67{clip-path:url(#SVGID_119_);fill:#FCAE64;}
	.st68{clip-path:url(#SVGID_121_);fill:#FCAF65;}
	.st69{clip-path:url(#SVGID_123_);fill:#FCAF66;}
	.st70{clip-path:url(#SVGID_125_);fill:#FCB067;}
	.st71{clip-path:url(#SVGID_127_);fill:#FDB068;}
	.st72{clip-path:url(#SVGID_129_);fill:#FDB169;}
	.st73{clip-path:url(#SVGID_131_);fill:#FDB26A;}
	.st74{clip-path:url(#SVGID_133_);fill:#FDB26B;}
	.st75{clip-path:url(#SVGID_135_);fill:#FDB36C;}
	.st76{clip-path:url(#SVGID_137_);fill:#FDB36D;}
	.st77{clip-path:url(#SVGID_139_);fill:#FDB46E;}
	.st78{clip-path:url(#SVGID_141_);fill:#FDB46F;}
	.st79{clip-path:url(#SVGID_143_);fill:#FDB570;}
	.st80{clip-path:url(#SVGID_145_);fill:#FDB571;}
	.st81{clip-path:url(#SVGID_147_);fill:#FDB672;}
	.st82{clip-path:url(#SVGID_149_);fill:#FDB773;}
	.st83{clip-path:url(#SVGID_151_);fill:#FDB774;}
	.st84{clip-path:url(#SVGID_153_);fill:#FDB875;}
	.st85{clip-path:url(#SVGID_155_);fill:#FDB876;}
	.st86{clip-path:url(#SVGID_157_);fill:#FEB978;}
	.st87{clip-path:url(#SVGID_159_);fill:#FEB979;}
	.st88{clip-path:url(#SVGID_161_);fill:#FEBA7A;}
	.st89{clip-path:url(#SVGID_163_);fill:#FEBA7B;}
	.st90{clip-path:url(#SVGID_165_);fill:#FEBB7C;}
	.st91{clip-path:url(#SVGID_167_);fill:#FEBC7D;}
	.st92{clip-path:url(#SVGID_169_);fill:#FEBC7E;}
	.st93{clip-path:url(#SVGID_171_);fill:#FEBD7F;}
	.st94{clip-path:url(#SVGID_173_);fill:#FEBD80;}
	.st95{clip-path:url(#SVGID_175_);fill:#FEBE81;}
	.st96{clip-path:url(#SVGID_177_);fill:#FEBE82;}
	.st97{clip-path:url(#SVGID_179_);fill:#FEBF83;}
	.st98{clip-path:url(#SVGID_181_);fill:#FEBF84;}
	.st99{clip-path:url(#SVGID_183_);fill:#FEC085;}
	.st100{clip-path:url(#SVGID_185_);fill:#FEC186;}
	.st101{clip-path:url(#SVGID_187_);fill:#FFC187;}
	.st102{clip-path:url(#SVGID_189_);fill:#FFC288;}
	.st103{clip-path:url(#SVGID_191_);fill:#FFC289;}
	.st104{clip-path:url(#SVGID_193_);fill:#FFC38A;}
	.st105{clip-path:url(#SVGID_195_);fill:#FFC38B;}
	.st106{clip-path:url(#SVGID_197_);fill:#FFC48C;}
	.st107{clip-path:url(#SVGID_199_);fill:#FFC48D;}
	.st108{clip-path:url(#SVGID_201_);fill:#FFC58E;}
	.st109{clip-path:url(#SVGID_203_);fill:#FFC58E;}
	.st110{fill:url(#SVGID_204_);}
	.st111{fill:url(#SVGID_205_);}
	.st112{fill:url(#SVGID_206_);}
	.st113{fill:url(#SVGID_207_);}
</style>
<g>
	<g>
		<linearGradient id="SVGID_1_" gradientUnits="userSpaceOnUse" x1="28.442" y1="11.6373" x2="47.442" y2="70.6373">
			<stop  offset="0" style="stop-color:#F56FAE"/>
			<stop  offset="1" style="stop-color:#FB6874"/>
		</linearGradient>
		<path class="st0" d="M66.3,52.4L66.3,52.4L66.3,52.4c0-1.6-0.6-3.1-1.8-4.3l-16-16l17.3-17.3c1.1-1.1,0.3-3-1.3-3H28.1l0,0l0,0
			l0,0l0,0l0,0v0v0l-16,16c-1.2,1.2-1.8,2.8-1.8,4.3c0,1.6,0.6,3.1,1.8,4.3l16,16v0l0,0h0L10.8,69.7c-1.1,1.1-0.3,3,1.3,3h36.4l0,0
			v0l0,0l0,0l0,0v0l16-16c0.3-0.3,0.6-0.6,0.8-1C65.9,54.8,66.3,53.6,66.3,52.4L66.3,52.4C66.3,52.4,66.3,52.4,66.3,52.4L66.3,52.4z
			"/>
	</g>
	
		<linearGradient id="SVGID_2_" gradientUnits="userSpaceOnUse" x1="8.4064" y1="73.9623" x2="8.4064" y2="50.2956" gradientTransform="matrix(1 -8.533533e-03 8.533533e-03 1 8.7293 -5.296)">
		<stop  offset="0" style="stop-color:#0E48B5"/>
		<stop  offset="1" style="stop-color:#30A2E3"/>
	</linearGradient>
	<circle class="st1" cx="17.7" cy="56.8" r="11.8"/>
	<g>
		<g>
			<g>
				<path class="st2" d="M67.8,21.9c0-1.6-1.2-2.9-2.6-2.9l-48.4,0c-1.4,0-2.6,1.3-2.6,2.9l0,7.3c9.1,0,13.7,3.5,18.1,7
					c4.6,3.5,8.9,6.8,17.7,6.8c8.8,0,13.1-3.3,17.7-6.8l0,21c0,0,0,0,0,0L67.8,21.9z"/>
				<path class="st3" d="M50.1,43.1c-8.8,0-13.1-3.3-17.7-6.8c-4.5-3.4-9.1-7-18.1-8.3l0,28.9c0,3.6,0.8,4.5,2.8,4.5l48,0
					c2,0,2.8-0.9,2.8-3.1l0-22C63.2,39.7,58.9,43.1,50.1,43.1z"/>
			</g>
			<linearGradient id="SVGID_3_" gradientUnits="userSpaceOnUse" x1="17.3618" y1="16.7943" x2="64.8086" y2="63.4381">
				<stop  offset="0" style="stop-color:#F2F2F2"/>
				<stop  offset="1" style="stop-color:#B3B3B3"/>
			</linearGradient>
			<path class="st4" d="M65,61.8H17.2c-1.9,0-3.4-1.5-3.4-3.4V21.9c0-1.9,1.5-3.4,3.4-3.4H65c1.9,0,3.4,1.5,3.4,3.4v36.5
				C68.4,60.3,66.9,61.8,65,61.8z M17.2,19.4c-1.3,0-2.4,1.1-2.4,2.4v36.5c0,1.3,1.1,2.4,2.4,2.4H65c1.3,0,2.4-1.1,2.4-2.4V21.9
				c0-1.3-1.1-2.4-2.4-2.4H17.2z"/>
		</g>
		<g>
			<g>
				<g>
					
						<linearGradient id="SVGID_4_" gradientUnits="userSpaceOnUse" x1="28.9224" y1="721.9404" x2="28.9224" y2="707.6003" gradientTransform="matrix(1 0 0 1 0 -682)">
						<stop  offset="0" style="stop-color:#AB5AF1"/>
						<stop  offset="1" style="stop-color:#749CFC"/>
					</linearGradient>
					<path class="st5" d="M19.2,25.6h19.5c0.8,0,1.4,0.6,1.4,1.4v11.5c0,0.8-0.6,1.4-1.4,1.4H19.2c-0.8,0-1.4-0.6-1.4-1.4V27
						C17.8,26.3,18.4,25.6,19.2,25.6z"/>
					<g>
						<path class="st6" d="M27.3,35.3l-1.5-1.9c-0.2-0.2-0.7-0.2-0.9,0l-5.4,6.6h4.1L27.3,35.3z"/>
						
							<linearGradient id="SVGID_5_" gradientUnits="userSpaceOnUse" x1="23.219" y1="717.441" x2="40.1012" y2="717.441" gradientTransform="matrix(1 0 0 1 0 -682)">
							<stop  offset="0" style="stop-color:#34D1D9"/>
							<stop  offset="1" style="stop-color:#5AECE5"/>
						</linearGradient>
						<path class="st7" d="M30.5,31.1l-3.2,4.2l-3.7,4.7h15l-7.1-8.8C31.2,30.9,30.8,30.9,30.5,31.1z"/>
					</g>
					<g>
						<g>
							<g>
								<g>
									<defs>
										<circle id="SVGID_6_" cx="25.3" cy="29.6" r="1.8"/>
									</defs>
									<clipPath id="SVGID_7_">
										<use xlink:href="#SVGID_6_"  style="overflow:visible;"/>
									</clipPath>
									<polygon class="st8" points="23.4,31.5 27.1,31.5 27.1,31.5 									"/>
								</g>
							</g>
							<g>
								<g>
									<defs>
										<circle id="SVGID_8_" cx="25.3" cy="29.6" r="1.8"/>
									</defs>
									<clipPath id="SVGID_9_">
										<use xlink:href="#SVGID_8_"  style="overflow:visible;"/>
									</clipPath>
									<rect x="23.4" y="31.4" class="st9" width="3.7" height="0.1"/>
								</g>
							</g>
							<g>
								<g>
									<defs>
										<circle id="SVGID_10_" cx="25.3" cy="29.6" r="1.8"/>
									</defs>
									<clipPath id="SVGID_11_">
										<use xlink:href="#SVGID_10_"  style="overflow:visible;"/>
									</clipPath>
									<rect x="23.4" y="31.3" class="st10" width="3.7" height="0.1"/>
								</g>
							</g>
							<g>
								<g>
									<defs>
										<circle id="SVGID_12_" cx="25.3" cy="29.6" r="1.8"/>
									</defs>
									<clipPath id="SVGID_13_">
										<use xlink:href="#SVGID_12_"  style="overflow:visible;"/>
									</clipPath>
									<rect x="23.4" y="31.2" class="st11" width="3.7" height="0.1"/>
								</g>
							</g>
							<g>
								<g>
									<defs>
										<circle id="SVGID_14_" cx="25.3" cy="29.6" r="1.8"/>
									</defs>
									<clipPath id="SVGID_15_">
										<use xlink:href="#SVGID_14_"  style="overflow:visible;"/>
									</clipPath>
									<rect x="23.4" y="31.1" class="st12" width="3.7" height="0.1"/>
								</g>
							</g>
							<g>
								<g>
									<defs>
										<circle id="SVGID_16_" cx="25.3" cy="29.6" r="1.8"/>
									</defs>
									<clipPath id="SVGID_17_">
										<use xlink:href="#SVGID_16_"  style="overflow:visible;"/>
									</clipPath>
									<rect x="23.4" y="31" class="st13" width="3.7" height="0.1"/>
								</g>
							</g>
							<g>
								<g>
									<defs>
										<circle id="SVGID_18_" cx="25.3" cy="29.6" r="1.8"/>
									</defs>
									<clipPath id="SVGID_19_">
										<use xlink:href="#SVGID_18_"  style="overflow:visible;"/>
									</clipPath>
									<rect x="23.4" y="31" class="st14" width="3.7" height="0.1"/>
								</g>
							</g>
							<g>
								<g>
									<defs>
										<circle id="SVGID_20_" cx="25.3" cy="29.6" r="1.8"/>
									</defs>
									<clipPath id="SVGID_21_">
										<use xlink:href="#SVGID_20_"  style="overflow:visible;"/>
									</clipPath>
									<rect x="23.4" y="30.9" class="st15" width="3.7" height="0.1"/>
								</g>
							</g>
							<g>
								<g>
									<defs>
										<circle id="SVGID_22_" cx="25.3" cy="29.6" r="1.8"/>
									</defs>
									<clipPath id="SVGID_23_">
										<use xlink:href="#SVGID_22_"  style="overflow:visible;"/>
									</clipPath>
									<rect x="23.4" y="30.8" class="st16" width="3.7" height="0.1"/>
								</g>
							</g>
							<g>
								<g>
									<defs>
										<circle id="SVGID_24_" cx="25.3" cy="29.6" r="1.8"/>
									</defs>
									<clipPath id="SVGID_25_">
										<use xlink:href="#SVGID_24_"  style="overflow:visible;"/>
									</clipPath>
									<rect x="23.4" y="30.7" class="st17" width="3.7" height="0.1"/>
								</g>
							</g>
							<g>
								<g>
									<defs>
										<circle id="SVGID_26_" cx="25.3" cy="29.6" r="1.8"/>
									</defs>
									<clipPath id="SVGID_27_">
										<use xlink:href="#SVGID_26_"  style="overflow:visible;"/>
									</clipPath>
									<rect x="23.4" y="30.6" class="st18" width="3.7" height="0.1"/>
								</g>
							</g>
							<g>
								<g>
									<defs>
										<circle id="SVGID_28_" cx="25.3" cy="29.6" r="1.8"/>
									</defs>
									<clipPath id="SVGID_29_">
										<use xlink:href="#SVGID_28_"  style="overflow:visible;"/>
									</clipPath>
									<rect x="23.4" y="30.5" class="st19" width="3.7" height="0.1"/>
								</g>
							</g>
							<g>
								<g>
									<defs>
										<circle id="SVGID_30_" cx="25.3" cy="29.6" r="1.8"/>
									</defs>
									<clipPath id="SVGID_31_">
										<use xlink:href="#SVGID_30_"  style="overflow:visible;"/>
									</clipPath>
									<rect x="23.4" y="30.5" class="st20" width="3.7" height="0.1"/>
								</g>
							</g>
							<g>
								<g>
									<defs>
										<circle id="SVGID_32_" cx="25.3" cy="29.6" r="1.8"/>
									</defs>
									<clipPath id="SVGID_33_">
										<use xlink:href="#SVGID_32_"  style="overflow:visible;"/>
									</clipPath>
									<rect x="23.4" y="30.4" class="st21" width="3.7" height="0.1"/>
								</g>
							</g>
							<g>
								<g>
									<defs>
										<circle id="SVGID_34_" cx="25.3" cy="29.6" r="1.8"/>
									</defs>
									<clipPath id="SVGID_35_">
										<use xlink:href="#SVGID_34_"  style="overflow:visible;"/>
									</clipPath>
									<rect x="23.4" y="30.3" class="st22" width="3.7" height="0.1"/>
								</g>
							</g>
							<g>
								<g>
									<defs>
										<circle id="SVGID_36_" cx="25.3" cy="29.6" r="1.8"/>
									</defs>
									<clipPath id="SVGID_37_">
										<use xlink:href="#SVGID_36_"  style="overflow:visible;"/>
									</clipPath>
									<rect x="23.4" y="30.2" class="st23" width="3.7" height="0.1"/>
								</g>
							</g>
							<g>
								<g>
									<defs>
										<circle id="SVGID_38_" cx="25.3" cy="29.6" r="1.8"/>
									</defs>
									<clipPath id="SVGID_39_">
										<use xlink:href="#SVGID_38_"  style="overflow:visible;"/>
									</clipPath>
									<rect x="23.4" y="30.1" class="st24" width="3.7" height="0.1"/>
								</g>
							</g>
							<g>
								<g>
									<defs>
										<circle id="SVGID_40_" cx="25.3" cy="29.6" r="1.8"/>
									</defs>
									<clipPath id="SVGID_41_">
										<use xlink:href="#SVGID_40_"  style="overflow:visible;"/>
									</clipPath>
									<rect x="23.4" y="30" class="st25" width="3.7" height="0.1"/>
								</g>
							</g>
							<g>
								<g>
									<defs>
										<circle id="SVGID_42_" cx="25.3" cy="29.6" r="1.8"/>
									</defs>
									<clipPath id="SVGID_43_">
										<use xlink:href="#SVGID_42_"  style="overflow:visible;"/>
									</clipPath>
									<rect x="23.4" y="30" class="st26" width="3.7" height="0.1"/>
								</g>
							</g>
							<g>
								<g>
									<defs>
										<circle id="SVGID_44_" cx="25.3" cy="29.6" r="1.8"/>
									</defs>
									<clipPath id="SVGID_45_">
										<use xlink:href="#SVGID_44_"  style="overflow:visible;"/>
									</clipPath>
									<rect x="23.4" y="30" class="st27" width="3.7" height="0.1"/>
								</g>
							</g>
							<g>
								<g>
									<defs>
										<circle id="SVGID_46_" cx="25.3" cy="29.6" r="1.8"/>
									</defs>
									<clipPath id="SVGID_47_">
										<use xlink:href="#SVGID_46_"  style="overflow:visible;"/>
									</clipPath>
									<rect x="23.4" y="29.9" class="st28" width="3.7" height="0.1"/>
								</g>
							</g>
							<g>
								<g>
									<defs>
										<circle id="SVGID_48_" cx="25.3" cy="29.6" r="1.8"/>
									</defs>
									<clipPath id="SVGID_49_">
										<use xlink:href="#SVGID_48_"  style="overflow:visible;"/>
									</clipPath>
									<rect x="23.4" y="29.8" class="st29" width="3.7" height="0.1"/>
								</g>
							</g>
							<g>
								<g>
									<defs>
										<circle id="SVGID_50_" cx="25.3" cy="29.6" r="1.8"/>
									</defs>
									<clipPath id="SVGID_51_">
										<use xlink:href="#SVGID_50_"  style="overflow:visible;"/>
									</clipPath>
									<rect x="23.4" y="29.7" class="st30" width="3.7" height="0.1"/>
								</g>
							</g>
							<g>
								<g>
									<defs>
										<circle id="SVGID_52_" cx="25.3" cy="29.6" r="1.8"/>
									</defs>
									<clipPath id="SVGID_53_">
										<use xlink:href="#SVGID_52_"  style="overflow:visible;"/>
									</clipPath>
									<rect x="23.4" y="29.6" class="st31" width="3.7" height="0.1"/>
								</g>
							</g>
							<g>
								<g>
									<defs>
										<circle id="SVGID_54_" cx="25.3" cy="29.6" r="1.8"/>
									</defs>
									<clipPath id="SVGID_55_">
										<use xlink:href="#SVGID_54_"  style="overflow:visible;"/>
									</clipPath>
									<rect x="23.4" y="29.5" class="st32" width="3.7" height="0.1"/>
								</g>
							</g>
							<g>
								<g>
									<defs>
										<circle id="SVGID_56_" cx="25.3" cy="29.6" r="1.8"/>
									</defs>
									<clipPath id="SVGID_57_">
										<use xlink:href="#SVGID_56_"  style="overflow:visible;"/>
									</clipPath>
									<rect x="23.4" y="29.5" class="st33" width="3.7" height="0.1"/>
								</g>
							</g>
							<g>
								<g>
									<defs>
										<circle id="SVGID_58_" cx="25.3" cy="29.6" r="1.8"/>
									</defs>
									<clipPath id="SVGID_59_">
										<use xlink:href="#SVGID_58_"  style="overflow:visible;"/>
									</clipPath>
									<rect x="23.4" y="29.4" class="st34" width="3.7" height="0.1"/>
								</g>
							</g>
							<g>
								<g>
									<defs>
										<circle id="SVGID_60_" cx="25.3" cy="29.6" r="1.8"/>
									</defs>
									<clipPath id="SVGID_61_">
										<use xlink:href="#SVGID_60_"  style="overflow:visible;"/>
									</clipPath>
									<rect x="23.4" y="29.3" class="st35" width="3.7" height="0.1"/>
								</g>
							</g>
							<g>
								<g>
									<defs>
										<circle id="SVGID_62_" cx="25.3" cy="29.6" r="1.8"/>
									</defs>
									<clipPath id="SVGID_63_">
										<use xlink:href="#SVGID_62_"  style="overflow:visible;"/>
									</clipPath>
									<rect x="23.4" y="29.2" class="st36" width="3.7" height="0.1"/>
								</g>
							</g>
							<g>
								<g>
									<defs>
										<circle id="SVGID_64_" cx="25.3" cy="29.6" r="1.8"/>
									</defs>
									<clipPath id="SVGID_65_">
										<use xlink:href="#SVGID_64_"  style="overflow:visible;"/>
									</clipPath>
									<rect x="23.4" y="29.1" class="st37" width="3.7" height="0.1"/>
								</g>
							</g>
							<g>
								<g>
									<defs>
										<circle id="SVGID_66_" cx="25.3" cy="29.6" r="1.8"/>
									</defs>
									<clipPath id="SVGID_67_">
										<use xlink:href="#SVGID_66_"  style="overflow:visible;"/>
									</clipPath>
									<rect x="23.4" y="29.1" class="st38" width="3.7" height="0.1"/>
								</g>
							</g>
							<g>
								<g>
									<defs>
										<circle id="SVGID_68_" cx="25.3" cy="29.6" r="1.8"/>
									</defs>
									<clipPath id="SVGID_69_">
										<use xlink:href="#SVGID_68_"  style="overflow:visible;"/>
									</clipPath>
									<rect x="23.4" y="29" class="st39" width="3.7" height="0.1"/>
								</g>
							</g>
							<g>
								<g>
									<defs>
										<circle id="SVGID_70_" cx="25.3" cy="29.6" r="1.8"/>
									</defs>
									<clipPath id="SVGID_71_">
										<use xlink:href="#SVGID_70_"  style="overflow:visible;"/>
									</clipPath>
									<rect x="23.4" y="28.9" class="st40" width="3.7" height="0.1"/>
								</g>
							</g>
							<g>
								<g>
									<defs>
										<circle id="SVGID_72_" cx="25.3" cy="29.6" r="1.8"/>
									</defs>
									<clipPath id="SVGID_73_">
										<use xlink:href="#SVGID_72_"  style="overflow:visible;"/>
									</clipPath>
									<rect x="23.4" y="28.8" class="st41" width="3.7" height="0.1"/>
								</g>
							</g>
							<g>
								<g>
									<defs>
										<circle id="SVGID_74_" cx="25.3" cy="29.6" r="1.8"/>
									</defs>
									<clipPath id="SVGID_75_">
										<use xlink:href="#SVGID_74_"  style="overflow:visible;"/>
									</clipPath>
									<rect x="23.4" y="28.7" class="st42" width="3.7" height="0.1"/>
								</g>
							</g>
							<g>
								<g>
									<defs>
										<circle id="SVGID_76_" cx="25.3" cy="29.6" r="1.8"/>
									</defs>
									<clipPath id="SVGID_77_">
										<use xlink:href="#SVGID_76_"  style="overflow:visible;"/>
									</clipPath>
									<rect x="23.4" y="28.6" class="st43" width="3.7" height="0.1"/>
								</g>
							</g>
							<g>
								<g>
									<defs>
										<circle id="SVGID_78_" cx="25.3" cy="29.6" r="1.8"/>
									</defs>
									<clipPath id="SVGID_79_">
										<use xlink:href="#SVGID_78_"  style="overflow:visible;"/>
									</clipPath>
									<rect x="23.4" y="28.6" class="st44" width="3.7" height="0.1"/>
								</g>
							</g>
							<g>
								<g>
									<defs>
										<circle id="SVGID_80_" cx="25.3" cy="29.6" r="1.8"/>
									</defs>
									<clipPath id="SVGID_81_">
										<use xlink:href="#SVGID_80_"  style="overflow:visible;"/>
									</clipPath>
									<rect x="23.4" y="28.5" class="st45" width="3.7" height="0.1"/>
								</g>
							</g>
							<g>
								<g>
									<defs>
										<circle id="SVGID_82_" cx="25.3" cy="29.6" r="1.8"/>
									</defs>
									<clipPath id="SVGID_83_">
										<use xlink:href="#SVGID_82_"  style="overflow:visible;"/>
									</clipPath>
									<rect x="23.4" y="28.4" class="st46" width="3.7" height="0.1"/>
								</g>
							</g>
							<g>
								<g>
									<defs>
										<circle id="SVGID_84_" cx="25.3" cy="29.6" r="1.8"/>
									</defs>
									<clipPath id="SVGID_85_">
										<use xlink:href="#SVGID_84_"  style="overflow:visible;"/>
									</clipPath>
									<rect x="23.4" y="28.3" class="st47" width="3.7" height="0.1"/>
								</g>
							</g>
							<g>
								<g>
									<defs>
										<circle id="SVGID_86_" cx="25.3" cy="29.6" r="1.8"/>
									</defs>
									<clipPath id="SVGID_87_">
										<use xlink:href="#SVGID_86_"  style="overflow:visible;"/>
									</clipPath>
									<rect x="23.4" y="28.2" class="st48" width="3.7" height="0.1"/>
								</g>
							</g>
							<g>
								<g>
									<defs>
										<circle id="SVGID_88_" cx="25.3" cy="29.6" r="1.8"/>
									</defs>
									<clipPath id="SVGID_89_">
										<use xlink:href="#SVGID_88_"  style="overflow:visible;"/>
									</clipPath>
									<rect x="23.4" y="28.1" class="st49" width="3.7" height="0.1"/>
								</g>
							</g>
							<g>
								<g>
									<defs>
										<circle id="SVGID_90_" cx="25.3" cy="29.6" r="1.8"/>
									</defs>
									<clipPath id="SVGID_91_">
										<use xlink:href="#SVGID_90_"  style="overflow:visible;"/>
									</clipPath>
									<rect x="23.4" y="28.1" class="st50" width="3.7" height="0.1"/>
								</g>
							</g>
							<g>
								<g>
									<defs>
										<circle id="SVGID_92_" cx="25.3" cy="29.6" r="1.8"/>
									</defs>
									<clipPath id="SVGID_93_">
										<use xlink:href="#SVGID_92_"  style="overflow:visible;"/>
									</clipPath>
									<rect x="23.4" y="28" class="st51" width="3.7" height="0.1"/>
								</g>
							</g>
							<g>
								<g>
									<defs>
										<circle id="SVGID_94_" cx="25.3" cy="29.6" r="1.8"/>
									</defs>
									<clipPath id="SVGID_95_">
										<use xlink:href="#SVGID_94_"  style="overflow:visible;"/>
									</clipPath>
									<rect x="23.4" y="27.9" class="st52" width="3.7" height="0.1"/>
								</g>
							</g>
							<g>
								<g>
									<defs>
										<circle id="SVGID_96_" cx="25.3" cy="29.6" r="1.8"/>
									</defs>
									<clipPath id="SVGID_97_">
										<use xlink:href="#SVGID_96_"  style="overflow:visible;"/>
									</clipPath>
									<rect x="23.4" y="27.8" class="st53" width="3.7" height="0.1"/>
								</g>
							</g>
							<g>
								<g>
									<defs>
										<circle id="SVGID_98_" cx="25.3" cy="29.6" r="1.8"/>
									</defs>
									<clipPath id="SVGID_99_">
										<use xlink:href="#SVGID_98_"  style="overflow:visible;"/>
									</clipPath>
									<rect x="23.4" y="27.8" class="st54" width="3.7" height="0.1"/>
								</g>
							</g>
							<g>
								<g>
									<defs>
										<circle id="SVGID_100_" cx="25.3" cy="29.6" r="1.8"/>
									</defs>
									<clipPath id="SVGID_101_">
										<use xlink:href="#SVGID_100_"  style="overflow:visible;"/>
									</clipPath>
									<polygon class="st55" points="23.4,27.7 27.1,27.7 27.1,27.7 									"/>
								</g>
							</g>
						</g>
					</g>
				</g>
				<g>
					<linearGradient id="SVGID_102_" gradientUnits="userSpaceOnUse" x1="17.774" y1="43.7266" x2="38.9481" y2="43.5459">
						<stop  offset="0" style="stop-color:#0E48B5"/>
						<stop  offset="1" style="stop-color:#30A2E3"/>
					</linearGradient>
					<rect x="17.8" y="42.5" class="st56" width="21.2" height="2.2"/>
					<linearGradient id="SVGID_103_" gradientUnits="userSpaceOnUse" x1="17.7811" y1="46.4736" x2="38.941" y2="46.293">
						<stop  offset="0" style="stop-color:#0E48B5"/>
						<stop  offset="1" style="stop-color:#30A2E3"/>
					</linearGradient>
					<rect x="17.8" y="46.1" class="st57" width="21.2" height="0.6"/>
					<linearGradient id="SVGID_104_" gradientUnits="userSpaceOnUse" x1="17.7811" y1="48.2205" x2="40.0636" y2="48.0304">
						<stop  offset="0" style="stop-color:#0E48B5"/>
						<stop  offset="1" style="stop-color:#30A2E3"/>
					</linearGradient>
					<rect x="17.8" y="47.8" class="st58" width="22.3" height="0.6"/>
					<linearGradient id="SVGID_105_" gradientUnits="userSpaceOnUse" x1="17.7734" y1="52.8749" x2="28.6766" y2="52.7819">
						<stop  offset="1.241987e-03" style="stop-color:#FB993C"/>
						<stop  offset="0.9988" style="stop-color:#FFC58E"/>
					</linearGradient>
					<path class="st59" d="M28,54.6h-9.6c-0.3,0-0.6-0.3-0.6-0.6v-2.3c0-0.3,0.3-0.6,0.6-0.6H28c0.3,0,0.6,0.3,0.6,0.6V54
						C28.7,54.3,28.4,54.6,28,54.6z"/>
				</g>
			</g>
			<g>
				<g>
					
						<linearGradient id="SVGID_106_" gradientUnits="userSpaceOnUse" x1="53.2481" y1="721.9404" x2="53.2481" y2="707.6003" gradientTransform="matrix(1 0 0 1 0 -682)">
						<stop  offset="0" style="stop-color:#AB5AF1"/>
						<stop  offset="1" style="stop-color:#749CFC"/>
					</linearGradient>
					<path class="st60" d="M43.5,25.6H63c0.8,0,1.4,0.6,1.4,1.4v11.5c0,0.8-0.6,1.4-1.4,1.4H43.5c-0.8,0-1.4-0.6-1.4-1.4V27
						C42.1,26.3,42.7,25.6,43.5,25.6z"/>
					<g>
						<path class="st6" d="M51.6,35.3l-1.5-1.9c-0.2-0.2-0.7-0.2-0.9,0l-5.4,6.6h4.1L51.6,35.3z"/>
						
							<linearGradient id="SVGID_107_" gradientUnits="userSpaceOnUse" x1="47.5447" y1="717.441" x2="64.4269" y2="717.441" gradientTransform="matrix(1 0 0 1 0 -682)">
							<stop  offset="0" style="stop-color:#34D1D9"/>
							<stop  offset="1" style="stop-color:#5AECE5"/>
						</linearGradient>
						<path class="st61" d="M54.8,31.1l-3.2,4.2l-3.7,4.7h15l-7.1-8.8C55.5,30.9,55.1,30.9,54.8,31.1z"/>
					</g>
					<g>
						<g>
							<g>
								<g>
									<defs>
										<circle id="SVGID_108_" cx="49.6" cy="29.6" r="1.8"/>
									</defs>
									<clipPath id="SVGID_109_">
										<use xlink:href="#SVGID_108_"  style="overflow:visible;"/>
									</clipPath>
									<polygon class="st62" points="47.8,31.5 51.4,31.5 51.4,31.5 									"/>
								</g>
							</g>
							<g>
								<g>
									<defs>
										<circle id="SVGID_110_" cx="49.6" cy="29.6" r="1.8"/>
									</defs>
									<clipPath id="SVGID_111_">
										<use xlink:href="#SVGID_110_"  style="overflow:visible;"/>
									</clipPath>
									<rect x="47.8" y="31.4" class="st63" width="3.7" height="0.1"/>
								</g>
							</g>
							<g>
								<g>
									<defs>
										<circle id="SVGID_112_" cx="49.6" cy="29.6" r="1.8"/>
									</defs>
									<clipPath id="SVGID_113_">
										<use xlink:href="#SVGID_112_"  style="overflow:visible;"/>
									</clipPath>
									<rect x="47.8" y="31.3" class="st64" width="3.7" height="0.1"/>
								</g>
							</g>
							<g>
								<g>
									<defs>
										<circle id="SVGID_114_" cx="49.6" cy="29.6" r="1.8"/>
									</defs>
									<clipPath id="SVGID_115_">
										<use xlink:href="#SVGID_114_"  style="overflow:visible;"/>
									</clipPath>
									<rect x="47.8" y="31.2" class="st65" width="3.7" height="0.1"/>
								</g>
							</g>
							<g>
								<g>
									<defs>
										<circle id="SVGID_116_" cx="49.6" cy="29.6" r="1.8"/>
									</defs>
									<clipPath id="SVGID_117_">
										<use xlink:href="#SVGID_116_"  style="overflow:visible;"/>
									</clipPath>
									<rect x="47.8" y="31.1" class="st66" width="3.7" height="0.1"/>
								</g>
							</g>
							<g>
								<g>
									<defs>
										<circle id="SVGID_118_" cx="49.6" cy="29.6" r="1.8"/>
									</defs>
									<clipPath id="SVGID_119_">
										<use xlink:href="#SVGID_118_"  style="overflow:visible;"/>
									</clipPath>
									<rect x="47.8" y="31" class="st67" width="3.7" height="0.1"/>
								</g>
							</g>
							<g>
								<g>
									<defs>
										<circle id="SVGID_120_" cx="49.6" cy="29.6" r="1.8"/>
									</defs>
									<clipPath id="SVGID_121_">
										<use xlink:href="#SVGID_120_"  style="overflow:visible;"/>
									</clipPath>
									<rect x="47.8" y="31" class="st68" width="3.7" height="0.1"/>
								</g>
							</g>
							<g>
								<g>
									<defs>
										<circle id="SVGID_122_" cx="49.6" cy="29.6" r="1.8"/>
									</defs>
									<clipPath id="SVGID_123_">
										<use xlink:href="#SVGID_122_"  style="overflow:visible;"/>
									</clipPath>
									<rect x="47.8" y="30.9" class="st69" width="3.7" height="0.1"/>
								</g>
							</g>
							<g>
								<g>
									<defs>
										<circle id="SVGID_124_" cx="49.6" cy="29.6" r="1.8"/>
									</defs>
									<clipPath id="SVGID_125_">
										<use xlink:href="#SVGID_124_"  style="overflow:visible;"/>
									</clipPath>
									<rect x="47.8" y="30.8" class="st70" width="3.7" height="0.1"/>
								</g>
							</g>
							<g>
								<g>
									<defs>
										<circle id="SVGID_126_" cx="49.6" cy="29.6" r="1.8"/>
									</defs>
									<clipPath id="SVGID_127_">
										<use xlink:href="#SVGID_126_"  style="overflow:visible;"/>
									</clipPath>
									<rect x="47.8" y="30.7" class="st71" width="3.7" height="0.1"/>
								</g>
							</g>
							<g>
								<g>
									<defs>
										<circle id="SVGID_128_" cx="49.6" cy="29.6" r="1.8"/>
									</defs>
									<clipPath id="SVGID_129_">
										<use xlink:href="#SVGID_128_"  style="overflow:visible;"/>
									</clipPath>
									<rect x="47.8" y="30.6" class="st72" width="3.7" height="0.1"/>
								</g>
							</g>
							<g>
								<g>
									<defs>
										<circle id="SVGID_130_" cx="49.6" cy="29.6" r="1.8"/>
									</defs>
									<clipPath id="SVGID_131_">
										<use xlink:href="#SVGID_130_"  style="overflow:visible;"/>
									</clipPath>
									<rect x="47.8" y="30.5" class="st73" width="3.7" height="0.1"/>
								</g>
							</g>
							<g>
								<g>
									<defs>
										<circle id="SVGID_132_" cx="49.6" cy="29.6" r="1.8"/>
									</defs>
									<clipPath id="SVGID_133_">
										<use xlink:href="#SVGID_132_"  style="overflow:visible;"/>
									</clipPath>
									<rect x="47.8" y="30.5" class="st74" width="3.7" height="0.1"/>
								</g>
							</g>
							<g>
								<g>
									<defs>
										<circle id="SVGID_134_" cx="49.6" cy="29.6" r="1.8"/>
									</defs>
									<clipPath id="SVGID_135_">
										<use xlink:href="#SVGID_134_"  style="overflow:visible;"/>
									</clipPath>
									<rect x="47.8" y="30.4" class="st75" width="3.7" height="0.1"/>
								</g>
							</g>
							<g>
								<g>
									<defs>
										<circle id="SVGID_136_" cx="49.6" cy="29.6" r="1.8"/>
									</defs>
									<clipPath id="SVGID_137_">
										<use xlink:href="#SVGID_136_"  style="overflow:visible;"/>
									</clipPath>
									<rect x="47.8" y="30.3" class="st76" width="3.7" height="0.1"/>
								</g>
							</g>
							<g>
								<g>
									<defs>
										<circle id="SVGID_138_" cx="49.6" cy="29.6" r="1.8"/>
									</defs>
									<clipPath id="SVGID_139_">
										<use xlink:href="#SVGID_138_"  style="overflow:visible;"/>
									</clipPath>
									<rect x="47.8" y="30.2" class="st77" width="3.7" height="0.1"/>
								</g>
							</g>
							<g>
								<g>
									<defs>
										<circle id="SVGID_140_" cx="49.6" cy="29.6" r="1.8"/>
									</defs>
									<clipPath id="SVGID_141_">
										<use xlink:href="#SVGID_140_"  style="overflow:visible;"/>
									</clipPath>
									<rect x="47.8" y="30.1" class="st78" width="3.7" height="0.1"/>
								</g>
							</g>
							<g>
								<g>
									<defs>
										<circle id="SVGID_142_" cx="49.6" cy="29.6" r="1.8"/>
									</defs>
									<clipPath id="SVGID_143_">
										<use xlink:href="#SVGID_142_"  style="overflow:visible;"/>
									</clipPath>
									<rect x="47.8" y="30" class="st79" width="3.7" height="0.1"/>
								</g>
							</g>
							<g>
								<g>
									<defs>
										<circle id="SVGID_144_" cx="49.6" cy="29.6" r="1.8"/>
									</defs>
									<clipPath id="SVGID_145_">
										<use xlink:href="#SVGID_144_"  style="overflow:visible;"/>
									</clipPath>
									<rect x="47.8" y="30" class="st80" width="3.7" height="0.1"/>
								</g>
							</g>
							<g>
								<g>
									<defs>
										<circle id="SVGID_146_" cx="49.6" cy="29.6" r="1.8"/>
									</defs>
									<clipPath id="SVGID_147_">
										<use xlink:href="#SVGID_146_"  style="overflow:visible;"/>
									</clipPath>
									<rect x="47.8" y="30" class="st81" width="3.7" height="0.1"/>
								</g>
							</g>
							<g>
								<g>
									<defs>
										<circle id="SVGID_148_" cx="49.6" cy="29.6" r="1.8"/>
									</defs>
									<clipPath id="SVGID_149_">
										<use xlink:href="#SVGID_148_"  style="overflow:visible;"/>
									</clipPath>
									<rect x="47.8" y="29.9" class="st82" width="3.7" height="0.1"/>
								</g>
							</g>
							<g>
								<g>
									<defs>
										<circle id="SVGID_150_" cx="49.6" cy="29.6" r="1.8"/>
									</defs>
									<clipPath id="SVGID_151_">
										<use xlink:href="#SVGID_150_"  style="overflow:visible;"/>
									</clipPath>
									<rect x="47.8" y="29.8" class="st83" width="3.7" height="0.1"/>
								</g>
							</g>
							<g>
								<g>
									<defs>
										<circle id="SVGID_152_" cx="49.6" cy="29.6" r="1.8"/>
									</defs>
									<clipPath id="SVGID_153_">
										<use xlink:href="#SVGID_152_"  style="overflow:visible;"/>
									</clipPath>
									<rect x="47.8" y="29.7" class="st84" width="3.7" height="0.1"/>
								</g>
							</g>
							<g>
								<g>
									<defs>
										<circle id="SVGID_154_" cx="49.6" cy="29.6" r="1.8"/>
									</defs>
									<clipPath id="SVGID_155_">
										<use xlink:href="#SVGID_154_"  style="overflow:visible;"/>
									</clipPath>
									<rect x="47.8" y="29.6" class="st85" width="3.7" height="0.1"/>
								</g>
							</g>
							<g>
								<g>
									<defs>
										<circle id="SVGID_156_" cx="49.6" cy="29.6" r="1.8"/>
									</defs>
									<clipPath id="SVGID_157_">
										<use xlink:href="#SVGID_156_"  style="overflow:visible;"/>
									</clipPath>
									<rect x="47.8" y="29.5" class="st86" width="3.7" height="0.1"/>
								</g>
							</g>
							<g>
								<g>
									<defs>
										<circle id="SVGID_158_" cx="49.6" cy="29.6" r="1.8"/>
									</defs>
									<clipPath id="SVGID_159_">
										<use xlink:href="#SVGID_158_"  style="overflow:visible;"/>
									</clipPath>
									<rect x="47.8" y="29.5" class="st87" width="3.7" height="0.1"/>
								</g>
							</g>
							<g>
								<g>
									<defs>
										<circle id="SVGID_160_" cx="49.6" cy="29.6" r="1.8"/>
									</defs>
									<clipPath id="SVGID_161_">
										<use xlink:href="#SVGID_160_"  style="overflow:visible;"/>
									</clipPath>
									<rect x="47.8" y="29.4" class="st88" width="3.7" height="0.1"/>
								</g>
							</g>
							<g>
								<g>
									<defs>
										<circle id="SVGID_162_" cx="49.6" cy="29.6" r="1.8"/>
									</defs>
									<clipPath id="SVGID_163_">
										<use xlink:href="#SVGID_162_"  style="overflow:visible;"/>
									</clipPath>
									<rect x="47.8" y="29.3" class="st89" width="3.7" height="0.1"/>
								</g>
							</g>
							<g>
								<g>
									<defs>
										<circle id="SVGID_164_" cx="49.6" cy="29.6" r="1.8"/>
									</defs>
									<clipPath id="SVGID_165_">
										<use xlink:href="#SVGID_164_"  style="overflow:visible;"/>
									</clipPath>
									<rect x="47.8" y="29.2" class="st90" width="3.7" height="0.1"/>
								</g>
							</g>
							<g>
								<g>
									<defs>
										<circle id="SVGID_166_" cx="49.6" cy="29.6" r="1.8"/>
									</defs>
									<clipPath id="SVGID_167_">
										<use xlink:href="#SVGID_166_"  style="overflow:visible;"/>
									</clipPath>
									<rect x="47.8" y="29.1" class="st91" width="3.7" height="0.1"/>
								</g>
							</g>
							<g>
								<g>
									<defs>
										<circle id="SVGID_168_" cx="49.6" cy="29.6" r="1.8"/>
									</defs>
									<clipPath id="SVGID_169_">
										<use xlink:href="#SVGID_168_"  style="overflow:visible;"/>
									</clipPath>
									<rect x="47.8" y="29.1" class="st92" width="3.7" height="0.1"/>
								</g>
							</g>
							<g>
								<g>
									<defs>
										<circle id="SVGID_170_" cx="49.6" cy="29.6" r="1.8"/>
									</defs>
									<clipPath id="SVGID_171_">
										<use xlink:href="#SVGID_170_"  style="overflow:visible;"/>
									</clipPath>
									<rect x="47.8" y="29" class="st93" width="3.7" height="0.1"/>
								</g>
							</g>
							<g>
								<g>
									<defs>
										<circle id="SVGID_172_" cx="49.6" cy="29.6" r="1.8"/>
									</defs>
									<clipPath id="SVGID_173_">
										<use xlink:href="#SVGID_172_"  style="overflow:visible;"/>
									</clipPath>
									<rect x="47.8" y="28.9" class="st94" width="3.7" height="0.1"/>
								</g>
							</g>
							<g>
								<g>
									<defs>
										<circle id="SVGID_174_" cx="49.6" cy="29.6" r="1.8"/>
									</defs>
									<clipPath id="SVGID_175_">
										<use xlink:href="#SVGID_174_"  style="overflow:visible;"/>
									</clipPath>
									<rect x="47.8" y="28.8" class="st95" width="3.7" height="0.1"/>
								</g>
							</g>
							<g>
								<g>
									<defs>
										<circle id="SVGID_176_" cx="49.6" cy="29.6" r="1.8"/>
									</defs>
									<clipPath id="SVGID_177_">
										<use xlink:href="#SVGID_176_"  style="overflow:visible;"/>
									</clipPath>
									<rect x="47.8" y="28.7" class="st96" width="3.7" height="0.1"/>
								</g>
							</g>
							<g>
								<g>
									<defs>
										<circle id="SVGID_178_" cx="49.6" cy="29.6" r="1.8"/>
									</defs>
									<clipPath id="SVGID_179_">
										<use xlink:href="#SVGID_178_"  style="overflow:visible;"/>
									</clipPath>
									<rect x="47.8" y="28.6" class="st97" width="3.7" height="0.1"/>
								</g>
							</g>
							<g>
								<g>
									<defs>
										<circle id="SVGID_180_" cx="49.6" cy="29.6" r="1.8"/>
									</defs>
									<clipPath id="SVGID_181_">
										<use xlink:href="#SVGID_180_"  style="overflow:visible;"/>
									</clipPath>
									<rect x="47.8" y="28.6" class="st98" width="3.7" height="0.1"/>
								</g>
							</g>
							<g>
								<g>
									<defs>
										<circle id="SVGID_182_" cx="49.6" cy="29.6" r="1.8"/>
									</defs>
									<clipPath id="SVGID_183_">
										<use xlink:href="#SVGID_182_"  style="overflow:visible;"/>
									</clipPath>
									<rect x="47.8" y="28.5" class="st99" width="3.7" height="0.1"/>
								</g>
							</g>
							<g>
								<g>
									<defs>
										<circle id="SVGID_184_" cx="49.6" cy="29.6" r="1.8"/>
									</defs>
									<clipPath id="SVGID_185_">
										<use xlink:href="#SVGID_184_"  style="overflow:visible;"/>
									</clipPath>
									<rect x="47.8" y="28.4" class="st100" width="3.7" height="0.1"/>
								</g>
							</g>
							<g>
								<g>
									<defs>
										<circle id="SVGID_186_" cx="49.6" cy="29.6" r="1.8"/>
									</defs>
									<clipPath id="SVGID_187_">
										<use xlink:href="#SVGID_186_"  style="overflow:visible;"/>
									</clipPath>
									<rect x="47.8" y="28.3" class="st101" width="3.7" height="0.1"/>
								</g>
							</g>
							<g>
								<g>
									<defs>
										<circle id="SVGID_188_" cx="49.6" cy="29.6" r="1.8"/>
									</defs>
									<clipPath id="SVGID_189_">
										<use xlink:href="#SVGID_188_"  style="overflow:visible;"/>
									</clipPath>
									<rect x="47.8" y="28.2" class="st102" width="3.7" height="0.1"/>
								</g>
							</g>
							<g>
								<g>
									<defs>
										<circle id="SVGID_190_" cx="49.6" cy="29.6" r="1.8"/>
									</defs>
									<clipPath id="SVGID_191_">
										<use xlink:href="#SVGID_190_"  style="overflow:visible;"/>
									</clipPath>
									<rect x="47.8" y="28.1" class="st103" width="3.7" height="0.1"/>
								</g>
							</g>
							<g>
								<g>
									<defs>
										<circle id="SVGID_192_" cx="49.6" cy="29.6" r="1.8"/>
									</defs>
									<clipPath id="SVGID_193_">
										<use xlink:href="#SVGID_192_"  style="overflow:visible;"/>
									</clipPath>
									<rect x="47.8" y="28.1" class="st104" width="3.7" height="0.1"/>
								</g>
							</g>
							<g>
								<g>
									<defs>
										<circle id="SVGID_194_" cx="49.6" cy="29.6" r="1.8"/>
									</defs>
									<clipPath id="SVGID_195_">
										<use xlink:href="#SVGID_194_"  style="overflow:visible;"/>
									</clipPath>
									<rect x="47.8" y="28" class="st105" width="3.7" height="0.1"/>
								</g>
							</g>
							<g>
								<g>
									<defs>
										<circle id="SVGID_196_" cx="49.6" cy="29.6" r="1.8"/>
									</defs>
									<clipPath id="SVGID_197_">
										<use xlink:href="#SVGID_196_"  style="overflow:visible;"/>
									</clipPath>
									<rect x="47.8" y="27.9" class="st106" width="3.7" height="0.1"/>
								</g>
							</g>
							<g>
								<g>
									<defs>
										<circle id="SVGID_198_" cx="49.6" cy="29.6" r="1.8"/>
									</defs>
									<clipPath id="SVGID_199_">
										<use xlink:href="#SVGID_198_"  style="overflow:visible;"/>
									</clipPath>
									<rect x="47.8" y="27.8" class="st107" width="3.7" height="0.1"/>
								</g>
							</g>
							<g>
								<g>
									<defs>
										<circle id="SVGID_200_" cx="49.6" cy="29.6" r="1.8"/>
									</defs>
									<clipPath id="SVGID_201_">
										<use xlink:href="#SVGID_200_"  style="overflow:visible;"/>
									</clipPath>
									<rect x="47.8" y="27.8" class="st108" width="3.7" height="0.1"/>
								</g>
							</g>
							<g>
								<g>
									<defs>
										<circle id="SVGID_202_" cx="49.6" cy="29.6" r="1.8"/>
									</defs>
									<clipPath id="SVGID_203_">
										<use xlink:href="#SVGID_202_"  style="overflow:visible;"/>
									</clipPath>
									<polygon class="st109" points="47.8,27.7 51.4,27.7 51.4,27.7 									"/>
								</g>
							</g>
						</g>
					</g>
				</g>
				<g>
					<linearGradient id="SVGID_204_" gradientUnits="userSpaceOnUse" x1="42.0997" y1="43.7266" x2="63.2739" y2="43.5459">
						<stop  offset="0" style="stop-color:#0E48B5"/>
						<stop  offset="1" style="stop-color:#30A2E3"/>
					</linearGradient>
					<rect x="42.1" y="42.5" class="st110" width="21.2" height="2.2"/>
					<linearGradient id="SVGID_205_" gradientUnits="userSpaceOnUse" x1="42.1068" y1="46.4736" x2="63.2668" y2="46.293">
						<stop  offset="0" style="stop-color:#0E48B5"/>
						<stop  offset="1" style="stop-color:#30A2E3"/>
					</linearGradient>
					<rect x="42.1" y="46.1" class="st111" width="21.2" height="0.6"/>
					<linearGradient id="SVGID_206_" gradientUnits="userSpaceOnUse" x1="42.1069" y1="48.2205" x2="64.3893" y2="48.0304">
						<stop  offset="0" style="stop-color:#0E48B5"/>
						<stop  offset="1" style="stop-color:#30A2E3"/>
					</linearGradient>
					<rect x="42.1" y="47.8" class="st112" width="22.3" height="0.6"/>
					<linearGradient id="SVGID_207_" gradientUnits="userSpaceOnUse" x1="42.0991" y1="52.8749" x2="53.0024" y2="52.7819">
						<stop  offset="1.241987e-03" style="stop-color:#FB993C"/>
						<stop  offset="0.9988" style="stop-color:#FFC58E"/>
					</linearGradient>
					<path class="st113" d="M52.4,54.6h-9.6c-0.3,0-0.6-0.3-0.6-0.6v-2.3c0-0.3,0.3-0.6,0.6-0.6h9.6c0.3,0,0.6,0.3,0.6,0.6V54
						C53,54.3,52.7,54.6,52.4,54.6z"/>
				</g>
			</g>
		</g>
	</g>
</g>
</svg>
