<?xml version="1.0" encoding="utf-8"?>
<!-- Generator: Adobe Illustrator 21.1.0, SVG Export Plug-In . SVG Version: 6.00 Build 0)  -->
<svg version="1.1" id="Layer_1" xmlns="http://www.w3.org/2000/svg" xmlns:xlink="http://www.w3.org/1999/xlink" x="0px" y="0px"
	 viewBox="0 0 75 83.8" style="enable-background:new 0 0 75 83.8;" xml:space="preserve">
<style type="text/css">
	.st0{fill:url(#SVGID_1_);}
	.st1{fill:url(#SVGID_2_);}
	.st2{fill:url(#SVGID_3_);}
	.st3{fill:url(#SVGID_4_);}
	.st4{fill:url(#SVGID_5_);}
	.st5{fill:url(#SVGID_6_);}
	.st6{fill:url(#SVGID_7_);}
	.st7{fill:url(#SVGID_8_);}
	.st8{fill:#FFC58E;}
	.st9{fill:url(#SVGID_9_);}
</style>
<g>
	<g>
		<linearGradient id="SVGID_1_" gradientUnits="userSpaceOnUse" x1="28.441" y1="11.4548" x2="47.441" y2="70.4548">
			<stop  offset="0" style="stop-color:#F56FAE"/>
			<stop  offset="1" style="stop-color:#FB6874"/>
		</linearGradient>
		<path class="st0" d="M66.3,52.2L66.3,52.2L66.3,52.2c0-1.6-0.6-3.1-1.8-4.3l-16-16l17.3-17.3c1.1-1.1,0.3-3-1.3-3H28.1l0,0l0,0
			l0,0l0,0l0,0v0v0l-16,16c-1.2,1.2-1.8,2.8-1.8,4.3c0,1.6,0.6,3.1,1.8,4.3l16,16v0l0,0h0L10.8,69.5c-1.1,1.1-0.3,3,1.3,3h36.4l0,0
			v0l0,0l0,0l0,0v0l16-16c0.3-0.3,0.6-0.6,0.8-1C65.9,54.6,66.3,53.4,66.3,52.2L66.3,52.2C66.3,52.2,66.3,52.2,66.3,52.2L66.3,52.2z
			"/>
	</g>
	<g>
		
			<linearGradient id="SVGID_2_" gradientUnits="userSpaceOnUse" x1="-446.7936" y1="283.375" x2="-439.3215" y2="283.3113" gradientTransform="matrix(0.9239 -0.3827 0.3827 0.9239 324.5577 -365.7417)">
			<stop  offset="0" style="stop-color:#0E48B5"/>
			<stop  offset="1" style="stop-color:#30A2E3"/>
		</linearGradient>
		<path class="st1" d="M27.4,72.3l-3.5,1.4c-0.4,0.2-0.9,0-1.1-0.4l-5.2-12.6c-0.2-0.4,0-0.9,0.4-1.1l3.5-1.4c0.4-0.2,0.9,0,1.1,0.4
			l5.2,12.6C28.1,71.6,27.9,72.1,27.4,72.3z"/>
		<linearGradient id="SVGID_3_" gradientUnits="userSpaceOnUse" x1="21.7499" y1="65.0692" x2="30.3653" y2="65.0692">
			<stop  offset="0" style="stop-color:#749CFC"/>
			<stop  offset="1" style="stop-color:#AB5AF1"/>
		</linearGradient>
		<path class="st2" d="M29.9,65.7c0-0.1,0-0.2-0.1-0.4c0,0,0,0,0,0c0,0,0,0,0-0.1c0-0.1-0.1-0.2-0.1-0.2c0,0,0-0.1-0.1-0.1
			c-0.2-0.3-0.6-0.5-1-0.5c-0.5-0.1-0.2-0.5-0.2-0.5l0,0c0.3-0.4,0.4-1,0.2-1.5c-0.2-0.5-0.6-0.8-1.1-0.8c0,0,0,0,0,0
			c0,0-0.3,0-0.4-0.2c-0.1-0.2,0.1-0.3,0.1-0.3c0.4-0.4,0.5-1,0.3-1.5c-0.3-0.7-1.2-1.1-1.9-0.8L25,59.1c0,0-0.1,0-0.1,0L22.6,60
			c-0.7,0.3-1.1,1.1-0.8,1.9c0.2,0.6,0.8,0.9,1.4,0.9c0,0,0,0,0,0c0.1,0,0.2,0,0.2,0.1c0,0.1-0.2,0.2-0.2,0.2
			c-0.7,0.3-1.1,1.1-0.8,1.9l0,0c0.3,0.7,1,1,1.7,0.8l0,0c0,0,0.2-0.1,0.2,0c0,0.1-0.1,0.1-0.1,0.2c0,0,0,0,0,0
			c-0.5,0.4-0.8,1.1-0.5,1.7c0.3,0.7,1,1,1.7,0.8l0,0c0,0,0.2,0,0.2,0c0,0.1-0.2,0.2-0.2,0.2l0,0c-0.6,0.4-0.9,1.1-0.6,1.8
			c0.3,0.7,1.1,1.1,1.9,0.8l2.3-1c0.1,0,0.1-0.1,0.2-0.1l0.2-0.1c0.7-0.3,1.1-1.2,0.8-1.9c-0.2-0.4-0.6-0.7-1-0.8c0,0,0,0,0,0
			c-0.2,0-0.2-0.2-0.2-0.3c0.1-0.1,0.2-0.2,0.2-0.2l0,0c0,0,0,0,0,0c0.1-0.1,0.2-0.2,0.3-0.3c0,0,0.1-0.1,0.1-0.1
			c0.1-0.1,0.1-0.2,0.2-0.3c0,0,0-0.1,0-0.1c0-0.1,0-0.2,0-0.4C29.9,65.7,29.9,65.7,29.9,65.7z"/>
		<g>
			
				<linearGradient id="SVGID_4_" gradientUnits="userSpaceOnUse" x1="-418.0286" y1="267.0006" x2="-407.7072" y2="266.9125" gradientTransform="matrix(0.9239 -0.3827 0.3827 0.9239 324.5577 -365.7417)">
				<stop  offset="1.241987e-03" style="stop-color:#FB993C"/>
				<stop  offset="0.9988" style="stop-color:#FFC58E"/>
			</linearGradient>
			<path class="st3" d="M47.6,37.9c0.9,2.2,0,4.6-1.9,5.4c-2,0.8-4.3-0.3-5.2-2.5c-0.9-2.2,0-4.6,1.9-5.4
				C44.4,34.7,46.7,35.8,47.6,37.9z"/>
			<g>
				<linearGradient id="SVGID_5_" gradientUnits="userSpaceOnUse" x1="11.6952" y1="44.2729" x2="17.7436" y2="58.8777">
					<stop  offset="0" style="stop-color:#0E48B5"/>
					<stop  offset="1" style="stop-color:#30A2E3"/>
				</linearGradient>
				<path class="st4" d="M21.1,57.8l-6.5,2.7c-1,0.4-2.2-0.1-2.6-1.1L7.2,47.9c-0.4-1,0.1-2.2,1.1-2.6l6.5-2.7
					c1-0.4,2.2,0.1,2.6,1.1l4.8,11.6C22.6,56.3,22.2,57.4,21.1,57.8z"/>
				<linearGradient id="SVGID_6_" gradientUnits="userSpaceOnUse" x1="14.1618" y1="41.4776" x2="21.6363" y2="58.787">
					<stop  offset="1.241987e-03" style="stop-color:#FB993C"/>
					<stop  offset="0.9988" style="stop-color:#FFC58E"/>
				</linearGradient>
				<path class="st5" d="M26.6,56.9l-10,4.2c-0.5,0.2-1,0-1.2-0.5L8.8,44.7c-0.2-0.5,0-1,0.5-1.2l10-4.2c0.5-0.2,1,0,1.2,0.5
					l6.6,15.9C27.3,56.2,27.1,56.7,26.6,56.9z"/>
				<linearGradient id="SVGID_7_" gradientUnits="userSpaceOnUse" x1="36.9676" y1="23.5702" x2="49.9496" y2="55.2877">
					<stop  offset="0" style="stop-color:#0E48B5"/>
					<stop  offset="1" style="stop-color:#30A2E3"/>
				</linearGradient>
				<path class="st6" d="M51.4,55L48.8,56c-0.5,0.2-1,0-1.2-0.5L35.2,25.5c-0.2-0.5,0-1,0.5-1.2l2.6-1.1c0.5-0.2,1,0,1.2,0.5
					l12.5,30.1C52.1,54.2,51.9,54.8,51.4,55z"/>
				<g>
					
						<linearGradient id="SVGID_8_" gradientUnits="userSpaceOnUse" x1="-436.1725" y1="267.131" x2="-409.3638" y2="266.9022" gradientTransform="matrix(0.9239 -0.3827 0.3827 0.9239 324.5577 -365.7417)">
						<stop  offset="0" style="stop-color:#F2F2F2"/>
						<stop  offset="1" style="stop-color:#B3B3B3"/>
					</linearGradient>
					<path class="st7" d="M20.5,39.8l6.6,15.9c8.6-3.4,16.8-3.4,20.4-0.4L35.3,25.6C34.8,30.4,29,36.2,20.5,39.8z"/>
				</g>
			</g>
			<g>
				<path class="st8" d="M53.1,36.9c-0.5,0-0.9-0.3-1.1-0.7c-0.2-0.6,0-1.3,0.6-1.5l10.1-4.2c0.6-0.3,1.3,0,1.5,0.6
					c0.2,0.6,0,1.3-0.6,1.5l-10.1,4.2C53.4,36.8,53.2,36.9,53.1,36.9z"/>
			</g>
			<g>
				<g>
					<path class="st8" d="M64,51.3c-0.2,0-0.5-0.1-0.7-0.2l-9-6.1c-0.5-0.4-0.7-1.1-0.3-1.6c0.4-0.5,1.1-0.7,1.6-0.3l9,6.1
						c0.5,0.4,0.7,1.1,0.3,1.6C64.8,51.1,64.4,51.3,64,51.3z"/>
				</g>
				<g>
					<path class="st8" d="M48.5,29.6c-0.1,0-0.1,0-0.2,0c-0.6-0.1-1.1-0.7-0.9-1.4l2.1-10.7c0.1-0.6,0.7-1.1,1.4-0.9
						c0.6,0.1,1.1,0.7,0.9,1.4l-2.1,10.7C49.6,29.2,49.1,29.6,48.5,29.6z"/>
				</g>
			</g>
		</g>
		<g>
			<linearGradient id="SVGID_9_" gradientUnits="userSpaceOnUse" x1="7.0775" y1="67.9214" x2="22.5693" y2="67.9214">
				<stop  offset="0" style="stop-color:#749CFC"/>
				<stop  offset="1" style="stop-color:#AB5AF1"/>
			</linearGradient>
			<path class="st9" d="M22.1,72.7c-0.5,0-0.9,0.1-1.4,0c-2.4-0.2-2.9-0.5-4.1,0c-0.3,0.1-0.5,0.2-0.6,0.2c0,0,0,0-0.1,0
				c-0.9,0.5-4.3,3-4.3,3c-1.1,0.5-2.8-1.2-3.9-3.7s-1.1-4.9,0-5.3c0,0,3.7-0.5,5.1-1c0.4-0.2,0.1,0,0.6-0.3
				c0.8-0.4,1.4-0.8,1.9-1.9c0.3-0.8,0.8-2.1,1.5-3.1c0,0,0.2-0.3,0.4-0.5c0.4-0.4,1-0.5,1.6-0.3l2.2,0.9c0.7,0.3,1.1,1.1,0.8,1.9
				c-0.3,0.7-1.1,1.1-1.9,0.8l-0.8-0.3c-0.6-0.3-0.6,0,0.6,2.9c1.2,2.9,2.7,6.5,2.7,6.5L22.1,72.7z"/>
		</g>
	</g>
</g>
</svg>
