<svg enable-background="new 0 0 75 83.8" viewBox="0 0 75 83.8" xmlns="http://www.w3.org/2000/svg" xmlns:xlink="http://www.w3.org/1999/xlink"><linearGradient id="a" gradientTransform="matrix(1 0 0 -1 0 86)" gradientUnits="userSpaceOnUse" x1="28.5289" x2="48.2399" y1="74.4023" y2="13.1944"><stop offset="0" stop-color="#91d9f9"/><stop offset=".496" stop-color="#30a2e3"/><stop offset=".9483" stop-color="#8859f1"/></linearGradient><clipPath id="b"><circle cx="50.5" cy="43.8" r="4"/></clipPath><clipPath id="c"><circle cx="50.5" cy="43.8" r="4"/></clipPath><clipPath id="d"><circle cx="50.5" cy="43.8" r="4"/></clipPath><clipPath id="e"><circle cx="50.5" cy="43.8" r="4"/></clipPath><clipPath id="f"><circle cx="50.5" cy="43.8" r="4"/></clipPath><clipPath id="g"><circle cx="50.5" cy="43.8" r="4"/></clipPath><clipPath id="h"><circle cx="50.5" cy="43.8" r="4"/></clipPath><clipPath id="i"><circle cx="50.5" cy="43.8" r="4"/></clipPath><clipPath id="j"><circle cx="50.5" cy="43.8" r="4"/></clipPath><clipPath id="k"><circle cx="50.5" cy="43.8" r="4"/></clipPath><clipPath id="l"><circle cx="50.5" cy="43.8" r="4"/></clipPath><clipPath id="m"><circle cx="50.5" cy="43.8" r="4"/></clipPath><clipPath id="n"><circle cx="50.5" cy="43.8" r="4"/></clipPath><clipPath id="o"><circle cx="50.5" cy="43.8" r="4"/></clipPath><clipPath id="p"><circle cx="50.5" cy="43.8" r="4"/></clipPath><clipPath id="q"><circle cx="50.5" cy="43.8" r="4"/></clipPath><clipPath id="r"><circle cx="50.5" cy="43.8" r="4"/></clipPath><clipPath id="s"><circle cx="50.5" cy="43.8" r="4"/></clipPath><clipPath id="t"><circle cx="50.5" cy="43.8" r="4"/></clipPath><clipPath id="u"><circle cx="50.5" cy="43.8" r="4"/></clipPath><clipPath id="v"><circle cx="50.5" cy="43.8" r="4"/></clipPath><clipPath id="w"><circle cx="50.5" cy="43.8" r="4"/></clipPath><clipPath id="x"><circle cx="50.5" cy="43.8" r="4"/></clipPath><clipPath id="y"><circle cx="50.5" cy="43.8" r="4"/></clipPath><clipPath id="z"><circle cx="50.5" cy="43.8" r="4"/></clipPath><clipPath id="A"><circle cx="50.5" cy="43.8" r="4"/></clipPath><clipPath id="B"><circle cx="50.5" cy="43.8" r="4"/></clipPath><clipPath id="C"><circle cx="50.5" cy="43.8" r="4"/></clipPath><clipPath id="D"><circle cx="50.5" cy="43.8" r="4"/></clipPath><clipPath id="E"><circle cx="50.5" cy="43.8" r="4"/></clipPath><clipPath id="F"><circle cx="50.5" cy="43.8" r="4"/></clipPath><clipPath id="G"><circle cx="50.5" cy="43.8" r="4"/></clipPath><clipPath id="H"><circle cx="50.5" cy="43.8" r="4"/></clipPath><clipPath id="I"><circle cx="50.5" cy="43.8" r="4"/></clipPath><clipPath id="J"><circle cx="50.5" cy="43.8" r="4"/></clipPath><clipPath id="K"><circle cx="50.5" cy="43.8" r="4"/></clipPath><clipPath id="L"><circle cx="50.5" cy="43.8" r="4"/></clipPath><clipPath id="M"><circle cx="50.5" cy="43.8" r="4"/></clipPath><clipPath id="N"><circle cx="50.5" cy="43.8" r="4"/></clipPath><clipPath id="O"><circle cx="50.5" cy="43.8" r="4"/></clipPath><clipPath id="P"><circle cx="50.5" cy="43.8" r="4"/></clipPath><clipPath id="Q"><circle cx="50.5" cy="43.8" r="4"/></clipPath><clipPath id="R"><circle cx="50.5" cy="43.8" r="4"/></clipPath><clipPath id="S"><circle cx="50.5" cy="43.8" r="4"/></clipPath><clipPath id="T"><circle cx="50.5" cy="43.8" r="4"/></clipPath><clipPath id="U"><circle cx="50.5" cy="43.8" r="4"/></clipPath><clipPath id="V"><circle cx="50.5" cy="43.8" r="4"/></clipPath><clipPath id="W"><circle cx="50.5" cy="43.8" r="4"/></clipPath><linearGradient id="X" gradientTransform="matrix(1 -.00853353 -.00853353 -1 12.4755 78.417)" gradientUnits="userSpaceOnUse" x1="27.8562" x2="51.522" y1="48.9973" y2="48.7954"><stop offset="0" stop-color="#0e48b5"/><stop offset="1" stop-color="#30a2e3"/></linearGradient><clipPath id="Y"><path d="m10.5 28.5c-1.4 0-2.5 1.1-2.5 2.5v27.4c0 1.4 1.1 2.5 2.5 2.5h55.7c1.4 0 2.5-1.1 2.5-2.5v-27.4c0-1.4-1.1-2.5-2.5-2.5z"/></clipPath><linearGradient id="Z" gradientTransform="matrix(1 0 0 -1 0 86)" gradientUnits="userSpaceOnUse" x1="8" x2="68.7" y1="41.3" y2="41.3"><stop offset="0" stop-color="#f56fae"/><stop offset="1" stop-color="#fb6874"/></linearGradient><linearGradient id="aa" gradientUnits="userSpaceOnUse" x1="53.2013" x2="59.3725" y1="64.7914" y2="41.7604"><stop offset="0" stop-color="#30a2e3"/><stop offset=".09141421" stop-color="#30b5dd"/><stop offset=".2172" stop-color="#2fc7d8"/><stop offset=".368" stop-color="#2fd3d4"/><stop offset=".5666" stop-color="#2fdbd2"/><stop offset="1" stop-color="#2fddd1"/></linearGradient><path d="m66.4 52.4c0-1.6-.6-3.1-1.8-4.3l-16-16 17.3-17.3c1.1-1.1.3-3-1.3-3h-36.4l-16 16c-1.2 1.2-1.8 2.8-1.8 4.3 0 1.6.6 3.1 1.8 4.3l16 16-17.3 17.3c-1.1 1.1-.3 3 1.3 3h36.4l16-16c.3-.3.6-.6.8-1 .6-1 1-2.2 1-3.3z" fill="url(#a)"/><path clip-path="url(#b)" d="m46.6 47.8h7.9z" fill="#fcac60"/><path clip-path="url(#c)" d="m46.6 47.6h7.9v.2h-7.9z" fill="#fcac60"/><path clip-path="url(#d)" d="m46.6 47.5h7.9v.2h-7.9z" fill="#fcad61"/><path clip-path="url(#e)" d="m46.6 47.3h7.9v.2h-7.9z" fill="#fcad62"/><path clip-path="url(#f)" d="m46.6 47.1h7.9v.2h-7.9z" fill="#fcae63"/><path clip-path="url(#g)" d="m46.6 46.9h7.9v.2h-7.9z" fill="#fcae64"/><path clip-path="url(#h)" d="m46.6 46.8h7.9v.2h-7.9z" fill="#fcaf65"/><path clip-path="url(#i)" d="m46.6 46.6h7.9v.2h-7.9z" fill="#fcaf66"/><path clip-path="url(#j)" d="m46.6 46.4h7.9v.2h-7.9z" fill="#fcb067"/><path clip-path="url(#k)" d="m46.6 46.3h7.9v.2h-7.9z" fill="#fdb068"/><path clip-path="url(#l)" d="m46.6 46.1h7.9v.2h-7.9z" fill="#fdb169"/><path clip-path="url(#m)" d="m46.6 45.9h7.9v.2h-7.9z" fill="#fdb26a"/><path clip-path="url(#n)" d="m46.6 45.7h7.9v.2h-7.9z" fill="#fdb26b"/><path clip-path="url(#o)" d="m46.6 45.6h7.9v.2h-7.9z" fill="#fdb36c"/><path clip-path="url(#p)" d="m46.6 45.4h7.9v.2h-7.9z" fill="#fdb36d"/><path clip-path="url(#q)" d="m46.6 45.2h7.9v.2h-7.9z" fill="#fdb46e"/><path clip-path="url(#r)" d="m46.6 45h7.9v.2h-7.9z" fill="#fdb46f"/><path clip-path="url(#s)" d="m46.6 44.9h7.9v.2h-7.9z" fill="#fdb570"/><path clip-path="url(#t)" d="m46.6 44.7h7.9v.2h-7.9z" fill="#fdb571"/><path clip-path="url(#u)" d="m46.6 44.5h7.9v.2h-7.9z" fill="#fdb672"/><path clip-path="url(#v)" d="m46.6 44.4h7.9v.2h-7.9z" fill="#fdb773"/><path clip-path="url(#w)" d="m46.6 44.2h7.9v.2h-7.9z" fill="#fdb774"/><path clip-path="url(#x)" d="m46.6 44h7.9v.2h-7.9z" fill="#fdb875"/><path clip-path="url(#y)" d="m46.6 43.8h7.9v.2h-7.9z" fill="#fdb876"/><path clip-path="url(#z)" d="m46.6 43.7h7.9v.2h-7.9z" fill="#feb978"/><path clip-path="url(#A)" d="m46.6 43.5h7.9v.2h-7.9z" fill="#feb979"/><path clip-path="url(#B)" d="m46.6 43.3h7.9v.2h-7.9z" fill="#feba7a"/><path clip-path="url(#C)" d="m46.6 43.2h7.9v.2h-7.9z" fill="#feba7b"/><path clip-path="url(#D)" d="m46.6 43h7.9v.2h-7.9z" fill="#febb7c"/><path clip-path="url(#E)" d="m46.6 42.8h7.9v.2h-7.9z" fill="#febc7d"/><path clip-path="url(#F)" d="m46.6 42.6h7.9v.2h-7.9z" fill="#febc7e"/><path clip-path="url(#G)" d="m46.6 42.5h7.9v.2h-7.9z" fill="#febd7f"/><path clip-path="url(#H)" d="m46.6 42.3h7.9v.2h-7.9z" fill="#febd80"/><path clip-path="url(#I)" d="m46.6 42.1h7.9v.2h-7.9z" fill="#febe81"/><path clip-path="url(#J)" d="m46.6 42h7.9v.2h-7.9z" fill="#febe82"/><path clip-path="url(#K)" d="m46.6 41.8h7.9v.2h-7.9z" fill="#febf83"/><path clip-path="url(#L)" d="m46.6 41.6h7.9v.2h-7.9z" fill="#febf84"/><path clip-path="url(#M)" d="m46.6 41.4h7.9v.2h-7.9z" fill="#fec085"/><path clip-path="url(#N)" d="m46.6 41.3h7.9v.2h-7.9z" fill="#fec186"/><path clip-path="url(#O)" d="m46.6 41.1h7.9v.2h-7.9z" fill="#ffc187"/><path clip-path="url(#P)" d="m46.6 40.9h7.9v.2h-7.9z" fill="#ffc288"/><path clip-path="url(#Q)" d="m46.6 40.8h7.9v.2h-7.9z" fill="#ffc289"/><path clip-path="url(#R)" d="m46.6 40.6h7.9v.2h-7.9z" fill="#ffc38a"/><path clip-path="url(#S)" d="m46.6 40.4h7.9v.2h-7.9z" fill="#ffc38b"/><path clip-path="url(#T)" d="m46.6 40.2h7.9v.2h-7.9z" fill="#ffc48c"/><path clip-path="url(#U)" d="m46.6 40.1h7.9v.2h-7.9z" fill="#ffc48d"/><path clip-path="url(#V)" d="m46.6 39.9h7.9v.2h-7.9z" fill="#ffc58e"/><path clip-path="url(#W)" d="m46.6 39.9h7.9z" fill="#ffc58e"/><circle cx="51.7" cy="29.2" fill="url(#X)" r="11.8"/><g clip-path="url(#Y)"><path d="m10.5 28.5c-1.4 0-2.5 1.1-2.5 2.5v27.4c0 1.4 1.1 2.5 2.5 2.5h55.7c1.4 0 2.5-1.1 2.5-2.5v-27.4c0-1.4-1.1-2.5-2.5-2.5z" fill="url(#Z)"/></g><path clip-path="url(#Y)" d="m31.1 61.2 11.9-15.2s.3-.4 1-.5 1 .2 1.7 1.1 8 10 8 10v4.5h-22.6z" fill="#6bf9eb"/><path clip-path="url(#Y)" d="m39.6 61.2 15.4-19.5s.4-.5 1.2-.6c.9-.1 1.2.3 2.1 1.4s10.3 12.9 10.3 12.9v5.8z" fill="url(#aa)"/><g fill="#fff"><path d="m15.3 37.4h20.7v2.5h-20.7z"/><path d="m15.3 42.7h20v.7h-20z"/><path d="m15.3 44.7h25.7v.7h-25.7z"/></g><path d="m29.4 53.5h-13.7c-.3 0-.5-.2-.5-.5v-3.8c0-.3.2-.5.5-.5h13.7c.3 0 .5.2.5.5v3.8c-.1.3-.3.5-.5.5z" fill="#ffc58e"/></svg>