<svg viewBox="0 0 63.53 61" xmlns="http://www.w3.org/2000/svg" xmlns:xlink="http://www.w3.org/1999/xlink"><linearGradient id="a" gradientUnits="userSpaceOnUse" x1="17.56" x2="17.56" y1="67.94" y2="44.28"><stop offset="0" stop-color="#fb993c"/><stop offset="1" stop-color="#ffc58e"/></linearGradient><linearGradient id="b" gradientUnits="userSpaceOnUse" x1="29.79" x2="52.78" y1="78.23" y2="7.48"><stop offset="0" stop-color="#0f39c3"/><stop offset="1" stop-color="#fa96d3"/></linearGradient><linearGradient id="c" gradientUnits="userSpaceOnUse" x1="15.9" x2="62.58" y1="42.12" y2="42.12"><stop offset="0" stop-color="#30a2e3"/><stop offset="1" stop-color="#2fddd1"/></linearGradient><circle cx="17.57" cy="56.11" fill="url(#a)" r="11.83" transform="matrix(.99996343 -.00855201 .00855201 .99996343 -6.21 -12.21)"/><path d="m69.26 53a6.08 6.08 0 0 0 -1.78-4.31l-16-16 17.26-17.3a1.78 1.78 0 0 0 -1.26-3h-36.37l-16 16a6.1 6.1 0 0 0 0 8.62l16 16-17.28 17.31a1.78 1.78 0 0 0 1.26 3h36.38l16-16a6.08 6.08 0 0 0 1.79-4.32z" fill="url(#b)" transform="translate(-5.74 -12.36)"/><path d="m18.37 25.94a2.47 2.47 0 0 0 -2.47 2.47v27.41a2.47 2.47 0 0 0 2.47 2.47h41.74a2.47 2.47 0 0 0 2.47-2.47v-27.41a2.47 2.47 0 0 0 -2.47-2.47z" fill="url(#c)" transform="translate(-5.74 -12.36)"/><g fill="#fff"><path d="m15.46 29.6h31.9v.91h-31.9z"/><path d="m15.46 32.35h35.9v.91h-35.9z"/><path d="m15.46 35.1h33.9v.91h-33.9z"/><path d="m15.46 37.85h27.9v.91h-27.9z"/><path d="m15.46 23.95h25.44v2.54h-25.44z"/></g></svg>