<svg enable-background="new 0 0 75 83.8" viewBox="0 0 75 83.8" xmlns="http://www.w3.org/2000/svg" xmlns:xlink="http://www.w3.org/1999/xlink"><linearGradient id="a" gradientTransform="matrix(1 .00858357 -.00858357 1 -8.0751 6.2184)" gradientUnits="userSpaceOnUse" x1="36.5659" x2="55.5659" y1="4.753" y2="63.753"><stop offset="0" stop-color="#91d9f9"/><stop offset=".496" stop-color="#30a2e3"/><stop offset=".9483" stop-color="#8859f1"/></linearGradient><linearGradient id="b" gradientTransform="matrix(-1 0 0 -1 -1708.8046 -2070.1875)" gradientUnits="userSpaceOnUse" x1="-1759.5455" x2="-1759.5455" y1="-2101.3237" y2="-2117.9216"><stop offset="0" stop-color="#fb6874"/><stop offset="1" stop-color="#fc7d76"/></linearGradient><linearGradient id="c" gradientUnits="userSpaceOnUse" x1="29.8082" x2="29.8082" y1="69.0274" y2="45.3604"><stop offset="0" stop-color="#30a2e3"/><stop offset="1" stop-color="#2fddd1"/></linearGradient><linearGradient id="d" gradientTransform="matrix(1 -.00853353 .00853353 1 9.6433 -6.8288)" gradientUnits="userSpaceOnUse" x1="17.8628" x2="17.8628" y1="43.9292" y2="15.2719"><stop offset=".001241987" stop-color="#fb993c"/><stop offset=".9988" stop-color="#ffc58e"/></linearGradient><linearGradient id="e" gradientUnits="userSpaceOnUse" x1="46.2608" x2="46.2608" y1="28.3976" y2="16.8389"><stop offset="0" stop-color="#0e48b5"/><stop offset="1" stop-color="#30a2e3"/></linearGradient><path d="m65.9 52.4c0-1.6-.6-3.1-1.8-4.3l-15.8-16.2 17.4-17.1c1.1-1.1.4-3-1.2-3l-36.4-.3-16.1 15.8c-1.2 1.2-1.8 2.7-1.8 4.3s.6 3.1 1.7 4.3l15.9 16.2-17.4 17.1c-1.1 1.1-.4 3 1.2 3l36.4.4 16.2-15.9c.3-.3.6-.6.8-.9.6-1.1.9-2.2.9-3.4z" fill="url(#a)"/><circle cx="50.7" cy="39.4" fill="url(#b)" r="8.3"/><g fill="#fff"><path d="m50.7 33.4c3.3 0 6 2.7 6 6s-2.7 6-6 6-6-2.7-6-6 2.7-6 6-6zm0 11.1c2.8 0 5-2.3 5-5 0-2.8-2.3-5-5-5-2.8 0-5 2.3-5 5s2.3 5 5 5z"/><path d="m50.7 40.9c-.4 0-.7-.3-.7-.7v-3.9c0-.4.3-.7.7-.7s.7.3.7.7v3.9c0 .4-.3.7-.7.7z"/><circle cx="50.7" cy="42.5" r=".7"/></g><circle cx="29.8" cy="57.2" fill="url(#c)" r="11.8"/><path d="m26.9 62.9c-.2 0-.4-.1-.6-.2l-3.6-3.7c-.3-.3-.3-.9 0-1.2s.9-.3 1.2 0l3.1 3.1 7.8-7.8c.3-.3.9-.3 1.2 0s.3.9 0 1.2l-8.4 8.4c-.2.1-.4.2-.7.2z" fill="#fff"/><circle cx="27.8" cy="22.6" fill="url(#d)" r="14.3"/><path d="m27.8 23.6c-.5 0-1-.4-1-1v-3.9c0-.5.4-1 1-1s1 .4 1 1v3.9c-.1.5-.5 1-1 1z" fill="#fff"/><circle cx="27.8" cy="25.8" fill="#fff" r="1"/><path d="m34.6 30h-13.7c-1.5 0-2.7-1.2-2.7-2.7 0-.5.1-.9.4-1.3l6.9-11.8c0-.1.1-.1.1-.2 0 0 0-.1.1-.1.1-.1.2-.2.3-.3.1 0 .1-.1.1-.1.1 0 .1-.1.2-.1s.1-.1.2-.1.1-.1.2-.1.2-.1.3-.1h.2.4.1.4.2c.1 0 .2.1.3.1s.1.1.2.1.2.1.2.1c.1 0 .1.1.2.1 0 0 .1.1.1.1.1.1.2.2.3.3 0 0 .1.1.1.1.1.1.1.1.2.2l7 11.8c.2.4.4.9.4 1.3 0 1.5-1.2 2.7-2.7 2.7zm-8-15.1-6.8 11.7c-.1.2-.2.4-.2.7 0 .7.6 1.3 1.3 1.3h13.7c.7 0 1.3-.6 1.3-1.3 0-.2-.1-.5-.2-.7l-6.8-11.7c0-.1-.1-.1-.1-.1-.1-.1-.1-.1-.2-.2 0 0-.1 0-.1-.1 0 0-.1 0-.1-.1 0 0-.1 0-.1-.1h-.1c-.1 0-.1 0-.2-.1 0 0 0 0-.1 0s-.2 0-.2 0c-.1 0-.1 0-.2 0h-.1c-.1 0-.1 0-.2.1 0 0-.1 0-.1.1 0 0-.1 0-.1.1 0 0-.1 0-.1.1-.1.1-.1.1-.2.2s-.1.1-.1.1z" fill="#fff"/><circle cx="46.3" cy="22.6" fill="url(#e)" r="5.8"/><path d="m46.3 21.5c.3 0 .5.2.5.5v3c0 .3-.2.5-.5.5s-.5-.2-.5-.5v-3c-.1-.3.2-.5.5-.5z" fill="#fff"/><circle cx="46.3" cy="20.3" fill="#fff" r=".5"/></svg>