<svg enable-background="new 0 0 75 83.8" viewBox="0 0 75 83.8" xmlns="http://www.w3.org/2000/svg" xmlns:xlink="http://www.w3.org/1999/xlink"><linearGradient id="a" gradientUnits="userSpaceOnUse" x1="251.6592" x2="270.6592" y1="159.5625" y2="218.5625"><stop offset="0" stop-color="#0f39c3"/><stop offset="1" stop-color="#fa96d3"/></linearGradient><linearGradient id="b"><stop offset="0" stop-color="#fb6874"/><stop offset="1" stop-color="#f56fae"/></linearGradient><linearGradient id="c" gradientTransform="matrix(1 -.00853353 .00853353 1 8.7293 -5.296)" gradientUnits="userSpaceOnUse" x1="227.1121" x2="227.1121" xlink:href="#b" y1="219.1904" y2="195.5237"/><linearGradient id="d"><stop offset="0" stop-color="#f2f2f2"/><stop offset="1" stop-color="#b3b3b3"/></linearGradient><linearGradient id="e" gradientUnits="userSpaceOnUse" x1="269.0875" x2="289.42" xlink:href="#d" y1="184.5755" y2="204.5639"/><linearGradient id="f"><stop offset="0" stop-color="#30a2e3"/><stop offset="1" stop-color="#2fddd1"/></linearGradient><linearGradient id="g" gradientUnits="userSpaceOnUse" x1="271.1635" x2="289.3585" xlink:href="#f" y1="178.8479" y2="178.8479"/><linearGradient id="h"><stop offset=".001241987" stop-color="#fb993c"/><stop offset=".9988" stop-color="#ffc58e"/></linearGradient><linearGradient id="i" gradientUnits="userSpaceOnUse" x1="274.3676" x2="286.1544" xlink:href="#h" y1="199.9615" y2="199.9615"/><linearGradient id="j" gradientUnits="userSpaceOnUse" x1="233.9206" x2="254.7616" xlink:href="#d" y1="184.3256" y2="204.8139"/><linearGradient id="k" gradientUnits="userSpaceOnUse" x1="233.7509" x2="251.9458" xlink:href="#f" y1="178.8479" y2="178.8479"/><linearGradient id="l" gradientUnits="userSpaceOnUse" x1="236.955" x2="248.7417" xlink:href="#h" y1="199.9615" y2="199.9615"/><linearGradient id="m" gradientUnits="userSpaceOnUse" x1="250.218" x2="272.8743" xlink:href="#d" y1="185.1226" y2="207.3956"/><linearGradient id="n" gradientUnits="userSpaceOnUse" x1="250.8836" x2="272.2257" xlink:href="#f" y1="177.2314" y2="177.2314"/><linearGradient id="o" gradientUnits="userSpaceOnUse" x1="254.642" x2="268.4674" xlink:href="#h" y1="202.5835" y2="202.5835"/><linearGradient id="p" gradientUnits="userSpaceOnUse" x1="29.1733" x2="48.1733" xlink:href="#b" y1="11.5188" y2="70.5188"/><linearGradient id="q" gradientUnits="userSpaceOnUse" x1="12.6689" x2="12.6689" y1="54.1228" y2="30.1227"><stop offset="0" stop-color="#0e48b5"/><stop offset="1" stop-color="#30a2e3"/></linearGradient><linearGradient id="r"><stop offset="0" stop-color="#b3b3b3"/><stop offset="1" stop-color="#f2f2f2"/></linearGradient><linearGradient id="s" gradientUnits="userSpaceOnUse" x1="25.0006" x2="25.0006" xlink:href="#r" y1="40.5088" y2="22.7246"/><linearGradient id="t"><stop offset="0" stop-color="#8f31c1"/><stop offset="1" stop-color="#f56fae"/></linearGradient><linearGradient id="u" gradientUnits="userSpaceOnUse" x1="24.218" x2="32.118" xlink:href="#t" y1="28.8667" y2="28.8667"/><linearGradient id="v" gradientUnits="userSpaceOnUse" x1="24.218" x2="35.4984" xlink:href="#t" y1="31.6167" y2="31.6167"/><linearGradient id="w" gradientUnits="userSpaceOnUse" x1="24.218" x2="32.118" xlink:href="#t" y1="34.3667" y2="34.3667"/><linearGradient id="x" gradientUnits="userSpaceOnUse" x1="25.0006" x2="25.0006" xlink:href="#r" y1="61.5209" y2="43.7368"/><linearGradient id="y" gradientUnits="userSpaceOnUse" x1="24.218" x2="32.118" xlink:href="#t" y1="49.8788" y2="49.8788"/><linearGradient id="z" gradientUnits="userSpaceOnUse" x1="24.218" x2="35.4984" xlink:href="#t" y1="52.6288" y2="52.6288"/><linearGradient id="A" gradientUnits="userSpaceOnUse" x1="24.218" x2="32.118" xlink:href="#t" y1="55.3788" y2="55.3788"/><linearGradient id="B" gradientUnits="userSpaceOnUse" x1="57.6218" x2="57.6218" xlink:href="#r" y1="61.5209" y2="43.7368"/><linearGradient id="C" gradientUnits="userSpaceOnUse" x1="56.8391" x2="64.7391" xlink:href="#t" y1="49.8788" y2="49.8788"/><linearGradient id="D" gradientUnits="userSpaceOnUse" x1="56.8391" x2="68.1195" xlink:href="#t" y1="52.6288" y2="52.6288"/><linearGradient id="E" gradientUnits="userSpaceOnUse" x1="56.8391" x2="64.7391" xlink:href="#t" y1="55.3788" y2="55.3788"/><linearGradient id="F" gradientUnits="userSpaceOnUse" x1="57.6218" x2="57.6218" xlink:href="#r" y1="40.5088" y2="22.7246"/><linearGradient id="G" gradientUnits="userSpaceOnUse" x1="56.8391" x2="64.7391" xlink:href="#t" y1="28.8667" y2="28.8667"/><linearGradient id="H" gradientUnits="userSpaceOnUse" x1="56.8391" x2="68.1195" xlink:href="#t" y1="31.6167" y2="31.6167"/><linearGradient id="I" gradientUnits="userSpaceOnUse" x1="56.8391" x2="64.7391" xlink:href="#t" y1="34.3667" y2="34.3667"/><path d="m289.5 200.3c0-1.6-.6-3.1-1.8-4.3l-16-16 17.3-17.3c1.1-1.1.3-3-1.3-3h-36.4l-16 16c-1.2 1.2-1.8 2.8-1.8 4.3 0 1.6.6 3.1 1.8 4.3l16 16-17.3 17.3c-1.1 1.1-.3 3 1.3 3h36.4l16-16c.3-.3.6-.6.8-1 .7-.9 1-2.1 1-3.3z" fill="url(#a)"/><circle cx="237.6" cy="200.1" fill="url(#c)" r="11.8"/><path d="m269.6 183.6v19.6c0 1.5 1.2 2.8 2.8 2.8h13.7c1.5 0 2.8-1.2 2.8-2.8v-19.6z" fill="#fff"/><path d="m270 184.5v18.9c0 1.1.9 2.1 2.1 2.1h14.4c1.1 0 2.1-.9 2.1-2.1v-18.9h.9v18.9c0 1.6-1.3 2.9-2.9 2.9h-14.4c-1.6 0-2.9-1.3-2.9-2.9v-18.9" fill="url(#e)"/><path d="m287.3 173.2h-14c-1.2 0-2.1.9-2.1 2.1v9.2h18.2v-9.2c0-1.2-1-2.1-2.1-2.1z" fill="url(#g)"/><path d="m281.6 177.1c-.3-.2-.6-.4-.9-.5v1.6c1.1.4 1.5.9 1.5 1.7 0 .8-.6 1.4-1.5 1.5v.8h-.7v-.8c-.6-.1-1.2-.3-1.7-.8l.5-.7c.4.3.7.6 1.2.6v-1.5c-1-.4-1.5-.8-1.5-1.7 0-.8.6-1.4 1.5-1.5v-.5h.6v.5c.5.1 1 .3 1.4.6zm-1.6.9v-1.4c-.4.1-.6.3-.6.7.1.2.2.4.6.7zm.7 1.2v1.5c.4-.1.6-.3.6-.7 0-.4-.2-.6-.6-.8z" fill="#fff"/><g fill="#ccc"><path d="m274.3 187.9h11.8v.8h-11.8z"/><path d="m274.3 190.2h11.8v.8h-11.8z"/><path d="m284 193.3h-9.7v-.8h11.9v.8z"/><path d="m274.3 194.9h11.8v.8h-11.8z"/></g><path d="m285.6 202.3h-10.7c-.3 0-.5-.2-.5-.5v-3.7c0-.3.2-.5.5-.5h10.7c.3 0 .5.2.5.5v3.7c.1.3-.2.5-.5.5z" fill="url(#i)"/><path d="m234.2 183.6v19.6c0 1.5 1.2 2.8 2.8 2.8h14.7c1.5 0 2.8-1.2 2.8-2.8v-19.6z" fill="#fff"/><path d="m234.6 184.5v18.9c0 1.1.9 2.1 2.1 2.1h15.3c1.1 0 2.1-.9 2.1-2.1v-18.9h.9v18.9c0 1.6-1.3 2.9-2.9 2.9h-15.4c-1.6 0-2.9-1.3-2.9-2.9v-18.9" fill="url(#j)"/><path d="m249.8 173.2h-14c-1.2 0-2.1.9-2.1 2.1v9.2h18.2v-9.2c0-1.2-.9-2.1-2.1-2.1z" fill="url(#k)"/><path d="m244.2 177.1c-.3-.2-.6-.4-.9-.5v1.6c1.1.4 1.5.9 1.5 1.7 0 .8-.6 1.4-1.5 1.5v.8h-.6v-.8c-.6-.1-1.2-.3-1.7-.8l.5-.7c.4.3.7.6 1.2.6v-1.5c-1-.4-1.5-.8-1.5-1.7 0-.8.6-1.4 1.5-1.5v-.5h.6v.5c.5.1 1 .3 1.4.6zm-1.6.9v-1.4c-.4.1-.6.3-.6.7.1.2.2.4.6.7zm.6 1.2v1.5c.4-.1.6-.3.6-.7.1-.4-.1-.6-.6-.8z" fill="#fff"/><path d="m236.9 187.9h11.8v.8h-11.8z" fill="#ccc"/><path d="m236.9 190.2h11.8v.8h-11.8z" fill="#ccc"/><path d="m246.6 193.3h-9.7v-.8h11.9v.8z" fill="#ccc"/><path d="m236.9 194.9h11.8v.8h-11.8z" fill="#ccc"/><path d="m248.2 202.3h-10.7c-.3 0-.5-.2-.5-.5v-3.7c0-.3.2-.5.5-.5h10.7c.3 0 .5.2.5.5v3.7c0 .3-.2.5-.5.5z" fill="url(#l)"/><path d="m251.4 183.4v23c0 1.8 1.5 3.3 3.3 3.3h13.8c1.8 0 3.3-1.5 3.3-3.3v-23z" fill="#fff"/><path d="m251.9 184.4v22.2c0 1.3 1.1 2.4 2.4 2.4h14.5c1.3 0 2.4-1.1 2.4-2.4v-22.2h1v22.2c0 1.9-1.5 3.4-3.4 3.4h-14.5c-1.9 0-3.4-1.5-3.4-3.4v-22.2" fill="url(#m)"/><path d="m269.8 170h-16.4c-1.4 0-2.5 1.1-2.5 2.5v11.9h21.3v-11.9c0-1.4-1.1-2.5-2.4-2.5z" fill="url(#n)"/><path d="m263.1 175.7c-.3-.3-.7-.5-1.1-.6v1.9c1.3.5 1.8 1.1 1.8 2 0 1-.7 1.7-1.8 1.8v1h-.8v-1c-.7-.1-1.4-.4-2-.9l.6-.8c.4.4.9.7 1.4.8v-2c-1.2-.5-1.7-1-1.7-1.9 0-1 .7-1.6 1.7-1.8v-.6h.8v.6c.6.1 1.2.3 1.6.7zm-1.8 1.1v-1.6c-.5.1-.7.4-.7.8 0 .3.2.5.7.8zm.7 1.4v1.7c.5-.1.7-.4.7-.8 0-.4-.1-.6-.7-.9z" fill="#fff"/><path d="m254.6 188.4h13.9v.9h-13.9z" fill="#ccc"/><path d="m254.6 191.1h13.9v.9h-13.9z" fill="#ccc"/><path d="m266 194.8h-11.4v-.9h13.9v.9z" fill="#ccc"/><path d="m254.6 196.6h13.9v.9h-13.9z" fill="#ccc"/><path d="m267.8 205.4h-12.6c-.4 0-.6-.3-.6-.6v-4.3c0-.4.3-.6.6-.6h12.6c.4 0 .6.3.6.6v4.3c.1.3-.2.6-.6.6z" fill="url(#o)"/><path d="m67 52.3c0-1.6-.6-3.1-1.8-4.3l-16-16 17.3-17.3c1.1-1.1.3-3-1.3-3h-36.3l-16 16c-1.3 1.1-1.9 2.7-1.9 4.3s.6 3.1 1.8 4.3l16 16-17.2 17.3c-1.1 1.1-.3 3 1.3 3h36.4l16-16c.3-.3.6-.6.8-1 .6-1 .9-2.1.9-3.3z" fill="url(#p)"/><circle cx="12.7" cy="42.1" fill="url(#q)" r="12"/><path d="m12.7 23.4c-1.1 0-1.9.9-1.9 2.3v11.7c0 1.4.9 2.5 1.9 2.5h24.5c1.1 0 1.9-1.1 1.9-2.5v-11.7c0-1.4-.9-2.3-1.9-2.3z" fill="#fff"/><path d="m36.3 40.5h-22.6c-1.9 0-3.4-1.5-3.4-3.4v-11c0-1.9 1.5-3.4 3.4-3.4h22.7c1.9 0 3.4 1.5 3.4 3.4v11c0 1.9-1.6 3.4-3.5 3.4zm-22.6-16.8c-1.3 0-2.4 1.1-2.4 2.4v11c0 1.3 1.1 2.4 2.4 2.4h22.7c1.3 0 2.4-1.1 2.4-2.4v-11c0-1.3-1.1-2.4-2.4-2.4z" fill="url(#s)"/><path d="m24.2 28.4h7.9v.9h-7.9z" fill="url(#u)"/><path d="m24.2 31.2h11.3v.9h-11.3z" fill="url(#v)"/><path d="m24.2 33.9h7.9v.9h-7.9z" fill="url(#w)"/><path d="m19.1 33.2h-2.8c-.1 0-.3-.1-.3-.2l-.5-3.7h-.9c-.2 0-.3-.1-.3-.3s.1-.3.3-.3h1.1c.1 0 .3.1.3.2l.1.9 4 .1c.1 0 .2 0 .2.1.1.1.1.2 0 .3l-.9 2.7c-.1.1-.2.2-.3.2zm-2.6-.6h2.4l.9-2.2-3.6-.1z" fill="#749cfc"/><circle cx="16.7" cy="34" fill="#749cfc" r=".6"/><circle cx="18.9" cy="34" fill="#749cfc" r=".6"/><path d="m12.7 44.4c-1.1 0-1.9.9-1.9 2.3v11.7c0 1.4.9 2.5 1.9 2.5h24.5c1.1 0 1.9-1.1 1.9-2.5v-11.7c0-1.4-.9-2.3-1.9-2.3z" fill="#fff"/><path d="m36.3 61.5h-22.6c-1.9 0-3.4-1.5-3.4-3.4v-11c0-1.9 1.5-3.4 3.4-3.4h22.7c1.9 0 3.4 1.5 3.4 3.4v11c0 1.9-1.6 3.4-3.5 3.4zm-22.6-16.8c-1.3 0-2.4 1.1-2.4 2.4v11c0 1.3 1.1 2.4 2.4 2.4h22.7c1.3 0 2.4-1.1 2.4-2.4v-11c0-1.3-1.1-2.4-2.4-2.4z" fill="url(#x)"/><path d="m24.2 49.4h7.9v.9h-7.9z" fill="url(#y)"/><path d="m24.2 52.2h11.3v.9h-11.3z" fill="url(#z)"/><path d="m24.2 54.9h7.9v.9h-7.9z" fill="url(#A)"/><path d="m20.3 55h-5.6v-4.1h1.2l.4-1.1h2.3l.4 1.1h1.3zm-5.1-.5h4.5v-3h-1.1l-.4-1.1h-1.5l-.4 1.1h-1.1z" fill="#f56fae"/><path d="m17.5 53.9c-.6 0-1-.4-1-1s.4-1 1-1 1 .4 1 1c0 .5-.5 1-1 1zm0-1.5c-.2 0-.4.2-.4.4s.2.4.4.4.4-.2.4-.4-.2-.4-.4-.4z" fill="#f56fae"/><path d="m45.4 44.4c-1.1 0-1.9.9-1.9 2.3v11.7c0 1.4.9 2.5 1.9 2.5h24.5c1.1 0 1.9-1.1 1.9-2.5v-11.7c0-1.4-.9-2.3-1.9-2.3z" fill="#fff"/><path d="m69 61.5h-22.7c-1.9 0-3.4-1.5-3.4-3.4v-11c0-1.9 1.5-3.4 3.4-3.4h22.7c1.9 0 3.4 1.5 3.4 3.4v11c0 1.9-1.5 3.4-3.4 3.4zm-22.7-16.8c-1.3 0-2.4 1.1-2.4 2.4v11c0 1.3 1.1 2.4 2.4 2.4h22.7c1.3 0 2.4-1.1 2.4-2.4v-11c0-1.3-1.1-2.4-2.4-2.4z" fill="url(#B)"/><path d="m56.8 49.4h7.9v.9h-7.9z" fill="url(#C)"/><path d="m56.8 52.2h11.3v.9h-11.3z" fill="url(#D)"/><path d="m56.8 54.9h7.9v.9h-7.9z" fill="url(#E)"/><path d="m52.7 50.3-.3-.3c-.4-.4-1.1-.4-1.5 0l-.4.4-2.5 2.5s0 0-.1.1l-.5 2c0 .1 0 .2.1.3s.1.1.2.1h.1l2-.5s.1 0 .1-.1l2.5-2.5.4-.4c.3-.5.3-1.2-.1-1.6zm-.9 1.7-2.1 2.1-1.1-1.1 2.1-2.1 1 1zm-3.5 1.6.8.8-1 .3zm4-2.2-.2.2-1-1-.1-.1.2-.2c.2-.2.5-.2.7 0l.3.3c.3.3.3.6.1.8z" fill="#749cfc"/><path d="m45.4 23.4c-1.1 0-1.9.9-1.9 2.3v11.7c0 1.4.9 2.5 1.9 2.5h24.5c1.1 0 1.9-1.1 1.9-2.5v-11.7c0-1.4-.9-2.3-1.9-2.3z" fill="#fff"/><path d="m69 40.5h-22.7c-1.9 0-3.4-1.5-3.4-3.4v-11c0-1.9 1.5-3.4 3.4-3.4h22.7c1.9 0 3.4 1.5 3.4 3.4v11c0 1.9-1.5 3.4-3.4 3.4zm-22.7-16.8c-1.3 0-2.4 1.1-2.4 2.4v11c0 1.3 1.1 2.4 2.4 2.4h22.7c1.3 0 2.4-1.1 2.4-2.4v-11c0-1.3-1.1-2.4-2.4-2.4z" fill="url(#F)"/><path d="m56.8 28.4h7.9v.9h-7.9z" fill="url(#G)"/><path d="m56.8 31.2h11.3v.9h-11.3z" fill="url(#H)"/><path d="m56.8 33.9h7.9v.9h-7.9z" fill="url(#I)"/><path d="m51.5 33.9c-.1 0-.1 0-.2-.1l-1.3-.9-1.3.9c-.1.1-.2.1-.3 0s-.1-.2-.1-.3l.5-1.6-1.3-1c-.1-.1-.1-.2-.1-.3s.1-.2.3-.2h1.6l.5-1.5c0-.1.1-.2.3-.2.1 0 .2.1.3.2l.5 1.5h1.6c.1 0 .2.1.3.2 0 .1 0 .2-.1.3l-1.3 1 .5 1.6c0 .1 0 .2-.1.3s-.2.1-.3.1zm-3-2.8.8.6c.1.1.1.2.1.3l-.3 1 .8-.6c.1-.1.2-.1.3 0l.8.6-.3-1c0-.1 0-.2.1-.3l.8-.6h-1c-.1 0-.2-.1-.3-.2l-.3-1-.3 1c0 .1-.1.2-.3.2z" fill="#cb99ff"/></svg>