<svg enable-background="new 0 0 75 83.8" viewBox="0 0 75 83.8" xmlns="http://www.w3.org/2000/svg" xmlns:xlink="http://www.w3.org/1999/xlink"><linearGradient id="a" gradientTransform="matrix(1 0 0 -1 0 86)" gradientUnits="userSpaceOnUse" x1="28.457" x2="47.457" y1="74.315" y2="15.315"><stop offset="0" stop-color="#f56fae"/><stop offset="1" stop-color="#fb6874"/></linearGradient><linearGradient id="b"><stop offset="0" stop-color="#0e48b5"/><stop offset="1" stop-color="#30a2e3"/></linearGradient><linearGradient id="c" gradientTransform="matrix(1 -.00853353 -.00853353 -1 12.4755 78.417)" gradientUnits="userSpaceOnUse" x1="5.4086" x2="5.4086" xlink:href="#b" y1="9.7713" y2="33.438"/><linearGradient id="d" gradientTransform="matrix(1 0 0 -1 0 86)" gradientUnits="userSpaceOnUse" x1="17.3894" x2="64.8106" y1="69.1593" y2="22.5407"><stop offset="0" stop-color="#f2f2f2"/><stop offset="1" stop-color="#b3b3b3"/></linearGradient><linearGradient id="e"><stop offset="0" stop-color="#ab5af1"/><stop offset="1" stop-color="#749cfc"/></linearGradient><linearGradient id="f" gradientTransform="matrix(1 0 0 -1 0 -596)" gradientUnits="userSpaceOnUse" x1="28.95" x2="28.95" xlink:href="#e" y1="-635.9404" y2="-621.6003"/><linearGradient id="g"><stop offset="0" stop-color="#34d1d9"/><stop offset="1" stop-color="#5aece5"/></linearGradient><linearGradient id="h" gradientTransform="matrix(1 0 0 -1 0 -596)" gradientUnits="userSpaceOnUse" x1="23.219" x2="40.1012" xlink:href="#g" y1="-631.3803" y2="-631.3803"/><linearGradient id="i" gradientTransform="matrix(1 0 0 -1 0 86)" gradientUnits="userSpaceOnUse" x1="17.7914" x2="38.9655" xlink:href="#b" y1="42.3095" y2="42.4902"/><linearGradient id="j" gradientTransform="matrix(1 0 0 -1 0 86)" gradientUnits="userSpaceOnUse" x1="17.7982" x2="38.9581" xlink:href="#b" y1="39.5095" y2="39.6901"/><linearGradient id="k" gradientTransform="matrix(1 0 0 -1 0 86)" gradientUnits="userSpaceOnUse" x1="17.7983" x2="40.1017" xlink:href="#b" y1="37.8049" y2="37.9951"/><linearGradient id="l"><stop offset=".001241987" stop-color="#fb993c"/><stop offset=".9988" stop-color="#ffc58e"/></linearGradient><linearGradient id="m" gradientTransform="matrix(1 0 0 -1 0 86)" gradientUnits="userSpaceOnUse" x1="17.7736" x2="28.6768" xlink:href="#l" y1="33.1037" y2="33.1967"/><linearGradient id="n" gradientTransform="matrix(1 0 0 -1 0 -596)" gradientUnits="userSpaceOnUse" x1="53.25" x2="53.25" xlink:href="#e" y1="-635.9404" y2="-621.6003"/><linearGradient id="o" gradientTransform="matrix(1 0 0 -1 0 -596)" gradientUnits="userSpaceOnUse" x1="47.5447" x2="64.4269" xlink:href="#g" y1="-631.3803" y2="-631.3803"/><linearGradient id="p" gradientTransform="matrix(1 0 0 -1 0 86)" gradientUnits="userSpaceOnUse" x1="42.0914" x2="63.2656" xlink:href="#b" y1="42.3095" y2="42.4902"/><linearGradient id="q" gradientTransform="matrix(1 0 0 -1 0 86)" gradientUnits="userSpaceOnUse" x1="42.0982" x2="63.2582" xlink:href="#b" y1="39.5095" y2="39.6901"/><linearGradient id="r" gradientTransform="matrix(1 0 0 -1 0 86)" gradientUnits="userSpaceOnUse" x1="42.0983" x2="64.4017" xlink:href="#b" y1="37.8049" y2="37.9951"/><linearGradient id="s" gradientTransform="matrix(1 0 0 -1 0 86)" gradientUnits="userSpaceOnUse" x1="42.0993" x2="53.0026" xlink:href="#l" y1="33.1031" y2="33.1961"/><linearGradient id="t" gradientTransform="matrix(1 0 0 -1 0 -2032)" gradientUnits="userSpaceOnUse" x1="25.3" x2="25.3" xlink:href="#l" y1="-2063.3926" y2="-2059.6926"/><linearGradient id="u" gradientTransform="matrix(1 0 0 -1 0 -2032)" gradientUnits="userSpaceOnUse" x1="49.6" x2="49.6" xlink:href="#l" y1="-2063.3926" y2="-2059.6926"/><path d="m66.3 52.4c0-1.6-.6-3.1-1.8-4.3l-16-16 17.3-17.3c1.1-1.1.3-3-1.3-3h-36.4l-16 16c-1.2 1.2-1.8 2.8-1.8 4.3 0 1.6.6 3.1 1.8 4.3l16 16-17.3 17.3c-1.1 1.1-.3 3 1.3 3h36.4l16-16c.3-.3.6-.6.8-1 .6-.9 1-2.1 1-3.3z" fill="url(#a)"/><circle cx="17.7" cy="56.8" fill="url(#c)" r="11.8"/><path d="m67.8 21.9c0-1.6-1.2-2.9-2.6-2.9h-48.4c-1.4 0-2.6 1.3-2.6 2.9v7.3c9.1 0 13.7 3.5 18.1 7 4.6 3.5 8.9 6.8 17.7 6.8s13.1-3.3 17.7-6.8v21z" fill="#fff"/><path d="m50 43c-8.8 0-13.1-3.3-17.7-6.8-4.5-3.4-9.1-7-18.1-8.3v28.9c0 3.6.8 4.5 2.8 4.5h48c2 0 2.8-.9 2.8-3.1v-22c-4.7 3.4-9 6.8-17.8 6.8z" fill="#f6f6f6"/><path d="m65 61.8h-47.8c-1.9 0-3.4-1.5-3.4-3.4v-36.5c0-1.9 1.5-3.4 3.4-3.4h47.8c1.9 0 3.4 1.5 3.4 3.4v36.5c0 1.9-1.5 3.4-3.4 3.4zm-47.8-42.4c-1.3 0-2.4 1.1-2.4 2.4v36.5c0 1.3 1.1 2.4 2.4 2.4h47.8c1.3 0 2.4-1.1 2.4-2.4v-36.4c0-1.3-1.1-2.4-2.4-2.4h-47.8z" fill="url(#d)"/><path d="m19.2 25.6h19.5c.8 0 1.4.6 1.4 1.4v11.5c0 .8-.6 1.4-1.4 1.4h-19.5c-.8 0-1.4-.6-1.4-1.4v-11.5c0-.7.6-1.4 1.4-1.4z" fill="url(#f)"/><path d="m27.3 35.2-1.5-1.9c-.2-.2-.7-.2-.9 0l-5.4 6.6h4.1z" fill="#6bf9eb"/><path d="m30.5 31-3.2 4.2-3.7 4.7h15l-7.1-8.8c-.3-.3-.7-.3-1-.1z" fill="url(#h)"/><path d="m17.8 42.5h21.2v2.2h-21.2z" fill="url(#i)"/><path d="m17.8 46.1h21.2v.6h-21.2z" fill="url(#j)"/><path d="m17.8 47.8h22.3v.6h-22.3z" fill="url(#k)"/><path d="m28 54.6h-9.6c-.3 0-.6-.3-.6-.6v-2.3c0-.3.3-.6.6-.6h9.6c.3 0 .6.3.6.6v2.3c.1.3-.2.6-.6.6z" fill="url(#m)"/><path d="m43.5 25.6h19.5c.8 0 1.4.6 1.4 1.4v11.5c0 .8-.6 1.4-1.4 1.4h-19.5c-.8 0-1.4-.6-1.4-1.4v-11.5c0-.7.6-1.4 1.4-1.4z" fill="url(#n)"/><path d="m51.6 35.2-1.5-1.9c-.2-.2-.7-.2-.9 0l-5.4 6.6h4.1z" fill="#6bf9eb"/><path d="m54.8 31-3.2 4.2-3.7 4.7h15l-7.1-8.8c-.3-.3-.7-.3-1-.1z" fill="url(#o)"/><path d="m42.1 42.5h21.2v2.2h-21.2z" fill="url(#p)"/><path d="m42.1 46.1h21.2v.6h-21.2z" fill="url(#q)"/><path d="m42.1 47.8h22.3v.6h-22.3z" fill="url(#r)"/><path d="m52.4 54.6h-9.6c-.3 0-.6-.3-.6-.6v-2.3c0-.3.3-.6.6-.6h9.6c.3 0 .6.3.6.6v2.3c0 .3-.3.6-.6.6z" fill="url(#s)"/><circle cx="25.3" cy="29.6" fill="url(#t)" r="1.8"/><circle cx="49.6" cy="29.6" fill="url(#u)" r="1.8"/></svg>