<?xml version="1.0" encoding="utf-8"?>
<!-- Generator: Adobe Illustrator 21.1.0, SVG Export Plug-In . SVG Version: 6.00 Build 0)  -->
<svg version="1.1" id="Layer_1" xmlns="http://www.w3.org/2000/svg" xmlns:xlink="http://www.w3.org/1999/xlink" x="0px" y="0px"
	 viewBox="0 0 75 83.8" style="enable-background:new 0 0 75 83.8;" xml:space="preserve">
<style type="text/css">
	.st0{fill:url(#SVGID_1_);}
	.st1{clip-path:url(#SVGID_3_);fill:#FCAC60;}
	.st2{clip-path:url(#SVGID_5_);fill:#FCAC60;}
	.st3{clip-path:url(#SVGID_7_);fill:#FCAD61;}
	.st4{clip-path:url(#SVGID_9_);fill:#FCAD62;}
	.st5{clip-path:url(#SVGID_11_);fill:#FCAE63;}
	.st6{clip-path:url(#SVGID_13_);fill:#FCAE64;}
	.st7{clip-path:url(#SVGID_15_);fill:#FCAF65;}
	.st8{clip-path:url(#SVGID_17_);fill:#FCAF66;}
	.st9{clip-path:url(#SVGID_19_);fill:#FCB067;}
	.st10{clip-path:url(#SVGID_21_);fill:#FDB068;}
	.st11{clip-path:url(#SVGID_23_);fill:#FDB169;}
	.st12{clip-path:url(#SVGID_25_);fill:#FDB26A;}
	.st13{clip-path:url(#SVGID_27_);fill:#FDB26B;}
	.st14{clip-path:url(#SVGID_29_);fill:#FDB36C;}
	.st15{clip-path:url(#SVGID_31_);fill:#FDB36D;}
	.st16{clip-path:url(#SVGID_33_);fill:#FDB46E;}
	.st17{clip-path:url(#SVGID_35_);fill:#FDB46F;}
	.st18{clip-path:url(#SVGID_37_);fill:#FDB570;}
	.st19{clip-path:url(#SVGID_39_);fill:#FDB571;}
	.st20{clip-path:url(#SVGID_41_);fill:#FDB672;}
	.st21{clip-path:url(#SVGID_43_);fill:#FDB773;}
	.st22{clip-path:url(#SVGID_45_);fill:#FDB774;}
	.st23{clip-path:url(#SVGID_47_);fill:#FDB875;}
	.st24{clip-path:url(#SVGID_49_);fill:#FDB876;}
	.st25{clip-path:url(#SVGID_51_);fill:#FEB978;}
	.st26{clip-path:url(#SVGID_53_);fill:#FEB979;}
	.st27{clip-path:url(#SVGID_55_);fill:#FEBA7A;}
	.st28{clip-path:url(#SVGID_57_);fill:#FEBA7B;}
	.st29{clip-path:url(#SVGID_59_);fill:#FEBB7C;}
	.st30{clip-path:url(#SVGID_61_);fill:#FEBC7D;}
	.st31{clip-path:url(#SVGID_63_);fill:#FEBC7E;}
	.st32{clip-path:url(#SVGID_65_);fill:#FEBD7F;}
	.st33{clip-path:url(#SVGID_67_);fill:#FEBD80;}
	.st34{clip-path:url(#SVGID_69_);fill:#FEBE81;}
	.st35{clip-path:url(#SVGID_71_);fill:#FEBE82;}
	.st36{clip-path:url(#SVGID_73_);fill:#FEBF83;}
	.st37{clip-path:url(#SVGID_75_);fill:#FEBF84;}
	.st38{clip-path:url(#SVGID_77_);fill:#FEC085;}
	.st39{clip-path:url(#SVGID_79_);fill:#FEC186;}
	.st40{clip-path:url(#SVGID_81_);fill:#FFC187;}
	.st41{clip-path:url(#SVGID_83_);fill:#FFC288;}
	.st42{clip-path:url(#SVGID_85_);fill:#FFC289;}
	.st43{clip-path:url(#SVGID_87_);fill:#FFC38A;}
	.st44{clip-path:url(#SVGID_89_);fill:#FFC38B;}
	.st45{clip-path:url(#SVGID_91_);fill:#FFC48C;}
	.st46{clip-path:url(#SVGID_93_);fill:#FFC48D;}
	.st47{clip-path:url(#SVGID_95_);fill:#FFC58E;}
	.st48{clip-path:url(#SVGID_97_);fill:#FFC58E;}
	.st49{fill:url(#SVGID_98_);}
	.st50{clip-path:url(#SVGID_100_);}
	.st51{fill:url(#SVGID_101_);}
	.st52{clip-path:url(#SVGID_100_);fill:#6BF9EB;}
	.st53{clip-path:url(#SVGID_100_);fill:url(#SVGID_102_);}
	.st54{fill:#FFFFFF;}
	.st55{fill:#FFC58E;}
</style>
<linearGradient id="SVGID_1_" gradientUnits="userSpaceOnUse" x1="28.5289" y1="74.4023" x2="48.2399" y2="13.1944" gradientTransform="matrix(1 0 0 -1 0 86)">
	<stop  offset="0" style="stop-color:#91D9F9"/>
	<stop  offset="0.496" style="stop-color:#30A2E3"/>
	<stop  offset="0.9483" style="stop-color:#8859F1"/>
</linearGradient>
<path class="st0" d="M66.4,52.4L66.4,52.4L66.4,52.4c0-1.6-0.6-3.1-1.8-4.3l-16-16l17.3-17.3c1.1-1.1,0.3-3-1.3-3H28.2l0,0l0,0l0,0
	l0,0l0,0l0,0l0,0l-16,16c-1.2,1.2-1.8,2.8-1.8,4.3c0,1.6,0.6,3.1,1.8,4.3l16,16l0,0l0,0l0,0L10.9,69.7c-1.1,1.1-0.3,3,1.3,3h36.4
	l0,0l0,0l0,0l0,0l0,0l0,0l16-16c0.3-0.3,0.6-0.6,0.8-1C66,54.7,66.4,53.5,66.4,52.4L66.4,52.4L66.4,52.4L66.4,52.4z"/>
<g>
	<g>
		<g>
			<defs>
				<circle id="SVGID_2_" cx="50.5" cy="43.8" r="4"/>
			</defs>
			<clipPath id="SVGID_3_">
				<use xlink:href="#SVGID_2_"  style="overflow:visible;"/>
			</clipPath>
			<polygon class="st1" points="46.6,47.8 54.5,47.8 54.5,47.8 			"/>
		</g>
		<g>
			<defs>
				<circle id="SVGID_4_" cx="50.5" cy="43.8" r="4"/>
			</defs>
			<clipPath id="SVGID_5_">
				<use xlink:href="#SVGID_4_"  style="overflow:visible;"/>
			</clipPath>
			<rect x="46.6" y="47.6" class="st2" width="7.9" height="0.2"/>
		</g>
		<g>
			<defs>
				<circle id="SVGID_6_" cx="50.5" cy="43.8" r="4"/>
			</defs>
			<clipPath id="SVGID_7_">
				<use xlink:href="#SVGID_6_"  style="overflow:visible;"/>
			</clipPath>
			<rect x="46.6" y="47.5" class="st3" width="7.9" height="0.2"/>
		</g>
		<g>
			<defs>
				<circle id="SVGID_8_" cx="50.5" cy="43.8" r="4"/>
			</defs>
			<clipPath id="SVGID_9_">
				<use xlink:href="#SVGID_8_"  style="overflow:visible;"/>
			</clipPath>
			<rect x="46.6" y="47.3" class="st4" width="7.9" height="0.2"/>
		</g>
		<g>
			<defs>
				<circle id="SVGID_10_" cx="50.5" cy="43.8" r="4"/>
			</defs>
			<clipPath id="SVGID_11_">
				<use xlink:href="#SVGID_10_"  style="overflow:visible;"/>
			</clipPath>
			<rect x="46.6" y="47.1" class="st5" width="7.9" height="0.2"/>
		</g>
		<g>
			<defs>
				<circle id="SVGID_12_" cx="50.5" cy="43.8" r="4"/>
			</defs>
			<clipPath id="SVGID_13_">
				<use xlink:href="#SVGID_12_"  style="overflow:visible;"/>
			</clipPath>
			<rect x="46.6" y="46.9" class="st6" width="7.9" height="0.2"/>
		</g>
		<g>
			<defs>
				<circle id="SVGID_14_" cx="50.5" cy="43.8" r="4"/>
			</defs>
			<clipPath id="SVGID_15_">
				<use xlink:href="#SVGID_14_"  style="overflow:visible;"/>
			</clipPath>
			<rect x="46.6" y="46.8" class="st7" width="7.9" height="0.2"/>
		</g>
		<g>
			<defs>
				<circle id="SVGID_16_" cx="50.5" cy="43.8" r="4"/>
			</defs>
			<clipPath id="SVGID_17_">
				<use xlink:href="#SVGID_16_"  style="overflow:visible;"/>
			</clipPath>
			<rect x="46.6" y="46.6" class="st8" width="7.9" height="0.2"/>
		</g>
		<g>
			<defs>
				<circle id="SVGID_18_" cx="50.5" cy="43.8" r="4"/>
			</defs>
			<clipPath id="SVGID_19_">
				<use xlink:href="#SVGID_18_"  style="overflow:visible;"/>
			</clipPath>
			<rect x="46.6" y="46.4" class="st9" width="7.9" height="0.2"/>
		</g>
		<g>
			<defs>
				<circle id="SVGID_20_" cx="50.5" cy="43.8" r="4"/>
			</defs>
			<clipPath id="SVGID_21_">
				<use xlink:href="#SVGID_20_"  style="overflow:visible;"/>
			</clipPath>
			<rect x="46.6" y="46.3" class="st10" width="7.9" height="0.2"/>
		</g>
		<g>
			<defs>
				<circle id="SVGID_22_" cx="50.5" cy="43.8" r="4"/>
			</defs>
			<clipPath id="SVGID_23_">
				<use xlink:href="#SVGID_22_"  style="overflow:visible;"/>
			</clipPath>
			<rect x="46.6" y="46.1" class="st11" width="7.9" height="0.2"/>
		</g>
		<g>
			<defs>
				<circle id="SVGID_24_" cx="50.5" cy="43.8" r="4"/>
			</defs>
			<clipPath id="SVGID_25_">
				<use xlink:href="#SVGID_24_"  style="overflow:visible;"/>
			</clipPath>
			<rect x="46.6" y="45.9" class="st12" width="7.9" height="0.2"/>
		</g>
		<g>
			<defs>
				<circle id="SVGID_26_" cx="50.5" cy="43.8" r="4"/>
			</defs>
			<clipPath id="SVGID_27_">
				<use xlink:href="#SVGID_26_"  style="overflow:visible;"/>
			</clipPath>
			<rect x="46.6" y="45.7" class="st13" width="7.9" height="0.2"/>
		</g>
		<g>
			<defs>
				<circle id="SVGID_28_" cx="50.5" cy="43.8" r="4"/>
			</defs>
			<clipPath id="SVGID_29_">
				<use xlink:href="#SVGID_28_"  style="overflow:visible;"/>
			</clipPath>
			<rect x="46.6" y="45.6" class="st14" width="7.9" height="0.2"/>
		</g>
		<g>
			<defs>
				<circle id="SVGID_30_" cx="50.5" cy="43.8" r="4"/>
			</defs>
			<clipPath id="SVGID_31_">
				<use xlink:href="#SVGID_30_"  style="overflow:visible;"/>
			</clipPath>
			<rect x="46.6" y="45.4" class="st15" width="7.9" height="0.2"/>
		</g>
		<g>
			<defs>
				<circle id="SVGID_32_" cx="50.5" cy="43.8" r="4"/>
			</defs>
			<clipPath id="SVGID_33_">
				<use xlink:href="#SVGID_32_"  style="overflow:visible;"/>
			</clipPath>
			<rect x="46.6" y="45.2" class="st16" width="7.9" height="0.2"/>
		</g>
		<g>
			<defs>
				<circle id="SVGID_34_" cx="50.5" cy="43.8" r="4"/>
			</defs>
			<clipPath id="SVGID_35_">
				<use xlink:href="#SVGID_34_"  style="overflow:visible;"/>
			</clipPath>
			<rect x="46.6" y="45" class="st17" width="7.9" height="0.2"/>
		</g>
		<g>
			<defs>
				<circle id="SVGID_36_" cx="50.5" cy="43.8" r="4"/>
			</defs>
			<clipPath id="SVGID_37_">
				<use xlink:href="#SVGID_36_"  style="overflow:visible;"/>
			</clipPath>
			<rect x="46.6" y="44.9" class="st18" width="7.9" height="0.2"/>
		</g>
		<g>
			<defs>
				<circle id="SVGID_38_" cx="50.5" cy="43.8" r="4"/>
			</defs>
			<clipPath id="SVGID_39_">
				<use xlink:href="#SVGID_38_"  style="overflow:visible;"/>
			</clipPath>
			<rect x="46.6" y="44.7" class="st19" width="7.9" height="0.2"/>
		</g>
		<g>
			<defs>
				<circle id="SVGID_40_" cx="50.5" cy="43.8" r="4"/>
			</defs>
			<clipPath id="SVGID_41_">
				<use xlink:href="#SVGID_40_"  style="overflow:visible;"/>
			</clipPath>
			<rect x="46.6" y="44.5" class="st20" width="7.9" height="0.2"/>
		</g>
		<g>
			<defs>
				<circle id="SVGID_42_" cx="50.5" cy="43.8" r="4"/>
			</defs>
			<clipPath id="SVGID_43_">
				<use xlink:href="#SVGID_42_"  style="overflow:visible;"/>
			</clipPath>
			<rect x="46.6" y="44.4" class="st21" width="7.9" height="0.2"/>
		</g>
		<g>
			<defs>
				<circle id="SVGID_44_" cx="50.5" cy="43.8" r="4"/>
			</defs>
			<clipPath id="SVGID_45_">
				<use xlink:href="#SVGID_44_"  style="overflow:visible;"/>
			</clipPath>
			<rect x="46.6" y="44.2" class="st22" width="7.9" height="0.2"/>
		</g>
		<g>
			<defs>
				<circle id="SVGID_46_" cx="50.5" cy="43.8" r="4"/>
			</defs>
			<clipPath id="SVGID_47_">
				<use xlink:href="#SVGID_46_"  style="overflow:visible;"/>
			</clipPath>
			<rect x="46.6" y="44" class="st23" width="7.9" height="0.2"/>
		</g>
		<g>
			<defs>
				<circle id="SVGID_48_" cx="50.5" cy="43.8" r="4"/>
			</defs>
			<clipPath id="SVGID_49_">
				<use xlink:href="#SVGID_48_"  style="overflow:visible;"/>
			</clipPath>
			<rect x="46.6" y="43.8" class="st24" width="7.9" height="0.2"/>
		</g>
		<g>
			<defs>
				<circle id="SVGID_50_" cx="50.5" cy="43.8" r="4"/>
			</defs>
			<clipPath id="SVGID_51_">
				<use xlink:href="#SVGID_50_"  style="overflow:visible;"/>
			</clipPath>
			<rect x="46.6" y="43.7" class="st25" width="7.9" height="0.2"/>
		</g>
		<g>
			<defs>
				<circle id="SVGID_52_" cx="50.5" cy="43.8" r="4"/>
			</defs>
			<clipPath id="SVGID_53_">
				<use xlink:href="#SVGID_52_"  style="overflow:visible;"/>
			</clipPath>
			<rect x="46.6" y="43.5" class="st26" width="7.9" height="0.2"/>
		</g>
		<g>
			<defs>
				<circle id="SVGID_54_" cx="50.5" cy="43.8" r="4"/>
			</defs>
			<clipPath id="SVGID_55_">
				<use xlink:href="#SVGID_54_"  style="overflow:visible;"/>
			</clipPath>
			<rect x="46.6" y="43.3" class="st27" width="7.9" height="0.2"/>
		</g>
		<g>
			<defs>
				<circle id="SVGID_56_" cx="50.5" cy="43.8" r="4"/>
			</defs>
			<clipPath id="SVGID_57_">
				<use xlink:href="#SVGID_56_"  style="overflow:visible;"/>
			</clipPath>
			<rect x="46.6" y="43.2" class="st28" width="7.9" height="0.2"/>
		</g>
		<g>
			<defs>
				<circle id="SVGID_58_" cx="50.5" cy="43.8" r="4"/>
			</defs>
			<clipPath id="SVGID_59_">
				<use xlink:href="#SVGID_58_"  style="overflow:visible;"/>
			</clipPath>
			<rect x="46.6" y="43" class="st29" width="7.9" height="0.2"/>
		</g>
		<g>
			<defs>
				<circle id="SVGID_60_" cx="50.5" cy="43.8" r="4"/>
			</defs>
			<clipPath id="SVGID_61_">
				<use xlink:href="#SVGID_60_"  style="overflow:visible;"/>
			</clipPath>
			<rect x="46.6" y="42.8" class="st30" width="7.9" height="0.2"/>
		</g>
		<g>
			<defs>
				<circle id="SVGID_62_" cx="50.5" cy="43.8" r="4"/>
			</defs>
			<clipPath id="SVGID_63_">
				<use xlink:href="#SVGID_62_"  style="overflow:visible;"/>
			</clipPath>
			<rect x="46.6" y="42.6" class="st31" width="7.9" height="0.2"/>
		</g>
		<g>
			<defs>
				<circle id="SVGID_64_" cx="50.5" cy="43.8" r="4"/>
			</defs>
			<clipPath id="SVGID_65_">
				<use xlink:href="#SVGID_64_"  style="overflow:visible;"/>
			</clipPath>
			<rect x="46.6" y="42.5" class="st32" width="7.9" height="0.2"/>
		</g>
		<g>
			<defs>
				<circle id="SVGID_66_" cx="50.5" cy="43.8" r="4"/>
			</defs>
			<clipPath id="SVGID_67_">
				<use xlink:href="#SVGID_66_"  style="overflow:visible;"/>
			</clipPath>
			<rect x="46.6" y="42.3" class="st33" width="7.9" height="0.2"/>
		</g>
		<g>
			<defs>
				<circle id="SVGID_68_" cx="50.5" cy="43.8" r="4"/>
			</defs>
			<clipPath id="SVGID_69_">
				<use xlink:href="#SVGID_68_"  style="overflow:visible;"/>
			</clipPath>
			<rect x="46.6" y="42.1" class="st34" width="7.9" height="0.2"/>
		</g>
		<g>
			<defs>
				<circle id="SVGID_70_" cx="50.5" cy="43.8" r="4"/>
			</defs>
			<clipPath id="SVGID_71_">
				<use xlink:href="#SVGID_70_"  style="overflow:visible;"/>
			</clipPath>
			<rect x="46.6" y="42" class="st35" width="7.9" height="0.2"/>
		</g>
		<g>
			<defs>
				<circle id="SVGID_72_" cx="50.5" cy="43.8" r="4"/>
			</defs>
			<clipPath id="SVGID_73_">
				<use xlink:href="#SVGID_72_"  style="overflow:visible;"/>
			</clipPath>
			<rect x="46.6" y="41.8" class="st36" width="7.9" height="0.2"/>
		</g>
		<g>
			<defs>
				<circle id="SVGID_74_" cx="50.5" cy="43.8" r="4"/>
			</defs>
			<clipPath id="SVGID_75_">
				<use xlink:href="#SVGID_74_"  style="overflow:visible;"/>
			</clipPath>
			<rect x="46.6" y="41.6" class="st37" width="7.9" height="0.2"/>
		</g>
		<g>
			<defs>
				<circle id="SVGID_76_" cx="50.5" cy="43.8" r="4"/>
			</defs>
			<clipPath id="SVGID_77_">
				<use xlink:href="#SVGID_76_"  style="overflow:visible;"/>
			</clipPath>
			<rect x="46.6" y="41.4" class="st38" width="7.9" height="0.2"/>
		</g>
		<g>
			<defs>
				<circle id="SVGID_78_" cx="50.5" cy="43.8" r="4"/>
			</defs>
			<clipPath id="SVGID_79_">
				<use xlink:href="#SVGID_78_"  style="overflow:visible;"/>
			</clipPath>
			<rect x="46.6" y="41.3" class="st39" width="7.9" height="0.2"/>
		</g>
		<g>
			<defs>
				<circle id="SVGID_80_" cx="50.5" cy="43.8" r="4"/>
			</defs>
			<clipPath id="SVGID_81_">
				<use xlink:href="#SVGID_80_"  style="overflow:visible;"/>
			</clipPath>
			<rect x="46.6" y="41.1" class="st40" width="7.9" height="0.2"/>
		</g>
		<g>
			<defs>
				<circle id="SVGID_82_" cx="50.5" cy="43.8" r="4"/>
			</defs>
			<clipPath id="SVGID_83_">
				<use xlink:href="#SVGID_82_"  style="overflow:visible;"/>
			</clipPath>
			<rect x="46.6" y="40.9" class="st41" width="7.9" height="0.2"/>
		</g>
		<g>
			<defs>
				<circle id="SVGID_84_" cx="50.5" cy="43.8" r="4"/>
			</defs>
			<clipPath id="SVGID_85_">
				<use xlink:href="#SVGID_84_"  style="overflow:visible;"/>
			</clipPath>
			<rect x="46.6" y="40.8" class="st42" width="7.9" height="0.2"/>
		</g>
		<g>
			<defs>
				<circle id="SVGID_86_" cx="50.5" cy="43.8" r="4"/>
			</defs>
			<clipPath id="SVGID_87_">
				<use xlink:href="#SVGID_86_"  style="overflow:visible;"/>
			</clipPath>
			<rect x="46.6" y="40.6" class="st43" width="7.9" height="0.2"/>
		</g>
		<g>
			<defs>
				<circle id="SVGID_88_" cx="50.5" cy="43.8" r="4"/>
			</defs>
			<clipPath id="SVGID_89_">
				<use xlink:href="#SVGID_88_"  style="overflow:visible;"/>
			</clipPath>
			<rect x="46.6" y="40.4" class="st44" width="7.9" height="0.2"/>
		</g>
		<g>
			<defs>
				<circle id="SVGID_90_" cx="50.5" cy="43.8" r="4"/>
			</defs>
			<clipPath id="SVGID_91_">
				<use xlink:href="#SVGID_90_"  style="overflow:visible;"/>
			</clipPath>
			<rect x="46.6" y="40.2" class="st45" width="7.9" height="0.2"/>
		</g>
		<g>
			<defs>
				<circle id="SVGID_92_" cx="50.5" cy="43.8" r="4"/>
			</defs>
			<clipPath id="SVGID_93_">
				<use xlink:href="#SVGID_92_"  style="overflow:visible;"/>
			</clipPath>
			<rect x="46.6" y="40.1" class="st46" width="7.9" height="0.2"/>
		</g>
		<g>
			<defs>
				<circle id="SVGID_94_" cx="50.5" cy="43.8" r="4"/>
			</defs>
			<clipPath id="SVGID_95_">
				<use xlink:href="#SVGID_94_"  style="overflow:visible;"/>
			</clipPath>
			<rect x="46.6" y="39.9" class="st47" width="7.9" height="0.2"/>
		</g>
		<g>
			<defs>
				<circle id="SVGID_96_" cx="50.5" cy="43.8" r="4"/>
			</defs>
			<clipPath id="SVGID_97_">
				<use xlink:href="#SVGID_96_"  style="overflow:visible;"/>
			</clipPath>
			<polygon class="st48" points="46.6,39.9 54.5,39.9 54.5,39.9 			"/>
		</g>
	</g>
</g>
<g>
	
		<linearGradient id="SVGID_98_" gradientUnits="userSpaceOnUse" x1="27.8562" y1="48.9973" x2="51.522" y2="48.7954" gradientTransform="matrix(1 -8.533533e-03 -8.533533e-03 -1 12.4755 78.417)">
		<stop  offset="0" style="stop-color:#0E48B5"/>
		<stop  offset="1" style="stop-color:#30A2E3"/>
	</linearGradient>
	<circle class="st49" cx="51.7" cy="29.2" r="11.8"/>
	<g>
		<g>
			<defs>
				<path id="SVGID_99_" d="M10.5,28.5C9.1,28.5,8,29.6,8,31v27.4c0,1.4,1.1,2.5,2.5,2.5h55.7c1.4,0,2.5-1.1,2.5-2.5V31
					c0-1.4-1.1-2.5-2.5-2.5H10.5z"/>
			</defs>
			<clipPath id="SVGID_100_">
				<use xlink:href="#SVGID_99_"  style="overflow:visible;"/>
			</clipPath>
			<g class="st50">
				<g>
					
						<linearGradient id="SVGID_101_" gradientUnits="userSpaceOnUse" x1="8" y1="41.3" x2="68.7" y2="41.3" gradientTransform="matrix(1 0 0 -1 0 86)">
						<stop  offset="0" style="stop-color:#F56FAE"/>
						<stop  offset="1" style="stop-color:#FB6874"/>
					</linearGradient>
					<path class="st51" d="M10.5,28.5C9.1,28.5,8,29.6,8,31v27.4c0,1.4,1.1,2.5,2.5,2.5h55.7c1.4,0,2.5-1.1,2.5-2.5V31
						c0-1.4-1.1-2.5-2.5-2.5H10.5z"/>
				</g>
			</g>
			<path class="st52" d="M31.1,61.2L43,46c0,0,0.3-0.4,1-0.5c0.7-0.1,1,0.2,1.7,1.1c0.7,0.9,8,10,8,10v4.5H31.1z"/>
			<linearGradient id="SVGID_102_" gradientUnits="userSpaceOnUse" x1="53.2013" y1="64.7914" x2="59.3725" y2="41.7604">
				<stop  offset="0" style="stop-color:#30A2E3"/>
				<stop  offset="9.141421e-02" style="stop-color:#30B5DD"/>
				<stop  offset="0.2172" style="stop-color:#2FC7D8"/>
				<stop  offset="0.368" style="stop-color:#2FD3D4"/>
				<stop  offset="0.5666" style="stop-color:#2FDBD2"/>
				<stop  offset="1" style="stop-color:#2FDDD1"/>
			</linearGradient>
			<path class="st53" d="M39.6,61.2L55,41.7c0,0,0.4-0.5,1.2-0.6c0.9-0.1,1.2,0.3,2.1,1.4c0.9,1.1,10.3,12.9,10.3,12.9v5.8H39.6z"/>
		</g>
		<g>
			<rect x="15.3" y="37.4" class="st54" width="20.7" height="2.5"/>
			<rect x="15.3" y="42.7" class="st54" width="20" height="0.7"/>
			<rect x="15.3" y="44.7" class="st54" width="25.7" height="0.7"/>
			<path class="st55" d="M29.4,53.5H15.7c-0.3,0-0.5-0.2-0.5-0.5v-3.8c0-0.3,0.2-0.5,0.5-0.5h13.7c0.3,0,0.5,0.2,0.5,0.5V53
				C29.8,53.3,29.6,53.5,29.4,53.5z"/>
		</g>
	</g>
</g>
</svg>
