<?xml version="1.0" encoding="utf-8"?>
<!-- Generator: Adobe Illustrator 21.1.0, SVG Export Plug-In . SVG Version: 6.00 Build 0)  -->
<svg version="1.1" id="Layer_1" xmlns="http://www.w3.org/2000/svg" xmlns:xlink="http://www.w3.org/1999/xlink" x="0px" y="0px"
	 viewBox="0 0 75 83.8" style="enable-background:new 0 0 75 83.8;" xml:space="preserve">
<style type="text/css">
	.st0{fill:url(#SVGID_1_);}
	.st1{fill:url(#SVGID_2_);}
	.st2{fill:#FFFFFF;}
	.st3{fill:url(#SVGID_3_);}
	.st4{fill:url(#SVGID_4_);}
	.st5{fill:#CCCCCC;}
	.st6{fill:url(#SVGID_5_);}
	.st7{fill:url(#SVGID_6_);}
	.st8{fill:url(#SVGID_7_);}
	.st9{fill:url(#SVGID_8_);}
	.st10{fill:url(#SVGID_9_);}
	.st11{fill:url(#SVGID_10_);}
	.st12{fill:url(#SVGID_11_);}
	.st13{fill:url(#SVGID_12_);}
	.st14{fill:url(#SVGID_13_);}
	.st15{fill:url(#SVGID_14_);}
	.st16{fill:#F6F6F6;}
	.st17{fill:url(#SVGID_15_);}
	.st18{fill:url(#SVGID_16_);}
	.st19{fill:#FB6874;}
	.st20{fill:url(#SVGID_17_);}
</style>
<g>
	<g>
		<linearGradient id="SVGID_1_" gradientUnits="userSpaceOnUse" x1="251.6592" y1="159.5625" x2="270.6592" y2="218.5625">
			<stop  offset="0" style="stop-color:#0F39C3"/>
			<stop  offset="1" style="stop-color:#FA96D3"/>
		</linearGradient>
		<path class="st0" d="M289.5,200.3L289.5,200.3L289.5,200.3c0-1.6-0.6-3.1-1.8-4.3l-16-16l17.3-17.3c1.1-1.1,0.3-3-1.3-3h-36.4l0,0
			l0,0l0,0l0,0l0,0v0v0l-16,16c-1.2,1.2-1.8,2.8-1.8,4.3c0,1.6,0.6,3.1,1.8,4.3l16,16v0l0,0h0l-17.3,17.3c-1.1,1.1-0.3,3,1.3,3h36.4
			l0,0v0l0,0l0,0l0,0v0l16-16c0.3-0.3,0.6-0.6,0.8-1C289.2,202.7,289.5,201.5,289.5,200.3L289.5,200.3
			C289.5,200.3,289.5,200.3,289.5,200.3L289.5,200.3z"/>
	</g>
	
		<linearGradient id="SVGID_2_" gradientUnits="userSpaceOnUse" x1="227.1121" y1="219.1904" x2="227.1121" y2="195.5237" gradientTransform="matrix(1 -8.533533e-03 8.533533e-03 1 8.7293 -5.296)">
		<stop  offset="0" style="stop-color:#FB6874"/>
		<stop  offset="1" style="stop-color:#F56FAE"/>
	</linearGradient>
	<circle class="st1" cx="237.6" cy="200.1" r="11.8"/>
	<g>
		<g>
			<g>
				<path class="st2" d="M269.6,183.6v19.6c0,1.5,1.2,2.8,2.8,2.8h13.7c1.5,0,2.8-1.2,2.8-2.8v-19.6H269.6z"/>
				<g>
					<linearGradient id="SVGID_3_" gradientUnits="userSpaceOnUse" x1="269.0875" y1="184.5755" x2="289.42" y2="204.5639">
						<stop  offset="0" style="stop-color:#F2F2F2"/>
						<stop  offset="1" style="stop-color:#B3B3B3"/>
					</linearGradient>
					<path class="st3" d="M270,184.5v18.9c0,1.1,0.9,2.1,2.1,2.1h14.4c1.1,0,2.1-0.9,2.1-2.1v-18.9h0.9v18.9c0,1.6-1.3,2.9-2.9,2.9
						h-14.4c-1.6,0-2.9-1.3-2.9-2.9v-18.9"/>
				</g>
				<linearGradient id="SVGID_4_" gradientUnits="userSpaceOnUse" x1="271.1635" y1="178.8479" x2="289.3585" y2="178.8479">
					<stop  offset="0" style="stop-color:#30A2E3"/>
					<stop  offset="1" style="stop-color:#2FDDD1"/>
				</linearGradient>
				<path class="st4" d="M287.3,173.2h-14c-1.2,0-2.1,0.9-2.1,2.1v9.2h18.2v-9.2C289.4,174.1,288.4,173.2,287.3,173.2z"/>
				<g>
					<path class="st2" d="M281.6,177.1c-0.3-0.2-0.6-0.4-0.9-0.5v1.6c1.1,0.4,1.5,0.9,1.5,1.7v0c0,0.8-0.6,1.4-1.5,1.5v0.8H280v-0.8
						c-0.6-0.1-1.2-0.3-1.7-0.8l0.5-0.7c0.4,0.3,0.7,0.6,1.2,0.6V179c-1-0.4-1.5-0.8-1.5-1.7v0c0-0.8,0.6-1.4,1.5-1.5v-0.5h0.6v0.5
						c0.5,0.1,1,0.3,1.4,0.6L281.6,177.1z M280,178v-1.4c-0.4,0.1-0.6,0.3-0.6,0.7v0C279.5,177.5,279.6,177.7,280,178z M280.7,179.2
						v1.5c0.4-0.1,0.6-0.3,0.6-0.7v0C281.3,179.6,281.1,179.4,280.7,179.2z"/>
				</g>
				<g>
					<rect x="274.3" y="187.9" class="st5" width="11.8" height="0.8"/>
					<rect x="274.3" y="190.2" class="st5" width="11.8" height="0.8"/>
					<polyline class="st5" points="284,193.3 274.3,193.3 274.3,192.5 286.2,192.5 286.2,193.3 284,193.3 					"/>
					<rect x="274.3" y="194.9" class="st5" width="11.8" height="0.8"/>
				</g>
				<linearGradient id="SVGID_5_" gradientUnits="userSpaceOnUse" x1="274.3676" y1="199.9615" x2="286.1544" y2="199.9615">
					<stop  offset="1.241987e-03" style="stop-color:#FB993C"/>
					<stop  offset="0.9988" style="stop-color:#FFC58E"/>
				</linearGradient>
				<path class="st6" d="M285.6,202.3h-10.7c-0.3,0-0.5-0.2-0.5-0.5v-3.7c0-0.3,0.2-0.5,0.5-0.5h10.7c0.3,0,0.5,0.2,0.5,0.5v3.7
					C286.2,202.1,285.9,202.3,285.6,202.3z"/>
			</g>
			<g>
				<path class="st2" d="M234.2,183.6v19.6c0,1.5,1.2,2.8,2.8,2.8h14.7c1.5,0,2.8-1.2,2.8-2.8v-19.6H234.2z"/>
				<g>
					<linearGradient id="SVGID_6_" gradientUnits="userSpaceOnUse" x1="233.9206" y1="184.3256" x2="254.7616" y2="204.8139">
						<stop  offset="0" style="stop-color:#F2F2F2"/>
						<stop  offset="1" style="stop-color:#B3B3B3"/>
					</linearGradient>
					<path class="st7" d="M234.6,184.5v18.9c0,1.1,0.9,2.1,2.1,2.1H252c1.1,0,2.1-0.9,2.1-2.1v-18.9h0.9v18.9c0,1.6-1.3,2.9-2.9,2.9
						h-15.4c-1.6,0-2.9-1.3-2.9-2.9v-18.9"/>
				</g>
				<linearGradient id="SVGID_7_" gradientUnits="userSpaceOnUse" x1="233.7509" y1="178.8479" x2="251.9458" y2="178.8479">
					<stop  offset="0" style="stop-color:#30A2E3"/>
					<stop  offset="1" style="stop-color:#2FDDD1"/>
				</linearGradient>
				<path class="st8" d="M249.8,173.2h-14c-1.2,0-2.1,0.9-2.1,2.1v9.2h18.2v-9.2C251.9,174.1,251,173.2,249.8,173.2z"/>
				<g>
					<path class="st2" d="M244.2,177.1c-0.3-0.2-0.6-0.4-0.9-0.5v1.6c1.1,0.4,1.5,0.9,1.5,1.7v0c0,0.8-0.6,1.4-1.5,1.5v0.8h-0.6
						v-0.8c-0.6-0.1-1.2-0.3-1.7-0.8l0.5-0.7c0.4,0.3,0.7,0.6,1.2,0.6V179c-1-0.4-1.5-0.8-1.5-1.7v0c0-0.8,0.6-1.4,1.5-1.5v-0.5h0.6
						v0.5c0.5,0.1,1,0.3,1.4,0.6L244.2,177.1z M242.6,178v-1.4c-0.4,0.1-0.6,0.3-0.6,0.7v0C242.1,177.5,242.2,177.7,242.6,178z
						 M243.2,179.2v1.5c0.4-0.1,0.6-0.3,0.6-0.7v0C243.9,179.6,243.7,179.4,243.2,179.2z"/>
				</g>
				<g>
					<rect x="236.9" y="187.9" class="st5" width="11.8" height="0.8"/>
					<rect x="236.9" y="190.2" class="st5" width="11.8" height="0.8"/>
					<polyline class="st5" points="246.6,193.3 236.9,193.3 236.9,192.5 248.8,192.5 248.8,193.3 246.6,193.3 					"/>
					<rect x="236.9" y="194.9" class="st5" width="11.8" height="0.8"/>
				</g>
				<linearGradient id="SVGID_8_" gradientUnits="userSpaceOnUse" x1="236.955" y1="199.9615" x2="248.7417" y2="199.9615">
					<stop  offset="1.241987e-03" style="stop-color:#FB993C"/>
					<stop  offset="0.9988" style="stop-color:#FFC58E"/>
				</linearGradient>
				<path class="st9" d="M248.2,202.3h-10.7c-0.3,0-0.5-0.2-0.5-0.5v-3.7c0-0.3,0.2-0.5,0.5-0.5h10.7c0.3,0,0.5,0.2,0.5,0.5v3.7
					C248.7,202.1,248.5,202.3,248.2,202.3z"/>
			</g>
		</g>
		<g>
			<path class="st2" d="M251.4,183.4v23c0,1.8,1.5,3.3,3.3,3.3h13.8c1.8,0,3.3-1.5,3.3-3.3v-23H251.4z"/>
			<g>
				<linearGradient id="SVGID_9_" gradientUnits="userSpaceOnUse" x1="250.218" y1="185.1226" x2="272.8743" y2="207.3956">
					<stop  offset="0" style="stop-color:#F2F2F2"/>
					<stop  offset="1" style="stop-color:#B3B3B3"/>
				</linearGradient>
				<path class="st10" d="M251.9,184.4v22.2c0,1.3,1.1,2.4,2.4,2.4h14.5c1.3,0,2.4-1.1,2.4-2.4v-22.2h1v22.2c0,1.9-1.5,3.4-3.4,3.4
					h-14.5c-1.9,0-3.4-1.5-3.4-3.4v-22.2"/>
			</g>
			<linearGradient id="SVGID_10_" gradientUnits="userSpaceOnUse" x1="250.8836" y1="177.2314" x2="272.2257" y2="177.2314">
				<stop  offset="0" style="stop-color:#30A2E3"/>
				<stop  offset="1" style="stop-color:#2FDDD1"/>
			</linearGradient>
			<path class="st11" d="M269.8,170h-16.4c-1.4,0-2.5,1.1-2.5,2.5v11.9h21.3v-11.9C272.2,171.1,271.1,170,269.8,170z"/>
			<g>
				<path class="st2" d="M263.1,175.7c-0.3-0.3-0.7-0.5-1.1-0.6v1.9c1.3,0.5,1.8,1.1,1.8,2v0c0,1-0.7,1.7-1.8,1.8v1h-0.8v-1
					c-0.7-0.1-1.4-0.4-2-0.9l0.6-0.8c0.4,0.4,0.9,0.7,1.4,0.8v-2c-1.2-0.5-1.7-1-1.7-1.9v0c0-1,0.7-1.6,1.7-1.8v-0.6h0.8v0.6
					c0.6,0.1,1.2,0.3,1.6,0.7L263.1,175.7z M261.3,176.8v-1.6c-0.5,0.1-0.7,0.4-0.7,0.8v0C260.6,176.3,260.8,176.5,261.3,176.8z
					 M262,178.2v1.7c0.5-0.1,0.7-0.4,0.7-0.8v0C262.7,178.7,262.6,178.5,262,178.2z"/>
			</g>
			<g>
				<rect x="254.6" y="188.4" class="st5" width="13.9" height="0.9"/>
				<rect x="254.6" y="191.1" class="st5" width="13.9" height="0.9"/>
				<polyline class="st5" points="266,194.8 254.6,194.8 254.6,193.9 268.5,193.9 268.5,194.8 266,194.8 				"/>
				<rect x="254.6" y="196.6" class="st5" width="13.9" height="0.9"/>
			</g>
			<linearGradient id="SVGID_11_" gradientUnits="userSpaceOnUse" x1="254.642" y1="202.5835" x2="268.4674" y2="202.5835">
				<stop  offset="1.241987e-03" style="stop-color:#FB993C"/>
				<stop  offset="0.9988" style="stop-color:#FFC58E"/>
			</linearGradient>
			<path class="st12" d="M267.8,205.4h-12.6c-0.4,0-0.6-0.3-0.6-0.6v-4.3c0-0.4,0.3-0.6,0.6-0.6h12.6c0.4,0,0.6,0.3,0.6,0.6v4.3
				C268.5,205.1,268.2,205.4,267.8,205.4z"/>
		</g>
	</g>
</g>
<g>
	<linearGradient id="SVGID_12_" gradientUnits="userSpaceOnUse" x1="28.9662" y1="11.5188" x2="48.6772" y2="72.7267">
		<stop  offset="0" style="stop-color:#0E48B5"/>
		<stop  offset="0.4838" style="stop-color:#30A2E3"/>
		<stop  offset="1" style="stop-color:#6BF9EB"/>
	</linearGradient>
	<path class="st13" d="M66.8,52.3L66.8,52.3L66.8,52.3c0-1.6-0.6-3.1-1.8-4.3l-16-16l17.3-17.3c1.1-1.1,0.3-3-1.3-3H28.6l0,0l0,0
		l0,0l0,0l0,0v0v0l-16,16c-1.2,1.2-1.8,2.8-1.8,4.3c0,1.6,0.6,3.1,1.8,4.3l16,16v0l0,0h0L11.4,69.6c-1.1,1.1-0.3,3,1.3,3H49l0,0v0
		l0,0l0,0l0,0v0l16-16c0.3-0.3,0.6-0.6,0.8-1C66.5,54.6,66.8,53.5,66.8,52.3L66.8,52.3C66.8,52.3,66.8,52.3,66.8,52.3L66.8,52.3z"/>
	<linearGradient id="SVGID_13_" gradientUnits="userSpaceOnUse" x1="57.4031" y1="72.623" x2="57.4031" y2="16.3976">
		<stop  offset="0" style="stop-color:#F56FAE"/>
		<stop  offset="1" style="stop-color:#FA96D3"/>
	</linearGradient>
	<path class="st14" d="M69.3,35.6L57.9,16.7c-0.2-0.4-0.8-0.4-1,0L45.5,35.6c-0.2,0.4,0,0.9,0.5,0.9l7.3,0V72c0,0.3,0.3,0.6,0.6,0.6
		h7.1c0.3,0,0.6-0.3,0.6-0.6V36.5l7.3,0C69.3,36.5,69.6,36,69.3,35.6z"/>
	<linearGradient id="SVGID_14_" gradientUnits="userSpaceOnUse" x1="17.8518" y1="43.2144" x2="41.5185" y2="43.2144">
		<stop  offset="1.241987e-03" style="stop-color:#FB993C"/>
		<stop  offset="0.9988" style="stop-color:#FFC58E"/>
	</linearGradient>
	<circle class="st15" cx="29.7" cy="43.2" r="11.8"/>
	<g>
		<g>
			<g>
				<path class="st2" d="M21.5,45.7c0-1.5-1.2-2.7-2.7-2.7h-4.9c-1.5,0-2.7,1.2-2.7,2.7v5.2c1.7,0,2.6,0.6,3.5,1.2
					c0.9,0.6,1.7,1.2,3.4,1.2c1.7,0,2.5-0.6,3.4-1.2v7.1c0,0,0,0,0,0V45.7z"/>
				<path class="st16" d="M18.1,53.2c-1.7,0-2.5-0.6-3.4-1.2c-0.9-0.6-1.7-1.2-3.5-1.2v6.5c0,1.4,1.1,2.5,2.5,2.5H19
					c1.4,0,2.5-1.1,2.5-2.5v-5.3C20.6,52.7,19.8,53.2,18.1,53.2z"/>
			</g>
			<linearGradient id="SVGID_15_" gradientUnits="userSpaceOnUse" x1="9.9217" y1="45.0629" x2="22.9451" y2="57.8659">
				<stop  offset="0" style="stop-color:#F2F2F2"/>
				<stop  offset="1" style="stop-color:#B3B3B3"/>
			</linearGradient>
			<path class="st17" d="M18.9,60.5H14c-1.9,0-3.4-1.5-3.4-3.4V45.8c0-1.9,1.5-3.4,3.4-3.4h4.9c1.9,0,3.4,1.5,3.4,3.4v11.3
				C22.3,59,20.8,60.5,18.9,60.5z M14,43.4c-1.3,0-2.4,1.1-2.4,2.4v11.3c0,1.3,1.1,2.4,2.4,2.4h4.9c1.3,0,2.4-1.1,2.4-2.4V45.8
				c0-1.3-1.1-2.4-2.4-2.4H14z"/>
		</g>
		<g>
			<g>
				<path class="st2" d="M34.8,45.6c0-1.5-1.2-2.7-2.7-2.7h-4.9c-1.5,0-2.7,1.2-2.7,2.7v5.2c1.7,0,2.6,0.6,3.5,1.2
					c0.9,0.6,1.7,1.2,3.4,1.2c1.7,0,2.5-0.6,3.4-1.2v7c0,0,0,0,0,0V45.6z"/>
				<path class="st16" d="M31.4,53.2c-1.7,0-2.5-0.6-3.4-1.2c-0.9-0.6-1.7-1.2-3.5-1.2v6.5c0,1.4,1.1,2.4,2.5,2.4h5.3
					c1.4,0,2.5-1.1,2.5-2.4V52C33.9,52.6,33.1,53.2,31.4,53.2z"/>
			</g>
			<linearGradient id="SVGID_16_" gradientUnits="userSpaceOnUse" x1="23.2034" y1="45.0271" x2="36.1705" y2="57.7748">
				<stop  offset="0" style="stop-color:#F2F2F2"/>
				<stop  offset="1" style="stop-color:#B3B3B3"/>
			</linearGradient>
			<path class="st18" d="M32.1,60.4h-4.9c-1.9,0-3.4-1.5-3.4-3.4V45.8c0-1.9,1.5-3.4,3.4-3.4h4.9c1.9,0,3.4,1.5,3.4,3.4V57
				C35.5,58.9,34,60.4,32.1,60.4z M27.2,43.4c-1.3,0-2.4,1.1-2.4,2.4V57c0,1.3,1.1,2.4,2.4,2.4h4.9c1.3,0,2.4-1.1,2.4-2.4V45.8
				c0-1.3-1.1-2.4-2.4-2.4H27.2z"/>
		</g>
		<g>
			<path class="st2" d="M48,45.6c0-1.5-1.2-2.7-2.7-2.7h-4.9c-1.5,0-2.7,1.2-2.7,2.7v5.2c1.7,0,2.6,0.6,3.5,1.2
				c0.9,0.6,1.7,1.2,3.4,1.2c1.7,0,2.5-0.6,3.4-1.2v7c0,0,0,0,0,0V45.6z"/>
			<path class="st16" d="M44.6,53.2c-1.7,0-2.5-0.6-3.4-1.2c-0.9-0.6-1.7-1.2-3.5-1.2v6.5c0,1.4,1.1,2.4,2.5,2.4h5.3
				c1.4,0,2.5-1.1,2.5-2.4V52C47.1,52.6,46.3,53.2,44.6,53.2z"/>
		</g>
		<g>
			<path class="st19" d="M15.8,49.2l-1.5,0.4L14,48l2.4-0.7h1.3v8.5h-1.8V49.2z"/>
		</g>
		<g>
			<path class="st19" d="M26.6,54.1l2.8-2.3c0.3-0.2,0.5-0.4,0.7-0.6c0.2-0.2,0.3-0.3,0.4-0.5c0.1-0.2,0.2-0.3,0.3-0.5
				c0.1-0.1,0.1-0.3,0.1-0.5c0-0.4-0.1-0.6-0.3-0.8c-0.2-0.2-0.5-0.3-0.8-0.3c-0.3,0-0.6,0.1-0.9,0.3c-0.3,0.2-0.5,0.5-0.8,0.9
				l-1.3-1c0.2-0.3,0.4-0.5,0.6-0.7c0.2-0.2,0.4-0.4,0.7-0.5c0.2-0.1,0.5-0.3,0.8-0.3c0.3-0.1,0.6-0.1,1-0.1c0.4,0,0.8,0.1,1.2,0.2
				s0.7,0.3,0.9,0.5c0.3,0.2,0.4,0.5,0.6,0.8c0.1,0.3,0.2,0.7,0.2,1.1v0c0,0.4,0,0.7-0.1,0.9c-0.1,0.3-0.2,0.5-0.4,0.8
				c-0.2,0.2-0.4,0.5-0.7,0.7c-0.3,0.2-0.6,0.5-1,0.8l-1.4,1.1h3.7v1.6h-6.2V54.1z"/>
		</g>
		<g>
			<path class="st19" d="M43.9,44.4l-2,2l0.3,1.2h0.8c0.5,0,0.9,0.1,1.2,0.3c0.3,0.2,0.4,0.4,0.4,0.8v0c0,0.3-0.1,0.6-0.3,0.7
				c-0.2,0.2-0.5,0.3-0.9,0.3c-0.4,0-0.8-0.1-1.1-0.3c-0.3-0.2-0.6-0.4-0.9-0.8l-1.3,1.2c0.4,0.4,0.8,0.8,1.3,1.1
				c0.5,0.3,1.2,0.4,1.9,0.4c0.5,0,0.9-0.1,1.3-0.2c0.4-0.1,0.7-0.3,1-0.6c0.3-0.2,0.5-0.5,0.6-0.9c0.1-0.3,0.2-0.7,0.2-1.1v0
				c0-0.4-0.1-0.7-0.2-1s-0.3-0.5-0.5-0.7s-0.5-0.3-0.7-0.4c-0.3-0.1-0.5-0.2-0.8-0.2l2.1-2v-0.9c-0.3-0.1-0.6-0.2-1-0.2h-4.7v1.3
				H43.9z"/>
			<path class="st19" d="M45.8,58.8v-5.1h-1.6L39.6,59l0.3,1.2c0.1,0,0.2,0,0.3,0h5.3c0.5,0,1-0.1,1.3-0.4v-1.1H45.8z M44,58.8h-2.2
				l2.2-2.6V58.8z"/>
		</g>
		<linearGradient id="SVGID_17_" gradientUnits="userSpaceOnUse" x1="36.4534" y1="45.0271" x2="49.4205" y2="57.7748">
			<stop  offset="0" style="stop-color:#F2F2F2"/>
			<stop  offset="1" style="stop-color:#B3B3B3"/>
		</linearGradient>
		<path class="st20" d="M45.4,60.4h-4.9c-1.9,0-3.4-1.5-3.4-3.4V45.8c0-1.9,1.5-3.4,3.4-3.4h4.9c1.9,0,3.4,1.5,3.4,3.4V57
			C48.8,58.9,47.3,60.4,45.4,60.4z M40.5,43.4c-1.3,0-2.4,1.1-2.4,2.4V57c0,1.3,1.1,2.4,2.4,2.4h4.9c1.3,0,2.4-1.1,2.4-2.4V45.8
			c0-1.3-1.1-2.4-2.4-2.4H40.5z"/>
	</g>
</g>
</svg>
