<?xml version="1.0" encoding="utf-8"?>
<!-- Generator: Adobe Illustrator 21.1.0, SVG Export Plug-In . SVG Version: 6.00 Build 0)  -->
<svg version="1.1" id="Layer_1" xmlns="http://www.w3.org/2000/svg" xmlns:xlink="http://www.w3.org/1999/xlink" x="0px" y="0px"
	 viewBox="0 0 75 83.8" style="enable-background:new 0 0 75 83.8;" xml:space="preserve">
<style type="text/css">
	.st0{fill:url(#SVGID_1_);}
	.st1{fill:url(#SVGID_2_);}
	.st2{fill:#FFFFFF;}
	.st3{fill:url(#SVGID_3_);}
</style>
<g>
	<linearGradient id="SVGID_1_" gradientUnits="userSpaceOnUse" x1="28.431" y1="11.4548" x2="47.431" y2="70.4548">
		<stop  offset="0" style="stop-color:#91D9F9"/>
		<stop  offset="0.496" style="stop-color:#30A2E3"/>
		<stop  offset="0.9483" style="stop-color:#8859F1"/>
	</linearGradient>
	<path class="st0" d="M66.3,52.2L66.3,52.2L66.3,52.2c0-1.6-0.6-3.1-1.8-4.3l-16-16l17.3-17.3c1.1-1.1,0.3-3-1.3-3H28.1l0,0l0,0l0,0
		l0,0l0,0v0v0l-16,16c-1.2,1.2-1.8,2.8-1.8,4.3c0,1.6,0.6,3.1,1.8,4.3l16,16v0l0,0h0L10.8,69.5c-1.1,1.1-0.3,3,1.3,3h36.4l0,0v0l0,0
		l0,0l0,0v0l16-16c0.3-0.3,0.6-0.6,0.8-1C65.9,54.6,66.3,53.4,66.3,52.2L66.3,52.2C66.3,52.2,66.3,52.2,66.3,52.2L66.3,52.2z"/>
	<g>
		<g>
			<linearGradient id="SVGID_2_" gradientUnits="userSpaceOnUse" x1="17.5377" y1="48.708" x2="69.4408" y2="48.708">
				<stop  offset="0" style="stop-color:#FC7D76"/>
				<stop  offset="1" style="stop-color:#FCAC60"/>
			</linearGradient>
			<path class="st1" d="M32.2,58.1h34.7c1.4,0,2.5-1.1,2.5-2.5V33.1c0-1.4-1.1-2.5-2.5-2.5H20c-1.4,0-2.5,1.1-2.5,2.5v22.5
				c0,1.4,1.1,2.5,2.5,2.5h2.3v7.8c0,0,0.2,2,1.9,0.3C25.9,64.5,32.2,58.1,32.2,58.1z"/>
			<g>
				<rect x="27.8" y="38.3" class="st2" width="31.3" height="0.9"/>
				<rect x="25.8" y="41.2" class="st2" width="35.4" height="0.9"/>
				<rect x="25.8" y="44" class="st2" width="35.4" height="0.9"/>
				<rect x="29.9" y="46.8" class="st2" width="27.3" height="0.9"/>
				<rect x="30.9" y="49.7" class="st2" width="25.2" height="0.9"/>
			</g>
		</g>
		<g>
			<linearGradient id="SVGID_3_" gradientUnits="userSpaceOnUse" x1="15.4527" y1="38.7842" x2="15.4527" y2="15.1172">
				<stop  offset="0" style="stop-color:#30A2E3"/>
				<stop  offset="1" style="stop-color:#2FDDD1"/>
			</linearGradient>
			<circle class="st3" cx="15.5" cy="27" r="11.8"/>
			<path class="st2" d="M14.3,23.9c-1.6,0.8-2.4,1.7-2.4,2.8c0.7,0.1,1.3,0.3,1.7,0.8c0.5,0.5,0.7,1,0.7,1.6c0,0.7-0.2,1.2-0.6,1.7
				c-0.4,0.5-1,0.7-1.6,0.7c-0.7,0-1.4-0.3-1.9-0.9s-0.8-1.3-0.8-2.2c0-2.5,1.3-4.6,4.1-6.1L14.3,23.9z M21.5,23.7
				c-1.6,0.8-2.4,1.7-2.3,2.8c0.7,0.1,1.2,0.3,1.7,0.8c0.5,0.5,0.7,1,0.7,1.6c0,0.7-0.2,1.2-0.6,1.7c-0.4,0.5-1,0.7-1.6,0.7
				c-0.7,0-1.4-0.3-1.9-0.9c-0.5-0.6-0.8-1.3-0.8-2.2c0-2.5,1.3-4.6,4.2-6.1L21.5,23.7z"/>
		</g>
	</g>
</g>
</svg>
