<?xml version="1.0" encoding="utf-8"?>
<!-- Generator: Adobe Illustrator 21.1.0, SVG Export Plug-In . SVG Version: 6.00 Build 0)  -->
<svg version="1.1" id="Layer_1" xmlns="http://www.w3.org/2000/svg" xmlns:xlink="http://www.w3.org/1999/xlink" x="0px" y="0px"
	 viewBox="0 0 75 83.8" style="enable-background:new 0 0 75 83.8;" xml:space="preserve">
<style type="text/css">
	.st0{fill:url(#SVGID_1_);}
	.st1{fill:url(#SVGID_2_);}
	.st2{fill:#FFFFFF;}
	.st3{fill:url(#SVGID_3_);}
	.st4{fill:url(#SVGID_4_);}
	.st5{fill:url(#SVGID_5_);}
</style>
<g>
	
		<linearGradient id="SVGID_1_" gradientUnits="userSpaceOnUse" x1="36.5659" y1="4.753" x2="55.5659" y2="63.753" gradientTransform="matrix(1 8.583571e-03 -8.583571e-03 1 -8.0751 6.2184)">
		<stop  offset="0" style="stop-color:#91D9F9"/>
		<stop  offset="0.496" style="stop-color:#30A2E3"/>
		<stop  offset="0.9483" style="stop-color:#8859F1"/>
	</linearGradient>
	<path class="st0" d="M65.9,52.4L65.9,52.4L65.9,52.4c0-1.6-0.6-3.1-1.8-4.3L48.3,31.9l17.4-17.1c1.1-1.1,0.4-3-1.2-3l-36.4-0.3l0,0
		l0,0l0,0l0,0l0,0l0,0l0,0L12,27.3c-1.2,1.2-1.8,2.7-1.8,4.3c0,1.6,0.6,3.1,1.7,4.3l15.9,16.2l0,0l0,0h0L10.4,69.2
		c-1.1,1.1-0.4,3,1.2,3L48,72.6l0,0l0,0l0,0l0,0l0,0v0l16.2-15.9c0.3-0.3,0.6-0.6,0.8-0.9C65.6,54.7,65.9,53.6,65.9,52.4L65.9,52.4
		C65.9,52.4,65.9,52.4,65.9,52.4L65.9,52.4z"/>
	<g>
		
			<linearGradient id="SVGID_2_" gradientUnits="userSpaceOnUse" x1="-1759.5455" y1="-2101.3237" x2="-1759.5455" y2="-2117.9216" gradientTransform="matrix(-1 0 0 -1 -1708.8046 -2070.1875)">
			<stop  offset="0" style="stop-color:#FB6874"/>
			<stop  offset="1" style="stop-color:#FC7D76"/>
		</linearGradient>
		<circle class="st1" cx="50.7" cy="39.4" r="8.3"/>
		<g>
			<path class="st2" d="M50.7,33.4c3.3,0,6,2.7,6,6c0,3.3-2.7,6-6,6c-3.3,0-6-2.7-6-6C44.7,36.1,47.4,33.4,50.7,33.4z M50.7,44.5
				c2.8,0,5-2.3,5-5c0-2.8-2.3-5-5-5c-2.8,0-5,2.3-5,5C45.7,42.2,48,44.5,50.7,44.5z"/>
			<g>
				<g>
					<path class="st2" d="M50.7,40.9c-0.4,0-0.7-0.3-0.7-0.7v-3.9c0-0.4,0.3-0.7,0.7-0.7s0.7,0.3,0.7,0.7v3.9
						C51.4,40.6,51.1,40.9,50.7,40.9z"/>
				</g>
			</g>
			<g>
				<g>
					<circle class="st2" cx="50.7" cy="42.5" r="0.7"/>
				</g>
			</g>
		</g>
	</g>
	<g>
		<linearGradient id="SVGID_3_" gradientUnits="userSpaceOnUse" x1="29.8082" y1="69.0274" x2="29.8082" y2="45.3604">
			<stop  offset="0" style="stop-color:#30A2E3"/>
			<stop  offset="1" style="stop-color:#2FDDD1"/>
		</linearGradient>
		<circle class="st3" cx="29.8" cy="57.2" r="11.8"/>
		<g>
			<path class="st2" d="M26.9,62.9c-0.2,0-0.4-0.1-0.6-0.2L22.7,59c-0.3-0.3-0.3-0.9,0-1.2c0.3-0.3,0.9-0.3,1.2,0l3.1,3.1l7.8-7.8
				c0.3-0.3,0.9-0.3,1.2,0c0.3,0.3,0.3,0.9,0,1.2l-8.4,8.4C27.4,62.8,27.2,62.9,26.9,62.9z"/>
		</g>
	</g>
	<g>
		
			<linearGradient id="SVGID_4_" gradientUnits="userSpaceOnUse" x1="17.8628" y1="43.9292" x2="17.8628" y2="15.2719" gradientTransform="matrix(1 -8.533533e-03 8.533533e-03 1 9.6433 -6.8288)">
			<stop  offset="1.241987e-03" style="stop-color:#FB993C"/>
			<stop  offset="0.9988" style="stop-color:#FFC58E"/>
		</linearGradient>
		<circle class="st4" cx="27.8" cy="22.6" r="14.3"/>
		<g>
			<g>
				<g>
					<g>
						<g>
							<path class="st2" d="M27.8,23.6c-0.5,0-1-0.4-1-1v-3.9c0-0.5,0.4-1,1-1s1,0.4,1,1v3.9C28.7,23.1,28.3,23.6,27.8,23.6z"/>
						</g>
					</g>
					<g>
						<g>
							<circle class="st2" cx="27.8" cy="25.8" r="1"/>
						</g>
					</g>
					<path class="st2" d="M34.6,30H20.9c-1.5,0-2.7-1.2-2.7-2.7c0-0.5,0.1-0.9,0.4-1.3l6.9-11.8c0-0.1,0.1-0.1,0.1-0.2
						c0,0,0-0.1,0.1-0.1c0.1-0.1,0.2-0.2,0.3-0.3c0.1,0,0.1-0.1,0.1-0.1c0.1,0,0.1-0.1,0.2-0.1c0.1,0,0.1-0.1,0.2-0.1
						c0.1,0,0.1-0.1,0.2-0.1c0.1,0,0.2-0.1,0.3-0.1c0.1,0,0.1,0,0.2,0c0.1,0,0.3,0,0.4,0l0.1,0l0,0c0.1,0,0.3,0,0.4,0
						c0,0,0.1,0,0.2,0c0.1,0,0.2,0.1,0.3,0.1c0.1,0,0.1,0.1,0.2,0.1c0.1,0,0.2,0.1,0.2,0.1c0.1,0,0.1,0.1,0.2,0.1
						c0,0,0.1,0.1,0.1,0.1c0.1,0.1,0.2,0.2,0.3,0.3c0,0,0.1,0.1,0.1,0.1c0.1,0.1,0.1,0.1,0.2,0.2l0,0L36.9,26
						c0.2,0.4,0.4,0.9,0.4,1.3C37.3,28.8,36.1,30,34.6,30z M26.6,14.9l-6.8,11.7c-0.1,0.2-0.2,0.4-0.2,0.7c0,0.7,0.6,1.3,1.3,1.3
						h13.7c0.7,0,1.3-0.6,1.3-1.3c0-0.2-0.1-0.5-0.2-0.7l0,0l-6.8-11.7c0-0.1-0.1-0.1-0.1-0.1l0,0c-0.1-0.1-0.1-0.1-0.2-0.2
						c0,0-0.1,0-0.1-0.1c0,0-0.1,0-0.1-0.1c0,0-0.1,0-0.1-0.1c0,0-0.1,0-0.1,0c-0.1,0-0.1,0-0.2-0.1c0,0,0,0-0.1,0
						c-0.1,0-0.2,0-0.2,0l0,0c0,0,0,0,0,0c-0.1,0-0.1,0-0.2,0c0,0-0.1,0-0.1,0c-0.1,0-0.1,0-0.2,0.1c0,0-0.1,0-0.1,0.1
						c0,0-0.1,0-0.1,0.1c0,0-0.1,0-0.1,0.1c0,0,0,0,0,0c-0.1,0.1-0.1,0.1-0.2,0.2l0,0C26.7,14.8,26.6,14.9,26.6,14.9L26.6,14.9z
						 M27.9,12.9L27.9,12.9C27.9,12.9,27.9,12.9,27.9,12.9z"/>
				</g>
			</g>
		</g>
	</g>
	<g>
		<linearGradient id="SVGID_5_" gradientUnits="userSpaceOnUse" x1="46.2608" y1="28.3976" x2="46.2608" y2="16.8389">
			<stop  offset="0" style="stop-color:#0E48B5"/>
			<stop  offset="1" style="stop-color:#30A2E3"/>
		</linearGradient>
		<circle class="st5" cx="46.3" cy="22.6" r="5.8"/>
		<g>
			<g>
				<g>
					<path class="st2" d="M46.3,21.5c0.3,0,0.5,0.2,0.5,0.5v3c0,0.3-0.2,0.5-0.5,0.5s-0.5-0.2-0.5-0.5v-3
						C45.7,21.7,46,21.5,46.3,21.5z"/>
				</g>
			</g>
			<g>
				<g>
					<circle class="st2" cx="46.3" cy="20.3" r="0.5"/>
				</g>
			</g>
		</g>
	</g>
</g>
</svg>
