<?xml version="1.0" encoding="utf-8"?>
<!-- Generator: Adobe Illustrator 23.1.0, SVG Export Plug-In . SVG Version: 6.00 Build 0)  -->
<svg version="1.1" id="Layer_1" xmlns="http://www.w3.org/2000/svg" xmlns:xlink="http://www.w3.org/1999/xlink" x="0px" y="0px"
	 viewBox="0 0 75 83.8" style="enable-background:new 0 0 75 83.8;" xml:space="preserve">
<style type="text/css">
	.st0{fill:url(#SVGID_1_);}
	.st1{fill:url(#SVGID_2_);}
	.st2{fill:#FFFFFF;}
	.st3{fill:url(#SVGID_3_);}
	.st4{fill:url(#SVGID_4_);}
	.st5{fill:url(#SVGID_5_);}
	.st6{fill:url(#SVGID_6_);}
	.st7{fill:url(#SVGID_7_);}
	.st8{fill:url(#SVGID_8_);}
	.st9{fill:url(#SVGID_9_);}
	.st10{fill:url(#SVGID_10_);}
	.st11{fill:#F6F6F6;}
	.st12{fill:url(#SVGID_11_);}
	.st13{fill:url(#SVGID_12_);}
	.st14{fill:url(#SVGID_13_);}
	.st15{fill:url(#SVGID_14_);}
</style>
<g>
	
		<linearGradient id="SVGID_1_" gradientUnits="userSpaceOnUse" x1="31.9203" y1="61.2625" x2="51.5626" y2="0.2575" gradientTransform="matrix(1 0 0 -1 -0.9 72.66)">
		<stop  offset="0" style="stop-color:#0E48B5"/>
		<stop  offset="0.48" style="stop-color:#30A2E3"/>
		<stop  offset="1" style="stop-color:#6BF9EB"/>
	</linearGradient>
	<path class="st0" d="M68.7,52L68.7,52c0-1.6-0.7-3.2-1.8-4.3l-16-16l17.3-17.2c0.7-0.7,0.7-1.8,0-2.5c-0.3-0.3-0.8-0.5-1.2-0.5
		H30.7l0,0l0,0l0,0l0,0l-16,16c-2.4,2.4-2.4,6.2,0,8.6c0,0,0,0,0,0l16,16l0,0l0,0l0,0L13.5,69.3c-0.7,0.7-0.7,1.8,0,2.5
		c0.3,0.3,0.8,0.5,1.2,0.5H51l16-16C68.1,55.2,68.8,53.6,68.7,52L68.7,52L68.7,52z"/>
	
		<linearGradient id="SVGID_2_" gradientUnits="userSpaceOnUse" x1="3.7319" y1="18.1517" x2="27.3319" y2="18.1517" gradientTransform="matrix(1 0 0 -1 -0.901 72.6561)">
		<stop  offset="0" style="stop-color:#FB993C"/>
		<stop  offset="1" style="stop-color:#FFC58E"/>
	</linearGradient>
	<circle class="st1" cx="14.6" cy="54.5" r="11.8"/>
	<path class="st2" d="M14.6,38.9v19.5c0,1.9,1.5,3.4,3.4,3.4h36.4c1.9,0,3.4-1.5,3.4-3.4V38.9c-7,2.3-14.3,3.5-21.6,3.4
		C28.9,42.4,21.6,41.2,14.6,38.9z"/>
	
		<linearGradient id="SVGID_3_" gradientUnits="userSpaceOnUse" x1="37.1565" y1="10.905" x2="37.1565" y2="54.135" gradientTransform="matrix(1 0 0 -1 -0.9 72.66)">
		<stop  offset="0" style="stop-color:#30A2E3"/>
		<stop  offset="1" style="stop-color:#2FDDD1"/>
	</linearGradient>
	<path class="st3" d="M54.5,18.5H18c-1.9,0-3.4,1.5-3.4,3.4v17c7,2.3,14.3,3.5,21.6,3.4c7.3,0,14.6-1.1,21.6-3.4V21.9
		C57.9,20.1,56.3,18.5,54.5,18.5z"/>
	
		<linearGradient id="SVGID_4_" gradientUnits="userSpaceOnUse" x1="16.3692" y1="52.9573" x2="57.9537" y2="12.0827" gradientTransform="matrix(1 0 0 -1 -0.9 72.66)">
		<stop  offset="0" style="stop-color:#F2F2F2"/>
		<stop  offset="1" style="stop-color:#B3B3B3"/>
	</linearGradient>
	<path class="st4" d="M54.5,61.8H18c-1.9,0-3.4-1.5-3.4-3.4V21.9c0-1.9,1.5-3.4,3.4-3.4h36.4c1.9,0,3.4,1.5,3.4,3.4v36.4
		C57.9,60.2,56.4,61.7,54.5,61.8z M18,19.5c-1.3,0-2.4,1.1-2.4,2.4v36.4c0,1.3,1.1,2.4,2.4,2.4h36.4c1.3,0,2.4-1.1,2.4-2.4V21.9
		c0-1.3-1.1-2.4-2.4-2.4L18,19.5z"/>
	
		<linearGradient id="SVGID_5_" gradientUnits="userSpaceOnUse" x1="37.1565" y1="30.3535" x2="37.1565" y2="54.135" gradientTransform="matrix(1 0 0 -1 -0.9 72.66)">
		<stop  offset="0" style="stop-color:#FC7D76"/>
		<stop  offset="1" style="stop-color:#FCAC60"/>
	</linearGradient>
	<path class="st5" d="M54.5,18.5H18c-1.9,0-3.4,1.5-3.4,3.4v17c7,2.3,14.3,3.5,21.6,3.4c7.3,0,14.6-1.1,21.6-3.4V21.9
		C57.9,20.1,56.3,18.5,54.5,18.5z"/>
	<rect x="28.6" y="23.7" class="st2" width="15.4" height="2.3"/>
	<rect x="28.9" y="28.5" class="st2" width="14.8" height="0.6"/>
	<rect x="26.3" y="30.3" class="st2" width="19.9" height="0.6"/>
	
		<linearGradient id="SVGID_6_" gradientUnits="userSpaceOnUse" x1="29.7014" y1="48.595" x2="42.8415" y2="48.715" gradientTransform="matrix(1 0 0 -1 0 84)">
		<stop  offset="0" style="stop-color:#30A2E3"/>
		<stop  offset="1" style="stop-color:#2FDDD1"/>
	</linearGradient>
	<path class="st6" d="M30.1,33.2h12.3c0.2,0,0.4,0.2,0.4,0.4v3.4c0,0.2-0.2,0.4-0.4,0.4H30.1c-0.2,0-0.4-0.2-0.4-0.4v-3.4
		C29.7,33.4,29.9,33.2,30.1,33.2z"/>
	
		<linearGradient id="SVGID_7_" gradientUnits="userSpaceOnUse" x1="24.0464" y1="27.505" x2="24.0464" y2="37.785" gradientTransform="matrix(1 0 0 -1 0 84)">
		<stop  offset="0" style="stop-color:#F56FAE"/>
		<stop  offset="1" style="stop-color:#FA96D3"/>
	</linearGradient>
	<rect x="18.9" y="46.2" class="st7" width="10.3" height="10.3"/>
	
		<linearGradient id="SVGID_8_" gradientUnits="userSpaceOnUse" x1="36.2664" y1="27.505" x2="36.2664" y2="37.785" gradientTransform="matrix(1 0 0 -1 0 84)">
		<stop  offset="0" style="stop-color:#F56FAE"/>
		<stop  offset="1" style="stop-color:#FA96D3"/>
	</linearGradient>
	<rect x="31.1" y="46.2" class="st8" width="10.3" height="10.3"/>
	
		<linearGradient id="SVGID_9_" gradientUnits="userSpaceOnUse" x1="48.4865" y1="27.505" x2="48.4865" y2="37.785" gradientTransform="matrix(1 0 0 -1 0 84)">
		<stop  offset="0" style="stop-color:#F56FAE"/>
		<stop  offset="1" style="stop-color:#FA96D3"/>
	</linearGradient>
	<rect x="43.3" y="46.2" class="st9" width="10.3" height="10.3"/>
	
		<linearGradient id="SVGID_10_" gradientUnits="userSpaceOnUse" x1="48.6064" y1="50.9" x2="66.0764" y2="50.9" gradientTransform="matrix(1 0 0 -1 0 84)">
		<stop  offset="0" style="stop-color:#30A2E3"/>
		<stop  offset="1" style="stop-color:#2FDDD1"/>
	</linearGradient>
	<rect x="48.6" y="24.4" class="st10" width="17.5" height="17.5"/>
	<path class="st11" d="M60.3,34c-2,0.1-4-0.4-5.7-1.4c-1.8-1-3.8-1.5-5.9-1.4V41c0,0.5,0.5,0.8,1.2,0.8h14.9c0.7,0,1.2-0.4,1.2-0.8
		v-8.4C64.2,33.5,62.3,34,60.3,34z"/>
	
		<linearGradient id="SVGID_11_" gradientUnits="userSpaceOnUse" x1="54.6057" y1="40.695" x2="62.9857" y2="40.695" gradientTransform="matrix(1 0 0 -1 -0.9 72.66)">
		<stop  offset="0" style="stop-color:#0F39C3"/>
		<stop  offset="1" style="stop-color:#FA96D3"/>
	</linearGradient>
	<path class="st12" d="M58.4,31.9c1.3-0.9,2.5-1.9,3.7-3c-0.3-0.2-0.6-0.4-0.8-0.6c-0.3-0.3-0.5-0.6-0.7-0.9c-1,1.2-2,2.4-2.9,3.7
		c-1.1,0-2.1,0.4-2.9,1.2c-1.2,1.2-1.1,4.2-1.1,4.2c0.5-0.7,1.3-1.3,2.2-1.5C57.3,34.7,58.4,33.4,58.4,31.9z"/>
	
		<linearGradient id="SVGID_12_" gradientUnits="userSpaceOnUse" x1="56.8064" y1="46.655" x2="60.9565" y2="46.655" gradientTransform="matrix(1 0 0 -1 0 84)">
		<stop  offset="0" style="stop-color:#0F39C3"/>
		<stop  offset="1" style="stop-color:#FA96D3"/>
	</linearGradient>
	<polygon class="st13" points="56.8,39.3 56.9,39.4 61,37.3 58.8,35.3 	"/>
	
		<linearGradient id="SVGID_13_" gradientUnits="userSpaceOnUse" x1="48.7664" y1="41.7814" x2="70.7964" y2="41.7814" gradientTransform="matrix(1 0 0 -1 -0.9 72.66)">
		<stop  offset="0" style="stop-color:#0F39C3"/>
		<stop  offset="1" style="stop-color:#FA96D3"/>
	</linearGradient>
	<path class="st14" d="M67.7,25.9l-1.2,1.3v-2.7l0.4-0.4c0,0,3.8-3.9,2.8-4.6s-4.6,2.9-4.6,2.9l-1.4,1.5H48.9c-0.6,0-1,0.4-1,1v16
		c0,0.8,0.7,1.5,1.5,1.5H65c0.8,0,1.5-0.7,1.5-1.5v-9.3l3.4-3.5L67.7,25.9z M64.9,40.8H49.4V25.4h12.9c-0.6,0.6-1.1,1.3-1.5,1.7
		c0.4,0.6,0.9,1.2,1.6,1.5C63,28.1,64,27,65,26.1v2.7l-5.7,6l2.2,2.1l3.5-3.8V40.8z"/>
	
		<linearGradient id="SVGID_14_" gradientUnits="userSpaceOnUse" x1="69.0664" y1="47.0907" x2="73.0764" y2="47.0907" gradientTransform="matrix(1 0 0 -1 -0.9 72.66)">
		<stop  offset="0" style="stop-color:#0F39C3"/>
		<stop  offset="1" style="stop-color:#FA96D3"/>
	</linearGradient>
	<path class="st15" d="M72.1,25l-1.4-1.4c-0.3-0.2-0.6-0.1-0.8,0.1l-1.6,1.7l2.2,2.1l1.6-1.7C72.2,25.7,72.2,25.3,72.1,25z"/>
</g>
</svg>
