<?xml version="1.0" encoding="utf-8"?>
<!-- Generator: Adobe Illustrator 21.1.0, SVG Export Plug-In . SVG Version: 6.00 Build 0)  -->
<svg version="1.1" id="Layer_1" xmlns="http://www.w3.org/2000/svg" xmlns:xlink="http://www.w3.org/1999/xlink" x="0px" y="0px"
	 viewBox="0 0 75 83.8" style="enable-background:new 0 0 75 83.8;" xml:space="preserve">
<style type="text/css">
	.st0{fill:url(#SVGID_1_);}
	.st1{fill:url(#SVGID_2_);}
	.st2{fill:url(#SVGID_3_);}
	.st3{fill:#FFFFFF;}
</style>
<g>
	<g>
		<linearGradient id="SVGID_1_" gradientUnits="userSpaceOnUse" x1="28.4034" y1="11.4548" x2="47.4034" y2="70.4548">
			<stop  offset="0" style="stop-color:#0F39C3"/>
			<stop  offset="1" style="stop-color:#FA96D3"/>
		</linearGradient>
		<path class="st0" d="M66.2,52.2L66.2,52.2L66.2,52.2c0-1.6-0.6-3.1-1.8-4.3l-16-16l17.3-17.3c1.1-1.1,0.3-3-1.3-3H28.1l0,0l0,0
			l0,0l0,0l0,0v0v0l-16,16c-1.2,1.2-1.8,2.8-1.8,4.3c0,1.6,0.6,3.1,1.8,4.3l16,16v0l0,0h0L10.8,69.5c-1.1,1.1-0.3,3,1.3,3h36.4l0,0
			v0l0,0l0,0l0,0v0l16-16c0.3-0.3,0.6-0.6,0.8-1C65.9,54.6,66.2,53.4,66.2,52.2L66.2,52.2C66.2,52.2,66.2,52.2,66.2,52.2L66.2,52.2z
			"/>
	</g>
	<g>
		
			<linearGradient id="SVGID_2_" gradientUnits="userSpaceOnUse" x1="48.1486" y1="68.1445" x2="48.1486" y2="44.4779" gradientTransform="matrix(1 -8.533533e-03 8.533533e-03 1 10.5532 -6.0618)">
			<stop  offset="0" style="stop-color:#FC7D76"/>
			<stop  offset="1" style="stop-color:#FCAC60"/>
		</linearGradient>
		<circle class="st1" cx="59.2" cy="49.8" r="11.8"/>
		<g>
			<g>
				<g>
					<linearGradient id="SVGID_3_" gradientUnits="userSpaceOnUse" x1="9.829" y1="40.0588" x2="56.5102" y2="40.0588">
						<stop  offset="0" style="stop-color:#30A2E3"/>
						<stop  offset="1" style="stop-color:#2FDDD1"/>
					</linearGradient>
					<path class="st2" d="M12.3,23.9c-1.4,0-2.5,1.1-2.5,2.5v27.4c0,1.4,1.1,2.5,2.5,2.5H54c1.4,0,2.5-1.1,2.5-2.5V26.4
						c0-1.4-1.1-2.5-2.5-2.5H12.3z"/>
				</g>
			</g>
			<g>
				<path class="st3" d="M17.9,31.9c-0.9,0.5-1.4,1-1.3,1.6c0.4,0,0.7,0.2,1,0.5c0.3,0.3,0.4,0.6,0.4,0.9c0,0.4-0.1,0.7-0.4,1
					c-0.2,0.3-0.6,0.4-0.9,0.4c-0.4,0-0.8-0.2-1.1-0.5c-0.3-0.3-0.5-0.7-0.5-1.2c0-1.5,0.8-2.6,2.4-3.5L17.9,31.9z M22,31.9
					c-0.9,0.5-1.3,1-1.3,1.6c0.4,0,0.7,0.2,1,0.5c0.3,0.3,0.4,0.6,0.4,0.9c0,0.4-0.1,0.7-0.4,1c-0.2,0.3-0.5,0.4-0.9,0.4
					c-0.4,0-0.8-0.2-1.1-0.5c-0.3-0.3-0.5-0.7-0.5-1.2c0-1.5,0.8-2.6,2.4-3.5L22,31.9z"/>
				<g>
					<rect x="15.1" y="39.9" class="st3" width="31.9" height="0.9"/>
					<rect x="15.1" y="42.6" class="st3" width="35.9" height="0.9"/>
					<rect x="15.1" y="45.4" class="st3" width="33.9" height="0.9"/>
					<rect x="15.1" y="48.1" class="st3" width="27.9" height="0.9"/>
				</g>
			</g>
		</g>
	</g>
</g>
</svg>
