<svg enable-background="new 0 0 75 83.8" viewBox="0 0 75 83.8" xmlns="http://www.w3.org/2000/svg" xmlns:xlink="http://www.w3.org/1999/xlink"><linearGradient id="a" gradientTransform="matrix(1 -.00853353 .00853353 1 9.6444 -6.0579)" gradientUnits="userSpaceOnUse" x1="14.675" x2="14.675" y1="70.2765" y2="46.6098"><stop offset=".001241987" stop-color="#fb993c"/><stop offset=".9988" stop-color="#ffc58e"/></linearGradient><linearGradient id="b" gradientUnits="userSpaceOnUse" x1="28.431" x2="48.1421" y1="11.4548" y2="72.6628"><stop offset="0" stop-color="#0e48b5"/><stop offset=".4838" stop-color="#30a2e3"/><stop offset="1" stop-color="#6bf9eb"/></linearGradient><linearGradient id="c"><stop offset="0" stop-color="#fc7d76"/><stop offset="1" stop-color="#fcac60"/></linearGradient><linearGradient id="d" gradientUnits="userSpaceOnUse" x1="57.1402" x2="61.4065" xlink:href="#c" y1="18.8896" y2="23.1559"/><linearGradient id="e" gradientUnits="userSpaceOnUse" x1="29.9153" x2="44.1755" y1="43.2507" y2="43.2507"><stop offset="0" stop-color="#b3b3b3"/><stop offset="1" stop-color="#f2f2f2"/></linearGradient><linearGradient id="f" gradientTransform="matrix(.7071 .7071 -.7071 .7071 -976.8859 293.0055)" gradientUnits="userSpaceOnUse" x1="538.536" x2="540.7954" xlink:href="#c" y1="-890.4016" y2="-897.0219"/><linearGradient id="g" gradientUnits="userSpaceOnUse" x1="35.9898" x2="39.197" xlink:href="#c" y1="42.7027" y2="42.7027"/><linearGradient id="h" gradientUnits="userSpaceOnUse" x1="33.8835" x2="36.7663" xlink:href="#c" y1="44.9712" y2="44.9712"/><linearGradient id="i" gradientTransform="matrix(.7071 .7071 -.7071 .7071 -976.8859 293.0055)" gradientUnits="userSpaceOnUse" x1="539.4872" x2="541.7466" xlink:href="#c" y1="-890.077" y2="-896.6973"/><linearGradient id="j"><stop offset="0" stop-color="#f2f2f2"/><stop offset="1" stop-color="#b3b3b3"/></linearGradient><linearGradient id="k" gradientTransform="matrix(.4408 .8976 -.8976 .4408 40.1689 -206.6163)" gradientUnits="userSpaceOnUse" x1="214.2307" x2="214.2307" xlink:href="#j" y1="136.4496" y2="94.3704"/><linearGradient id="l" gradientUnits="userSpaceOnUse" x1="32.4551" x2="55.0297" xlink:href="#j" y1="49.2826" y2="49.2826"/><linearGradient id="m" gradientTransform="matrix(.7071 .7071 -.7071 .7071 -976.8859 293.0055)" gradientUnits="userSpaceOnUse" x1="552.3429" x2="557.3429" y1="-873.7085" y2="-873.7085"><stop offset="0" stop-color="#fcac60"/><stop offset="1" stop-color="#fc7d76"/></linearGradient><linearGradient id="n" gradientTransform="matrix(.7071 .7071 -.7071 .7071 -980.3837 289.3056)" gradientUnits="userSpaceOnUse" x1="552.1913" x2="538.6961" xlink:href="#c" y1="-907.952" y2="-921.4472"/><linearGradient id="o" gradientTransform="matrix(.7071 .7071 -.7071 .7071 -971.6486 294.3528)" gradientUnits="userSpaceOnUse" x1="535.1981" x2="536.1981" xlink:href="#c" y1="-912.0918" y2="-912.0918"/><circle cx="24.8" cy="52.3" fill="url(#a)" r="11.8"/><path d="m66.3 52.2c0-1.6-.6-3.1-1.8-4.3l-16-16 17.3-17.3c1.1-1.1.3-3-1.3-3h-36.4l-16 16c-1.2 1.2-1.8 2.8-1.8 4.3 0 1.6.6 3.1 1.8 4.3l16 16-17.3 17.3c-1.1 1.1-.3 3 1.3 3h36.4l16-16c.3-.3.6-.6.8-1 .6-.9 1-2.1 1-3.3z" fill="url(#b)"/><path d="m36.6 69.2-6.5 8 2.4-10z" fill="#ccc"/><path d="m55.5 26-1.1-1.1c-.9-.9-.9-2.3 0-3.1l5.6-5.6c.9-.9 2.3-.9 3.1 0l1.1 1.1c.9.9.9 2.3 0 3.1l-5.6 5.6c-.9.8-2.3.8-3.1 0z" fill="url(#d)"/><path d="m41.8 50-11.5-11.5c-.5-.5-.5-1.4 0-2 .5-.5 1.4-.5 2 0l11.5 11.5c.5.5.5 1.4 0 2-.6.5-1.5.5-2 0z" fill="url(#e)"/><path d="m39.9 42.4c.3-.3.3-.8 0-1.1l-.9-.9c-.3-.3-.8-.3-1.1 0l-.7.7 2 2z" fill="#fff"/><path d="m39.9 42.4c.3-.3.3-.8 0-1.1l-.9-.9c-.3-.3-.8-.3-1.1 0l-.7.7 2 2z" fill="url(#f)"/><path d="m36.7 41.3h1.7v2.8h-1.7z" fill="#fff" transform="matrix(.7071 -.7071 .7071 .7071 -19.1845 39.0898)"/><path d="m38 44.3 1.2-1.2-2-2-1.2 1.2z" fill="url(#g)"/><path d="m34.1 44.2c-.3.3-.3.8 0 1.1l.9.9c.3.3.8.3 1.1 0l.7-.7-2-2z" fill="#fff"/><path d="m34.1 44.2c-.3.3-.3.8 0 1.1l.9.9c.3.3.8.3 1.1 0l.7-.7-2-2z" fill="url(#h)"/><g fill="#fff"><path d="m36.7 41.3h1.7v2.8h-1.7z" opacity=".4" transform="matrix(.7071 -.7071 .7071 .7071 -19.1845 39.0898)"/><path d="m34.1 44.2c-.3.3-.3.8 0 1.1l.9.9c.3.3.8.3 1.1 0l.7-.7-2-2z" opacity=".4"/><path d="m35.5 42.5h1.7v2.8h-1.7z" transform="matrix(.7071 -.7071 .7071 .7071 -20.3998 38.5864)"/></g><path d="m34.8 43.5 2 2 1.2-1.2-2-2z" fill="url(#i)"/><path d="m13.1 47.8-2-4.1 37.8-18.4 2 4.1z" fill="url(#k)"/><path d="m11.1 43.7-8 6.5 10-2.4z" fill="#ccc"/><path d="m32.5 67.2 4.1 2 18.4-37.8-4.1-2.1z" fill="url(#l)"/><circle cx="33.3" cy="67.5" fill="url(#m)" r="2.5"/><circle cx="52.1" cy="28.2" fill="url(#n)" r="9.5"/><ellipse cx="52.1" cy="28.2" fill="#fff" rx="4.2" ry="4.2" transform="matrix(.7071 -.7071 .7071 .7071 -4.6844 45.0959)"/><path d="m50.1 30.2c-.2-.2-.2-.5 0-.7l3.4-3.4c.2-.2.5-.2.7 0 .2.2.2.5 0 .7l-3.4 3.4c-.2.2-.5.2-.7 0z" fill="url(#o)"/></svg>