<svg width="20" height="20" viewBox="0 0 32 32" fill="none" xmlns="http://www.w3.org/2000/svg">
<path d="M25.3333 4H6.66667C5.19391 4 4 5.19391 4 6.66667V25.3333C4 26.8061 5.19391 28 6.66667 28H25.3333C26.8061 28 28 26.8061 28 25.3333V6.66667C28 5.19391 26.8061 4 25.3333 4Z" stroke="#47A0DD" stroke-width="2.5" stroke-linecap="round" stroke-linejoin="round"/>
<path d="M11.3333 13.3334C12.4379 13.3334 13.3333 12.4379 13.3333 11.3334C13.3333 10.2288 12.4379 9.33337 11.3333 9.33337C10.2287 9.33337 9.33331 10.2288 9.33331 11.3334C9.33331 12.4379 10.2287 13.3334 11.3333 13.3334Z" stroke="#47A0DD" stroke-width="2.5" stroke-linecap="round" stroke-linejoin="round"/>
<path d="M28 20L21.3334 13.3334L6.66669 28" stroke="#47A0DD" stroke-width="2.5" stroke-linecap="round" stroke-linejoin="round"/>
</svg>
