<svg enable-background="new 0 0 879.4 206.5" viewBox="0 0 879.4 206.5" xmlns="http://www.w3.org/2000/svg"><g fill="#fff"><path d="m263.1 134.3c8 7.5 18.7 12.5 29.1 12.5 12.4 0 19.3-5.6 19.3-14.3 0-9.1-7.2-12.1-17.3-16.3l-15.1-6.5c-11.2-4.6-22.5-13.3-22.5-29.6 0-17.7 15.7-31.1 37.3-31.1 12.9 0 25.3 5.1 34.5 14.1l-10.4 12.5c-7-5.9-14.7-9.5-24.1-9.5-10.6 0-17.3 5-17.3 13.1 0 8.7 8.6 11.9 17.7 15.7l15 6.3c13.4 5.6 22.5 13.9 22.5 30 0 18.1-14.9 32.9-40 32.9-15 0-29.3-5.9-40.1-16.3z"/><path d="m343.6 94.2h-12v-14.7l12.9-.8 2.4-22.8h16.3v22.8h21.3v15.5h-21.3v39.7c0 9.9 3.8 14.7 11.8 14.7 3-.1 6-.6 8.8-1.8l3.4 14.5c-5.4 1.9-11.2 2.9-16.9 3-19.3 0-26.5-12.3-26.5-30.2v-39.9z"/><path d="m442.6 108.7c-.2-8.7-4-16.3-15.1-16.3-8.4 0-16.1 3.8-23.5 8.1l-7.2-13.1c9.2-5.8 20.9-10.9 34.3-10.9 20.9 0 31.1 12.7 31.1 35.9v49.4h-15.9l-1.6-9.1h-.6c-7.6 6.4-15.9 11.1-25.9 11.1-14.7 0-24.9-9.9-24.9-24.4-.1-17.6 15-26.9 49.3-30.7zm-18.3 40.1c6.8 0 12.2-3.4 18.1-9.1v-18.7c-22.7 3-30.1 8.7-30.1 17.1 0 7.5 5 10.7 12 10.7z"/><path d="m510.5 76.8c10.8 0 18.9 4.2 24.5 9.7l-9.4 12.3c-4.4-4-8.8-6.2-14.1-6.2-13.5 0-22.9 11.1-22.9 27.8s9.2 27.6 22.3 27.6c6.8 0 12.5-3.4 17.1-7.1l8.2 12.3c-7.6 6.8-17.3 10.6-27.5 10.7-22.9 0-40.5-15.9-40.5-43.6.3-27.7 20-43.5 42.3-43.5z"/><path d="m540.8 42.2h19.4v74.8h.6l31.1-38.3h21.5l-28.7 33.9 31.3 49.4h-21.3l-21.6-36-13.1 14.8v21.2h-19.3v-119.8z"/><path d="m665.2 108.7c-.2-8.7-4-16.3-15.1-16.3-8.4 0-16.1 3.8-23.5 8.1l-7.2-13.1c9.2-5.8 20.9-10.9 34.3-10.9 20.9 0 31.1 12.7 31.1 35.9v49.4h-15.9l-1.6-9.2h-.6c-7.6 6.4-15.9 11.1-25.9 11.1-14.7 0-24.9-9.9-24.9-24.4 0-17.5 15-26.8 49.3-30.6zm-18.2 40.1c6.8 0 12.2-3.4 18.1-9.1v-18.7c-22.7 3-30.1 8.7-30.1 17.1.1 7.5 5.1 10.7 12 10.7z"/><path d="m693.3 42.2h19.5v30.9l-.6 13.9c7-6.2 15.7-10.3 24.1-10.3 20.9 0 33.1 16.7 33.1 42.3 0 28.6-17.1 45.1-35.9 45.1-7.6 0-15.9-3.8-22.9-10.5h-.6l-1.8 8.5h-15.6v-119.9zm36.4 105.8c11.2 0 19.5-9.9 19.5-28.6 0-16.7-5.4-26.4-18.1-26.4-6.2 0-12 3-18.3 9.3v38.9c6 4.8 12 6.8 16.9 6.8z"/><path d="m777.6 42.2h19.5v99.4c0 4.8 2.2 6.3 4.2 6.3 1 0 2-.1 3-.4l2.6 14.7c-3.3 1.3-6.8 1.9-10.4 1.8-13.9 0-19.1-8.9-19.1-23.4v-98.4z"/><path d="m844.7 76.8c22.7 0 34.7 16.3 34.7 39.5 0 3.1-.2 6.1-.8 9.1h-53.2c1.8 15.1 11.2 23.6 24.7 23.6 7.2 0 13.4-2.2 19.3-6.2l6.6 12.3c-8.5 5.7-18.5 8.8-28.7 8.9-23.1 0-41.3-16.1-41.3-43.6.3-27.2 19.2-43.6 38.7-43.6zm17.5 36.3c0-13.3-5.6-21.2-16.9-21.2-10 0-18.3 7.3-20.1 21.2z"/><path d="m183.3 146.4-109.1-2.7-70.4 54.4c-.7.6-1.1 1.4-1.3 2.3s0 1.8.4 2.6 1.1 1.4 1.9 1.8 1.8.5 2.6.3l130.2 1.4 48.1-55.6c.4-.4.7-.9.8-1.5s0-1.1-.3-1.6-.7-.9-1.2-1.2-1.1-.4-1.7-.2z"/><path d="m199.1 5.5c.1-1-.2-2.1-.9-2.9-.4-.4-.9-.8-1.4-1s-1.1-.4-1.7-.4l-131-1.2c-16.9 18.2-33.8 36.5-50.7 54.7-.6.5-1.1 1.3-1.3 2.1s-.2 1.7.1 2.5.8 1.5 1.5 2 1.5.7 2.4.7l111.3.9 70.2-53.7c.9-1.1 1.4-2.4 1.5-3.7z"/><path d="m127.4 62.9 72.2-53.7c.8-.6 1.4-1.5 1.8-2.4.3-1 .4-2 .1-3-.3-1.1-1-2.1-2-2.8s-2.1-1-3.3-.9h-132.1z"/><path d="m127.4 62.9-63.3-62.9-51.7 54.4c-3.5 3.6-1.1 8.5 3.9 8.5z"/><path d="m189.7 124.6c-17-16.7-50.6-50.2-50.6-50.2h-124.1c-.9 0-1.7.3-2.4.7-.7.5-1.3 1.2-1.6 2s-.4 1.7-.2 2.5.6 1.6 1.2 2.2l50.7 50.2h124.1c.8 0 1.7-.3 2.4-.8s1.2-1.2 1.5-2 .4-1.7.2-2.5c-.2-.7-.6-1.5-1.2-2.1z"/><path d="m74.2 143.6-72.1 53.7c-.9.7-1.5 1.6-1.9 2.6-.3 1.1-.3 2.2.1 3.2s1.1 1.9 2 2.5 2 .9 3.1.8h132.1z"/><path d="m137.6 206.5 52.1-54.8c.6-.7 1.1-1.5 1.2-2.4.2-.9.1-1.9-.3-2.7-.4-.9-1-1.6-1.8-2.1s-1.7-.8-2.6-.8h-112z"/></g></svg>