<svg enable-background="new 0 0 200 200" viewBox="0 0 200 200" xmlns="http://www.w3.org/2000/svg"><g fill="#fff"><path d="m176.2 24.2c-.5-1.8-2.2-3-4-2.8h-100l-39.1 41.2c-2.7 2.7-.9 6.4 3 6.4h84.1l54.6-40.6c1.2-1 1.8-2.6 1.4-4.2z"/><path d="m167.2 115.7-38.4-37.9.1-.1h-93.8c-1.8 0-3.3 1.5-3.3 3.3 0 .9.4 1.7 1 2.3l38.2 37.9-.1.1h94.1c1.8-.1 3.2-1.6 3.2-3.4 0-.8-.4-1.6-1-2.2z"/><path d="m167.2 131.1c-.7-.6-1.6-1-2.5-1h-84.8l-54.6 40.7c-1.7 1.2-2.1 3.6-.8 5.4.8 1.1 2.1 1.7 3.4 1.6h100l39.5-41.5c1.2-1.6 1.2-3.9-.2-5.2z"/></g></svg>