<svg fill="#fff" viewBox="0 0 948.97 206.48" xmlns="http://www.w3.org/2000/svg"><path d="m270.72 127.47 3 16a30.27 30.27 0 0 0 7.44 2.66 39.31 39.31 0 0 0 9.27 1.14 33.91 33.91 0 0 0 8.81-1.14 24.92 24.92 0 0 0 7.44-3.27 17.41 17.41 0 0 0 5.09-5.09 12.26 12.26 0 0 0 1.9-6.76 11.24 11.24 0 0 0 -2.43-7.37 22.29 22.29 0 0 0 -6.3-5.16 51.85 51.85 0 0 0 -8.73-3.87q-4.86-1.67-9.87-3.49-5.32-2.28-10.25-4.63a37.82 37.82 0 0 1 -8.81-5.77 25.1 25.1 0 0 1 -6.15-8.28 28.19 28.19 0 0 1 -2.28-12 28 28 0 0 1 3-13.22 27 27 0 0 1 7.9-9.27 33.71 33.71 0 0 1 11.54-5.39 54.25 54.25 0 0 1 13.9-1.75 60.06 60.06 0 0 1 7.14.46q3.8.46 7.44 1.14t6.84 1.52l5.47 1.44 4.86 1.52-.76 25.82h-9.87l-5.16-16.25a52.11 52.11 0 0 0 -8.43-2 59.83 59.83 0 0 0 -8.58-.61 26.14 26.14 0 0 0 -8 1.14 19.13 19.13 0 0 0 -6.08 3.11 15 15 0 0 0 -3.87 4.41 10.1 10.1 0 0 0 -1.37 5q.15 6.38 4.25 10a36.86 36.86 0 0 0 10.18 6.23q6.07 2.58 13.14 4.86a69.35 69.35 0 0 1 13.06 5.7 31.92 31.92 0 0 1 10 8.89q4 5.47 4 14.28a30.85 30.85 0 0 1 -3 14 29.88 29.88 0 0 1 -8.35 10.25 37.88 37.88 0 0 1 -12.61 6.38 53.92 53.92 0 0 1 -15.65 2.2 62 62 0 0 1 -7.22-.46q-3.87-.46-7.6-1.14t-6.91-1.52q-3.19-.83-5.32-1.6l-4.25-1.52v-26.59h12.15z"/><path d="m372.19 56.68v22.18h22v11.39h-22v48.75q0 9.27 7.6 9.27 4.86 0 11.85-3.8l4.1 8.05q-10.33 7.6-21.27 7.6a16.64 16.64 0 0 1 -12.61-5.12q-4.86-5-4.86-16.89v-47.86h-15.19v-9.87l15.19-1.52v-19.14z"/><path d="m410.17 82.66q16.41-6.07 30.08-6.08 13.37 0 20.51 5.39t7.14 18.15v46.33l12.15 3v8.35l-23.55.76-3.19-10.56q-12.16 12.16-24 12.15t-17.77-5.92q-5.92-5.92-5.92-16.86 0-23.54 34.94-23.55h12.14v-12.17q0-13.65-14.43-13.65a46 46 0 0 0 -13.52 1.67l-1.82.61-2.13 11.39h-9.87zm42.53 41h-10.63q-11.39 0-16.18 3t-4.78 9.19q0 5.92 2.81 9t8.08 3.15a16.09 16.09 0 0 0 5.24-.91 33.41 33.41 0 0 0 5.16-2.28 29.92 29.92 0 0 0 4.48-3 27.18 27.18 0 0 0 3.19-3l2.58-3v-12.14z"/><path d="m555.23 103.17h-9.87l-2.28-12.91a55.38 55.38 0 0 0 -13.67-1.52q-10.94 0-16.86 7t-5.92 21.72q0 14.74 6.23 22.63t17.32 7.9a32.78 32.78 0 0 0 6.3-.61 42 42 0 0 0 5.92-1.6 36.37 36.37 0 0 0 5.09-2.2 18.82 18.82 0 0 0 3.65-2.43l2.58-2.28 5.28 9.13-1.67 1.37a39.74 39.74 0 0 1 -5 3.42 53.76 53.76 0 0 1 -7.06 3.49 64.91 64.91 0 0 1 -8.2 2.73 33.07 33.07 0 0 1 -8.43 1.14q-18.53 0-28.25-11t-9.72-30.15a50.65 50.65 0 0 1 2.81-17.24 38.36 38.36 0 0 1 8-13.37 36.26 36.26 0 0 1 12.46-8.66 41 41 0 0 1 16.25-3.11 44 44 0 0 1 6.23.46q3.19.46 6.23 1.06a51 51 0 0 1 5.62 1.44q2.58.84 4.41 1.6l3.32 1.48z"/><path d="m594 41.64v66.84h12.91l11.39-19.14-6.84-2.13v-8.35l33.42-.76v9.11l-10.81 1.79h-.15l-15.65 23.24 19.6 34.18h.13l11.39 3.8v8.35h-20.48l-21.72-38.74h-13.19v26.58l9.87 3.8v8.35h-38v-8.35l12.91-3.8v-92.61l-12.91-3v-8.4z"/><path d="m662.33 82.66q16.41-6.07 30.08-6.08 13.37 0 20.51 5.39t7.14 18.15v46.33l12.15 3v8.35l-23.55.76-3.19-10.56q-12.16 12.16-24 12.15t-17.77-5.92q-5.92-5.92-5.92-16.86 0-23.54 34.94-23.55h12.15v-12.17q-.01-13.65-14.44-13.65a46 46 0 0 0 -13.52 1.67l-1.82.61-2.09 11.37h-9.87zm42.53 41h-10.63q-11.39 0-16.18 3t-4.79 9.19q0 5.92 2.81 9t8.13 3.15a16.09 16.09 0 0 0 5.24-.91 33.45 33.45 0 0 0 5.16-2.28 29.92 29.92 0 0 0 4.48-3 27.15 27.15 0 0 0 3.19-3l2.58-3v-12.14z"/><path d="m764.1 41.64v43.75q11.09-8.81 22.79-8.81 16.1 0 24 10.48t7.9 29.77a53.3 53.3 0 0 1 -2.73 17.39 38.39 38.39 0 0 1 -8.06 13.78 36.23 36.23 0 0 1 -13.06 9 46.81 46.81 0 0 1 -17.94 3.13q-7.75-.15-13.9-.68a49.39 49.39 0 0 1 -10.86-2.05l-3.34-1.06v-102.54l-12.15-3v-8.4zm0 104.82q3.65 1.52 15.8 1.52a22.09 22.09 0 0 0 10.41-2.28 19.89 19.89 0 0 0 7.14-6.3 27.4 27.4 0 0 0 4.1-9.57 53.3 53.3 0 0 0 1.29-12.08q0-13.67-4.63-21.34t-14.36-7.67q-7.6 0-12.23 3a27.5 27.5 0 0 0 -7.52 6.91v47.85z"/><path d="m857.83 41.64v104.82l15.19 3.8v8.35h-43.6v-8.35l12.91-3.8v-92.66l-12.91-3v-8.4z"/><path d="m948.21 120.33-52.41.3q0 12.46 6 19.9a19.53 19.53 0 0 0 16 7.44 37.24 37.24 0 0 0 6.68-.61 54.49 54.49 0 0 0 6.3-1.52 41.41 41.41 0 0 0 5.39-2.05 37 37 0 0 0 4.1-2.2l3-2 5.32 7.9a67.34 67.34 0 0 1 -9.49 6.46 60.24 60.24 0 0 1 -10.1 4.28 40.89 40.89 0 0 1 -12.68 1.9q-17.93 0-27.19-10.86t-9.27-29.7a52.63 52.63 0 0 1 2.73-17.32 41 41 0 0 1 7.67-13.6 34.7 34.7 0 0 1 26.81-12.08q31.9 0 31.9 35.7zm-51.8-11.09h36.46q0-9.26-3.95-15t-12.76-5.77q-8.66 0-13.82 5.85t-5.93 14.92z"/><path d="m51.54 146.91-49.77 49.22a5.75 5.75 0 0 0 4.23 9.87l105.24.17z"/><path d="m189.38 137.69a20.57 20.57 0 0 0 -6-14.62l-122.99-123.07-54.23 54.27a20.57 20.57 0 0 0 -6 14.59h-.1a20.57 20.57 0 0 0 6 14.59l123 123v-.08.06l54.2-54.2a20.57 20.57 0 0 0 6-14.57z"/><path d="m183.37 0h-105.14l59.85 60.08 49.55-49.84a6 6 0 0 0 -4.26-10.24z"/></svg>