<?xml version="1.0" encoding="utf-8"?>
<!-- Generator: Adobe Illustrator 23.1.0, SVG Export Plug-In . SVG Version: 6.00 Build 0)  -->
<svg version="1.1" id="Layer_1" xmlns="http://www.w3.org/2000/svg" xmlns:xlink="http://www.w3.org/1999/xlink" x="0px" y="0px"
	 viewBox="0 0 16 16" style="enable-background:new 0 0 16 16;" xml:space="preserve">
<path d="M14.5,2.4h-13c-0.4,0-0.8,0.3-0.8,0.8v7c0,0.4,0.3,0.8,0.8,0.8h5.8v1.3H5.6c-0.4,0-0.8,0.3-0.8,0.8s0.3,0.8,0.8,0.8h4.8
	c0.4,0,0.8-0.3,0.8-0.8s-0.3-0.8-0.8-0.8H8.8v-1.3h5.8c0.4,0,0.8-0.3,0.8-0.8v-7C15.2,2.7,14.9,2.4,14.5,2.4z M13.8,9.4H2.2V3.9
	h11.5V9.4z"/>
</svg>
