<?xml version="1.0" encoding="utf-8"?>
<!-- Generator: Adobe Illustrator 19.2.0, SVG Export Plug-In . SVG Version: 6.00 Build 0)  -->
<svg version="1.1" id="Layer_1" xmlns="http://www.w3.org/2000/svg" xmlns:xlink="http://www.w3.org/1999/xlink" x="0px" y="0px"
	 viewBox="0 0 24 24" style="enable-background:new 0 0 24 24;" xml:space="preserve">
<path id="Shape" d="M13,18h2c0.6,0,1,0.4,1,1s-0.4,1-1,1H9c-0.6,0-1-0.4-1-1s0.4-1,1-1h2v-2H4c-1.1,0-2-0.9-2-2V6c0-1.1,0.9-2,2-2
	h16c1.1,0,2,0.9,2,2v8c0,1.1-0.9,2-2,2h-7V18z M4,6v8h16V6H4z"/>
</svg>
