<svg width="48" height="48" viewBox="0 0 48 48"  xmlns="http://www.w3.org/2000/svg">
<path fill-rule="evenodd" clip-rule="evenodd" d="M16 11H32V27H16V11ZM14 11C14 9.89543 14.8954 9 16 9H32C33.1046 9 34 9.89543 34 11V17.687C34.8845 18.0625 35.7138 18.4997 36.4595 18.9974C40.467 21.6732 42.0538 26.1215 40.2787 29.7006C38.5305 33.2796 33.4202 36.0065 28.0141 37.2337C22.608 38.4608 16.9061 38.1881 12.9793 36.6031C9.02557 35.018 6.84699 32.1036 7.00837 29.6835C7.16252 27.702 8.88523 26.0519 10.848 24.1718C11.2825 23.7556 11.7288 23.3281 12.1724 22.8833C12.4957 22.5626 12.8177 22.2328 13.1431 21.8996L13.144 21.8987C13.4257 21.6102 13.71 21.319 14 21.0288V11ZM20 15H28V17H20V15ZM28 21H20V23H28V21Z" />
</svg>

