<svg width="48" height="48" viewBox="0 0 48 48"  xmlns="http://www.w3.org/2000/svg">
<path fill-rule="evenodd" clip-rule="evenodd" d="M6 12H22V28H6V12ZM4 12C4 10.8954 4.89543 10 6 10H22C23.1046 10 24 10.8954 24 12V19.7833C24.9653 19.1657 26.0646 18.6596 27.3722 18.3513C31.1574 17.4682 36.6861 18.263 40.1272 20.5887C43.5453 22.8996 44.8988 26.7413 43.3848 29.8323C41.8936 32.9233 37.5349 35.2784 32.9238 36.3381C28.3127 37.3979 23.4493 37.1624 20.1 35.7935C16.8253 34.4643 14.9783 32.0524 15.0002 30H6C4.89543 30 4 29.1046 4 28V12ZM10 16H18V18H10V16ZM18 22H10V24H18V22Z" />
</svg>

