<svg width="48" height="48" viewBox="0 0 48 48"  xmlns="http://www.w3.org/2000/svg">
<path fill-rule="evenodd" clip-rule="evenodd" d="M36.4595 11.9974C40.467 14.6732 42.0538 19.1215 40.2787 22.7005C39.2095 24.8894 36.8828 26.7596 34 28.1629V36C34 37.1046 33.1046 38 32 38H16C14.8954 38 14 37.1046 14 36V29.9729C13.6482 29.8589 13.3075 29.7355 12.9793 29.603C9.02557 28.018 6.84699 25.1036 7.00837 22.6835C7.16252 20.702 8.88523 19.0519 10.848 17.1718C11.2825 16.7556 11.7288 16.3281 12.1724 15.8832C12.4958 15.5625 12.8178 15.2327 13.1432 14.8994C15.3079 12.6826 17.6241 10.3106 21.5053 9.40682C25.9431 8.38422 32.4251 9.30456 36.4595 11.9974ZM16 20H32V36H16V20ZM20 24H28V26H20V24ZM28 30H20V32H28V30Z" />
</svg>

