<svg width="48" height="48" viewBox="0 0 48 48"  xmlns="http://www.w3.org/2000/svg">
<path fill-rule="evenodd" clip-rule="evenodd" d="M40.1272 12.5887C43.5454 14.8996 44.8989 18.7413 43.3848 21.8323C41.8936 24.9233 37.5349 27.2784 32.9238 28.3381C29.8908 29.0352 26.7487 29.1719 24 28.7943L24 36C24 37.1046 23.1046 38 22 38H6C4.89543 38 4 37.1046 4 36V20C4 18.8954 4.89543 18 6 18H17.3229C17.6288 17.6911 17.9515 17.3781 18.2821 17.0575C18.6527 16.698 19.0334 16.3288 19.4118 15.9446C19.6875 15.6677 19.9621 15.383 20.2395 15.0953C22.0859 13.1807 24.0617 11.1319 27.3722 10.3513C31.1574 9.46819 36.6861 10.263 40.1272 12.5887ZM6 20H22V36H6V20ZM10 24H18V26H10V24ZM18 30H10V32H18V30Z" />
</svg>

