<svg width="48" height="48" viewBox="0 0 48 48"  xmlns="http://www.w3.org/2000/svg">
<path fill-rule="evenodd" clip-rule="evenodd" d="M6 16H22V32H6V16ZM4 16C4 14.8954 4.89543 14 6 14H22C23.0355 14 23.8873 14.787 23.9897 15.7955L23.9891 15.7902C24.9571 15.1695 26.0597 14.6608 27.3722 14.3513C31.1574 13.4682 36.6861 14.263 40.1272 16.5887C43.5454 18.8996 44.8989 22.7413 43.3848 25.8323C41.8936 28.9233 37.5349 31.2784 32.9238 32.3381C29.8338 33.0483 26.6305 33.1768 23.8454 32.7724C23.5432 33.4935 22.8308 34 22 34H6C4.89543 34 4 33.1046 4 32V16ZM10 20H18V22H10V20ZM18 26H10V28H18V26Z" />
</svg>

