<?xml version="1.0" encoding="utf-8"?>
<svg version="1.1" id="Layer_1" xmlns="http://www.w3.org/2000/svg" xmlns:xlink="http://www.w3.org/1999/xlink" x="0px" y="0px" viewBox="0 0 48 48" style="enable-background:new 0 0 48 48;" xml:space="preserve">
<path fill-rule="evenodd" clip-rule="evenodd" d="M39 9H9V39H39V9ZM9 7C7.89543 7 7 7.89543 7 9V39C7 40.1046 7.89543 41 9 41H39C40.1046 41 41 40.1046 41 39V9C41 7.89543 40.1046 7 39 7H9ZM30 17C30 20.3137 27.3137 23 24 23C20.6863 23 18 20.3137 18 17C18 13.6863 20.6863 11 24 11C27.3137 11 30 13.6863 30 17ZM32 25H16V27H32V25ZM28 33V36H20V33H28ZM35 31V29H14V31H35Z" />
</svg>

