<svg width="48" height="48" viewBox="0 0 48 48"  xmlns="http://www.w3.org/2000/svg">
<path fill-rule="evenodd" clip-rule="evenodd" d="M41 8H23V40H41V8ZM23 6C21.8954 6 21 6.89543 21 8V40C21 41.1046 21.8954 42 23 42H41C42.1046 42 43 41.1046 43 40V8C43 6.89543 42.1046 6 41 6H23ZM37 16C37 18.7614 34.7614 21 32 21C29.2386 21 27 18.7614 27 16C27 13.2386 29.2386 11 32 11C34.7614 11 37 13.2386 37 16ZM37 26V24H27V26H37ZM38 29V31H26V29H38ZM37 37V34H27V37H37ZM17 16C17 18.7614 14.7614 21 12 21C9.23858 21 7 18.7614 7 16C7 13.2386 9.23858 11 12 11C14.7614 11 17 13.2386 17 16ZM17 24H7V26H17V24ZM6 29H18V31H6V29ZM17 34H7V37H17V34Z" />
</svg>

