<?xml version="1.0" encoding="utf-8"?>
<svg version="1.1" id="Layer_1" xmlns="http://www.w3.org/2000/svg" xmlns:xlink="http://www.w3.org/1999/xlink" x="0px" y="0px" viewBox="0 0 48 48" style="enable-background:new 0 0 48 48;" xml:space="preserve">
<path fill-rule="evenodd" clip-rule="evenodd" d="M39 12H29.917C29.441 9.16229 26.973 7 24 7C21.027 7 18.559 9.16229 18.083 12H9C7.89543 12 7 12.8954 7 14V38C7 39.1046 7.89543 40 9 40H39C40.1046 40 41 39.1046 41 38V14C41 12.8954 40.1046 12 39 12ZM29.917 14C29.441 16.8377 26.973 19 24 19C21.027 19 18.559 16.8377 18.083 14H9V38H39V14H29.917ZM32 22H15V24H32V22ZM34 27V29H14V27H34ZM27 35V32H21V35H27Z" />
</svg>

