<svg width="48" height="48" viewBox="0 0 48 48"  xmlns="http://www.w3.org/2000/svg">
<path fill-rule="evenodd" clip-rule="evenodd" d="M27 6H43V38H27V6ZM25 6C25 4.89543 25.8954 4 27 4H43C44.1046 4 45 4.89543 45 6V38C45 39.1046 44.1046 40 43 40H27C25.8954 40 25 39.1046 25 38V6ZM35 19C37.7614 19 40 16.7614 40 14C40 11.2386 37.7614 9 35 9C32.2386 9 30 11.2386 30 14C30 16.7614 32.2386 19 35 19ZM39 22V24H31V22H39ZM40 29V27H30V29H40ZM39 32V35H31V32H39ZM5 9H21V41H5V9ZM3 9C3 7.89543 3.89543 7 5 7H21C22.1046 7 23 7.89543 23 9V41C23 42.1046 22.1046 43 21 43H5C3.89543 43 3 42.1046 3 41V9ZM18 17C18 19.7614 15.7614 22 13 22C10.2386 22 8 19.7614 8 17C8 14.2386 10.2386 12 13 12C15.7614 12 18 14.2386 18 17ZM17 27V25H9V27H17ZM18 30V32H8V30H18ZM17 38V35H9V38H17Z" />
</svg>

