<?xml version="1.0" encoding="utf-8"?>
<!-- Generator: Adobe Illustrator 23.1.0, SVG Export Plug-In . SVG Version: 6.00 Build 0)  -->
<svg version="1.1" id="Layer_1" xmlns="http://www.w3.org/2000/svg" xmlns:xlink="http://www.w3.org/1999/xlink" x="0px" y="0px"
	 viewBox="0 0 320 192" style="enable-background:new 0 0 320 192;" xml:space="preserve">
<style type="text/css">
	.st0{fill:#FFFFFF;filter:url(#Adobe_OpacityMaskFilter);stroke:#F00069;stroke-width:3;}
	.st1{mask:url(#mask0_1_);}
	.st2{fill:#F3F3F3;}
	.st3{fill:#E1E1E1;}
	.st4{fill:none;stroke:#333333;stroke-width:5;}
	.st5{fill:none;stroke:#333333;stroke-width:14;}
</style>
<defs>
	<filter id="Adobe_OpacityMaskFilter" filterUnits="userSpaceOnUse" x="27" y="11" width="213" height="170">
		<feColorMatrix  type="matrix" values="1 0 0 0 0  0 1 0 0 0  0 0 1 0 0  0 0 0 1 0"/>
	</filter>
</defs>
<mask maskUnits="userSpaceOnUse" x="27" y="11" width="213" height="170" id="mask0_1_">
	<path class="st0" d="M51.5,19c0-3.6,2.9-6.5,6.5-6.5h205c3.6,0,6.5,2.9,6.5,6.5v154c0,3.6-2.9,6.5-6.5,6.5H58
		c-3.6,0-6.5-2.9-6.5-6.5V19z"/>
</mask>
<g class="st1">
	<rect x="50" y="11" class="st2" width="79" height="166"/>
	<path class="st3" d="M128.9,127.5v25.3V181H82L128.9,127.5z"/>
	<path class="st3" d="M77.5,125l50.5,56H27L77.5,125z"/>
	<circle class="st3" cx="87" cy="46" r="13"/>
	<line class="st4" x1="148" y1="106.5" x2="240" y2="106.5"/>
	<line class="st4" x1="148" y1="90.5" x2="224" y2="90.5"/>
	<line class="st4" x1="148" y1="123.5" x2="216" y2="123.5"/>
	<line class="st5" x1="148" y1="68" x2="214" y2="68"/>
	<line class="st4" x1="131.5" y1="13" x2="131.5" y2="177"/>
</g>
<path class="st4" d="M52.5,19c0-3,2.5-5.5,5.5-5.5h87.7h8.7H263c3,0,5.5,2.5,5.5,5.5v154c0,3-2.5,5.5-5.5,5.5H58
	c-3,0-5.5-2.5-5.5-5.5V19z"/>
</svg>
