<?xml version="1.0" encoding="utf-8"?>
<!-- Generator: Adobe Illustrator 21.1.0, SVG Export Plug-In . SVG Version: 6.00 Build 0)  -->
<svg version="1.1" id="Wave_3" xmlns="http://www.w3.org/2000/svg" xmlns:xlink="http://www.w3.org/1999/xlink" x="0px" y="0px"
	 viewBox="0 0 1600 200" style="enable-background:new 0 0 1600 200;" xml:space="preserve">
<style type="text/css">
	.st0{fill:#29ABE2;}
	.st1{fill:#0071BC;}
	.st2{fill:#2E3192;}
</style>
<path id="Layer_3" class="st0" d="M1404,141.9c-177.2-10.3-284-48-440.4-95.9C755.8-17.7,618.9,0.9,486.7,22
	C397.4,36.3,317,59.7,188.4,88.3S-10,122.5-10,122.5v52.5h1620v-46.8C1610,128.2,1531.4,149.3,1404,141.9z"/>
<path id="Layer_2" class="st1" d="M1292.3,72.5c-124.1,0-254.5,27.9-312.6,45.5c141.4,27,296.1,55.7,433.9,55.7
	c127.6,0,196.4-19.4,196.4-19.4V132C1610,132,1477.6,72.5,1292.3,72.5z"/>
<path id="Shadow" class="st2" d="M1413.6,161.4c-157.9,0-338.2-37.7-495.1-67.4C702.9,53.2,590.4,49.4,500.3,52.9
	S317,73.4,188.5,102S-10,136.2-10,136.2v10c0,0,69.9-5.7,198.5-34.3s221.7-45.7,311.8-49.1s202.6,0.3,418.2,41.1
	c156.9,29.7,337.2,67.4,495.1,67.4c127.6,0,196.4-19.4,196.4-19.4v-10C1610,141.9,1541.2,161.4,1413.6,161.4z"/>
<path id="Layer_1" class="st2" d="M1413.6,161.4c-157.9,0-338.2-37.7-495.1-67.4C702.9,53.2,590.4,49.4,500.3,52.9
	S317,73.4,188.4,102S-10,136.2-10,136.2v74.2l1620,0v-68.5C1610,141.9,1541.2,161.4,1413.6,161.4z"/>
</svg>
