<?xml version="1.0" encoding="utf-8"?>
<!-- Generator: Adobe Illustrator 21.1.0, SVG Export Plug-In . SVG Version: 6.00 Build 0)  -->
<svg version="1.1" id="Curve_1" xmlns="http://www.w3.org/2000/svg" xmlns:xlink="http://www.w3.org/1999/xlink" x="0px" y="0px"
	 viewBox="0 0 1600 200" style="enable-background:new 0 0 1600 200;" xml:space="preserve">
<style type="text/css">
	.st0{fill:#29ABE2;}
	.st1{fill:#0071BC;}
	.st2{fill:#2E3192;}
</style>
<path id="Layer_3" class="st0" d="M807,0.8c-334.1,0-630.7,36.8-817,93.8v78.2h1620v-101C1424.5,28,1094.1,0.8,807,0.8z"/>
<path id="Layer_2" class="st1" d="M1610,156.6C1434.4,85.7,1102.5,38,722,38c-287.1,0-546.5,27.2-732,71v101h1620V156.6z"/>
<path id="Shadow" class="st2" d="M808,87.9c-334.7,0-631.8,37-818,94.1v10c186.2-57.1,483.3-94.1,818-94.1
	c325.3,0,615,34.9,802,89.3v-10C1423,122.9,1133.3,87.9,808,87.9z"/>
<path id="Layer_1" class="st2" d="M1610,177.3c-187-54.4-476.7-89.3-802-89.3c-334.7,0-631.8,37-818,94.1v28h1620V177.3z"/>
</svg>
