<?xml version="1.0" encoding="utf-8"?>
<!-- Generator: Adobe Illustrator 21.1.0, SVG Export Plug-In . SVG Version: 6.00 Build 0)  -->
<svg version="1.1" id="Rounded_2" xmlns="http://www.w3.org/2000/svg" xmlns:xlink="http://www.w3.org/1999/xlink" x="0px" y="0px"
	 viewBox="0 0 1600 200" style="enable-background:new 0 0 1600 200;" xml:space="preserve">
<style type="text/css">
	.st0{fill:#29ABE2;}
	.st1{fill:#0071BC;}
	.st2{fill:#2E3192;}
</style>
<path class="st0" d="M1447.5,124V46.8c0-9.8-8-17.9-17.9-17.9L167.1,29c-9.8,0-17.9,8-17.9,17.9V124H1447.5z"/>
<path class="st1" d="M1522.1,124V87.5c0-10.4-8.5-18.8-18.8-18.8l-1406.5,0c-10.4,0-18.8,8.5-18.8,18.8V124H1522.1z"/>
<path id="Shadow" class="st2" d="M1600,133.2c0-10.9-8.9-19.8-19.8-19.8l-1560.4,0C8.9,113.3,0,122.2,0,133.2V210h9v-66.8
	c0-10.9,8.9-19.8,19.8-19.8l1542.4,0c10.9,0,19.8,8.9,19.8,19.8V210h9V133.2z"/>
<path id="Layer_1" class="st2" d="M1609.5,133.2h-9.5c0-10.9-8.9-19.8-19.8-19.8l-1560.4,0C8.9,113.3,0,122.2,0,133.2l-10-0.2l0,77
	l1619.5,0V133.2z"/>
</svg>
