<?xml version="1.0" encoding="utf-8"?>
<!-- Generator: Adobe Illustrator 21.1.0, SVG Export Plug-In . SVG Version: 6.00 Build 0)  -->
<svg version="1.1" id="Wave_2" xmlns="http://www.w3.org/2000/svg" xmlns:xlink="http://www.w3.org/1999/xlink" x="0px" y="0px"
	 viewBox="0 0 1600 200" style="enable-background:new 0 0 1600 200;" xml:space="preserve">
<style type="text/css">
	.st0{fill:#29ABE2;}
	.st1{fill:#0071BC;}
	.st2{fill:#2E3192;}
</style>
<path id="Layer_3" class="st0" d="M1426.1,18.8C1343.3-17.5,1268.8,8,1225,28c-23.3,10.7-75.7,34.1-115.3,47.3
	c-44.3,14.8-77.2,25.7-115.7,29.5c-75.9,7.6-149.7,1.5-259-30.2C626.6,43.3,546.8,17.6,446,33c-118,18-208.7,72.1-278.4,93.1
	C73.1,154.6-10,116-10,116v71.7h1620c0,0,0-68.1,0-119.2C1557,78.5,1508.1,54.8,1426.1,18.8z"/>
<path id="Layer_2_1_" class="st1" d="M1426.1,33.1c-82.7-36.3-161.6-10.7-203.9,13c-20.6,11.5-60.2,35.2-101.6,51.9
	c-43.4,17.5-88.1,33.4-126.6,37.3c-75.9,7.6-154-5-259-41.3c-106.7-36.9-188.2-62-289-46.7c-118,18-214.7,91.6-284.4,112.6
	c-94.5,28.5-171.6-3-171.6-3v30.8h1620c0,0,0-56.2,0-107.3C1557,90.4,1508.1,69.1,1426.1,33.1z"/>
<path id="Shadow" class="st2" d="M1432.2,67.4c-88.8-16.7-156-5.3-204,8.5s-147.1,62.2-223.1,73.9c-75.4,11.6-164-7.5-275-27.9
	C619.1,101.5,571,88.1,456,98.1c-119.7,10.4-224.7,52-294.4,73c-94.5,28.5-171.6-3-171.6-3v10c0,0,77.1,31.5,171.6,3
	c69.7-21,174.7-62.6,294.4-73c115-10,163.1,3.4,274.1,23.8c111,20.4,199.6,39.5,275,27.9c76-11.7,175.1-60.1,223.1-73.9
	s115.2-25.2,204-8.5c91,17.1,124.8,34.2,177.8,24.2c0-3.4,0-6.7,0-10C1557,101.6,1523.2,84.5,1432.2,67.4z"/>
<path id="Layer_1_1_" class="st2" d="M1432.2,67.4c-88.8-16.7-156-5.3-204,8.5s-147.1,62.2-223.1,73.9c-75.4,11.6-164-7.5-275-27.9
	S571,88.1,456,98.1c-119.7,10.4-224.7,52-294.4,73c-94.5,28.5-171.6-3-171.6-3V210h1620c0,0,0-67.3,0-118.4
	C1557,101.6,1523.2,84.5,1432.2,67.4z"/>
</svg>
