<?xml version="1.0" encoding="utf-8"?>
<!-- Generator: Adobe Illustrator 21.1.0, SVG Export Plug-In . SVG Version: 6.00 Build 0)  -->
<svg version="1.1" id="Wave_1" xmlns="http://www.w3.org/2000/svg" xmlns:xlink="http://www.w3.org/1999/xlink" x="0px" y="0px"
	 viewBox="0 0 1600 200" style="enable-background:new 0 0 1600 200;" xml:space="preserve">
<style type="text/css">
	.st0{fill:#29ABE2;}
	.st1{fill:#0071BC;}
	.st2{fill:#2E3192;}
</style>
<path id="Layer_3" class="st0" d="M1476.4,15.9c-146.5,0-146.5,64.6-285.8,64.6c-119.2,0-106.3-53.1-271.4-53.1
	C825.8,27.4,794.2,69,687.9,69C594.6,69,573,25.9,439.5,25.9S183.8,129.3,96.2,129.3H-10v11h1620V37.4
	C1610,37.4,1566.9,15.9,1476.4,15.9z"/>
<path id="Layer_2" class="st1" d="M1361.5,66.1c-63.2,0-93.4-27.3-186.7-27.3c-83.3,0-127.8,44.5-238.4,44.5
	c-116.3,0-127.8-51.7-234.1-51.7S542.9,84.8,471.1,84.8c-129.3,0-178.1-79-337.5-83.3C60.2-0.5-10,14.4-10,14.4v125.9h1620V37.4
	C1552.5,37.4,1472.1,66.1,1361.5,66.1z"/>
<path id="Shadow" class="st2" d="M1341.4,48.9c-182.4,0-254.2,80.4-429.4,80.4c-117.8,0-209.7-67.5-393.5-67.5
	c-142.2,0-212.6,38.8-324.6,38.8S-10,64.7-10,64.7l0,10c0,0,91.9,35.9,203.9,35.9s182.4-38.8,324.6-38.8
	c183.8,0,275.7,67.5,393.5,67.5c175.2,0,247-80.4,429.4-80.4c87.6,0,158,12.9,268.6,53.1v-10C1499.4,61.8,1429,48.9,1341.4,48.9z"/>
<path id="Layer_1_1_" class="st2" d="M1341.4,48.9c-182.4,0-254.2,80.4-429.4,80.4c-117.8,0-209.7-67.5-393.5-67.5
	c-142.2,0-212.6,38.8-324.6,38.8S-10,64.7-10,64.7V210h1620V102C1499.4,61.8,1429,48.9,1341.4,48.9z"/>
</svg>
