<?xml version="1.0" encoding="utf-8"?>
<!-- Generator: Adobe Illustrator 21.1.0, SVG Export Plug-In . SVG Version: 6.00 Build 0)  -->
<svg version="1.1" id="Wave_2" xmlns="http://www.w3.org/2000/svg" xmlns:xlink="http://www.w3.org/1999/xlink" x="0px" y="0px"
	 viewBox="0 0 1600 200" style="enable-background:new 0 0 1600 200;" xml:space="preserve" filter="url(#dropShadow)">
	<filter id="dropShadow">
		<feGaussianBlur in="SourceAlpha" stdDeviation="4" />
		<feComponentTransfer>
			<feFuncA type="linear" slope="0.4"/>
		</feComponentTransfer>
		<feMerge>
			<feMergeNode />
			<feMergeNode in="SourceGraphic" />
		</feMerge>
	</filter>
<path id="Shadow" class="st2" d="M1432.2,67.4c-88.8-16.7-156-5.3-204,8.5s-147.1,62.2-223.1,73.9c-75.4,11.6-164-7.5-275-27.9
	C619.1,101.5,571,88.1,456,98.1c-119.7,10.4-224.7,52-294.4,73c-94.5,28.5-171.6-3-171.6-3v10c0,0,77.1,31.5,171.6,3
	c69.7-21,174.7-62.6,294.4-73c115-10,163.1,3.4,274.1,23.8c111,20.4,199.6,39.5,275,27.9c76-11.7,175.1-60.1,223.1-73.9
	s115.2-25.2,204-8.5c91,17.1,124.8,34.2,177.8,24.2c0-3.4,0-6.7,0-10C1557,101.6,1523.2,84.5,1432.2,67.4z"/>
</svg>
