<svg xmlns="http://www.w3.org/2000/svg" viewBox="0 0 194 194">
	<polygon points="73.1,65.3 104.8,97 73.1,128.7 83.7,139.3 126,97 83.7,54.7 	"/>
	<path d="M184.4,60c-7.2-17-19.2-31.5-34.4-41.8C134.9,8,116.5,2,96.9,2c-13.1,0-25.6,2.7-37,7.5c-17.1,7.2-31.6,19.3-41.8,34.4
		S1.9,77.4,1.9,97c0,13.1,2.7,25.6,7.5,37c7.2,17.1,19.3,31.6,34.4,41.8S77.2,192,96.9,192c13.1,0,25.6-2.7,37-7.5
		c17.1-7.2,31.6-19.3,41.8-34.4c10.2-15.2,16.2-33.5,16.2-53.1C191.9,83.9,189.2,71.4,184.4,60z M170.6,128.1
		c-6.1,14.3-16.2,26.6-29,35.2C128.8,172,113.5,177,96.9,177c-11.1,0-21.6-2.2-31.1-6.3c-14.3-6.1-26.6-16.2-35.2-29
		C21.9,129,16.9,113.6,16.9,97c0-11.1,2.2-21.6,6.3-31.1c6.1-14.3,16.2-26.6,29-35.2C64.9,22,80.3,17,96.9,17
		c11.1,0,21.6,2.2,31.1,6.3c14.3,6.1,26.6,16.2,35.2,29c8.6,12.8,13.7,28.1,13.7,44.7C176.9,108.1,174.7,118.6,170.6,128.1z"/>
</svg>
