<svg xmlns="http://www.w3.org/2000/svg" viewBox="0 0 190 190">
	<polygon points="79.4,112.4 60.7,93.7 50.1,104.3 79.4,133.6 141.7,71.3 131.1,60.7 	"/>
	<path d="M182.3,57.5C175.1,40.5,163,26,147.9,15.7C132.7,5.5,114.4-0.5,94.7-0.5c-13.1,0-25.6,2.7-37,7.5
		C40.7,14.2,26.2,26.2,16,41.4C5.7,56.5-0.3,74.8-0.3,94.5c0,13.1,2.7,25.6,7.5,37c7.2,17.1,19.3,31.6,34.4,41.8
		c15.2,10.2,33.5,16.2,53.1,16.2c13.1,0,25.6-2.7,37-7.5c17.1-7.2,31.6-19.3,41.8-34.4c10.2-15.2,16.2-33.5,16.2-53.1
		C189.8,81.4,187.1,68.9,182.3,57.5z M168.5,125.6c-6.1,14.3-16.2,26.6-29,35.2c-12.8,8.6-28.1,13.7-44.7,13.7
		c-11.1,0-21.6-2.2-31.1-6.3c-14.3-6.1-26.6-16.2-35.2-29c-8.6-12.8-13.7-28.1-13.7-44.7c0-11.1,2.2-21.6,6.3-31.1
		C27.1,49,37.2,36.8,50,28.1c12.8-8.6,28.1-13.7,44.7-13.7c11.1,0,21.6,2.2,31.1,6.3c14.3,6.1,26.6,16.2,35.2,29
		c8.6,12.8,13.7,28.1,13.7,44.7C174.8,105.6,172.5,116.1,168.5,125.6z"/>
</svg>
