<?xml version="1.0" encoding="utf-8"?>
<!-- Generator: Adobe Illustrator 23.1.0, SVG Export Plug-In . SVG Version: 6.00 Build 0)  -->
<svg version="1.1" id="Layer_1" xmlns="http://www.w3.org/2000/svg" xmlns:xlink="http://www.w3.org/1999/xlink" x="0px" y="0px"
	 viewBox="0 0 30 30" style="enable-background:new 0 0 30 30;" xml:space="preserve">
<path d="M15,11c0.3-1.4,1.9-7.3,6.7-7.3c2.8,0,5.8,1.9,5.8,6.3c0,4.9-4.5,10.6-12.5,15.8C7,20.6,2.5,14.9,2.5,10
	c0-4.4,3-6.3,5.7-6.3C13.1,3.7,14.7,9.6,15,11z M0,10c0,5.1,3.8,11.9,15,18.7C26.2,21.9,30,15.1,30,10c0-10-12.1-11.3-15-4.7
	C12.1-1.2,0,0,0,10z"/>
</svg>
