<svg enable-background="new 0 0 157 160.7" viewBox="0 0 157 160.7" xmlns="http://www.w3.org/2000/svg"><path d="m99.1 48.9 56.1-41.8c1.3-1 1.9-2.6 1.5-4.2-.5-1.8-2.3-3-4.2-2.9h-102.7z" fill="#ffbe2c"/><path d="m99.1 48.9-49.3-48.9-40.2 42.3c-2.7 2.8-.9 6.6 3 6.6z" fill="#e26b54"/><path d="m147.5 96.9-39.5-38.9.1-.1h-96.4c-1.9 0-3.4 1.5-3.4 3.4 0 .9.4 1.8 1 2.4l39.3 38.9-.1.1h96.8c1.9-.1 3.3-1.6 3.3-3.5-.1-.9-.5-1.7-1.1-2.3z" fill="#e11d62"/><path d="m57.7 111.7-56.1 41.8c-1.8 1.3-2.1 3.7-.9 5.5.8 1.1 2.1 1.7 3.5 1.6h102.8z" fill="#4cd5d9"/><path d="m107 160.6 40.5-42.6c1.4-1.5 1.4-3.8-.1-5.2-.7-.7-1.6-1-2.6-1h-87.1z" fill="#47a0dd"/></svg>