<svg version="1.1" id="Layer_3" xmlns="http://www.w3.org/2000/svg" xmlns:xlink="http://www.w3.org/1999/xlink" x="0px" y="0px"
	 viewBox="0 0 155.8 175.1" style="enable-background:new 0 0 155.8 175.1;" xml:space="preserve">
<style type="text/css">
	.st0{fill:#5FB3DD;}
	.st1{fill:#E2735D;}
	.st2{fill:#8C33DA;}
	.st3{fill:#E1565D;}
	.st4{fill:#47A0DD;}
	.st5{fill:#EF9856;}
	.st6{fill:#EA75D4;}
	.st7{fill:#EABD59;}
	.st8{fill:#49CBCE;}
</style>
<path class="st0" d="M107,175.1l43.7-44.8c3.7-3.8,5.4-8.8,5.1-13.8c0-0.4-0.1-0.8-0.1-1.2H107V175.1z"/>
<path class="st1" d="M48.8,0.4L48.8,0.4L5.1,45.2C1.4,49-0.3,54,0,59c0,0.4,0.1,0.7,0.1,1.1h48.6V0.4z"/>
<polygon class="st2" points="48.8,115.3 48.8,115.3 48.8,115.3 "/>
<polygon class="st2" points="107,60.1 107,60.1 107,60.1 "/>
<polygon class="st3" points="48.8,60.1 48.8,115.3 48.8,115.3 107,115.3 107,60.1 107,60.1 "/>
<polygon class="st4" points="48.8,115.3 107,175.1 107,175.1 107,115.3 "/>
<polygon class="st5" points="107,60.1 48.8,0.4 48.8,60.1 "/>
<path class="st2" d="M107,60.1v55.2h48.6c-0.5-3.8-2.1-7.5-4.9-10.4L107,60.1z"/>
<path class="st6" d="M48.8,115.3V60.1H0.2c0.5,3.8,2.1,7.5,4.9,10.4L48.8,115.3z"/>
<path class="st7" d="M154.3,8.5c3.1-3.2,0.9-8.5-3.6-8.5H62.3l50.3,51.5L154.3,8.5z"/>
<path class="st8" d="M1.5,166.8C-1.7,170,0.6,175,5,175h88.5l-50.3-51.4L1.5,166.8z"/>
</svg>
