<?xml version="1.0" encoding="utf-8"?>
<!-- Generator: Adobe Illustrator 19.2.0, SVG Export Plug-In . SVG Version: 6.00 Build 0)  -->
<svg version="1.1" id="Layer_1" xmlns="http://www.w3.org/2000/svg" xmlns:xlink="http://www.w3.org/1999/xlink" x="0px" y="0px"
	 viewBox="0 0 200 97.1" style="enable-background:new 0 0 200 97.1;" xml:space="preserve">
<path d="M55.6,32.8c-0.8-0.7-1.8-1.2-2.9-1.6c-1.2-0.4-2.6-0.6-4.2-0.6h-6.5v16.7h6.5c1.6,0,3-0.2,4.2-0.6c1.2-0.4,2.2-1,2.9-1.7
	c0.8-0.7,1.4-1.6,1.7-2.7c0.4-1.1,0.6-2.2,0.6-3.6c0-1.2-0.2-2.4-0.6-3.4C57,34.4,56.4,33.5,55.6,32.8z"/>
<path d="M153,35.2c-1.3-1.4-2.8-2.5-4.6-3.3c-1.8-0.8-3.9-1.1-6.1-1.1c-2.3,0-4.3,0.4-6.1,1.1c-1.8,0.8-3.4,1.8-4.7,3.3
	s-2.3,3.1-2.9,5.2c-0.7,2-1,4.3-1,6.9c0,2.6,0.3,4.8,1,6.9c0.7,2,1.7,3.7,2.9,5.2c1.3,1.4,2.8,2.5,4.7,3.2c1.8,0.8,3.9,1.1,6.1,1.1
	c2.3,0,4.3-0.4,6.1-1.1c1.8-0.7,3.4-1.8,4.6-3.2c1.3-1.4,2.2-3.1,2.9-5.2s1-4.3,1-6.9c0-2.6-0.3-4.8-1-6.9S154.3,36.6,153,35.2z"/>
<path d="M100.9,38c0-2.4-0.8-4.2-2.3-5.4c-1.6-1.3-3.9-1.9-7.1-1.9h-5.5v15.5h5.4c1.6,0,3.1-0.2,4.3-0.6c1.2-0.4,2.2-1,3-1.7
	c0.8-0.7,1.4-1.6,1.8-2.6C100.7,40.2,100.9,39.2,100.9,38z"/>
<path d="M178.6,0H21.4C9.6,0,0,9.6,0,21.4v54.3c0,11.8,9.6,21.4,21.4,21.4h157.2c11.8,0,21.4-9.6,21.4-21.4V21.4
	C200,9.6,190.4,0,178.6,0z M65.5,45c-0.8,1.9-1.9,3.5-3.4,4.8c-1.5,1.4-3.4,2.4-5.6,3.2c-2.3,0.8-4.9,1.1-7.9,1.1h-6.5v16.4h-8.7
	V23.9h15.2c3.1,0,5.8,0.4,8.1,1.1c2.3,0.7,4.2,1.8,5.6,3.1c1.5,1.3,2.6,2.9,3.3,4.7c0.7,1.8,1.1,3.8,1.1,6
	C66.6,41,66.3,43.1,65.5,45z M105.8,70.5c-0.8,0-1.4-0.1-1.9-0.5s-1-0.7-1.3-1.3l-9.8-14.9c-0.4-0.6-0.8-1-1.2-1.2
	c-0.4-0.2-1.1-0.4-1.9-0.4h-3.7v18.2h-8.7V23.9h14.2c3.2,0,5.9,0.3,8.2,1c2.3,0.7,4.1,1.6,5.6,2.8c1.4,1.2,2.5,2.6,3.2,4.2
	c0.7,1.6,1,3.5,1,5.4c0,1.6-0.2,3-0.7,4.4c-0.5,1.4-1.1,2.7-2,3.8c-0.9,1.1-1.9,2.1-3.2,3c-1.3,0.9-2.7,1.5-4.4,2.1
	c1.1,0.6,2,1.5,2.8,2.7l11.7,17.2H105.8z M164.2,56.7c-1.1,2.9-2.7,5.4-4.8,7.5c-2.1,2.1-4.5,3.8-7.4,5c-2.9,1.2-6.1,1.8-9.6,1.8
	c-3.5,0-6.7-0.6-9.6-1.8c-2.9-1.2-5.4-2.9-7.5-5c-2.1-2.1-3.7-4.6-4.8-7.5c-1.1-2.9-1.7-6.1-1.7-9.5c0-3.4,0.6-6.6,1.7-9.5
	c1.1-2.9,2.7-5.4,4.8-7.6c2.1-2.1,4.6-3.8,7.5-5c2.9-1.2,6.1-1.8,9.6-1.8c3.5,0,6.7,0.6,9.6,1.8s5.4,2.9,7.4,5
	c2.1,2.1,3.7,4.6,4.8,7.5s1.7,6.1,1.7,9.5C165.9,50.6,165.3,53.8,164.2,56.7z"/>
</svg>
