<?xml version="1.0" encoding="utf-8"?>
<svg version="1.1" id="Layer_1" xmlns="http://www.w3.org/2000/svg" xmlns:xlink="http://www.w3.org/1999/xlink" x="0px" y="0px" viewBox="0 0 48 48" style="enable-background:new 0 0 48 48;" xml:space="preserve">
<path fill-rule="evenodd" clip-rule="evenodd" d="M39 40V21H9V40H39ZM9 7C7.89543 7 7 7.89543 7 9V40C7 41.1046 7.89543 42 9 42H39C40.1046 42 41 41.1046 41 40V9C41 7.89543 40.1046 7 39 7H9ZM12 24H27V26H12V24ZM20 34H12V37H20V34ZM27 34H30V37H27V34ZM35 34H32V37H35V34ZM12 29H31V31H12V29Z" />
</svg>

