<?xml version="1.0" encoding="utf-8"?>
<!-- Generator: Adobe Illustrator 23.1.0, SVG Export Plug-In . SVG Version: 6.00 Build 0)  -->
<svg version="1.1" id="Layer_1" xmlns="http://www.w3.org/2000/svg" xmlns:xlink="http://www.w3.org/1999/xlink" x="0px" y="0px"
	 viewBox="0 0 320 192" style="enable-background:new 0 0 320 192;" xml:space="preserve">
<style type="text/css">
	.st0{fill:#FFFFFF;filter:url(#Adobe_OpacityMaskFilter);stroke:#F00069;stroke-width:3;}
	.st1{mask:url(#mask0_1_);}
	.st2{fill:#F3F3F3;}
	.st3{fill:#E1E1E1;}
	.st4{fill:none;stroke:#000000;stroke-width:5;}
	.st5{fill:none;stroke:#000000;stroke-width:14;}
</style>
<defs>
	<filter id="Adobe_OpacityMaskFilter" filterUnits="userSpaceOnUse" x="50" y="11" width="221" height="151">
		<feColorMatrix  type="matrix" values="1 0 0 0 0  0 1 0 0 0  0 0 1 0 0  0 0 0 1 0"/>
	</filter>
</defs>
<mask maskUnits="userSpaceOnUse" x="50" y="11" width="221" height="151" id="mask0_1_">
	<path class="st0" d="M51.5,19c0-3.6,2.9-6.5,6.5-6.5h205c3.6,0,6.5,2.9,6.5,6.5v154c0,3.6-2.9,6.5-6.5,6.5H58
		c-3.6,0-6.5-2.9-6.5-6.5V19z"/>
</mask>
<g class="st1">
	<rect x="50" y="11" class="st2" width="221" height="89"/>
	<path class="st3" d="M231.4,26L271,68.8V97H167L231.4,26z"/>
	<path class="st3" d="M171.5,41L222,97H121L171.5,41z"/>
	<line class="st4" x1="73" y1="159.5" x2="172" y2="159.5"/>
	<line class="st4" x1="73" y1="143.5" x2="197" y2="143.5"/>
	<line class="st4" x1="53" y1="97.5" x2="268" y2="97.5"/>
	<line class="st5" x1="73" y1="121" x2="161" y2="121"/>
	<circle class="st3" cx="87" cy="46" r="13"/>
</g>
<path class="st4" d="M52.5,19c0-3,2.5-5.5,5.5-5.5h205c3,0,5.5,2.5,5.5,5.5v154c0,3-2.5,5.5-5.5,5.5H58c-3,0-5.5-2.5-5.5-5.5V19z"/>
</svg>
