<svg width="48" height="48" viewBox="0 0 48 48"  xmlns="http://www.w3.org/2000/svg">
<path fill-rule="evenodd" clip-rule="evenodd" d="M39 13H9L9 35H39V13ZM9 11C7.89543 11 7 11.8954 7 13V35C7 36.1046 7.89543 37 9 37H39C40.1046 37 41 36.1046 41 35V13C41 11.8954 40.1046 11 39 11H9Z" />
<path fill-rule="evenodd" clip-rule="evenodd" d="M9 13H39V35H9V13ZM12 26V23H36V26H12ZM36 32V29H12V32H36ZM32.1953 16.2197C32.4556 15.9268 32.8777 15.9268 33.1381 16.2197L34 17.1893L34.8619 16.2197C35.1223 15.9268 35.5444 15.9268 35.8047 16.2197C36.0651 16.5126 36.0651 16.9874 35.8047 17.2803L34.4714 18.7803C34.2111 19.0732 33.7889 19.0732 33.5286 18.7803L32.1953 17.2803C31.9349 16.9874 31.9349 16.5126 32.1953 16.2197ZM24 16H12V19H24V16Z" />
</svg>
