<svg width="48" height="48" viewBox="0 0 48 48"  xmlns="http://www.w3.org/2000/svg">
<path fill-rule="evenodd" clip-rule="evenodd" d="M39 13.4H9L9 20.6H39V13.4ZM9 11C7.89543 11 7 12.0745 7 13.4V20.6C7 21.9255 7.89543 23 9 23H39C40.1046 23 41 21.9255 41 20.6V13.4C41 12.0745 40.1046 11 39 11H9Z" />
<path d="M9 26H39V28H9V26Z" />
<path d="M9 31H39V33H9V31Z" />
<path d="M9 36H39V38H9V36Z" />
<path fill-rule="evenodd" clip-rule="evenodd" d="M33.1464 16.1464C33.3417 15.9512 33.6583 15.9512 33.8536 16.1464L34.5 16.7929L35.1464 16.1464C35.3417 15.9512 35.6583 15.9512 35.8536 16.1464C36.0488 16.3417 36.0488 16.6583 35.8536 16.8536L34.8536 17.8536C34.6583 18.0488 34.3417 18.0488 34.1464 17.8536L33.1464 16.8536C32.9512 16.6583 32.9512 16.3417 33.1464 16.1464Z" />
<path d="M12 16H24V18H12V16Z" />
</svg>
