<svg width="48" height="48" viewBox="0 0 48 48"  xmlns="http://www.w3.org/2000/svg">
<path fill-rule="evenodd" clip-rule="evenodd" d="M23 13H9V15H23V13ZM39 19H9V21H39V19ZM9 24H39V26H9V24ZM39 29H9V31H39V29ZM9 34H39V35H9V34ZM36.8536 13.1464C36.6583 12.9512 36.3417 12.9512 36.1464 13.1464C35.9512 13.3417 35.9512 13.6583 36.1464 13.8536L37.1464 14.8536C37.3417 15.0488 37.6583 15.0488 37.8536 14.8536L38.8536 13.8536C39.0488 13.6583 39.0488 13.3417 38.8536 13.1464C38.6583 12.9512 38.3417 12.9512 38.1464 13.1464L37.5 13.7929L36.8536 13.1464Z" />
</svg>
