<svg width="48" height="48" viewBox="0 0 48 48"  xmlns="http://www.w3.org/2000/svg">
<path fill-rule="evenodd" clip-rule="evenodd" d="M9 13H39V36H9V13ZM11 40C10.7154 40 9 40 9 40C9 40 9 38.2676 9 38C7.89543 38 7 37.1046 7 36V13C7 11.8954 7.89543 11 9 11H39C39.7484 11 40.7437 11.8237 40.7437 13.0197C42 13.0197 43 13 43 13C43 13 43 31.5 43 40C32.3333 40 21.6667 40 11 40ZM33.8536 16.1464C33.6583 15.9512 33.3417 15.9512 33.1464 16.1464C32.9512 16.3417 32.9512 16.6583 33.1464 16.8536L34.1464 17.8536C34.3417 18.0488 34.6583 18.0488 34.8536 17.8536L35.8536 16.8536C36.0488 16.6583 36.0488 16.3417 35.8536 16.1464C35.6583 15.9512 35.3417 15.9512 35.1464 16.1464L34.5 16.7929L33.8536 16.1464ZM12 16H27V18H12V16ZM36 21H12V23H36V21ZM12 26H36V28H12V26ZM36 31H12V33H36V31Z" />
</svg>
