<svg width="48" height="48" viewBox="0 0 48 48"  xmlns="http://www.w3.org/2000/svg">
<path fill-rule="evenodd" clip-rule="evenodd" d="M4 14C4 12.8954 4.89543 12 6 12H42C43.1046 12 44 12.8954 44 14V33C44 34.1046 43.1046 35 42 35H6C4.89543 35 4 34.1046 4 33V14ZM10 19H18V22H10V19ZM22 25H10V28H22V25Z" />
<path fill-rule="evenodd" clip-rule="evenodd" d="M20 17V23H24V30H8V17H20ZM42 14L6 14L6 33H42V14ZM10 22V19H18V22H10ZM6 12C4.89543 12 4 12.8954 4 14V33C4 34.1046 4.89543 35 6 35H42C43.1046 35 44 34.1046 44 33V14C44 12.8954 43.1046 12 42 12H6ZM22 25V28H10V25H22Z" />
</svg>
