<svg width="48" height="48" viewBox="0 0 48 48"  xmlns="http://www.w3.org/2000/svg">
<path fill-rule="evenodd" clip-rule="evenodd" d="M42 14H8V35H42V14ZM6 12C4.89543 12 4 12.8954 4 14V35C4 36.1046 4.89543 37 6 37H42C43.1046 37 44 36.1046 44 35V14C44 12.8954 43.1046 12 42 12H6ZM25 24H12V26H25V24ZM38 29V31H12V29H38ZM11.5833 19C11.5833 18.2176 12.2176 17.5833 13 17.5833C13.7824 17.5833 14.4167 18.2176 14.4167 19C14.4167 19.7824 13.7824 20.4167 13 20.4167C12.2176 20.4167 11.5833 19.7824 11.5833 19ZM13 17.0833C11.9415 17.0833 11.0833 17.9415 11.0833 19C11.0833 20.0585 11.9415 20.9167 13 20.9167C14.0586 20.9167 14.9167 20.0585 14.9167 19C14.9167 17.9415 14.0586 17.0833 13 17.0833ZM13 18.0833C13.1381 18.0833 13.25 18.1953 13.25 18.3333V19C13.25 19.1381 13.1381 19.25 13 19.25C12.8619 19.25 12.75 19.1381 12.75 19V18.3333C12.75 18.1953 12.8619 18.0833 13 18.0833ZM13 19.4167C12.8619 19.4167 12.75 19.5286 12.75 19.6667C12.75 19.8047 12.8619 19.9167 13 19.9167H13.0017C13.1397 19.9167 13.2517 19.8047 13.2517 19.6667C13.2517 19.5286 13.1397 19.4167 13.0017 19.4167H13Z" />
</svg>

