<svg width="48" height="48" viewBox="0 0 48 48"  xmlns="http://www.w3.org/2000/svg">
<path fill-rule="evenodd" clip-rule="evenodd" d="M9 12C7.89543 12 7 12.8954 7 14V33C7 34.1046 7.89543 35 9 35H39C40.1046 35 41 34.1046 41 33V14C41 12.8954 40.1046 12 39 12H9ZM25 24H11V26H25V24ZM11 29H37V31H11V29ZM11.5833 18C11.5833 17.2176 12.2176 16.5833 13 16.5833C13.7824 16.5833 14.4167 17.2176 14.4167 18C14.4167 18.7824 13.7824 19.4167 13 19.4167C12.2176 19.4167 11.5833 18.7824 11.5833 18ZM13 16.0833C11.9415 16.0833 11.0833 16.9415 11.0833 18C11.0833 19.0585 11.9415 19.9167 13 19.9167C14.0586 19.9167 14.9167 19.0585 14.9167 18C14.9167 16.9415 14.0586 16.0833 13 16.0833ZM13 17.0833C13.1381 17.0833 13.25 17.1953 13.25 17.3333V18C13.25 18.1381 13.1381 18.25 13 18.25C12.8619 18.25 12.75 18.1381 12.75 18V17.3333C12.75 17.1953 12.8619 17.0833 13 17.0833ZM13 18.4167C12.8619 18.4167 12.75 18.5286 12.75 18.6667C12.75 18.8047 12.8619 18.9167 13 18.9167H13.0017C13.1397 18.9167 13.2517 18.8047 13.2517 18.6667C13.2517 18.5286 13.1397 18.4167 13.0017 18.4167H13Z" />
</svg>

