<svg width="48" height="48" viewBox="0 0 48 48"  xmlns="http://www.w3.org/2000/svg">
<path fill-rule="evenodd" clip-rule="evenodd" d="M9 12C7.89543 12 7 12.8954 7 14V16.0563C7.31425 15.1524 8.01343 14.3898 8.97963 14.0277C10.7035 13.3818 12.6247 14.2557 13.2706 15.9796C13.9165 17.7035 13.0426 19.6247 11.3187 20.2706C9.59482 20.9165 7.67368 20.0426 7.02776 18.3187C7.01817 18.2931 7.00892 18.2675 7 18.2418V33C7 34.1046 7.89543 35 9 35H39C40.1046 35 41 34.1046 41 33V14C41 12.8954 40.1046 12 39 12H9ZM10.1495 15.7251C10.0527 15.4666 9.76448 15.3355 9.5059 15.4324C9.24731 15.5293 9.11623 15.8174 9.21311 16.076L9.68093 17.3246C9.77782 17.5832 10.066 17.7143 10.3246 17.6174C10.5832 17.5205 10.7142 17.2323 10.6174 16.9737L10.1495 15.7251ZM10.1488 18.5732C10.0519 18.3146 10.1829 18.0264 10.4415 17.9295L10.4447 17.9283C10.7032 17.8315 10.9914 17.9625 11.0883 18.2211C11.1852 18.4797 11.0541 18.7679 10.7955 18.8648L10.7924 18.8659C10.5338 18.9628 10.2456 18.8317 10.1488 18.5732ZM11 24H25V26H11V24ZM37 29H11V31H37V29Z" />
</svg>

