<svg width="48" height="48" viewBox="0 0 48 48"  xmlns="http://www.w3.org/2000/svg">
<path fill-rule="evenodd" clip-rule="evenodd" d="M8 13H40V36H8V13ZM6 13C6 11.8954 6.89543 11 8 11H40C41.1046 11 42 11.8954 42 13V36C42 37.1046 41.1046 38 40 38H8C6.89543 38 6 37.1046 6 36V13ZM25 25H12V27H25V25ZM12 30H36V32H12V30ZM12.5833 19C12.5833 18.2176 13.2176 17.5833 14 17.5833C14.7824 17.5833 15.4167 18.2176 15.4167 19C15.4167 19.7824 14.7824 20.4167 14 20.4167C13.2176 20.4167 12.5833 19.7824 12.5833 19ZM14 17.0833C12.9415 17.0833 12.0833 17.9415 12.0833 19C12.0833 20.0585 12.9415 20.9167 14 20.9167C15.0586 20.9167 15.9167 20.0585 15.9167 19C15.9167 17.9415 15.0586 17.0833 14 17.0833ZM14 18.0833C14.1381 18.0833 14.25 18.1953 14.25 18.3333V19C14.25 19.1381 14.1381 19.25 14 19.25C13.8619 19.25 13.75 19.1381 13.75 19V18.3333C13.75 18.1953 13.8619 18.0833 14 18.0833ZM14 19.4167C13.8619 19.4167 13.75 19.5286 13.75 19.6667C13.75 19.8047 13.8619 19.9167 14 19.9167H14.0017C14.1397 19.9167 14.2517 19.8047 14.2517 19.6667C14.2517 19.5286 14.1397 19.4167 14.0017 19.4167H14Z" />
</svg>

