<svg width="48" height="48" viewBox="0 0 48 48"  xmlns="http://www.w3.org/2000/svg">
<path fill-rule="evenodd" clip-rule="evenodd" d="M15 16H42V31H15V16ZM4 16C4 14.8954 4.89543 14 6 14H42C43.1046 14 44 14.8954 44 16V31C44 32.1046 43.1046 33 42 33H6C4.89543 33 4 32.1046 4 31V16ZM10 21.5833C9.2176 21.5833 8.58334 22.2176 8.58334 23C8.58334 23.7824 9.2176 24.4167 10 24.4167C10.7824 24.4167 11.4167 23.7824 11.4167 23C11.4167 22.2176 10.7824 21.5833 10 21.5833ZM8.08334 23C8.08334 21.9415 8.94146 21.0833 10 21.0833C11.0586 21.0833 11.9167 21.9415 11.9167 23C11.9167 24.0585 11.0586 24.9167 10 24.9167C8.94146 24.9167 8.08334 24.0585 8.08334 23ZM10.25 22.3333C10.25 22.1953 10.1381 22.0833 10 22.0833C9.86193 22.0833 9.75 22.1953 9.75 22.3333V23C9.75 23.1381 9.86193 23.25 10 23.25C10.1381 23.25 10.25 23.1381 10.25 23V22.3333ZM9.75 23.6667C9.75 23.5286 9.86193 23.4167 10 23.4167H10.0017C10.1397 23.4167 10.2517 23.5286 10.2517 23.6667C10.2517 23.8047 10.1397 23.9167 10.0017 23.9167H10C9.86193 23.9167 9.75 23.8047 9.75 23.6667ZM19 20H31V22H19V20ZM38 25H19V27H38V25Z" />
</svg>

