<?xml version="1.0" encoding="utf-8"?>
<!-- Generator: Adobe Illustrator 23.1.0, SVG Export Plug-In . SVG Version: 6.00 Build 0)  -->
<svg version="1.1" id="Layer_1" xmlns="http://www.w3.org/2000/svg" xmlns:xlink="http://www.w3.org/1999/xlink" x="0px" y="0px"
	 viewBox="0 0 48 48" style="enable-background:new 0 0 48 48;" xml:space="preserve">
<style type="text/css">
	.st0{fill-rule:evenodd;clip-rule:evenodd;}
</style>
<path class="st0" d="M17.2788 24.7694L17.1823 26H17.7131L17.6005 24.7694L18.6059 25.4611L18.8713 24.9866L17.7534 24.496L18.8633 23.9973L18.6059 23.5308L17.6005 24.2306L17.7212 23H17.1743L17.2869 24.2306L16.2735 23.5308L16.008 24.0054L17.118 24.4879L16 24.9786L16.2815 25.4692L17.2788 24.7694ZM24.1823 26L24.2788 24.7694L23.2815 25.4692L23 24.9786L24.118 24.4879L23.008 24.0054L23.2735 23.5308L24.2869 24.2306L24.1743 23H24.7212L24.6005 24.2306L25.6059 23.5308L25.8633 23.9973L24.7534 24.496L25.8713 24.9866L25.6059 25.4611L24.6005 24.7694L24.7131 26H24.1823ZM31.1823 26L31.2788 24.7694L30.2815 25.4692L30 24.9786L31.118 24.4879L30.008 24.0054L30.2735 23.5308L31.2869 24.2306L31.1743 23H31.7212L31.6005 24.2306L32.6059 23.5308L32.8633 23.9973L31.7534 24.496L32.8713 24.9866L32.6059 25.4611L31.6005 24.7694L31.7131 26H31.1823Z"/>
</svg>


