<?xml version="1.0" encoding="utf-8"?>
<!-- Generator: Adobe Illustrator 23.1.0, SVG Export Plug-In . SVG Version: 6.00 Build 0)  -->
<svg version="1.1" id="Layer_1" xmlns="http://www.w3.org/2000/svg" xmlns:xlink="http://www.w3.org/1999/xlink" x="0px" y="0px"
	 viewBox="0 0 48 48" style="enable-background:new 0 0 48 48;" xml:space="preserve">
<style type="text/css">
	.st0{fill-rule:evenodd;clip-rule:evenodd;}
</style>
<path class="st0" d="M18 24.5C18 25.3284 17.3284 26 16.5 26C15.6716 26 15 25.3284 15 24.5C15 23.6716 15.6716 23 16.5 23C17.3284 23 18 23.6716 18 24.5ZM25 24.5C25 25.3284 24.3284 26 23.5 26C22.6716 26 22 25.3284 22 24.5C22 23.6716 22.6716 23 23.5 23C24.3284 23 25 23.6716 25 24.5ZM30.5 26C31.3284 26 32 25.3284 32 24.5C32 23.6716 31.3284 23 30.5 23C29.6716 23 29 23.6716 29 24.5C29 25.3284 29.6716 26 30.5 26Z"/>
</svg>
