<?xml version="1.0" encoding="utf-8"?>
<!-- Generator: Adobe Illustrator 19.2.0, SVG Export Plug-In . SVG Version: 6.00 Build 0)  -->
<svg version="1.1" id="Layer_1" xmlns="http://www.w3.org/2000/svg" xmlns:xlink="http://www.w3.org/1999/xlink" x="0px" y="0px"
	 viewBox="0 0 50 50" style="enable-background:new 0 0 50 50;" xml:space="preserve">
<path d="M22.3,30.5c0,6-4.8,10.8-10.8,10.8c-2.3,0-4.5-0.8-6.3-2c-0.9-0.6-1.8-1.4-2.5-2.4c-1.8-2.4-2.7-5.4-2.7-9
	c0-4.5,1.3-8.5,4-11.9c2.7-3.4,6.4-5.8,11.1-7.3v2.8c-2.7,2.2-4.4,5-4.9,8.3c0.4-0.1,0.9-0.1,1.3-0.1C17.5,19.6,22.3,24.5,22.3,30.5
	z M39.2,19.6c-0.5,0-0.9,0-1.3,0.1c0.5-3.3,2.2-6.1,4.9-8.3V8.7c-4.7,1.4-8.4,3.9-11.1,7.3c-2.7,3.4-4,7.4-4,11.9
	c0,3.6,0.9,6.6,2.7,9c0.8,1,1.6,1.8,2.5,2.4c1.8,1.3,3.9,2,6.3,2c6,0,10.8-4.8,10.8-10.8C50,24.5,45.2,19.6,39.2,19.6z"/>
</svg>
