<?xml version="1.0" encoding="utf-8"?>
<!-- Generator: Adobe Illustrator 21.1.0, SVG Export Plug-In . SVG Version: 6.00 Build 0)  -->
<svg version="1.1" id="Layer_1" xmlns="http://www.w3.org/2000/svg" xmlns:xlink="http://www.w3.org/1999/xlink" x="0px" y="0px"
	 viewBox="0 0 215.8 215.8" style="enable-background:new 0 0 215.8 215.8;" xml:space="preserve">
<style type="text/css">
	.st0{fill:url(#SVGID_1_);}
</style>
<linearGradient id="SVGID_1_" gradientUnits="userSpaceOnUse" x1="85.4395" y1="16.2687" x2="146.7472" y2="206.6454">
	<stop  offset="0" style="stop-color:#AB5AF1"/>
	<stop  offset="1" style="stop-color:#FB6874"/>
</linearGradient>
<path class="st0" d="M112.8,12.3l27.8,56.4c0.8,1.6,2.3,2.7,4.1,2.9l62.3,9c4.4,0.6,6.2,6.1,3,9.2l-45,43.9c-1.3,1.2-1.9,3-1.6,4.8
	l10.6,62c0.8,4.4-3.9,7.8-7.8,5.7L110.4,177c-1.6-0.8-3.4-0.8-5,0l-55.7,29.3c-4,2.1-8.6-1.3-7.8-5.7l10.6-62
	c0.3-1.7-0.3-3.5-1.6-4.8l-45-43.9c-3.2-3.1-1.4-8.6,3-9.2l62.3-9c1.8-0.3,3.3-1.4,4.1-2.9l27.8-56.4
	C105.1,8.3,110.8,8.3,112.8,12.3z"/>
</svg>
