<?xml version="1.0" encoding="utf-8"?>
<!-- Generator: Adobe Illustrator 23.1.0, SVG Export Plug-In . SVG Version: 6.00 Build 0)  -->
<svg version="1.1" id="Layer_1" xmlns="http://www.w3.org/2000/svg" xmlns:xlink="http://www.w3.org/1999/xlink" x="0px" y="0px"
	 viewBox="0 0 1600 200" style="enable-background:new 0 0 1600 200;" xml:space="preserve" filter="url(#dropShadow)">
	<filter id="dropShadow">
		<feGaussianBlur in="SourceAlpha" stdDeviation="4" />
		<feComponentTransfer>
			<feFuncA type="linear" slope="0.4"/>
		</feComponentTransfer>
		<feMerge>
			<feMergeNode />
			<feMergeNode in="SourceGraphic" />
		</feMerge>
	</filter>
<path d="M1472.3,113.3c-17.1,11.3-37.2,15.5-87,18.1c-49.7,2.6-753.6,40.7-783.9,42.3c-30.3,1.5-81.1,1.3-121.1-8.2
	C440.3,156-9.5,50-9.5,50v10c0,0,449.8,106,489.8,115.5c40,9.5,90.8,9.7,121.1,8.2c30.3-1.6,734.2-39.7,783.9-42.3
	c49.8-2.6,69.9-6.8,87-18.1c10-6.6,138.2-89.2,138.2-89.2v-10C1610.5,24.1,1482.3,106.7,1472.3,113.3z"/>
</svg>
