<?xml version="1.0" encoding="utf-8"?>
<!-- Generator: Adobe Illustrator 23.1.0, SVG Export Plug-In . SVG Version: 6.00 Build 0)  -->
<svg version="1.1" id="Wave_1" xmlns="http://www.w3.org/2000/svg" xmlns:xlink="http://www.w3.org/1999/xlink" x="0px" y="0px"
	 viewBox="0 0 1600 200" style="enable-background:new 0 0 1600 200;" xml:space="preserve" filter="url(#dropShadow)">
	<filter id="dropShadow">
		<feGaussianBlur in="SourceAlpha" stdDeviation="4" />
		<feComponentTransfer>
			<feFuncA type="linear" slope="0.4"/>
		</feComponentTransfer>
		<feMerge>
			<feMergeNode />
			<feMergeNode in="SourceGraphic" />
		</feMerge>
	</filter>
<path d="M1341.4,151.4C1159,151.4,1087.2,71,912,71c-117.8,0-209.7,67.5-393.5,67.5c-142.2,0-212.6-38.8-324.6-38.8
	S-10,135.6-10,135.6v10c0,0,91.9-35.9,203.9-35.9s182.4,38.8,324.6,38.8C702.3,148.5,794.2,81,912,81c175.2,0,247,80.4,429.4,80.4
	c87.6,0,158-12.9,268.6-53.1v-10C1499.4,138.5,1429,151.4,1341.4,151.4z"/>
</svg>
