<?xml version="1.0" encoding="utf-8"?>
<!-- Generator: Adobe Illustrator 23.1.0, SVG Export Plug-In . SVG Version: 6.00 Build 0)  -->
<svg version="1.1" id="Layer_1" xmlns="http://www.w3.org/2000/svg" xmlns:xlink="http://www.w3.org/1999/xlink" x="0px" y="0px"
	 viewBox="0 0 48 48" style="enable-background:new 0 0 48 48;" xml:space="preserve">
<style type="text/css">
	.st0{fill-rule:evenodd;clip-rule:evenodd;}
</style>
<Path  d="M41 14a2 2 0 0 0-2-2H9a2 2 0 0 0-2 2v20a2 2 0 0 0 2 2h30a2 2 0 0 0 2-2V14zM28.5 34h-9V14h9v20zm2 0V14H39v20h-8.5zm-13 0H9V14h8.5v20z" fillRule="evenodd">
	</Path>
<path class="st0" d="M39,14H9V34H39V14z M9,12c-1.1,0-2,0.9-2,2V34c0,1.1,0.9,2,2,2H39c1.1,0,2-0.9,2-2V14c0-1.1-0.9-2-2-2H9z"/>
</svg>
