<?xml version="1.0" encoding="utf-8"?>
<!-- Generator: Adobe Illustrator 23.1.0, SVG Export Plug-In . SVG Version: 6.00 Build 0)  -->
<svg version="1.1" id="Layer_1" xmlns="http://www.w3.org/2000/svg" xmlns:xlink="http://www.w3.org/1999/xlink" x="0px" y="0px"
	 viewBox="0 0 16 16" style="enable-background:new 0 0 16 16;" xml:space="preserve">
<path class="st0" d="M9.8,15.8c-0.3,0-0.6-0.2-0.7-0.5l-3.8-9C5.2,6,5.3,5.7,5.5,5.5C5.7,5.3,6,5.2,6.3,5.3l9,3.8
	c0.3,0.1,0.5,0.4,0.5,0.7c0,0.3-0.2,0.6-0.5,0.7l-3.6,1.2l-1.2,3.6C10.4,15.5,10.1,15.7,9.8,15.8C9.8,15.8,9.8,15.8,9.8,15.8z
	 M7.4,7.4l2.3,5.5l0.7-2c0.1-0.2,0.2-0.4,0.5-0.5l2-0.7L7.4,7.4z"/>
<path class="st0" d="M6.4,12.8H2.2V2.2h11.5v4.5l1.5,0.6V1.5c0-0.4-0.3-0.8-0.8-0.8h-13c-0.4,0-0.8,0.3-0.8,0.8v12
	c0,0.4,0.3,0.8,0.8,0.8H7L6.4,12.8z"/>
</svg>
