<?xml version="1.0" encoding="utf-8"?>
<!-- Generator: Adobe Illustrator 23.1.0, SVG Export Plug-In . SVG Version: 6.00 Build 0)  -->
<svg version="1.1" id="Layer_1" xmlns="http://www.w3.org/2000/svg" xmlns:xlink="http://www.w3.org/1999/xlink" x="0px" y="0px"
	 viewBox="0 0 16 16" style="enable-background:new 0 0 16 16;" xml:space="preserve">
<path class="st0" d="M9.2,15.8c-0.3,0-0.6-0.2-0.7-0.5l-4.2-10C4.2,5,4.3,4.7,4.5,4.5C4.7,4.3,5,4.2,5.3,4.3l10,4.2
	c0.3,0.1,0.5,0.4,0.5,0.7c0,0.3-0.2,0.6-0.5,0.7l-4,1.4l-1.4,4C9.8,15.5,9.5,15.7,9.2,15.8C9.2,15.8,9.2,15.8,9.2,15.8z M6.4,6.4
	l2.7,6.5l0.8-2.5c0.1-0.2,0.2-0.4,0.5-0.5l2.5-0.8L6.4,6.4z"/>
<path class="st0" d="M3.7,7.6C2.7,7.2,2,6.2,2,5c0-1.6,1.3-3,3-3c1.2,0,2.2,0.7,2.7,1.7l1.7,0.7C9.1,2.2,7.3,0.5,5,0.5
	c-2.5,0-4.5,2-4.5,4.5c0,2.3,1.7,4.1,3.9,4.4L3.7,7.6z"/>
</svg>
