<?xml version="1.0" encoding="utf-8"?>
<!-- Generator: Adobe Illustrator 23.1.0, SVG Export Plug-In . SVG Version: 6.00 Build 0)  -->
<svg version="1.1" id="Layer_1" xmlns="http://www.w3.org/2000/svg" xmlns:xlink="http://www.w3.org/1999/xlink" x="0px" y="0px"
	 viewBox="0 0 16 16" style="enable-background:new 0 0 16 16;" xml:space="preserve">
<path class="st0" d="M7,14.8c-0.3,0-0.6-0.2-0.7-0.5l-5-12C1.2,2,1.3,1.7,1.5,1.5C1.7,1.3,2,1.2,2.3,1.3l12,5
	c0.3,0.1,0.5,0.4,0.5,0.7c0,0.3-0.2,0.6-0.5,0.7L9.4,9.4l-1.7,4.9C7.6,14.5,7.3,14.7,7,14.8C7,14.8,7,14.8,7,14.8z M3.4,3.4l3.5,8.5
	l1.1-3.3c0.1-0.2,0.2-0.4,0.5-0.5l3.3-1.1L3.4,3.4z"/>
</svg>
