<?xml version="1.0" encoding="utf-8"?>
<!-- Generator: Adobe Illustrator 23.1.0, SVG Export Plug-In . SVG Version: 6.00 Build 0)  -->
<svg version="1.1" id="Layer_1" xmlns="http://www.w3.org/2000/svg" xmlns:xlink="http://www.w3.org/1999/xlink" x="0px" y="0px"
	 viewBox="0 0 48 48" style="enable-background:new 0 0 48 48;" xml:space="preserve">
<style type="text/css">
	.st0{fill:#FFFFFF;}
	.st1{fill:none;stroke:#000000;stroke-width:2;stroke-miterlimit:10;}
</style>
<g>
	<path class="st0" d="M7,38.5c-0.5,0-1-0.4-1-1v-27c0-0.5,0.4-1,1-1h34c0.5,0,1,0.4,1,1v27c0,0.5-0.4,1-1,1H7z"/>
	<path d="M41,10.5l0,27l-34,0l0-27H41 M41,8.5H7c-1.1,0-2,0.9-2,2v27c0,1.1,0.9,2,2,2h34c1.1,0,2-0.9,2-2v-27
		C43,9.4,42.1,8.5,41,8.5L41,8.5z"/>
</g>
<g>
	<line class="st1" x1="10" y1="20" x2="15.1" y2="20"/>
</g>
<g>
	<line class="st1" x1="10" y1="23" x2="25.4" y2="23"/>
</g>
<g>
	<line class="st1" x1="10" y1="28" x2="34" y2="28"/>
</g>
</svg>
