<?xml version="1.0" encoding="utf-8"?>
<svg version="1.1" id="Layer_1" xmlns="http://www.w3.org/2000/svg" xmlns:xlink="http://www.w3.org/1999/xlink" x="0px" y="0px" viewBox="0 0 48 48" style="enable-background:new 0 0 48 48;" xml:space="preserve">
<path fill-rule="evenodd" clip-rule="evenodd" d="M41 13H7L7 35H41V13ZM7 11C5.89543 11 5 11.8954 5 13V35C5 36.1046 5.89543 37 7 37H41C42.1046 37 43 36.1046 43 35V13C43 11.8954 42.1046 11 41 11H7ZM26 17H36V19H26V17ZM36 23H26V25H36V23ZM11 29H36V31H11V29ZM22 17H11V25H22V17Z" />
</svg>

