<svg width="48" height="48" viewBox="0 0 48 48"  xmlns="http://www.w3.org/2000/svg">
<path fill-rule="evenodd" clip-rule="evenodd" d="M25.3701 29.2374C26.1015 30.4125 27.2817 31 28.9108 31C30.1076 31 31.0884 30.6475 31.853 29.9424C32.1473 29.6581 32.385 29.344 32.5661 29H39V27H32.9987C32.9824 26.2172 32.8079 25.5505 32.4752 25H39V23H26.0472C26.0718 22.7847 26.1121 22.564 26.168 22.3381C26.2366 21.8876 26.3805 21.4416 26.5997 21H39V19H28.1886C28.7269 18.5389 29.3167 18.1744 29.958 17.9065L29.5092 17C28.3635 17.534 27.4004 18.2006 26.6197 19H17.9157C18.454 18.5389 19.0438 18.1744 19.685 17.9065L19.2362 17C18.0906 17.534 17.1274 18.2006 16.3468 19H9V21H14.9216C14.6052 21.635 14.3703 22.3017 14.2168 23H9V25H14.0002C14.0001 25.0192 14 25.0384 14 25.0576C14 25.7283 14.0691 26.3758 14.2073 27H9V29H14.9503C14.9977 29.0818 15.0467 29.161 15.0971 29.2374C15.8285 30.4125 17.0087 31 18.6378 31C19.8346 31 20.8154 30.6475 21.5801 29.9424C21.8744 29.6581 22.1121 29.344 22.2931 29H25.2233C25.2707 29.0818 25.3196 29.161 25.3701 29.2374ZM24.4803 27C24.3421 26.3758 24.273 25.7283 24.273 25.0576C24.273 25.0384 24.273 25.0192 24.2731 25H22.2023C22.5349 25.5505 22.7094 26.2172 22.7258 27H24.4803ZM15.7743 23H24.4898C24.6433 22.3017 24.8782 21.635 25.1945 21H16.3267C16.1076 21.4416 15.9636 21.8876 15.895 22.3381C15.8391 22.564 15.7988 22.7847 15.7743 23Z" />
</svg>

