<svg width="48" height="48" viewBox="0 0 48 48"  xmlns="http://www.w3.org/2000/svg">
<path fill-rule="evenodd" clip-rule="evenodd" d="M39 14H9L9 34H39V14ZM9 12C7.89543 12 7 12.8954 7 14V34C7 35.1046 7.89543 36 9 36H39C40.1046 36 41 35.1046 41 34V14C41 12.8954 40.1046 12 39 12H9ZM20.5 18.622H36V20.622H20.5V18.622ZM36 22.622H20.5V24.622H36V22.622ZM20.5 26.622H36V28.622H20.5V26.622Z" />
<path d="M16.4934 22C15.8933 22 15.4584 21.7902 15.189 21.3705C15.0665 21.1906 14.9685 20.9688 14.895 20.705C14.8215 20.4412 14.7848 20.1655 14.7848 19.8777C14.7848 19.2542 14.944 18.6906 15.2625 18.1871C15.5932 17.6835 16.077 17.2878 16.7139 17L16.8793 17.3237C16.5241 17.4676 16.2117 17.6894 15.9423 17.9892C15.685 18.289 15.5319 18.5947 15.4829 18.9065C15.4462 19.0504 15.4278 19.1882 15.4278 19.3201C15.4278 19.44 15.4462 19.554 15.4829 19.6619C15.7524 19.3741 16.1076 19.2302 16.5486 19.2302C16.9773 19.2302 17.3263 19.3561 17.5958 19.6079C17.8653 19.8477 18 20.1835 18 20.6151C18 21.0228 17.8591 21.3585 17.5774 21.6223C17.2957 21.8741 16.9344 22 16.4934 22Z" />
<path d="M12.7087 22C12.1085 22 11.6737 21.7902 11.4042 21.3705C11.2817 21.1906 11.1837 20.9688 11.1102 20.705C11.0367 20.4412 11 20.1655 11 19.8777C11 19.2542 11.1592 18.6906 11.4777 18.1871C11.8084 17.6835 12.2922 17.2878 12.9291 17L13.0945 17.3237C12.7393 17.4676 12.4269 17.6894 12.1575 17.9892C11.9003 18.289 11.7472 18.5947 11.6982 18.9065C11.6614 19.0504 11.643 19.1882 11.643 19.3201C11.643 19.44 11.6614 19.554 11.6982 19.6619C11.9676 19.3741 12.3228 19.2302 12.7638 19.2302C13.1925 19.2302 13.5416 19.3561 13.811 19.6079C14.0805 19.8477 14.2152 20.1835 14.2152 20.6151C14.2152 21.0228 14.0744 21.3585 13.7927 21.6223C13.5109 21.8741 13.1496 22 12.7087 22Z" />
</svg>
