<svg width="48" height="48" viewBox="0 0 48 48"  xmlns="http://www.w3.org/2000/svg">
<path fill-rule="evenodd" clip-rule="evenodd" d="M40 19H15V21V23V25V27V29H27V27H33V25H39V23H35V21H40V19Z" />
<path d="M11.9239 22C11.4952 22 11.1846 21.8321 10.9921 21.4964C10.9046 21.3525 10.8346 21.1751 10.7822 20.964C10.7297 20.753 10.7034 20.5324 10.7034 20.3022C10.7034 19.8034 10.8171 19.3525 11.0446 18.9496C11.2808 18.5468 11.6264 18.2302 12.0814 18L12.1995 18.259C11.9458 18.3741 11.7227 18.5516 11.5302 18.7914C11.3465 19.0312 11.2371 19.2758 11.2021 19.5252C11.1759 19.6403 11.1627 19.7506 11.1627 19.8561C11.1627 19.952 11.1759 20.0432 11.2021 20.1295C11.3946 19.8993 11.6483 19.7842 11.9633 19.7842C12.2695 19.7842 12.5188 19.8849 12.7113 20.0863C12.9038 20.2782 13 20.5468 13 20.8921C13 21.2182 12.8994 21.4868 12.6982 21.6978C12.4969 21.8993 12.2388 22 11.9239 22Z" />
<path d="M9.22047 22C8.79178 22 8.48119 21.8321 8.28871 21.4964C8.20122 21.3525 8.13123 21.1751 8.07874 20.964C8.02625 20.753 8 20.5324 8 20.3022C8 19.8034 8.11374 19.3525 8.34121 18.9496C8.57743 18.5468 8.92301 18.2302 9.37795 18L9.49606 18.259C9.24234 18.3741 9.01925 18.5516 8.82677 18.7914C8.64304 19.0312 8.53368 19.2758 8.49869 19.5252C8.47244 19.6403 8.45932 19.7506 8.45932 19.8561C8.45932 19.952 8.47244 20.0432 8.49869 20.1295C8.69116 19.8993 8.94488 19.7842 9.25984 19.7842C9.56605 19.7842 9.8154 19.8849 10.0079 20.0863C10.2003 20.2782 10.2966 20.5468 10.2966 20.8921C10.2966 21.2182 10.196 21.4868 9.99475 21.6978C9.79353 21.8993 9.53543 22 9.22047 22Z" />
</svg>

