<svg width="48" height="48" viewBox="0 0 48 48"  xmlns="http://www.w3.org/2000/svg">
<path fill-rule="evenodd" clip-rule="evenodd" d="M39 17H14V20H39V17ZM39 23H14V26H39V23ZM14 29H39V32H14V29Z" />
<path d="M10.7087 20C10.1942 20 9.82152 19.8321 9.59055 19.4964C9.48557 19.3525 9.40158 19.1751 9.33858 18.964C9.27559 18.753 9.24409 18.5324 9.24409 18.3022C9.24409 17.8034 9.38058 17.3525 9.65354 16.9496C9.93701 16.5468 10.3517 16.2302 10.8976 16L11.0394 16.259C10.7349 16.3741 10.4672 16.5516 10.2362 16.7914C10.0157 17.0312 9.88451 17.2758 9.84252 17.5252C9.81102 17.6403 9.79528 17.7506 9.79528 17.8561C9.79528 17.952 9.81102 18.0432 9.84252 18.1295C10.0735 17.8993 10.378 17.7842 10.7559 17.7842C11.1234 17.7842 11.4226 17.8849 11.6535 18.0863C11.8845 18.2782 12 18.5468 12 18.8921C12 19.2182 11.8793 19.4868 11.6378 19.6978C11.3963 19.8993 11.0866 20 10.7087 20Z" />
<path d="M7.46457 20C6.95013 20 6.57743 19.8321 6.34646 19.4964C6.24147 19.3525 6.15748 19.1751 6.09449 18.964C6.0315 18.753 6 18.5324 6 18.3022C6 17.8034 6.13648 17.3525 6.40945 16.9496C6.69291 16.5468 7.10761 16.2302 7.65354 16L7.79528 16.259C7.49081 16.3741 7.2231 16.5516 6.99213 16.7914C6.77165 17.0312 6.64042 17.2758 6.59843 17.5252C6.56693 17.6403 6.55118 17.7506 6.55118 17.8561C6.55118 17.952 6.56693 18.0432 6.59843 18.1295C6.8294 17.8993 7.13386 17.7842 7.51181 17.7842C7.87927 17.7842 8.17848 17.8849 8.40945 18.0863C8.64042 18.2782 8.75591 18.5468 8.75591 18.8921C8.75591 19.2182 8.63517 19.4868 8.3937 19.6978C8.15223 19.8993 7.84252 20 7.46457 20Z" />
</svg>

