<?xml version="1.0" encoding="utf-8"?>
<!-- Generator: Adobe Illustrator 19.2.0, SVG Export Plug-In . SVG Version: 6.00 Build 0)  -->
<svg version="1.1" id="Layer_1" xmlns="http://www.w3.org/2000/svg" xmlns:xlink="http://www.w3.org/1999/xlink" x="0px" y="0px"
	 viewBox="0 0 50 50" style="enable-background:new 0 0 50 50;" xml:space="preserve">
<path d="M9.4,14.6c-2.4,2.9-3.6,5.9-3.6,8.9c0,1.3,0.2,2.4,0.5,3.3c1.8-1.4,3.8-2.1,6-2.1c2.9,0,5.3,0.9,7.3,2.7c2,1.8,3,4.2,3,7.3
	c0,1.9-0.5,3.6-1.4,5.1c-0.9,1.5-2.2,2.7-3.8,3.6s-3.3,1.3-5.1,1.3c-4.1,0-7.3-1.6-9.5-4.9C0.9,36.9,0,33.5,0,29.4
	c0-5.2,1.4-9.9,4.1-14c2.8-4.1,6.9-7.5,12.5-10l1.5,2.8C14.8,9.5,11.9,11.7,9.4,14.6z M36.9,14.6c-2.4,2.9-3.6,5.9-3.6,8.9
	c0,1.3,0.2,2.4,0.5,3.3c1.8-1.4,3.8-2.1,6-2.1c2.9,0,5.4,0.9,7.4,2.7c2,1.8,3,4.2,3,7.3c0,2.8-1,5.2-3,7.1c-2,1.9-4.4,2.9-7.3,2.9
	c-4.1,0-7.3-1.6-9.5-4.9c-1.8-2.7-2.8-6.2-2.8-10.3c0-5.2,1.4-9.9,4.1-14c2.8-4.1,6.9-7.5,12.5-10l1.5,2.8
	C42.2,9.5,39.3,11.7,36.9,14.6z"/>
</svg>
