<?xml version="1.0" encoding="utf-8"?>
<!-- Generator: Adobe Illustrator 19.2.0, SVG Export Plug-In . SVG Version: 6.00 Build 0)  -->
<svg version="1.1" id="Layer_1" xmlns="http://www.w3.org/2000/svg" xmlns:xlink="http://www.w3.org/1999/xlink" x="0px" y="0px"
	 viewBox="0 0 50 50" style="enable-background:new 0 0 50 50;" xml:space="preserve">
<path d="M22.6,12.8c-1.9,0.5-3.7,1.2-5.3,2.1c-1.6,0.9-3.1,1.9-4.3,3c-1.2,1.1-2.2,2.4-2.9,3.7c-0.7,1.3-1.1,2.7-1.1,4
	c0,1.2,0.1,1.8,0.3,1.8c0.8,0,1.5-0.3,2.4-0.9c0.8-0.6,1.9-0.9,3.3-0.9c2.1,0,3.9,0.8,5.4,2.4c1.5,1.6,2.3,3.7,2.3,6.2
	c0,2.5-1,4.6-2.9,6.4c-1.9,1.8-4.3,2.6-7.3,2.6c-1.8,0-3.4-0.4-4.9-1.1c-1.5-0.8-2.8-1.8-3.9-3.1c-1.1-1.3-2-2.8-2.6-4.6
	C0.3,32.5,0,30.6,0,28.6c0-3,0.6-5.8,1.8-8.3c1.2-2.5,2.8-4.8,4.9-6.7c2-1.9,4.4-3.5,7.2-4.6c2.8-1.2,5.6-1.8,8.6-2V12.8z M50,12.8
	c-1.9,0.5-3.7,1.2-5.4,2.1c-1.7,0.9-3.1,1.9-4.3,3c-1.2,1.1-2.2,2.4-2.9,3.7c-0.7,1.3-1.1,2.7-1.1,4c0,1.2,0.1,1.8,0.4,1.8
	c0.8,0,1.5-0.3,2.3-0.9c0.8-0.6,1.9-0.9,3.3-0.9c2,0,3.8,0.8,5.3,2.4c1.5,1.6,2.3,3.7,2.3,6.2c0,2.5-1,4.6-2.9,6.4
	c-2,1.8-4.4,2.6-7.3,2.6c-1.7,0-3.3-0.4-4.8-1.1c-1.5-0.8-2.8-1.8-3.9-3.1c-1.1-1.3-2-2.8-2.7-4.6c-0.7-1.8-1-3.7-1-5.7
	c0-3,0.6-5.8,1.8-8.3c1.2-2.5,2.8-4.8,4.9-6.7c2-1.9,4.4-3.5,7.2-4.6c2.8-1.2,5.7-1.8,8.8-2V12.8z"/>
</svg>
