<svg width="48" height="48" viewBox="0 0 48 48"  xmlns="http://www.w3.org/2000/svg">
<path fill-rule="evenodd" clip-rule="evenodd" d="M20.3412 30H11.1496H11V29.998C9.61956 29.9617 8.61344 29.4167 7.98163 28.3633C7.68416 27.8957 7.44619 27.3189 7.26772 26.6331C7.08924 25.9472 7 25.2302 7 24.482C7 22.8609 7.3867 21.3957 8.1601 20.0863C8.96325 18.777 10.1382 17.7482 11.685 17L12.0866 17.8417C11.224 18.2158 10.4654 18.7926 9.81102 19.5719C9.18635 20.3513 8.81452 21.1463 8.69554 21.9568C8.6063 22.3309 8.56168 22.6894 8.56168 23.0324C8.56168 23.3441 8.6063 23.6403 8.69554 23.9209C9.34996 23.1727 10.2126 22.7986 11.2835 22.7986C12.3246 22.7986 13.1724 23.1259 13.8268 23.7806C13.9002 23.8506 13.9696 23.9237 14.0348 24H16.2032C16.2371 23.3034 16.3453 22.6367 16.5276 22H11V20H17.4055C18.2069 18.7317 19.364 17.7317 20.8766 17L21.2782 17.8417C20.4156 18.2158 19.657 18.7926 19.0026 19.5719C18.8887 19.7141 18.7831 19.8568 18.686 20H41V22H17.877C17.7945 22.3585 17.7533 22.7027 17.7533 23.0324C17.7533 23.3441 17.7979 23.6403 17.8871 23.9209C18.5416 23.1727 19.4042 22.7986 20.4751 22.7986C21.5162 22.7986 22.364 23.1259 23.0184 23.7806C23.0918 23.8506 23.1612 23.9237 23.2264 24H41V26H23.9854C23.9951 26.1294 24 26.2625 24 26.3993C24 26.9912 23.8933 27.5248 23.68 28H41V30H20.3412ZM16.3215 26H14.7938C14.8035 26.1294 14.8084 26.2625 14.8084 26.3993C14.8084 26.9912 14.7017 27.5248 14.4884 28H16.9653C16.7627 27.6066 16.5941 27.1509 16.4593 26.6331C16.4051 26.4249 16.3592 26.2139 16.3215 26Z" />
</svg>

