<?xml version="1.0" encoding="utf-8"?>
<!-- Generator: Adobe Illustrator 19.2.0, SVG Export Plug-In . SVG Version: 6.00 Build 0)  -->
<svg version="1.1" id="Layer_1" xmlns="http://www.w3.org/2000/svg" xmlns:xlink="http://www.w3.org/1999/xlink" x="0px" y="0px"
	 viewBox="0 0 50 50" style="enable-background:new 0 0 50 50;" xml:space="preserve">
<path d="M12.5,9.2h6.5c1.1,0,1.8,0.2,2.3,0.7c0.5,0.5,0.7,1.2,0.7,2.3v3.4c0,1.1-0.2,1.8-0.7,2.3c-0.5,0.5-1.2,0.7-2.3,0.7h-5.8
	c-0.7,0-1.3,0.2-1.7,0.6c-0.4,0.4-0.6,1-0.6,1.7v1.3H20c1.1,0,1.8,0.2,2.3,0.7c0.5,0.5,0.7,1.2,0.7,2.3v12.5c0,1.1-0.2,1.8-0.7,2.3
	c-0.5,0.5-1.2,0.7-2.3,0.7H3c-1.1,0-1.8-0.2-2.3-0.7C0.2,39.6,0,38.8,0,37.8V21.9c0-4.3,1.1-7.4,3.4-9.6C5.7,10.3,8.7,9.2,12.5,9.2z
	 M39.4,9.2h6.5c1.1,0,1.8,0.2,2.3,0.7c0.5,0.5,0.7,1.2,0.7,2.3v3.4c0,1.1-0.2,1.8-0.7,2.3c-0.5,0.5-1.2,0.7-2.3,0.7h-5.8
	c-0.7,0-1.3,0.2-1.7,0.6c-0.4,0.4-0.6,1-0.6,1.7v1.3H47c1.1,0,1.8,0.2,2.3,0.7c0.5,0.5,0.7,1.2,0.7,2.3v12.5c0,1.1-0.2,1.8-0.7,2.3
	c-0.5,0.5-1.2,0.7-2.3,0.7H30c-1.1,0-1.8-0.2-2.3-0.7c-0.5-0.5-0.7-1.2-0.7-2.3V21.9c0-4.3,1.1-7.4,3.4-9.6
	C32.6,10.3,35.6,9.2,39.4,9.2z"/>
</svg>
