<?xml version="1.0" encoding="utf-8"?>
<!-- Generator: Adobe Illustrator 23.1.0, SVG Export Plug-In . SVG Version: 6.00 Build 0)  -->
<svg version="1.1" id="Layer_1" xmlns="http://www.w3.org/2000/svg" xmlns:xlink="http://www.w3.org/1999/xlink" x="0px" y="0px"
	 viewBox="0 0 16 16" style="enable-background:new 0 0 16 16;" xml:space="preserve">
<path d="M7.7,12.7h-2v-4H2v4H0V3.4h2v3.7h3.7V3.4h2V12.7z"/>
<path d="M16,12.7H9.4v-1.4L11.8,9c0.7-0.7,1.1-1.2,1.4-1.5c0.2-0.3,0.4-0.5,0.5-0.8c0.1-0.2,0.1-0.5,0.1-0.7c0-0.4-0.1-0.7-0.3-0.8
	c-0.2-0.2-0.5-0.3-0.8-0.3c-0.4,0-0.7,0.1-1,0.3c-0.3,0.2-0.7,0.4-1.1,0.7L9.4,4.6c0.5-0.4,0.8-0.7,1.1-0.8c0.3-0.2,0.6-0.3,1-0.4
	c0.4-0.1,0.8-0.1,1.2-0.1c0.6,0,1.1,0.1,1.6,0.3c0.5,0.2,0.8,0.5,1,0.9s0.4,0.8,0.4,1.3c0,0.4-0.1,0.8-0.2,1.2
	c-0.2,0.4-0.4,0.8-0.7,1.2s-0.9,1-1.7,1.7L11.9,11v0.1h4.1L16,12.7L16,12.7z"/>
</svg>
