<?xml version="1.0" encoding="utf-8"?>
<!-- Generator: Adobe Illustrator 23.1.0, SVG Export Plug-In . SVG Version: 6.00 Build 0)  -->
<svg version="1.1" id="Layer_1" xmlns="http://www.w3.org/2000/svg" xmlns:xlink="http://www.w3.org/1999/xlink" x="0px" y="0px"
	 viewBox="0 0 16 16" style="enable-background:new 0 0 16 16;" xml:space="preserve">
<path d="M7.6,12.1H6.3V8.4H2.6v3.7H1.2V3.8h1.3v3.4h3.8V3.8h1.3C7.6,3.8,7.6,12.1,7.6,12.1z"/>
<path d="M9.2,8.6c0-3.2,1.3-4.8,3.9-4.8c0.4,0,0.8,0,1,0.1v1.1c-0.3-0.1-0.6-0.1-1-0.1c-0.9,0-1.5,0.2-2,0.7
	c-0.4,0.5-0.7,1.2-0.7,2.3h0.1c0.2-0.3,0.4-0.5,0.7-0.7c0.3-0.2,0.7-0.2,1.1-0.2c0.7,0,1.3,0.2,1.7,0.7s0.6,1.1,0.6,1.9
	c0,0.9-0.2,1.5-0.7,2.1c-0.5,0.5-1.1,0.8-2,0.8c-0.6,0-1.1-0.1-1.5-0.4c-0.4-0.3-0.8-0.7-1-1.3C9.4,10,9.2,9.3,9.2,8.6z M12.1,11.1
	c0.4,0,0.8-0.2,1-0.4c0.2-0.3,0.4-0.7,0.4-1.3c0-0.5-0.1-0.9-0.4-1.1c-0.2-0.3-0.6-0.4-1-0.4c-0.3,0-0.6,0.1-0.8,0.2
	c-0.2,0.1-0.4,0.3-0.6,0.5c-0.1,0.2-0.2,0.4-0.2,0.6c0,0.5,0.2,1,0.4,1.3C11.3,10.9,11.6,11.1,12.1,11.1z"/>
</svg>
