<?xml version="1.0" encoding="utf-8"?>
<!-- Generator: Adobe Illustrator 23.1.0, SVG Export Plug-In . SVG Version: 6.00 Build 0)  -->
<svg version="1.1" id="Layer_1" xmlns="http://www.w3.org/2000/svg" xmlns:xlink="http://www.w3.org/1999/xlink" x="0px" y="0px"
	 viewBox="0 0 16 16" style="enable-background:new 0 0 16 16;" xml:space="preserve">
<path d="M7.7,12.1H6.3V8.4H2.4v3.8H1V3.8h1.4v3.4h3.9V3.8h1.4V12.1z"/>
<path d="M12.2,6.9c0.9,0,1.5,0.2,2,0.7C14.7,8,15,8.6,15,9.4c0,0.9-0.3,1.6-0.9,2.1c-0.6,0.5-1.4,0.7-2.4,0.7
	c-0.9,0-1.7-0.1-2.2-0.4v-1.2c0.3,0.2,0.7,0.3,1.1,0.4c0.4,0.1,0.8,0.1,1.1,0.1c0.6,0,1.1-0.1,1.4-0.4c0.3-0.3,0.5-0.7,0.5-1.2
	c0-1-0.6-1.5-1.9-1.5c-0.2,0-0.4,0-0.7,0s-0.5,0.1-0.7,0.1L9.6,7.8L10,3.8h4.4v1.2h-3.2L11,7.1c0.1,0,0.3,0,0.5-0.1
	C11.7,7,11.9,6.9,12.2,6.9z"/>
</svg>
