<?xml version="1.0" encoding="utf-8"?>
<!-- Generator: Adobe Illustrator 19.2.0, SVG Export Plug-In . SVG Version: 6.00 Build 0)  -->
<svg version="1.1" id="Layer_1" xmlns="http://www.w3.org/2000/svg" xmlns:xlink="http://www.w3.org/1999/xlink" x="0px" y="0px"
	 viewBox="0 0 50 50" style="enable-background:new 0 0 50 50;" xml:space="preserve">
<path d="M24.2,36.2h-3.7V26H10v10.2H6.3V13.5H10v9.3h10.5v-9.3h3.7V36.2z"/>
<path d="M36.3,22c2.3,0,4.1,0.6,5.4,1.8c1.3,1.2,2,2.9,2,5c0,2.4-0.8,4.3-2.3,5.7s-3.7,2-6.5,2c-2.5,0-4.5-0.4-6-1.2V32
	c0.8,0.5,1.8,0.8,2.9,1.1s2.1,0.4,3,0.4c1.6,0,2.9-0.4,3.8-1.1c0.9-0.7,1.3-1.8,1.3-3.2c0-2.7-1.7-4.1-5.2-4.1c-0.5,0-1.1,0-1.8,0.1
	c-0.7,0.1-1.3,0.2-1.9,0.3l-1.6-1l0.9-11.1h11.8v3.2h-8.6L33,22.4c0.4-0.1,0.8-0.1,1.3-0.2C34.9,22.1,35.5,22,36.3,22z"/>
</svg>
