<?xml version="1.0" encoding="utf-8"?>
<!-- Generator: Adobe Illustrator 19.2.0, SVG Export Plug-In . SVG Version: 6.00 Build 0)  -->
<svg version="1.1" id="Layer_1" xmlns="http://www.w3.org/2000/svg" xmlns:xlink="http://www.w3.org/1999/xlink" x="0px" y="0px"
	 viewBox="0 0 50 50" style="enable-background:new 0 0 50 50;" xml:space="preserve">
<path d="M24.1,39.6H18V27.2H6.6v12.4H0.5V10.8h6.1v11.3H18V10.8h6.1V39.6z"/>
<path d="M49.5,39.6H29.4v-4.2l7.2-7.3c2.1-2.2,3.5-3.7,4.2-4.6c0.7-0.8,1.1-1.6,1.4-2.4c0.3-0.7,0.4-1.5,0.4-2.2c0-1.2-0.3-2-1-2.6
	c-0.6-0.6-1.5-0.8-2.5-0.8c-1.1,0-2.2,0.3-3.2,0.8s-2.1,1.2-3.3,2.2l-3.3-3.9c1.4-1.2,2.6-2.1,3.5-2.6c0.9-0.5,1.9-0.9,3-1.2
	c1.1-0.3,2.3-0.4,3.7-0.4c1.8,0,3.4,0.3,4.8,1c1.4,0.7,2.4,1.6,3.2,2.8s1.1,2.5,1.1,4.1c0,1.3-0.2,2.6-0.7,3.7
	c-0.5,1.2-1.2,2.4-2.2,3.6s-2.7,3-5.2,5.2l-3.7,3.5v0.3h12.5V39.6z"/>
</svg>
