<?xml version="1.0" encoding="utf-8"?>
<!-- Generator: Adobe Illustrator 19.2.0, SVG Export Plug-In . SVG Version: 6.00 Build 0)  -->
<svg version="1.1" id="Layer_1" xmlns="http://www.w3.org/2000/svg" xmlns:xlink="http://www.w3.org/1999/xlink" x="0px" y="0px"
	 viewBox="0 0 50 50" style="enable-background:new 0 0 50 50;" xml:space="preserve">
<path d="M24,38.9h-4.6V26.4H6.6v12.6H2V11.1h4.6v11.4h12.8V11.1H24V38.9z"/>
<path d="M47.2,17.5c0,1.8-0.5,3.2-1.5,4.4c-1,1.2-2.5,2-4.3,2.4v0.2c2.2,0.3,3.9,1,5,2.1c1.1,1.1,1.7,2.6,1.7,4.4
	c0,2.7-0.9,4.7-2.8,6.2c-1.9,1.5-4.6,2.2-8.1,2.2c-3.1,0-5.7-0.5-7.8-1.5v-4c1.2,0.6,2.4,1,3.8,1.4c1.3,0.3,2.6,0.5,3.8,0.5
	c2.2,0,3.8-0.4,4.8-1.2c1.1-0.8,1.6-2,1.6-3.7c0-1.5-0.6-2.6-1.8-3.3c-1.2-0.7-3-1-5.6-1h-2.4v-3.6H36c4.4,0,6.7-1.5,6.7-4.6
	c0-1.2-0.4-2.1-1.2-2.8c-0.8-0.6-1.9-1-3.4-1c-1.1,0-2.1,0.1-3,0.4c-1,0.3-2.1,0.9-3.5,1.7l-2.2-3.1c2.6-1.9,5.5-2.8,8.9-2.8
	c2.8,0,5,0.6,6.6,1.8C46.4,13.7,47.2,15.4,47.2,17.5z"/>
</svg>
