<?xml version="1.0" encoding="utf-8"?>
<!-- Generator: Adobe Illustrator 19.2.0, SVG Export Plug-In . SVG Version: 6.00 Build 0)  -->
<svg version="1.1" id="Layer_1" xmlns="http://www.w3.org/2000/svg" xmlns:xlink="http://www.w3.org/1999/xlink" x="0px" y="0px"
	 viewBox="0 0 50 50" style="enable-background:new 0 0 50 50;" xml:space="preserve">
<path d="M24.1,35.2h-3.3V26h-9.4v9.2H8.1V14.8h3.3v8.3h9.4v-8.3h3.3V35.2z"/>
<path d="M28.1,26.5c0-8,3.2-11.9,9.7-11.9c1,0,1.9,0.1,2.6,0.2v2.7c-0.7-0.2-1.5-0.3-2.4-0.3c-2.2,0-3.8,0.6-4.9,1.8
	c-1.1,1.2-1.7,3-1.8,5.6h0.2c0.4-0.8,1-1.3,1.8-1.7c0.8-0.4,1.7-0.6,2.8-0.6c1.8,0,3.3,0.6,4.3,1.7c1,1.1,1.5,2.7,1.5,4.6
	c0,2.1-0.6,3.8-1.8,5.1c-1.2,1.2-2.8,1.9-4.9,1.9c-1.5,0-2.7-0.3-3.8-1.1c-1.1-0.7-1.9-1.7-2.5-3.1C28.4,30,28.1,28.4,28.1,26.5z
	 M35.2,32.7c1.1,0,2-0.4,2.6-1.1c0.6-0.7,0.9-1.8,0.9-3.1c0-1.2-0.3-2.1-0.9-2.8c-0.6-0.7-1.4-1-2.6-1c-0.7,0-1.4,0.2-1.9,0.5
	c-0.6,0.3-1.1,0.7-1.4,1.2c-0.3,0.5-0.5,1.1-0.5,1.6c0,1.3,0.4,2.4,1.1,3.3C33.2,32.3,34.1,32.7,35.2,32.7z"/>
</svg>
