<?xml version="1.0" encoding="utf-8"?>
<!-- Generator: Adobe Illustrator 23.1.0, SVG Export Plug-In . SVG Version: 6.00 Build 0)  -->
<svg version="1.1" id="Layer_1" xmlns="http://www.w3.org/2000/svg" xmlns:xlink="http://www.w3.org/1999/xlink" x="0px" y="0px"
	 viewBox="0 0 16 16" style="enable-background:new 0 0 16 16;" xml:space="preserve">
<path d="M7.7,12.6H6.2V8.4H2v4.2H0.5V3.3H2v3.8h4.2V3.3h1.5V12.6z"/>
<path d="M15.2,5.5c0,0.6-0.2,1.1-0.5,1.5c-0.3,0.4-0.8,0.7-1.4,0.8v0.1c0.7,0.1,1.3,0.3,1.6,0.7c0.4,0.4,0.6,0.9,0.6,1.5
	c0,0.9-0.3,1.6-0.9,2.1c-0.6,0.5-1.5,0.7-2.6,0.7c-1,0-1.9-0.2-2.5-0.5v-1.3c0.4,0.2,0.8,0.3,1.2,0.5c0.4,0.1,0.8,0.2,1.2,0.2
	c0.7,0,1.2-0.1,1.6-0.4c0.4-0.3,0.5-0.7,0.5-1.2c0-0.5-0.2-0.9-0.6-1.1s-1-0.3-1.8-0.3h-0.8V7.3h0.8c1.4,0,2.2-0.5,2.2-1.5
	c0-0.4-0.1-0.7-0.4-0.9c-0.3-0.2-0.6-0.3-1.1-0.3c-0.4,0-0.7,0-1,0.1c-0.3,0.1-0.7,0.3-1.1,0.6l-0.7-1c0.8-0.6,1.8-0.9,2.9-0.9
	c0.9,0,1.6,0.2,2.1,0.6C14.9,4.2,15.2,4.8,15.2,5.5z"/>
</svg>
